<?xml version="1.0" encoding="utf-8"?>
<!-- Generator: Adobe Illustrator 15.0.0, SVG Export Plug-In . SVG Version: 6.00 Build 0)  -->
<!DOCTYPE svg PUBLIC "-//W3C//DTD SVG 1.1//EN" "http://www.w3.org/Graphics/SVG/1.1/DTD/svg11.dtd">
<svg version="1.1" id="Calque_1" xmlns="http://www.w3.org/2000/svg" xmlns:xlink="http://www.w3.org/1999/xlink" x="0px" y="0px"
	 width="612px" height="288px" viewBox="0 0 612 288" enable-background="new 0 0 612 288" xml:space="preserve">
<g>
	
		<rect x="7.378" y="15.723" fill-rule="evenodd" clip-rule="evenodd" fill="#FFFFB9" stroke="#800000" stroke-width="0.7559" stroke-linecap="square" stroke-miterlimit="10" width="100.227" height="51.872"/>
	<g>
		<path d="M43.705,34.898c-1.542,0-2.765-0.459-3.671-1.376c-0.907-0.917-1.36-2.207-1.36-3.87c0-1.604,0.454-2.882,1.363-3.836
			c0.908-0.954,2.133-1.43,3.675-1.43c0.41,0,0.778,0.022,1.104,0.068s0.639,0.109,0.938,0.19c0.235,0.068,0.49,0.161,0.766,0.278
			c0.276,0.118,0.499,0.22,0.669,0.306v2.412h-0.262c-0.125-0.109-0.281-0.239-0.469-0.391c-0.189-0.152-0.403-0.3-0.642-0.445
			c-0.239-0.145-0.502-0.268-0.79-0.37s-0.588-0.153-0.901-0.153c-0.373,0-0.714,0.058-1.025,0.173
			c-0.311,0.115-0.606,0.316-0.887,0.601c-0.258,0.258-0.468,0.607-0.631,1.047c-0.164,0.439-0.245,0.958-0.245,1.556
			c0,0.629,0.085,1.158,0.255,1.586c0.17,0.428,0.394,0.774,0.669,1.037c0.267,0.253,0.565,0.437,0.894,0.55
			c0.329,0.113,0.657,0.17,0.984,0.17c0.34,0,0.665-0.056,0.973-0.167c0.308-0.111,0.568-0.234,0.78-0.371
			c0.23-0.14,0.432-0.283,0.607-0.428c0.175-0.145,0.327-0.274,0.455-0.388h0.235v2.378c-0.188,0.086-0.407,0.185-0.656,0.296
			c-0.249,0.111-0.504,0.205-0.766,0.282c-0.322,0.095-0.624,0.167-0.904,0.218C44.583,34.873,44.197,34.898,43.705,34.898z"/>
		<path d="M50.548,34.701h-2.416V24.127h2.416V34.701z"/>
		<path d="M54.472,25.982h-2.553v-1.855h2.553V25.982z M54.403,34.701h-2.416v-7.631h2.416V34.701z"/>
		<path d="M59.811,34.905c-1.463,0-2.584-0.344-3.364-1.033c-0.78-0.688-1.17-1.669-1.17-2.942c0-1.246,0.363-2.24,1.09-2.983
			c0.727-0.743,1.744-1.114,3.051-1.114c1.187,0,2.08,0.315,2.678,0.944c0.598,0.63,0.897,1.532,0.897,2.705v0.856h-5.293
			c0.023,0.354,0.099,0.649,0.228,0.887c0.128,0.238,0.299,0.427,0.511,0.567c0.207,0.141,0.448,0.241,0.725,0.303
			c0.276,0.061,0.577,0.091,0.904,0.091c0.281,0,0.557-0.03,0.829-0.091c0.271-0.062,0.52-0.142,0.745-0.241
			c0.198-0.086,0.381-0.179,0.549-0.279s0.305-0.188,0.411-0.265h0.255v1.964c-0.198,0.077-0.378,0.148-0.542,0.214
			c-0.163,0.065-0.388,0.132-0.673,0.2c-0.262,0.068-0.533,0.121-0.811,0.16S60.211,34.905,59.811,34.905z M60.612,29.903
			c-0.014-0.503-0.132-0.886-0.355-1.148s-0.565-0.395-1.025-0.395c-0.469,0-0.836,0.138-1.101,0.415
			c-0.265,0.276-0.411,0.652-0.438,1.128H60.612z"/>
		<path d="M72.089,34.701h-2.43v-3.785c0-0.308-0.013-0.615-0.038-0.921c-0.025-0.306-0.072-0.531-0.141-0.676
			c-0.083-0.172-0.203-0.296-0.359-0.371c-0.157-0.075-0.366-0.112-0.628-0.112c-0.198,0-0.398,0.036-0.6,0.108
			c-0.203,0.073-0.419,0.188-0.649,0.347v5.409h-2.416v-7.631h2.416v0.843c0.396-0.331,0.781-0.589,1.156-0.775
			c0.375-0.186,0.79-0.278,1.246-0.278c0.792,0,1.396,0.246,1.815,0.737c0.419,0.492,0.628,1.204,0.628,2.137V34.701z"/>
		<path d="M76.802,34.85c-0.985,0-1.701-0.199-2.15-0.598c-0.449-0.398-0.673-1.051-0.673-1.957v-3.567h-0.925v-1.658h0.925v-2.181
			h2.416v2.181h2.326v1.658h-2.326v2.705c0,0.267,0.002,0.5,0.007,0.7c0.004,0.2,0.042,0.378,0.11,0.537
			c0.064,0.159,0.178,0.284,0.342,0.377c0.163,0.093,0.401,0.139,0.714,0.139c0.129,0,0.298-0.027,0.507-0.082
			c0.209-0.054,0.355-0.104,0.438-0.149h0.207v1.679c-0.262,0.068-0.541,0.121-0.835,0.16S77.23,34.85,76.802,34.85z"/>
	</g>
	
		<line fill="none" stroke="#800000" stroke-width="0.7559" stroke-linecap="square" stroke-miterlimit="10" x1="7.378" y1="43.557" x2="108.89" y2="43.557"/>
	
		<line fill="none" stroke="#800000" stroke-width="0.7559" stroke-linecap="square" stroke-miterlimit="10" x1="7.378" y1="54.944" x2="108.89" y2="54.944"/>
	
		<rect x="212.972" y="15.723" fill-rule="evenodd" clip-rule="evenodd" fill="#FFFFB9" stroke="#800000" stroke-width="0.7559" stroke-linecap="square" stroke-miterlimit="10" width="100.227" height="51.872"/>
	<g>
		<path d="M229.435,34.701H223.9v-1.767h1.477v-6.585H223.9v-1.767h5.535v1.767h-1.477v6.585h1.477V34.701z"/>
		<path d="M237.874,34.701h-2.43v-3.785c0-0.308-0.013-0.615-0.038-0.921c-0.025-0.306-0.072-0.531-0.141-0.676
			c-0.083-0.172-0.203-0.296-0.359-0.371c-0.157-0.075-0.366-0.112-0.628-0.112c-0.198,0-0.398,0.036-0.6,0.108
			c-0.203,0.073-0.419,0.188-0.649,0.347v5.409h-2.416v-7.631h2.416v0.843c0.396-0.331,0.781-0.589,1.156-0.775
			c0.375-0.186,0.79-0.278,1.246-0.278c0.792,0,1.396,0.246,1.815,0.737c0.419,0.492,0.628,1.204,0.628,2.137V34.701z"/>
		<path d="M246.872,27.069l-2.781,7.631h-2.636l-2.761-7.631h2.54l1.587,5.049l1.567-5.049H246.872z"/>
		<path d="M256.042,30.889c0,1.255-0.349,2.244-1.045,2.966c-0.697,0.723-1.683,1.084-2.958,1.084c-1.265,0-2.249-0.361-2.95-1.084
			c-0.702-0.722-1.053-1.711-1.053-2.966c0-1.269,0.351-2.262,1.053-2.98c0.701-0.718,1.685-1.077,2.95-1.077
			c1.27,0,2.254,0.361,2.954,1.084C255.693,28.638,256.042,29.629,256.042,30.889z M253.565,30.902c0-0.453-0.038-0.83-0.114-1.131
			c-0.076-0.301-0.181-0.542-0.314-0.724c-0.143-0.19-0.304-0.323-0.483-0.397s-0.384-0.112-0.614-0.112
			c-0.216,0-0.412,0.033-0.586,0.099c-0.175,0.066-0.336,0.191-0.483,0.377c-0.138,0.177-0.249,0.419-0.331,0.728
			c-0.083,0.308-0.125,0.695-0.125,1.162c0,0.467,0.039,0.844,0.118,1.132c0.078,0.288,0.179,0.518,0.303,0.689
			c0.129,0.177,0.29,0.306,0.483,0.387s0.407,0.123,0.642,0.123c0.193,0,0.39-0.041,0.59-0.123s0.36-0.204,0.479-0.367
			c0.143-0.195,0.251-0.429,0.325-0.704C253.528,31.766,253.565,31.387,253.565,30.902z"/>
		<path d="M261.397,34.905c-0.64,0-1.225-0.08-1.756-0.238c-0.531-0.158-0.993-0.403-1.384-0.734
			c-0.387-0.331-0.688-0.746-0.904-1.247s-0.324-1.091-0.324-1.771c0-0.729,0.117-1.35,0.352-1.862
			c0.234-0.512,0.552-0.933,0.952-1.264c0.387-0.317,0.841-0.551,1.363-0.703c0.522-0.152,1.066-0.228,1.632-0.228
			c0.428,0,0.855,0.049,1.284,0.146c0.428,0.098,0.858,0.252,1.291,0.465v2.039h-0.311c-0.097-0.09-0.215-0.19-0.355-0.299
			c-0.141-0.109-0.293-0.208-0.459-0.299c-0.175-0.095-0.373-0.176-0.594-0.241c-0.221-0.066-0.467-0.099-0.738-0.099
			c-0.617,0-1.094,0.212-1.432,0.635c-0.338,0.424-0.507,0.993-0.507,1.709c0,0.766,0.181,1.336,0.542,1.712
			c0.361,0.376,0.841,0.564,1.439,0.564c0.304,0,0.57-0.034,0.801-0.102c0.23-0.068,0.428-0.15,0.593-0.245
			c0.161-0.095,0.299-0.194,0.414-0.296c0.115-0.102,0.214-0.193,0.297-0.275h0.311v2.039c-0.138,0.059-0.298,0.127-0.479,0.204
			c-0.182,0.077-0.367,0.141-0.556,0.19c-0.235,0.063-0.455,0.112-0.659,0.146C262.004,34.888,261.733,34.905,261.397,34.905z"/>
		<path d="M269.575,33.892c-0.166,0.136-0.314,0.258-0.445,0.367c-0.131,0.109-0.307,0.218-0.528,0.326
			c-0.216,0.104-0.427,0.184-0.631,0.238c-0.205,0.054-0.491,0.082-0.859,0.082c-0.686,0-1.255-0.227-1.708-0.68
			s-0.68-1.024-0.68-1.712c0-0.566,0.115-1.024,0.345-1.373c0.23-0.349,0.562-0.625,0.994-0.829
			c0.437-0.208,0.959-0.354,1.566-0.435c0.607-0.082,1.261-0.145,1.96-0.19v-0.041c0-0.421-0.158-0.712-0.473-0.874
			c-0.315-0.161-0.788-0.241-1.418-0.241c-0.286,0-0.619,0.051-1.001,0.153c-0.382,0.102-0.754,0.232-1.118,0.391h-0.207v-1.842
			c0.239-0.068,0.626-0.148,1.16-0.241s1.072-0.139,1.615-0.139c1.334,0,2.307,0.219,2.916,0.656
			c0.61,0.437,0.915,1.104,0.915,2.001v5.192h-2.402V33.892z M269.575,32.709v-1.59c-0.409,0.041-0.741,0.076-0.994,0.105
			c-0.253,0.03-0.501,0.087-0.746,0.173c-0.211,0.073-0.376,0.183-0.493,0.33c-0.118,0.147-0.176,0.343-0.176,0.588
			c0,0.358,0.098,0.604,0.293,0.737c0.195,0.134,0.484,0.201,0.866,0.201c0.211,0,0.428-0.048,0.649-0.143
			C269.195,33.016,269.396,32.882,269.575,32.709z"/>
		<path d="M277.255,34.85c-0.985,0-1.701-0.199-2.15-0.598c-0.449-0.398-0.673-1.051-0.673-1.957v-3.567h-0.925v-1.658h0.925v-2.181
			h2.416v2.181h2.326v1.658h-2.326v2.705c0,0.267,0.002,0.5,0.007,0.7c0.004,0.2,0.042,0.378,0.11,0.537
			c0.064,0.159,0.178,0.284,0.342,0.377c0.163,0.093,0.401,0.139,0.714,0.139c0.129,0,0.298-0.027,0.507-0.082
			c0.209-0.054,0.355-0.104,0.438-0.149h0.207v1.679c-0.262,0.068-0.541,0.121-0.835,0.16S277.683,34.85,277.255,34.85z"/>
		<path d="M284.68,34.905c-1.463,0-2.584-0.344-3.364-1.033c-0.78-0.688-1.17-1.669-1.17-2.942c0-1.246,0.363-2.24,1.09-2.983
			c0.727-0.743,1.744-1.114,3.051-1.114c1.187,0,2.08,0.315,2.678,0.944c0.598,0.63,0.897,1.532,0.897,2.705v0.856h-5.293
			c0.023,0.354,0.099,0.649,0.228,0.887c0.128,0.238,0.299,0.427,0.511,0.567c0.207,0.141,0.448,0.241,0.725,0.303
			c0.276,0.061,0.577,0.091,0.904,0.091c0.281,0,0.557-0.03,0.829-0.091c0.271-0.062,0.52-0.142,0.745-0.241
			c0.198-0.086,0.381-0.179,0.549-0.279s0.305-0.188,0.411-0.265h0.255v1.964c-0.198,0.077-0.378,0.148-0.542,0.214
			c-0.163,0.065-0.388,0.132-0.673,0.2c-0.262,0.068-0.533,0.121-0.811,0.16S285.08,34.905,284.68,34.905z M285.48,29.903
			c-0.014-0.503-0.132-0.886-0.355-1.148s-0.565-0.395-1.025-0.395c-0.469,0-0.836,0.138-1.101,0.415
			c-0.265,0.276-0.411,0.652-0.438,1.128H285.48z"/>
		<path d="M296.896,34.701h-2.416v-0.843c-0.418,0.344-0.803,0.606-1.152,0.785c-0.35,0.179-0.766,0.268-1.25,0.268
			c-0.768,0-1.368-0.239-1.798-0.717s-0.645-1.197-0.645-2.157v-4.968h2.429v3.785c0,0.394,0.01,0.716,0.031,0.965
			c0.021,0.25,0.07,0.46,0.148,0.632c0.073,0.159,0.188,0.279,0.341,0.36c0.154,0.082,0.37,0.123,0.646,0.123
			c0.17,0,0.372-0.041,0.604-0.123c0.232-0.082,0.447-0.192,0.645-0.333v-5.409h2.416V34.701z"/>
		<path d="M303.907,29.319h-0.2c-0.092-0.032-0.226-0.056-0.4-0.071c-0.175-0.016-0.368-0.024-0.58-0.024
			c-0.253,0-0.519,0.036-0.797,0.109c-0.278,0.072-0.549,0.158-0.811,0.258v5.11h-2.416v-7.631h2.416v1.094
			c0.11-0.1,0.263-0.226,0.459-0.377c0.195-0.151,0.374-0.272,0.535-0.363c0.175-0.104,0.378-0.194,0.611-0.269
			s0.452-0.112,0.659-0.112c0.078,0,0.166,0.002,0.262,0.007c0.097,0.005,0.184,0.012,0.262,0.021V29.319z"/>
	</g>
	
		<line fill="none" stroke="#800000" stroke-width="0.7559" stroke-linecap="square" stroke-miterlimit="10" x1="212.972" y1="43.557" x2="314.483" y2="43.557"/>
	
		<line fill="none" stroke="#800000" stroke-width="0.7559" stroke-linecap="square" stroke-miterlimit="10" x1="212.972" y1="54.944" x2="314.483" y2="54.944"/>
	
		<rect x="469.963" y="6.866" fill-rule="evenodd" clip-rule="evenodd" fill="#FFFFB9" stroke="#800000" stroke-width="0.7559" stroke-linecap="square" stroke-miterlimit="10" width="100.227" height="68.32"/>
	<g>
		<path stroke="#000000" stroke-width="0.2376" stroke-miterlimit="10" d="M485.229,26.017c-0.672,0-1.251-0.111-1.739-0.333
			s-0.864-0.552-1.124-0.992c-0.261-0.439-0.393-0.988-0.396-1.645s0.139-1.412,0.427-2.263c0.287-0.847,0.646-1.586,1.078-2.215
			c0.432-0.63,0.936-1.178,1.513-1.645c0.563-0.453,1.165-0.798,1.808-1.037c0.642-0.238,1.31-0.356,2.005-0.356
			c0.345,0,0.659,0.025,0.943,0.075c0.285,0.049,0.543,0.113,0.774,0.189c0.198,0.068,0.396,0.154,0.594,0.255
			s0.39,0.213,0.572,0.336l-0.549,1.624h-0.111c-0.082-0.108-0.191-0.24-0.328-0.394c-0.137-0.153-0.315-0.305-0.536-0.455
			c-0.214-0.141-0.462-0.256-0.738-0.347c-0.278-0.091-0.619-0.136-1.024-0.136c-0.437,0-0.881,0.089-1.332,0.266
			c-0.45,0.177-0.881,0.437-1.293,0.782c-0.406,0.344-0.777,0.777-1.115,1.297c-0.337,0.521-0.617,1.107-0.838,1.76
			c-0.234,0.693-0.352,1.29-0.35,1.79c0,0.501,0.09,0.923,0.268,1.267c0.172,0.336,0.422,0.588,0.75,0.759
			c0.33,0.169,0.71,0.254,1.143,0.254c0.396,0,0.777-0.047,1.146-0.143c0.367-0.095,0.707-0.215,1.02-0.361
			c0.3-0.14,0.567-0.284,0.801-0.431c0.234-0.147,0.422-0.272,0.563-0.377h0.104l-0.543,1.604c-0.26,0.104-0.507,0.204-0.739,0.299
			s-0.507,0.189-0.822,0.278c-0.331,0.096-0.634,0.168-0.905,0.219C485.979,25.992,485.639,26.017,485.229,26.017z"/>
		<path stroke="#000000" stroke-width="0.2376" stroke-miterlimit="10" d="M497.78,22.042c-0.433,1.277-1.078,2.263-1.94,2.959
			c-0.861,0.696-1.812,1.043-2.852,1.043c-1.071,0-1.794-0.359-2.165-1.078c-0.371-0.718-0.348-1.693,0.069-2.925
			c0.43-1.269,1.08-2.254,1.95-2.957c0.87-0.702,1.822-1.053,2.857-1.053c1.04,0,1.755,0.351,2.144,1.05
			C498.233,19.783,498.212,20.769,497.78,22.042z M496.441,22.042c0.333-0.983,0.398-1.714,0.197-2.192
			c-0.202-0.477-0.639-0.717-1.311-0.717c-0.676,0-1.278,0.24-1.806,0.717c-0.528,0.479-0.958,1.209-1.291,2.192
			c-0.321,0.951-0.384,1.672-0.184,2.165c0.199,0.491,0.637,0.737,1.313,0.737c0.668,0,1.267-0.242,1.796-0.725
			C495.686,23.738,496.113,23.012,496.441,22.042z"/>
		<path stroke="#000000" stroke-width="0.2376" stroke-miterlimit="10" d="M507.895,25.834l1.486-4.39
			c0.118-0.349,0.213-0.671,0.287-0.968c0.072-0.296,0.094-0.528,0.063-0.697c-0.03-0.181-0.116-0.314-0.257-0.4
			c-0.142-0.086-0.356-0.129-0.646-0.129c-0.268,0-0.581,0.081-0.941,0.241c-0.36,0.161-0.755,0.393-1.185,0.697
			c-0.021,0.077-0.047,0.169-0.076,0.275s-0.068,0.232-0.117,0.376l-1.691,4.995h-1.297l1.486-4.39
			c0.118-0.349,0.213-0.671,0.285-0.968c0.073-0.296,0.094-0.528,0.064-0.697c-0.031-0.181-0.117-0.314-0.258-0.4
			s-0.356-0.129-0.646-0.129c-0.28,0-0.604,0.086-0.971,0.258c-0.367,0.173-0.74,0.393-1.121,0.66l-1.918,5.667h-1.298l2.569-7.59
			h1.298l-0.285,0.842c0.453-0.334,0.878-0.595,1.274-0.778c0.396-0.184,0.793-0.275,1.193-0.275c0.456,0,0.825,0.102,1.108,0.306
			c0.283,0.204,0.438,0.539,0.464,1.005c0.536-0.43,1.029-0.757,1.477-0.979c0.448-0.222,0.89-0.333,1.327-0.333
			c0.331,0,0.616,0.051,0.853,0.153c0.237,0.102,0.418,0.266,0.545,0.492c0.129,0.231,0.19,0.519,0.187,0.863
			c-0.004,0.344-0.094,0.777-0.271,1.297l-1.69,4.995H507.895z"/>
		<path stroke="#000000" stroke-width="0.2376" stroke-miterlimit="10" d="M522.027,25.834l1.486-4.39
			c0.118-0.349,0.213-0.671,0.287-0.968c0.072-0.296,0.094-0.528,0.063-0.697c-0.03-0.181-0.116-0.314-0.257-0.4
			c-0.142-0.086-0.356-0.129-0.646-0.129c-0.268,0-0.581,0.081-0.941,0.241c-0.36,0.161-0.755,0.393-1.185,0.697
			c-0.021,0.077-0.047,0.169-0.076,0.275s-0.068,0.232-0.117,0.376l-1.691,4.995h-1.297l1.486-4.39
			c0.118-0.349,0.213-0.671,0.285-0.968c0.073-0.296,0.094-0.528,0.064-0.697c-0.031-0.181-0.117-0.314-0.258-0.4
			s-0.356-0.129-0.646-0.129c-0.28,0-0.604,0.086-0.971,0.258c-0.367,0.173-0.74,0.393-1.121,0.66l-1.918,5.667h-1.298l2.569-7.59
			h1.298l-0.285,0.842c0.453-0.334,0.878-0.595,1.274-0.778c0.396-0.184,0.793-0.275,1.193-0.275c0.456,0,0.825,0.102,1.108,0.306
			c0.283,0.204,0.438,0.539,0.464,1.005c0.536-0.43,1.029-0.757,1.477-0.979c0.448-0.222,0.89-0.333,1.327-0.333
			c0.331,0,0.616,0.051,0.853,0.153c0.237,0.102,0.418,0.266,0.545,0.492c0.129,0.231,0.19,0.519,0.187,0.863
			c-0.004,0.344-0.094,0.777-0.271,1.297l-1.69,4.995H522.027z"/>
		<path stroke="#000000" stroke-width="0.2376" stroke-miterlimit="10" d="M531.988,25.025c-0.131,0.077-0.31,0.184-0.534,0.323
			c-0.224,0.138-0.432,0.248-0.625,0.33c-0.271,0.117-0.522,0.208-0.758,0.272c-0.235,0.063-0.547,0.095-0.933,0.095
			c-0.317,0-0.6-0.059-0.845-0.177c-0.245-0.118-0.44-0.283-0.584-0.497c-0.137-0.208-0.216-0.465-0.236-0.771
			c-0.021-0.306,0.026-0.629,0.142-0.969c0.178-0.525,0.441-0.973,0.792-1.342c0.351-0.369,0.807-0.663,1.369-0.881
			c0.497-0.194,1.054-0.329,1.669-0.404c0.613-0.074,1.268-0.129,1.961-0.167l0.082-0.244c0.102-0.299,0.137-0.54,0.107-0.724
			c-0.03-0.183-0.11-0.325-0.242-0.425c-0.132-0.104-0.311-0.173-0.538-0.207c-0.228-0.033-0.468-0.051-0.721-0.051
			c-0.299,0-0.667,0.044-1.101,0.132c-0.436,0.089-0.884,0.216-1.345,0.384h-0.076l0.439-1.298c0.262-0.067,0.63-0.143,1.104-0.224
			c0.474-0.082,0.929-0.122,1.366-0.122c0.529,0,0.962,0.041,1.298,0.122c0.335,0.081,0.612,0.229,0.83,0.441
			c0.21,0.209,0.328,0.479,0.354,0.81c0.026,0.33-0.042,0.733-0.202,1.209l-1.758,5.192h-1.291L531.988,25.025z M532.348,23.965
			l0.713-2.107c-0.318,0.028-0.72,0.065-1.208,0.113c-0.487,0.047-0.892,0.114-1.209,0.2c-0.382,0.104-0.721,0.265-1.019,0.479
			c-0.299,0.215-0.513,0.515-0.644,0.901c-0.147,0.435-0.134,0.763,0.04,0.985c0.173,0.222,0.498,0.333,0.977,0.333
			c0.409,0,0.811-0.087,1.2-0.262C531.589,24.433,531.972,24.219,532.348,23.965z"/>
		<path stroke="#000000" stroke-width="0.2376" stroke-miterlimit="10" d="M542.456,25.834h-1.297l1.463-4.322
			c0.118-0.349,0.211-0.674,0.278-0.976c0.066-0.301,0.083-0.542,0.048-0.724c-0.041-0.19-0.141-0.332-0.298-0.424
			c-0.157-0.093-0.398-0.14-0.726-0.14c-0.322,0-0.684,0.085-1.084,0.255c-0.399,0.169-0.81,0.39-1.228,0.662l-1.919,5.667h-1.298
			l2.569-7.59h1.298l-0.285,0.842c0.502-0.339,0.972-0.6,1.41-0.781c0.438-0.182,0.867-0.272,1.286-0.272
			c0.759,0,1.27,0.246,1.531,0.737c0.261,0.492,0.233,1.204-0.082,2.138L542.456,25.834z"/>
		<path stroke="#000000" stroke-width="0.2376" stroke-miterlimit="10" d="M551.316,25.834h-1.298l0.262-0.774
			c-0.259,0.167-0.479,0.306-0.664,0.415c-0.185,0.108-0.39,0.208-0.619,0.299c-0.213,0.086-0.427,0.153-0.64,0.201
			c-0.215,0.047-0.453,0.071-0.715,0.071c-0.419,0-0.777-0.086-1.076-0.258c-0.298-0.172-0.516-0.423-0.651-0.754
			c-0.14-0.335-0.196-0.749-0.167-1.241c0.028-0.491,0.15-1.056,0.367-1.695c0.225-0.666,0.507-1.242,0.848-1.729
			c0.34-0.487,0.725-0.912,1.156-1.274c0.392-0.331,0.818-0.59,1.281-0.778c0.461-0.188,0.91-0.282,1.348-0.282
			c0.386,0,0.707,0.042,0.966,0.125c0.257,0.084,0.513,0.215,0.771,0.392l1.113-3.29h1.299L551.316,25.834z M550.645,23.986
			l1.481-4.376c-0.27-0.155-0.522-0.261-0.759-0.32c-0.234-0.058-0.502-0.088-0.801-0.088c-0.667,0-1.272,0.246-1.816,0.737
			s-0.973,1.202-1.287,2.13c-0.303,0.893-0.389,1.575-0.259,2.049s0.515,0.71,1.153,0.71c0.34,0,0.71-0.076,1.105-0.228
			C549.859,24.449,550.253,24.244,550.645,23.986z"/>
		<path stroke="#000000" stroke-width="0.2376" stroke-miterlimit="10" d="M557.654,26.011c-1.229,0-2.067-0.34-2.516-1.023
			c-0.447-0.682-0.459-1.65-0.034-2.905c0.419-1.237,1.081-2.221,1.987-2.953c0.904-0.731,1.889-1.098,2.952-1.098
			c0.479,0,0.879,0.068,1.2,0.204c0.322,0.136,0.572,0.349,0.751,0.639c0.177,0.29,0.27,0.645,0.274,1.063s-0.095,0.933-0.3,1.539
			l-0.234,0.693h-5.342c-0.3,0.883-0.302,1.559-0.01,2.025c0.293,0.467,0.837,0.7,1.634,0.7c0.285,0,0.575-0.031,0.87-0.095
			c0.296-0.063,0.57-0.145,0.825-0.244c0.27-0.104,0.502-0.206,0.695-0.303c0.194-0.097,0.358-0.188,0.494-0.275h0.075l-0.472,1.393
			c-0.171,0.059-0.385,0.133-0.641,0.221c-0.255,0.088-0.48,0.157-0.677,0.207c-0.276,0.068-0.523,0.12-0.739,0.156
			C558.231,25.992,557.967,26.011,557.654,26.011z M560.804,21.192c0.106-0.344,0.166-0.641,0.177-0.89
			c0.011-0.249-0.023-0.46-0.104-0.632c-0.088-0.191-0.232-0.336-0.437-0.435c-0.203-0.1-0.479-0.15-0.829-0.15
			c-0.345,0-0.656,0.051-0.932,0.153s-0.546,0.25-0.81,0.445c-0.261,0.2-0.483,0.421-0.666,0.664
			c-0.184,0.242-0.344,0.524-0.479,0.845H560.804z"/>
	</g>
	
		<line fill="none" stroke="#800000" stroke-width="0.7559" stroke-linecap="square" stroke-miterlimit="10" x1="469.963" y1="34.7" x2="571.474" y2="34.7"/>
	<g>
		<path d="M486.898,61.172h-3.485l-1.161,3.432h-1.146l1.162-3.432h-3.485l0.368-1.088h3.485l1.162-3.432h1.146l-1.162,3.432h3.485
			L486.898,61.172z"/>
		<path d="M490.893,65.236c-1.229,0-2.068-0.34-2.516-1.023c-0.447-0.682-0.459-1.65-0.034-2.904
			c0.419-1.237,1.081-2.221,1.987-2.953c0.904-0.732,1.889-1.098,2.952-1.098c0.479,0,0.878,0.068,1.2,0.205
			c0.322,0.136,0.572,0.349,0.751,0.638c0.177,0.291,0.27,0.645,0.274,1.063c0.005,0.419-0.095,0.933-0.3,1.54l-0.235,0.693h-5.342
			c-0.299,0.883-0.302,1.559-0.009,2.024c0.293,0.467,0.837,0.7,1.634,0.7c0.285,0,0.575-0.031,0.87-0.095
			c0.296-0.063,0.57-0.144,0.825-0.244c0.27-0.104,0.502-0.205,0.695-0.302c0.194-0.097,0.358-0.189,0.494-0.276h0.075l-0.472,1.393
			c-0.172,0.059-0.385,0.133-0.641,0.221c-0.255,0.089-0.48,0.157-0.677,0.207c-0.276,0.068-0.523,0.121-0.739,0.156
			C491.47,65.217,491.205,65.236,490.893,65.236z M494.042,60.417c0.106-0.344,0.166-0.641,0.176-0.89
			c0.011-0.249-0.022-0.46-0.103-0.632c-0.088-0.19-0.232-0.336-0.437-0.435c-0.203-0.1-0.479-0.15-0.829-0.15
			c-0.345,0-0.656,0.051-0.932,0.152c-0.275,0.102-0.546,0.251-0.81,0.445c-0.261,0.2-0.483,0.421-0.666,0.663
			c-0.184,0.242-0.344,0.524-0.479,0.845H494.042z"/>
		<path d="M501.305,65.059h-1.595l-0.899-2.867l-2.896,2.867h-1.47l3.952-3.765l-1.355-3.826h1.594l0.896,2.841l2.865-2.841h1.478
			l-3.93,3.738L501.305,65.059z"/>
		<path d="M506.307,65.236c-1.229,0-2.068-0.34-2.516-1.023c-0.447-0.682-0.459-1.65-0.034-2.904
			c0.419-1.237,1.081-2.221,1.987-2.953c0.904-0.732,1.889-1.098,2.952-1.098c0.479,0,0.878,0.068,1.2,0.205
			c0.322,0.136,0.572,0.349,0.751,0.638c0.177,0.291,0.27,0.645,0.274,1.063c0.005,0.419-0.095,0.933-0.3,1.54l-0.235,0.693h-5.342
			c-0.299,0.883-0.302,1.559-0.009,2.024c0.293,0.467,0.837,0.7,1.634,0.7c0.285,0,0.575-0.031,0.87-0.095
			c0.296-0.063,0.57-0.144,0.825-0.244c0.27-0.104,0.502-0.205,0.695-0.302c0.194-0.097,0.358-0.189,0.494-0.276h0.075l-0.472,1.393
			c-0.172,0.059-0.385,0.133-0.641,0.221c-0.255,0.089-0.48,0.157-0.677,0.207c-0.276,0.068-0.523,0.121-0.739,0.156
			C506.884,65.217,506.619,65.236,506.307,65.236z M509.456,60.417c0.106-0.344,0.166-0.641,0.176-0.89
			c0.011-0.249-0.022-0.46-0.103-0.632c-0.088-0.19-0.232-0.336-0.437-0.435c-0.203-0.1-0.479-0.15-0.829-0.15
			c-0.345,0-0.656,0.051-0.932,0.152c-0.275,0.102-0.546,0.251-0.81,0.445c-0.261,0.2-0.483,0.421-0.666,0.663
			c-0.184,0.242-0.344,0.524-0.479,0.845H509.456z"/>
		<path d="M513.733,65.229c-0.529,0-0.987-0.081-1.374-0.242c-0.388-0.161-0.686-0.404-0.892-0.73
			c-0.207-0.327-0.313-0.737-0.321-1.233c-0.008-0.497,0.104-1.08,0.33-1.75c0.226-0.666,0.511-1.242,0.856-1.726
			c0.346-0.485,0.728-0.893,1.143-1.223c0.416-0.331,0.88-0.585,1.394-0.765c0.514-0.179,1.031-0.269,1.551-0.269
			c0.424,0,0.813,0.059,1.165,0.177c0.354,0.118,0.659,0.253,0.915,0.408l-0.485,1.434h-0.076c-0.066-0.077-0.154-0.166-0.265-0.266
			c-0.112-0.099-0.253-0.202-0.426-0.305c-0.148-0.091-0.334-0.17-0.554-0.238c-0.221-0.068-0.444-0.103-0.669-0.103
			c-0.672,0-1.296,0.25-1.873,0.751c-0.576,0.5-1.021,1.209-1.33,2.124c-0.304,0.897-0.343,1.595-0.12,2.096
			c0.224,0.501,0.687,0.751,1.386,0.751c0.423,0,0.854-0.086,1.295-0.258s0.854-0.394,1.239-0.666h0.076l-0.485,1.434
			c-0.148,0.059-0.334,0.13-0.555,0.215c-0.222,0.083-0.418,0.146-0.589,0.187c-0.242,0.063-0.456,0.112-0.642,0.146
			C514.24,65.212,514.01,65.229,513.733,65.229z"/>
		<path d="M523.169,65.059h-1.298l0.285-0.842c-0.517,0.344-0.985,0.605-1.404,0.785c-0.42,0.178-0.85,0.268-1.292,0.268
			c-0.336,0-0.634-0.055-0.894-0.164c-0.26-0.108-0.461-0.28-0.603-0.516c-0.141-0.236-0.211-0.532-0.212-0.89
			c-0.001-0.358,0.086-0.792,0.259-1.305l1.668-4.927h1.297l-1.463,4.322c-0.137,0.403-0.235,0.737-0.294,1.002
			c-0.06,0.265-0.071,0.498-0.032,0.697c0.039,0.195,0.135,0.337,0.286,0.428c0.15,0.09,0.396,0.136,0.737,0.136
			c0.317,0,0.686-0.089,1.104-0.266c0.419-0.176,0.821-0.394,1.207-0.652l1.919-5.667h1.298L523.169,65.059z"/>
		<path d="M527.158,65.209c-0.709,0-1.193-0.199-1.455-0.595c-0.262-0.397-0.247-1.023,0.042-1.878l1.425-4.207h-0.877l0.358-1.06
			h0.877l0.738-2.181h1.298l-0.738,2.181h2.388l-0.358,1.06h-2.388l-1.222,3.608c-0.131,0.385-0.225,0.682-0.281,0.89
			c-0.057,0.209-0.07,0.403-0.039,0.585c0.023,0.159,0.111,0.277,0.259,0.357s0.372,0.118,0.671,0.118
			c0.212,0,0.426-0.03,0.645-0.091s0.379-0.112,0.48-0.153h0.076l-0.39,1.149c-0.267,0.067-0.532,0.121-0.796,0.159
			C527.607,65.189,527.37,65.209,527.158,65.209z"/>
		<path d="M533.301,65.236c-1.229,0-2.066-0.34-2.515-1.023c-0.448-0.682-0.459-1.65-0.034-2.904
			c0.419-1.237,1.081-2.221,1.987-2.953c0.904-0.732,1.889-1.098,2.952-1.098c0.479,0,0.879,0.068,1.201,0.205
			c0.321,0.136,0.572,0.349,0.75,0.638c0.178,0.291,0.27,0.645,0.275,1.063c0.004,0.419-0.096,0.933-0.301,1.54l-0.234,0.693h-5.342
			c-0.299,0.883-0.303,1.559-0.01,2.024c0.293,0.467,0.837,0.7,1.634,0.7c0.285,0,0.575-0.031,0.87-0.095
			c0.296-0.063,0.57-0.144,0.825-0.244c0.27-0.104,0.502-0.205,0.696-0.302c0.193-0.097,0.357-0.189,0.493-0.276h0.075l-0.472,1.393
			c-0.171,0.059-0.385,0.133-0.64,0.221c-0.256,0.089-0.481,0.157-0.678,0.207c-0.276,0.068-0.523,0.121-0.74,0.156
			C533.879,65.217,533.613,65.236,533.301,65.236z M536.451,60.417c0.106-0.344,0.166-0.641,0.176-0.89
			c0.012-0.249-0.022-0.46-0.104-0.632c-0.086-0.19-0.231-0.336-0.436-0.435c-0.203-0.1-0.479-0.15-0.829-0.15
			c-0.345,0-0.655,0.051-0.932,0.152c-0.275,0.102-0.546,0.251-0.81,0.445c-0.261,0.2-0.483,0.421-0.666,0.663
			c-0.184,0.242-0.344,0.524-0.479,0.845H536.451z"/>
		<path d="M540.735,67.859h-1.581c-0.482-0.938-0.776-1.931-0.88-2.977c-0.103-1.046,0.087-2.283,0.569-3.71
			c0.473-1.396,1.115-2.624,1.928-3.687c0.813-1.062,1.783-2.062,2.91-3h1.581l-0.022,0.067c-0.485,0.331-0.97,0.713-1.454,1.145
			c-0.484,0.433-0.97,0.937-1.454,1.512c-0.465,0.557-0.896,1.171-1.297,1.842c-0.399,0.671-0.725,1.377-0.977,2.12
			c-0.262,0.774-0.418,1.484-0.468,2.126c-0.05,0.644-0.03,1.255,0.059,1.835c0.088,0.557,0.232,1.061,0.434,1.511
			c0.201,0.452,0.427,0.833,0.676,1.145L540.735,67.859z"/>
		<path d="M547.906,61.172c-0.474,1.399-1.117,2.63-1.932,3.69s-1.783,2.059-2.906,2.997h-1.58l0.023-0.069
			c0.46-0.313,0.946-0.696,1.459-1.151c0.514-0.455,0.996-0.958,1.449-1.505c0.482-0.584,0.918-1.202,1.307-1.852
			c0.388-0.65,0.71-1.353,0.966-2.11c0.253-0.748,0.406-1.454,0.462-2.12s0.038-1.28-0.052-1.842
			c-0.092-0.561-0.237-1.067-0.44-1.515c-0.203-0.448-0.426-0.83-0.669-1.142l0.022-0.067h1.58c0.483,0.938,0.775,1.934,0.876,2.989
			C548.572,58.532,548.383,59.764,547.906,61.172z"/>
	</g>
	
		<line fill="none" stroke="#800000" stroke-width="0.7559" stroke-linecap="square" stroke-miterlimit="10" x1="469.963" y1="46.087" x2="571.474" y2="46.087"/>
	
		<rect x="444.264" y="197.909" fill-rule="evenodd" clip-rule="evenodd" fill="#FFFFB9" stroke="#800000" stroke-width="0.7559" stroke-linecap="square" stroke-miterlimit="10" width="158.05" height="84.768"/>
	<g>
		<path d="M456.178,217.074c-1.542,0-2.766-0.459-3.672-1.376c-0.906-0.918-1.359-2.208-1.359-3.87c0-1.604,0.454-2.883,1.362-3.836
			c0.909-0.954,2.134-1.431,3.676-1.431c0.409,0,0.777,0.022,1.104,0.068c0.327,0.045,0.64,0.108,0.939,0.189
			c0.234,0.068,0.489,0.161,0.766,0.279c0.276,0.117,0.499,0.22,0.67,0.306v2.412H459.4c-0.124-0.108-0.28-0.239-0.47-0.391
			c-0.188-0.151-0.402-0.3-0.642-0.445c-0.239-0.145-0.503-0.269-0.79-0.37c-0.288-0.102-0.588-0.153-0.9-0.153
			c-0.373,0-0.715,0.059-1.025,0.174s-0.606,0.315-0.887,0.602c-0.258,0.258-0.468,0.606-0.632,1.046
			c-0.163,0.439-0.245,0.958-0.245,1.557c0,0.63,0.086,1.158,0.256,1.587c0.17,0.428,0.394,0.773,0.669,1.036
			c0.268,0.254,0.565,0.437,0.895,0.55c0.328,0.113,0.656,0.17,0.983,0.17c0.34,0,0.665-0.055,0.973-0.166
			c0.309-0.111,0.568-0.234,0.78-0.37c0.229-0.141,0.433-0.283,0.607-0.429c0.175-0.145,0.326-0.273,0.455-0.387h0.235v2.378
			c-0.189,0.086-0.407,0.185-0.656,0.296c-0.248,0.111-0.504,0.205-0.766,0.282c-0.322,0.095-0.624,0.167-0.904,0.217
			C457.056,217.049,456.67,217.074,456.178,217.074z"/>
		<path d="M468.045,213.064c0,1.255-0.349,2.244-1.046,2.967s-1.683,1.084-2.957,1.084c-1.266,0-2.249-0.361-2.951-1.084
			c-0.701-0.723-1.053-1.712-1.053-2.967c0-1.269,0.352-2.262,1.053-2.979c0.702-0.718,1.686-1.077,2.951-1.077
			c1.27,0,2.254,0.361,2.953,1.084S468.045,211.806,468.045,213.064z M465.566,213.078c0-0.453-0.037-0.83-0.113-1.131
			c-0.076-0.302-0.181-0.543-0.314-0.725c-0.143-0.189-0.304-0.322-0.483-0.397c-0.179-0.074-0.384-0.111-0.613-0.111
			c-0.217,0-0.412,0.032-0.587,0.099c-0.175,0.065-0.336,0.191-0.483,0.377c-0.138,0.177-0.248,0.419-0.331,0.727
			c-0.083,0.309-0.124,0.695-0.124,1.162s0.039,0.844,0.117,1.132c0.078,0.287,0.18,0.518,0.304,0.689
			c0.129,0.177,0.29,0.306,0.482,0.388c0.193,0.081,0.407,0.122,0.643,0.122c0.193,0,0.39-0.041,0.59-0.122
			c0.2-0.082,0.36-0.204,0.479-0.367c0.143-0.194,0.251-0.43,0.324-0.703C465.53,213.942,465.566,213.563,465.566,213.078z"/>
		<path d="M478.858,216.877v-3.813c0-0.376-0.007-0.693-0.021-0.951s-0.055-0.469-0.124-0.632s-0.176-0.282-0.321-0.356
			c-0.145-0.075-0.349-0.112-0.61-0.112c-0.185,0-0.366,0.039-0.546,0.119c-0.179,0.079-0.375,0.191-0.586,0.336v5.409h-2.43v-3.813
			c0-0.371-0.008-0.688-0.024-0.947c-0.016-0.261-0.059-0.473-0.127-0.636c-0.069-0.163-0.177-0.282-0.321-0.356
			c-0.145-0.075-0.347-0.112-0.604-0.112c-0.198,0-0.392,0.045-0.58,0.136s-0.373,0.197-0.552,0.319v5.409h-2.416v-7.631h2.416
			v0.842c0.396-0.33,0.768-0.589,1.117-0.774s0.743-0.278,1.181-0.278c0.474,0,0.891,0.111,1.249,0.333
			c0.359,0.222,0.633,0.553,0.821,0.992c0.465-0.426,0.903-0.753,1.314-0.982c0.412-0.229,0.83-0.343,1.253-0.343
			c0.359,0,0.681,0.057,0.967,0.17c0.285,0.113,0.526,0.283,0.725,0.51c0.216,0.244,0.378,0.535,0.486,0.873
			s0.162,0.778,0.162,1.321v4.968H478.858z"/>
		<path d="M492.987,216.877v-3.813c0-0.376-0.007-0.693-0.021-0.951s-0.055-0.469-0.124-0.632s-0.176-0.282-0.321-0.356
			c-0.145-0.075-0.349-0.112-0.61-0.112c-0.185,0-0.366,0.039-0.546,0.119c-0.179,0.079-0.375,0.191-0.586,0.336v5.409h-2.43v-3.813
			c0-0.371-0.008-0.688-0.024-0.947c-0.016-0.261-0.059-0.473-0.127-0.636c-0.069-0.163-0.177-0.282-0.321-0.356
			c-0.145-0.075-0.347-0.112-0.604-0.112c-0.198,0-0.392,0.045-0.58,0.136s-0.373,0.197-0.552,0.319v5.409h-2.416v-7.631h2.416
			v0.842c0.396-0.33,0.768-0.589,1.117-0.774s0.743-0.278,1.181-0.278c0.474,0,0.891,0.111,1.249,0.333
			c0.359,0.222,0.633,0.553,0.821,0.992c0.465-0.426,0.903-0.753,1.314-0.982c0.412-0.229,0.83-0.343,1.253-0.343
			c0.359,0,0.681,0.057,0.967,0.17c0.285,0.113,0.526,0.283,0.725,0.51c0.216,0.244,0.378,0.535,0.486,0.873
			s0.162,0.778,0.162,1.321v4.968H492.987z"/>
		<path d="M502.128,216.068c-0.166,0.136-0.314,0.258-0.445,0.367c-0.131,0.108-0.308,0.217-0.528,0.326
			c-0.216,0.104-0.427,0.184-0.631,0.237c-0.205,0.055-0.491,0.082-0.859,0.082c-0.686,0-1.256-0.227-1.709-0.68
			s-0.68-1.023-0.68-1.713c0-0.565,0.115-1.023,0.346-1.372c0.229-0.349,0.561-0.625,0.993-0.829
			c0.438-0.209,0.96-0.354,1.567-0.436c0.607-0.081,1.261-0.145,1.96-0.189v-0.041c0-0.422-0.158-0.713-0.473-0.873
			c-0.315-0.161-0.788-0.241-1.419-0.241c-0.285,0-0.618,0.051-1,0.152c-0.383,0.103-0.755,0.232-1.118,0.391h-0.207v-1.841
			c0.239-0.068,0.625-0.148,1.159-0.241c0.533-0.093,1.072-0.14,1.615-0.14c1.334,0,2.306,0.219,2.916,0.655
			c0.609,0.438,0.914,1.104,0.914,2.002v5.191h-2.401V216.068z M502.128,214.886v-1.59c-0.41,0.041-0.741,0.076-0.994,0.105
			s-0.502,0.087-0.745,0.173c-0.212,0.072-0.376,0.183-0.494,0.33c-0.117,0.146-0.176,0.343-0.176,0.588
			c0,0.357,0.098,0.604,0.294,0.737c0.195,0.133,0.483,0.2,0.865,0.2c0.212,0,0.429-0.048,0.649-0.143
			C501.748,215.191,501.948,215.059,502.128,214.886z"/>
		<path d="M514.101,216.877h-2.43v-3.785c0-0.308-0.013-0.615-0.038-0.921s-0.072-0.531-0.142-0.676
			c-0.082-0.172-0.202-0.296-0.358-0.37c-0.156-0.075-0.366-0.112-0.628-0.112c-0.198,0-0.398,0.036-0.601,0.108
			c-0.203,0.072-0.419,0.188-0.648,0.347v5.409h-2.416v-7.631h2.416v0.842c0.396-0.33,0.78-0.589,1.155-0.774
			s0.791-0.278,1.246-0.278c0.791,0,1.396,0.246,1.815,0.737c0.418,0.491,0.628,1.204,0.628,2.137V216.877z"/>
		<path d="M522.892,216.877h-2.416v-0.795c-0.156,0.127-0.335,0.263-0.535,0.407c-0.2,0.146-0.376,0.254-0.527,0.326
			c-0.193,0.091-0.385,0.159-0.573,0.204s-0.414,0.068-0.676,0.068c-0.884,0-1.583-0.36-2.099-1.081
			c-0.516-0.72-0.772-1.683-0.772-2.888c0-0.666,0.087-1.243,0.262-1.732c0.175-0.49,0.417-0.916,0.725-1.278
			c0.281-0.33,0.621-0.592,1.021-0.784c0.4-0.193,0.824-0.289,1.271-0.289c0.404,0,0.737,0.042,0.997,0.126
			c0.26,0.083,0.563,0.214,0.907,0.391v-3.248h2.416V216.877z M520.476,214.771v-3.744c-0.119-0.06-0.276-0.107-0.469-0.146
			c-0.193-0.038-0.359-0.058-0.497-0.058c-0.58,0-1.016,0.199-1.309,0.598c-0.292,0.399-0.438,0.956-0.438,1.672
			c0,0.752,0.116,1.296,0.349,1.631c0.231,0.336,0.608,0.503,1.128,0.503c0.212,0,0.426-0.041,0.642-0.122
			C520.099,215.021,520.296,214.911,520.476,214.771z"/>
		<path d="M528.795,217.081c-1.464,0-2.585-0.345-3.365-1.033c-0.779-0.688-1.17-1.669-1.17-2.942c0-1.246,0.364-2.24,1.091-2.983
			c0.728-0.743,1.744-1.114,3.051-1.114c1.187,0,2.079,0.314,2.678,0.944c0.598,0.63,0.897,1.531,0.897,2.705v0.856h-5.294
			c0.023,0.353,0.099,0.648,0.228,0.887c0.129,0.237,0.3,0.427,0.511,0.567c0.207,0.14,0.449,0.241,0.725,0.302
			c0.276,0.062,0.578,0.092,0.904,0.092c0.281,0,0.557-0.03,0.828-0.092c0.271-0.061,0.521-0.142,0.746-0.241
			c0.197-0.086,0.38-0.179,0.548-0.278s0.305-0.188,0.411-0.265h0.255v1.964c-0.197,0.077-0.378,0.148-0.541,0.214
			c-0.164,0.065-0.388,0.132-0.673,0.2c-0.263,0.068-0.533,0.121-0.812,0.16C529.534,217.062,529.195,217.081,528.795,217.081z
			 M529.595,212.079c-0.014-0.503-0.132-0.886-0.354-1.148c-0.224-0.263-0.565-0.394-1.025-0.394c-0.47,0-0.836,0.138-1.101,0.414
			s-0.411,0.652-0.438,1.128H529.595z"/>
		<path d="M538.382,217.074c-1.542,0-2.766-0.459-3.672-1.376c-0.906-0.918-1.359-2.208-1.359-3.87c0-1.604,0.454-2.883,1.362-3.836
			c0.909-0.954,2.134-1.431,3.676-1.431c0.409,0,0.777,0.022,1.104,0.068c0.327,0.045,0.64,0.108,0.939,0.189
			c0.234,0.068,0.489,0.161,0.766,0.279c0.276,0.117,0.499,0.22,0.67,0.306v2.412h-0.263c-0.124-0.108-0.28-0.239-0.47-0.391
			c-0.188-0.151-0.402-0.3-0.642-0.445c-0.239-0.145-0.503-0.269-0.79-0.37c-0.288-0.102-0.588-0.153-0.9-0.153
			c-0.373,0-0.715,0.059-1.025,0.174s-0.606,0.315-0.887,0.602c-0.258,0.258-0.468,0.606-0.632,1.046
			c-0.163,0.439-0.245,0.958-0.245,1.557c0,0.63,0.086,1.158,0.256,1.587c0.17,0.428,0.394,0.773,0.669,1.036
			c0.268,0.254,0.565,0.437,0.895,0.55c0.328,0.113,0.656,0.17,0.983,0.17c0.34,0,0.665-0.055,0.973-0.166
			c0.309-0.111,0.568-0.234,0.78-0.37c0.229-0.141,0.433-0.283,0.607-0.429c0.175-0.145,0.326-0.273,0.455-0.387h0.235v2.378
			c-0.189,0.086-0.407,0.185-0.656,0.296c-0.248,0.111-0.504,0.205-0.766,0.282c-0.322,0.095-0.624,0.167-0.904,0.217
			C539.26,217.049,538.874,217.074,538.382,217.074z"/>
		<path d="M550.249,213.064c0,1.255-0.349,2.244-1.046,2.967s-1.683,1.084-2.957,1.084c-1.266,0-2.249-0.361-2.951-1.084
			c-0.701-0.723-1.053-1.712-1.053-2.967c0-1.269,0.352-2.262,1.053-2.979c0.702-0.718,1.686-1.077,2.951-1.077
			c1.27,0,2.254,0.361,2.953,1.084S550.249,211.806,550.249,213.064z M547.771,213.078c0-0.453-0.037-0.83-0.113-1.131
			c-0.076-0.302-0.181-0.543-0.314-0.725c-0.143-0.189-0.304-0.322-0.483-0.397c-0.179-0.074-0.384-0.111-0.613-0.111
			c-0.217,0-0.412,0.032-0.587,0.099c-0.175,0.065-0.336,0.191-0.483,0.377c-0.138,0.177-0.248,0.419-0.331,0.727
			c-0.083,0.309-0.124,0.695-0.124,1.162s0.039,0.844,0.117,1.132c0.078,0.287,0.18,0.518,0.304,0.689
			c0.129,0.177,0.29,0.306,0.482,0.388c0.193,0.081,0.407,0.122,0.643,0.122c0.193,0,0.39-0.041,0.59-0.122
			c0.2-0.082,0.36-0.204,0.479-0.367c0.143-0.194,0.251-0.43,0.324-0.703C547.734,213.942,547.771,213.563,547.771,213.078z"/>
		<path d="M559.062,216.877h-2.43v-3.785c0-0.308-0.013-0.615-0.038-0.921s-0.072-0.531-0.142-0.676
			c-0.082-0.172-0.202-0.296-0.358-0.37c-0.156-0.075-0.366-0.112-0.628-0.112c-0.198,0-0.398,0.036-0.601,0.108
			c-0.203,0.072-0.419,0.188-0.648,0.347v5.409h-2.416v-7.631h2.416v0.842c0.396-0.33,0.78-0.589,1.155-0.774
			s0.791-0.278,1.246-0.278c0.791,0,1.396,0.246,1.815,0.737c0.418,0.491,0.628,1.204,0.628,2.137V216.877z"/>
		<path d="M564.609,217.081c-0.64,0-1.225-0.079-1.757-0.238c-0.531-0.158-0.992-0.403-1.384-0.733
			c-0.386-0.331-0.688-0.747-0.903-1.247c-0.217-0.501-0.325-1.091-0.325-1.771c0-0.729,0.118-1.35,0.353-1.862
			c0.234-0.512,0.552-0.933,0.952-1.264c0.387-0.316,0.841-0.552,1.363-0.703s1.066-0.228,1.632-0.228
			c0.429,0,0.856,0.049,1.284,0.146c0.428,0.098,0.858,0.253,1.29,0.466v2.039h-0.311c-0.096-0.091-0.215-0.19-0.354-0.299
			c-0.141-0.109-0.294-0.209-0.459-0.3c-0.176-0.095-0.373-0.175-0.594-0.241c-0.221-0.065-0.468-0.099-0.738-0.099
			c-0.617,0-1.095,0.212-1.433,0.636s-0.507,0.993-0.507,1.709c0,0.766,0.18,1.337,0.541,1.713s0.841,0.563,1.439,0.563
			c0.304,0,0.57-0.034,0.801-0.102c0.229-0.068,0.428-0.149,0.594-0.245c0.16-0.095,0.299-0.193,0.414-0.295
			c0.114-0.103,0.214-0.194,0.296-0.275h0.311v2.038c-0.138,0.06-0.298,0.127-0.479,0.204s-0.366,0.141-0.556,0.19
			c-0.234,0.063-0.454,0.112-0.659,0.146C565.216,217.063,564.945,217.081,564.609,217.081z"/>
		<path d="M573.719,211.495h-0.2c-0.093-0.032-0.226-0.056-0.4-0.071s-0.368-0.024-0.58-0.024c-0.253,0-0.519,0.037-0.797,0.109
			s-0.549,0.158-0.811,0.258v5.11h-2.416v-7.631h2.416v1.094c0.11-0.1,0.263-0.226,0.459-0.377c0.195-0.152,0.373-0.273,0.534-0.364
			c0.175-0.104,0.379-0.193,0.611-0.268c0.232-0.075,0.452-0.112,0.659-0.112c0.078,0,0.165,0.002,0.262,0.007
			c0.097,0.004,0.185,0.011,0.263,0.021V211.495z"/>
		<path d="M578.895,217.081c-1.464,0-2.585-0.345-3.365-1.033c-0.779-0.688-1.17-1.669-1.17-2.942c0-1.246,0.364-2.24,1.091-2.983
			c0.728-0.743,1.744-1.114,3.051-1.114c1.187,0,2.079,0.314,2.678,0.944c0.598,0.63,0.897,1.531,0.897,2.705v0.856h-5.294
			c0.023,0.353,0.099,0.648,0.228,0.887c0.129,0.237,0.3,0.427,0.511,0.567c0.207,0.14,0.449,0.241,0.725,0.302
			c0.276,0.062,0.578,0.092,0.904,0.092c0.281,0,0.557-0.03,0.828-0.092c0.271-0.061,0.521-0.142,0.746-0.241
			c0.197-0.086,0.38-0.179,0.548-0.278s0.305-0.188,0.411-0.265h0.255v1.964c-0.197,0.077-0.378,0.148-0.541,0.214
			c-0.164,0.065-0.388,0.132-0.673,0.2c-0.263,0.068-0.533,0.121-0.812,0.16C579.634,217.062,579.295,217.081,578.895,217.081z
			 M579.694,212.079c-0.014-0.503-0.132-0.886-0.354-1.148c-0.224-0.263-0.565-0.394-1.025-0.394c-0.47,0-0.836,0.138-1.101,0.414
			s-0.411,0.652-0.438,1.128H579.694z"/>
		<path d="M586.88,217.026c-0.984,0-1.701-0.199-2.15-0.598c-0.448-0.398-0.673-1.051-0.673-1.957v-3.568h-0.925v-1.657h0.925
			v-2.182h2.416v2.182h2.326v1.657h-2.326v2.705c0,0.268,0.002,0.501,0.007,0.7s0.041,0.378,0.11,0.536
			c0.064,0.159,0.179,0.285,0.342,0.378s0.401,0.139,0.714,0.139c0.129,0,0.298-0.027,0.508-0.081
			c0.209-0.055,0.355-0.104,0.438-0.149h0.207v1.678c-0.263,0.068-0.541,0.121-0.836,0.16
			C587.669,217.007,587.308,217.026,586.88,217.026z"/>
		<path d="M594.305,217.081c-1.464,0-2.585-0.345-3.365-1.033c-0.779-0.688-1.17-1.669-1.17-2.942c0-1.246,0.364-2.24,1.091-2.983
			c0.728-0.743,1.744-1.114,3.051-1.114c1.187,0,2.079,0.314,2.678,0.944c0.598,0.63,0.897,1.531,0.897,2.705v0.856h-5.294
			c0.023,0.353,0.099,0.648,0.228,0.887c0.129,0.237,0.3,0.427,0.511,0.567c0.207,0.14,0.449,0.241,0.725,0.302
			c0.276,0.062,0.578,0.092,0.904,0.092c0.281,0,0.557-0.03,0.828-0.092c0.271-0.061,0.521-0.142,0.746-0.241
			c0.197-0.086,0.38-0.179,0.548-0.278s0.305-0.188,0.411-0.265h0.255v1.964c-0.197,0.077-0.378,0.148-0.541,0.214
			c-0.164,0.065-0.388,0.132-0.673,0.2c-0.263,0.068-0.533,0.121-0.812,0.16C595.044,217.062,594.705,217.081,594.305,217.081z
			 M595.104,212.079c-0.014-0.503-0.132-0.886-0.354-1.148c-0.224-0.263-0.565-0.394-1.025-0.394c-0.47,0-0.836,0.138-1.101,0.414
			s-0.411,0.652-0.438,1.128H595.104z"/>
	</g>
	<g>
		<path d="M459.884,240.842h-3.485v3.432h-1.146v-3.432h-3.485v-1.088h3.485v-3.432h1.146v3.432h3.485V240.842z"/>
		<path d="M465.253,244.905c-1.229,0-2.183-0.341-2.861-1.022s-1.018-1.65-1.018-2.905c0-1.237,0.329-2.221,0.987-2.953
			c0.657-0.731,1.518-1.097,2.581-1.097c0.479,0,0.901,0.067,1.27,0.203c0.368,0.137,0.69,0.35,0.967,0.639
			c0.275,0.29,0.487,0.645,0.635,1.063c0.146,0.42,0.221,0.933,0.221,1.54v0.692h-5.342c0,0.884,0.226,1.559,0.676,2.025
			c0.451,0.467,1.074,0.7,1.871,0.7c0.285,0,0.564-0.032,0.838-0.096c0.274-0.063,0.521-0.145,0.742-0.244
			c0.234-0.104,0.433-0.205,0.594-0.303s0.294-0.189,0.4-0.275h0.075v1.394c-0.151,0.059-0.34,0.133-0.565,0.221
			s-0.428,0.157-0.607,0.207c-0.253,0.068-0.482,0.12-0.687,0.156C465.824,244.887,465.565,244.905,465.253,244.905z
			 M466.771,240.087c-0.01-0.344-0.051-0.641-0.125-0.89c-0.073-0.249-0.179-0.46-0.317-0.632c-0.151-0.19-0.346-0.336-0.583-0.436
			s-0.53-0.149-0.88-0.149c-0.345,0-0.639,0.051-0.88,0.153c-0.241,0.102-0.461,0.25-0.659,0.445
			c-0.193,0.199-0.341,0.42-0.441,0.662c-0.102,0.242-0.166,0.524-0.193,0.846H466.771z"/>
		<path d="M471.947,244.878c-0.709,0-1.261-0.198-1.656-0.595c-0.396-0.396-0.594-1.022-0.594-1.879v-4.206h-0.877v-1.061h0.877
			v-2.181h1.298v2.181h2.388v1.061h-2.388v3.608c0,0.385,0.007,0.682,0.021,0.89c0.014,0.209,0.066,0.403,0.158,0.585
			c0.078,0.158,0.205,0.277,0.38,0.356s0.412,0.119,0.711,0.119c0.212,0,0.416-0.03,0.614-0.092
			c0.197-0.062,0.341-0.112,0.428-0.153h0.076v1.148c-0.244,0.068-0.491,0.121-0.742,0.16
			C472.39,244.858,472.159,244.878,471.947,244.878z"/>
		<path d="M479.059,243.92c-0.105,0.077-0.247,0.185-0.425,0.322c-0.177,0.139-0.348,0.248-0.514,0.33
			c-0.23,0.118-0.452,0.208-0.666,0.271s-0.515,0.096-0.9,0.096c-0.317,0-0.619-0.06-0.904-0.177
			c-0.285-0.118-0.536-0.283-0.752-0.496c-0.207-0.209-0.373-0.466-0.497-0.771s-0.187-0.629-0.187-0.969
			c0-0.525,0.112-0.973,0.338-1.342s0.582-0.662,1.07-0.88c0.432-0.194,0.942-0.329,1.532-0.404c0.589-0.075,1.224-0.13,1.904-0.167
			v-0.244c0-0.299-0.046-0.54-0.138-0.724c-0.093-0.184-0.221-0.325-0.387-0.425c-0.166-0.104-0.368-0.173-0.607-0.207
			s-0.485-0.051-0.738-0.051c-0.299,0-0.651,0.044-1.056,0.132c-0.405,0.089-0.811,0.217-1.215,0.384h-0.076v-1.298
			c0.239-0.067,0.582-0.143,1.028-0.224c0.446-0.082,0.888-0.123,1.325-0.123c0.529,0,0.976,0.041,1.339,0.123
			c0.363,0.081,0.69,0.229,0.98,0.441c0.28,0.208,0.489,0.478,0.628,0.809c0.138,0.331,0.207,0.734,0.207,1.21v5.191h-1.291V243.92z
			 M479.059,242.859v-2.106c-0.309,0.027-0.698,0.064-1.17,0.112s-0.853,0.114-1.142,0.2c-0.346,0.104-0.631,0.265-0.856,0.479
			s-0.338,0.516-0.338,0.9c0,0.435,0.124,0.764,0.373,0.985c0.248,0.222,0.611,0.333,1.09,0.333c0.409,0,0.78-0.087,1.111-0.262
			S478.769,243.113,479.059,242.859z"/>
		<path d="M484.786,244.878c-0.709,0-1.261-0.198-1.656-0.595c-0.396-0.396-0.594-1.022-0.594-1.879v-4.206h-0.877v-1.061h0.877
			v-2.181h1.298v2.181h2.388v1.061h-2.388v3.608c0,0.385,0.007,0.682,0.021,0.89c0.014,0.209,0.066,0.403,0.158,0.585
			c0.078,0.158,0.205,0.277,0.38,0.356s0.412,0.119,0.711,0.119c0.212,0,0.416-0.03,0.614-0.092
			c0.197-0.062,0.341-0.112,0.428-0.153h0.076v1.148c-0.244,0.068-0.491,0.121-0.742,0.16
			C485.229,244.858,484.998,244.878,484.786,244.878z"/>
	</g>
	
		<line fill="none" stroke="#800000" stroke-width="0.7559" stroke-linecap="square" stroke-miterlimit="10" x1="444.264" y1="225.743" x2="603.599" y2="225.743"/>
	<g>
		<path d="M459.884,268.668h-3.485v3.432h-1.146v-3.432h-3.485v-1.088h3.485v-3.432h1.146v3.432h3.485V268.668z"/>
		<path d="M465.253,272.731c-1.229,0-2.183-0.341-2.861-1.022s-1.018-1.65-1.018-2.905c0-1.237,0.329-2.221,0.987-2.953
			c0.657-0.731,1.518-1.097,2.581-1.097c0.479,0,0.901,0.067,1.27,0.203c0.368,0.137,0.69,0.35,0.967,0.639
			c0.275,0.29,0.487,0.645,0.635,1.063c0.146,0.42,0.221,0.933,0.221,1.54v0.692h-5.342c0,0.884,0.226,1.559,0.676,2.025
			c0.451,0.467,1.074,0.7,1.871,0.7c0.285,0,0.564-0.032,0.838-0.096c0.274-0.063,0.521-0.145,0.742-0.244
			c0.234-0.104,0.433-0.205,0.594-0.303s0.294-0.189,0.4-0.275h0.075v1.394c-0.151,0.059-0.34,0.133-0.565,0.221
			s-0.428,0.157-0.607,0.207c-0.253,0.068-0.482,0.12-0.687,0.156C465.824,272.713,465.565,272.731,465.253,272.731z
			 M466.771,267.913c-0.01-0.344-0.051-0.641-0.125-0.89c-0.073-0.249-0.179-0.46-0.317-0.632c-0.151-0.19-0.346-0.336-0.583-0.436
			s-0.53-0.149-0.88-0.149c-0.345,0-0.639,0.051-0.88,0.153c-0.241,0.102-0.461,0.25-0.659,0.445
			c-0.193,0.199-0.341,0.42-0.441,0.662c-0.102,0.242-0.166,0.524-0.193,0.846H466.771z"/>
		<path d="M475.605,272.555h-1.595l-1.87-2.868l-1.926,2.868h-1.47l2.678-3.765l-2.65-3.826h1.594l1.857,2.841l1.904-2.841h1.478
			l-2.664,3.738L475.605,272.555z"/>
		<path d="M480.667,272.731c-1.229,0-2.183-0.341-2.861-1.022s-1.018-1.65-1.018-2.905c0-1.237,0.329-2.221,0.987-2.953
			c0.657-0.731,1.518-1.097,2.581-1.097c0.479,0,0.901,0.067,1.27,0.203c0.368,0.137,0.69,0.35,0.967,0.639
			c0.275,0.29,0.487,0.645,0.635,1.063c0.146,0.42,0.221,0.933,0.221,1.54v0.692h-5.342c0,0.884,0.226,1.559,0.676,2.025
			c0.451,0.467,1.074,0.7,1.871,0.7c0.285,0,0.564-0.032,0.838-0.096c0.274-0.063,0.521-0.145,0.742-0.244
			c0.234-0.104,0.433-0.205,0.594-0.303s0.294-0.189,0.4-0.275h0.075v1.394c-0.151,0.059-0.34,0.133-0.565,0.221
			s-0.428,0.157-0.607,0.207c-0.253,0.068-0.482,0.12-0.687,0.156C481.238,272.713,480.979,272.731,480.667,272.731z
			 M482.186,267.913c-0.01-0.344-0.051-0.641-0.125-0.89c-0.073-0.249-0.179-0.46-0.317-0.632c-0.151-0.19-0.346-0.336-0.583-0.436
			s-0.53-0.149-0.88-0.149c-0.345,0-0.639,0.051-0.88,0.153c-0.241,0.102-0.461,0.25-0.659,0.445
			c-0.193,0.199-0.341,0.42-0.441,0.662c-0.102,0.242-0.166,0.524-0.193,0.846H482.186z"/>
		<path d="M488.092,272.725c-0.529,0-1.015-0.08-1.456-0.241s-0.821-0.404-1.139-0.73s-0.563-0.737-0.738-1.233
			c-0.176-0.496-0.263-1.079-0.263-1.75c0-0.666,0.091-1.241,0.272-1.726c0.182-0.485,0.425-0.893,0.729-1.224
			c0.304-0.33,0.682-0.585,1.135-0.765c0.453-0.179,0.94-0.269,1.46-0.269c0.423,0,0.832,0.06,1.225,0.177
			c0.394,0.118,0.745,0.254,1.053,0.408v1.434h-0.076c-0.092-0.077-0.21-0.165-0.354-0.265c-0.146-0.1-0.321-0.202-0.528-0.306
			c-0.18-0.091-0.392-0.17-0.635-0.238c-0.244-0.068-0.479-0.102-0.704-0.102c-0.672,0-1.211,0.25-1.618,0.751
			c-0.407,0.5-0.611,1.208-0.611,2.123c0,0.897,0.197,1.596,0.59,2.097c0.394,0.5,0.94,0.751,1.64,0.751
			c0.423,0,0.825-0.086,1.208-0.259c0.382-0.172,0.72-0.394,1.014-0.666h0.076v1.435c-0.129,0.059-0.29,0.13-0.482,0.214
			c-0.193,0.084-0.368,0.146-0.525,0.187c-0.221,0.063-0.418,0.112-0.593,0.146C488.593,272.708,488.368,272.725,488.092,272.725z"
			/>
		<path d="M497.47,272.555h-1.298v-0.843c-0.4,0.345-0.78,0.606-1.139,0.785c-0.359,0.179-0.759,0.269-1.201,0.269
			c-0.336,0-0.652-0.055-0.949-0.163c-0.296-0.109-0.555-0.281-0.776-0.517c-0.221-0.235-0.392-0.532-0.514-0.891
			c-0.122-0.357-0.183-0.792-0.183-1.305v-4.927h1.297v4.322c0,0.403,0.015,0.737,0.045,1.002c0.03,0.266,0.098,0.497,0.204,0.697
			c0.105,0.194,0.249,0.337,0.431,0.428s0.443,0.136,0.784,0.136c0.317,0,0.655-0.088,1.014-0.265
			c0.359-0.177,0.688-0.395,0.987-0.652v-5.668h1.298V272.555z"/>
		<path d="M501.51,272.704c-0.709,0-1.261-0.198-1.656-0.595c-0.396-0.396-0.594-1.022-0.594-1.879v-4.206h-0.877v-1.061h0.877
			v-2.181h1.298v2.181h2.388v1.061h-2.388v3.608c0,0.385,0.007,0.682,0.021,0.89c0.014,0.209,0.066,0.403,0.158,0.585
			c0.078,0.158,0.205,0.277,0.38,0.356s0.412,0.119,0.711,0.119c0.212,0,0.416-0.03,0.614-0.092
			c0.197-0.062,0.341-0.112,0.428-0.153h0.076v1.148c-0.244,0.068-0.491,0.121-0.742,0.16
			C501.952,272.685,501.722,272.704,501.51,272.704z"/>
		<path d="M507.662,272.731c-1.229,0-2.183-0.341-2.861-1.022s-1.018-1.65-1.018-2.905c0-1.237,0.329-2.221,0.987-2.953
			c0.657-0.731,1.518-1.097,2.581-1.097c0.479,0,0.901,0.067,1.27,0.203c0.368,0.137,0.69,0.35,0.967,0.639
			c0.275,0.29,0.487,0.645,0.635,1.063c0.146,0.42,0.221,0.933,0.221,1.54v0.692h-5.342c0,0.884,0.226,1.559,0.676,2.025
			c0.451,0.467,1.074,0.7,1.871,0.7c0.285,0,0.564-0.032,0.838-0.096c0.274-0.063,0.521-0.145,0.742-0.244
			c0.234-0.104,0.433-0.205,0.594-0.303s0.294-0.189,0.4-0.275h0.075v1.394c-0.151,0.059-0.34,0.133-0.565,0.221
			s-0.428,0.157-0.607,0.207c-0.253,0.068-0.482,0.12-0.687,0.156C508.233,272.713,507.975,272.731,507.662,272.731z
			 M509.181,267.913c-0.01-0.344-0.051-0.641-0.125-0.89c-0.073-0.249-0.179-0.46-0.317-0.632c-0.151-0.19-0.346-0.336-0.583-0.436
			s-0.53-0.149-0.88-0.149c-0.345,0-0.639,0.051-0.88,0.153c-0.241,0.102-0.461,0.25-0.659,0.445
			c-0.193,0.199-0.341,0.42-0.441,0.662c-0.102,0.242-0.166,0.524-0.193,0.846H509.181z"/>
		<path d="M515.984,275.354h-1.581c-0.8-0.938-1.43-1.93-1.888-2.977c-0.457-1.047-0.687-2.283-0.687-3.71
			c0-1.396,0.227-2.624,0.68-3.687s1.085-2.063,1.895-3h1.581v0.067c-0.373,0.331-0.729,0.713-1.066,1.146s-0.652,0.937-0.942,1.512
			c-0.276,0.557-0.5,1.171-0.673,1.842c-0.173,0.67-0.259,1.377-0.259,2.12c0,0.774,0.084,1.483,0.252,2.127s0.395,1.255,0.68,1.835
			c0.276,0.557,0.592,1.061,0.945,1.512c0.354,0.45,0.709,0.832,1.063,1.145V275.354z"/>
		<path d="M520.892,268.668c0,1.399-0.228,2.63-0.683,3.689c-0.456,1.061-1.086,2.06-1.892,2.997h-1.58v-0.068
			c0.354-0.313,0.711-0.696,1.069-1.151c0.359-0.455,0.672-0.957,0.939-1.505c0.285-0.585,0.512-1.202,0.68-1.853
			c0.168-0.649,0.252-1.353,0.252-2.109c0-0.748-0.086-1.454-0.256-2.12s-0.396-1.28-0.676-1.842
			c-0.281-0.562-0.599-1.067-0.953-1.516s-0.706-0.829-1.056-1.142v-0.067h1.58c0.801,0.938,1.43,1.934,1.888,2.989
			S520.892,267.259,520.892,268.668z"/>
	</g>
	
		<line fill="none" stroke="#800000" stroke-width="0.7559" stroke-linecap="square" stroke-miterlimit="10" x1="444.264" y1="253.578" x2="603.599" y2="253.578"/>
	
		<rect x="212.972" y="109.347" fill-rule="evenodd" clip-rule="evenodd" fill="#FFFFB9" stroke="#800000" stroke-width="0.7559" stroke-linecap="square" stroke-miterlimit="10" width="100.227" height="68.319"/>
	<g>
		<path d="M236.38,128.325h-3.147l-2.864-3.71h-0.925v3.71h-2.567v-10.119h4.134c0.571,0,1.067,0.035,1.491,0.105
			s0.814,0.216,1.173,0.438c0.368,0.231,0.66,0.524,0.876,0.88c0.216,0.356,0.325,0.808,0.325,1.356
			c0,0.774-0.177,1.403-0.532,1.886c-0.354,0.482-0.828,0.866-1.421,1.151L236.38,128.325z M232.225,121.305
			c0-0.254-0.049-0.473-0.148-0.656c-0.099-0.184-0.263-0.325-0.494-0.425c-0.161-0.068-0.34-0.111-0.538-0.129
			c-0.198-0.018-0.444-0.027-0.738-0.027h-0.863v2.725h0.738c0.359,0,0.664-0.021,0.915-0.064c0.25-0.043,0.463-0.135,0.638-0.275
			c0.166-0.127,0.289-0.279,0.37-0.456C232.185,121.821,232.225,121.59,232.225,121.305z"/>
		<path d="M240.983,128.529c-1.463,0-2.584-0.344-3.364-1.033c-0.78-0.688-1.17-1.669-1.17-2.942c0-1.246,0.363-2.24,1.09-2.983
			c0.727-0.743,1.744-1.114,3.051-1.114c1.187,0,2.08,0.315,2.678,0.944c0.598,0.63,0.897,1.532,0.897,2.705v0.856h-5.293
			c0.023,0.354,0.099,0.649,0.228,0.887c0.128,0.238,0.299,0.427,0.511,0.567c0.207,0.141,0.448,0.241,0.725,0.303
			c0.276,0.061,0.577,0.091,0.904,0.091c0.281,0,0.557-0.03,0.829-0.091c0.271-0.062,0.52-0.142,0.745-0.241
			c0.198-0.086,0.381-0.179,0.549-0.279s0.305-0.188,0.411-0.265h0.255v1.964c-0.198,0.077-0.378,0.148-0.542,0.214
			c-0.163,0.065-0.388,0.132-0.673,0.2c-0.262,0.068-0.533,0.121-0.811,0.16S241.384,128.529,240.983,128.529z M241.784,123.527
			c-0.014-0.503-0.132-0.886-0.355-1.148s-0.565-0.395-1.025-0.395c-0.469,0-0.836,0.138-1.101,0.415
			c-0.265,0.276-0.411,0.652-0.438,1.128H241.784z M242.847,116.936l-2.071,2.67h-1.643l1.429-2.67H242.847z"/>
		<path d="M249.804,128.529c-0.64,0-1.225-0.08-1.756-0.238c-0.531-0.158-0.993-0.403-1.384-0.734
			c-0.387-0.331-0.688-0.746-0.904-1.247s-0.324-1.091-0.324-1.771c0-0.729,0.117-1.35,0.352-1.862
			c0.234-0.512,0.552-0.933,0.952-1.264c0.387-0.317,0.841-0.551,1.363-0.703c0.522-0.152,1.066-0.228,1.632-0.228
			c0.428,0,0.855,0.049,1.284,0.146c0.428,0.098,0.858,0.252,1.291,0.465v2.039h-0.311c-0.097-0.09-0.215-0.19-0.355-0.299
			c-0.141-0.109-0.293-0.208-0.459-0.299c-0.175-0.095-0.373-0.176-0.594-0.241c-0.221-0.066-0.467-0.099-0.738-0.099
			c-0.617,0-1.094,0.212-1.432,0.635c-0.338,0.424-0.507,0.993-0.507,1.709c0,0.766,0.181,1.336,0.542,1.712
			c0.361,0.376,0.841,0.564,1.439,0.564c0.304,0,0.57-0.034,0.801-0.102c0.23-0.068,0.428-0.15,0.593-0.245
			c0.161-0.095,0.299-0.194,0.414-0.296c0.115-0.102,0.214-0.193,0.297-0.275h0.311v2.039c-0.138,0.059-0.298,0.127-0.479,0.204
			c-0.182,0.077-0.367,0.141-0.556,0.19c-0.235,0.063-0.455,0.112-0.659,0.146C250.41,128.512,250.14,128.529,249.804,128.529z"/>
		<path d="M257.678,128.529c-1.463,0-2.584-0.344-3.364-1.033c-0.78-0.688-1.17-1.669-1.17-2.942c0-1.246,0.363-2.24,1.09-2.983
			c0.727-0.743,1.744-1.114,3.051-1.114c1.187,0,2.08,0.315,2.678,0.944c0.598,0.63,0.897,1.532,0.897,2.705v0.856h-5.293
			c0.023,0.354,0.099,0.649,0.228,0.887c0.128,0.238,0.299,0.427,0.511,0.567c0.207,0.141,0.448,0.241,0.725,0.303
			c0.276,0.061,0.577,0.091,0.904,0.091c0.281,0,0.557-0.03,0.829-0.091c0.271-0.062,0.52-0.142,0.745-0.241
			c0.198-0.086,0.381-0.179,0.549-0.279s0.305-0.188,0.411-0.265h0.255v1.964c-0.198,0.077-0.378,0.148-0.542,0.214
			c-0.163,0.065-0.388,0.132-0.673,0.2c-0.262,0.068-0.533,0.121-0.811,0.16S258.078,128.529,257.678,128.529z M258.479,123.527
			c-0.014-0.503-0.132-0.886-0.355-1.148s-0.565-0.395-1.025-0.395c-0.469,0-0.836,0.138-1.101,0.415
			c-0.265,0.276-0.411,0.652-0.438,1.128H258.479z"/>
		<path d="M270.294,124.404c0,1.219-0.314,2.202-0.942,2.949s-1.402,1.121-2.322,1.121c-0.387,0-0.723-0.043-1.008-0.129
			c-0.286-0.086-0.589-0.22-0.911-0.401v3.18h-2.416v-10.431h2.416v0.795c0.354-0.299,0.715-0.541,1.083-0.727
			c0.368-0.186,0.794-0.278,1.277-0.278c0.897,0,1.592,0.351,2.084,1.053C270.048,122.238,270.294,123.194,270.294,124.404z
			 M267.823,124.451c0-0.743-0.116-1.282-0.349-1.617s-0.595-0.503-1.087-0.503c-0.216,0-0.431,0.034-0.646,0.102
			c-0.214,0.068-0.424,0.17-0.631,0.306v3.839c0.129,0.055,0.271,0.093,0.424,0.116c0.154,0.022,0.337,0.034,0.549,0.034
			c0.589,0,1.026-0.189,1.312-0.567C267.681,125.782,267.823,125.212,267.823,124.451z"/>
		<path d="M274.644,128.474c-0.985,0-1.701-0.199-2.15-0.598c-0.449-0.398-0.673-1.051-0.673-1.957v-3.567h-0.925v-1.658h0.925
			v-2.181h2.416v2.181h2.326v1.658h-2.326v2.705c0,0.267,0.002,0.5,0.007,0.7c0.004,0.2,0.042,0.378,0.11,0.537
			c0.064,0.159,0.178,0.284,0.342,0.377c0.163,0.093,0.401,0.139,0.714,0.139c0.129,0,0.298-0.027,0.507-0.082
			c0.209-0.054,0.355-0.104,0.438-0.149h0.207v1.679c-0.262,0.068-0.541,0.121-0.835,0.16S275.072,128.474,274.644,128.474z"/>
		<path d="M282.069,128.529c-1.463,0-2.584-0.344-3.364-1.033c-0.78-0.688-1.17-1.669-1.17-2.942c0-1.246,0.363-2.24,1.09-2.983
			c0.727-0.743,1.744-1.114,3.051-1.114c1.187,0,2.08,0.315,2.678,0.944c0.598,0.63,0.897,1.532,0.897,2.705v0.856h-5.293
			c0.023,0.354,0.099,0.649,0.228,0.887c0.128,0.238,0.299,0.427,0.511,0.567c0.207,0.141,0.448,0.241,0.725,0.303
			c0.276,0.061,0.577,0.091,0.904,0.091c0.281,0,0.557-0.03,0.829-0.091c0.271-0.062,0.52-0.142,0.745-0.241
			c0.198-0.086,0.381-0.179,0.549-0.279s0.305-0.188,0.411-0.265h0.255v1.964c-0.198,0.077-0.378,0.148-0.542,0.214
			c-0.163,0.065-0.388,0.132-0.673,0.2c-0.262,0.068-0.533,0.121-0.811,0.16S282.47,128.529,282.069,128.529z M282.87,123.527
			c-0.014-0.503-0.132-0.886-0.355-1.148s-0.565-0.395-1.025-0.395c-0.469,0-0.836,0.138-1.101,0.415
			c-0.265,0.276-0.411,0.652-0.438,1.128H282.87z"/>
		<path d="M294.285,128.325h-2.416v-0.843c-0.418,0.344-0.803,0.606-1.152,0.785c-0.35,0.179-0.766,0.268-1.25,0.268
			c-0.768,0-1.368-0.239-1.798-0.717s-0.645-1.197-0.645-2.157v-4.968h2.429v3.785c0,0.394,0.01,0.716,0.031,0.965
			c0.021,0.25,0.07,0.46,0.148,0.632c0.073,0.159,0.188,0.279,0.341,0.36c0.154,0.082,0.37,0.123,0.646,0.123
			c0.17,0,0.372-0.041,0.604-0.123c0.232-0.082,0.447-0.192,0.645-0.333v-5.409h2.416V128.325z"/>
		<path d="M301.296,122.943h-0.2c-0.092-0.032-0.226-0.056-0.4-0.071c-0.175-0.016-0.368-0.024-0.58-0.024
			c-0.253,0-0.519,0.036-0.797,0.109c-0.278,0.072-0.549,0.158-0.811,0.258v5.11h-2.416v-7.631h2.416v1.094
			c0.11-0.1,0.263-0.226,0.459-0.377c0.195-0.151,0.374-0.272,0.535-0.363c0.175-0.104,0.378-0.194,0.611-0.269
			s0.452-0.112,0.659-0.112c0.078,0,0.166,0.002,0.262,0.007c0.097,0.005,0.184,0.012,0.262,0.021V122.943z"/>
	</g>
	
		<line fill="none" stroke="#800000" stroke-width="0.7559" stroke-linecap="square" stroke-miterlimit="10" x1="212.972" y1="137.181" x2="314.483" y2="137.181"/>
	<g>
		<path d="M228.593,163.666h-3.485v3.432h-1.146v-3.432h-3.485v-1.088h3.485v-3.432h1.146v3.432h3.485V163.666z"/>
		<path d="M234.922,166.744c-0.106,0.077-0.247,0.185-0.424,0.322c-0.177,0.139-0.349,0.248-0.514,0.33
			c-0.23,0.118-0.452,0.208-0.666,0.271s-0.514,0.096-0.901,0.096c-0.317,0-0.619-0.06-0.904-0.177
			c-0.286-0.118-0.536-0.283-0.752-0.496c-0.207-0.209-0.373-0.466-0.497-0.771c-0.124-0.306-0.186-0.629-0.186-0.969
			c0-0.525,0.113-0.973,0.338-1.342c0.226-0.369,0.582-0.662,1.07-0.88c0.433-0.194,0.943-0.329,1.532-0.404s1.224-0.13,1.905-0.167
			v-0.244c0-0.299-0.046-0.54-0.138-0.724c-0.092-0.184-0.221-0.325-0.387-0.425c-0.166-0.104-0.368-0.173-0.607-0.207
			s-0.485-0.051-0.738-0.051c-0.299,0-0.651,0.044-1.056,0.132c-0.405,0.089-0.81,0.217-1.214,0.384h-0.076v-1.298
			c0.239-0.067,0.582-0.143,1.028-0.224c0.446-0.082,0.888-0.123,1.325-0.123c0.529,0,0.976,0.041,1.339,0.123
			c0.363,0.081,0.69,0.229,0.98,0.441c0.281,0.208,0.49,0.478,0.628,0.809c0.138,0.331,0.207,0.734,0.207,1.21v5.191h-1.291V166.744
			z M234.922,165.684v-2.106c-0.308,0.027-0.698,0.064-1.17,0.112s-0.852,0.114-1.142,0.2c-0.345,0.104-0.63,0.265-0.856,0.479
			c-0.225,0.215-0.338,0.516-0.338,0.9c0,0.435,0.124,0.764,0.373,0.985s0.612,0.333,1.09,0.333c0.41,0,0.78-0.087,1.111-0.262
			C234.322,166.151,234.632,165.938,234.922,165.684z"/>
		<path d="M241.382,167.723c-0.529,0-1.015-0.08-1.456-0.241c-0.442-0.161-0.821-0.404-1.139-0.73
			c-0.317-0.326-0.563-0.737-0.738-1.233s-0.262-1.079-0.262-1.75c0-0.666,0.091-1.241,0.272-1.726
			c0.182-0.485,0.425-0.893,0.728-1.224c0.304-0.33,0.682-0.585,1.136-0.765c0.453-0.179,0.939-0.269,1.459-0.269
			c0.423,0,0.832,0.06,1.225,0.177c0.394,0.118,0.744,0.254,1.052,0.408v1.434h-0.076c-0.092-0.077-0.21-0.165-0.355-0.265
			s-0.321-0.202-0.528-0.306c-0.18-0.091-0.391-0.17-0.635-0.238c-0.244-0.068-0.479-0.102-0.704-0.102
			c-0.672,0-1.211,0.25-1.619,0.751c-0.407,0.5-0.611,1.208-0.611,2.123c0,0.897,0.197,1.596,0.59,2.097
			c0.393,0.5,0.939,0.751,1.639,0.751c0.423,0,0.826-0.086,1.208-0.259c0.382-0.172,0.72-0.394,1.015-0.666h0.076v1.435
			c-0.128,0.059-0.29,0.13-0.483,0.214s-0.368,0.146-0.524,0.187c-0.221,0.063-0.419,0.112-0.594,0.146
			S241.658,167.723,241.382,167.723z"/>
		<path d="M247.087,167.702c-0.708,0-1.261-0.198-1.657-0.595c-0.396-0.396-0.593-1.022-0.593-1.879v-4.206h-0.876v-1.061h0.876
			v-2.181h1.297v2.181h2.388v1.061h-2.388v3.608c0,0.385,0.007,0.682,0.021,0.89c0.014,0.209,0.066,0.403,0.159,0.585
			c0.078,0.158,0.205,0.277,0.379,0.356s0.412,0.119,0.711,0.119c0.211,0,0.417-0.03,0.614-0.092s0.34-0.112,0.428-0.153h0.076
			v1.148c-0.244,0.068-0.491,0.121-0.742,0.16C247.53,167.683,247.299,167.702,247.087,167.702z"/>
		<path d="M251.307,158.691h-1.477v-1.325h1.477V158.691z M251.217,167.553h-1.297v-7.591h1.297V167.553z"/>
		<path d="M258.814,163.761c0,1.277-0.313,2.265-0.938,2.96c-0.626,0.695-1.459,1.043-2.499,1.043c-1.072,0-1.915-0.359-2.529-1.077
			s-0.921-1.693-0.921-2.926c0-1.269,0.316-2.254,0.949-2.956s1.467-1.053,2.502-1.053c1.04,0,1.873,0.35,2.499,1.05
			C258.501,161.501,258.814,162.488,258.814,163.761z M257.476,163.761c0-0.982-0.182-1.714-0.545-2.191s-0.881-0.717-1.553-0.717
			c-0.676,0-1.197,0.239-1.563,0.717c-0.366,0.478-0.548,1.209-0.548,2.191c0,0.951,0.183,1.673,0.548,2.164
			c0.366,0.492,0.887,0.737,1.563,0.737c0.667,0,1.184-0.241,1.549-0.724S257.476,164.73,257.476,163.761z"/>
		<path d="M266.234,167.553h-1.297v-4.322c0-0.349-0.017-0.674-0.052-0.975c-0.035-0.302-0.1-0.543-0.197-0.724
			c-0.106-0.19-0.253-0.332-0.441-0.425c-0.189-0.093-0.446-0.14-0.773-0.14c-0.322,0-0.655,0.085-0.998,0.255
			s-0.677,0.391-1.004,0.663v5.667h-1.298v-7.591h1.298v0.843c0.386-0.34,0.768-0.6,1.146-0.781
			c0.377-0.182,0.775-0.271,1.194-0.271c0.759,0,1.353,0.245,1.781,0.737c0.428,0.491,0.642,1.203,0.642,2.137V167.553z"/>
		<path d="M271.849,170.353h-1.581c-0.801-0.938-1.43-1.93-1.888-2.977c-0.458-1.047-0.687-2.283-0.687-3.71
			c0-1.396,0.227-2.624,0.68-3.687s1.084-2.063,1.895-3h1.581v0.067c-0.373,0.331-0.729,0.713-1.066,1.146
			c-0.338,0.433-0.652,0.937-0.942,1.512c-0.276,0.557-0.5,1.171-0.673,1.842c-0.172,0.67-0.259,1.377-0.259,2.12
			c0,0.774,0.084,1.483,0.252,2.127s0.395,1.255,0.68,1.835c0.276,0.557,0.591,1.061,0.946,1.512
			c0.354,0.45,0.708,0.832,1.063,1.145V170.353z"/>
		<path d="M276.756,163.666c0,1.399-0.228,2.63-0.683,3.689c-0.456,1.061-1.086,2.06-1.891,2.997h-1.581v-0.068
			c0.354-0.313,0.711-0.696,1.07-1.151s0.671-0.957,0.938-1.505c0.285-0.585,0.512-1.202,0.68-1.853
			c0.168-0.649,0.252-1.353,0.252-2.109c0-0.748-0.085-1.454-0.255-2.12c-0.17-0.666-0.396-1.28-0.676-1.842
			s-0.598-1.067-0.952-1.516c-0.354-0.448-0.707-0.829-1.056-1.142v-0.067h1.581c0.8,0.938,1.43,1.934,1.888,2.989
			C276.527,161.024,276.756,162.257,276.756,163.666z"/>
	</g>
	
		<line fill="none" stroke="#800000" stroke-width="0.7559" stroke-linecap="square" stroke-miterlimit="10" x1="212.972" y1="148.566" x2="314.483" y2="148.566"/>
	
		<line fill="none" stroke="#800000" stroke-width="0.7559" stroke-linecap="square" stroke-miterlimit="10" x1="314.483" y1="39.761" x2="469.963" y2="39.761"/>
	<polyline fill="none" stroke="#800000" stroke-width="0.7559" stroke-linecap="square" stroke-miterlimit="10" points="
		457.113,44.822 469.963,39.761 457.113,34.7 	"/>
	<polyline fill="none" stroke="#800000" stroke-width="0.7559" stroke-linecap="square" stroke-miterlimit="10" points="
		469.963,197.909 469.963,149.832 314.483,149.832 	"/>
	<polyline fill="none" stroke="#800000" stroke-width="0.7559" stroke-linecap="square" stroke-miterlimit="10" points="
		327.332,144.771 314.483,149.832 327.332,154.893 	"/>
	<g>
		<path d="M340.381,140.875h-3.485v3.432h-1.146v-3.432h-3.485v-1.087h3.485v-3.432h1.146v3.432h3.485V140.875z"/>
		<path d="M346.488,138.544h-0.069c-0.097-0.027-0.199-0.044-0.307-0.051c-0.108-0.006-0.238-0.01-0.39-0.01
			c-0.351,0-0.697,0.075-1.043,0.224c-0.345,0.149-0.672,0.372-0.979,0.666v5.389h-1.298v-7.59h1.298v1.128
			c0.474-0.412,0.887-0.704,1.238-0.873c0.353-0.17,0.694-0.255,1.025-0.255c0.133,0,0.233,0.003,0.3,0.01
			c0.067,0.007,0.142,0.017,0.225,0.031V138.544z"/>
		<path d="M350.886,144.939c-1.229,0-2.183-0.341-2.861-1.023c-0.679-0.682-1.018-1.65-1.018-2.905c0-1.237,0.329-2.221,0.987-2.953
			c0.657-0.731,1.518-1.098,2.581-1.098c0.479,0,0.901,0.068,1.27,0.204c0.368,0.136,0.69,0.349,0.967,0.639
			c0.275,0.29,0.487,0.645,0.635,1.063c0.146,0.419,0.221,0.932,0.221,1.539v0.693h-5.342c0,0.883,0.226,1.558,0.676,2.025
			c0.451,0.467,1.074,0.7,1.871,0.7c0.285,0,0.564-0.031,0.838-0.095c0.274-0.063,0.521-0.145,0.742-0.245
			c0.234-0.104,0.433-0.205,0.594-0.303c0.161-0.097,0.294-0.189,0.4-0.275h0.075v1.393c-0.151,0.059-0.34,0.132-0.565,0.221
			s-0.428,0.157-0.607,0.207c-0.253,0.068-0.482,0.12-0.687,0.157C351.457,144.921,351.198,144.939,350.886,144.939z
			 M352.404,140.121c-0.01-0.344-0.051-0.641-0.125-0.891c-0.073-0.249-0.179-0.459-0.317-0.632
			c-0.151-0.19-0.346-0.335-0.583-0.435s-0.53-0.15-0.88-0.15c-0.345,0-0.639,0.051-0.88,0.153c-0.241,0.102-0.461,0.25-0.659,0.445
			c-0.193,0.199-0.341,0.42-0.441,0.663c-0.102,0.242-0.166,0.524-0.193,0.846H352.404z M352.735,133.373l-1.885,2.542h-1.028
			l1.235-2.542H352.735z"/>
		<path d="M358.312,144.932c-0.529,0-1.015-0.081-1.456-0.241s-0.821-0.404-1.139-0.73s-0.563-0.737-0.738-1.233
			c-0.176-0.496-0.263-1.08-0.263-1.75c0-0.666,0.091-1.241,0.272-1.726c0.182-0.484,0.425-0.892,0.729-1.223
			c0.304-0.331,0.682-0.585,1.135-0.764c0.453-0.179,0.94-0.269,1.46-0.269c0.423,0,0.832,0.059,1.225,0.177
			c0.394,0.118,0.745,0.253,1.053,0.408v1.434h-0.076c-0.092-0.077-0.21-0.165-0.354-0.265c-0.146-0.1-0.321-0.201-0.528-0.306
			c-0.18-0.09-0.392-0.17-0.635-0.238c-0.244-0.068-0.479-0.102-0.704-0.102c-0.672,0-1.211,0.25-1.618,0.751
			s-0.611,1.208-0.611,2.124c0,0.897,0.197,1.596,0.59,2.097c0.394,0.5,0.94,0.75,1.64,0.75c0.423,0,0.825-0.086,1.208-0.258
			c0.382-0.172,0.72-0.395,1.014-0.666h0.076v1.434c-0.129,0.059-0.29,0.13-0.482,0.214c-0.193,0.083-0.368,0.146-0.525,0.187
			c-0.221,0.063-0.418,0.112-0.593,0.146C358.813,144.915,358.588,144.932,358.312,144.932z"/>
		<path d="M365.032,144.939c-1.229,0-2.183-0.341-2.861-1.023c-0.679-0.682-1.018-1.65-1.018-2.905c0-1.237,0.329-2.221,0.987-2.953
			c0.657-0.731,1.518-1.098,2.581-1.098c0.479,0,0.901,0.068,1.27,0.204c0.368,0.136,0.69,0.349,0.967,0.639
			c0.275,0.29,0.487,0.645,0.635,1.063c0.146,0.419,0.221,0.932,0.221,1.539v0.693h-5.342c0,0.883,0.226,1.558,0.676,2.025
			c0.451,0.467,1.074,0.7,1.871,0.7c0.285,0,0.564-0.031,0.838-0.095c0.274-0.063,0.521-0.145,0.742-0.245
			c0.234-0.104,0.433-0.205,0.594-0.303c0.161-0.097,0.294-0.189,0.4-0.275h0.075v1.393c-0.151,0.059-0.34,0.132-0.565,0.221
			s-0.428,0.157-0.607,0.207c-0.253,0.068-0.482,0.12-0.687,0.157C365.604,144.921,365.345,144.939,365.032,144.939z
			 M366.551,140.121c-0.01-0.344-0.051-0.641-0.125-0.891c-0.073-0.249-0.179-0.459-0.317-0.632
			c-0.151-0.19-0.346-0.335-0.583-0.435s-0.53-0.15-0.88-0.15c-0.345,0-0.639,0.051-0.88,0.153c-0.241,0.102-0.461,0.25-0.659,0.445
			c-0.193,0.199-0.341,0.42-0.441,0.663c-0.102,0.242-0.166,0.524-0.193,0.846H366.551z"/>
		<path d="M375.859,140.767c0,1.264-0.307,2.271-0.921,3.021s-1.391,1.125-2.33,1.125c-0.382,0-0.72-0.043-1.014-0.129
			c-0.295-0.086-0.597-0.22-0.904-0.401v3.18h-1.298v-10.39h1.298v0.795c0.322-0.286,0.68-0.524,1.073-0.717
			c0.394-0.193,0.822-0.289,1.287-0.289c0.883,0,1.572,0.344,2.066,1.033C375.612,138.683,375.859,139.607,375.859,140.767z
			 M374.521,140.909c0-0.865-0.141-1.537-0.421-2.015s-0.736-0.717-1.366-0.717c-0.368,0-0.724,0.081-1.066,0.241
			c-0.343,0.161-0.669,0.368-0.977,0.622v4.301c0.34,0.163,0.631,0.274,0.873,0.333c0.241,0.059,0.519,0.088,0.831,0.088
			c0.672,0,1.194-0.242,1.567-0.727C374.334,142.551,374.521,141.842,374.521,140.909z"/>
		<path d="M379.439,144.912c-0.709,0-1.261-0.198-1.656-0.595c-0.396-0.396-0.594-1.022-0.594-1.879v-4.206h-0.877v-1.06h0.877
			v-2.182h1.298v2.182h2.388v1.06h-2.388v3.608c0,0.385,0.007,0.682,0.021,0.89s0.066,0.403,0.158,0.584
			c0.078,0.159,0.205,0.277,0.38,0.356c0.175,0.08,0.412,0.119,0.711,0.119c0.212,0,0.416-0.031,0.614-0.092
			c0.197-0.061,0.341-0.112,0.428-0.153h0.076v1.148c-0.244,0.068-0.491,0.121-0.742,0.16S379.651,144.912,379.439,144.912z"/>
		<path d="M385.592,144.939c-1.229,0-2.183-0.341-2.861-1.023c-0.679-0.682-1.018-1.65-1.018-2.905c0-1.237,0.329-2.221,0.987-2.953
			c0.657-0.731,1.518-1.098,2.581-1.098c0.479,0,0.901,0.068,1.27,0.204c0.368,0.136,0.69,0.349,0.967,0.639
			c0.275,0.29,0.487,0.645,0.635,1.063c0.146,0.419,0.221,0.932,0.221,1.539v0.693h-5.342c0,0.883,0.226,1.558,0.676,2.025
			c0.451,0.467,1.074,0.7,1.871,0.7c0.285,0,0.564-0.031,0.838-0.095c0.274-0.063,0.521-0.145,0.742-0.245
			c0.234-0.104,0.433-0.205,0.594-0.303c0.161-0.097,0.294-0.189,0.4-0.275h0.075v1.393c-0.151,0.059-0.34,0.132-0.565,0.221
			s-0.428,0.157-0.607,0.207c-0.253,0.068-0.482,0.12-0.687,0.157C386.163,144.921,385.904,144.939,385.592,144.939z
			 M387.11,140.121c-0.01-0.344-0.051-0.641-0.125-0.891c-0.073-0.249-0.179-0.459-0.317-0.632c-0.151-0.19-0.346-0.335-0.583-0.435
			s-0.53-0.15-0.88-0.15c-0.345,0-0.639,0.051-0.88,0.153c-0.241,0.102-0.461,0.25-0.659,0.445c-0.193,0.199-0.341,0.42-0.441,0.663
			c-0.102,0.242-0.166,0.524-0.193,0.846H387.11z"/>
		<path d="M395.957,144.762h-1.298v-0.843c-0.4,0.344-0.78,0.606-1.139,0.785c-0.359,0.179-0.759,0.268-1.201,0.268
			c-0.336,0-0.652-0.054-0.949-0.163c-0.296-0.108-0.555-0.281-0.776-0.516c-0.221-0.236-0.392-0.532-0.514-0.89
			s-0.183-0.793-0.183-1.305v-4.927h1.297v4.322c0,0.403,0.015,0.737,0.045,1.002c0.03,0.265,0.098,0.497,0.204,0.696
			c0.105,0.195,0.249,0.337,0.431,0.428s0.443,0.136,0.784,0.136c0.317,0,0.655-0.088,1.014-0.265
			c0.359-0.177,0.688-0.395,0.987-0.653v-5.667h1.298V144.762z"/>
		<path d="M401.75,138.544h-0.069c-0.097-0.027-0.199-0.044-0.307-0.051c-0.108-0.006-0.238-0.01-0.39-0.01
			c-0.351,0-0.697,0.075-1.043,0.224c-0.345,0.149-0.672,0.372-0.979,0.666v5.389h-1.298v-7.59h1.298v1.128
			c0.474-0.412,0.887-0.704,1.238-0.873c0.353-0.17,0.694-0.255,1.025-0.255c0.133,0,0.233,0.003,0.3,0.01
			c0.067,0.007,0.142,0.017,0.225,0.031V138.544z"/>
	</g>
	
		<polyline fill="none" stroke="#800000" stroke-width="0.7559" stroke-linecap="square" stroke-miterlimit="10" stroke-dasharray="0.7677,1.5354" points="
		38.217,68.861 38.217,225.743 444.264,225.743 	"/>
	<polyline fill="none" stroke="#800000" stroke-width="0.7559" stroke-linecap="square" stroke-miterlimit="10" points="
		431.414,230.804 444.264,225.743 431.414,220.684 	"/>
	
		<line fill="none" stroke="#800000" stroke-width="0.7559" stroke-linecap="square" stroke-miterlimit="10" x1="516.221" y1="197.909" x2="516.221" y2="76.451"/>
	
		<polygon fill-rule="evenodd" clip-rule="evenodd" fill="#FFFFFF" stroke="#800000" stroke-width="0.7559" stroke-linecap="square" stroke-miterlimit="10" points="
		526.5,101.755 516.221,76.451 505.941,101.755 	"/>
	<polyline fill="none" stroke="#800000" stroke-width="0.7559" stroke-linecap="square" stroke-miterlimit="10" points="
		74.196,68.861 74.196,154.893 212.972,154.893 	"/>
	<polyline fill="none" stroke="#800000" stroke-width="0.7559" stroke-linecap="square" stroke-miterlimit="10" points="
		200.122,159.954 212.972,154.893 200.122,149.832 	"/>
	
		<polygon fill-rule="evenodd" clip-rule="evenodd" fill="#FFFFB9" stroke="#800000" stroke-width="0.7559" stroke-linecap="square" stroke-miterlimit="10" points="
		259.23,251.048 387.726,251.048 400.574,263.7 400.574,277.616 259.23,277.616 259.23,251.048 	"/>
	
		<polygon fill-rule="evenodd" clip-rule="evenodd" fill="#FFFFB9" stroke="#800000" stroke-width="0.7559" stroke-linecap="square" stroke-miterlimit="10" points="
		387.726,251.048 387.726,263.7 400.574,263.7 	"/>
	<g>
		<path d="M270.668,263.813h-0.069c-0.097-0.027-0.199-0.044-0.307-0.051c-0.108-0.007-0.238-0.011-0.39-0.011
			c-0.35,0-0.697,0.075-1.042,0.225c-0.345,0.149-0.672,0.371-0.98,0.666v5.389h-1.298v-7.591h1.298v1.128
			c0.474-0.412,0.887-0.703,1.239-0.873s0.693-0.255,1.025-0.255c0.133,0,0.233,0.004,0.3,0.011c0.066,0.007,0.141,0.017,0.224,0.03
			V263.813z"/>
		<path d="M275.065,270.208c-1.229,0-2.182-0.341-2.861-1.022s-1.018-1.65-1.018-2.905c0-1.237,0.329-2.221,0.987-2.953
			c0.658-0.731,1.519-1.097,2.581-1.097c0.479,0,0.902,0.067,1.27,0.203c0.368,0.137,0.69,0.35,0.966,0.639
			c0.276,0.29,0.488,0.645,0.635,1.063c0.147,0.42,0.221,0.933,0.221,1.54v0.692h-5.342c0,0.884,0.225,1.559,0.676,2.025
			c0.451,0.467,1.074,0.7,1.87,0.7c0.285,0,0.565-0.032,0.839-0.096c0.273-0.063,0.521-0.145,0.742-0.244
			c0.235-0.104,0.433-0.205,0.594-0.303c0.161-0.098,0.294-0.189,0.4-0.275h0.076v1.394c-0.152,0.059-0.341,0.133-0.566,0.221
			c-0.226,0.088-0.428,0.157-0.607,0.207c-0.253,0.068-0.482,0.12-0.687,0.156C275.637,270.189,275.378,270.208,275.065,270.208z
			 M276.583,265.39c-0.009-0.344-0.051-0.641-0.124-0.89c-0.074-0.249-0.18-0.46-0.317-0.632c-0.152-0.19-0.347-0.336-0.583-0.436
			s-0.53-0.149-0.88-0.149c-0.345,0-0.638,0.051-0.88,0.153c-0.242,0.102-0.461,0.25-0.659,0.445
			c-0.193,0.199-0.34,0.42-0.442,0.662c-0.101,0.242-0.166,0.524-0.193,0.846H276.583z M276.915,258.642l-1.884,2.542h-1.028
			l1.235-2.542H276.915z"/>
		<path d="M282.491,270.201c-0.529,0-1.015-0.08-1.456-0.241c-0.442-0.161-0.821-0.404-1.139-0.73
			c-0.317-0.326-0.563-0.737-0.738-1.233s-0.262-1.079-0.262-1.75c0-0.666,0.091-1.241,0.272-1.726
			c0.182-0.485,0.425-0.893,0.728-1.224c0.304-0.33,0.682-0.585,1.136-0.765c0.453-0.179,0.939-0.269,1.459-0.269
			c0.423,0,0.832,0.06,1.225,0.177c0.394,0.118,0.744,0.254,1.052,0.408v1.434h-0.076c-0.092-0.077-0.21-0.165-0.355-0.265
			s-0.321-0.202-0.528-0.306c-0.18-0.091-0.391-0.17-0.635-0.238c-0.244-0.068-0.479-0.102-0.704-0.102
			c-0.672,0-1.211,0.25-1.619,0.751c-0.407,0.5-0.611,1.208-0.611,2.123c0,0.897,0.197,1.596,0.59,2.097
			c0.393,0.5,0.939,0.751,1.639,0.751c0.423,0,0.826-0.086,1.208-0.259c0.382-0.172,0.72-0.394,1.015-0.666h0.076v1.435
			c-0.128,0.059-0.29,0.13-0.483,0.214s-0.368,0.146-0.524,0.187c-0.221,0.063-0.419,0.112-0.594,0.146
			S282.767,270.201,282.491,270.201z"/>
		<path d="M289.211,270.208c-1.229,0-2.182-0.341-2.861-1.022s-1.018-1.65-1.018-2.905c0-1.237,0.329-2.221,0.987-2.953
			c0.658-0.731,1.519-1.097,2.581-1.097c0.479,0,0.902,0.067,1.27,0.203c0.368,0.137,0.69,0.35,0.966,0.639
			c0.276,0.29,0.488,0.645,0.635,1.063c0.147,0.42,0.221,0.933,0.221,1.54v0.692h-5.342c0,0.884,0.225,1.559,0.676,2.025
			c0.451,0.467,1.074,0.7,1.87,0.7c0.285,0,0.565-0.032,0.839-0.096c0.273-0.063,0.521-0.145,0.742-0.244
			c0.235-0.104,0.433-0.205,0.594-0.303c0.161-0.098,0.294-0.189,0.4-0.275h0.076v1.394c-0.152,0.059-0.341,0.133-0.566,0.221
			c-0.226,0.088-0.428,0.157-0.607,0.207c-0.253,0.068-0.482,0.12-0.687,0.156C289.783,270.189,289.524,270.208,289.211,270.208z
			 M290.729,265.39c-0.009-0.344-0.051-0.641-0.124-0.89c-0.074-0.249-0.18-0.46-0.317-0.632c-0.152-0.19-0.347-0.336-0.583-0.436
			s-0.53-0.149-0.88-0.149c-0.345,0-0.638,0.051-0.88,0.153c-0.242,0.102-0.461,0.25-0.659,0.445
			c-0.193,0.199-0.34,0.42-0.442,0.662c-0.101,0.242-0.166,0.524-0.193,0.846H290.729z"/>
		<path d="M300.039,266.035c0,1.265-0.307,2.271-0.921,3.021c-0.614,0.75-1.391,1.125-2.329,1.125c-0.382,0-0.72-0.043-1.015-0.129
			s-0.596-0.22-0.904-0.401v3.181h-1.298V262.44h1.298v0.795c0.322-0.285,0.68-0.523,1.073-0.717
			c0.393-0.192,0.822-0.288,1.287-0.288c0.883,0,1.572,0.344,2.067,1.032S300.039,264.876,300.039,266.035z M298.7,266.179
			c0-0.866-0.14-1.537-0.421-2.016c-0.281-0.478-0.736-0.717-1.367-0.717c-0.368,0-0.724,0.081-1.066,0.241
			c-0.343,0.161-0.668,0.368-0.977,0.622v4.302c0.34,0.163,0.631,0.273,0.873,0.333c0.241,0.059,0.519,0.088,0.832,0.088
			c0.672,0,1.194-0.242,1.566-0.727C298.514,267.82,298.7,267.111,298.7,266.179z"/>
		<path d="M303.619,270.181c-0.708,0-1.261-0.198-1.657-0.595c-0.396-0.396-0.593-1.022-0.593-1.879v-4.206h-0.876v-1.061h0.876
			v-2.181h1.297v2.181h2.388v1.061h-2.388v3.608c0,0.385,0.007,0.682,0.021,0.89c0.014,0.209,0.066,0.403,0.159,0.585
			c0.078,0.158,0.205,0.277,0.379,0.356s0.412,0.119,0.711,0.119c0.211,0,0.417-0.03,0.614-0.092s0.34-0.112,0.428-0.153h0.076
			v1.148c-0.244,0.068-0.491,0.121-0.742,0.16C304.062,270.161,303.83,270.181,303.619,270.181z"/>
		<path d="M309.771,270.208c-1.229,0-2.182-0.341-2.86-1.022s-1.018-1.65-1.018-2.905c0-1.237,0.329-2.221,0.987-2.953
			c0.658-0.731,1.519-1.097,2.581-1.097c0.479,0,0.902,0.067,1.271,0.203c0.368,0.137,0.689,0.35,0.966,0.639
			c0.276,0.29,0.487,0.645,0.635,1.063c0.147,0.42,0.221,0.933,0.221,1.54v0.692h-5.342c0,0.884,0.226,1.559,0.677,2.025
			s1.074,0.7,1.87,0.7c0.285,0,0.564-0.032,0.839-0.096c0.273-0.063,0.521-0.145,0.742-0.244c0.234-0.104,0.432-0.205,0.593-0.303
			s0.295-0.189,0.4-0.275h0.076v1.394c-0.152,0.059-0.341,0.133-0.566,0.221c-0.225,0.088-0.428,0.157-0.606,0.207
			c-0.254,0.068-0.482,0.12-0.688,0.156C310.343,270.189,310.084,270.208,309.771,270.208z M311.289,265.39
			c-0.009-0.344-0.051-0.641-0.124-0.89c-0.074-0.249-0.18-0.46-0.317-0.632c-0.152-0.19-0.347-0.336-0.583-0.436
			c-0.237-0.1-0.53-0.149-0.88-0.149c-0.346,0-0.639,0.051-0.881,0.153c-0.241,0.102-0.461,0.25-0.658,0.445
			c-0.193,0.199-0.341,0.42-0.442,0.662c-0.101,0.242-0.165,0.524-0.193,0.846H311.289z"/>
		<path d="M320.137,270.031h-1.298v-0.843c-0.4,0.345-0.78,0.606-1.139,0.785c-0.359,0.179-0.759,0.269-1.201,0.269
			c-0.336,0-0.652-0.055-0.949-0.163c-0.296-0.109-0.555-0.281-0.776-0.517c-0.221-0.235-0.392-0.532-0.514-0.891
			c-0.122-0.357-0.183-0.792-0.183-1.305v-4.927h1.297v4.322c0,0.403,0.015,0.737,0.045,1.002c0.03,0.266,0.098,0.497,0.204,0.697
			c0.105,0.194,0.249,0.337,0.431,0.428s0.443,0.136,0.784,0.136c0.317,0,0.655-0.088,1.014-0.265
			c0.359-0.177,0.688-0.395,0.987-0.652v-5.668h1.298V270.031z"/>
		<path d="M325.93,263.813h-0.069c-0.097-0.027-0.199-0.044-0.307-0.051c-0.108-0.007-0.238-0.011-0.39-0.011
			c-0.351,0-0.697,0.075-1.043,0.225c-0.345,0.149-0.672,0.371-0.979,0.666v5.389h-1.298v-7.591h1.298v1.128
			c0.474-0.412,0.887-0.703,1.238-0.873c0.353-0.17,0.694-0.255,1.025-0.255c0.133,0,0.233,0.004,0.3,0.011
			c0.067,0.007,0.142,0.017,0.225,0.03V263.813z"/>
		<path d="M329.002,270.031h-1.649v-1.937h1.649V270.031z"/>
		<path d="M336.413,269.223c-0.105,0.077-0.247,0.185-0.425,0.322c-0.177,0.139-0.348,0.248-0.514,0.33
			c-0.23,0.118-0.452,0.208-0.666,0.271s-0.515,0.096-0.9,0.096c-0.317,0-0.619-0.06-0.904-0.177
			c-0.285-0.118-0.536-0.283-0.752-0.496c-0.207-0.209-0.373-0.466-0.497-0.771s-0.187-0.629-0.187-0.969
			c0-0.525,0.112-0.973,0.338-1.342s0.582-0.662,1.07-0.88c0.432-0.194,0.942-0.329,1.532-0.404c0.589-0.075,1.224-0.13,1.904-0.167
			v-0.244c0-0.299-0.046-0.54-0.138-0.724c-0.093-0.184-0.221-0.325-0.387-0.425c-0.166-0.104-0.368-0.173-0.607-0.207
			s-0.485-0.051-0.738-0.051c-0.299,0-0.651,0.044-1.056,0.132c-0.405,0.089-0.811,0.217-1.215,0.384h-0.076v-1.298
			c0.239-0.067,0.582-0.143,1.028-0.224c0.446-0.082,0.888-0.123,1.325-0.123c0.529,0,0.976,0.041,1.339,0.123
			c0.363,0.081,0.69,0.229,0.98,0.441c0.28,0.208,0.489,0.478,0.628,0.809c0.138,0.331,0.207,0.734,0.207,1.21v5.191h-1.291V269.223
			z M336.413,268.162v-2.106c-0.309,0.027-0.698,0.064-1.17,0.112s-0.853,0.114-1.142,0.2c-0.346,0.104-0.631,0.265-0.856,0.479
			s-0.338,0.516-0.338,0.9c0,0.435,0.124,0.764,0.373,0.985c0.248,0.222,0.611,0.333,1.09,0.333c0.409,0,0.78-0.087,1.111-0.262
			S336.123,268.416,336.413,268.162z"/>
		<path d="M342.873,270.201c-0.529,0-1.015-0.08-1.456-0.241s-0.821-0.404-1.139-0.73s-0.563-0.737-0.738-1.233
			c-0.176-0.496-0.263-1.079-0.263-1.75c0-0.666,0.091-1.241,0.272-1.726c0.182-0.485,0.425-0.893,0.729-1.224
			c0.304-0.33,0.682-0.585,1.135-0.765c0.453-0.179,0.94-0.269,1.46-0.269c0.423,0,0.832,0.06,1.225,0.177
			c0.394,0.118,0.745,0.254,1.053,0.408v1.434h-0.076c-0.092-0.077-0.21-0.165-0.354-0.265c-0.146-0.1-0.321-0.202-0.528-0.306
			c-0.18-0.091-0.392-0.17-0.635-0.238c-0.244-0.068-0.479-0.102-0.704-0.102c-0.672,0-1.211,0.25-1.618,0.751
			c-0.407,0.5-0.611,1.208-0.611,2.123c0,0.897,0.197,1.596,0.59,2.097c0.394,0.5,0.94,0.751,1.64,0.751
			c0.423,0,0.825-0.086,1.208-0.259c0.382-0.172,0.72-0.394,1.014-0.666h0.076v1.435c-0.129,0.059-0.29,0.13-0.482,0.214
			c-0.193,0.084-0.368,0.146-0.525,0.187c-0.221,0.063-0.418,0.112-0.593,0.146C343.374,270.185,343.149,270.201,342.873,270.201z"
			/>
		<path d="M348.579,270.181c-0.709,0-1.261-0.198-1.656-0.595c-0.396-0.396-0.594-1.022-0.594-1.879v-4.206h-0.877v-1.061h0.877
			v-2.181h1.298v2.181h2.388v1.061h-2.388v3.608c0,0.385,0.007,0.682,0.021,0.89c0.014,0.209,0.066,0.403,0.158,0.585
			c0.078,0.158,0.205,0.277,0.38,0.356s0.412,0.119,0.711,0.119c0.212,0,0.416-0.03,0.614-0.092
			c0.197-0.062,0.341-0.112,0.428-0.153h0.076v1.148c-0.244,0.068-0.491,0.121-0.742,0.16
			C349.021,270.161,348.791,270.181,348.579,270.181z"/>
		<path d="M352.799,261.17h-1.477v-1.325h1.477V261.17z M352.709,270.031h-1.298v-7.591h1.298V270.031z"/>
		<path d="M360.306,266.239c0,1.277-0.313,2.265-0.938,2.96s-1.459,1.043-2.499,1.043c-1.071,0-1.915-0.359-2.529-1.077
			s-0.921-1.693-0.921-2.926c0-1.269,0.316-2.254,0.949-2.956c0.632-0.702,1.466-1.053,2.501-1.053c1.04,0,1.873,0.35,2.499,1.05
			C359.993,263.979,360.306,264.967,360.306,266.239z M358.967,266.239c0-0.982-0.182-1.714-0.545-2.191
			c-0.364-0.478-0.882-0.717-1.554-0.717c-0.676,0-1.197,0.239-1.563,0.717c-0.366,0.478-0.549,1.209-0.549,2.191
			c0,0.951,0.183,1.673,0.549,2.164c0.365,0.492,0.887,0.737,1.563,0.737c0.668,0,1.185-0.241,1.55-0.724
			C358.784,267.935,358.967,267.209,358.967,266.239z"/>
		<path d="M367.726,270.031h-1.297v-4.322c0-0.349-0.018-0.674-0.052-0.975c-0.035-0.302-0.101-0.543-0.197-0.724
			c-0.105-0.19-0.253-0.332-0.441-0.425s-0.446-0.14-0.773-0.14c-0.322,0-0.654,0.085-0.997,0.255s-0.678,0.391-1.004,0.663v5.667
			h-1.298v-7.591h1.298v0.843c0.387-0.34,0.769-0.6,1.146-0.781s0.775-0.271,1.194-0.271c0.759,0,1.353,0.245,1.78,0.737
			c0.428,0.491,0.642,1.203,0.642,2.137V270.031z"/>
		<path d="M373.34,272.831h-1.581c-0.8-0.938-1.43-1.93-1.888-2.977c-0.457-1.047-0.687-2.283-0.687-3.71
			c0-1.396,0.227-2.624,0.68-3.687s1.085-2.063,1.895-3h1.581v0.067c-0.373,0.331-0.729,0.713-1.066,1.146s-0.652,0.937-0.942,1.512
			c-0.276,0.557-0.5,1.171-0.673,1.842c-0.173,0.67-0.259,1.377-0.259,2.12c0,0.774,0.084,1.483,0.252,2.127s0.395,1.255,0.68,1.835
			c0.276,0.557,0.592,1.061,0.945,1.512c0.354,0.45,0.709,0.832,1.063,1.145V272.831z"/>
		<path d="M378.247,266.145c0,1.399-0.228,2.63-0.683,3.689c-0.456,1.061-1.086,2.06-1.892,2.997h-1.58v-0.068
			c0.354-0.313,0.711-0.696,1.069-1.151c0.359-0.455,0.672-0.957,0.939-1.505c0.285-0.585,0.512-1.202,0.68-1.853
			c0.168-0.649,0.252-1.353,0.252-2.109c0-0.748-0.086-1.454-0.256-2.12s-0.396-1.28-0.676-1.842
			c-0.281-0.562-0.599-1.067-0.953-1.516s-0.706-0.829-1.056-1.142v-0.067h1.58c0.801,0.938,1.43,1.934,1.888,2.989
			S378.247,264.735,378.247,266.145z"/>
		<path d="M382.507,268.095l-1.933,4.451h-1.008l1.215-4.451H382.507z M382.051,264.377h-1.649v-1.937h1.649V264.377z"/>
	</g>
	
		<line fill="none" stroke="#800000" stroke-width="0.7559" stroke-linecap="square" stroke-miterlimit="10" stroke-dasharray="0.7677,1.5354" x1="444.264" y1="271.291" x2="401.86" y2="271.291"/>
</g>
</svg>
