<?xml version="1.0" encoding="utf-8"?>
<!-- Generator: Adobe Illustrator 15.0.0, SVG Export Plug-In . SVG Version: 6.00 Build 0)  -->
<!DOCTYPE svg PUBLIC "-//W3C//DTD SVG 1.1//EN" "http://www.w3.org/Graphics/SVG/1.1/DTD/svg11.dtd">
<svg version="1.1" id="Calque_1" xmlns="http://www.w3.org/2000/svg" xmlns:xlink="http://www.w3.org/1999/xlink" x="0px" y="0px"
	 width="612px" height="400px" viewBox="0 0 612 400" enable-background="new 0 0 612 400" xml:space="preserve">
<g>
	
		<rect x="8" y="9.612" fill-rule="evenodd" clip-rule="evenodd" fill="#FFFFB9" stroke="#800000" stroke-width="0.7559" stroke-linecap="square" stroke-miterlimit="10" width="118.533" height="80.798"/>
	<g>
		<path d="M50.968,32.29c-1.823,0-3.271-0.542-4.342-1.627c-1.072-1.085-1.608-2.61-1.608-4.577c0-1.896,0.537-3.409,1.612-4.537
			s2.523-1.692,4.347-1.692c0.484,0,0.919,0.027,1.306,0.081s0.756,0.128,1.11,0.225c0.277,0.08,0.58,0.19,0.906,0.33
			c0.327,0.139,0.59,0.26,0.792,0.361v2.853h-0.311c-0.146-0.128-0.332-0.282-0.555-0.462s-0.477-0.355-0.759-0.526
			s-0.595-0.317-0.935-0.438s-0.695-0.181-1.065-0.181c-0.441,0-0.845,0.068-1.212,0.205c-0.367,0.137-0.717,0.374-1.049,0.711
			c-0.305,0.305-0.554,0.718-0.747,1.237c-0.193,0.52-0.29,1.133-0.29,1.84c0,0.745,0.101,1.371,0.302,1.877
			c0.201,0.506,0.465,0.915,0.792,1.226c0.316,0.3,0.668,0.517,1.057,0.651s0.777,0.201,1.163,0.201
			c0.403,0,0.786-0.065,1.151-0.197s0.672-0.277,0.922-0.438c0.272-0.166,0.511-0.335,0.718-0.506
			c0.207-0.171,0.386-0.324,0.539-0.458h0.278v2.813c-0.223,0.102-0.482,0.218-0.775,0.35c-0.294,0.131-0.596,0.242-0.906,0.333
			c-0.381,0.112-0.737,0.198-1.069,0.257S51.55,32.29,50.968,32.29z"/>
		<path d="M59.061,32.057h-2.857V19.552h2.857V32.057z"/>
		<path d="M63.702,21.746h-3.02v-2.194h3.02V21.746z M63.62,32.057h-2.857v-9.025h2.857V32.057z"/>
		<path d="M70.016,32.298c-1.73,0-3.057-0.407-3.979-1.222s-1.384-1.974-1.384-3.48c0-1.473,0.43-2.649,1.29-3.528
			s2.063-1.318,3.608-1.318c1.404,0,2.459,0.372,3.167,1.117c0.707,0.745,1.061,1.811,1.061,3.199v1.013h-6.26
			c0.027,0.418,0.117,0.768,0.269,1.049s0.354,0.505,0.604,0.671c0.245,0.166,0.531,0.285,0.857,0.357
			c0.327,0.073,0.683,0.109,1.069,0.109c0.332,0,0.658-0.036,0.979-0.109c0.321-0.072,0.615-0.167,0.881-0.285
			c0.234-0.102,0.45-0.211,0.649-0.33c0.199-0.118,0.361-0.222,0.486-0.313h0.302v2.323c-0.234,0.091-0.447,0.176-0.641,0.253
			c-0.193,0.078-0.458,0.156-0.796,0.237c-0.31,0.081-0.63,0.144-0.959,0.189S70.489,32.298,70.016,32.298z M70.963,26.383
			c-0.017-0.595-0.157-1.047-0.42-1.358c-0.264-0.311-0.668-0.466-1.212-0.466c-0.555,0-0.989,0.164-1.302,0.49
			s-0.485,0.771-0.518,1.334H70.963z"/>
		<path d="M84.537,32.057h-2.873V27.58c0-0.364-0.015-0.727-0.045-1.089c-0.03-0.361-0.085-0.628-0.167-0.799
			c-0.098-0.204-0.24-0.35-0.425-0.438c-0.185-0.089-0.433-0.133-0.743-0.133c-0.234,0-0.471,0.043-0.71,0.128
			c-0.24,0.086-0.495,0.223-0.767,0.41v6.397H75.95v-9.025h2.857v0.997c0.468-0.391,0.923-0.697,1.367-0.917
			c0.443-0.22,0.935-0.33,1.473-0.33c0.936,0,1.651,0.291,2.146,0.872c0.495,0.582,0.743,1.424,0.743,2.528V32.057z"/>
		<path d="M90.11,32.233c-1.165,0-2.012-0.236-2.542-0.707c-0.531-0.472-0.796-1.243-0.796-2.314v-4.219h-1.094v-1.961h1.094v-2.58
			h2.857v2.58h2.75v1.961h-2.75v3.198c0,0.316,0.002,0.592,0.008,0.828c0.005,0.235,0.049,0.447,0.131,0.635
			c0.076,0.188,0.211,0.336,0.404,0.446c0.193,0.11,0.475,0.165,0.845,0.165c0.152,0,0.353-0.032,0.6-0.097s0.42-0.123,0.518-0.177
			h0.245v1.985c-0.31,0.081-0.64,0.144-0.988,0.189S90.616,32.233,90.11,32.233z"/>
	</g>
	
		<line fill="none" stroke="#800000" stroke-width="0.7559" stroke-linecap="square" stroke-miterlimit="10" x1="8" y1="42.53" x2="128.052" y2="42.53"/>
	<g>
		<path d="M26.479,73.853h-4.122v4.058h-1.355v-4.058H16.88v-1.286h4.122v-4.059h1.355v4.059h4.122V73.853z"/>
		<path d="M36.371,73.965c0,1.511-0.37,2.678-1.11,3.5c-0.74,0.822-1.725,1.233-2.955,1.233c-1.268,0-2.265-0.424-2.992-1.274
			c-0.726-0.849-1.089-2.002-1.089-3.459c0-1.5,0.374-2.666,1.122-3.496c0.748-0.83,1.734-1.246,2.959-1.246
			c1.229,0,2.214,0.414,2.955,1.242C36.001,71.292,36.371,72.459,36.371,73.965z M34.788,73.965c0-1.163-0.215-2.026-0.645-2.592
			s-1.042-0.848-1.836-0.848c-0.8,0-1.416,0.282-1.849,0.848s-0.649,1.429-0.649,2.592c0,1.125,0.216,1.979,0.649,2.56
			c0.433,0.582,1.049,0.872,1.849,0.872c0.789,0,1.4-0.285,1.833-0.856S34.788,75.111,34.788,73.965z"/>
		<path d="M45.628,73.724c0,1.495-0.363,2.686-1.089,3.572c-0.727,0.887-1.645,1.33-2.755,1.33c-0.452,0-0.852-0.051-1.2-0.153
			c-0.348-0.102-0.705-0.26-1.069-0.474v3.761H37.98V69.472h1.535v0.94c0.381-0.337,0.804-0.62,1.269-0.848
			c0.465-0.228,0.973-0.342,1.522-0.342c1.045,0,1.859,0.407,2.444,1.222S45.628,72.352,45.628,73.724z M44.044,73.893
			c0-1.023-0.166-1.817-0.498-2.383c-0.332-0.565-0.871-0.848-1.616-0.848c-0.436,0-0.856,0.095-1.261,0.286
			c-0.405,0.19-0.791,0.435-1.155,0.735v5.087c0.403,0.193,0.747,0.324,1.033,0.394c0.286,0.069,0.613,0.104,0.983,0.104
			c0.794,0,1.412-0.287,1.853-0.86C43.824,75.834,44.044,74.996,44.044,73.893z"/>
		<path d="M51.062,78.658c-1.453,0-2.581-0.403-3.383-1.209s-1.204-1.952-1.204-3.436c0-1.463,0.389-2.627,1.167-3.492
			c0.778-0.865,1.795-1.298,3.052-1.298c0.566,0,1.067,0.081,1.502,0.241c0.436,0.161,0.816,0.413,1.143,0.755
			c0.327,0.343,0.577,0.762,0.751,1.258c0.174,0.496,0.261,1.103,0.261,1.82v0.82h-6.317c0,1.044,0.267,1.843,0.8,2.395
			c0.533,0.552,1.271,0.828,2.212,0.828c0.337,0,0.668-0.038,0.992-0.113c0.324-0.075,0.616-0.171,0.877-0.289
			c0.278-0.124,0.512-0.243,0.702-0.358s0.348-0.224,0.473-0.325h0.09v1.647c-0.18,0.07-0.403,0.157-0.669,0.261
			c-0.267,0.104-0.506,0.186-0.719,0.245c-0.299,0.08-0.57,0.142-0.812,0.185S51.431,78.658,51.062,78.658z M52.857,72.96
			c-0.011-0.407-0.06-0.758-0.147-1.053c-0.087-0.294-0.212-0.543-0.375-0.747c-0.179-0.225-0.409-0.396-0.689-0.515
			c-0.28-0.118-0.627-0.177-1.041-0.177c-0.408,0-0.755,0.061-1.041,0.181s-0.545,0.296-0.779,0.526
			c-0.229,0.236-0.403,0.497-0.522,0.783c-0.12,0.287-0.196,0.621-0.229,1.001H52.857z"/>
		<path d="M61.051,71.096h-0.082c-0.114-0.032-0.235-0.052-0.363-0.06c-0.128-0.008-0.281-0.012-0.461-0.012
			c-0.414,0-0.825,0.088-1.232,0.265c-0.408,0.177-0.795,0.439-1.159,0.788v6.373h-1.535v-8.977h1.535v1.334
			c0.561-0.488,1.049-0.832,1.465-1.033c0.416-0.201,0.82-0.302,1.212-0.302c0.158,0,0.276,0.004,0.355,0.012
			c0.079,0.008,0.167,0.02,0.265,0.036V71.096z"/>
		<path d="M67.386,77.493c-0.125,0.091-0.292,0.219-0.502,0.382c-0.209,0.164-0.412,0.293-0.608,0.39
			c-0.272,0.14-0.535,0.247-0.788,0.322c-0.253,0.075-0.608,0.112-1.065,0.112c-0.375,0-0.732-0.07-1.069-0.209
			s-0.634-0.334-0.89-0.586c-0.245-0.247-0.44-0.551-0.587-0.912c-0.147-0.362-0.22-0.744-0.22-1.146c0-0.621,0.133-1.15,0.4-1.587
			c0.267-0.437,0.688-0.784,1.265-1.041c0.511-0.23,1.115-0.39,1.812-0.478c0.696-0.088,1.447-0.154,2.252-0.197v-0.29
			c0-0.354-0.054-0.639-0.163-0.856c-0.109-0.217-0.261-0.384-0.457-0.502c-0.196-0.124-0.436-0.205-0.718-0.245
			c-0.283-0.041-0.574-0.061-0.874-0.061c-0.354,0-0.77,0.052-1.249,0.157c-0.479,0.104-0.958,0.256-1.437,0.454h-0.09v-1.535
			c0.283-0.08,0.688-0.168,1.216-0.265c0.528-0.096,1.05-0.145,1.567-0.145c0.625,0,1.153,0.048,1.583,0.145
			c0.43,0.097,0.816,0.271,1.159,0.522c0.332,0.247,0.58,0.565,0.743,0.957c0.163,0.391,0.245,0.868,0.245,1.43v6.14h-1.526V77.493z
			 M67.386,76.239v-2.491c-0.365,0.032-0.826,0.076-1.383,0.132c-0.558,0.056-1.008,0.135-1.351,0.237
			c-0.408,0.123-0.746,0.312-1.012,0.566c-0.267,0.254-0.4,0.609-0.4,1.065c0,0.514,0.147,0.903,0.441,1.165
			c0.294,0.263,0.724,0.394,1.29,0.394c0.484,0,0.922-0.103,1.314-0.31C66.676,76.792,67.043,76.539,67.386,76.239z"/>
		<path d="M74.16,78.626c-0.838,0-1.491-0.234-1.958-0.703c-0.468-0.469-0.702-1.209-0.702-2.222v-4.975h-1.037v-1.254H71.5v-2.58
			h1.535v2.58h2.824v1.254h-2.824v4.268c0,0.455,0.008,0.806,0.024,1.053c0.016,0.247,0.079,0.477,0.188,0.691
			c0.093,0.188,0.242,0.328,0.449,0.422c0.207,0.094,0.487,0.141,0.84,0.141c0.25,0,0.493-0.036,0.727-0.108
			s0.403-0.132,0.506-0.181h0.09v1.358c-0.288,0.081-0.581,0.144-0.877,0.189C74.684,78.603,74.411,78.626,74.16,78.626z"/>
		<path d="M79.15,67.97h-1.747v-1.567h1.747V67.97z M79.044,78.449H77.51v-8.977h1.535V78.449z"/>
		<path d="M88.029,73.965c0,1.511-0.37,2.678-1.11,3.5c-0.74,0.822-1.725,1.233-2.955,1.233c-1.268,0-2.265-0.424-2.992-1.274
			c-0.726-0.849-1.089-2.002-1.089-3.459c0-1.5,0.374-2.666,1.122-3.496c0.748-0.83,1.734-1.246,2.959-1.246
			c1.229,0,2.214,0.414,2.955,1.242C87.659,71.292,88.029,72.459,88.029,73.965z M86.446,73.965c0-1.163-0.215-2.026-0.645-2.592
			s-1.042-0.848-1.836-0.848c-0.8,0-1.416,0.282-1.849,0.848s-0.649,1.429-0.649,2.592c0,1.125,0.216,1.979,0.649,2.56
			c0.433,0.582,1.049,0.872,1.849,0.872c0.789,0,1.4-0.285,1.833-0.856S86.446,75.111,86.446,73.965z"/>
		<path d="M96.804,78.449H95.27v-5.111c0-0.413-0.02-0.797-0.061-1.153c-0.041-0.356-0.118-0.642-0.232-0.856
			c-0.125-0.225-0.299-0.392-0.522-0.502s-0.528-0.165-0.914-0.165c-0.381,0-0.774,0.101-1.18,0.302
			c-0.405,0.201-0.801,0.462-1.188,0.783v6.703h-1.535v-8.977h1.535v0.997c0.457-0.402,0.909-0.709,1.355-0.924
			s0.917-0.322,1.412-0.322c0.898,0,1.6,0.291,2.106,0.872c0.506,0.582,0.759,1.424,0.759,2.527V78.449z"/>
		<path d="M103.443,81.76h-1.869c-0.947-1.109-1.691-2.282-2.232-3.52c-0.542-1.238-0.813-2.7-0.813-4.388
			c0-1.65,0.268-3.104,0.804-4.36c0.536-1.256,1.283-2.439,2.24-3.548h1.869v0.081c-0.44,0.391-0.861,0.842-1.261,1.354
			s-0.771,1.108-1.114,1.788c-0.327,0.659-0.592,1.385-0.796,2.178c-0.204,0.793-0.306,1.629-0.306,2.508
			c0,0.916,0.1,1.754,0.298,2.515c0.198,0.761,0.466,1.484,0.804,2.17c0.327,0.659,0.699,1.255,1.118,1.788s0.838,0.984,1.257,1.354
			V81.76z"/>
		<path d="M109.248,73.853c0,1.655-0.27,3.11-0.808,4.364c-0.539,1.253-1.284,2.435-2.236,3.544h-1.869V81.68
			c0.419-0.37,0.841-0.824,1.265-1.362c0.424-0.539,0.794-1.132,1.11-1.78c0.337-0.691,0.605-1.421,0.804-2.19
			c0.199-0.769,0.298-1.601,0.298-2.495c0-0.884-0.101-1.72-0.302-2.508c-0.202-0.788-0.468-1.513-0.8-2.178
			c-0.332-0.664-0.707-1.262-1.126-1.792c-0.419-0.531-0.835-0.98-1.249-1.35v-0.081h1.869c0.947,1.109,1.691,2.288,2.232,3.536
			S109.248,72.186,109.248,73.853z"/>
	</g>
	
		<line fill="none" stroke="#800000" stroke-width="0.7559" stroke-linecap="square" stroke-miterlimit="10" x1="8" y1="55.996" x2="128.052" y2="55.996"/>
	
		<rect x="343.843" y="9.612" fill-rule="evenodd" clip-rule="evenodd" fill="#FFFFB9" stroke="#800000" stroke-width="0.7559" stroke-linecap="square" stroke-miterlimit="10" width="118.532" height="80.798"/>
	<g>
		<path stroke="#000000" stroke-width="0.2376" stroke-miterlimit="10" d="M372.279,23.689c-0.176,0.52-0.436,1.012-0.781,1.475
			c-0.344,0.463-0.738,0.858-1.181,1.185c-0.557,0.407-1.153,0.715-1.79,0.924c-0.637,0.209-1.388,0.313-2.253,0.313h-1.371
			l-1.51,4.46h-1.616l4.051-11.966h3.053c0.719,0,1.311,0.059,1.777,0.177c0.466,0.118,0.848,0.308,1.145,0.57
			c0.35,0.306,0.571,0.693,0.668,1.162C372.568,22.459,372.505,23.025,372.279,23.689z M370.584,23.73
			c0.141-0.413,0.189-0.771,0.148-1.078c-0.04-0.305-0.176-0.554-0.403-0.747c-0.2-0.166-0.458-0.284-0.774-0.354
			s-0.728-0.104-1.233-0.104h-1.339l-1.619,4.782h1.102c0.653,0,1.198-0.053,1.637-0.157s0.836-0.291,1.193-0.559
			c0.32-0.241,0.584-0.503,0.789-0.788C370.289,24.442,370.456,24.11,370.584,23.73z"/>
		<path stroke="#000000" stroke-width="0.2376" stroke-miterlimit="10" d="M379.612,24.694h-0.082
			c-0.103-0.032-0.218-0.052-0.343-0.06s-0.277-0.012-0.457-0.012c-0.414,0-0.854,0.089-1.322,0.266
			c-0.468,0.177-0.943,0.439-1.426,0.787l-2.157,6.373h-1.534l3.039-8.977h1.534l-0.451,1.334c0.726-0.487,1.33-0.832,1.813-1.032
			c0.485-0.201,0.923-0.302,1.314-0.302c0.158,0,0.275,0.005,0.352,0.012c0.076,0.008,0.16,0.021,0.254,0.036L379.612,24.694z"/>
		<path stroke="#000000" stroke-width="0.2376" stroke-miterlimit="10" d="M388.904,27.563c-0.511,1.51-1.276,2.678-2.295,3.5
			s-2.142,1.233-3.372,1.233c-1.268,0-2.121-0.424-2.561-1.273c-0.438-0.85-0.412-2.002,0.081-3.459
			c0.509-1.5,1.277-2.666,2.307-3.496c1.029-0.831,2.156-1.246,3.38-1.246c1.23,0,2.075,0.414,2.535,1.241
			C389.439,24.891,389.415,26.057,388.904,27.563z M387.32,27.563c0.395-1.163,0.472-2.027,0.233-2.592
			c-0.238-0.565-0.755-0.848-1.55-0.848c-0.8,0-1.512,0.283-2.136,0.848c-0.624,0.565-1.132,1.429-1.526,2.592
			c-0.38,1.125-0.453,1.979-0.218,2.559c0.235,0.582,0.754,0.873,1.554,0.873c0.789,0,1.497-0.286,2.123-0.856
			C386.426,29.569,386.933,28.71,387.32,27.563z"/>
		<path stroke="#000000" stroke-width="0.2376" stroke-miterlimit="10" d="M393.216,32.224c-0.838,0-1.412-0.234-1.722-0.703
			c-0.309-0.469-0.292-1.21,0.051-2.222l1.684-4.975h-1.036l0.425-1.254h1.036l0.874-2.58h1.533l-0.873,2.58h2.824l-0.425,1.254
			h-2.824l-1.444,4.267c-0.154,0.455-0.264,0.807-0.332,1.053c-0.066,0.247-0.082,0.477-0.045,0.691
			c0.027,0.188,0.13,0.328,0.305,0.423c0.176,0.093,0.439,0.141,0.793,0.141c0.25,0,0.505-0.037,0.764-0.109s0.447-0.132,0.567-0.18
			h0.09L395,31.967c-0.315,0.08-0.63,0.143-0.941,0.188S393.466,32.224,393.216,32.224z"/>
		<path stroke="#000000" stroke-width="0.2376" stroke-miterlimit="10" d="M407.133,27.563c-0.511,1.51-1.276,2.678-2.295,3.5
			s-2.142,1.233-3.372,1.233c-1.268,0-2.121-0.424-2.561-1.273c-0.438-0.85-0.412-2.002,0.081-3.459
			c0.509-1.5,1.277-2.666,2.307-3.496c1.029-0.831,2.156-1.246,3.38-1.246c1.23,0,2.075,0.414,2.535,1.241
			C407.668,24.891,407.644,26.057,407.133,27.563z M405.549,27.563c0.395-1.163,0.472-2.027,0.233-2.592
			c-0.238-0.565-0.755-0.848-1.55-0.848c-0.8,0-1.512,0.283-2.136,0.848c-0.624,0.565-1.132,1.429-1.526,2.592
			c-0.38,1.125-0.453,1.979-0.218,2.559c0.235,0.582,0.754,0.873,1.554,0.873c0.789,0,1.497-0.286,2.123-0.856
			C404.654,29.569,405.161,28.71,405.549,27.563z"/>
		<path stroke="#000000" stroke-width="0.2376" stroke-miterlimit="10" d="M411.444,32.224c-0.838,0-1.412-0.234-1.722-0.703
			c-0.309-0.469-0.292-1.21,0.051-2.222l1.684-4.975h-1.036l0.425-1.254h1.036l0.874-2.58h1.533l-0.873,2.58h2.824l-0.425,1.254
			h-2.824l-1.444,4.267c-0.154,0.455-0.264,0.807-0.332,1.053c-0.066,0.247-0.082,0.477-0.045,0.691
			c0.027,0.188,0.13,0.328,0.305,0.423c0.176,0.093,0.439,0.141,0.793,0.141c0.25,0,0.505-0.037,0.764-0.109s0.447-0.132,0.567-0.18
			h0.09l-0.46,1.358c-0.315,0.08-0.63,0.143-0.941,0.188S411.694,32.224,411.444,32.224z"/>
		<path stroke="#000000" stroke-width="0.2376" stroke-miterlimit="10" d="M426.547,23.07l-9.065,12.289h-1.641l2.901-3.745
			l-0.423-8.543h1.657l0.239,6.646l4.731-6.646H426.547z"/>
		<path stroke="#000000" stroke-width="0.2376" stroke-miterlimit="10" d="M436.222,27.322c-0.506,1.495-1.272,2.686-2.299,3.572
			c-1.026,0.887-2.095,1.33-3.204,1.33c-0.452,0-0.836-0.051-1.148-0.152c-0.314-0.102-0.617-0.26-0.909-0.475l-1.273,3.762h-1.534
			l4.16-12.289h1.534l-0.318,0.941c0.495-0.337,1.014-0.621,1.557-0.848c0.542-0.228,1.088-0.341,1.637-0.341
			c1.045,0,1.723,0.407,2.032,1.221C436.764,24.857,436.686,25.951,436.222,27.322z M434.582,27.491
			c0.346-1.024,0.449-1.818,0.309-2.383c-0.141-0.565-0.584-0.848-1.329-0.848c-0.436,0-0.888,0.095-1.358,0.286
			c-0.469,0.189-0.938,0.435-1.403,0.734l-1.723,5.087c0.337,0.193,0.638,0.325,0.899,0.394c0.263,0.069,0.578,0.104,0.947,0.104
			c0.795,0,1.51-0.287,2.146-0.86C433.703,29.433,434.208,28.595,434.582,27.491z"/>
		<path stroke="#000000" stroke-width="0.2376" stroke-miterlimit="10" d="M441.488,32.257c-1.451,0-2.443-0.403-2.973-1.21
			c-0.53-0.806-0.544-1.951-0.041-3.436c0.495-1.462,1.277-2.626,2.35-3.492c1.07-0.865,2.234-1.298,3.491-1.298
			c0.566,0,1.04,0.081,1.421,0.241c0.381,0.16,0.676,0.413,0.887,0.755c0.211,0.343,0.319,0.762,0.325,1.258
			c0.006,0.496-0.111,1.103-0.354,1.82l-0.277,0.819h-6.317c-0.354,1.045-0.358,1.844-0.011,2.395
			c0.346,0.552,0.99,0.828,1.932,0.828c0.336,0,0.68-0.037,1.029-0.113c0.35-0.075,0.674-0.171,0.976-0.289
			c0.319-0.124,0.593-0.242,0.822-0.358s0.424-0.224,0.584-0.326h0.09l-0.558,1.647c-0.204,0.07-0.456,0.157-0.758,0.262
			c-0.303,0.104-0.569,0.186-0.802,0.245c-0.326,0.08-0.618,0.142-0.874,0.184C442.173,32.235,441.859,32.257,441.488,32.257z
			 M445.214,26.559c0.127-0.407,0.197-0.758,0.21-1.053c0.012-0.295-0.029-0.544-0.123-0.747c-0.104-0.226-0.275-0.397-0.516-0.515
			c-0.24-0.118-0.566-0.176-0.98-0.176c-0.408,0-0.775,0.06-1.102,0.18c-0.327,0.12-0.646,0.296-0.959,0.526
			c-0.308,0.236-0.57,0.497-0.786,0.783c-0.218,0.287-0.406,0.621-0.567,1.001H445.214z"/>
	</g>
	
		<line fill="none" stroke="#800000" stroke-width="0.7559" stroke-linecap="square" stroke-miterlimit="10" x1="343.843" y1="42.53" x2="463.895" y2="42.53"/>
	<g>
		<path d="M363.869,73.824h-4.121l-1.375,4.059h-1.354l1.373-4.059h-4.121l0.435-1.286h4.122l1.374-4.058h1.354l-1.374,4.058h4.122
			L363.869,73.824z"/>
		<path d="M368.261,78.622c-0.626,0-1.168-0.095-1.626-0.285c-0.458-0.19-0.809-0.478-1.055-0.864
			c-0.244-0.386-0.371-0.873-0.379-1.459s0.122-1.276,0.391-2.069c0.267-0.788,0.604-1.468,1.013-2.042
			c0.409-0.574,0.859-1.056,1.352-1.447c0.491-0.391,1.041-0.693,1.648-0.904c0.608-0.212,1.219-0.318,1.834-0.318
			c0.5,0,0.96,0.07,1.378,0.209c0.418,0.14,0.778,0.3,1.082,0.482l-0.574,1.696h-0.09c-0.078-0.092-0.183-0.196-0.314-0.313
			c-0.132-0.118-0.299-0.239-0.502-0.362c-0.176-0.107-0.396-0.201-0.656-0.281s-0.524-0.12-0.791-0.12
			c-0.795,0-1.533,0.296-2.215,0.888c-0.682,0.592-1.206,1.429-1.572,2.512c-0.359,1.06-0.407,1.887-0.142,2.479
			c0.265,0.592,0.811,0.888,1.638,0.888c0.5,0,1.012-0.102,1.531-0.305c0.521-0.204,1.01-0.466,1.467-0.788h0.09l-0.574,1.696
			c-0.176,0.069-0.395,0.154-0.656,0.253c-0.263,0.1-0.494,0.173-0.695,0.221c-0.287,0.075-0.541,0.133-0.761,0.173
			C368.86,78.602,368.587,78.622,368.261,78.622z"/>
		<path d="M373.885,78.421h-1.534l4.233-12.505h1.534L373.885,78.421z"/>
		<path d="M384.389,73.937c-0.512,1.51-1.277,2.678-2.296,3.5s-2.142,1.233-3.372,1.233c-1.268,0-2.121-0.424-2.561-1.273
			s-0.412-2.002,0.082-3.459c0.508-1.5,1.275-2.666,2.306-3.496c1.029-0.831,2.156-1.246,3.38-1.246c1.23,0,2.075,0.414,2.535,1.241
			C384.923,71.265,384.898,72.431,384.389,73.937z M382.805,73.937c0.393-1.163,0.471-2.027,0.232-2.592
			c-0.238-0.565-0.755-0.849-1.55-0.849c-0.8,0-1.512,0.283-2.136,0.849c-0.624,0.565-1.133,1.429-1.525,2.592
			c-0.381,1.125-0.455,1.979-0.219,2.559c0.236,0.582,0.754,0.873,1.554,0.873c0.789,0,1.497-0.286,2.122-0.855
			C381.909,75.942,382.416,75.084,382.805,73.937z"/>
		<path d="M391.646,78.421h-1.534l1.73-5.112c0.14-0.413,0.249-0.796,0.328-1.152c0.08-0.357,0.1-0.642,0.058-0.856
			c-0.049-0.225-0.167-0.393-0.353-0.502c-0.187-0.109-0.473-0.165-0.857-0.165c-0.381,0-0.809,0.101-1.282,0.301
			s-0.957,0.462-1.453,0.784l-2.269,6.703h-1.534l3.039-8.977h1.534l-0.338,0.997c0.594-0.402,1.148-0.71,1.668-0.925
			c0.519-0.213,1.025-0.321,1.521-0.321c0.898,0,1.503,0.291,1.812,0.872c0.309,0.581,0.276,1.424-0.097,2.527L391.646,78.421z"/>
		<path d="M397.486,78.63c-1.452,0-2.443-0.403-2.973-1.21c-0.53-0.806-0.544-1.951-0.041-3.436
			c0.495-1.462,1.277-2.626,2.349-3.492c1.071-0.865,2.235-1.298,3.492-1.298c0.566,0,1.039,0.081,1.421,0.241
			c0.381,0.16,0.676,0.413,0.887,0.755c0.211,0.343,0.318,0.762,0.325,1.258c0.006,0.496-0.112,1.103-0.354,1.82l-0.277,0.819
			h-6.318c-0.354,1.045-0.357,1.844-0.011,2.395c0.347,0.552,0.99,0.828,1.932,0.828c0.337,0,0.681-0.037,1.03-0.113
			c0.35-0.075,0.674-0.171,0.975-0.289c0.32-0.124,0.594-0.242,0.822-0.358c0.23-0.116,0.425-0.224,0.584-0.326h0.09l-0.558,1.647
			c-0.203,0.07-0.455,0.157-0.757,0.262c-0.303,0.104-0.569,0.186-0.803,0.245c-0.325,0.08-0.617,0.142-0.873,0.184
			C398.171,78.609,397.856,78.63,397.486,78.63z M401.212,72.932c0.127-0.407,0.196-0.758,0.21-1.052
			c0.012-0.295-0.029-0.544-0.123-0.748c-0.104-0.226-0.275-0.397-0.516-0.514c-0.24-0.119-0.567-0.177-0.981-0.177
			c-0.408,0-0.775,0.06-1.101,0.18c-0.327,0.12-0.646,0.296-0.959,0.526c-0.309,0.236-0.57,0.497-0.787,0.784
			c-0.217,0.287-0.406,0.621-0.566,1H401.212z"/>
		<path d="M406.279,81.733h-1.869c-0.571-1.109-0.918-2.283-1.041-3.521c-0.122-1.237,0.103-2.7,0.674-4.388
			c0.559-1.65,1.318-3.104,2.28-4.36c0.961-1.256,2.108-2.439,3.441-3.548h1.869l-0.027,0.081c-0.573,0.392-1.146,0.843-1.72,1.354
			c-0.573,0.511-1.146,1.108-1.719,1.788c-0.55,0.66-1.061,1.385-1.533,2.179c-0.473,0.792-0.857,1.628-1.154,2.507
			c-0.311,0.917-0.496,1.754-0.555,2.516c-0.059,0.76-0.036,1.484,0.069,2.17c0.104,0.659,0.274,1.254,0.513,1.788
			c0.238,0.533,0.505,0.984,0.799,1.354L406.279,81.733z"/>
		<path d="M414.762,73.824c-0.561,1.655-1.323,3.11-2.285,4.364c-0.964,1.253-2.109,2.436-3.438,3.545h-1.869l0.027-0.081
			c0.544-0.37,1.119-0.824,1.727-1.363c0.607-0.538,1.178-1.132,1.713-1.78c0.571-0.692,1.086-1.421,1.545-2.19
			c0.459-0.769,0.84-1.601,1.143-2.496c0.3-0.884,0.482-1.72,0.547-2.507c0.066-0.788,0.045-1.514-0.062-2.179
			c-0.107-0.664-0.281-1.261-0.521-1.792c-0.239-0.531-0.503-0.98-0.792-1.351l0.027-0.081h1.869
			c0.571,1.109,0.917,2.288,1.035,3.537C415.548,70.701,415.325,72.158,414.762,73.824z"/>
	</g>
	
		<line fill="none" stroke="#800000" stroke-width="0.7559" stroke-linecap="square" stroke-miterlimit="10" x1="343.843" y1="55.996" x2="463.895" y2="55.996"/>
	
		<rect x="425.902" y="177.193" fill-rule="evenodd" clip-rule="evenodd" fill="#FFFFB9" stroke="#800000" stroke-width="0.7559" stroke-linecap="square" stroke-miterlimit="10" width="176.279" height="80.799"/>
	<g>
		<path d="M444.117,191.454c0,0.558-0.089,1.088-0.269,1.591c-0.18,0.504-0.438,0.924-0.775,1.262
			c-0.207,0.209-0.435,0.402-0.682,0.579c-0.248,0.177-0.521,0.327-0.82,0.45c-0.3,0.124-0.625,0.22-0.976,0.29
			c-0.351,0.069-0.744,0.104-1.18,0.104h-1.6v3.914h-3.053v-11.966h4.718c0.702,0,1.308,0.063,1.816,0.188
			c0.509,0.126,0.97,0.326,1.383,0.599c0.457,0.3,0.812,0.7,1.062,1.201S444.117,190.763,444.117,191.454z M440.983,191.526
			c0-0.337-0.082-0.628-0.245-0.872s-0.359-0.411-0.588-0.502c-0.288-0.123-0.564-0.194-0.828-0.213s-0.622-0.028-1.073-0.028
			h-0.433v3.584h0.212c0.289,0,0.561-0.002,0.816-0.008c0.256-0.005,0.479-0.024,0.67-0.056c0.163-0.027,0.336-0.079,0.518-0.157
			c0.183-0.078,0.322-0.165,0.421-0.261c0.206-0.198,0.347-0.404,0.42-0.619S440.983,191.891,440.983,191.526z"/>
		<path d="M451.407,193.279h-0.236c-0.109-0.038-0.268-0.066-0.474-0.084c-0.207-0.019-0.436-0.028-0.686-0.028
			c-0.3,0-0.614,0.043-0.943,0.128c-0.329,0.086-0.648,0.188-0.959,0.306v6.043h-2.856v-9.025h2.856v1.294
			c0.131-0.118,0.312-0.267,0.543-0.446c0.231-0.179,0.442-0.323,0.633-0.43c0.207-0.124,0.447-0.229,0.723-0.318
			c0.274-0.088,0.534-0.132,0.779-0.132c0.092,0,0.195,0.002,0.31,0.008s0.218,0.014,0.311,0.024V193.279z"/>
		<path d="M461.634,195.135c0,1.484-0.412,2.653-1.236,3.508s-1.99,1.282-3.498,1.282c-1.496,0-2.659-0.427-3.489-1.282
			s-1.244-2.024-1.244-3.508c0-1.5,0.414-2.675,1.244-3.524c0.83-0.849,1.993-1.273,3.489-1.273c1.502,0,2.666,0.427,3.494,1.282
			C461.22,192.474,461.634,193.646,461.634,195.135z M458.703,195.151c0-0.536-0.045-0.981-0.134-1.338
			c-0.09-0.356-0.214-0.642-0.372-0.856c-0.169-0.225-0.359-0.382-0.571-0.47s-0.454-0.132-0.727-0.132
			c-0.256,0-0.486,0.039-0.693,0.116c-0.207,0.078-0.397,0.227-0.571,0.446c-0.163,0.209-0.294,0.496-0.392,0.86
			c-0.099,0.364-0.147,0.822-0.147,1.374c0,0.552,0.046,0.998,0.139,1.338s0.213,0.612,0.359,0.815
			c0.152,0.209,0.343,0.362,0.571,0.458c0.229,0.096,0.481,0.145,0.759,0.145c0.229,0,0.462-0.048,0.698-0.145
			c0.236-0.097,0.426-0.241,0.567-0.434c0.168-0.23,0.296-0.508,0.384-0.832C458.66,196.173,458.703,195.725,458.703,195.151z"/>
		<path d="M466.979,199.82c-1.165,0-2.012-0.236-2.543-0.707c-0.53-0.472-0.796-1.243-0.796-2.314v-4.219h-1.093v-1.961h1.093v-2.58
			h2.857v2.58h2.75v1.961h-2.75v3.198c0,0.316,0.003,0.592,0.008,0.828c0.006,0.235,0.049,0.447,0.131,0.635
			c0.076,0.188,0.211,0.336,0.404,0.446c0.192,0.11,0.475,0.165,0.845,0.165c0.152,0,0.352-0.032,0.6-0.097
			c0.247-0.064,0.42-0.123,0.519-0.177h0.244v1.985c-0.31,0.081-0.639,0.144-0.987,0.189S467.485,199.82,466.979,199.82z"/>
		<path d="M479.866,195.135c0,1.484-0.412,2.653-1.236,3.508s-1.99,1.282-3.498,1.282c-1.496,0-2.659-0.427-3.489-1.282
			s-1.244-2.024-1.244-3.508c0-1.5,0.414-2.675,1.244-3.524c0.83-0.849,1.993-1.273,3.489-1.273c1.502,0,2.666,0.427,3.494,1.282
			C479.452,192.474,479.866,193.646,479.866,195.135z M476.936,195.151c0-0.536-0.045-0.981-0.134-1.338
			c-0.09-0.356-0.214-0.642-0.372-0.856c-0.169-0.225-0.359-0.382-0.571-0.47s-0.454-0.132-0.727-0.132
			c-0.256,0-0.486,0.039-0.693,0.116c-0.207,0.078-0.397,0.227-0.571,0.446c-0.163,0.209-0.294,0.496-0.392,0.86
			c-0.099,0.364-0.147,0.822-0.147,1.374c0,0.552,0.046,0.998,0.139,1.338s0.213,0.612,0.359,0.815
			c0.152,0.209,0.343,0.362,0.571,0.458c0.229,0.096,0.481,0.145,0.759,0.145c0.229,0,0.462-0.048,0.698-0.145
			c0.236-0.097,0.426-0.241,0.567-0.434c0.168-0.23,0.296-0.508,0.384-0.832C476.893,196.173,476.936,195.725,476.936,195.151z"/>
		<path d="M485.212,199.82c-1.165,0-2.012-0.236-2.543-0.707c-0.53-0.472-0.796-1.243-0.796-2.314v-4.219h-1.093v-1.961h1.093v-2.58
			h2.857v2.58h2.75v1.961h-2.75v3.198c0,0.316,0.003,0.592,0.008,0.828c0.006,0.235,0.049,0.447,0.131,0.635
			c0.076,0.188,0.211,0.336,0.404,0.446c0.192,0.11,0.475,0.165,0.845,0.165c0.152,0,0.352-0.032,0.6-0.097
			c0.247-0.064,0.42-0.123,0.519-0.177h0.244v1.985c-0.31,0.081-0.639,0.144-0.987,0.189S485.718,199.82,485.212,199.82z"/>
		<path d="M497.854,190.619l-4.628,12.336h-3.068l1.387-3.528l-3.362-8.808h3.004l1.926,5.658l1.804-5.658H497.854z"/>
		<path d="M508.912,195.006c0,1.441-0.371,2.604-1.114,3.488c-0.742,0.884-1.658,1.326-2.746,1.326
			c-0.457,0-0.854-0.051-1.191-0.153c-0.338-0.102-0.697-0.26-1.078-0.474v3.762h-2.856v-12.336h2.856v0.94
			c0.419-0.354,0.847-0.64,1.282-0.86c0.435-0.22,0.938-0.33,1.51-0.33c1.061,0,1.883,0.416,2.465,1.246
			C508.621,192.445,508.912,193.576,508.912,195.006z M505.99,195.063c0-0.878-0.138-1.516-0.412-1.913
			c-0.275-0.396-0.703-0.595-1.285-0.595c-0.256,0-0.511,0.041-0.764,0.121c-0.253,0.081-0.502,0.201-0.747,0.362v4.541
			c0.152,0.064,0.32,0.11,0.502,0.137c0.183,0.027,0.398,0.04,0.649,0.04c0.696,0,1.213-0.224,1.551-0.671
			C505.821,196.637,505.99,195.963,505.99,195.063z"/>
		<path d="M515.24,199.885c-1.73,0-3.057-0.407-3.979-1.222c-0.922-0.814-1.383-1.974-1.383-3.48c0-1.473,0.43-2.649,1.289-3.528
			c0.86-0.879,2.063-1.318,3.607-1.318c1.404,0,2.46,0.372,3.167,1.117c0.708,0.745,1.062,1.811,1.062,3.199v1.013h-6.261
			c0.027,0.418,0.117,0.768,0.27,1.049s0.354,0.505,0.604,0.671c0.244,0.166,0.53,0.285,0.856,0.357
			c0.327,0.073,0.683,0.109,1.069,0.109c0.332,0,0.658-0.036,0.979-0.109c0.321-0.072,0.615-0.167,0.882-0.285
			c0.233-0.102,0.45-0.211,0.648-0.33c0.199-0.118,0.36-0.222,0.485-0.313h0.303v2.323c-0.234,0.091-0.448,0.176-0.641,0.253
			c-0.193,0.078-0.459,0.156-0.796,0.237c-0.311,0.081-0.63,0.144-0.959,0.189C516.114,199.862,515.714,199.885,515.24,199.885z
			 M516.187,193.97c-0.016-0.595-0.156-1.047-0.42-1.358c-0.264-0.311-0.668-0.466-1.212-0.466c-0.556,0-0.989,0.164-1.302,0.49
			c-0.313,0.327-0.486,0.771-0.519,1.334H516.187z"/>
		<path d="M526.578,199.876c-1.823,0-3.271-0.542-4.342-1.627c-1.072-1.085-1.608-2.61-1.608-4.577c0-1.896,0.537-3.409,1.612-4.537
			c1.074-1.128,2.523-1.692,4.346-1.692c0.484,0,0.92,0.027,1.307,0.081c0.386,0.054,0.756,0.128,1.109,0.225
			c0.278,0.08,0.58,0.19,0.906,0.33c0.326,0.139,0.591,0.26,0.792,0.361v2.853h-0.311c-0.146-0.128-0.332-0.282-0.555-0.462
			c-0.224-0.18-0.477-0.355-0.759-0.526c-0.283-0.171-0.595-0.317-0.935-0.438c-0.341-0.121-0.695-0.181-1.065-0.181
			c-0.44,0-0.845,0.068-1.212,0.205s-0.718,0.374-1.049,0.711c-0.305,0.305-0.554,0.718-0.747,1.237
			c-0.193,0.52-0.29,1.133-0.29,1.84c0,0.745,0.101,1.371,0.302,1.877c0.202,0.506,0.466,0.915,0.792,1.226
			c0.315,0.3,0.668,0.517,1.058,0.651c0.389,0.134,0.776,0.201,1.163,0.201c0.402,0,0.786-0.065,1.15-0.197s0.672-0.277,0.922-0.438
			c0.272-0.166,0.512-0.335,0.719-0.506s0.387-0.324,0.539-0.458h0.277v2.813c-0.224,0.102-0.481,0.218-0.775,0.35
			s-0.596,0.242-0.906,0.333c-0.381,0.112-0.737,0.198-1.069,0.257S527.16,199.876,526.578,199.876z"/>
		<path d="M540.612,195.135c0,1.484-0.412,2.653-1.236,3.508s-1.99,1.282-3.498,1.282c-1.496,0-2.659-0.427-3.489-1.282
			s-1.244-2.024-1.244-3.508c0-1.5,0.414-2.675,1.244-3.524c0.83-0.849,1.993-1.273,3.489-1.273c1.502,0,2.666,0.427,3.494,1.282
			C540.198,192.474,540.612,193.646,540.612,195.135z M537.682,195.151c0-0.536-0.045-0.981-0.134-1.338
			c-0.09-0.356-0.214-0.642-0.372-0.856c-0.169-0.225-0.359-0.382-0.571-0.47s-0.454-0.132-0.727-0.132
			c-0.256,0-0.486,0.039-0.693,0.116c-0.207,0.078-0.397,0.227-0.571,0.446c-0.163,0.209-0.294,0.496-0.392,0.86
			c-0.099,0.364-0.147,0.822-0.147,1.374c0,0.552,0.046,0.998,0.139,1.338s0.213,0.612,0.359,0.815
			c0.152,0.209,0.343,0.362,0.571,0.458c0.229,0.096,0.481,0.145,0.759,0.145c0.229,0,0.462-0.048,0.698-0.145
			c0.236-0.097,0.426-0.241,0.567-0.434c0.168-0.23,0.296-0.508,0.384-0.832C537.639,196.173,537.682,195.725,537.682,195.151z"/>
		<path d="M551.035,199.644h-2.873v-4.477c0-0.364-0.016-0.727-0.045-1.089c-0.03-0.361-0.086-0.628-0.168-0.799
			c-0.098-0.204-0.239-0.35-0.424-0.438c-0.186-0.089-0.433-0.133-0.743-0.133c-0.234,0-0.471,0.043-0.71,0.128
			c-0.239,0.086-0.495,0.223-0.768,0.41v6.397h-2.856v-9.025h2.856v0.997c0.468-0.391,0.924-0.697,1.367-0.917
			s0.935-0.33,1.474-0.33c0.936,0,1.651,0.291,2.146,0.872c0.495,0.582,0.743,1.424,0.743,2.528V199.644z"/>
		<path d="M557.596,199.885c-0.756,0-1.448-0.094-2.077-0.281c-0.628-0.188-1.174-0.477-1.637-0.868
			c-0.457-0.391-0.813-0.883-1.069-1.475s-0.383-1.29-0.383-2.094c0-0.862,0.139-1.596,0.416-2.202s0.653-1.104,1.126-1.495
			c0.457-0.375,0.995-0.652,1.612-0.832s1.261-0.27,1.931-0.27c0.506,0,1.012,0.058,1.518,0.173s1.015,0.299,1.526,0.551v2.411
			h-0.367c-0.114-0.107-0.254-0.225-0.42-0.354c-0.166-0.128-0.348-0.246-0.543-0.354c-0.207-0.112-0.44-0.208-0.702-0.285
			c-0.261-0.078-0.553-0.117-0.873-0.117c-0.729,0-1.294,0.25-1.694,0.751c-0.399,0.501-0.6,1.175-0.6,2.021
			c0,0.906,0.214,1.581,0.641,2.025c0.428,0.445,0.995,0.667,1.702,0.667c0.359,0,0.675-0.04,0.946-0.121
			c0.272-0.08,0.507-0.177,0.702-0.289c0.19-0.113,0.354-0.229,0.49-0.35c0.136-0.121,0.253-0.229,0.351-0.326h0.367v2.411
			c-0.163,0.07-0.353,0.15-0.567,0.241c-0.215,0.091-0.434,0.166-0.656,0.225c-0.278,0.075-0.538,0.133-0.78,0.173
			C558.313,199.865,557.993,199.885,557.596,199.885z"/>
		<path d="M568.369,193.279h-0.236c-0.109-0.038-0.268-0.066-0.474-0.084c-0.207-0.019-0.436-0.028-0.686-0.028
			c-0.3,0-0.614,0.043-0.943,0.128c-0.329,0.086-0.648,0.188-0.959,0.306v6.043h-2.856v-9.025h2.856v1.294
			c0.131-0.118,0.312-0.267,0.543-0.446c0.231-0.179,0.442-0.323,0.633-0.43c0.207-0.124,0.447-0.229,0.723-0.318
			c0.274-0.088,0.534-0.132,0.779-0.132c0.092,0,0.195,0.002,0.31,0.008s0.218,0.014,0.311,0.024V193.279z"/>
		<path d="M574.49,199.885c-1.73,0-3.057-0.407-3.979-1.222c-0.922-0.814-1.383-1.974-1.383-3.48c0-1.473,0.43-2.649,1.289-3.528
			c0.86-0.879,2.063-1.318,3.607-1.318c1.404,0,2.46,0.372,3.167,1.117c0.708,0.745,1.062,1.811,1.062,3.199v1.013h-6.261
			c0.027,0.418,0.117,0.768,0.27,1.049s0.354,0.505,0.604,0.671c0.244,0.166,0.53,0.285,0.856,0.357
			c0.327,0.073,0.683,0.109,1.069,0.109c0.332,0,0.658-0.036,0.979-0.109c0.321-0.072,0.615-0.167,0.882-0.285
			c0.233-0.102,0.45-0.211,0.648-0.33c0.199-0.118,0.36-0.222,0.485-0.313h0.303v2.323c-0.234,0.091-0.448,0.176-0.641,0.253
			c-0.193,0.078-0.459,0.156-0.796,0.237c-0.311,0.081-0.63,0.144-0.959,0.189C575.364,199.862,574.964,199.885,574.49,199.885z
			 M575.437,193.97c-0.016-0.595-0.156-1.047-0.42-1.358c-0.264-0.311-0.668-0.466-1.212-0.466c-0.556,0-0.989,0.164-1.302,0.49
			c-0.313,0.327-0.486,0.771-0.519,1.334H575.437z"/>
		<path d="M583.935,199.82c-1.165,0-2.012-0.236-2.543-0.707c-0.53-0.472-0.796-1.243-0.796-2.314v-4.219h-1.093v-1.961h1.093v-2.58
			h2.857v2.58h2.75v1.961h-2.75v3.198c0,0.316,0.003,0.592,0.008,0.828c0.006,0.235,0.049,0.447,0.131,0.635
			c0.076,0.188,0.211,0.336,0.404,0.446c0.192,0.11,0.475,0.165,0.845,0.165c0.152,0,0.352-0.032,0.6-0.097
			c0.247-0.064,0.42-0.123,0.519-0.177h0.244v1.985c-0.31,0.081-0.639,0.144-0.987,0.189S584.44,199.82,583.935,199.82z"/>
		<path d="M597.091,199.644h-8.93v-1.953c0.756-0.589,1.436-1.146,2.036-1.671c0.602-0.525,1.131-1.023,1.588-1.495
			c0.593-0.616,1.023-1.157,1.29-1.624s0.399-0.946,0.399-1.438c0-0.557-0.169-0.984-0.506-1.282
			c-0.338-0.297-0.808-0.446-1.412-0.446c-0.311,0-0.603,0.038-0.877,0.113c-0.275,0.075-0.555,0.171-0.837,0.289
			c-0.277,0.124-0.515,0.249-0.71,0.378c-0.196,0.128-0.343,0.225-0.441,0.289h-0.236v-2.612c0.343-0.161,0.879-0.326,1.607-0.494
			c0.729-0.169,1.432-0.253,2.106-0.253c1.441,0,2.534,0.316,3.277,0.949c0.742,0.632,1.113,1.521,1.113,2.668
			c0,0.707-0.168,1.4-0.506,2.078c-0.337,0.678-0.897,1.405-1.681,2.182c-0.49,0.477-0.967,0.901-1.429,1.274
			c-0.463,0.373-0.797,0.636-1.004,0.792h5.15V199.644z"/>
	</g>
	
		<line fill="none" stroke="#800000" stroke-width="0.7559" stroke-linecap="square" stroke-miterlimit="10" x1="425.902" y1="210.111" x2="603.701" y2="210.111"/>
	<g>
		<path d="M444.387,241.424h-4.122v4.059h-1.354v-4.059h-4.122v-1.286h4.122v-4.059h1.354v4.059h4.122V241.424z"/>
		<path d="M450.402,246.222c-0.626,0-1.2-0.096-1.723-0.285c-0.522-0.19-0.971-0.479-1.347-0.864
			c-0.375-0.386-0.667-0.872-0.873-1.459c-0.207-0.586-0.311-1.276-0.311-2.069c0-0.787,0.107-1.468,0.322-2.041
			s0.502-1.056,0.861-1.446c0.359-0.392,0.807-0.692,1.343-0.904s1.111-0.317,1.727-0.317c0.5,0,0.983,0.069,1.448,0.209
			c0.466,0.139,0.88,0.3,1.245,0.481v1.696h-0.09c-0.109-0.091-0.249-0.195-0.421-0.313c-0.171-0.118-0.379-0.238-0.624-0.361
			c-0.212-0.107-0.463-0.201-0.751-0.281c-0.288-0.081-0.565-0.121-0.832-0.121c-0.795,0-1.433,0.296-1.914,0.888
			c-0.481,0.593-0.723,1.43-0.723,2.512c0,1.061,0.232,1.888,0.698,2.479c0.465,0.592,1.111,0.888,1.938,0.888
			c0.5,0,0.977-0.102,1.428-0.305c0.452-0.204,0.852-0.467,1.2-0.788h0.09v1.696c-0.152,0.069-0.343,0.153-0.571,0.253
			c-0.229,0.099-0.436,0.173-0.62,0.221c-0.262,0.075-0.496,0.133-0.702,0.173C450.995,246.201,450.729,246.222,450.402,246.222z"/>
		<path d="M455.958,246.021h-1.534v-12.505h1.534V246.021z"/>
		<path d="M464.943,241.536c0,1.511-0.37,2.678-1.11,3.5s-1.725,1.233-2.955,1.233c-1.268,0-2.265-0.425-2.991-1.273
			c-0.727-0.85-1.09-2.003-1.09-3.46c0-1.5,0.374-2.665,1.123-3.496c0.748-0.83,1.734-1.245,2.958-1.245
			c1.23,0,2.215,0.413,2.955,1.241S464.943,240.03,464.943,241.536z M463.359,241.536c0-1.162-0.215-2.026-0.645-2.592
			s-1.042-0.848-1.837-0.848c-0.8,0-1.416,0.282-1.849,0.848s-0.648,1.43-0.648,2.592c0,1.125,0.216,1.979,0.648,2.56
			s1.049,0.872,1.849,0.872c0.789,0,1.4-0.285,1.833-0.855C463.144,243.541,463.359,242.683,463.359,241.536z"/>
		<path d="M473.719,246.021h-1.534v-5.111c0-0.412-0.021-0.797-0.062-1.153s-0.118-0.642-0.232-0.855
			c-0.125-0.226-0.3-0.393-0.522-0.503c-0.224-0.109-0.528-0.164-0.914-0.164c-0.381,0-0.774,0.101-1.18,0.301
			c-0.405,0.201-0.801,0.462-1.188,0.784v6.702h-1.534v-8.977h1.534v0.996c0.457-0.401,0.908-0.71,1.354-0.924
			c0.446-0.215,0.917-0.321,1.412-0.321c0.898,0,1.601,0.29,2.106,0.871c0.506,0.582,0.759,1.425,0.759,2.528V246.021z"/>
		<path d="M479.631,246.229c-1.452,0-2.58-0.403-3.383-1.21c-0.803-0.806-1.204-1.951-1.204-3.436c0-1.462,0.389-2.626,1.167-3.491
			s1.796-1.298,3.053-1.298c0.566,0,1.066,0.08,1.502,0.24c0.436,0.161,0.816,0.413,1.143,0.756
			c0.327,0.343,0.577,0.763,0.751,1.258s0.262,1.103,0.262,1.82v0.819h-6.317c0,1.045,0.266,1.844,0.8,2.396
			c0.533,0.552,1.271,0.827,2.212,0.827c0.337,0,0.668-0.037,0.991-0.112c0.324-0.075,0.616-0.171,0.878-0.289
			c0.277-0.123,0.511-0.242,0.701-0.357s0.349-0.224,0.474-0.326h0.09v1.647c-0.18,0.07-0.402,0.157-0.669,0.262
			s-0.506,0.187-0.719,0.245c-0.299,0.08-0.57,0.142-0.812,0.185C480.308,246.208,480.001,246.229,479.631,246.229z
			 M481.427,240.531c-0.011-0.407-0.06-0.758-0.146-1.053c-0.088-0.294-0.213-0.544-0.376-0.747
			c-0.18-0.226-0.409-0.396-0.689-0.515c-0.28-0.117-0.627-0.177-1.041-0.177c-0.408,0-0.755,0.061-1.04,0.181
			c-0.286,0.121-0.546,0.297-0.78,0.526c-0.229,0.236-0.402,0.497-0.521,0.784c-0.12,0.286-0.196,0.62-0.229,1H481.427z"/>
		<path d="M489.474,249.332h-1.869c-0.946-1.109-1.69-2.283-2.232-3.521c-0.541-1.237-0.812-2.7-0.812-4.388
			c0-1.65,0.268-3.104,0.804-4.36c0.536-1.256,1.282-2.438,2.24-3.548h1.869v0.08c-0.44,0.392-0.861,0.843-1.261,1.354
			c-0.4,0.512-0.771,1.107-1.114,1.788c-0.326,0.659-0.592,1.385-0.796,2.178s-0.306,1.629-0.306,2.508
			c0,0.916,0.099,1.755,0.298,2.516c0.198,0.761,0.466,1.483,0.804,2.17c0.326,0.658,0.699,1.255,1.118,1.788
			c0.419,0.532,0.838,0.984,1.257,1.354V249.332z"/>
		<path d="M495.278,241.424c0,1.655-0.27,3.11-0.808,4.363c-0.539,1.254-1.284,2.436-2.237,3.545h-1.869v-0.081
			c0.419-0.369,0.841-0.823,1.266-1.362c0.425-0.538,0.794-1.132,1.11-1.779c0.337-0.691,0.604-1.422,0.804-2.19
			c0.198-0.769,0.298-1.601,0.298-2.495c0-0.884-0.101-1.72-0.302-2.508c-0.201-0.787-0.469-1.514-0.8-2.178
			c-0.332-0.664-0.708-1.262-1.127-1.792s-0.835-0.98-1.249-1.351v-0.08h1.869c0.947,1.109,1.691,2.288,2.232,3.536
			C495.008,238.3,495.278,239.758,495.278,241.424z"/>
	</g>
	
		<line fill="none" stroke="#800000" stroke-width="0.7559" stroke-linecap="square" stroke-miterlimit="10" x1="425.902" y1="223.578" x2="603.701" y2="223.578"/>
	
		<line fill="none" stroke="#800000" stroke-width="0.7559" stroke-linecap="square" stroke-miterlimit="10" x1="128.052" y1="53.004" x2="343.843" y2="53.004"/>
	<polyline fill="none" stroke="#800000" stroke-width="0.7559" stroke-linecap="square" stroke-miterlimit="10" points="
		328.645,58.989 343.843,53.004 328.645,47.019 	"/>
	<g>
		<path d="M266.579,34.944h-4.122v4.058h-1.355v-4.058h-4.122v-1.286h4.122V29.6h1.355v4.059h4.122V34.944z"/>
		<path d="M276.618,34.815c0,1.495-0.363,2.686-1.089,3.572c-0.727,0.887-1.645,1.33-2.755,1.33c-0.452,0-0.852-0.051-1.2-0.153
			c-0.348-0.102-0.705-0.26-1.069-0.474v3.761h-1.535V30.564h1.535v0.94c0.381-0.337,0.804-0.62,1.269-0.848
			c0.465-0.228,0.973-0.342,1.522-0.342c1.045,0,1.859,0.407,2.444,1.222S276.618,33.444,276.618,34.815z M275.034,34.984
			c0-1.023-0.166-1.817-0.498-2.383c-0.332-0.565-0.871-0.848-1.616-0.848c-0.436,0-0.856,0.095-1.261,0.286
			c-0.405,0.19-0.791,0.435-1.155,0.735v5.087c0.403,0.193,0.747,0.324,1.033,0.394c0.286,0.069,0.613,0.104,0.983,0.104
			c0.794,0,1.412-0.287,1.853-0.86C274.814,36.926,275.034,36.088,275.034,34.984z"/>
		<path d="M282.924,32.188h-0.082c-0.114-0.032-0.235-0.052-0.363-0.06c-0.128-0.008-0.281-0.012-0.461-0.012
			c-0.414,0-0.825,0.088-1.232,0.265c-0.408,0.177-0.795,0.439-1.159,0.788v6.373h-1.535v-8.977h1.535v1.334
			c0.561-0.488,1.049-0.832,1.465-1.033c0.416-0.201,0.82-0.302,1.212-0.302c0.158,0,0.276,0.004,0.355,0.012
			c0.079,0.008,0.167,0.02,0.265,0.036V32.188z"/>
		<path d="M291.667,35.057c0,1.511-0.37,2.678-1.11,3.5c-0.74,0.822-1.725,1.233-2.955,1.233c-1.268,0-2.265-0.424-2.992-1.274
			c-0.726-0.849-1.089-2.002-1.089-3.459c0-1.5,0.374-2.666,1.122-3.496c0.748-0.83,1.734-1.246,2.959-1.246
			c1.229,0,2.214,0.414,2.955,1.242C291.297,32.384,291.667,33.551,291.667,35.057z M290.084,35.057
			c0-1.163-0.215-2.026-0.645-2.592s-1.042-0.848-1.836-0.848c-0.8,0-1.416,0.282-1.849,0.848s-0.649,1.429-0.649,2.592
			c0,1.125,0.216,1.979,0.649,2.56c0.433,0.582,1.049,0.872,1.849,0.872c0.789,0,1.4-0.285,1.833-0.856
			S290.084,36.203,290.084,35.057z"/>
		<path d="M296.035,39.718c-0.838,0-1.491-0.234-1.958-0.703c-0.468-0.469-0.702-1.209-0.702-2.222v-4.975h-1.037v-1.254h1.037
			v-2.58h1.535v2.58h2.824v1.254h-2.824v4.268c0,0.455,0.008,0.806,0.024,1.053c0.016,0.247,0.079,0.477,0.188,0.691
			c0.093,0.188,0.242,0.328,0.449,0.422c0.207,0.094,0.487,0.141,0.84,0.141c0.25,0,0.493-0.036,0.727-0.108
			s0.403-0.132,0.506-0.181h0.09v1.358c-0.288,0.081-0.581,0.144-0.877,0.189C296.559,39.695,296.285,39.718,296.035,39.718z"/>
		<path d="M306.853,35.057c0,1.511-0.37,2.678-1.11,3.5c-0.74,0.822-1.725,1.233-2.955,1.233c-1.268,0-2.265-0.424-2.992-1.274
			c-0.726-0.849-1.089-2.002-1.089-3.459c0-1.5,0.374-2.666,1.122-3.496c0.748-0.83,1.734-1.246,2.959-1.246
			c1.229,0,2.214,0.414,2.955,1.242C306.482,32.384,306.853,33.551,306.853,35.057z M305.27,35.057c0-1.163-0.215-2.026-0.645-2.592
			s-1.042-0.848-1.836-0.848c-0.8,0-1.416,0.282-1.849,0.848s-0.649,1.429-0.649,2.592c0,1.125,0.216,1.979,0.649,2.56
			c0.433,0.582,1.049,0.872,1.849,0.872c0.789,0,1.4-0.285,1.833-0.856S305.27,36.203,305.27,35.057z"/>
		<path d="M311.221,39.718c-0.838,0-1.491-0.234-1.959-0.703c-0.469-0.469-0.702-1.209-0.702-2.222v-4.975h-1.036v-1.254h1.036
			v-2.58h1.534v2.58h2.824v1.254h-2.824v4.268c0,0.455,0.009,0.806,0.024,1.053c0.017,0.247,0.079,0.477,0.188,0.691
			c0.092,0.188,0.241,0.328,0.448,0.422s0.487,0.141,0.841,0.141c0.25,0,0.492-0.036,0.727-0.108s0.402-0.132,0.506-0.181h0.09
			v1.358c-0.288,0.081-0.581,0.144-0.877,0.189C311.744,39.695,311.471,39.718,311.221,39.718z"/>
		<path d="M321.704,30.564l-4.905,12.288h-1.641l1.633-3.745l-3.314-8.543h1.657l2.489,6.646l2.481-6.646H321.704z"/>
		<path d="M331.296,34.815c0,1.495-0.363,2.686-1.09,3.572c-0.726,0.887-1.645,1.33-2.754,1.33c-0.452,0-0.853-0.051-1.2-0.153
			c-0.349-0.102-0.705-0.26-1.069-0.474v3.761h-1.534V30.564h1.534v0.94c0.381-0.337,0.804-0.62,1.27-0.848
			c0.465-0.228,0.973-0.342,1.521-0.342c1.045,0,1.86,0.407,2.445,1.222S331.296,33.444,331.296,34.815z M329.713,34.984
			c0-1.023-0.166-1.817-0.498-2.383s-0.871-0.848-1.616-0.848c-0.436,0-0.855,0.095-1.261,0.286
			c-0.405,0.19-0.791,0.435-1.155,0.735v5.087c0.402,0.193,0.747,0.324,1.032,0.394c0.286,0.069,0.613,0.104,0.983,0.104
			c0.795,0,1.412-0.287,1.854-0.86C329.492,36.926,329.713,36.088,329.713,34.984z"/>
		<path d="M336.729,39.75c-1.452,0-2.58-0.403-3.383-1.209s-1.204-1.952-1.204-3.436c0-1.463,0.389-2.627,1.167-3.492
			s1.796-1.298,3.053-1.298c0.566,0,1.066,0.081,1.502,0.241s0.816,0.413,1.143,0.755c0.327,0.343,0.577,0.762,0.751,1.258
			s0.262,1.103,0.262,1.82v0.82h-6.317c0,1.044,0.266,1.843,0.8,2.395c0.533,0.552,1.271,0.828,2.212,0.828
			c0.337,0,0.668-0.038,0.991-0.113c0.324-0.075,0.616-0.171,0.878-0.289c0.277-0.124,0.511-0.243,0.701-0.358
			s0.349-0.224,0.474-0.325h0.09v1.647c-0.18,0.07-0.402,0.157-0.669,0.261s-0.506,0.186-0.719,0.245
			c-0.299,0.08-0.57,0.142-0.812,0.185C337.406,39.729,337.1,39.75,336.729,39.75z M338.525,34.052
			c-0.011-0.407-0.06-0.758-0.146-1.053c-0.088-0.294-0.213-0.543-0.376-0.747c-0.18-0.225-0.409-0.396-0.689-0.515
			c-0.28-0.118-0.627-0.177-1.041-0.177c-0.408,0-0.755,0.061-1.04,0.181c-0.286,0.121-0.546,0.296-0.78,0.526
			c-0.229,0.236-0.402,0.497-0.521,0.783c-0.12,0.287-0.196,0.621-0.229,1.001H338.525z"/>
	</g>
	
		<line fill="none" stroke="#800000" stroke-width="0.7559" stroke-linecap="square" stroke-miterlimit="10" x1="486.688" y1="177.193" x2="430.462" y2="91.906"/>
	
		<polygon fill-rule="evenodd" clip-rule="evenodd" fill="#FFFFFF" stroke="#800000" stroke-width="0.7559" stroke-linecap="square" stroke-miterlimit="10" points="
		457.814,109.861 430.462,91.906 436.54,123.328 	"/>
	
		<rect x="220.75" y="177.193" fill-rule="evenodd" clip-rule="evenodd" fill="#FFFFB9" stroke="#800000" stroke-width="0.7559" stroke-linecap="square" stroke-miterlimit="10" width="176.278" height="80.799"/>
	<g>
		<path d="M238.953,191.454c0,0.558-0.09,1.088-0.27,1.591c-0.179,0.504-0.438,0.924-0.775,1.262
			c-0.207,0.209-0.434,0.402-0.682,0.579s-0.521,0.327-0.82,0.45c-0.299,0.124-0.624,0.22-0.975,0.29
			c-0.351,0.069-0.744,0.104-1.18,0.104h-1.6v3.914h-3.053v-11.966h4.718c0.702,0,1.307,0.063,1.816,0.188
			c0.509,0.126,0.97,0.326,1.384,0.599c0.457,0.3,0.811,0.7,1.061,1.201C238.827,190.167,238.953,190.763,238.953,191.454z
			 M235.818,191.526c0-0.337-0.082-0.628-0.245-0.872c-0.163-0.244-0.359-0.411-0.587-0.502c-0.289-0.123-0.564-0.194-0.829-0.213
			c-0.264-0.019-0.622-0.028-1.073-0.028h-0.433v3.584h0.212c0.288,0,0.56-0.002,0.816-0.008c0.256-0.005,0.479-0.024,0.669-0.056
			c0.163-0.027,0.336-0.079,0.519-0.157c0.182-0.078,0.322-0.165,0.42-0.261c0.207-0.198,0.347-0.404,0.42-0.619
			C235.782,192.18,235.818,191.891,235.818,191.526z"/>
		<path d="M246.242,193.279h-0.237c-0.109-0.038-0.267-0.066-0.473-0.084c-0.207-0.019-0.436-0.028-0.686-0.028
			c-0.299,0-0.613,0.043-0.942,0.128c-0.33,0.086-0.649,0.188-0.959,0.306v6.043h-2.857v-9.025h2.857v1.294
			c0.13-0.118,0.311-0.267,0.542-0.446c0.231-0.179,0.442-0.323,0.633-0.43c0.207-0.124,0.447-0.229,0.722-0.318
			s0.535-0.132,0.779-0.132c0.093,0,0.196,0.002,0.311,0.008s0.217,0.014,0.31,0.024V193.279z"/>
		<path d="M256.469,195.135c0,1.484-0.412,2.653-1.237,3.508c-0.824,0.854-1.99,1.282-3.497,1.282c-1.497,0-2.66-0.427-3.49-1.282
			c-0.83-0.854-1.245-2.024-1.245-3.508c0-1.5,0.415-2.675,1.245-3.524c0.83-0.849,1.993-1.273,3.49-1.273
			c1.501,0,2.666,0.427,3.493,1.282S256.469,193.646,256.469,195.135z M253.539,195.151c0-0.536-0.045-0.981-0.135-1.338
			s-0.213-0.642-0.372-0.856c-0.168-0.225-0.359-0.382-0.571-0.47c-0.212-0.088-0.454-0.132-0.726-0.132
			c-0.256,0-0.487,0.039-0.694,0.116c-0.207,0.078-0.397,0.227-0.571,0.446c-0.164,0.209-0.294,0.496-0.392,0.86
			c-0.098,0.364-0.147,0.822-0.147,1.374c0,0.552,0.046,0.998,0.139,1.338c0.093,0.34,0.212,0.612,0.359,0.815
			c0.152,0.209,0.343,0.362,0.571,0.458c0.229,0.096,0.481,0.145,0.759,0.145c0.229,0,0.461-0.048,0.698-0.145
			c0.237-0.097,0.426-0.241,0.567-0.434c0.168-0.23,0.296-0.508,0.383-0.832C253.495,196.173,253.539,195.725,253.539,195.151z"/>
		<path d="M261.814,199.82c-1.165,0-2.012-0.236-2.542-0.707c-0.531-0.472-0.796-1.243-0.796-2.314v-4.219h-1.094v-1.961h1.094
			v-2.58h2.857v2.58h2.75v1.961h-2.75v3.198c0,0.316,0.002,0.592,0.008,0.828c0.005,0.235,0.049,0.447,0.131,0.635
			c0.076,0.188,0.211,0.336,0.404,0.446c0.193,0.11,0.475,0.165,0.845,0.165c0.152,0,0.353-0.032,0.6-0.097s0.42-0.123,0.518-0.177
			h0.245v1.985c-0.31,0.081-0.64,0.144-0.988,0.189S262.32,199.82,261.814,199.82z"/>
		<path d="M274.701,195.135c0,1.484-0.412,2.653-1.237,3.508c-0.824,0.854-1.99,1.282-3.497,1.282c-1.497,0-2.66-0.427-3.49-1.282
			c-0.83-0.854-1.245-2.024-1.245-3.508c0-1.5,0.415-2.675,1.245-3.524c0.83-0.849,1.993-1.273,3.49-1.273
			c1.501,0,2.666,0.427,3.493,1.282S274.701,193.646,274.701,195.135z M271.771,195.151c0-0.536-0.045-0.981-0.135-1.338
			s-0.213-0.642-0.372-0.856c-0.168-0.225-0.359-0.382-0.571-0.47c-0.212-0.088-0.454-0.132-0.726-0.132
			c-0.256,0-0.487,0.039-0.694,0.116c-0.207,0.078-0.397,0.227-0.571,0.446c-0.164,0.209-0.294,0.496-0.392,0.86
			c-0.098,0.364-0.147,0.822-0.147,1.374c0,0.552,0.046,0.998,0.139,1.338c0.093,0.34,0.212,0.612,0.359,0.815
			c0.152,0.209,0.343,0.362,0.571,0.458c0.229,0.096,0.481,0.145,0.759,0.145c0.229,0,0.461-0.048,0.698-0.145
			c0.237-0.097,0.426-0.241,0.567-0.434c0.168-0.23,0.296-0.508,0.383-0.832C271.727,196.173,271.771,195.725,271.771,195.151z"/>
		<path d="M280.046,199.82c-1.165,0-2.012-0.236-2.542-0.707c-0.531-0.472-0.796-1.243-0.796-2.314v-4.219h-1.094v-1.961h1.094
			v-2.58h2.857v2.58h2.75v1.961h-2.75v3.198c0,0.316,0.002,0.592,0.008,0.828c0.005,0.235,0.049,0.447,0.131,0.635
			c0.076,0.188,0.211,0.336,0.404,0.446c0.193,0.11,0.475,0.165,0.845,0.165c0.152,0,0.353-0.032,0.6-0.097s0.42-0.123,0.518-0.177
			h0.245v1.985c-0.31,0.081-0.64,0.144-0.988,0.189S280.552,199.82,280.046,199.82z"/>
		<path d="M292.688,190.619l-4.628,12.336h-3.069l1.388-3.528l-3.363-8.808h3.003l1.926,5.658l1.804-5.658H292.688z"/>
		<path d="M303.747,195.006c0,1.441-0.371,2.604-1.114,3.488c-0.743,0.884-1.659,1.326-2.747,1.326
			c-0.457,0-0.854-0.051-1.192-0.153c-0.337-0.102-0.697-0.26-1.077-0.474v3.762h-2.857v-12.336h2.857v0.94
			c0.419-0.354,0.846-0.64,1.281-0.86c0.435-0.22,0.938-0.33,1.51-0.33c1.062,0,1.883,0.416,2.465,1.246
			C303.456,192.445,303.747,193.576,303.747,195.006z M300.825,195.063c0-0.878-0.138-1.516-0.412-1.913
			c-0.275-0.396-0.704-0.595-1.286-0.595c-0.256,0-0.51,0.041-0.763,0.121c-0.253,0.081-0.502,0.201-0.747,0.362v4.541
			c0.152,0.064,0.319,0.11,0.502,0.137c0.182,0.027,0.398,0.04,0.649,0.04c0.696,0,1.213-0.224,1.551-0.671
			C300.656,196.637,300.825,195.963,300.825,195.063z"/>
		<path d="M310.075,199.885c-1.73,0-3.057-0.407-3.979-1.222c-0.922-0.814-1.384-1.974-1.384-3.48c0-1.473,0.43-2.649,1.29-3.528
			c0.859-0.879,2.062-1.318,3.607-1.318c1.404,0,2.459,0.372,3.167,1.117c0.707,0.745,1.061,1.811,1.061,3.199v1.013h-6.26
			c0.027,0.418,0.117,0.768,0.27,1.049s0.354,0.505,0.604,0.671c0.245,0.166,0.53,0.285,0.857,0.357
			c0.326,0.073,0.683,0.109,1.069,0.109c0.331,0,0.658-0.036,0.979-0.109c0.32-0.072,0.614-0.167,0.881-0.285
			c0.234-0.102,0.45-0.211,0.649-0.33c0.198-0.118,0.36-0.222,0.485-0.313h0.302v2.323c-0.233,0.091-0.447,0.176-0.641,0.253
			s-0.458,0.156-0.796,0.237c-0.31,0.081-0.63,0.144-0.959,0.189S310.549,199.885,310.075,199.885z M311.022,193.97
			c-0.017-0.595-0.156-1.047-0.421-1.358c-0.264-0.311-0.668-0.466-1.212-0.466c-0.555,0-0.988,0.164-1.302,0.49
			c-0.313,0.327-0.485,0.771-0.519,1.334H311.022z"/>
		<path d="M321.413,199.876c-1.823,0-3.271-0.542-4.342-1.627c-1.072-1.085-1.608-2.61-1.608-4.577c0-1.896,0.537-3.409,1.612-4.537
			c1.074-1.128,2.523-1.692,4.346-1.692c0.484,0,0.92,0.027,1.307,0.081c0.386,0.054,0.756,0.128,1.109,0.225
			c0.278,0.08,0.58,0.19,0.906,0.33c0.326,0.139,0.591,0.26,0.792,0.361v2.853h-0.311c-0.146-0.128-0.332-0.282-0.555-0.462
			c-0.224-0.18-0.477-0.355-0.759-0.526c-0.283-0.171-0.595-0.317-0.935-0.438c-0.341-0.121-0.695-0.181-1.065-0.181
			c-0.44,0-0.845,0.068-1.212,0.205s-0.718,0.374-1.049,0.711c-0.305,0.305-0.554,0.718-0.747,1.237
			c-0.193,0.52-0.29,1.133-0.29,1.84c0,0.745,0.101,1.371,0.302,1.877c0.202,0.506,0.466,0.915,0.792,1.226
			c0.315,0.3,0.668,0.517,1.058,0.651c0.389,0.134,0.776,0.201,1.163,0.201c0.402,0,0.786-0.065,1.15-0.197S323.75,197.16,324,197
			c0.272-0.166,0.512-0.335,0.719-0.506s0.387-0.324,0.539-0.458h0.277v2.813c-0.224,0.102-0.481,0.218-0.775,0.35
			s-0.596,0.242-0.906,0.333c-0.381,0.112-0.737,0.198-1.069,0.257S321.995,199.876,321.413,199.876z"/>
		<path d="M335.447,195.135c0,1.484-0.412,2.653-1.236,3.508s-1.99,1.282-3.498,1.282c-1.496,0-2.659-0.427-3.489-1.282
			s-1.244-2.024-1.244-3.508c0-1.5,0.414-2.675,1.244-3.524c0.83-0.849,1.993-1.273,3.489-1.273c1.502,0,2.666,0.427,3.494,1.282
			C335.033,192.474,335.447,193.646,335.447,195.135z M332.517,195.151c0-0.536-0.045-0.981-0.134-1.338
			c-0.09-0.356-0.214-0.642-0.372-0.856c-0.169-0.225-0.359-0.382-0.571-0.47s-0.454-0.132-0.727-0.132
			c-0.256,0-0.486,0.039-0.693,0.116c-0.207,0.078-0.397,0.227-0.571,0.446c-0.163,0.209-0.294,0.496-0.392,0.86
			c-0.099,0.364-0.147,0.822-0.147,1.374c0,0.552,0.046,0.998,0.139,1.338s0.213,0.612,0.359,0.815
			c0.152,0.209,0.343,0.362,0.571,0.458c0.229,0.096,0.481,0.145,0.759,0.145c0.229,0,0.462-0.048,0.698-0.145
			c0.236-0.097,0.426-0.241,0.567-0.434c0.168-0.23,0.296-0.508,0.384-0.832C332.474,196.173,332.517,195.725,332.517,195.151z"/>
		<path d="M345.87,199.644h-2.873v-4.477c0-0.364-0.016-0.727-0.045-1.089c-0.03-0.361-0.086-0.628-0.168-0.799
			c-0.098-0.204-0.239-0.35-0.424-0.438c-0.186-0.089-0.433-0.133-0.743-0.133c-0.234,0-0.471,0.043-0.71,0.128
			c-0.239,0.086-0.495,0.223-0.768,0.41v6.397h-2.856v-9.025h2.856v0.997c0.468-0.391,0.924-0.697,1.367-0.917
			s0.935-0.33,1.474-0.33c0.936,0,1.651,0.291,2.146,0.872c0.495,0.582,0.743,1.424,0.743,2.528V199.644z"/>
		<path d="M352.431,199.885c-0.756,0-1.448-0.094-2.077-0.281c-0.628-0.188-1.174-0.477-1.637-0.868
			c-0.457-0.391-0.813-0.883-1.069-1.475s-0.383-1.29-0.383-2.094c0-0.862,0.139-1.596,0.416-2.202s0.653-1.104,1.126-1.495
			c0.457-0.375,0.995-0.652,1.612-0.832s1.261-0.27,1.931-0.27c0.506,0,1.012,0.058,1.518,0.173s1.015,0.299,1.526,0.551v2.411
			h-0.367c-0.114-0.107-0.254-0.225-0.42-0.354c-0.166-0.128-0.348-0.246-0.543-0.354c-0.207-0.112-0.44-0.208-0.702-0.285
			c-0.261-0.078-0.553-0.117-0.873-0.117c-0.729,0-1.294,0.25-1.694,0.751c-0.399,0.501-0.6,1.175-0.6,2.021
			c0,0.906,0.214,1.581,0.641,2.025c0.428,0.445,0.995,0.667,1.702,0.667c0.359,0,0.675-0.04,0.946-0.121
			c0.272-0.08,0.507-0.177,0.702-0.289c0.19-0.113,0.354-0.229,0.49-0.35c0.136-0.121,0.253-0.229,0.351-0.326h0.367v2.411
			c-0.163,0.07-0.353,0.15-0.567,0.241c-0.215,0.091-0.434,0.166-0.656,0.225c-0.278,0.075-0.538,0.133-0.78,0.173
			C353.147,199.865,352.828,199.885,352.431,199.885z"/>
		<path d="M363.204,193.279h-0.236c-0.109-0.038-0.268-0.066-0.474-0.084c-0.207-0.019-0.436-0.028-0.686-0.028
			c-0.3,0-0.614,0.043-0.943,0.128c-0.329,0.086-0.648,0.188-0.959,0.306v6.043h-2.856v-9.025h2.856v1.294
			c0.131-0.118,0.312-0.267,0.543-0.446c0.231-0.179,0.442-0.323,0.633-0.43c0.207-0.124,0.447-0.229,0.723-0.318
			c0.274-0.088,0.534-0.132,0.779-0.132c0.092,0,0.195,0.002,0.31,0.008s0.218,0.014,0.311,0.024V193.279z"/>
		<path d="M369.325,199.885c-1.73,0-3.057-0.407-3.979-1.222c-0.922-0.814-1.383-1.974-1.383-3.48c0-1.473,0.43-2.649,1.289-3.528
			c0.86-0.879,2.063-1.318,3.607-1.318c1.404,0,2.46,0.372,3.167,1.117c0.708,0.745,1.062,1.811,1.062,3.199v1.013h-6.261
			c0.027,0.418,0.117,0.768,0.27,1.049s0.354,0.505,0.604,0.671c0.244,0.166,0.53,0.285,0.856,0.357
			c0.327,0.073,0.683,0.109,1.069,0.109c0.332,0,0.658-0.036,0.979-0.109c0.321-0.072,0.615-0.167,0.882-0.285
			c0.233-0.102,0.45-0.211,0.648-0.33c0.199-0.118,0.36-0.222,0.485-0.313h0.303v2.323c-0.234,0.091-0.448,0.176-0.641,0.253
			c-0.193,0.078-0.459,0.156-0.796,0.237c-0.311,0.081-0.63,0.144-0.959,0.189C370.199,199.862,369.799,199.885,369.325,199.885z
			 M370.271,193.97c-0.016-0.595-0.156-1.047-0.42-1.358c-0.264-0.311-0.668-0.466-1.212-0.466c-0.556,0-0.989,0.164-1.302,0.49
			c-0.313,0.327-0.486,0.771-0.519,1.334H370.271z"/>
		<path d="M378.77,199.82c-1.165,0-2.012-0.236-2.543-0.707c-0.53-0.472-0.796-1.243-0.796-2.314v-4.219h-1.093v-1.961h1.093v-2.58
			h2.857v2.58h2.75v1.961h-2.75v3.198c0,0.316,0.003,0.592,0.008,0.828c0.006,0.235,0.049,0.447,0.131,0.635
			c0.076,0.188,0.211,0.336,0.404,0.446c0.192,0.11,0.475,0.165,0.845,0.165c0.152,0,0.352-0.032,0.6-0.097
			c0.247-0.064,0.42-0.123,0.519-0.177h0.244v1.985c-0.31,0.081-0.639,0.144-0.987,0.189S379.275,199.82,378.77,199.82z"/>
		<path d="M391.387,199.644h-8.031v-2.089h2.563v-6.325h-2.563v-1.953c0.375,0,0.748-0.024,1.118-0.072s0.666-0.126,0.89-0.233
			c0.261-0.129,0.464-0.302,0.608-0.519c0.144-0.217,0.227-0.486,0.248-0.808h2.661v9.909h2.506V199.644z"/>
	</g>
	
		<line fill="none" stroke="#800000" stroke-width="0.7559" stroke-linecap="square" stroke-miterlimit="10" x1="220.75" y1="210.111" x2="398.55" y2="210.111"/>
	<g>
		<path d="M239.222,241.424H235.1v4.059h-1.355v-4.059h-4.122v-1.286h4.122v-4.059h1.355v4.059h4.122V241.424z"/>
		<path d="M245.237,246.222c-0.625,0-1.2-0.096-1.722-0.285c-0.522-0.19-0.971-0.479-1.347-0.864s-0.667-0.872-0.874-1.459
			c-0.207-0.586-0.31-1.276-0.31-2.069c0-0.787,0.107-1.468,0.323-2.041c0.215-0.573,0.502-1.056,0.861-1.446
			c0.359-0.392,0.807-0.692,1.343-0.904c0.536-0.212,1.111-0.317,1.726-0.317c0.5,0,0.984,0.069,1.449,0.209
			c0.465,0.139,0.88,0.3,1.245,0.481v1.696h-0.09c-0.109-0.091-0.249-0.195-0.42-0.313s-0.379-0.238-0.625-0.361
			c-0.212-0.107-0.462-0.201-0.751-0.281c-0.289-0.081-0.566-0.121-0.833-0.121c-0.794,0-1.432,0.296-1.914,0.888
			c-0.481,0.593-0.722,1.43-0.722,2.512c0,1.061,0.232,1.888,0.698,2.479s1.111,0.888,1.938,0.888c0.5,0,0.977-0.102,1.428-0.305
			c0.452-0.204,0.852-0.467,1.2-0.788h0.09v1.696c-0.152,0.069-0.343,0.153-0.571,0.253c-0.229,0.099-0.436,0.173-0.621,0.221
			c-0.261,0.075-0.495,0.133-0.702,0.173C245.831,246.201,245.564,246.222,245.237,246.222z"/>
		<path d="M250.793,246.021h-1.535v-12.505h1.535V246.021z"/>
		<path d="M259.778,241.536c0,1.511-0.37,2.678-1.11,3.5c-0.74,0.822-1.725,1.233-2.955,1.233c-1.268,0-2.265-0.425-2.992-1.273
			c-0.726-0.85-1.089-2.003-1.089-3.46c0-1.5,0.374-2.665,1.122-3.496c0.748-0.83,1.734-1.245,2.959-1.245
			c1.229,0,2.214,0.413,2.955,1.241C259.408,238.864,259.778,240.03,259.778,241.536z M258.195,241.536
			c0-1.162-0.215-2.026-0.645-2.592s-1.042-0.848-1.836-0.848c-0.8,0-1.416,0.282-1.849,0.848s-0.649,1.43-0.649,2.592
			c0,1.125,0.216,1.979,0.649,2.56s1.049,0.872,1.849,0.872c0.789,0,1.4-0.285,1.833-0.855
			C257.979,243.541,258.195,242.683,258.195,241.536z"/>
		<path d="M268.553,246.021h-1.535v-5.111c0-0.412-0.02-0.797-0.061-1.153c-0.041-0.356-0.118-0.642-0.232-0.855
			c-0.125-0.226-0.299-0.393-0.522-0.503c-0.223-0.109-0.528-0.164-0.914-0.164c-0.381,0-0.774,0.101-1.18,0.301
			c-0.405,0.201-0.801,0.462-1.188,0.784v6.702h-1.535v-8.977h1.535v0.996c0.457-0.401,0.909-0.71,1.355-0.924
			c0.446-0.215,0.917-0.321,1.412-0.321c0.898,0,1.6,0.29,2.106,0.871c0.506,0.582,0.759,1.425,0.759,2.528V246.021z"/>
		<path d="M274.466,246.229c-1.453,0-2.581-0.403-3.383-1.21c-0.803-0.806-1.204-1.951-1.204-3.436c0-1.462,0.389-2.626,1.167-3.491
			c0.778-0.865,1.795-1.298,3.052-1.298c0.566,0,1.067,0.08,1.502,0.24c0.436,0.161,0.816,0.413,1.143,0.756
			c0.327,0.343,0.577,0.763,0.751,1.258c0.174,0.495,0.261,1.103,0.261,1.82v0.819h-6.317c0,1.045,0.267,1.844,0.8,2.396
			s1.271,0.827,2.212,0.827c0.337,0,0.668-0.037,0.992-0.112s0.616-0.171,0.877-0.289c0.278-0.123,0.512-0.242,0.702-0.357
			s0.348-0.224,0.473-0.326h0.09v1.647c-0.18,0.07-0.403,0.157-0.669,0.262c-0.267,0.104-0.506,0.187-0.719,0.245
			c-0.299,0.08-0.57,0.142-0.812,0.185S274.836,246.229,274.466,246.229z M276.262,240.531c-0.011-0.407-0.06-0.758-0.147-1.053
			c-0.087-0.294-0.212-0.544-0.375-0.747c-0.179-0.226-0.409-0.396-0.689-0.515c-0.28-0.117-0.627-0.177-1.041-0.177
			c-0.408,0-0.755,0.061-1.041,0.181c-0.286,0.121-0.545,0.297-0.779,0.526c-0.229,0.236-0.403,0.497-0.522,0.784
			c-0.12,0.286-0.196,0.62-0.229,1H276.262z"/>
		<path d="M284.309,249.332h-1.869c-0.947-1.109-1.691-2.283-2.232-3.521c-0.542-1.237-0.813-2.7-0.813-4.388
			c0-1.65,0.268-3.104,0.804-4.36c0.536-1.256,1.283-2.438,2.24-3.548h1.869v0.08c-0.44,0.392-0.861,0.843-1.261,1.354
			s-0.771,1.107-1.114,1.788c-0.327,0.659-0.592,1.385-0.796,2.178s-0.306,1.629-0.306,2.508c0,0.916,0.1,1.755,0.298,2.516
			c0.198,0.761,0.466,1.483,0.804,2.17c0.327,0.658,0.699,1.255,1.118,1.788c0.419,0.532,0.838,0.984,1.257,1.354V249.332z"/>
		<path d="M290.113,241.424c0,1.655-0.27,3.11-0.808,4.363c-0.539,1.254-1.284,2.436-2.236,3.545H285.2v-0.081
			c0.419-0.369,0.841-0.823,1.265-1.362c0.424-0.538,0.794-1.132,1.11-1.779c0.337-0.691,0.605-1.422,0.804-2.19
			s0.298-1.601,0.298-2.495c0-0.884-0.101-1.72-0.302-2.508c-0.202-0.787-0.468-1.514-0.8-2.178s-0.707-1.262-1.126-1.792
			c-0.419-0.53-0.835-0.98-1.249-1.351v-0.08h1.869c0.947,1.109,1.691,2.288,2.232,3.536S290.113,239.758,290.113,241.424z"/>
	</g>
	
		<line fill="none" stroke="#800000" stroke-width="0.7559" stroke-linecap="square" stroke-miterlimit="10" x1="220.75" y1="223.578" x2="398.55" y2="223.578"/>
	
		<line fill="none" stroke="#800000" stroke-width="0.7559" stroke-linecap="square" stroke-miterlimit="10" x1="331.684" y1="177.193" x2="380.313" y2="91.906"/>
	
		<polygon fill-rule="evenodd" clip-rule="evenodd" fill="#FFFFFF" stroke="#800000" stroke-width="0.7559" stroke-linecap="square" stroke-miterlimit="10" points="
		377.274,123.328 380.313,91.906 354.48,111.357 	"/>
	
		<polygon fill-rule="evenodd" clip-rule="evenodd" fill="#FFFFB9" stroke="#800000" stroke-width="0.7559" stroke-linecap="square" stroke-miterlimit="10" points="
		8,118.839 176.681,118.839 191.877,133.802 191.877,150.261 8,150.261 8,118.839 	"/>
	
		<polygon fill-rule="evenodd" clip-rule="evenodd" fill="#FFFFB9" stroke="#800000" stroke-width="0.7559" stroke-linecap="square" stroke-miterlimit="10" points="
		176.681,118.839 176.681,133.802 191.877,133.802 	"/>
	<g>
		<path d="M24.356,136.54c0,1.495-0.363,2.686-1.089,3.572c-0.727,0.887-1.645,1.33-2.755,1.33c-0.452,0-0.852-0.051-1.2-0.153
			c-0.348-0.102-0.705-0.26-1.069-0.474v3.761h-1.535v-12.288h1.535v0.94c0.381-0.337,0.804-0.62,1.269-0.848
			c0.465-0.228,0.973-0.342,1.522-0.342c1.045,0,1.859,0.407,2.444,1.222S24.356,135.168,24.356,136.54z M22.773,136.709
			c0-1.023-0.166-1.817-0.498-2.383c-0.332-0.565-0.871-0.848-1.616-0.848c-0.436,0-0.856,0.095-1.261,0.286
			c-0.405,0.19-0.791,0.435-1.155,0.735v5.087c0.403,0.193,0.747,0.324,1.033,0.394c0.286,0.069,0.613,0.104,0.983,0.104
			c0.794,0,1.412-0.287,1.853-0.86C22.553,138.651,22.773,137.813,22.773,136.709z"/>
		<path d="M30.663,133.912h-0.082c-0.114-0.032-0.235-0.052-0.363-0.06c-0.128-0.008-0.281-0.012-0.461-0.012
			c-0.414,0-0.825,0.088-1.232,0.265c-0.408,0.177-0.795,0.439-1.159,0.788v6.373h-1.535v-8.977h1.535v1.334
			c0.561-0.488,1.049-0.832,1.465-1.033c0.416-0.201,0.82-0.302,1.212-0.302c0.158,0,0.276,0.004,0.355,0.012
			c0.079,0.008,0.167,0.02,0.265,0.036V133.912z"/>
		<path d="M39.406,136.781c0,1.511-0.37,2.678-1.11,3.5c-0.74,0.822-1.725,1.233-2.955,1.233c-1.268,0-2.265-0.424-2.992-1.274
			c-0.726-0.849-1.089-2.002-1.089-3.459c0-1.5,0.374-2.666,1.122-3.496c0.748-0.83,1.734-1.246,2.959-1.246
			c1.229,0,2.214,0.414,2.955,1.242C39.036,134.109,39.406,135.276,39.406,136.781z M37.823,136.781
			c0-1.163-0.215-2.026-0.645-2.592s-1.042-0.848-1.836-0.848c-0.8,0-1.416,0.282-1.849,0.848s-0.649,1.429-0.649,2.592
			c0,1.125,0.216,1.979,0.649,2.56c0.433,0.582,1.049,0.872,1.849,0.872c0.789,0,1.4-0.285,1.833-0.856
			S37.823,137.928,37.823,136.781z"/>
		<path d="M43.773,141.442c-0.838,0-1.491-0.234-1.958-0.703c-0.468-0.469-0.702-1.209-0.702-2.222v-4.975h-1.037v-1.254h1.037
			v-2.58h1.535v2.58h2.824v1.254h-2.824v4.268c0,0.455,0.008,0.806,0.024,1.053c0.016,0.247,0.079,0.477,0.188,0.691
			c0.093,0.188,0.242,0.328,0.449,0.422c0.207,0.094,0.487,0.141,0.84,0.141c0.25,0,0.493-0.036,0.727-0.108
			s0.403-0.132,0.506-0.181h0.09v1.358c-0.288,0.081-0.581,0.144-0.877,0.189C44.297,141.419,44.024,141.442,43.773,141.442z"/>
		<path d="M54.591,136.781c0,1.511-0.37,2.678-1.11,3.5c-0.74,0.822-1.725,1.233-2.955,1.233c-1.268,0-2.265-0.424-2.992-1.274
			c-0.726-0.849-1.089-2.002-1.089-3.459c0-1.5,0.374-2.666,1.122-3.496c0.748-0.83,1.734-1.246,2.959-1.246
			c1.229,0,2.214,0.414,2.955,1.242C54.221,134.109,54.591,135.276,54.591,136.781z M53.008,136.781
			c0-1.163-0.215-2.026-0.645-2.592s-1.042-0.848-1.836-0.848c-0.8,0-1.416,0.282-1.849,0.848s-0.649,1.429-0.649,2.592
			c0,1.125,0.216,1.979,0.649,2.56c0.433,0.582,1.049,0.872,1.849,0.872c0.789,0,1.4-0.285,1.833-0.856
			S53.008,137.928,53.008,136.781z"/>
		<path d="M58.959,141.442c-0.838,0-1.491-0.234-1.958-0.703c-0.468-0.469-0.702-1.209-0.702-2.222v-4.975h-1.037v-1.254h1.037
			v-2.58h1.535v2.58h2.824v1.254h-2.824v4.268c0,0.455,0.008,0.806,0.024,1.053c0.016,0.247,0.079,0.477,0.188,0.691
			c0.093,0.188,0.242,0.328,0.449,0.422c0.207,0.094,0.487,0.141,0.84,0.141c0.25,0,0.493-0.036,0.727-0.108
			s0.403-0.132,0.506-0.181h0.09v1.358c-0.288,0.081-0.581,0.144-0.877,0.189C59.483,141.419,59.209,141.442,58.959,141.442z"/>
		<path d="M69.442,132.289l-4.905,12.288h-1.641l1.632-3.745l-3.314-8.543h1.657l2.489,6.646l2.481-6.646H69.442z"/>
		<path d="M79.035,136.54c0,1.495-0.363,2.686-1.089,3.572c-0.727,0.887-1.645,1.33-2.755,1.33c-0.452,0-0.852-0.051-1.2-0.153
			c-0.348-0.102-0.705-0.26-1.069-0.474v3.761h-1.535v-12.288h1.535v0.94c0.381-0.337,0.804-0.62,1.269-0.848
			c0.465-0.228,0.973-0.342,1.522-0.342c1.045,0,1.859,0.407,2.444,1.222S79.035,135.168,79.035,136.54z M77.452,136.709
			c0-1.023-0.166-1.817-0.498-2.383c-0.332-0.565-0.871-0.848-1.616-0.848c-0.436,0-0.856,0.095-1.261,0.286
			c-0.405,0.19-0.791,0.435-1.155,0.735v5.087c0.403,0.193,0.747,0.324,1.033,0.394c0.286,0.069,0.613,0.104,0.983,0.104
			c0.794,0,1.412-0.287,1.853-0.86C77.231,138.651,77.452,137.813,77.452,136.709z"/>
		<path d="M84.468,141.475c-1.453,0-2.581-0.403-3.383-1.209s-1.204-1.952-1.204-3.436c0-1.463,0.389-2.627,1.167-3.492
			c0.778-0.865,1.795-1.298,3.052-1.298c0.566,0,1.067,0.081,1.502,0.241c0.436,0.161,0.816,0.413,1.143,0.755
			c0.327,0.343,0.577,0.762,0.751,1.258c0.174,0.496,0.261,1.103,0.261,1.82v0.82H81.44c0,1.044,0.267,1.843,0.8,2.395
			c0.533,0.552,1.271,0.828,2.212,0.828c0.337,0,0.668-0.038,0.992-0.113c0.324-0.075,0.616-0.171,0.877-0.289
			c0.278-0.124,0.512-0.243,0.702-0.358s0.348-0.224,0.473-0.325h0.09v1.647c-0.18,0.07-0.403,0.157-0.669,0.261
			c-0.267,0.104-0.506,0.186-0.719,0.245c-0.299,0.08-0.57,0.142-0.812,0.185S84.838,141.475,84.468,141.475z M86.264,135.777
			c-0.011-0.407-0.06-0.758-0.147-1.053c-0.087-0.294-0.212-0.543-0.375-0.747c-0.179-0.225-0.409-0.396-0.689-0.515
			c-0.28-0.118-0.627-0.177-1.041-0.177c-0.408,0-0.755,0.061-1.041,0.181s-0.545,0.296-0.779,0.526
			c-0.229,0.236-0.403,0.497-0.522,0.783c-0.12,0.287-0.196,0.621-0.229,1.001H86.264z"/>
		<path d="M92.018,141.266h-1.951v-2.291h1.951V141.266z"/>
		<path d="M99.313,141.466c-0.625,0-1.2-0.095-1.722-0.285c-0.522-0.19-0.971-0.478-1.347-0.864s-0.667-0.872-0.874-1.458
			c-0.207-0.587-0.31-1.277-0.31-2.07c0-0.788,0.107-1.468,0.323-2.041c0.215-0.573,0.502-1.056,0.861-1.447
			c0.359-0.391,0.807-0.692,1.343-0.904c0.536-0.212,1.111-0.318,1.726-0.318c0.5,0,0.984,0.07,1.449,0.209
			c0.465,0.14,0.88,0.3,1.245,0.482v1.696h-0.09c-0.109-0.091-0.249-0.196-0.42-0.313s-0.379-0.238-0.625-0.362
			c-0.212-0.107-0.462-0.201-0.751-0.281c-0.289-0.08-0.566-0.121-0.833-0.121c-0.794,0-1.432,0.296-1.914,0.888
			c-0.481,0.592-0.722,1.429-0.722,2.511c0,1.061,0.232,1.888,0.698,2.479c0.465,0.592,1.111,0.888,1.938,0.888
			c0.5,0,0.977-0.102,1.428-0.306s0.852-0.466,1.2-0.788h0.09v1.696c-0.152,0.07-0.343,0.154-0.571,0.253
			c-0.229,0.099-0.436,0.172-0.621,0.221c-0.261,0.075-0.495,0.133-0.702,0.173C99.907,141.446,99.64,141.466,99.313,141.466z"/>
		<path d="M104.87,141.266h-1.535v-12.505h1.535V141.266z"/>
		<path d="M113.854,136.781c0,1.511-0.37,2.678-1.11,3.5c-0.74,0.822-1.725,1.233-2.955,1.233c-1.268,0-2.265-0.424-2.992-1.274
			c-0.726-0.849-1.089-2.002-1.089-3.459c0-1.5,0.374-2.666,1.122-3.496c0.748-0.83,1.734-1.246,2.959-1.246
			c1.229,0,2.214,0.414,2.955,1.242C113.484,134.109,113.854,135.276,113.854,136.781z M112.271,136.781
			c0-1.163-0.215-2.026-0.645-2.592s-1.042-0.848-1.836-0.848c-0.8,0-1.416,0.282-1.849,0.848s-0.649,1.429-0.649,2.592
			c0,1.125,0.216,1.979,0.649,2.56c0.433,0.582,1.049,0.872,1.849,0.872c0.789,0,1.4-0.285,1.833-0.856
			S112.271,137.928,112.271,136.781z"/>
		<path d="M122.629,141.266h-1.535v-5.111c0-0.413-0.02-0.797-0.061-1.153c-0.041-0.356-0.118-0.642-0.232-0.856
			c-0.125-0.225-0.299-0.392-0.522-0.502s-0.528-0.165-0.914-0.165c-0.381,0-0.774,0.101-1.18,0.302
			c-0.405,0.201-0.801,0.462-1.188,0.783v6.703h-1.535v-8.977h1.535v0.997c0.457-0.402,0.909-0.709,1.355-0.924
			s0.917-0.322,1.412-0.322c0.898,0,1.6,0.291,2.106,0.872c0.506,0.582,0.759,1.424,0.759,2.527V141.266z"/>
		<path d="M128.542,141.475c-1.453,0-2.581-0.403-3.383-1.209s-1.204-1.952-1.204-3.436c0-1.463,0.389-2.627,1.167-3.492
			c0.778-0.865,1.795-1.298,3.052-1.298c0.566,0,1.067,0.081,1.502,0.241c0.436,0.161,0.816,0.413,1.143,0.755
			c0.327,0.343,0.577,0.762,0.751,1.258c0.174,0.496,0.261,1.103,0.261,1.82v0.82h-6.317c0,1.044,0.267,1.843,0.8,2.395
			c0.533,0.552,1.271,0.828,2.212,0.828c0.337,0,0.668-0.038,0.992-0.113c0.324-0.075,0.616-0.171,0.877-0.289
			c0.278-0.124,0.512-0.243,0.702-0.358s0.348-0.224,0.473-0.325h0.09v1.647c-0.18,0.07-0.403,0.157-0.669,0.261
			c-0.267,0.104-0.506,0.186-0.719,0.245c-0.299,0.08-0.57,0.142-0.812,0.185S128.912,141.475,128.542,141.475z M130.338,135.777
			c-0.011-0.407-0.06-0.758-0.147-1.053c-0.087-0.294-0.212-0.543-0.375-0.747c-0.179-0.225-0.409-0.396-0.689-0.515
			c-0.28-0.118-0.627-0.177-1.041-0.177c-0.408,0-0.755,0.061-1.041,0.181s-0.545,0.296-0.779,0.526
			c-0.229,0.236-0.403,0.497-0.522,0.783c-0.12,0.287-0.196,0.621-0.229,1.001H130.338z"/>
		<path d="M138.385,144.577h-1.869c-0.947-1.109-1.691-2.282-2.232-3.52c-0.542-1.238-0.813-2.7-0.813-4.388
			c0-1.65,0.268-3.104,0.804-4.36c0.536-1.256,1.283-2.439,2.24-3.548h1.869v0.081c-0.44,0.391-0.861,0.842-1.261,1.354
			s-0.771,1.108-1.114,1.788c-0.327,0.659-0.592,1.385-0.796,2.178c-0.204,0.793-0.306,1.629-0.306,2.508
			c0,0.916,0.1,1.754,0.298,2.515c0.198,0.761,0.466,1.484,0.804,2.17c0.327,0.659,0.699,1.255,1.118,1.788s0.838,0.984,1.257,1.354
			V144.577z"/>
		<path d="M144.189,136.669c0,1.655-0.27,3.11-0.808,4.364c-0.539,1.253-1.284,2.435-2.236,3.544h-1.869v-0.081
			c0.419-0.37,0.841-0.824,1.265-1.362c0.424-0.539,0.794-1.132,1.11-1.78c0.337-0.691,0.605-1.421,0.804-2.19
			c0.199-0.769,0.298-1.601,0.298-2.495c0-0.884-0.101-1.72-0.302-2.508c-0.202-0.788-0.468-1.513-0.8-2.178
			c-0.332-0.664-0.707-1.262-1.126-1.792c-0.419-0.531-0.835-0.98-1.249-1.35v-0.081h1.869c0.947,1.109,1.691,2.288,2.232,3.536
			S144.189,135.002,144.189,136.669z"/>
		<path d="M149.226,138.975l-2.285,5.264h-1.192l1.437-5.264H149.226z M148.687,134.579h-1.951v-2.291h1.951V134.579z"/>
	</g>
	
		<polygon fill-rule="evenodd" clip-rule="evenodd" fill="#FFFFB9" stroke="#800000" stroke-width="0.7559" stroke-linecap="square" stroke-miterlimit="10" points="
		264.82,316.347 527.719,316.347 542.915,331.309 542.915,392.655 264.82,392.655 264.82,316.347 	"/>
	
		<polygon fill-rule="evenodd" clip-rule="evenodd" fill="#FFFFB9" stroke="#800000" stroke-width="0.7559" stroke-linecap="square" stroke-miterlimit="10" points="
		527.719,316.347 527.719,331.309 542.915,331.309 	"/>
	<g>
		<path d="M277.149,338.992c-0.625,0-1.2-0.096-1.722-0.285c-0.522-0.19-0.971-0.479-1.347-0.864s-0.667-0.872-0.874-1.459
			c-0.207-0.586-0.31-1.276-0.31-2.069c0-0.787,0.107-1.468,0.323-2.041c0.215-0.573,0.502-1.056,0.861-1.446
			c0.359-0.392,0.807-0.692,1.343-0.904c0.536-0.212,1.111-0.317,1.726-0.317c0.5,0,0.984,0.069,1.449,0.209
			c0.465,0.139,0.88,0.3,1.245,0.481v1.696h-0.09c-0.109-0.091-0.249-0.195-0.42-0.313s-0.379-0.238-0.625-0.361
			c-0.212-0.107-0.462-0.201-0.751-0.281c-0.289-0.081-0.566-0.121-0.833-0.121c-0.794,0-1.432,0.296-1.914,0.888
			c-0.481,0.593-0.722,1.43-0.722,2.512c0,1.061,0.232,1.888,0.698,2.479s1.111,0.888,1.938,0.888c0.5,0,0.977-0.102,1.428-0.305
			c0.452-0.204,0.852-0.467,1.2-0.788h0.09v1.696c-0.152,0.069-0.343,0.153-0.571,0.253c-0.229,0.099-0.436,0.173-0.621,0.221
			c-0.261,0.075-0.495,0.133-0.702,0.173C277.742,338.972,277.476,338.992,277.149,338.992z"/>
		<path d="M282.705,338.791h-1.535v-12.505h1.535V338.791z"/>
		<path d="M291.69,334.307c0,1.511-0.37,2.678-1.11,3.5c-0.74,0.822-1.725,1.233-2.955,1.233c-1.268,0-2.265-0.425-2.992-1.273
			c-0.726-0.85-1.089-2.003-1.089-3.46c0-1.5,0.374-2.665,1.122-3.496c0.748-0.83,1.734-1.245,2.959-1.245
			c1.229,0,2.214,0.413,2.955,1.241C291.32,331.635,291.69,332.801,291.69,334.307z M290.107,334.307
			c0-1.162-0.215-2.026-0.645-2.592s-1.042-0.848-1.836-0.848c-0.8,0-1.416,0.282-1.849,0.848s-0.649,1.43-0.649,2.592
			c0,1.125,0.216,1.979,0.649,2.56s1.049,0.872,1.849,0.872c0.789,0,1.4-0.285,1.833-0.855
			C289.891,336.312,290.107,335.453,290.107,334.307z"/>
		<path d="M300.465,338.791h-1.535v-5.111c0-0.412-0.02-0.797-0.061-1.153c-0.041-0.356-0.118-0.642-0.232-0.855
			c-0.125-0.226-0.299-0.393-0.522-0.503c-0.223-0.109-0.528-0.164-0.914-0.164c-0.381,0-0.774,0.101-1.18,0.301
			c-0.405,0.201-0.801,0.462-1.188,0.784v6.702h-1.535v-8.977h1.535v0.996c0.457-0.401,0.909-0.71,1.355-0.924
			c0.446-0.215,0.917-0.321,1.412-0.321c0.898,0,1.6,0.29,2.106,0.871c0.506,0.582,0.759,1.425,0.759,2.528V338.791z"/>
		<path d="M306.378,339c-1.453,0-2.581-0.403-3.383-1.21c-0.803-0.806-1.204-1.951-1.204-3.436c0-1.462,0.389-2.626,1.167-3.491
			c0.778-0.865,1.795-1.298,3.053-1.298c0.565,0,1.066,0.08,1.502,0.24c0.435,0.161,0.815,0.413,1.143,0.756
			c0.326,0.343,0.576,0.763,0.751,1.258c0.174,0.495,0.261,1.103,0.261,1.82v0.819h-6.317c0,1.045,0.267,1.844,0.8,2.396
			s1.271,0.827,2.212,0.827c0.338,0,0.668-0.037,0.992-0.112c0.323-0.075,0.616-0.171,0.877-0.289
			c0.277-0.123,0.512-0.242,0.702-0.357s0.348-0.224,0.474-0.326h0.09v1.647c-0.18,0.07-0.403,0.157-0.67,0.262
			s-0.506,0.187-0.718,0.245c-0.3,0.08-0.57,0.142-0.813,0.185S306.748,339,306.378,339z M308.174,333.302
			c-0.012-0.407-0.061-0.758-0.147-1.053c-0.087-0.294-0.212-0.544-0.375-0.747c-0.18-0.226-0.41-0.396-0.69-0.515
			c-0.28-0.117-0.627-0.177-1.04-0.177c-0.408,0-0.755,0.061-1.041,0.181c-0.286,0.121-0.545,0.297-0.779,0.526
			c-0.229,0.236-0.403,0.497-0.522,0.784c-0.12,0.286-0.196,0.62-0.229,1H308.174z"/>
		<path d="M316.221,342.103h-1.869c-0.946-1.109-1.69-2.283-2.232-3.521c-0.541-1.237-0.812-2.7-0.812-4.388
			c0-1.65,0.268-3.104,0.804-4.36c0.536-1.256,1.282-2.438,2.24-3.548h1.869v0.08c-0.44,0.392-0.861,0.843-1.261,1.354
			c-0.4,0.512-0.771,1.107-1.114,1.788c-0.326,0.659-0.592,1.385-0.796,2.178s-0.306,1.629-0.306,2.508
			c0,0.916,0.099,1.755,0.298,2.516c0.198,0.761,0.466,1.483,0.804,2.17c0.326,0.658,0.699,1.255,1.118,1.788
			c0.419,0.532,0.838,0.984,1.257,1.354V342.103z"/>
		<path d="M322.024,334.194c0,1.655-0.27,3.11-0.808,4.363c-0.539,1.254-1.284,2.436-2.237,3.545h-1.869v-0.081
			c0.419-0.369,0.841-0.823,1.266-1.362c0.425-0.538,0.794-1.132,1.11-1.779c0.337-0.691,0.604-1.422,0.804-2.19
			c0.198-0.769,0.298-1.601,0.298-2.495c0-0.884-0.101-1.72-0.302-2.508c-0.201-0.787-0.469-1.514-0.8-2.178
			c-0.332-0.664-0.708-1.262-1.127-1.792s-0.835-0.98-1.249-1.351v-0.08h1.869c0.947,1.109,1.691,2.288,2.232,3.536
			C321.754,331.07,322.024,332.528,322.024,334.194z"/>
		<path d="M334.392,341.941h-0.946c-0.975,0-1.737-0.264-2.29-0.792c-0.552-0.527-0.828-1.301-0.828-2.318v-1.197
			c0-0.37-0.035-0.742-0.106-1.117c-0.07-0.375-0.207-0.696-0.408-0.964c-0.201-0.269-0.464-0.471-0.787-0.607
			c-0.324-0.137-0.726-0.205-1.204-0.205h-0.172v-1.253h0.172c0.479,0,0.88-0.068,1.204-0.205c0.323-0.137,0.586-0.339,0.787-0.607
			c0.201-0.268,0.338-0.589,0.408-0.964c0.071-0.375,0.106-0.747,0.106-1.117v-1.197c0-1.019,0.276-1.791,0.828-2.318
			c0.553-0.528,1.315-0.792,2.29-0.792h0.946v1.109h-0.652c-0.321,0-0.599,0.032-0.833,0.096c-0.234,0.064-0.436,0.175-0.604,0.33
			c-0.175,0.16-0.304,0.383-0.388,0.667c-0.085,0.284-0.127,0.632-0.127,1.045v1.406c0,0.439-0.052,0.809-0.155,1.108
			c-0.104,0.301-0.256,0.582-0.457,0.845c-0.18,0.235-0.413,0.451-0.702,0.646c-0.288,0.195-0.587,0.355-0.897,0.479v0.192
			c0.311,0.123,0.608,0.283,0.894,0.479c0.286,0.195,0.521,0.411,0.706,0.646c0.201,0.263,0.354,0.544,0.457,0.844
			c0.104,0.301,0.155,0.67,0.155,1.109v1.406c0,0.413,0.042,0.761,0.127,1.045c0.084,0.284,0.213,0.507,0.388,0.667
			c0.163,0.155,0.362,0.266,0.6,0.33c0.236,0.063,0.516,0.096,0.837,0.096h0.652V341.941z"/>
	</g>
	<g>
		<path d="M287.5,353.877h-0.082c-0.114-0.032-0.235-0.052-0.363-0.061c-0.128-0.008-0.281-0.012-0.461-0.012
			c-0.414,0-0.825,0.089-1.232,0.266c-0.408,0.177-0.795,0.438-1.159,0.787v6.373h-1.535v-8.977h1.535v1.334
			c0.561-0.487,1.049-0.832,1.465-1.033c0.416-0.2,0.82-0.301,1.212-0.301c0.158,0,0.276,0.004,0.355,0.012
			c0.079,0.008,0.167,0.021,0.265,0.036V353.877z"/>
		<path d="M292.701,361.439c-1.453,0-2.581-0.403-3.383-1.21c-0.803-0.806-1.204-1.951-1.204-3.436c0-1.462,0.389-2.626,1.167-3.491
			c0.778-0.865,1.795-1.298,3.052-1.298c0.566,0,1.067,0.08,1.502,0.24c0.436,0.161,0.816,0.413,1.143,0.756
			c0.327,0.343,0.577,0.763,0.751,1.258c0.174,0.495,0.261,1.103,0.261,1.82v0.819h-6.317c0,1.045,0.267,1.844,0.8,2.396
			s1.271,0.827,2.212,0.827c0.337,0,0.668-0.037,0.992-0.112s0.616-0.171,0.877-0.289c0.278-0.123,0.512-0.242,0.702-0.357
			s0.348-0.224,0.473-0.326h0.09v1.647c-0.18,0.07-0.403,0.157-0.669,0.262c-0.267,0.104-0.506,0.187-0.719,0.245
			c-0.299,0.08-0.57,0.142-0.812,0.185S293.071,361.439,292.701,361.439z M294.497,355.741c-0.011-0.407-0.06-0.758-0.147-1.053
			c-0.087-0.294-0.212-0.544-0.375-0.747c-0.179-0.226-0.409-0.396-0.689-0.515c-0.28-0.117-0.627-0.177-1.041-0.177
			c-0.408,0-0.755,0.061-1.041,0.181c-0.286,0.121-0.545,0.297-0.779,0.526c-0.229,0.236-0.403,0.497-0.522,0.784
			c-0.12,0.286-0.196,0.62-0.229,1H294.497z"/>
		<path d="M300.618,361.407c-0.838,0-1.491-0.234-1.958-0.703c-0.468-0.469-0.702-1.21-0.702-2.222v-4.976h-1.037v-1.253h1.037
			v-2.58h1.535v2.58h2.824v1.253h-2.824v4.268c0,0.456,0.008,0.807,0.024,1.053c0.016,0.247,0.079,0.478,0.188,0.691
			c0.093,0.188,0.242,0.328,0.449,0.422c0.207,0.094,0.487,0.141,0.84,0.141c0.25,0,0.493-0.036,0.727-0.108
			s0.403-0.133,0.506-0.181h0.09v1.358c-0.288,0.08-0.581,0.143-0.877,0.188C301.142,361.385,300.868,361.407,300.618,361.407z"/>
		<path d="M311.036,361.23h-1.535v-0.996c-0.473,0.407-0.922,0.716-1.347,0.928c-0.424,0.212-0.897,0.317-1.42,0.317
			c-0.397,0-0.771-0.064-1.122-0.192c-0.351-0.129-0.657-0.333-0.918-0.611s-0.464-0.629-0.608-1.053
			c-0.145-0.423-0.216-0.938-0.216-1.543v-5.826h1.534v5.111c0,0.477,0.018,0.872,0.053,1.185c0.035,0.313,0.116,0.589,0.241,0.824
			c0.125,0.23,0.295,0.399,0.51,0.506c0.215,0.107,0.523,0.161,0.927,0.161c0.375,0,0.775-0.104,1.199-0.313
			c0.425-0.209,0.813-0.466,1.167-0.771v-6.702h1.535V361.23z"/>
		<path d="M317.888,353.877h-0.082c-0.114-0.032-0.235-0.052-0.363-0.061c-0.128-0.008-0.281-0.012-0.461-0.012
			c-0.414,0-0.824,0.089-1.232,0.266s-0.795,0.438-1.159,0.787v6.373h-1.534v-8.977h1.534v1.334
			c0.561-0.487,1.049-0.832,1.465-1.033c0.417-0.2,0.82-0.301,1.212-0.301c0.158,0,0.276,0.004,0.355,0.012s0.167,0.021,0.266,0.036
			V353.877z"/>
		<path d="M326.296,361.23h-1.534v-5.111c0-0.412-0.021-0.797-0.062-1.153s-0.118-0.642-0.232-0.855
			c-0.125-0.226-0.3-0.393-0.522-0.503c-0.224-0.109-0.528-0.164-0.914-0.164c-0.381,0-0.774,0.101-1.18,0.301
			c-0.405,0.201-0.801,0.462-1.188,0.784v6.702h-1.534v-8.977h1.534v0.996c0.457-0.401,0.908-0.71,1.354-0.924
			c0.446-0.215,0.917-0.321,1.412-0.321c0.898,0,1.601,0.29,2.106,0.871c0.506,0.582,0.759,1.425,0.759,2.528V361.23z"/>
		<path d="M337.654,348.726l-4.759,15.108h-1.38l4.734-15.108H337.654z"/>
		<path d="M343.744,348.726l-4.759,15.108h-1.38l4.734-15.108H343.744z"/>
		<path d="M348.626,361.432c-0.626,0-1.2-0.096-1.723-0.285c-0.522-0.19-0.971-0.479-1.347-0.864
			c-0.375-0.386-0.667-0.872-0.873-1.459c-0.207-0.586-0.311-1.276-0.311-2.069c0-0.787,0.107-1.468,0.322-2.041
			s0.502-1.056,0.861-1.446c0.359-0.392,0.807-0.692,1.343-0.904s1.111-0.317,1.727-0.317c0.5,0,0.983,0.069,1.448,0.209
			c0.466,0.139,0.88,0.3,1.245,0.481v1.696h-0.09c-0.109-0.091-0.249-0.195-0.421-0.313c-0.171-0.118-0.379-0.238-0.624-0.361
			c-0.212-0.107-0.463-0.201-0.751-0.281c-0.288-0.081-0.565-0.121-0.832-0.121c-0.795,0-1.433,0.296-1.914,0.888
			c-0.481,0.593-0.723,1.43-0.723,2.512c0,1.061,0.232,1.888,0.698,2.479c0.465,0.592,1.111,0.888,1.938,0.888
			c0.5,0,0.977-0.102,1.428-0.305c0.452-0.204,0.852-0.467,1.2-0.788h0.09v1.696c-0.152,0.069-0.343,0.153-0.571,0.253
			c-0.229,0.099-0.436,0.173-0.62,0.221c-0.262,0.075-0.496,0.133-0.702,0.173C349.219,361.411,348.952,361.432,348.626,361.432z"/>
		<path d="M360.116,356.746c0,1.511-0.37,2.678-1.11,3.5s-1.725,1.233-2.955,1.233c-1.268,0-2.265-0.425-2.991-1.273
			c-0.727-0.85-1.09-2.003-1.09-3.46c0-1.5,0.374-2.665,1.123-3.496c0.748-0.83,1.734-1.245,2.958-1.245
			c1.23,0,2.215,0.413,2.955,1.241S360.116,355.24,360.116,356.746z M358.532,356.746c0-1.162-0.215-2.026-0.645-2.592
			s-1.042-0.848-1.837-0.848c-0.8,0-1.416,0.282-1.849,0.848s-0.648,1.43-0.648,2.592c0,1.125,0.216,1.979,0.648,2.56
			s1.049,0.872,1.849,0.872c0.789,0,1.4-0.285,1.833-0.855C358.316,358.751,358.532,357.893,358.532,356.746z"/>
		<path d="M368.891,361.23h-1.534v-5.111c0-0.412-0.021-0.797-0.062-1.153s-0.118-0.642-0.232-0.855
			c-0.125-0.226-0.3-0.393-0.522-0.503c-0.224-0.109-0.528-0.164-0.914-0.164c-0.381,0-0.774,0.101-1.18,0.301
			c-0.405,0.201-0.801,0.462-1.188,0.784v6.702h-1.534v-8.977h1.534v0.996c0.457-0.401,0.908-0.71,1.354-0.924
			c0.446-0.215,0.917-0.321,1.412-0.321c0.898,0,1.601,0.29,2.106,0.871c0.506,0.582,0.759,1.425,0.759,2.528V361.23z"/>
		<path d="M373.311,361.447c-0.609,0-1.18-0.08-1.71-0.241c-0.53-0.16-0.97-0.332-1.318-0.514v-1.696h0.082
			c0.13,0.102,0.284,0.215,0.461,0.338s0.412,0.252,0.706,0.386c0.261,0.118,0.548,0.223,0.861,0.313
			c0.313,0.091,0.638,0.137,0.975,0.137c0.245,0,0.507-0.028,0.784-0.085c0.277-0.056,0.484-0.127,0.62-0.213
			c0.19-0.123,0.328-0.254,0.412-0.394s0.127-0.349,0.127-0.627c0-0.358-0.1-0.63-0.299-0.812c-0.198-0.183-0.551-0.335-1.057-0.458
			c-0.195-0.049-0.451-0.104-0.768-0.169c-0.315-0.064-0.606-0.134-0.873-0.209c-0.696-0.198-1.202-0.505-1.518-0.92
			c-0.316-0.415-0.474-0.918-0.474-1.507c0-0.81,0.31-1.468,0.931-1.978c0.62-0.509,1.444-0.763,2.473-0.763
			c0.506,0,1.015,0.062,1.526,0.185s0.941,0.278,1.29,0.466v1.615h-0.082c-0.392-0.306-0.828-0.546-1.31-0.723
			c-0.482-0.177-0.968-0.266-1.457-0.266c-0.507,0-0.934,0.104-1.282,0.313c-0.348,0.209-0.521,0.525-0.521,0.948
			c0,0.375,0.103,0.655,0.31,0.84s0.539,0.336,0.996,0.454c0.229,0.059,0.482,0.116,0.763,0.173c0.28,0.056,0.576,0.122,0.886,0.197
			c0.675,0.166,1.183,0.441,1.522,0.827s0.51,0.911,0.51,1.575c0,0.386-0.077,0.752-0.232,1.097
			c-0.155,0.346-0.382,0.643-0.682,0.889c-0.326,0.268-0.695,0.472-1.105,0.61C374.446,361.378,373.931,361.447,373.311,361.447z"/>
		<path d="M381.198,361.407c-0.838,0-1.491-0.234-1.959-0.703s-0.702-1.21-0.702-2.222v-4.976h-1.036v-1.253h1.036v-2.58h1.534v2.58
			h2.824v1.253h-2.824v4.268c0,0.456,0.009,0.807,0.024,1.053c0.017,0.247,0.079,0.478,0.188,0.691
			c0.092,0.188,0.241,0.328,0.448,0.422s0.487,0.141,0.841,0.141c0.25,0,0.492-0.036,0.727-0.108s0.402-0.133,0.506-0.181h0.09
			v1.358c-0.288,0.08-0.581,0.143-0.877,0.188C381.722,361.385,381.448,361.407,381.198,361.407z"/>
		<path d="M389.347,353.877h-0.082c-0.114-0.032-0.235-0.052-0.363-0.061c-0.128-0.008-0.281-0.012-0.461-0.012
			c-0.414,0-0.824,0.089-1.232,0.266s-0.795,0.438-1.159,0.787v6.373h-1.534v-8.977h1.534v1.334
			c0.561-0.487,1.049-0.832,1.465-1.033c0.417-0.2,0.82-0.301,1.212-0.301c0.158,0,0.276,0.004,0.355,0.012s0.167,0.021,0.266,0.036
			V353.877z"/>
		<path d="M397.689,361.23h-1.534v-0.996c-0.474,0.407-0.923,0.716-1.347,0.928c-0.425,0.212-0.898,0.317-1.42,0.317
			c-0.397,0-0.771-0.064-1.123-0.192c-0.351-0.129-0.657-0.333-0.918-0.611s-0.464-0.629-0.608-1.053
			c-0.144-0.423-0.216-0.938-0.216-1.543v-5.826h1.534v5.111c0,0.477,0.018,0.872,0.053,1.185c0.036,0.313,0.116,0.589,0.241,0.824
			c0.125,0.23,0.295,0.399,0.51,0.506c0.215,0.107,0.524,0.161,0.927,0.161c0.376,0,0.775-0.104,1.2-0.313
			c0.424-0.209,0.813-0.466,1.167-0.771v-6.702h1.534V361.23z"/>
		<path d="M403.333,361.432c-0.626,0-1.2-0.096-1.723-0.285c-0.522-0.19-0.971-0.479-1.347-0.864
			c-0.375-0.386-0.667-0.872-0.873-1.459c-0.207-0.586-0.311-1.276-0.311-2.069c0-0.787,0.107-1.468,0.322-2.041
			s0.502-1.056,0.861-1.446c0.359-0.392,0.807-0.692,1.343-0.904s1.111-0.317,1.727-0.317c0.5,0,0.983,0.069,1.448,0.209
			c0.466,0.139,0.88,0.3,1.245,0.481v1.696h-0.09c-0.109-0.091-0.249-0.195-0.421-0.313c-0.171-0.118-0.379-0.238-0.624-0.361
			c-0.212-0.107-0.463-0.201-0.751-0.281c-0.288-0.081-0.565-0.121-0.832-0.121c-0.795,0-1.433,0.296-1.914,0.888
			c-0.481,0.593-0.723,1.43-0.723,2.512c0,1.061,0.232,1.888,0.698,2.479c0.465,0.592,1.111,0.888,1.938,0.888
			c0.5,0,0.977-0.102,1.428-0.305c0.452-0.204,0.852-0.467,1.2-0.788h0.09v1.696c-0.152,0.069-0.343,0.153-0.571,0.253
			c-0.229,0.099-0.436,0.173-0.62,0.221c-0.262,0.075-0.496,0.133-0.702,0.173C403.926,361.411,403.659,361.432,403.333,361.432z"/>
		<path d="M410.081,361.407c-0.838,0-1.491-0.234-1.959-0.703s-0.702-1.21-0.702-2.222v-4.976h-1.036v-1.253h1.036v-2.58h1.534v2.58
			h2.824v1.253h-2.824v4.268c0,0.456,0.009,0.807,0.024,1.053c0.017,0.247,0.079,0.478,0.188,0.691
			c0.092,0.188,0.241,0.328,0.448,0.422s0.487,0.141,0.841,0.141c0.25,0,0.492-0.036,0.727-0.108s0.402-0.133,0.506-0.181h0.09
			v1.358c-0.288,0.08-0.581,0.143-0.877,0.188C410.604,361.385,410.331,361.407,410.081,361.407z"/>
		<path d="M417.356,361.439c-1.452,0-2.58-0.403-3.383-1.21c-0.803-0.806-1.204-1.951-1.204-3.436c0-1.462,0.389-2.626,1.167-3.491
			s1.796-1.298,3.053-1.298c0.566,0,1.066,0.08,1.502,0.24c0.436,0.161,0.816,0.413,1.143,0.756
			c0.327,0.343,0.577,0.763,0.751,1.258s0.262,1.103,0.262,1.82v0.819h-6.317c0,1.045,0.266,1.844,0.8,2.396
			c0.533,0.552,1.271,0.827,2.212,0.827c0.337,0,0.668-0.037,0.991-0.112c0.324-0.075,0.616-0.171,0.878-0.289
			c0.277-0.123,0.511-0.242,0.701-0.357s0.349-0.224,0.474-0.326h0.09v1.647c-0.18,0.07-0.402,0.157-0.669,0.262
			s-0.506,0.187-0.719,0.245c-0.299,0.08-0.57,0.142-0.812,0.185C418.033,361.418,417.727,361.439,417.356,361.439z
			 M419.152,355.741c-0.011-0.407-0.06-0.758-0.146-1.053c-0.088-0.294-0.213-0.544-0.376-0.747
			c-0.18-0.226-0.409-0.396-0.689-0.515c-0.28-0.117-0.627-0.177-1.041-0.177c-0.408,0-0.755,0.061-1.04,0.181
			c-0.286,0.121-0.546,0.297-0.78,0.526c-0.229,0.236-0.402,0.497-0.521,0.784c-0.12,0.286-0.196,0.62-0.229,1H419.152z"/>
		<path d="M429.615,361.23h-1.534v-0.996c-0.474,0.407-0.923,0.716-1.347,0.928c-0.425,0.212-0.898,0.317-1.42,0.317
			c-0.397,0-0.771-0.064-1.123-0.192c-0.351-0.129-0.657-0.333-0.918-0.611s-0.464-0.629-0.608-1.053
			c-0.144-0.423-0.216-0.938-0.216-1.543v-5.826h1.534v5.111c0,0.477,0.018,0.872,0.053,1.185c0.036,0.313,0.116,0.589,0.241,0.824
			c0.125,0.23,0.295,0.399,0.51,0.506c0.215,0.107,0.524,0.161,0.927,0.161c0.376,0,0.775-0.104,1.2-0.313
			c0.424-0.209,0.813-0.466,1.167-0.771v-6.702h1.534V361.23z"/>
		<path d="M436.467,353.877h-0.082c-0.114-0.032-0.235-0.052-0.363-0.061c-0.128-0.008-0.281-0.012-0.461-0.012
			c-0.414,0-0.824,0.089-1.232,0.266s-0.795,0.438-1.159,0.787v6.373h-1.534v-8.977h1.534v1.334
			c0.561-0.487,1.049-0.832,1.465-1.033c0.417-0.2,0.82-0.301,1.212-0.301c0.158,0,0.276,0.004,0.355,0.012s0.167,0.021,0.266,0.036
			V353.877z"/>
		<path d="M449.928,356.505c0,1.495-0.363,2.686-1.09,3.572c-0.726,0.887-1.645,1.33-2.754,1.33c-0.452,0-0.853-0.051-1.2-0.152
			c-0.349-0.102-0.705-0.26-1.069-0.475v3.762h-1.534v-12.288h1.534v0.94c0.381-0.338,0.804-0.62,1.27-0.849
			c0.465-0.228,0.973-0.341,1.521-0.341c1.045,0,1.86,0.407,2.445,1.221C449.636,354.04,449.928,355.134,449.928,356.505z
			 M448.345,356.674c0-1.023-0.166-1.817-0.498-2.383s-0.871-0.848-1.616-0.848c-0.436,0-0.855,0.095-1.261,0.285
			s-0.791,0.436-1.155,0.735v5.087c0.402,0.193,0.747,0.324,1.032,0.394c0.286,0.07,0.613,0.104,0.983,0.104
			c0.795,0,1.412-0.286,1.854-0.859C448.124,358.616,448.345,357.777,448.345,356.674z"/>
		<path d="M456.496,360.274c-0.125,0.091-0.292,0.218-0.502,0.382c-0.209,0.163-0.412,0.293-0.608,0.39
			c-0.271,0.139-0.534,0.246-0.787,0.321s-0.608,0.112-1.065,0.112c-0.375,0-0.731-0.069-1.069-0.209
			c-0.337-0.139-0.634-0.335-0.89-0.587c-0.245-0.246-0.44-0.55-0.588-0.912c-0.146-0.361-0.22-0.743-0.22-1.145
			c0-0.622,0.133-1.15,0.399-1.588c0.267-0.437,0.688-0.783,1.266-1.04c0.511-0.23,1.115-0.391,1.812-0.479
			c0.696-0.089,1.447-0.154,2.253-0.197v-0.289c0-0.354-0.055-0.639-0.163-0.855c-0.109-0.218-0.262-0.385-0.457-0.503
			c-0.196-0.123-0.436-0.205-0.719-0.245c-0.282-0.04-0.574-0.06-0.873-0.06c-0.354,0-0.77,0.052-1.249,0.156
			c-0.479,0.104-0.957,0.256-1.437,0.454h-0.09v-1.535c0.283-0.08,0.688-0.169,1.217-0.265c0.527-0.097,1.05-0.145,1.566-0.145
			c0.626,0,1.154,0.048,1.584,0.145c0.43,0.096,0.816,0.271,1.159,0.522c0.332,0.246,0.579,0.564,0.742,0.956
			c0.163,0.391,0.245,0.868,0.245,1.431v6.14h-1.526V360.274z M456.496,359.021v-2.491c-0.364,0.032-0.825,0.076-1.384,0.133
			c-0.558,0.056-1.008,0.135-1.351,0.236c-0.408,0.124-0.745,0.313-1.012,0.567c-0.267,0.254-0.4,0.609-0.4,1.064
			c0,0.515,0.147,0.902,0.441,1.165c0.293,0.263,0.724,0.394,1.289,0.394c0.484,0,0.923-0.103,1.314-0.309
			C455.786,359.573,456.153,359.32,456.496,359.021z"/>
		<path d="M465.344,353.877h-0.082c-0.114-0.032-0.235-0.052-0.363-0.061c-0.128-0.008-0.281-0.012-0.461-0.012
			c-0.414,0-0.824,0.089-1.232,0.266s-0.795,0.438-1.159,0.787v6.373h-1.534v-8.977h1.534v1.334
			c0.561-0.487,1.049-0.832,1.465-1.033c0.417-0.2,0.82-0.301,1.212-0.301c0.158,0,0.276,0.004,0.355,0.012s0.167,0.021,0.266,0.036
			V353.877z"/>
		<path d="M475.989,353.877h-0.082c-0.114-0.032-0.235-0.052-0.363-0.061c-0.128-0.008-0.281-0.012-0.461-0.012
			c-0.414,0-0.824,0.089-1.232,0.266s-0.795,0.438-1.159,0.787v6.373h-1.534v-8.977h1.534v1.334
			c0.561-0.487,1.049-0.832,1.465-1.033c0.417-0.2,0.82-0.301,1.212-0.301c0.158,0,0.276,0.004,0.355,0.012s0.167,0.021,0.266,0.036
			V353.877z"/>
		<path d="M481.189,361.439c-1.452,0-2.58-0.403-3.383-1.21c-0.803-0.806-1.204-1.951-1.204-3.436c0-1.462,0.389-2.626,1.167-3.491
			s1.796-1.298,3.053-1.298c0.566,0,1.066,0.08,1.502,0.24c0.436,0.161,0.816,0.413,1.143,0.756
			c0.327,0.343,0.577,0.763,0.751,1.258s0.262,1.103,0.262,1.82v0.819h-6.317c0,1.045,0.266,1.844,0.8,2.396
			c0.533,0.552,1.271,0.827,2.212,0.827c0.337,0,0.668-0.037,0.991-0.112c0.324-0.075,0.616-0.171,0.878-0.289
			c0.277-0.123,0.511-0.242,0.701-0.357s0.349-0.224,0.474-0.326h0.09v1.647c-0.18,0.07-0.402,0.157-0.669,0.262
			s-0.506,0.187-0.719,0.245c-0.299,0.08-0.57,0.142-0.812,0.185C481.866,361.418,481.56,361.439,481.189,361.439z M482.985,355.741
			c-0.011-0.407-0.06-0.758-0.146-1.053c-0.088-0.294-0.213-0.544-0.376-0.747c-0.18-0.226-0.409-0.396-0.689-0.515
			c-0.28-0.117-0.627-0.177-1.041-0.177c-0.408,0-0.755,0.061-1.04,0.181c-0.286,0.121-0.546,0.297-0.78,0.526
			c-0.229,0.236-0.402,0.497-0.521,0.784c-0.12,0.286-0.196,0.62-0.229,1H482.985z"/>
		<path d="M489.972,361.432c-0.626,0-1.2-0.096-1.723-0.285c-0.522-0.19-0.971-0.479-1.347-0.864
			c-0.375-0.386-0.667-0.872-0.873-1.459c-0.207-0.586-0.311-1.276-0.311-2.069c0-0.787,0.107-1.468,0.322-2.041
			s0.502-1.056,0.861-1.446c0.359-0.392,0.807-0.692,1.343-0.904s1.111-0.317,1.727-0.317c0.5,0,0.983,0.069,1.448,0.209
			c0.466,0.139,0.88,0.3,1.245,0.481v1.696h-0.09c-0.109-0.091-0.249-0.195-0.421-0.313c-0.171-0.118-0.379-0.238-0.624-0.361
			c-0.212-0.107-0.463-0.201-0.751-0.281c-0.288-0.081-0.565-0.121-0.832-0.121c-0.795,0-1.433,0.296-1.914,0.888
			c-0.481,0.593-0.723,1.43-0.723,2.512c0,1.061,0.232,1.888,0.698,2.479c0.465,0.592,1.111,0.888,1.938,0.888
			c0.5,0,0.977-0.102,1.428-0.305c0.452-0.204,0.852-0.467,1.2-0.788h0.09v1.696c-0.152,0.069-0.343,0.153-0.571,0.253
			c-0.229,0.099-0.436,0.173-0.62,0.221c-0.262,0.075-0.496,0.133-0.702,0.173C490.564,361.411,490.298,361.432,489.972,361.432z"/>
		<path d="M501.462,356.746c0,1.511-0.37,2.678-1.11,3.5s-1.725,1.233-2.955,1.233c-1.268,0-2.265-0.425-2.991-1.273
			c-0.727-0.85-1.09-2.003-1.09-3.46c0-1.5,0.374-2.665,1.123-3.496c0.748-0.83,1.734-1.245,2.958-1.245
			c1.23,0,2.215,0.413,2.955,1.241S501.462,355.24,501.462,356.746z M499.878,356.746c0-1.162-0.215-2.026-0.645-2.592
			s-1.042-0.848-1.837-0.848c-0.8,0-1.416,0.282-1.849,0.848s-0.648,1.43-0.648,2.592c0,1.125,0.216,1.979,0.648,2.56
			s1.049,0.872,1.849,0.872c0.789,0,1.4-0.285,1.833-0.855C499.662,358.751,499.878,357.893,499.878,356.746z"/>
		<path d="M510.718,356.505c0,1.495-0.363,2.686-1.09,3.572c-0.726,0.887-1.645,1.33-2.754,1.33c-0.452,0-0.853-0.051-1.2-0.152
			c-0.349-0.102-0.705-0.26-1.069-0.475v3.762h-1.534v-12.288h1.534v0.94c0.381-0.338,0.804-0.62,1.27-0.849
			c0.465-0.228,0.973-0.341,1.521-0.341c1.045,0,1.86,0.407,2.445,1.221C510.426,354.04,510.718,355.134,510.718,356.505z
			 M509.135,356.674c0-1.023-0.166-1.817-0.498-2.383s-0.871-0.848-1.616-0.848c-0.436,0-0.855,0.095-1.261,0.285
			s-0.791,0.436-1.155,0.735v5.087c0.402,0.193,0.747,0.324,1.032,0.394c0.286,0.07,0.613,0.104,0.983,0.104
			c0.795,0,1.412-0.286,1.854-0.859C508.914,358.616,509.135,357.777,509.135,356.674z"/>
		<path d="M513.866,350.751h-1.747v-1.567h1.747V350.751z M513.76,361.23h-1.534v-8.977h1.534V361.23z"/>
		<path d="M519.202,361.439c-1.452,0-2.58-0.403-3.383-1.21c-0.803-0.806-1.204-1.951-1.204-3.436c0-1.462,0.389-2.626,1.167-3.491
			s1.796-1.298,3.053-1.298c0.566,0,1.066,0.08,1.502,0.24c0.436,0.161,0.816,0.413,1.143,0.756
			c0.327,0.343,0.577,0.763,0.751,1.258s0.262,1.103,0.262,1.82v0.819h-6.317c0,1.045,0.266,1.844,0.8,2.396
			c0.533,0.552,1.271,0.827,2.212,0.827c0.337,0,0.668-0.037,0.991-0.112c0.324-0.075,0.616-0.171,0.878-0.289
			c0.277-0.123,0.511-0.242,0.701-0.357s0.349-0.224,0.474-0.326h0.09v1.647c-0.18,0.07-0.402,0.157-0.669,0.262
			s-0.506,0.187-0.719,0.245c-0.299,0.08-0.57,0.142-0.812,0.185C519.879,361.418,519.572,361.439,519.202,361.439z
			 M520.998,355.741c-0.011-0.407-0.06-0.758-0.146-1.053c-0.088-0.294-0.213-0.544-0.376-0.747
			c-0.18-0.226-0.409-0.396-0.689-0.515c-0.28-0.117-0.627-0.177-1.041-0.177c-0.408,0-0.755,0.061-1.04,0.181
			c-0.286,0.121-0.546,0.297-0.78,0.526c-0.229,0.236-0.402,0.497-0.521,0.784c-0.12,0.286-0.196,0.62-0.229,1H520.998z"/>
	</g>
	<g>
		<path d="M279.957,379.618h-0.171c-0.479,0-0.88,0.068-1.204,0.205s-0.586,0.339-0.788,0.607c-0.202,0.268-0.337,0.589-0.408,0.964
			s-0.106,0.747-0.106,1.117v1.197c0,1.018-0.276,1.791-0.829,2.318c-0.552,0.528-1.315,0.792-2.29,0.792h-0.947v-1.109h0.653
			c0.321,0,0.599-0.032,0.833-0.096c0.234-0.064,0.435-0.175,0.604-0.33c0.174-0.16,0.304-0.383,0.388-0.667
			c0.084-0.284,0.126-0.632,0.126-1.045v-1.406c0-0.439,0.051-0.809,0.155-1.109c0.104-0.3,0.256-0.581,0.457-0.844
			c0.18-0.235,0.414-0.451,0.702-0.646c0.288-0.195,0.587-0.355,0.898-0.479v-0.192c-0.311-0.123-0.61-0.283-0.898-0.479
			c-0.289-0.195-0.522-0.411-0.702-0.646c-0.201-0.263-0.354-0.544-0.457-0.845c-0.104-0.3-0.155-0.669-0.155-1.108v-1.406
			c0-0.413-0.042-0.761-0.126-1.045c-0.084-0.284-0.214-0.507-0.388-0.667c-0.168-0.155-0.37-0.266-0.604-0.33
			c-0.234-0.063-0.512-0.096-0.833-0.096h-0.653v-1.109h0.947c0.974,0,1.737,0.264,2.29,0.792c0.552,0.527,0.829,1.3,0.829,2.318
			v1.197c0,0.37,0.035,0.742,0.106,1.117s0.207,0.696,0.408,0.964c0.201,0.269,0.464,0.471,0.788,0.607s0.725,0.205,1.204,0.205
			h0.171V379.618z"/>
	</g>
	
		<line fill="none" stroke="#800000" stroke-width="0.7559" stroke-linecap="square" stroke-miterlimit="10" stroke-dasharray="0.7677,1.5354" x1="82.463" y1="91.906" x2="82.463" y2="118.839"/>
	
		<line fill="none" stroke="#800000" stroke-width="0.7559" stroke-linecap="square" stroke-miterlimit="10" stroke-dasharray="0.7677,1.5354" x1="337.763" y1="259.488" x2="377.274" y2="316.347"/>
	
		<line fill="none" stroke="#800000" stroke-width="0.7559" stroke-linecap="square" stroke-miterlimit="10" stroke-dasharray="0.7677,1.5354" x1="480.609" y1="259.488" x2="435.021" y2="316.347"/>
</g>
</svg>
