<?xml version="1.0" encoding="utf-8"?>
<!-- Generator: Adobe Illustrator 15.0.0, SVG Export Plug-In . SVG Version: 6.00 Build 0)  -->
<!DOCTYPE svg PUBLIC "-//W3C//DTD SVG 1.1//EN" "http://www.w3.org/Graphics/SVG/1.1/DTD/svg11.dtd">
<svg version="1.1" id="Calque_1" xmlns="http://www.w3.org/2000/svg" xmlns:xlink="http://www.w3.org/1999/xlink" x="0px" y="0px"
	 width="612px" height="294px" viewBox="0 0 612 294" enable-background="new 0 0 612 294" xml:space="preserve">
<g>
	
		<rect x="8" y="6.288" fill-rule="evenodd" clip-rule="evenodd" fill="#FFFFB9" stroke="#800000" stroke-width="0.7559" stroke-linecap="square" stroke-miterlimit="10" width="130.797" height="89.159"/>
	<g>
		<path d="M38.643,31.313c-2.012,0-3.609-0.599-4.792-1.796c-1.183-1.197-1.774-2.881-1.774-5.05c0-2.093,0.593-3.762,1.779-5.006
			c1.186-1.244,2.785-1.867,4.796-1.867c0.535,0,1.015,0.03,1.441,0.089c0.426,0.059,0.834,0.142,1.225,0.248
			c0.306,0.089,0.64,0.21,1,0.364s0.651,0.287,0.874,0.399v3.148h-0.342c-0.162-0.142-0.366-0.312-0.612-0.51
			c-0.247-0.198-0.526-0.392-0.838-0.581c-0.312-0.189-0.656-0.351-1.031-0.483c-0.375-0.133-0.767-0.2-1.175-0.2
			c-0.486,0-0.932,0.076-1.337,0.226c-0.405,0.151-0.792,0.413-1.157,0.785c-0.336,0.337-0.611,0.792-0.824,1.366
			c-0.213,0.573-0.32,1.25-0.32,2.031c0,0.822,0.111,1.512,0.333,2.071c0.222,0.559,0.514,1.009,0.874,1.352
			c0.348,0.332,0.737,0.571,1.166,0.718c0.429,0.148,0.857,0.222,1.284,0.222c0.444,0,0.868-0.073,1.27-0.217
			c0.402-0.145,0.741-0.306,1.018-0.483c0.3-0.183,0.564-0.37,0.792-0.559c0.229-0.189,0.426-0.358,0.595-0.506h0.306v3.104
			c-0.246,0.112-0.531,0.241-0.855,0.386s-0.658,0.268-1,0.368c-0.42,0.124-0.813,0.219-1.18,0.284
			C39.79,31.28,39.286,31.313,38.643,31.313z"/>
		<path d="M54.13,26.081c0,1.638-0.455,2.928-1.364,3.871s-2.196,1.415-3.859,1.415c-1.651,0-2.935-0.472-3.851-1.415
			s-1.374-2.233-1.374-3.871c0-1.655,0.458-2.952,1.374-3.889s2.199-1.406,3.851-1.406c1.657,0,2.942,0.472,3.854,1.415
			C53.674,23.144,54.13,24.437,54.13,26.081z M50.896,26.098c0-0.591-0.049-1.083-0.148-1.477c-0.099-0.393-0.236-0.708-0.41-0.944
			c-0.187-0.248-0.396-0.421-0.631-0.519c-0.234-0.098-0.501-0.146-0.801-0.146c-0.282,0-0.538,0.043-0.766,0.128
			c-0.229,0.086-0.438,0.25-0.63,0.492c-0.18,0.231-0.324,0.547-0.433,0.949c-0.108,0.402-0.162,0.908-0.162,1.516
			c0,0.609,0.051,1.102,0.153,1.477c0.102,0.375,0.234,0.676,0.396,0.9c0.168,0.23,0.378,0.399,0.631,0.505
			c0.252,0.106,0.531,0.16,0.837,0.16c0.252,0,0.509-0.053,0.77-0.16s0.47-0.266,0.626-0.479c0.186-0.254,0.327-0.56,0.423-0.917
			C50.849,27.226,50.896,26.731,50.896,26.098z"/>
		<path d="M65.631,31.056h-3.17v-4.939c0-0.402-0.017-0.803-0.05-1.202c-0.033-0.399-0.094-0.693-0.185-0.882
			c-0.108-0.225-0.264-0.386-0.468-0.483s-0.478-0.146-0.82-0.146c-0.258,0-0.519,0.047-0.783,0.142
			c-0.265,0.095-0.546,0.245-0.847,0.452v7.059h-3.152v-9.959h3.152v1.1c0.516-0.431,1.019-0.769,1.508-1.011
			c0.49-0.243,1.031-0.364,1.626-0.364c1.033,0,1.822,0.321,2.369,0.962s0.82,1.571,0.82,2.789V31.056z"/>
		<path d="M71.781,31.251c-1.285,0-2.22-0.26-2.805-0.781c-0.585-0.52-0.878-1.372-0.878-2.554v-4.656H66.89v-2.164h1.207V18.25
			h3.152v2.847h3.035v2.164H71.25v3.529c0,0.349,0.003,0.653,0.009,0.914c0.006,0.26,0.054,0.494,0.144,0.701
			c0.084,0.207,0.232,0.371,0.446,0.492c0.213,0.121,0.523,0.182,0.932,0.182c0.168,0,0.389-0.036,0.662-0.106
			c0.273-0.071,0.464-0.136,0.572-0.195h0.27v2.19c-0.342,0.089-0.706,0.158-1.09,0.208S72.339,31.251,71.781,31.251z"/>
		<path d="M81.471,31.322c-1.909,0-3.373-0.449-4.391-1.348c-1.018-0.898-1.527-2.178-1.527-3.84c0-1.625,0.474-2.923,1.423-3.893
			c0.948-0.97,2.275-1.455,3.981-1.455c1.549,0,2.714,0.411,3.495,1.233c0.78,0.822,1.171,1.999,1.171,3.529v1.118h-6.908
			c0.03,0.461,0.129,0.847,0.297,1.157s0.391,0.557,0.667,0.74c0.271,0.184,0.585,0.315,0.946,0.395c0.36,0.08,0.753,0.12,1.18,0.12
			c0.366,0,0.726-0.04,1.081-0.12c0.354-0.08,0.678-0.185,0.973-0.315c0.258-0.112,0.497-0.233,0.716-0.364
			c0.219-0.13,0.397-0.245,0.536-0.346h0.333v2.563c-0.258,0.101-0.494,0.194-0.707,0.279c-0.213,0.086-0.506,0.173-0.878,0.262
			c-0.342,0.088-0.695,0.158-1.058,0.208S81.994,31.322,81.471,31.322z M82.516,24.795c-0.018-0.656-0.173-1.156-0.464-1.499
			c-0.292-0.343-0.737-0.514-1.337-0.514c-0.613,0-1.092,0.18-1.437,0.541c-0.345,0.36-0.536,0.851-0.572,1.472H82.516z"/>
		<path d="M97.999,31.056h-3.693l-1.928-2.864l-1.981,2.864h-3.621l3.72-4.975l-3.657-4.984h3.693l1.892,2.811l1.9-2.811h3.629
			l-3.666,4.904L97.999,31.056z"/>
		<path d="M103.614,31.251c-1.285,0-2.22-0.26-2.805-0.781c-0.585-0.52-0.878-1.372-0.878-2.554v-4.656h-1.207v-2.164h1.207V18.25
			h3.152v2.847h3.035v2.164h-3.035v3.529c0,0.349,0.003,0.653,0.009,0.914c0.006,0.26,0.054,0.494,0.144,0.701
			c0.084,0.207,0.232,0.371,0.446,0.492c0.213,0.121,0.523,0.182,0.932,0.182c0.168,0,0.389-0.036,0.662-0.106
			c0.273-0.071,0.464-0.136,0.572-0.195h0.27v2.19c-0.342,0.089-0.706,0.158-1.09,0.208S104.173,31.251,103.614,31.251z"/>
		<path d="M113.304,31.322c-1.909,0-3.373-0.449-4.391-1.348c-1.018-0.898-1.527-2.178-1.527-3.84c0-1.625,0.474-2.923,1.423-3.893
			c0.948-0.97,2.275-1.455,3.981-1.455c1.549,0,2.714,0.411,3.495,1.233c0.78,0.822,1.171,1.999,1.171,3.529v1.118h-6.908
			c0.03,0.461,0.129,0.847,0.297,1.157s0.391,0.557,0.667,0.74c0.271,0.184,0.585,0.315,0.946,0.395c0.36,0.08,0.753,0.12,1.18,0.12
			c0.366,0,0.726-0.04,1.081-0.12c0.354-0.08,0.678-0.185,0.973-0.315c0.258-0.112,0.497-0.233,0.716-0.364
			c0.219-0.13,0.397-0.245,0.536-0.346h0.333v2.563c-0.258,0.101-0.494,0.194-0.707,0.279c-0.213,0.086-0.506,0.173-0.878,0.262
			c-0.342,0.088-0.695,0.158-1.058,0.208S113.827,31.322,113.304,31.322z M114.349,24.795c-0.018-0.656-0.173-1.156-0.464-1.499
			c-0.292-0.343-0.737-0.514-1.337-0.514c-0.613,0-1.092,0.18-1.437,0.541c-0.345,0.36-0.536,0.851-0.572,1.472H114.349z"/>
	</g>
	
		<line fill="none" stroke="#800000" stroke-width="0.7559" stroke-linecap="square" stroke-miterlimit="10" x1="8" y1="42.611" x2="140.475" y2="42.611"/>
	<g>
		<path d="M28.376,77.176h-4.548v4.479h-1.495v-4.479h-4.548v-1.419h4.548v-4.478h1.495v4.478h4.548V77.176z"/>
		<path d="M36.347,74.135h-0.09c-0.126-0.036-0.26-0.058-0.401-0.066c-0.141-0.009-0.311-0.014-0.509-0.014
			c-0.457,0-0.91,0.098-1.36,0.293c-0.451,0.195-0.877,0.485-1.279,0.869v7.032h-1.693v-9.906h1.693v1.472
			c0.619-0.538,1.158-0.918,1.617-1.14c0.459-0.222,0.905-0.333,1.338-0.333c0.174,0,0.305,0.004,0.392,0.013
			s0.185,0.022,0.292,0.04V74.135z"/>
		<path d="M42.085,82.479c-1.604,0-2.848-0.445-3.733-1.334s-1.329-2.153-1.329-3.791c0-1.614,0.429-2.898,1.288-3.854
			c0.858-0.955,1.981-1.432,3.369-1.432c0.625,0,1.177,0.089,1.657,0.266c0.48,0.177,0.9,0.455,1.261,0.833s0.636,0.841,0.829,1.388
			c0.192,0.547,0.288,1.217,0.288,2.009v0.905h-6.971c0,1.153,0.294,2.034,0.883,2.643s1.402,0.914,2.441,0.914
			c0.372,0,0.737-0.042,1.094-0.125c0.357-0.083,0.68-0.189,0.968-0.319c0.306-0.136,0.564-0.268,0.774-0.395
			c0.21-0.127,0.384-0.247,0.522-0.359h0.099v1.818c-0.198,0.077-0.444,0.173-0.738,0.288c-0.294,0.115-0.559,0.206-0.793,0.271
			c-0.33,0.089-0.629,0.157-0.896,0.204S42.494,82.479,42.085,82.479z M44.067,76.192c-0.012-0.449-0.066-0.836-0.162-1.162
			c-0.096-0.325-0.234-0.6-0.415-0.825c-0.198-0.248-0.452-0.438-0.761-0.567c-0.31-0.13-0.692-0.195-1.148-0.195
			c-0.45,0-0.833,0.066-1.148,0.2c-0.315,0.133-0.602,0.327-0.86,0.581c-0.252,0.26-0.444,0.549-0.576,0.865
			c-0.132,0.316-0.216,0.685-0.252,1.104H44.067z"/>
		<path d="M55.523,85.903H53.83v-4.736c-0.492,0.443-0.973,0.767-1.441,0.971s-0.988,0.306-1.558,0.306
			c-1.141,0-2.051-0.451-2.729-1.353c-0.679-0.901-1.018-2.156-1.018-3.765c0-0.851,0.119-1.604,0.356-2.257
			s0.551-1.202,0.941-1.645c0.373-0.432,0.817-0.766,1.333-1.002c0.517-0.237,1.054-0.355,1.612-0.355
			c0.517,0,0.964,0.059,1.342,0.177c0.378,0.119,0.766,0.293,1.162,0.523l0.108-0.426h1.585V85.903z M53.83,79.766v-5.64
			c-0.426-0.207-0.808-0.352-1.144-0.435c-0.336-0.083-0.697-0.125-1.081-0.125c-0.889,0-1.573,0.316-2.054,0.949
			s-0.72,1.543-0.72,2.731c0,1.159,0.192,2.05,0.576,2.673c0.384,0.624,0.982,0.936,1.792,0.936c0.474,0,0.937-0.101,1.387-0.302
			C53.037,80.354,53.451,80.091,53.83,79.766z"/>
		<path d="M65.679,82.249h-1.693v-1.1c-0.522,0.449-1.018,0.791-1.486,1.024c-0.468,0.233-0.991,0.35-1.567,0.35
			c-0.438,0-0.852-0.071-1.239-0.213c-0.387-0.142-0.725-0.366-1.013-0.674s-0.512-0.695-0.671-1.162
			c-0.159-0.467-0.239-1.035-0.239-1.703v-6.43h1.693v5.64c0,0.526,0.02,0.962,0.059,1.308s0.127,0.649,0.266,0.909
			c0.138,0.254,0.326,0.44,0.563,0.559c0.237,0.118,0.578,0.177,1.022,0.177c0.415,0,0.856-0.115,1.324-0.346
			s0.897-0.515,1.288-0.852v-7.396h1.693V82.249z"/>
		<path d="M72.276,82.479c-1.604,0-2.848-0.445-3.733-1.334s-1.329-2.153-1.329-3.791c0-1.614,0.429-2.898,1.288-3.854
			c0.858-0.955,1.981-1.432,3.369-1.432c0.625,0,1.177,0.089,1.657,0.266c0.48,0.177,0.9,0.455,1.261,0.833s0.636,0.841,0.829,1.388
			c0.192,0.547,0.288,1.217,0.288,2.009v0.905h-6.971c0,1.153,0.294,2.034,0.883,2.643s1.402,0.914,2.441,0.914
			c0.372,0,0.737-0.042,1.094-0.125c0.357-0.083,0.68-0.189,0.968-0.319c0.306-0.136,0.564-0.268,0.774-0.395
			c0.21-0.127,0.384-0.247,0.522-0.359h0.099v1.818c-0.198,0.077-0.444,0.173-0.738,0.288c-0.294,0.115-0.559,0.206-0.793,0.271
			c-0.33,0.089-0.629,0.157-0.896,0.204S72.684,82.479,72.276,82.479z M74.257,76.192c-0.012-0.449-0.066-0.836-0.162-1.162
			c-0.096-0.325-0.234-0.6-0.415-0.825c-0.198-0.248-0.452-0.438-0.761-0.567c-0.31-0.13-0.692-0.195-1.148-0.195
			c-0.45,0-0.833,0.066-1.148,0.2c-0.315,0.133-0.602,0.327-0.86,0.581c-0.252,0.26-0.444,0.549-0.576,0.865
			c-0.132,0.316-0.216,0.685-0.252,1.104H74.257z"/>
		<path d="M81.012,82.444c-0.925,0-1.645-0.259-2.162-0.776c-0.516-0.517-0.774-1.334-0.774-2.452v-5.49h-1.144v-1.383h1.144v-2.847
			h1.693v2.847h3.116v1.383h-3.116v4.709c0,0.503,0.009,0.89,0.027,1.162s0.087,0.526,0.207,0.763
			c0.102,0.207,0.267,0.362,0.496,0.465c0.228,0.104,0.537,0.155,0.928,0.155c0.276,0,0.543-0.04,0.801-0.12
			c0.258-0.08,0.444-0.146,0.559-0.2h0.099v1.499c-0.318,0.089-0.641,0.158-0.968,0.208S81.288,82.444,81.012,82.444z"/>
		<path d="M89.041,82.479c-1.604,0-2.848-0.445-3.733-1.334s-1.329-2.153-1.329-3.791c0-1.614,0.429-2.898,1.288-3.854
			c0.858-0.955,1.981-1.432,3.369-1.432c0.625,0,1.177,0.089,1.657,0.266c0.48,0.177,0.9,0.455,1.261,0.833s0.636,0.841,0.829,1.388
			c0.192,0.547,0.288,1.217,0.288,2.009v0.905h-6.971c0,1.153,0.294,2.034,0.883,2.643s1.402,0.914,2.441,0.914
			c0.372,0,0.737-0.042,1.094-0.125c0.357-0.083,0.68-0.189,0.968-0.319c0.306-0.136,0.564-0.268,0.774-0.395
			c0.21-0.127,0.384-0.247,0.522-0.359h0.099v1.818c-0.198,0.077-0.444,0.173-0.738,0.288c-0.294,0.115-0.559,0.206-0.793,0.271
			c-0.33,0.089-0.629,0.157-0.896,0.204S89.449,82.479,89.041,82.479z M91.022,76.192c-0.012-0.449-0.066-0.836-0.162-1.162
			c-0.096-0.325-0.234-0.6-0.415-0.825c-0.198-0.248-0.452-0.438-0.761-0.567c-0.31-0.13-0.692-0.195-1.148-0.195
			c-0.45,0-0.833,0.066-1.148,0.2c-0.315,0.133-0.602,0.327-0.86,0.581c-0.252,0.26-0.444,0.549-0.576,0.865
			c-0.132,0.316-0.216,0.685-0.252,1.104H91.022z"/>
		<path d="M99.901,85.903h-2.063c-1.044-1.224-1.866-2.519-2.463-3.884c-0.597-1.366-0.896-2.98-0.896-4.842
			c0-1.821,0.296-3.424,0.887-4.811c0.591-1.386,1.416-2.691,2.472-3.915h2.063v0.089c-0.486,0.432-0.95,0.93-1.391,1.494
			c-0.441,0.564-0.852,1.222-1.229,1.973c-0.36,0.727-0.653,1.528-0.878,2.403s-0.337,1.797-0.337,2.767
			c0,1.011,0.109,1.937,0.329,2.776s0.515,1.638,0.887,2.395c0.36,0.727,0.771,1.385,1.234,1.973
			c0.462,0.588,0.924,1.086,1.387,1.494V85.903z"/>
		<path d="M106.306,77.176c0,1.827-0.297,3.432-0.892,4.815c-0.594,1.384-1.417,2.687-2.468,3.911h-2.063v-0.089
			c0.462-0.408,0.928-0.909,1.396-1.503s0.876-1.249,1.225-1.964c0.372-0.763,0.668-1.568,0.887-2.417
			c0.219-0.849,0.329-1.766,0.329-2.754c0-0.975-0.111-1.897-0.333-2.767s-0.516-1.67-0.882-2.403
			c-0.367-0.733-0.781-1.392-1.243-1.978s-0.922-1.082-1.378-1.49V68.45h2.063c1.045,1.224,1.866,2.524,2.463,3.902
			C106.007,73.73,106.306,75.338,106.306,77.176z"/>
	</g>
	
		<line fill="none" stroke="#800000" stroke-width="0.7559" stroke-linecap="square" stroke-miterlimit="10" x1="8" y1="57.471" x2="140.475" y2="57.471"/>
	
		<rect x="370.208" y="6.288" fill-rule="evenodd" clip-rule="evenodd" fill="#FFFFB9" stroke="#800000" stroke-width="0.7559" stroke-linecap="square" stroke-miterlimit="10" width="130.795" height="89.159"/>
	<g>
		<path stroke="#000000" stroke-width="0.2376" stroke-miterlimit="10" d="M418.518,31.047l4.471-13.204h8.385l-0.529,1.561h-6.602
			l-1.225,3.618h6.151l-0.528,1.561h-6.151l-1.66,4.904h6.602l-0.528,1.561H418.518z"/>
		<path stroke="#000000" stroke-width="0.2376" stroke-miterlimit="10" d="M431.433,31.242c-0.925,0-1.558-0.259-1.899-0.776
			s-0.322-1.334,0.056-2.452l1.858-5.489h-1.144l0.469-1.384h1.144l0.963-2.846h1.693l-0.963,2.846h3.116l-0.469,1.384h-3.116
			l-1.594,4.708c-0.17,0.503-0.293,0.891-0.366,1.162c-0.074,0.272-0.091,0.526-0.051,0.763c0.031,0.207,0.144,0.361,0.337,0.465
			c0.193,0.104,0.484,0.155,0.875,0.155c0.277,0,0.557-0.04,0.843-0.119c0.285-0.081,0.494-0.147,0.626-0.2h0.099l-0.507,1.499
			c-0.349,0.089-0.694,0.158-1.039,0.208C432.019,31.217,431.708,31.242,431.433,31.242z"/>
		<path stroke="#000000" stroke-width="0.2376" stroke-miterlimit="10" d="M442.814,29.992c-0.172,0.101-0.404,0.241-0.697,0.421
			c-0.292,0.181-0.563,0.323-0.815,0.429c-0.353,0.155-0.683,0.272-0.989,0.355c-0.308,0.082-0.713,0.124-1.218,0.124
			c-0.414,0-0.782-0.077-1.103-0.23c-0.319-0.153-0.574-0.369-0.762-0.647c-0.179-0.272-0.28-0.608-0.308-1.006
			c-0.026-0.399,0.034-0.82,0.185-1.264c0.232-0.686,0.577-1.27,1.034-1.752s1.053-0.865,1.784-1.148
			c0.65-0.254,1.377-0.43,2.179-0.528c0.802-0.097,1.654-0.169,2.56-0.218l0.107-0.319c0.133-0.391,0.18-0.705,0.141-0.944
			c-0.039-0.24-0.145-0.424-0.317-0.554c-0.17-0.136-0.404-0.226-0.701-0.27s-0.61-0.067-0.94-0.067
			c-0.391,0-0.869,0.058-1.438,0.173c-0.566,0.115-1.151,0.282-1.754,0.5h-0.1l0.573-1.693c0.343-0.089,0.823-0.186,1.44-0.292
			c0.619-0.106,1.214-0.16,1.784-0.16c0.69,0,1.255,0.054,1.692,0.16c0.439,0.106,0.801,0.299,1.085,0.576
			c0.274,0.272,0.429,0.624,0.462,1.056c0.035,0.431-0.054,0.958-0.264,1.578l-2.294,6.775h-1.685L442.814,29.992z M443.282,28.609
			l0.931-2.75c-0.414,0.036-0.939,0.085-1.576,0.147c-0.636,0.062-1.162,0.149-1.578,0.261c-0.496,0.137-0.939,0.345-1.329,0.625
			c-0.389,0.281-0.669,0.673-0.839,1.175c-0.192,0.567-0.176,0.997,0.051,1.286c0.227,0.29,0.651,0.435,1.275,0.435
			c0.535,0,1.058-0.114,1.566-0.341C442.293,29.219,442.792,28.94,443.282,28.609z"/>
		<path stroke="#000000" stroke-width="0.2376" stroke-miterlimit="10" d="M451.545,31.242c-0.925,0-1.558-0.259-1.899-0.776
			c-0.341-0.517-0.322-1.334,0.056-2.452l1.858-5.489h-1.144l0.469-1.384h1.144l0.964-2.846h1.693l-0.964,2.846h3.116l-0.469,1.384
			h-3.116l-1.594,4.708c-0.171,0.503-0.293,0.891-0.366,1.162c-0.074,0.272-0.091,0.526-0.051,0.763
			c0.031,0.207,0.144,0.361,0.338,0.465c0.193,0.104,0.484,0.155,0.875,0.155c0.275,0,0.556-0.04,0.842-0.119
			c0.285-0.081,0.494-0.147,0.626-0.2h0.099l-0.507,1.499c-0.349,0.089-0.694,0.158-1.038,0.208
			C452.131,31.217,451.82,31.242,451.545,31.242z"/>
	</g>
	
		<line fill="none" stroke="#800000" stroke-width="0.7559" stroke-linecap="square" stroke-miterlimit="10" x1="370.208" y1="42.611" x2="502.68" y2="42.611"/>
	<g>
		<path d="M392.322,77.164h-4.548l-1.517,4.479h-1.495l1.517-4.479h-4.549l0.48-1.419h4.549l1.516-4.478h1.495l-1.516,4.478h4.548
			L392.322,77.164z"/>
		<path d="M393.066,83.823c0.099,0.047,0.244,0.111,0.44,0.19c0.194,0.081,0.421,0.156,0.679,0.227
			c0.287,0.077,0.554,0.139,0.803,0.186c0.248,0.047,0.527,0.071,0.84,0.071c0.522,0,0.989-0.068,1.398-0.204
			c0.409-0.136,0.757-0.325,1.043-0.567c0.274-0.242,0.504-0.523,0.69-0.843c0.187-0.319,0.349-0.683,0.486-1.09l0.294-0.87
			c-0.588,0.391-1.133,0.679-1.635,0.865c-0.501,0.186-1.082,0.279-1.742,0.279c-1.146,0-1.918-0.42-2.313-1.26
			c-0.395-0.839-0.324-2.045,0.207-3.617c0.278-0.822,0.643-1.55,1.092-2.186c0.449-0.635,0.947-1.176,1.494-1.619
			c0.522-0.425,1.081-0.754,1.675-0.984c0.595-0.231,1.167-0.346,1.72-0.346c0.523,0,0.955,0.06,1.295,0.181
			c0.341,0.121,0.665,0.294,0.973,0.519l0.243-0.426h1.594l-2.972,8.779c-0.568,1.68-1.357,2.912-2.369,3.698
			c-1.011,0.786-2.281,1.179-3.813,1.179c-0.492,0-0.982-0.038-1.47-0.115s-0.932-0.18-1.331-0.311l0.588-1.738H393.066z
			 M400.206,79.549l1.841-5.436c-0.353-0.201-0.693-0.344-1.021-0.43c-0.328-0.085-0.669-0.128-1.023-0.128
			c-0.859,0-1.64,0.311-2.342,0.931c-0.703,0.621-1.25,1.511-1.643,2.67c-0.372,1.099-0.469,1.936-0.286,2.509
			c0.181,0.574,0.692,0.86,1.532,0.86c0.438,0,0.92-0.086,1.442-0.257C399.229,80.096,399.73,79.856,400.206,79.549z"/>
		<path d="M407.6,82.466c-1.602,0-2.696-0.445-3.28-1.334c-0.585-0.889-0.6-2.154-0.046-3.791c0.547-1.614,1.411-2.899,2.593-3.854
			s2.466-1.432,3.853-1.432c0.625,0,1.147,0.089,1.568,0.265c0.42,0.178,0.746,0.456,0.979,0.834
			c0.231,0.378,0.352,0.841,0.358,1.388c0.008,0.546-0.124,1.216-0.392,2.009l-0.307,0.904h-6.971
			c-0.39,1.154-0.395,2.034-0.012,2.643c0.382,0.61,1.092,0.914,2.131,0.914c0.373,0,0.752-0.042,1.137-0.124
			c0.385-0.083,0.744-0.189,1.076-0.319c0.353-0.136,0.655-0.269,0.908-0.395c0.253-0.127,0.469-0.247,0.645-0.359h0.1l-0.615,1.817
			c-0.225,0.077-0.504,0.173-0.838,0.289c-0.332,0.115-0.628,0.206-0.883,0.27c-0.361,0.089-0.684,0.157-0.966,0.205
			C408.354,82.443,408.008,82.466,407.6,82.466z M411.71,76.179c0.141-0.45,0.218-0.836,0.231-1.162
			c0.014-0.325-0.03-0.601-0.135-0.825c-0.114-0.248-0.305-0.438-0.568-0.567c-0.266-0.131-0.627-0.195-1.083-0.195
			c-0.45,0-0.855,0.066-1.216,0.2c-0.36,0.132-0.713,0.327-1.057,0.581c-0.341,0.26-0.631,0.547-0.869,0.864
			c-0.239,0.316-0.447,0.685-0.626,1.104H411.71z"/>
		<path d="M421.448,74.122h-0.09c-0.113-0.036-0.239-0.058-0.378-0.067s-0.307-0.014-0.504-0.014c-0.457,0-0.943,0.098-1.459,0.293
			c-0.517,0.195-1.041,0.484-1.574,0.868l-2.381,7.033h-1.693l3.354-9.906h1.693l-0.498,1.473c0.801-0.538,1.468-0.918,2.003-1.14
			c0.534-0.222,1.018-0.333,1.449-0.333c0.175,0,0.304,0.005,0.389,0.013c0.084,0.009,0.177,0.022,0.278,0.041L421.448,74.122z"/>
		<path d="M424.361,82.466c-1.602,0-2.696-0.445-3.28-1.334c-0.585-0.889-0.6-2.154-0.046-3.791
			c0.547-1.614,1.411-2.899,2.593-3.854s2.466-1.432,3.853-1.432c0.625,0,1.147,0.089,1.568,0.265
			c0.42,0.178,0.746,0.456,0.979,0.834c0.231,0.378,0.352,0.841,0.358,1.388c0.008,0.546-0.124,1.216-0.392,2.009l-0.307,0.904
			h-6.971c-0.39,1.154-0.395,2.034-0.012,2.643c0.382,0.61,1.092,0.914,2.131,0.914c0.373,0,0.752-0.042,1.137-0.124
			c0.385-0.083,0.744-0.189,1.076-0.319c0.353-0.136,0.655-0.269,0.908-0.395c0.253-0.127,0.469-0.247,0.645-0.359h0.1l-0.615,1.817
			c-0.225,0.077-0.504,0.173-0.838,0.289c-0.332,0.115-0.628,0.206-0.883,0.27c-0.361,0.089-0.684,0.157-0.966,0.205
			C425.115,82.443,424.77,82.466,424.361,82.466z M428.472,76.179c0.141-0.45,0.218-0.836,0.231-1.162
			c0.014-0.325-0.03-0.601-0.135-0.825c-0.114-0.248-0.305-0.438-0.568-0.567c-0.266-0.131-0.627-0.195-1.083-0.195
			c-0.45,0-0.855,0.066-1.216,0.2c-0.36,0.132-0.713,0.327-1.057,0.581c-0.341,0.26-0.631,0.547-0.869,0.864
			c-0.239,0.316-0.447,0.685-0.626,1.104H428.472z"/>
		<path d="M438.211,74.122h-0.09c-0.113-0.036-0.24-0.058-0.378-0.067s-0.307-0.014-0.504-0.014c-0.457,0-0.943,0.098-1.46,0.293
			c-0.516,0.195-1.041,0.484-1.573,0.868l-2.381,7.033h-1.693l3.354-9.906h1.693l-0.498,1.473c0.8-0.538,1.468-0.918,2.003-1.14
			c0.534-0.222,1.018-0.333,1.449-0.333c0.175,0,0.304,0.005,0.389,0.013c0.084,0.009,0.177,0.022,0.278,0.041L438.211,74.122z"/>
		<path d="M440.768,85.89h-2.063c-0.631-1.224-1.014-2.519-1.148-3.884c-0.135-1.366,0.112-2.98,0.743-4.842
			c0.616-1.821,1.455-3.424,2.517-4.811c1.06-1.387,2.326-2.692,3.797-3.916h2.063l-0.03,0.089c-0.632,0.432-1.265,0.93-1.897,1.495
			c-0.633,0.564-1.264,1.222-1.897,1.973c-0.606,0.727-1.17,1.528-1.691,2.403c-0.521,0.875-0.946,1.797-1.274,2.767
			c-0.343,1.011-0.546,1.936-0.611,2.776c-0.064,0.84-0.039,1.637,0.077,2.394c0.113,0.728,0.302,1.386,0.565,1.974
			s0.558,1.086,0.881,1.494L440.768,85.89z"/>
		<path d="M450.126,77.164c-0.618,1.827-1.46,3.432-2.522,4.815s-2.327,2.687-3.791,3.911h-2.063l0.03-0.089
			c0.601-0.408,1.235-0.909,1.904-1.503c0.67-0.594,1.301-1.249,1.891-1.965c0.631-0.762,1.198-1.568,1.705-2.416
			c0.506-0.848,0.926-1.766,1.261-2.753c0.33-0.976,0.532-1.898,0.604-2.767c0.073-0.869,0.049-1.67-0.069-2.403
			c-0.118-0.733-0.309-1.392-0.572-1.978c-0.266-0.585-0.556-1.083-0.875-1.49l0.03-0.089h2.063c0.63,1.224,1.011,2.524,1.142,3.902
			C450.994,73.717,450.748,75.325,450.126,77.164z"/>
	</g>
	
		<line fill="none" stroke="#800000" stroke-width="0.7559" stroke-linecap="square" stroke-miterlimit="10" x1="370.208" y1="57.471" x2="502.68" y2="57.471"/>
	
		<rect x="289.717" y="197.814" fill-rule="evenodd" clip-rule="evenodd" fill="#FFFFB9" stroke="#800000" stroke-width="0.7559" stroke-linecap="square" stroke-miterlimit="10" width="137.503" height="89.158"/>
	<g>
		<path d="M299.492,222.587v-13.205h9.07v2.519h-5.72v2.315h5.27v2.519h-5.27v3.334h5.72v2.519H299.492z"/>
		<path d="M313.261,222.782c-1.285,0-2.221-0.261-2.806-0.78c-0.586-0.521-0.878-1.372-0.878-2.555v-4.655h-1.207v-2.164h1.207
			v-2.847h3.152v2.847h3.035v2.164h-3.035v3.529c0,0.349,0.003,0.653,0.009,0.913c0.006,0.261,0.054,0.494,0.144,0.701
			c0.084,0.207,0.233,0.371,0.446,0.492s0.523,0.182,0.932,0.182c0.169,0,0.389-0.035,0.662-0.106s0.464-0.136,0.572-0.195h0.271
			v2.19c-0.343,0.089-0.706,0.158-1.09,0.209C314.29,222.757,313.819,222.782,313.261,222.782z"/>
		<path d="M323.347,221.531c-0.217,0.178-0.41,0.337-0.581,0.479c-0.171,0.142-0.4,0.283-0.689,0.426
			c-0.282,0.136-0.557,0.239-0.823,0.31c-0.268,0.071-0.642,0.106-1.122,0.106c-0.895,0-1.638-0.295-2.229-0.887
			c-0.592-0.591-0.888-1.336-0.888-2.234c0-0.739,0.15-1.336,0.45-1.791c0.301-0.456,0.732-0.816,1.297-1.082
			c0.57-0.272,1.252-0.462,2.045-0.567c0.793-0.106,1.646-0.189,2.558-0.249v-0.053c0-0.55-0.205-0.93-0.616-1.14
			c-0.412-0.21-1.028-0.315-1.852-0.315c-0.372,0-0.808,0.067-1.306,0.2c-0.499,0.133-0.985,0.303-1.459,0.51h-0.271v-2.403
			c0.313-0.089,0.816-0.193,1.514-0.314c0.696-0.121,1.398-0.183,2.107-0.183c1.741,0,3.01,0.286,3.805,0.856
			c0.796,0.57,1.193,1.44,1.193,2.611v6.775h-3.134V221.531z M323.347,219.988v-2.075c-0.534,0.054-0.967,0.1-1.297,0.138
			c-0.33,0.039-0.655,0.114-0.973,0.227c-0.276,0.095-0.491,0.237-0.645,0.43s-0.229,0.448-0.229,0.768
			c0,0.467,0.128,0.787,0.383,0.962s0.632,0.262,1.13,0.262c0.276,0,0.559-0.063,0.847-0.187
			C322.852,220.388,323.112,220.213,323.347,219.988z"/>
		<path d="M333.369,222.782c-1.285,0-2.221-0.261-2.806-0.78c-0.586-0.521-0.878-1.372-0.878-2.555v-4.655h-1.207v-2.164h1.207
			v-2.847h3.152v2.847h3.035v2.164h-3.035v3.529c0,0.349,0.003,0.653,0.009,0.913c0.006,0.261,0.054,0.494,0.144,0.701
			c0.084,0.207,0.233,0.371,0.446,0.492s0.523,0.182,0.932,0.182c0.169,0,0.389-0.035,0.662-0.106s0.464-0.136,0.572-0.195h0.271
			v2.19c-0.343,0.089-0.706,0.158-1.09,0.209C334.398,222.757,333.928,222.782,333.369,222.782z"/>
		<path d="M343.842,222.844c-2.011,0-3.608-0.599-4.791-1.796c-1.184-1.196-1.774-2.88-1.774-5.05c0-2.093,0.593-3.762,1.778-5.006
			c1.187-1.245,2.785-1.867,4.797-1.867c0.534,0,1.015,0.029,1.44,0.089c0.427,0.059,0.835,0.142,1.226,0.248
			c0.306,0.089,0.639,0.21,0.999,0.363c0.36,0.154,0.651,0.287,0.874,0.399v3.148h-0.343c-0.162-0.142-0.366-0.312-0.612-0.51
			s-0.525-0.392-0.837-0.581c-0.313-0.189-0.656-0.351-1.031-0.483c-0.376-0.133-0.768-0.199-1.176-0.199
			c-0.486,0-0.933,0.075-1.338,0.226c-0.405,0.151-0.791,0.412-1.157,0.785c-0.336,0.337-0.61,0.792-0.824,1.365
			c-0.213,0.574-0.319,1.251-0.319,2.031c0,0.821,0.111,1.512,0.333,2.07c0.223,0.559,0.514,1.01,0.874,1.353
			c0.348,0.331,0.737,0.57,1.166,0.719c0.43,0.147,0.857,0.222,1.283,0.222c0.444,0,0.868-0.072,1.271-0.218
			c0.402-0.145,0.741-0.306,1.018-0.483c0.3-0.183,0.564-0.369,0.793-0.559c0.228-0.188,0.426-0.357,0.594-0.505h0.307v3.104
			c-0.246,0.112-0.531,0.241-0.855,0.386s-0.657,0.268-1,0.368c-0.42,0.124-0.813,0.219-1.18,0.283
			C344.989,222.812,344.484,222.844,343.842,222.844z"/>
		<path d="M359.329,217.612c0,1.638-0.455,2.928-1.364,3.87c-0.91,0.943-2.196,1.415-3.859,1.415c-1.651,0-2.935-0.472-3.851-1.415
			c-0.916-0.942-1.373-2.232-1.373-3.87c0-1.655,0.457-2.952,1.373-3.889c0.916-0.938,2.199-1.406,3.851-1.406
			c1.657,0,2.942,0.472,3.854,1.415C358.873,214.675,359.329,215.969,359.329,217.612z M356.096,217.63
			c0-0.592-0.05-1.084-0.148-1.477c-0.1-0.394-0.235-0.708-0.41-0.944c-0.186-0.249-0.396-0.422-0.63-0.52
			c-0.234-0.098-0.502-0.146-0.802-0.146c-0.282,0-0.537,0.043-0.766,0.128c-0.229,0.086-0.438,0.25-0.631,0.492
			c-0.18,0.23-0.324,0.547-0.432,0.949c-0.108,0.402-0.162,0.907-0.162,1.517c0,0.608,0.051,1.101,0.152,1.477
			c0.103,0.375,0.234,0.675,0.396,0.899c0.168,0.231,0.379,0.399,0.631,0.506s0.531,0.16,0.838,0.16c0.252,0,0.509-0.054,0.77-0.16
			c0.262-0.106,0.47-0.266,0.626-0.479c0.187-0.255,0.327-0.561,0.424-0.918C356.048,218.758,356.096,218.263,356.096,217.63z"/>
		<path d="M370.83,222.587h-3.17v-4.939c0-0.402-0.017-0.803-0.05-1.202c-0.033-0.398-0.095-0.692-0.185-0.882
			c-0.108-0.225-0.265-0.386-0.469-0.483s-0.477-0.146-0.819-0.146c-0.258,0-0.52,0.048-0.783,0.142
			c-0.265,0.095-0.547,0.246-0.847,0.453v7.059h-3.152v-9.959h3.152v1.1c0.517-0.432,1.019-0.769,1.509-1.011
			c0.489-0.242,1.031-0.363,1.625-0.363c1.033,0,1.822,0.32,2.369,0.962c0.546,0.642,0.819,1.571,0.819,2.789V222.587z"/>
		<path d="M378.07,222.853c-0.835,0-1.599-0.104-2.293-0.31c-0.693-0.207-1.295-0.526-1.806-0.958
			c-0.504-0.432-0.897-0.974-1.18-1.628c-0.282-0.652-0.423-1.423-0.423-2.31c0-0.952,0.152-1.762,0.459-2.43
			s0.721-1.218,1.243-1.649c0.504-0.414,1.097-0.72,1.778-0.918s1.392-0.297,2.13-0.297c0.559,0,1.117,0.063,1.676,0.19
			s1.12,0.329,1.685,0.607v2.66h-0.405c-0.127-0.118-0.281-0.248-0.464-0.39c-0.184-0.143-0.383-0.272-0.6-0.391
			c-0.229-0.124-0.486-0.229-0.774-0.314c-0.288-0.086-0.609-0.129-0.964-0.129c-0.805,0-1.428,0.276-1.869,0.829
			c-0.44,0.553-0.661,1.296-0.661,2.23c0,0.999,0.235,1.744,0.707,2.234c0.471,0.491,1.097,0.736,1.878,0.736
			c0.396,0,0.744-0.044,1.044-0.133c0.301-0.089,0.559-0.195,0.775-0.319c0.21-0.124,0.39-0.253,0.54-0.386s0.279-0.253,0.388-0.359
			h0.405v2.66c-0.181,0.077-0.39,0.166-0.626,0.267c-0.237,0.101-0.479,0.184-0.726,0.248c-0.306,0.083-0.593,0.146-0.86,0.19
			C378.861,222.831,378.508,222.853,378.07,222.853z"/>
		<path d="M389.958,215.563h-0.262c-0.12-0.041-0.294-0.072-0.521-0.093c-0.229-0.021-0.48-0.031-0.757-0.031
			c-0.33,0-0.678,0.047-1.04,0.142c-0.364,0.095-0.717,0.207-1.059,0.337v6.669h-3.152v-9.959h3.152v1.428
			c0.144-0.13,0.344-0.294,0.599-0.492s0.488-0.356,0.698-0.475c0.229-0.136,0.494-0.253,0.797-0.35
			c0.304-0.098,0.59-0.146,0.86-0.146c0.102,0,0.216,0.003,0.342,0.009c0.127,0.006,0.24,0.015,0.343,0.026V215.563z"/>
		<path d="M396.713,222.853c-1.909,0-3.373-0.449-4.391-1.348s-1.526-2.179-1.526-3.84c0-1.626,0.474-2.924,1.423-3.893
			c0.948-0.97,2.275-1.455,3.98-1.455c1.55,0,2.714,0.411,3.495,1.232c0.78,0.822,1.171,1.999,1.171,3.53v1.117h-6.908
			c0.03,0.461,0.129,0.847,0.297,1.157s0.391,0.558,0.667,0.74c0.27,0.184,0.585,0.315,0.945,0.395c0.36,0.08,0.754,0.12,1.18,0.12
			c0.366,0,0.727-0.04,1.081-0.12c0.354-0.079,0.679-0.185,0.973-0.314c0.258-0.112,0.497-0.233,0.716-0.363
			c0.22-0.13,0.398-0.245,0.536-0.347h0.333v2.563c-0.258,0.101-0.494,0.193-0.707,0.279s-0.506,0.173-0.878,0.262
			c-0.342,0.089-0.695,0.158-1.059,0.208C397.678,222.828,397.235,222.853,396.713,222.853z M397.758,216.326
			c-0.019-0.656-0.173-1.156-0.464-1.499s-0.737-0.515-1.338-0.515c-0.612,0-1.091,0.181-1.437,0.541
			c-0.345,0.361-0.536,0.852-0.571,1.473H397.758z"/>
		<path d="M407.134,222.782c-1.285,0-2.221-0.261-2.806-0.78c-0.586-0.521-0.878-1.372-0.878-2.555v-4.655h-1.207v-2.164h1.207
			v-2.847h3.152v2.847h3.035v2.164h-3.035v3.529c0,0.349,0.003,0.653,0.009,0.913c0.006,0.261,0.054,0.494,0.144,0.701
			c0.084,0.207,0.233,0.371,0.446,0.492s0.523,0.182,0.932,0.182c0.169,0,0.389-0.035,0.662-0.106s0.464-0.136,0.572-0.195h0.271
			v2.19c-0.343,0.089-0.706,0.158-1.09,0.209C408.163,222.757,407.692,222.782,407.134,222.782z"/>
		<path d="M421.057,222.587h-8.863v-2.306h2.828v-6.979h-2.828v-2.154c0.415,0,0.826-0.027,1.234-0.08
			c0.408-0.054,0.735-0.139,0.981-0.258c0.288-0.142,0.512-0.332,0.671-0.571s0.251-0.537,0.275-0.892h2.936v10.935h2.766V222.587z"
			/>
	</g>
	
		<line fill="none" stroke="#800000" stroke-width="0.7559" stroke-linecap="square" stroke-miterlimit="10" x1="289.717" y1="234.139" x2="428.897" y2="234.139"/>
	<g>
		<path d="M310.11,268.708h-4.548v4.479h-1.495v-4.479h-4.548v-1.419h4.548v-4.479h1.495v4.479h4.548V268.708z"/>
		<path d="M313.109,275.367c0.114,0.048,0.282,0.111,0.505,0.191c0.222,0.079,0.474,0.155,0.756,0.226
			c0.313,0.077,0.601,0.139,0.865,0.187c0.264,0.047,0.552,0.071,0.864,0.071c0.522,0,0.966-0.068,1.329-0.204
			c0.363-0.137,0.646-0.325,0.851-0.567c0.192-0.243,0.327-0.523,0.405-0.843s0.117-0.683,0.117-1.091v-0.869
			c-0.456,0.391-0.903,0.679-1.342,0.864c-0.438,0.187-0.988,0.279-1.648,0.279c-1.146,0-2.06-0.419-2.738-1.259
			s-1.018-2.046-1.018-3.618c0-0.821,0.117-1.551,0.352-2.187c0.234-0.635,0.549-1.175,0.945-1.618
			c0.379-0.426,0.826-0.754,1.342-0.984c0.517-0.23,1.051-0.346,1.604-0.346c0.522,0,0.975,0.061,1.355,0.182
			c0.382,0.121,0.765,0.294,1.148,0.519l0.1-0.425h1.594v8.779c0,1.679-0.372,2.911-1.117,3.697c-0.744,0.787-1.882,1.18-3.413,1.18
			c-0.492,0-0.995-0.038-1.509-0.115s-0.992-0.181-1.437-0.311v-1.738H313.109z M318.802,271.093v-5.436
			c-0.42-0.201-0.81-0.345-1.166-0.431c-0.357-0.085-0.713-0.128-1.067-0.128c-0.859,0-1.534,0.311-2.026,0.931
			c-0.493,0.621-0.739,1.511-0.739,2.67c0,1.1,0.188,1.936,0.563,2.51c0.375,0.573,0.983,0.859,1.823,0.859
			c0.438,0,0.891-0.085,1.355-0.257C318.011,271.641,318.43,271.4,318.802,271.093z"/>
		<path d="M327.184,274.011c-1.603,0-2.848-0.444-3.732-1.335c-0.886-0.89-1.329-2.153-1.329-3.791c0-1.613,0.43-2.898,1.288-3.853
			c0.858-0.955,1.981-1.433,3.368-1.433c0.625,0,1.177,0.089,1.657,0.266c0.48,0.178,0.901,0.456,1.262,0.834
			c0.359,0.379,0.636,0.841,0.828,1.388s0.288,1.217,0.288,2.009V269h-6.971c0,1.153,0.294,2.034,0.883,2.643
			c0.588,0.609,1.401,0.914,2.44,0.914c0.372,0,0.737-0.041,1.095-0.124c0.356-0.083,0.68-0.189,0.968-0.319
			c0.307-0.136,0.564-0.268,0.774-0.395s0.385-0.247,0.522-0.359h0.1v1.817c-0.198,0.077-0.445,0.174-0.739,0.289
			s-0.559,0.205-0.792,0.271c-0.331,0.088-0.63,0.156-0.896,0.203C327.93,273.987,327.592,274.011,327.184,274.011z
			 M329.165,267.724c-0.012-0.449-0.065-0.837-0.162-1.162c-0.096-0.325-0.233-0.6-0.414-0.824
			c-0.198-0.249-0.452-0.438-0.761-0.568c-0.31-0.13-0.692-0.194-1.148-0.194c-0.45,0-0.833,0.066-1.148,0.199
			s-0.602,0.326-0.86,0.581c-0.252,0.26-0.444,0.548-0.576,0.864s-0.216,0.685-0.252,1.104H329.165z"/>
		<path d="M338.207,265.666h-0.09c-0.126-0.035-0.26-0.058-0.4-0.066c-0.142-0.009-0.312-0.014-0.509-0.014
			c-0.457,0-0.91,0.098-1.36,0.293s-0.877,0.484-1.279,0.869v7.032h-1.693v-9.905h1.693v1.472c0.618-0.538,1.157-0.918,1.617-1.14
			c0.459-0.222,0.905-0.332,1.337-0.332c0.175,0,0.305,0.004,0.393,0.013c0.087,0.009,0.185,0.022,0.292,0.04V265.666z"/>
		<path d="M343.945,274.011c-1.603,0-2.848-0.444-3.732-1.335c-0.886-0.89-1.329-2.153-1.329-3.791c0-1.613,0.43-2.898,1.288-3.853
			c0.858-0.955,1.981-1.433,3.368-1.433c0.625,0,1.177,0.089,1.657,0.266c0.48,0.178,0.901,0.456,1.262,0.834
			c0.359,0.379,0.636,0.841,0.828,1.388s0.288,1.217,0.288,2.009V269h-6.971c0,1.153,0.294,2.034,0.883,2.643
			c0.588,0.609,1.401,0.914,2.44,0.914c0.372,0,0.737-0.041,1.095-0.124c0.356-0.083,0.68-0.189,0.968-0.319
			c0.307-0.136,0.564-0.268,0.774-0.395s0.385-0.247,0.522-0.359h0.1v1.817c-0.198,0.077-0.445,0.174-0.739,0.289
			s-0.559,0.205-0.792,0.271c-0.331,0.088-0.63,0.156-0.896,0.203C344.691,273.987,344.354,274.011,343.945,274.011z
			 M345.927,267.724c-0.012-0.449-0.065-0.837-0.162-1.162c-0.096-0.325-0.233-0.6-0.414-0.824
			c-0.198-0.249-0.452-0.438-0.761-0.568c-0.31-0.13-0.692-0.194-1.148-0.194c-0.45,0-0.833,0.066-1.148,0.199
			s-0.602,0.326-0.86,0.581c-0.252,0.26-0.444,0.548-0.576,0.864s-0.216,0.685-0.252,1.104H345.927z"/>
		<path d="M354.97,265.666h-0.09c-0.126-0.035-0.26-0.058-0.4-0.066c-0.142-0.009-0.312-0.014-0.509-0.014
			c-0.457,0-0.91,0.098-1.36,0.293s-0.877,0.484-1.279,0.869v7.032h-1.693v-9.905h1.693v1.472c0.618-0.538,1.157-0.918,1.617-1.14
			c0.459-0.222,0.905-0.332,1.337-0.332c0.175,0,0.305,0.004,0.393,0.013c0.087,0.009,0.185,0.022,0.292,0.04V265.666z"/>
		<path d="M361.51,277.434h-2.063c-1.045-1.224-1.866-2.519-2.463-3.884c-0.598-1.366-0.896-2.979-0.896-4.842
			c0-1.821,0.296-3.425,0.888-4.812c0.591-1.386,1.415-2.691,2.472-3.915h2.063v0.089c-0.486,0.432-0.95,0.93-1.392,1.494
			s-0.851,1.223-1.229,1.973c-0.36,0.728-0.652,1.529-0.878,2.403c-0.225,0.875-0.338,1.798-0.338,2.768
			c0,1.011,0.109,1.936,0.329,2.775c0.219,0.84,0.515,1.638,0.887,2.395c0.36,0.728,0.771,1.385,1.234,1.973
			c0.462,0.589,0.925,1.087,1.387,1.495V277.434z"/>
		<path d="M367.914,268.708c0,1.826-0.298,3.432-0.892,4.815c-0.595,1.383-1.418,2.687-2.468,3.91h-2.063v-0.088
			c0.463-0.408,0.928-0.909,1.396-1.504c0.469-0.594,0.877-1.249,1.225-1.964c0.373-0.763,0.668-1.568,0.888-2.417
			c0.219-0.848,0.328-1.766,0.328-2.753c0-0.976-0.11-1.898-0.333-2.768c-0.222-0.869-0.517-1.67-0.883-2.403
			c-0.366-0.732-0.78-1.392-1.242-1.978c-0.463-0.585-0.922-1.081-1.379-1.489v-0.089h2.063c1.044,1.224,1.865,2.524,2.463,3.902
			C367.615,265.261,367.914,266.869,367.914,268.708z"/>
	</g>
	
		<line fill="none" stroke="#800000" stroke-width="0.7559" stroke-linecap="square" stroke-miterlimit="10" x1="289.717" y1="248.997" x2="428.897" y2="248.997"/>
	
		<line fill="none" stroke="#800000" stroke-width="0.7559" stroke-linecap="square" stroke-miterlimit="10" x1="140.475" y1="52.519" x2="370.208" y2="52.519"/>
	<polyline fill="none" stroke="#800000" stroke-width="0.7559" stroke-linecap="square" stroke-miterlimit="10" points="
		353.438,59.122 370.208,52.519 353.438,45.913 	"/>
	<g>
		<path d="M328.54,32.586h-4.548v4.479h-1.495v-4.479h-4.549v-1.419h4.549v-4.478h1.495v4.478h4.548V32.586z"/>
		<path d="M335.547,37.89c-1.603,0-2.848-0.445-3.732-1.334c-0.886-0.89-1.329-2.153-1.329-3.791c0-1.614,0.43-2.898,1.288-3.854
			c0.858-0.955,1.981-1.432,3.368-1.432c0.625,0,1.177,0.089,1.657,0.266s0.901,0.455,1.262,0.833
			c0.359,0.378,0.636,0.841,0.828,1.388c0.192,0.547,0.288,1.217,0.288,2.009v0.905h-6.971c0,1.153,0.294,2.034,0.883,2.643
			c0.588,0.609,1.401,0.914,2.44,0.914c0.372,0,0.737-0.042,1.095-0.125c0.356-0.083,0.68-0.189,0.968-0.319
			c0.307-0.136,0.564-0.268,0.774-0.395c0.21-0.127,0.385-0.247,0.522-0.359h0.1v1.818c-0.198,0.077-0.445,0.173-0.739,0.288
			s-0.559,0.206-0.792,0.271c-0.331,0.089-0.63,0.157-0.896,0.204C336.293,37.866,335.955,37.89,335.547,37.89z M337.528,31.602
			c-0.012-0.449-0.065-0.836-0.162-1.162c-0.096-0.325-0.233-0.6-0.414-0.825c-0.198-0.248-0.452-0.438-0.761-0.567
			c-0.31-0.13-0.692-0.195-1.148-0.195c-0.45,0-0.833,0.066-1.148,0.2c-0.315,0.133-0.602,0.327-0.86,0.581
			c-0.252,0.26-0.444,0.549-0.576,0.865c-0.132,0.316-0.216,0.685-0.252,1.104H337.528z"/>
		<path d="M344.283,37.854c-0.925,0-1.646-0.259-2.162-0.776c-0.517-0.517-0.774-1.334-0.774-2.452v-5.49h-1.144v-1.383h1.144
			v-2.847h1.693v2.847h3.116v1.383h-3.116v4.709c0,0.503,0.009,0.89,0.027,1.162c0.018,0.272,0.087,0.526,0.207,0.763
			c0.102,0.207,0.267,0.362,0.495,0.465s0.537,0.155,0.928,0.155c0.276,0,0.543-0.04,0.802-0.12c0.258-0.08,0.444-0.146,0.559-0.2
			h0.099v1.499c-0.318,0.089-0.641,0.158-0.968,0.208C344.86,37.829,344.559,37.854,344.283,37.854z"/>
		<path d="M353.563,36.604c-0.138,0.101-0.322,0.241-0.554,0.421c-0.231,0.181-0.455,0.324-0.671,0.43
			c-0.3,0.154-0.59,0.272-0.869,0.355c-0.279,0.083-0.671,0.124-1.176,0.124c-0.414,0-0.808-0.077-1.18-0.23
			s-0.699-0.37-0.981-0.647c-0.271-0.272-0.486-0.607-0.648-1.006c-0.162-0.399-0.243-0.82-0.243-1.264
			c0-0.686,0.147-1.27,0.441-1.751s0.76-0.865,1.396-1.148c0.564-0.254,1.231-0.43,2-0.528s1.597-0.17,2.485-0.217v-0.319
			c0-0.39-0.06-0.705-0.18-0.944s-0.288-0.424-0.505-0.554c-0.216-0.136-0.48-0.226-0.792-0.271
			c-0.313-0.044-0.634-0.066-0.964-0.066c-0.391,0-0.85,0.058-1.378,0.173s-1.057,0.282-1.585,0.501h-0.1v-1.694
			c0.313-0.089,0.76-0.186,1.342-0.292c0.583-0.106,1.159-0.16,1.729-0.16c0.69,0,1.273,0.053,1.747,0.16
			c0.475,0.106,0.901,0.298,1.279,0.576c0.366,0.272,0.64,0.624,0.819,1.055c0.181,0.432,0.271,0.958,0.271,1.579v6.775h-1.685
			V36.604z M353.563,35.22v-2.749c-0.402,0.036-0.911,0.084-1.526,0.146s-1.112,0.149-1.49,0.262
			c-0.45,0.136-0.823,0.344-1.117,0.625s-0.441,0.673-0.441,1.175c0,0.567,0.162,0.996,0.486,1.286s0.799,0.435,1.423,0.435
			c0.535,0,1.019-0.114,1.45-0.341C352.78,35.831,353.186,35.552,353.563,35.22z"/>
		<path d="M361.039,37.854c-0.925,0-1.646-0.259-2.162-0.776c-0.517-0.517-0.774-1.334-0.774-2.452v-5.49h-1.144v-1.383h1.144
			v-2.847h1.693v2.847h3.116v1.383h-3.116v4.709c0,0.503,0.009,0.89,0.027,1.162c0.018,0.272,0.087,0.526,0.207,0.763
			c0.102,0.207,0.267,0.362,0.495,0.465s0.537,0.155,0.928,0.155c0.276,0,0.543-0.04,0.802-0.12c0.258-0.08,0.444-0.146,0.559-0.2
			h0.099v1.499c-0.318,0.089-0.641,0.158-0.968,0.208C361.616,37.829,361.314,37.854,361.039,37.854z"/>
	</g>
	
		<line fill="none" stroke="#800000" stroke-width="0.7559" stroke-linecap="square" stroke-miterlimit="10" x1="376.914" y1="197.814" x2="417.161" y2="97.097"/>
	
		<polygon fill-rule="evenodd" clip-rule="evenodd" fill="#FFFFFF" stroke="#800000" stroke-width="0.7559" stroke-linecap="square" stroke-miterlimit="10" points="
		417.161,131.77 417.161,97.097 392.008,121.864 	"/>
	
		<polygon fill-rule="evenodd" clip-rule="evenodd" fill="#FFFFB9" stroke="#800000" stroke-width="0.7559" stroke-linecap="square" stroke-miterlimit="10" points="
		122.029,131.77 239.41,131.77 256.179,148.281 256.179,166.443 122.029,166.443 122.029,131.77 	"/>
	
		<polygon fill-rule="evenodd" clip-rule="evenodd" fill="#FFFFB9" stroke="#800000" stroke-width="0.7559" stroke-linecap="square" stroke-miterlimit="10" points="
		239.41,131.77 239.41,148.281 256.179,148.281 	"/>
	<g>
		<path d="M136.006,156.778c-1.604,0-2.848-0.444-3.733-1.335c-0.886-0.89-1.329-2.153-1.329-3.791c0-1.613,0.429-2.898,1.288-3.853
			c0.858-0.955,1.981-1.433,3.369-1.433c0.625,0,1.177,0.089,1.657,0.266c0.48,0.177,0.9,0.456,1.261,0.833
			c0.36,0.379,0.636,0.841,0.829,1.388s0.288,1.217,0.288,2.009v0.904h-6.971c0,1.153,0.294,2.034,0.883,2.643
			c0.588,0.609,1.402,0.914,2.441,0.914c0.372,0,0.737-0.041,1.094-0.124s0.68-0.189,0.968-0.319
			c0.306-0.136,0.564-0.268,0.774-0.395c0.21-0.127,0.384-0.247,0.522-0.359h0.099v1.817c-0.198,0.077-0.444,0.174-0.738,0.289
			c-0.294,0.115-0.559,0.205-0.793,0.271c-0.33,0.088-0.629,0.156-0.896,0.203C136.752,156.755,136.415,156.778,136.006,156.778z
			 M137.988,150.491c-0.012-0.449-0.066-0.837-0.162-1.162c-0.096-0.325-0.234-0.6-0.415-0.824
			c-0.198-0.249-0.452-0.438-0.761-0.568c-0.31-0.13-0.692-0.194-1.148-0.194c-0.45,0-0.833,0.066-1.148,0.199
			s-0.602,0.326-0.86,0.581c-0.252,0.26-0.444,0.548-0.576,0.864c-0.132,0.316-0.216,0.685-0.252,1.104H137.988z"/>
		<path d="M144.742,156.743c-0.925,0-1.645-0.259-2.162-0.776c-0.516-0.517-0.774-1.334-0.774-2.452v-5.489h-1.144v-1.383h1.144
			v-2.847h1.693v2.847h3.116v1.383h-3.116v4.709c0,0.503,0.009,0.89,0.027,1.162c0.018,0.271,0.087,0.526,0.207,0.763
			c0.102,0.207,0.267,0.362,0.496,0.466c0.228,0.103,0.537,0.154,0.928,0.154c0.276,0,0.543-0.039,0.801-0.119
			c0.258-0.08,0.444-0.146,0.559-0.199h0.099v1.498c-0.318,0.089-0.641,0.158-0.968,0.209
			C145.32,156.718,145.018,156.743,144.742,156.743z"/>
		<path d="M154.022,155.492c-0.138,0.101-0.323,0.241-0.554,0.422c-0.231,0.18-0.455,0.323-0.671,0.43
			c-0.3,0.154-0.59,0.272-0.869,0.354c-0.279,0.083-0.671,0.125-1.175,0.125c-0.415,0-0.808-0.077-1.18-0.231
			c-0.373-0.153-0.7-0.369-0.982-0.647c-0.27-0.271-0.486-0.607-0.648-1.006c-0.162-0.399-0.243-0.82-0.243-1.264
			c0-0.686,0.147-1.27,0.441-1.752c0.294-0.481,0.759-0.864,1.396-1.148c0.564-0.254,1.231-0.43,2-0.527s1.597-0.17,2.486-0.218
			v-0.318c0-0.391-0.06-0.705-0.18-0.945c-0.12-0.239-0.288-0.424-0.504-0.554c-0.216-0.136-0.48-0.227-0.792-0.271
			c-0.313-0.044-0.634-0.066-0.964-0.066c-0.391,0-0.85,0.058-1.378,0.173s-1.057,0.282-1.585,0.501h-0.099v-1.694
			c0.313-0.089,0.76-0.186,1.342-0.292c0.582-0.106,1.159-0.16,1.729-0.16c0.69,0,1.273,0.053,1.748,0.16
			c0.474,0.106,0.9,0.298,1.279,0.576c0.366,0.272,0.64,0.624,0.82,1.056s0.27,0.957,0.27,1.578v6.775h-1.684V155.492z
			 M154.022,154.109v-2.749c-0.402,0.035-0.911,0.084-1.527,0.146c-0.615,0.063-1.112,0.149-1.491,0.262
			c-0.45,0.137-0.822,0.345-1.117,0.626c-0.294,0.28-0.441,0.672-0.441,1.175c0,0.567,0.162,0.996,0.486,1.286
			c0.324,0.289,0.799,0.435,1.423,0.435c0.534,0,1.018-0.114,1.45-0.342C153.239,154.72,153.644,154.44,154.022,154.109z"/>
		<path d="M161.498,156.743c-0.925,0-1.645-0.259-2.162-0.776c-0.516-0.517-0.774-1.334-0.774-2.452v-5.489h-1.144v-1.383h1.144
			v-2.847h1.693v2.847h3.116v1.383h-3.116v4.709c0,0.503,0.009,0.89,0.027,1.162c0.018,0.271,0.087,0.526,0.207,0.763
			c0.102,0.207,0.267,0.362,0.496,0.466c0.228,0.103,0.537,0.154,0.928,0.154c0.276,0,0.543-0.039,0.801-0.119
			c0.258-0.08,0.444-0.146,0.559-0.199h0.099v1.498c-0.318,0.089-0.641,0.158-0.968,0.209
			C162.076,156.718,161.774,156.743,161.498,156.743z"/>
		<path d="M167.797,156.548h-2.152v-2.527h2.152V156.548z"/>
		<path d="M172.209,158.135c0.114,0.048,0.282,0.111,0.504,0.191c0.222,0.079,0.475,0.155,0.757,0.226
			c0.312,0.077,0.6,0.139,0.865,0.187c0.264,0.047,0.552,0.071,0.864,0.071c0.522,0,0.965-0.068,1.329-0.204
			c0.363-0.137,0.647-0.325,0.851-0.567c0.192-0.243,0.327-0.523,0.405-0.843s0.117-0.683,0.117-1.091v-0.869
			c-0.457,0.391-0.904,0.679-1.342,0.864c-0.438,0.187-0.988,0.279-1.648,0.279c-1.147,0-2.06-0.419-2.738-1.259
			c-0.679-0.84-1.018-2.046-1.018-3.618c0-0.821,0.117-1.551,0.352-2.187c0.234-0.635,0.549-1.175,0.945-1.618
			c0.378-0.426,0.826-0.753,1.342-0.984c0.516-0.23,1.051-0.346,1.603-0.346c0.522,0,0.974,0.061,1.355,0.182
			c0.381,0.122,0.764,0.294,1.148,0.519l0.099-0.425h1.594v8.78c0,1.679-0.373,2.911-1.117,3.697
			c-0.745,0.787-1.882,1.18-3.414,1.18c-0.493,0-0.996-0.038-1.509-0.115s-0.992-0.181-1.437-0.311v-1.738H172.209z M177.901,153.86
			v-5.436c-0.42-0.201-0.809-0.345-1.167-0.431c-0.357-0.085-0.713-0.128-1.067-0.128c-0.859,0-1.535,0.311-2.027,0.931
			c-0.492,0.621-0.738,1.511-0.738,2.67c0,1.1,0.188,1.936,0.563,2.51c0.375,0.573,0.983,0.859,1.824,0.859
			c0.438,0,0.89-0.085,1.355-0.257C177.11,154.408,177.529,154.168,177.901,153.86z"/>
		<path d="M186.284,156.778c-1.604,0-2.848-0.444-3.733-1.335c-0.886-0.89-1.329-2.153-1.329-3.791c0-1.613,0.429-2.898,1.288-3.853
			c0.858-0.955,1.981-1.433,3.369-1.433c0.625,0,1.177,0.089,1.657,0.266c0.48,0.177,0.9,0.456,1.261,0.833
			c0.36,0.379,0.636,0.841,0.829,1.388s0.288,1.217,0.288,2.009v0.904h-6.971c0,1.153,0.294,2.034,0.883,2.643
			c0.588,0.609,1.402,0.914,2.441,0.914c0.372,0,0.737-0.041,1.094-0.124s0.68-0.189,0.968-0.319
			c0.306-0.136,0.564-0.268,0.774-0.395c0.21-0.127,0.384-0.247,0.522-0.359h0.099v1.817c-0.198,0.077-0.444,0.174-0.738,0.289
			c-0.294,0.115-0.559,0.205-0.793,0.271c-0.33,0.088-0.629,0.156-0.896,0.203C187.03,156.755,186.692,156.778,186.284,156.778z
			 M188.265,150.491c-0.012-0.449-0.066-0.837-0.162-1.162c-0.096-0.325-0.234-0.6-0.415-0.824
			c-0.198-0.249-0.452-0.438-0.761-0.568c-0.31-0.13-0.692-0.194-1.148-0.194c-0.45,0-0.833,0.066-1.148,0.199
			s-0.602,0.326-0.86,0.581c-0.252,0.26-0.444,0.548-0.576,0.864c-0.132,0.316-0.216,0.685-0.252,1.104H188.265z"/>
		<path d="M197.307,148.434h-0.09c-0.126-0.035-0.26-0.058-0.401-0.066s-0.311-0.014-0.509-0.014c-0.457,0-0.91,0.098-1.36,0.293
			c-0.451,0.195-0.877,0.484-1.279,0.869v7.032h-1.693v-9.906h1.693v1.472c0.619-0.538,1.158-0.918,1.617-1.14
			c0.459-0.222,0.905-0.333,1.338-0.333c0.174,0,0.305,0.004,0.392,0.013s0.185,0.022,0.292,0.04V148.434z"/>
		<path d="M203.045,156.778c-1.604,0-2.848-0.444-3.733-1.335c-0.886-0.89-1.329-2.153-1.329-3.791c0-1.613,0.429-2.898,1.288-3.853
			c0.858-0.955,1.981-1.433,3.369-1.433c0.625,0,1.177,0.089,1.657,0.266c0.48,0.177,0.9,0.456,1.261,0.833
			c0.36,0.379,0.636,0.841,0.829,1.388s0.288,1.217,0.288,2.009v0.904h-6.971c0,1.153,0.294,2.034,0.883,2.643
			c0.588,0.609,1.402,0.914,2.441,0.914c0.372,0,0.737-0.041,1.094-0.124s0.68-0.189,0.968-0.319
			c0.306-0.136,0.564-0.268,0.774-0.395c0.21-0.127,0.384-0.247,0.522-0.359h0.099v1.817c-0.198,0.077-0.444,0.174-0.738,0.289
			c-0.294,0.115-0.559,0.205-0.793,0.271c-0.33,0.088-0.629,0.156-0.896,0.203C203.792,156.755,203.454,156.778,203.045,156.778z
			 M205.027,150.491c-0.012-0.449-0.066-0.837-0.162-1.162c-0.096-0.325-0.234-0.6-0.415-0.824
			c-0.198-0.249-0.452-0.438-0.761-0.568c-0.31-0.13-0.692-0.194-1.148-0.194c-0.45,0-0.833,0.066-1.148,0.199
			s-0.602,0.326-0.86,0.581c-0.252,0.26-0.444,0.548-0.576,0.864c-0.132,0.316-0.216,0.685-0.252,1.104H205.027z"/>
		<path d="M214.068,148.434h-0.09c-0.126-0.035-0.26-0.058-0.401-0.066s-0.311-0.014-0.509-0.014c-0.457,0-0.91,0.098-1.36,0.293
			c-0.451,0.195-0.877,0.484-1.279,0.869v7.032h-1.693v-9.906h1.693v1.472c0.619-0.538,1.158-0.918,1.617-1.14
			c0.459-0.222,0.905-0.333,1.338-0.333c0.174,0,0.305,0.004,0.392,0.013s0.185,0.022,0.292,0.04V148.434z"/>
		<path d="M220.609,160.201h-2.063c-1.044-1.224-1.866-2.519-2.463-3.884c-0.597-1.366-0.896-2.979-0.896-4.842
			c0-1.821,0.296-3.425,0.887-4.812c0.591-1.386,1.416-2.691,2.472-3.915h2.063v0.089c-0.486,0.432-0.95,0.93-1.391,1.494
			c-0.441,0.564-0.852,1.222-1.229,1.973c-0.36,0.727-0.653,1.529-0.878,2.403c-0.225,0.875-0.337,1.798-0.337,2.768
			c0,1.011,0.109,1.936,0.329,2.775s0.515,1.638,0.887,2.395c0.36,0.728,0.771,1.385,1.234,1.973
			c0.462,0.589,0.924,1.087,1.387,1.495V160.201z"/>
		<path d="M227.013,151.476c0,1.826-0.297,3.432-0.892,4.815c-0.594,1.383-1.417,2.687-2.468,3.91h-2.063v-0.088
			c0.462-0.408,0.928-0.909,1.396-1.504c0.468-0.594,0.876-1.249,1.225-1.964c0.372-0.763,0.668-1.568,0.887-2.417
			c0.219-0.848,0.329-1.766,0.329-2.753c0-0.976-0.111-1.898-0.333-2.768s-0.516-1.67-0.882-2.403
			c-0.367-0.733-0.781-1.392-1.243-1.978s-0.922-1.082-1.378-1.49v-0.089h2.063c1.045,1.224,1.866,2.524,2.463,3.902
			C226.714,148.028,227.013,149.637,227.013,151.476z"/>
		<path d="M232.571,154.021l-2.522,5.809h-1.315l1.585-5.809H232.571z M231.977,149.17h-2.153v-2.528h2.153V149.17z"/>
	</g>
	
		<polyline fill="none" stroke="#800000" stroke-width="0.7559" stroke-linecap="square" stroke-miterlimit="10" stroke-dasharray="0.7677,1.5354" points="
		140.475,78.935 175.689,78.935 175.689,131.77 	"/>
	
		<rect x="464.114" y="197.814" fill-rule="evenodd" clip-rule="evenodd" fill="#FFFFB9" stroke="#800000" stroke-width="0.7559" stroke-linecap="square" stroke-miterlimit="10" width="137.505" height="89.158"/>
	<g>
		<path d="M473.874,222.587v-13.205h9.07v2.519h-5.72v2.315h5.27v2.519h-5.27v3.334h5.72v2.519H473.874z"/>
		<path d="M487.644,222.782c-1.285,0-2.221-0.261-2.806-0.78c-0.586-0.521-0.878-1.372-0.878-2.555v-4.655h-1.207v-2.164h1.207
			v-2.847h3.152v2.847h3.035v2.164h-3.035v3.529c0,0.349,0.003,0.653,0.009,0.913c0.006,0.261,0.054,0.494,0.144,0.701
			c0.084,0.207,0.233,0.371,0.446,0.492s0.523,0.182,0.932,0.182c0.169,0,0.389-0.035,0.662-0.106s0.464-0.136,0.572-0.195h0.271
			v2.19c-0.343,0.089-0.706,0.158-1.09,0.209C488.673,222.757,488.202,222.782,487.644,222.782z"/>
		<path d="M497.729,221.531c-0.217,0.178-0.41,0.337-0.581,0.479c-0.171,0.142-0.4,0.283-0.689,0.426
			c-0.282,0.136-0.557,0.239-0.823,0.31c-0.268,0.071-0.642,0.106-1.122,0.106c-0.895,0-1.638-0.295-2.229-0.887
			c-0.592-0.591-0.888-1.336-0.888-2.234c0-0.739,0.15-1.336,0.45-1.791c0.301-0.456,0.732-0.816,1.297-1.082
			c0.57-0.272,1.252-0.462,2.045-0.567c0.793-0.106,1.646-0.189,2.558-0.249v-0.053c0-0.55-0.205-0.93-0.616-1.14
			c-0.412-0.21-1.028-0.315-1.852-0.315c-0.372,0-0.808,0.067-1.306,0.2c-0.499,0.133-0.985,0.303-1.459,0.51h-0.271v-2.403
			c0.313-0.089,0.816-0.193,1.514-0.314c0.696-0.121,1.398-0.183,2.107-0.183c1.741,0,3.01,0.286,3.805,0.856
			c0.796,0.57,1.193,1.44,1.193,2.611v6.775h-3.134V221.531z M497.729,219.988v-2.075c-0.534,0.054-0.967,0.1-1.297,0.138
			c-0.33,0.039-0.655,0.114-0.973,0.227c-0.276,0.095-0.491,0.237-0.645,0.43s-0.229,0.448-0.229,0.768
			c0,0.467,0.128,0.787,0.383,0.962s0.632,0.262,1.13,0.262c0.276,0,0.559-0.063,0.847-0.187
			C497.234,220.388,497.495,220.213,497.729,219.988z"/>
		<path d="M507.752,222.782c-1.285,0-2.221-0.261-2.806-0.78c-0.586-0.521-0.878-1.372-0.878-2.555v-4.655h-1.207v-2.164h1.207
			v-2.847h3.152v2.847h3.035v2.164h-3.035v3.529c0,0.349,0.003,0.653,0.009,0.913c0.006,0.261,0.054,0.494,0.144,0.701
			c0.084,0.207,0.233,0.371,0.446,0.492s0.523,0.182,0.932,0.182c0.169,0,0.389-0.035,0.662-0.106s0.464-0.136,0.572-0.195h0.271
			v2.19c-0.343,0.089-0.706,0.158-1.09,0.209C508.781,222.757,508.311,222.782,507.752,222.782z"/>
		<path d="M518.225,222.844c-2.011,0-3.608-0.599-4.791-1.796c-1.184-1.196-1.774-2.88-1.774-5.05c0-2.093,0.593-3.762,1.778-5.006
			c1.187-1.245,2.785-1.867,4.797-1.867c0.534,0,1.015,0.029,1.44,0.089c0.427,0.059,0.835,0.142,1.226,0.248
			c0.306,0.089,0.639,0.21,0.999,0.363c0.36,0.154,0.651,0.287,0.874,0.399v3.148h-0.343c-0.162-0.142-0.366-0.312-0.612-0.51
			s-0.525-0.392-0.837-0.581c-0.313-0.189-0.656-0.351-1.031-0.483c-0.376-0.133-0.768-0.199-1.176-0.199
			c-0.486,0-0.933,0.075-1.338,0.226c-0.405,0.151-0.791,0.412-1.157,0.785c-0.336,0.337-0.61,0.792-0.824,1.365
			c-0.213,0.574-0.319,1.251-0.319,2.031c0,0.821,0.111,1.512,0.333,2.07c0.223,0.559,0.514,1.01,0.874,1.353
			c0.348,0.331,0.737,0.57,1.166,0.719c0.43,0.147,0.857,0.222,1.283,0.222c0.444,0,0.868-0.072,1.271-0.218
			c0.402-0.145,0.741-0.306,1.018-0.483c0.3-0.183,0.564-0.369,0.793-0.559c0.228-0.188,0.426-0.357,0.594-0.505h0.307v3.104
			c-0.246,0.112-0.531,0.241-0.855,0.386s-0.657,0.268-1,0.368c-0.42,0.124-0.813,0.219-1.18,0.283
			C519.372,222.812,518.867,222.844,518.225,222.844z"/>
		<path d="M533.712,217.612c0,1.638-0.455,2.928-1.364,3.87c-0.91,0.943-2.196,1.415-3.859,1.415c-1.651,0-2.935-0.472-3.851-1.415
			c-0.916-0.942-1.373-2.232-1.373-3.87c0-1.655,0.457-2.952,1.373-3.889c0.916-0.938,2.199-1.406,3.851-1.406
			c1.657,0,2.942,0.472,3.854,1.415C533.256,214.675,533.712,215.969,533.712,217.612z M530.479,217.63
			c0-0.592-0.05-1.084-0.148-1.477c-0.1-0.394-0.235-0.708-0.41-0.944c-0.186-0.249-0.396-0.422-0.63-0.52
			c-0.234-0.098-0.502-0.146-0.802-0.146c-0.282,0-0.537,0.043-0.766,0.128c-0.229,0.086-0.438,0.25-0.631,0.492
			c-0.18,0.23-0.324,0.547-0.432,0.949c-0.108,0.402-0.162,0.907-0.162,1.517c0,0.608,0.051,1.101,0.152,1.477
			c0.103,0.375,0.234,0.675,0.396,0.899c0.168,0.231,0.379,0.399,0.631,0.506s0.531,0.16,0.838,0.16c0.252,0,0.509-0.054,0.77-0.16
			c0.262-0.106,0.47-0.266,0.626-0.479c0.187-0.255,0.327-0.561,0.424-0.918C530.431,218.758,530.479,218.263,530.479,217.63z"/>
		<path d="M545.213,222.587h-3.17v-4.939c0-0.402-0.017-0.803-0.05-1.202c-0.033-0.398-0.095-0.692-0.185-0.882
			c-0.108-0.225-0.265-0.386-0.469-0.483s-0.477-0.146-0.819-0.146c-0.258,0-0.52,0.048-0.783,0.142
			c-0.265,0.095-0.547,0.246-0.847,0.453v7.059h-3.152v-9.959h3.152v1.1c0.517-0.432,1.019-0.769,1.509-1.011
			c0.489-0.242,1.031-0.363,1.625-0.363c1.033,0,1.822,0.32,2.369,0.962c0.546,0.642,0.819,1.571,0.819,2.789V222.587z"/>
		<path d="M552.453,222.853c-0.835,0-1.599-0.104-2.293-0.31c-0.693-0.207-1.295-0.526-1.806-0.958
			c-0.504-0.432-0.897-0.974-1.18-1.628c-0.282-0.652-0.423-1.423-0.423-2.31c0-0.952,0.152-1.762,0.459-2.43
			s0.721-1.218,1.243-1.649c0.504-0.414,1.097-0.72,1.778-0.918s1.392-0.297,2.13-0.297c0.559,0,1.117,0.063,1.676,0.19
			s1.12,0.329,1.685,0.607v2.66h-0.405c-0.127-0.118-0.281-0.248-0.464-0.39c-0.184-0.143-0.383-0.272-0.6-0.391
			c-0.229-0.124-0.486-0.229-0.774-0.314c-0.288-0.086-0.609-0.129-0.964-0.129c-0.805,0-1.428,0.276-1.869,0.829
			c-0.44,0.553-0.661,1.296-0.661,2.23c0,0.999,0.235,1.744,0.707,2.234c0.471,0.491,1.097,0.736,1.878,0.736
			c0.396,0,0.744-0.044,1.044-0.133c0.301-0.089,0.559-0.195,0.775-0.319c0.21-0.124,0.39-0.253,0.54-0.386s0.279-0.253,0.388-0.359
			h0.405v2.66c-0.181,0.077-0.39,0.166-0.626,0.267c-0.237,0.101-0.479,0.184-0.726,0.248c-0.306,0.083-0.593,0.146-0.86,0.19
			C553.244,222.831,552.891,222.853,552.453,222.853z"/>
		<path d="M564.341,215.563h-0.262c-0.12-0.041-0.294-0.072-0.521-0.093c-0.229-0.021-0.48-0.031-0.757-0.031
			c-0.33,0-0.678,0.047-1.04,0.142c-0.364,0.095-0.717,0.207-1.059,0.337v6.669h-3.152v-9.959h3.152v1.428
			c0.144-0.13,0.344-0.294,0.599-0.492s0.488-0.356,0.698-0.475c0.229-0.136,0.494-0.253,0.797-0.35
			c0.304-0.098,0.59-0.146,0.86-0.146c0.102,0,0.216,0.003,0.342,0.009c0.127,0.006,0.24,0.015,0.343,0.026V215.563z"/>
		<path d="M571.096,222.853c-1.909,0-3.373-0.449-4.391-1.348s-1.526-2.179-1.526-3.84c0-1.626,0.474-2.924,1.423-3.893
			c0.948-0.97,2.275-1.455,3.98-1.455c1.55,0,2.714,0.411,3.495,1.232c0.78,0.822,1.171,1.999,1.171,3.53v1.117h-6.908
			c0.03,0.461,0.129,0.847,0.297,1.157s0.391,0.558,0.667,0.74c0.27,0.184,0.585,0.315,0.945,0.395c0.36,0.08,0.754,0.12,1.18,0.12
			c0.366,0,0.727-0.04,1.081-0.12c0.354-0.079,0.679-0.185,0.973-0.314c0.258-0.112,0.497-0.233,0.716-0.363
			c0.22-0.13,0.398-0.245,0.536-0.347h0.333v2.563c-0.258,0.101-0.494,0.193-0.707,0.279s-0.506,0.173-0.878,0.262
			c-0.342,0.089-0.695,0.158-1.059,0.208C572.061,222.828,571.618,222.853,571.096,222.853z M572.141,216.326
			c-0.019-0.656-0.173-1.156-0.464-1.499s-0.737-0.515-1.338-0.515c-0.612,0-1.091,0.181-1.437,0.541
			c-0.345,0.361-0.536,0.852-0.571,1.473H572.141z"/>
		<path d="M581.517,222.782c-1.285,0-2.221-0.261-2.806-0.78c-0.586-0.521-0.878-1.372-0.878-2.555v-4.655h-1.207v-2.164h1.207
			v-2.847h3.152v2.847h3.035v2.164h-3.035v3.529c0,0.349,0.003,0.653,0.009,0.913c0.006,0.261,0.054,0.494,0.144,0.701
			c0.084,0.207,0.233,0.371,0.446,0.492s0.523,0.182,0.932,0.182c0.169,0,0.389-0.035,0.662-0.106s0.464-0.136,0.572-0.195h0.271
			v2.19c-0.343,0.089-0.706,0.158-1.09,0.209C582.546,222.757,582.075,222.782,581.517,222.782z"/>
		<path d="M596.033,222.587h-9.853v-2.155c0.834-0.65,1.583-1.265,2.247-1.845c0.663-0.579,1.247-1.129,1.752-1.649
			c0.654-0.68,1.128-1.276,1.423-1.791c0.294-0.515,0.441-1.043,0.441-1.587c0-0.615-0.187-1.087-0.559-1.415
			s-0.892-0.492-1.559-0.492c-0.342,0-0.665,0.042-0.968,0.124c-0.304,0.083-0.611,0.189-0.923,0.319
			c-0.307,0.137-0.567,0.275-0.784,0.417c-0.216,0.142-0.378,0.248-0.486,0.319h-0.261v-2.882c0.378-0.178,0.97-0.359,1.774-0.546
			c0.804-0.187,1.579-0.279,2.323-0.279c1.591,0,2.797,0.349,3.616,1.047c0.819,0.697,1.229,1.679,1.229,2.944
			c0,0.78-0.187,1.544-0.559,2.292s-0.99,1.551-1.855,2.407c-0.54,0.526-1.065,0.995-1.576,1.406
			c-0.51,0.411-0.88,0.702-1.107,0.873h5.683V222.587z"/>
	</g>
	
		<line fill="none" stroke="#800000" stroke-width="0.7559" stroke-linecap="square" stroke-miterlimit="10" x1="464.114" y1="234.139" x2="603.296" y2="234.139"/>
	<g>
		<path d="M484.493,268.708h-4.548v4.479h-1.495v-4.479h-4.549v-1.419h4.549v-4.479h1.495v4.479h4.548V268.708z"/>
		<path d="M487.492,275.367c0.114,0.048,0.282,0.111,0.505,0.191c0.222,0.079,0.474,0.155,0.756,0.226
			c0.313,0.077,0.601,0.139,0.865,0.187c0.264,0.047,0.552,0.071,0.864,0.071c0.522,0,0.966-0.068,1.329-0.204
			c0.363-0.137,0.646-0.325,0.851-0.567c0.192-0.243,0.327-0.523,0.405-0.843s0.117-0.683,0.117-1.091v-0.869
			c-0.456,0.391-0.903,0.679-1.342,0.864c-0.438,0.187-0.988,0.279-1.648,0.279c-1.146,0-2.06-0.419-2.738-1.259
			s-1.018-2.046-1.018-3.618c0-0.821,0.117-1.551,0.352-2.187c0.234-0.635,0.549-1.175,0.945-1.618
			c0.379-0.426,0.826-0.754,1.342-0.984c0.517-0.23,1.051-0.346,1.604-0.346c0.522,0,0.975,0.061,1.355,0.182
			c0.382,0.121,0.765,0.294,1.148,0.519l0.1-0.425h1.594v8.779c0,1.679-0.372,2.911-1.117,3.697c-0.744,0.787-1.882,1.18-3.413,1.18
			c-0.492,0-0.995-0.038-1.509-0.115s-0.992-0.181-1.437-0.311v-1.738H487.492z M493.185,271.093v-5.436
			c-0.42-0.201-0.81-0.345-1.166-0.431c-0.357-0.085-0.713-0.128-1.067-0.128c-0.859,0-1.534,0.311-2.026,0.931
			c-0.493,0.621-0.739,1.511-0.739,2.67c0,1.1,0.188,1.936,0.563,2.51c0.375,0.573,0.983,0.859,1.823,0.859
			c0.438,0,0.891-0.085,1.355-0.257C492.394,271.641,492.813,271.4,493.185,271.093z"/>
		<path d="M501.566,274.011c-1.603,0-2.848-0.444-3.732-1.335c-0.886-0.89-1.329-2.153-1.329-3.791c0-1.613,0.43-2.898,1.288-3.853
			c0.858-0.955,1.981-1.433,3.368-1.433c0.625,0,1.177,0.089,1.657,0.266c0.48,0.178,0.901,0.456,1.262,0.834
			c0.359,0.379,0.636,0.841,0.828,1.388s0.288,1.217,0.288,2.009V269h-6.971c0,1.153,0.294,2.034,0.883,2.643
			c0.588,0.609,1.401,0.914,2.44,0.914c0.372,0,0.737-0.041,1.095-0.124c0.356-0.083,0.68-0.189,0.968-0.319
			c0.307-0.136,0.564-0.268,0.774-0.395s0.385-0.247,0.522-0.359h0.1v1.817c-0.198,0.077-0.445,0.174-0.739,0.289
			s-0.559,0.205-0.792,0.271c-0.331,0.088-0.63,0.156-0.896,0.203C502.313,273.987,501.975,274.011,501.566,274.011z
			 M503.548,267.724c-0.012-0.449-0.065-0.837-0.162-1.162c-0.096-0.325-0.233-0.6-0.414-0.824
			c-0.198-0.249-0.452-0.438-0.761-0.568c-0.31-0.13-0.692-0.194-1.148-0.194c-0.45,0-0.833,0.066-1.148,0.199
			s-0.602,0.326-0.86,0.581c-0.252,0.26-0.444,0.548-0.576,0.864s-0.216,0.685-0.252,1.104H503.548z"/>
		<path d="M512.59,265.666h-0.09c-0.126-0.035-0.26-0.058-0.4-0.066c-0.142-0.009-0.312-0.014-0.509-0.014
			c-0.457,0-0.91,0.098-1.36,0.293s-0.877,0.484-1.279,0.869v7.032h-1.693v-9.905h1.693v1.472c0.618-0.538,1.157-0.918,1.617-1.14
			c0.459-0.222,0.905-0.332,1.337-0.332c0.175,0,0.305,0.004,0.393,0.013c0.087,0.009,0.185,0.022,0.292,0.04V265.666z"/>
		<path d="M518.328,274.011c-1.603,0-2.848-0.444-3.732-1.335c-0.886-0.89-1.329-2.153-1.329-3.791c0-1.613,0.43-2.898,1.288-3.853
			c0.858-0.955,1.981-1.433,3.368-1.433c0.625,0,1.177,0.089,1.657,0.266c0.48,0.178,0.901,0.456,1.262,0.834
			c0.359,0.379,0.636,0.841,0.828,1.388s0.288,1.217,0.288,2.009V269h-6.971c0,1.153,0.294,2.034,0.883,2.643
			c0.588,0.609,1.401,0.914,2.44,0.914c0.372,0,0.737-0.041,1.095-0.124c0.356-0.083,0.68-0.189,0.968-0.319
			c0.307-0.136,0.564-0.268,0.774-0.395s0.385-0.247,0.522-0.359h0.1v1.817c-0.198,0.077-0.445,0.174-0.739,0.289
			s-0.559,0.205-0.792,0.271c-0.331,0.088-0.63,0.156-0.896,0.203C519.074,273.987,518.736,274.011,518.328,274.011z
			 M520.31,267.724c-0.012-0.449-0.065-0.837-0.162-1.162c-0.096-0.325-0.233-0.6-0.414-0.824c-0.198-0.249-0.452-0.438-0.761-0.568
			c-0.31-0.13-0.692-0.194-1.148-0.194c-0.45,0-0.833,0.066-1.148,0.199s-0.602,0.326-0.86,0.581
			c-0.252,0.26-0.444,0.548-0.576,0.864s-0.216,0.685-0.252,1.104H520.31z"/>
		<path d="M529.353,265.666h-0.09c-0.126-0.035-0.26-0.058-0.4-0.066c-0.142-0.009-0.312-0.014-0.509-0.014
			c-0.457,0-0.91,0.098-1.36,0.293s-0.877,0.484-1.279,0.869v7.032h-1.693v-9.905h1.693v1.472c0.618-0.538,1.157-0.918,1.617-1.14
			c0.459-0.222,0.905-0.332,1.337-0.332c0.175,0,0.305,0.004,0.393,0.013c0.087,0.009,0.185,0.022,0.292,0.04V265.666z"/>
		<path d="M535.893,277.434h-2.063c-1.045-1.224-1.866-2.519-2.463-3.884c-0.598-1.366-0.896-2.979-0.896-4.842
			c0-1.821,0.296-3.425,0.888-4.812c0.591-1.386,1.415-2.691,2.472-3.915h2.063v0.089c-0.486,0.432-0.95,0.93-1.392,1.494
			s-0.851,1.223-1.229,1.973c-0.36,0.728-0.652,1.529-0.878,2.403c-0.225,0.875-0.338,1.798-0.338,2.768
			c0,1.011,0.109,1.936,0.329,2.775c0.219,0.84,0.515,1.638,0.887,2.395c0.36,0.728,0.771,1.385,1.234,1.973
			c0.462,0.589,0.925,1.087,1.387,1.495V277.434z"/>
		<path d="M542.297,268.708c0,1.826-0.298,3.432-0.892,4.815c-0.595,1.383-1.418,2.687-2.468,3.91h-2.063v-0.088
			c0.463-0.408,0.928-0.909,1.396-1.504c0.469-0.594,0.877-1.249,1.225-1.964c0.373-0.763,0.668-1.568,0.888-2.417
			c0.219-0.848,0.328-1.766,0.328-2.753c0-0.976-0.11-1.898-0.333-2.768c-0.222-0.869-0.517-1.67-0.883-2.403
			c-0.366-0.732-0.78-1.392-1.242-1.978c-0.463-0.585-0.922-1.081-1.379-1.489v-0.089h2.063c1.044,1.224,1.865,2.524,2.463,3.902
			C541.998,265.261,542.297,266.869,542.297,268.708z"/>
	</g>
	
		<line fill="none" stroke="#800000" stroke-width="0.7559" stroke-linecap="square" stroke-miterlimit="10" x1="464.114" y1="248.997" x2="603.296" y2="248.997"/>
	
		<line fill="none" stroke="#800000" stroke-width="0.7559" stroke-linecap="square" stroke-miterlimit="10" x1="511.066" y1="197.814" x2="459.084" y2="97.097"/>
	
		<polygon fill-rule="evenodd" clip-rule="evenodd" fill="#FFFFFF" stroke="#800000" stroke-width="0.7559" stroke-linecap="square" stroke-miterlimit="10" points="
		485.914,120.213 459.084,97.097 460.761,131.77 	"/>
</g>
</svg>
