<?xml version="1.0" encoding="utf-8"?>
<!-- Generator: Adobe Illustrator 15.0.0, SVG Export Plug-In . SVG Version: 6.00 Build 0)  -->
<!DOCTYPE svg PUBLIC "-//W3C//DTD SVG 1.1//EN" "http://www.w3.org/Graphics/SVG/1.1/DTD/svg11.dtd">
<svg version="1.1" id="Calque_1" xmlns="http://www.w3.org/2000/svg" xmlns:xlink="http://www.w3.org/1999/xlink" x="0px" y="0px"
	 width="612px" height="233px" viewBox="0 0 612 233" enable-background="new 0 0 612 233" xml:space="preserve">
<g>
	
		<rect x="18.834" y="6.296" fill-rule="evenodd" clip-rule="evenodd" fill="#FFFFB9" stroke="#800000" stroke-width="0.7559" stroke-linecap="square" stroke-miterlimit="10" width="133.735" height="54.532"/>
	<g>
		<path stroke="#000000" stroke-width="0.2376" stroke-miterlimit="10" d="M57.563,26.248h-1.437l3.104-9.166l-4.927,6.236h-0.87
			l-0.683-6.236l-3.104,9.166h-1.342l3.602-10.637h1.959l0.694,5.923l4.61-5.923h1.995L57.563,26.248z"/>
		<path stroke="#000000" stroke-width="0.2376" stroke-miterlimit="10" d="M65.152,26.434c-1.292,0-2.173-0.359-2.644-1.076
			c-0.471-0.716-0.483-1.734-0.037-3.053c0.44-1.301,1.136-2.335,2.089-3.104c0.952-0.769,1.986-1.153,3.104-1.153
			c0.503,0,0.923,0.071,1.263,0.213c0.338,0.144,0.602,0.368,0.788,0.672c0.187,0.305,0.283,0.678,0.289,1.118
			s-0.1,0.979-0.315,1.618l-0.247,0.729h-5.616c-0.314,0.929-0.317,1.638-0.009,2.129c0.308,0.49,0.88,0.735,1.717,0.735
			c0.3,0,0.605-0.033,0.916-0.1c0.31-0.066,0.599-0.152,0.866-0.257c0.284-0.109,0.528-0.216,0.731-0.318
			c0.204-0.102,0.377-0.199,0.519-0.289h0.08l-0.496,1.464c-0.18,0.062-0.405,0.139-0.673,0.232
			c-0.269,0.093-0.506,0.166-0.712,0.218c-0.291,0.072-0.55,0.126-0.778,0.165C65.759,26.415,65.481,26.434,65.152,26.434z
			 M68.463,21.369c0.112-0.362,0.175-0.674,0.187-0.937c0.011-0.262-0.026-0.482-0.109-0.664c-0.092-0.2-0.245-0.352-0.458-0.457
			c-0.214-0.104-0.505-0.157-0.872-0.157c-0.363,0-0.688,0.054-0.979,0.161c-0.291,0.106-0.574,0.263-0.851,0.467
			c-0.274,0.21-0.509,0.442-0.701,0.696c-0.192,0.255-0.36,0.551-0.504,0.89H68.463z"/>
		<path stroke="#000000" stroke-width="0.2376" stroke-miterlimit="10" d="M77.377,26.248h-1.364l0.275-0.814
			c-0.272,0.176-0.505,0.321-0.698,0.436c-0.193,0.114-0.411,0.219-0.65,0.313c-0.225,0.091-0.448,0.161-0.673,0.211
			c-0.225,0.05-0.476,0.075-0.751,0.075c-0.44,0-0.817-0.09-1.131-0.271s-0.542-0.445-0.686-0.792
			c-0.147-0.353-0.205-0.787-0.175-1.304c0.03-0.516,0.158-1.111,0.385-1.783c0.237-0.7,0.534-1.306,0.892-1.817
			c0.357-0.513,0.762-0.958,1.215-1.339c0.412-0.348,0.861-0.621,1.347-0.819c0.485-0.197,0.958-0.296,1.417-0.296
			c0.406,0,0.745,0.043,1.015,0.132c0.271,0.088,0.541,0.225,0.812,0.411l1.17-3.458h1.364L77.377,26.248z M76.671,24.305
			l1.558-4.601c-0.284-0.161-0.549-0.274-0.797-0.336c-0.248-0.061-0.529-0.092-0.843-0.092c-0.702,0-1.338,0.258-1.909,0.775
			c-0.572,0.517-1.023,1.264-1.354,2.239c-0.317,0.939-0.408,1.657-0.272,2.154c0.136,0.498,0.541,0.747,1.213,0.747
			c0.357,0,0.744-0.08,1.162-0.239C75.846,24.792,76.259,24.577,76.671,24.305z"/>
		<path stroke="#000000" stroke-width="0.2376" stroke-miterlimit="10" d="M81.977,26.248h-1.364l2.702-7.979h1.364L81.977,26.248z
			 M85.225,16.933h-1.553l0.472-1.393h1.553L85.225,16.933z"/>
		<path stroke="#000000" stroke-width="0.2376" stroke-miterlimit="10" d="M89.449,25.398c-0.139,0.081-0.327,0.194-0.562,0.339
			c-0.235,0.145-0.455,0.261-0.658,0.346c-0.284,0.124-0.549,0.219-0.797,0.286c-0.247,0.066-0.574,0.1-0.98,0.1
			c-0.334,0-0.63-0.062-0.888-0.185c-0.258-0.124-0.463-0.298-0.615-0.521c-0.143-0.219-0.226-0.489-0.247-0.811
			c-0.022-0.321,0.027-0.661,0.148-1.018c0.187-0.553,0.464-1.023,0.833-1.412c0.368-0.388,0.848-0.697,1.438-0.925
			c0.523-0.204,1.108-0.346,1.754-0.424c0.646-0.079,1.332-0.137,2.062-0.176l0.087-0.257c0.106-0.313,0.144-0.568,0.111-0.76
			c-0.031-0.193-0.116-0.342-0.255-0.447c-0.137-0.109-0.325-0.182-0.565-0.217c-0.239-0.036-0.493-0.054-0.758-0.054
			c-0.314,0-0.7,0.046-1.157,0.139c-0.457,0.094-0.928,0.228-1.413,0.404h-0.08l0.462-1.365c0.276-0.071,0.663-0.15,1.161-0.235
			c0.498-0.086,0.977-0.128,1.437-0.128c0.556,0,1.011,0.042,1.364,0.128c0.353,0.085,0.644,0.24,0.873,0.464
			c0.221,0.219,0.344,0.502,0.372,0.85s-0.043,0.771-0.212,1.271l-1.848,5.458h-1.356L89.449,25.398z M89.826,24.284l0.75-2.214
			c-0.334,0.028-0.757,0.067-1.271,0.117c-0.513,0.05-0.936,0.12-1.271,0.211c-0.4,0.11-0.757,0.277-1.071,0.504
			c-0.313,0.226-0.538,0.541-0.676,0.946c-0.154,0.457-0.141,0.803,0.041,1.036c0.183,0.233,0.525,0.35,1.028,0.35
			c0.431,0,0.852-0.091,1.262-0.274S89.431,24.551,89.826,24.284z"/>
		<path stroke="#000000" stroke-width="0.2376" stroke-miterlimit="10" d="M96.482,26.406c-0.745,0-1.256-0.208-1.53-0.625
			c-0.275-0.417-0.26-1.075,0.044-1.975l1.497-4.422h-0.922l0.377-1.114h0.922l0.776-2.293h1.363l-0.776,2.293h2.511l-0.377,1.114
			h-2.511l-1.284,3.793c-0.137,0.405-0.235,0.717-0.294,0.936s-0.074,0.424-0.041,0.614c0.025,0.167,0.116,0.292,0.271,0.375
			c0.155,0.084,0.39,0.126,0.704,0.126c0.223,0,0.45-0.032,0.68-0.097c0.229-0.064,0.397-0.117,0.503-0.16h0.08l-0.408,1.208
			c-0.281,0.071-0.56,0.126-0.837,0.167C96.954,26.385,96.704,26.406,96.482,26.406z"/>
		<path stroke="#000000" stroke-width="0.2376" stroke-miterlimit="10" d="M104.292,26.434c-1.292,0-2.173-0.359-2.644-1.076
			c-0.471-0.716-0.483-1.734-0.037-3.053c0.44-1.301,1.136-2.335,2.089-3.104c0.952-0.769,1.986-1.153,3.104-1.153
			c0.503,0,0.923,0.071,1.263,0.213c0.338,0.144,0.602,0.368,0.788,0.672c0.187,0.305,0.283,0.678,0.289,1.118
			s-0.1,0.979-0.315,1.618l-0.247,0.729h-5.616c-0.314,0.929-0.317,1.638-0.009,2.129c0.308,0.49,0.88,0.735,1.717,0.735
			c0.3,0,0.605-0.033,0.916-0.1c0.31-0.066,0.599-0.152,0.866-0.257c0.284-0.109,0.528-0.216,0.731-0.318
			c0.204-0.102,0.377-0.199,0.519-0.289h0.08l-0.496,1.464c-0.18,0.062-0.405,0.139-0.673,0.232
			c-0.269,0.093-0.506,0.166-0.712,0.218c-0.291,0.072-0.55,0.126-0.778,0.165C104.899,26.415,104.621,26.434,104.292,26.434z
			 M107.603,21.369c0.112-0.362,0.175-0.674,0.187-0.937c0.011-0.262-0.026-0.482-0.109-0.664c-0.092-0.2-0.245-0.352-0.458-0.457
			c-0.214-0.104-0.505-0.157-0.872-0.157c-0.363,0-0.688,0.054-0.979,0.161c-0.291,0.106-0.574,0.263-0.851,0.467
			c-0.274,0.21-0.509,0.442-0.701,0.696c-0.192,0.255-0.36,0.551-0.504,0.89H107.603z"/>
		<path stroke="#000000" stroke-width="0.2376" stroke-miterlimit="10" d="M116.589,26.248h-1.363l0.3-0.886
			c-0.543,0.362-1.036,0.637-1.477,0.825c-0.441,0.189-0.894,0.282-1.358,0.282c-0.354,0-0.667-0.056-0.94-0.171
			c-0.272-0.115-0.484-0.295-0.633-0.543c-0.147-0.248-0.223-0.56-0.223-0.936c0-0.375,0.09-0.833,0.272-1.372l1.753-5.179h1.364
			l-1.538,4.543c-0.144,0.423-0.247,0.775-0.31,1.054c-0.063,0.278-0.074,0.522-0.034,0.732c0.042,0.205,0.143,0.355,0.302,0.45
			c0.158,0.096,0.417,0.143,0.775,0.143c0.334,0,0.721-0.092,1.16-0.278c0.44-0.186,0.863-0.415,1.271-0.687l2.017-5.958h1.363
			L116.589,26.248z"/>
		<path stroke="#000000" stroke-width="0.2376" stroke-miterlimit="10" d="M126.229,19.711h-0.072
			c-0.092-0.029-0.194-0.046-0.305-0.054c-0.112-0.006-0.247-0.01-0.407-0.01c-0.367,0-0.759,0.079-1.175,0.236
			c-0.416,0.156-0.839,0.391-1.268,0.699l-1.918,5.666h-1.364l2.702-7.979h1.364l-0.401,1.186c0.645-0.433,1.183-0.739,1.613-0.917
			c0.431-0.179,0.82-0.268,1.168-0.268c0.141,0,0.245,0.003,0.312,0.011c0.068,0.007,0.143,0.018,0.226,0.032L126.229,19.711z"/>
	</g>
	
		<line fill="none" stroke="#800000" stroke-width="0.7559" stroke-linecap="square" stroke-miterlimit="10" x1="18.834" y1="35.558" x2="153.92" y2="35.558"/>
	
		<line fill="none" stroke="#800000" stroke-width="0.7559" stroke-linecap="square" stroke-miterlimit="10" x1="18.834" y1="47.529" x2="153.92" y2="47.529"/>
	
		<rect x="379.514" y="6.296" fill-rule="evenodd" clip-rule="evenodd" fill="#FFFFB9" stroke="#800000" stroke-width="0.7559" stroke-linecap="square" stroke-miterlimit="10" width="118.875" height="54.532"/>
	<g>
		<path stroke="#000000" stroke-width="0.2376" stroke-miterlimit="10" d="M413.134,26.441c-0.706,0-1.315-0.117-1.829-0.351
			c-0.514-0.233-0.907-0.581-1.182-1.043c-0.273-0.462-0.413-1.038-0.416-1.729c-0.003-0.69,0.146-1.483,0.449-2.378
			c0.302-0.891,0.68-1.667,1.133-2.329c0.454-0.662,0.985-1.238,1.591-1.729c0.592-0.477,1.226-0.84,1.9-1.09
			c0.674-0.25,1.376-0.375,2.106-0.375c0.363,0,0.695,0.026,0.994,0.078c0.299,0.053,0.569,0.119,0.813,0.201
			c0.208,0.071,0.416,0.161,0.624,0.268c0.208,0.107,0.408,0.226,0.602,0.354l-0.578,1.708h-0.115
			c-0.088-0.115-0.203-0.252-0.347-0.414c-0.144-0.162-0.33-0.322-0.563-0.479c-0.226-0.147-0.483-0.269-0.775-0.364
			s-0.651-0.143-1.077-0.143c-0.459,0-0.926,0.093-1.399,0.278c-0.475,0.186-0.928,0.46-1.359,0.822
			c-0.428,0.362-0.818,0.816-1.173,1.364c-0.355,0.547-0.648,1.165-0.881,1.851c-0.246,0.728-0.37,1.356-0.368,1.883
			c0,0.526,0.094,0.97,0.281,1.332c0.181,0.353,0.444,0.618,0.79,0.797c0.346,0.178,0.746,0.268,1.2,0.268
			c0.416,0,0.817-0.05,1.205-0.15c0.386-0.1,0.743-0.227,1.071-0.379c0.315-0.147,0.597-0.299,0.842-0.453
			c0.246-0.154,0.444-0.287,0.593-0.397h0.108l-0.571,1.687c-0.273,0.109-0.533,0.214-0.777,0.314s-0.532,0.197-0.864,0.292
			c-0.349,0.101-0.666,0.176-0.952,0.229C413.924,26.415,413.564,26.441,413.134,26.441z"/>
		<path stroke="#000000" stroke-width="0.2376" stroke-miterlimit="10" d="M426.329,22.262c-0.454,1.343-1.135,2.381-2.04,3.111
			c-0.905,0.731-1.904,1.096-2.998,1.096c-1.127,0-1.885-0.377-2.275-1.132c-0.39-0.754-0.366-1.779,0.072-3.075
			c0.451-1.333,1.135-2.369,2.05-3.107c0.915-0.738,1.917-1.107,3.005-1.107c1.094,0,1.845,0.367,2.254,1.104
			C426.805,19.886,426.782,20.924,426.329,22.262z M424.922,22.262c0.35-1.033,0.418-1.801,0.207-2.303
			c-0.212-0.502-0.672-0.754-1.378-0.754c-0.711,0-1.344,0.251-1.897,0.754c-0.555,0.502-1.008,1.27-1.357,2.303
			c-0.339,1-0.403,1.759-0.193,2.275c0.209,0.517,0.67,0.775,1.381,0.775c0.701,0,1.33-0.253,1.886-0.76
			C424.126,24.044,424.577,23.281,424.922,22.262z"/>
		<path stroke="#000000" stroke-width="0.2376" stroke-miterlimit="10" d="M429.155,26.248h-1.364l3.764-11.115h1.363
			L429.155,26.248z"/>
		<path stroke="#000000" stroke-width="0.2376" stroke-miterlimit="10" d="M433.205,26.248h-1.364l3.763-11.115h1.365
			L433.205,26.248z"/>
		<path stroke="#000000" stroke-width="0.2376" stroke-miterlimit="10" d="M439.317,26.434c-1.292,0-2.173-0.359-2.644-1.076
			c-0.471-0.716-0.483-1.734-0.037-3.053c0.44-1.301,1.137-2.335,2.089-3.104c0.952-0.769,1.986-1.153,3.104-1.153
			c0.503,0,0.924,0.071,1.263,0.213c0.339,0.144,0.602,0.368,0.788,0.672c0.188,0.305,0.283,0.678,0.289,1.118
			s-0.1,0.979-0.315,1.618l-0.247,0.729h-5.616c-0.314,0.929-0.317,1.638-0.009,2.129c0.308,0.49,0.88,0.735,1.717,0.735
			c0.3,0,0.605-0.033,0.916-0.1c0.31-0.066,0.6-0.152,0.866-0.257c0.284-0.109,0.528-0.216,0.731-0.318
			c0.204-0.102,0.377-0.199,0.519-0.289h0.08l-0.495,1.464c-0.181,0.062-0.406,0.139-0.674,0.232
			c-0.269,0.093-0.506,0.166-0.712,0.218c-0.291,0.072-0.55,0.126-0.778,0.165C439.924,26.415,439.646,26.434,439.317,26.434z
			 M442.628,21.369c0.112-0.362,0.175-0.674,0.187-0.937c0.011-0.262-0.025-0.482-0.109-0.664c-0.092-0.2-0.244-0.352-0.458-0.457
			c-0.214-0.104-0.505-0.157-0.872-0.157c-0.363,0-0.688,0.054-0.979,0.161c-0.291,0.106-0.574,0.263-0.852,0.467
			c-0.274,0.21-0.509,0.442-0.701,0.696c-0.192,0.255-0.36,0.551-0.504,0.89H442.628z"/>
		<path stroke="#000000" stroke-width="0.2376" stroke-miterlimit="10" d="M445.16,27.527c0.078,0.039,0.196,0.089,0.354,0.154
			c0.157,0.064,0.34,0.125,0.549,0.181c0.229,0.062,0.445,0.112,0.645,0.151c0.2,0.038,0.427,0.057,0.678,0.057
			c0.421,0,0.796-0.055,1.125-0.164c0.331-0.11,0.61-0.262,0.841-0.457c0.222-0.196,0.406-0.421,0.557-0.679
			c0.149-0.257,0.28-0.55,0.392-0.879l0.237-0.7c-0.474,0.314-0.913,0.547-1.317,0.697c-0.403,0.15-0.872,0.225-1.403,0.225
			c-0.925,0-1.545-0.337-1.862-1.014c-0.318-0.677-0.263-1.648,0.166-2.916c0.225-0.662,0.518-1.249,0.88-1.76
			c0.361-0.513,0.763-0.947,1.203-1.304c0.421-0.343,0.87-0.607,1.35-0.793c0.479-0.186,0.94-0.278,1.386-0.278
			c0.421,0,0.768,0.049,1.043,0.146c0.273,0.098,0.535,0.237,0.783,0.418l0.195-0.343h1.285l-2.395,7.072
			c-0.458,1.353-1.094,2.346-1.908,2.979c-0.814,0.633-1.838,0.95-3.072,0.95c-0.396,0-0.791-0.031-1.184-0.092
			c-0.393-0.062-0.75-0.146-1.072-0.25l0.474-1.4H445.16z M450.91,24.084l1.483-4.38c-0.284-0.161-0.558-0.277-0.822-0.346
			s-0.539-0.104-0.824-0.104c-0.692,0-1.321,0.25-1.887,0.75c-0.565,0.5-1.007,1.216-1.323,2.151c-0.3,0.885-0.377,1.56-0.23,2.021
			c0.146,0.462,0.557,0.693,1.234,0.693c0.353,0,0.74-0.068,1.162-0.207C450.125,24.524,450.527,24.332,450.91,24.084z"/>
		<path stroke="#000000" stroke-width="0.2376" stroke-miterlimit="10" d="M461.061,26.248h-1.363l0.301-0.886
			c-0.544,0.362-1.037,0.637-1.478,0.825c-0.441,0.189-0.894,0.282-1.358,0.282c-0.354,0-0.666-0.056-0.939-0.171
			c-0.272-0.115-0.484-0.295-0.633-0.543c-0.147-0.248-0.223-0.56-0.223-0.936c-0.001-0.375,0.09-0.833,0.271-1.372l1.754-5.179
			h1.363l-1.537,4.543c-0.145,0.423-0.247,0.775-0.311,1.054c-0.063,0.278-0.074,0.522-0.034,0.732
			c0.042,0.205,0.143,0.355,0.302,0.45c0.158,0.096,0.417,0.143,0.775,0.143c0.334,0,0.721-0.092,1.16-0.278
			c0.44-0.186,0.863-0.415,1.271-0.687l2.017-5.958h1.363L461.061,26.248z"/>
		<path stroke="#000000" stroke-width="0.2376" stroke-miterlimit="10" d="M467.65,26.434c-1.292,0-2.173-0.359-2.644-1.076
			c-0.471-0.716-0.483-1.734-0.037-3.053c0.44-1.301,1.136-2.335,2.089-3.104c0.952-0.769,1.986-1.153,3.104-1.153
			c0.503,0,0.923,0.071,1.263,0.213c0.338,0.144,0.602,0.368,0.788,0.672c0.187,0.305,0.283,0.678,0.289,1.118
			s-0.1,0.979-0.315,1.618l-0.247,0.729h-5.616c-0.314,0.929-0.317,1.638-0.009,2.129c0.308,0.49,0.88,0.735,1.717,0.735
			c0.3,0,0.604-0.033,0.916-0.1c0.31-0.066,0.599-0.152,0.866-0.257c0.283-0.109,0.527-0.216,0.731-0.318
			c0.204-0.102,0.377-0.199,0.519-0.289h0.08l-0.496,1.464c-0.18,0.062-0.404,0.139-0.673,0.232
			c-0.269,0.093-0.506,0.166-0.712,0.218c-0.291,0.072-0.55,0.126-0.777,0.165C468.258,26.415,467.979,26.434,467.65,26.434z
			 M470.961,21.369c0.112-0.362,0.176-0.674,0.187-0.937c0.011-0.262-0.026-0.482-0.108-0.664c-0.093-0.2-0.246-0.352-0.459-0.457
			c-0.214-0.104-0.505-0.157-0.872-0.157c-0.363,0-0.688,0.054-0.979,0.161c-0.29,0.106-0.574,0.263-0.851,0.467
			c-0.274,0.21-0.509,0.442-0.701,0.696c-0.192,0.255-0.36,0.551-0.504,0.89H470.961z"/>
	</g>
	
		<line fill="none" stroke="#800000" stroke-width="0.7559" stroke-linecap="square" stroke-miterlimit="10" x1="379.514" y1="35.558" x2="499.739" y2="35.558"/>
	
		<line fill="none" stroke="#800000" stroke-width="0.7559" stroke-linecap="square" stroke-miterlimit="10" x1="379.514" y1="47.529" x2="499.739" y2="47.529"/>
	
		<rect x="9.378" y="136.645" fill-rule="evenodd" clip-rule="evenodd" fill="#FFFFB9" stroke="#800000" stroke-width="0.7559" stroke-linecap="square" stroke-miterlimit="10" width="151.296" height="54.533"/>
	<g>
		<path d="M29.639,156.591h-2.699v-7.051l-1.966,4.551h-1.85l-1.966-4.551v7.051h-2.554v-10.638h3.127l2.394,5.251l2.387-5.251
			h3.127V156.591z"/>
		<path d="M36.138,156.805c-1.538,0-2.717-0.361-3.537-1.085c-0.82-0.725-1.229-1.756-1.229-3.094c0-1.31,0.382-2.355,1.146-3.137
			c0.765-0.78,1.833-1.171,3.207-1.171c1.248,0,2.187,0.331,2.815,0.993c0.628,0.662,0.943,1.609,0.943,2.843v0.9h-5.565
			c0.024,0.371,0.104,0.682,0.24,0.933c0.135,0.25,0.314,0.448,0.537,0.596c0.218,0.148,0.472,0.254,0.762,0.318
			c0.29,0.064,0.607,0.097,0.95,0.097c0.295,0,0.585-0.032,0.871-0.097c0.286-0.064,0.547-0.148,0.784-0.254
			c0.208-0.09,0.4-0.188,0.577-0.293c0.177-0.104,0.321-0.197,0.432-0.278h0.268v2.064c-0.208,0.081-0.398,0.156-0.569,0.226
			c-0.172,0.068-0.408,0.139-0.708,0.21c-0.276,0.072-0.56,0.128-0.853,0.168C36.916,156.785,36.559,156.805,36.138,156.805z
			 M36.979,151.547c-0.015-0.528-0.139-0.931-0.374-1.207c-0.235-0.276-0.594-0.414-1.078-0.414c-0.493,0-0.879,0.146-1.157,0.436
			s-0.432,0.686-0.461,1.186H36.979z"/>
		<path d="M48.821,156.591h-2.54v-0.836c-0.165,0.134-0.352,0.276-0.563,0.429s-0.396,0.267-0.555,0.343
			c-0.204,0.096-0.404,0.167-0.603,0.215c-0.198,0.047-0.435,0.071-0.711,0.071c-0.929,0-1.664-0.379-2.206-1.136
			c-0.542-0.758-0.813-1.77-0.813-3.036c0-0.7,0.092-1.308,0.276-1.822c0.184-0.515,0.438-0.962,0.762-1.343
			c0.295-0.348,0.653-0.623,1.074-0.825c0.42-0.202,0.866-0.304,1.335-0.304c0.425,0,0.775,0.044,1.048,0.132
			c0.273,0.089,0.591,0.226,0.954,0.411v-3.415h2.54V156.591z M46.281,154.376v-3.937c-0.126-0.062-0.291-0.112-0.494-0.153
			c-0.203-0.04-0.377-0.061-0.522-0.061c-0.61,0-1.068,0.21-1.375,0.629c-0.308,0.419-0.461,1.005-0.461,1.757
			c0,0.791,0.122,1.362,0.366,1.715c0.245,0.353,0.64,0.528,1.187,0.528c0.223,0,0.447-0.043,0.675-0.128
			C45.884,154.641,46.093,154.523,46.281,154.376z"/>
		<path d="M53.466,147.425h-2.685v-1.95h2.685V147.425z M53.394,156.591h-2.54v-8.022h2.54V156.591z"/>
		<path d="M59.398,155.74c-0.174,0.144-0.33,0.271-0.468,0.386c-0.138,0.115-0.323,0.229-0.555,0.344
			c-0.228,0.109-0.449,0.192-0.664,0.25c-0.215,0.057-0.516,0.085-0.903,0.085c-0.721,0-1.319-0.237-1.795-0.714
			c-0.477-0.477-0.715-1.076-0.715-1.801c0-0.595,0.121-1.076,0.363-1.442c0.242-0.367,0.59-0.657,1.045-0.872
			c0.459-0.219,1.008-0.371,1.647-0.457c0.638-0.086,1.325-0.152,2.061-0.2v-0.043c0-0.442-0.166-0.749-0.497-0.918
			c-0.332-0.169-0.829-0.253-1.491-0.253c-0.3,0-0.65,0.053-1.052,0.16c-0.402,0.107-0.793,0.244-1.175,0.411H54.98v-1.937
			c0.251-0.071,0.658-0.155,1.219-0.253s1.127-0.146,1.698-0.146c1.403,0,2.425,0.229,3.065,0.689
			c0.641,0.459,0.961,1.16,0.961,2.104v5.458h-2.525V155.74z M59.398,154.498v-1.672c-0.431,0.043-0.779,0.08-1.045,0.11
			c-0.266,0.031-0.527,0.092-0.783,0.183c-0.223,0.076-0.396,0.191-0.519,0.347c-0.123,0.154-0.185,0.36-0.185,0.617
			c0,0.377,0.103,0.635,0.309,0.775s0.509,0.211,0.911,0.211c0.222,0,0.45-0.05,0.682-0.15C59,154.819,59.21,154.679,59.398,154.498
			z"/>
		<path d="M67.473,156.748c-1.035,0-1.789-0.21-2.26-0.629s-0.708-1.104-0.708-2.058v-3.75h-0.972v-1.743h0.972v-2.293h2.54v2.293
			h2.445v1.743h-2.445v2.843c0,0.281,0.002,0.526,0.007,0.736c0.005,0.209,0.043,0.397,0.116,0.564
			c0.067,0.166,0.187,0.299,0.359,0.396s0.422,0.146,0.751,0.146c0.135,0,0.313-0.029,0.533-0.086
			c0.22-0.058,0.374-0.109,0.461-0.157h0.218v1.765c-0.276,0.071-0.568,0.127-0.878,0.168
			C68.302,156.728,67.922,156.748,67.473,156.748z"/>
		<path d="M75.278,156.805c-1.538,0-2.717-0.361-3.537-1.085c-0.82-0.725-1.229-1.756-1.229-3.094c0-1.31,0.382-2.355,1.146-3.137
			c0.765-0.78,1.833-1.171,3.207-1.171c1.248,0,2.187,0.331,2.815,0.993c0.628,0.662,0.943,1.609,0.943,2.843v0.9h-5.565
			c0.024,0.371,0.104,0.682,0.24,0.933c0.135,0.25,0.314,0.448,0.537,0.596c0.218,0.148,0.472,0.254,0.762,0.318
			c0.29,0.064,0.607,0.097,0.95,0.097c0.295,0,0.585-0.032,0.871-0.097c0.286-0.064,0.547-0.148,0.784-0.254
			c0.208-0.09,0.4-0.188,0.577-0.293c0.177-0.104,0.321-0.197,0.432-0.278h0.268v2.064c-0.208,0.081-0.398,0.156-0.569,0.226
			c-0.172,0.068-0.408,0.139-0.708,0.21c-0.276,0.072-0.56,0.128-0.853,0.168C76.056,156.785,75.699,156.805,75.278,156.805z
			 M76.12,151.547c-0.015-0.528-0.139-0.931-0.374-1.207c-0.235-0.276-0.594-0.414-1.078-0.414c-0.493,0-0.879,0.146-1.157,0.436
			s-0.432,0.686-0.461,1.186H76.12z"/>
		<path d="M88.121,156.591h-2.54v-0.886c-0.44,0.362-0.844,0.637-1.212,0.825c-0.368,0.188-0.805,0.282-1.313,0.282
			c-0.808,0-1.438-0.251-1.89-0.754c-0.453-0.502-0.679-1.259-0.679-2.269v-5.222h2.554v3.979c0,0.415,0.011,0.753,0.033,1.015
			c0.021,0.263,0.074,0.483,0.156,0.665c0.078,0.166,0.197,0.293,0.359,0.378c0.162,0.086,0.388,0.129,0.678,0.129
			c0.179,0,0.391-0.043,0.635-0.129c0.245-0.085,0.471-0.202,0.679-0.35v-5.687h2.54V156.591z"/>
		<path d="M95.492,150.933h-0.21c-0.097-0.033-0.237-0.058-0.421-0.075c-0.184-0.017-0.387-0.024-0.609-0.024
			c-0.266,0-0.545,0.038-0.838,0.114c-0.293,0.076-0.577,0.167-0.853,0.271v5.372h-2.54v-8.022h2.54v1.15
			c0.116-0.105,0.277-0.237,0.482-0.396c0.206-0.16,0.393-0.287,0.563-0.383c0.184-0.109,0.397-0.203,0.642-0.282
			c0.244-0.078,0.475-0.117,0.693-0.117c0.082,0,0.174,0.002,0.276,0.007c0.102,0.005,0.193,0.012,0.275,0.021V150.933z"/>
		<path d="M101.564,156.798c-1.621,0-2.907-0.482-3.86-1.446c-0.953-0.965-1.429-2.32-1.429-4.068c0-1.687,0.478-3.03,1.433-4.033
			c0.956-1.002,2.243-1.504,3.864-1.504c0.431,0,0.817,0.024,1.161,0.071c0.344,0.048,0.672,0.114,0.987,0.2
			c0.247,0.071,0.515,0.169,0.806,0.293c0.29,0.124,0.525,0.231,0.704,0.321v2.536h-0.276c-0.13-0.114-0.295-0.251-0.493-0.41
			c-0.198-0.16-0.423-0.315-0.675-0.469c-0.251-0.152-0.528-0.281-0.831-0.389c-0.303-0.107-0.618-0.161-0.947-0.161
			c-0.392,0-0.751,0.061-1.078,0.183c-0.327,0.121-0.637,0.332-0.933,0.632c-0.271,0.271-0.492,0.639-0.664,1.101
			c-0.172,0.462-0.258,1.007-0.258,1.636c0,0.662,0.09,1.218,0.269,1.668c0.179,0.45,0.414,0.813,0.704,1.09
			c0.281,0.267,0.594,0.459,0.94,0.578c0.346,0.119,0.69,0.179,1.034,0.179c0.358,0,0.699-0.059,1.023-0.175
			c0.324-0.117,0.598-0.246,0.82-0.39c0.242-0.147,0.455-0.298,0.638-0.45c0.184-0.152,0.343-0.288,0.479-0.407h0.247v2.501
			c-0.198,0.09-0.428,0.194-0.689,0.311c-0.261,0.117-0.529,0.216-0.805,0.297c-0.338,0.1-0.655,0.176-0.95,0.229
			C102.488,156.771,102.082,156.798,101.564,156.798z"/>
		<path d="M114.041,152.583c0,1.319-0.367,2.358-1.1,3.118c-0.732,0.76-1.769,1.14-3.109,1.14c-1.33,0-2.364-0.38-3.102-1.14
			c-0.738-0.76-1.106-1.799-1.106-3.118c0-1.333,0.369-2.378,1.106-3.133c0.737-0.755,1.771-1.132,3.102-1.132
			c1.335,0,2.37,0.38,3.105,1.14S114.041,151.259,114.041,152.583z M111.436,152.598c0-0.477-0.04-0.873-0.12-1.189
			c-0.08-0.317-0.19-0.57-0.33-0.761c-0.15-0.2-0.319-0.34-0.508-0.418c-0.189-0.079-0.404-0.118-0.646-0.118
			c-0.228,0-0.433,0.034-0.617,0.104s-0.353,0.201-0.508,0.396c-0.145,0.186-0.261,0.44-0.348,0.765
			c-0.087,0.323-0.131,0.73-0.131,1.222c0,0.49,0.041,0.887,0.124,1.189c0.082,0.302,0.188,0.544,0.319,0.725
			c0.135,0.186,0.305,0.321,0.508,0.407s0.428,0.129,0.675,0.129c0.203,0,0.41-0.043,0.62-0.129s0.378-0.214,0.504-0.386
			c0.15-0.204,0.264-0.451,0.341-0.739C111.397,153.506,111.436,153.107,111.436,152.598z"/>
		<path d="M123.305,156.591h-2.554v-3.979c0-0.323-0.014-0.646-0.04-0.968c-0.027-0.321-0.076-0.559-0.149-0.711
			c-0.087-0.181-0.213-0.311-0.377-0.39c-0.165-0.078-0.385-0.117-0.66-0.117c-0.208,0-0.418,0.038-0.631,0.114
			s-0.44,0.197-0.682,0.364v5.687h-2.54v-8.022h2.54v0.886c0.416-0.348,0.821-0.619,1.215-0.814c0.394-0.195,0.831-0.293,1.31-0.293
			c0.832,0,1.468,0.259,1.908,0.775s0.66,1.266,0.66,2.246V156.591z"/>
		<path d="M129.138,156.805c-0.672,0-1.288-0.083-1.847-0.25c-0.559-0.166-1.043-0.424-1.455-0.771
			c-0.406-0.348-0.723-0.784-0.951-1.311s-0.341-1.146-0.341-1.861c0-0.767,0.123-1.419,0.37-1.957
			c0.247-0.538,0.58-0.981,1.001-1.329c0.406-0.333,0.884-0.579,1.433-0.739c0.549-0.159,1.121-0.239,1.716-0.239
			c0.45,0,0.9,0.051,1.35,0.153s0.902,0.266,1.357,0.489v2.144h-0.327c-0.102-0.095-0.226-0.2-0.374-0.314
			c-0.148-0.114-0.309-0.219-0.482-0.314c-0.184-0.1-0.392-0.185-0.624-0.253c-0.232-0.069-0.491-0.104-0.776-0.104
			c-0.648,0-1.15,0.224-1.506,0.668c-0.355,0.446-0.533,1.045-0.533,1.797c0,0.806,0.19,1.405,0.57,1.801
			c0.379,0.396,0.884,0.593,1.513,0.593c0.319,0,0.6-0.036,0.842-0.107c0.242-0.071,0.45-0.157,0.624-0.257
			c0.169-0.101,0.314-0.204,0.435-0.311c0.121-0.107,0.225-0.204,0.312-0.29h0.327v2.144c-0.145,0.062-0.313,0.134-0.504,0.214
			c-0.191,0.081-0.386,0.148-0.584,0.2c-0.247,0.067-0.478,0.118-0.693,0.154C129.775,156.787,129.491,156.805,129.138,156.805z"/>
		<path d="M138.714,150.933h-0.21c-0.097-0.033-0.237-0.058-0.421-0.075c-0.184-0.017-0.387-0.024-0.609-0.024
			c-0.266,0-0.545,0.038-0.838,0.114c-0.293,0.076-0.577,0.167-0.853,0.271v5.372h-2.54v-8.022h2.54v1.15
			c0.116-0.105,0.277-0.237,0.482-0.396c0.206-0.16,0.393-0.287,0.563-0.383c0.184-0.109,0.397-0.203,0.642-0.282
			c0.244-0.078,0.475-0.117,0.693-0.117c0.082,0,0.174,0.002,0.276,0.007c0.102,0.005,0.193,0.012,0.275,0.021V150.933z"/>
		<path d="M144.155,156.805c-1.538,0-2.717-0.361-3.537-1.085c-0.82-0.725-1.229-1.756-1.229-3.094c0-1.31,0.382-2.355,1.146-3.137
			c0.765-0.78,1.833-1.171,3.207-1.171c1.248,0,2.187,0.331,2.815,0.993c0.628,0.662,0.943,1.609,0.943,2.843v0.9h-5.565
			c0.024,0.371,0.104,0.682,0.24,0.933c0.135,0.25,0.314,0.448,0.537,0.596c0.218,0.148,0.472,0.254,0.762,0.318
			c0.29,0.064,0.607,0.097,0.95,0.097c0.295,0,0.585-0.032,0.871-0.097c0.286-0.064,0.547-0.148,0.784-0.254
			c0.208-0.09,0.4-0.188,0.577-0.293c0.177-0.104,0.321-0.197,0.432-0.278h0.268v2.064c-0.208,0.081-0.398,0.156-0.569,0.226
			c-0.172,0.068-0.408,0.139-0.708,0.21c-0.276,0.072-0.56,0.128-0.853,0.168C144.933,156.785,144.576,156.805,144.155,156.805z
			 M144.997,151.547c-0.015-0.528-0.139-0.931-0.374-1.207c-0.235-0.276-0.594-0.414-1.078-0.414c-0.493,0-0.879,0.146-1.157,0.436
			s-0.432,0.686-0.461,1.186H144.997z"/>
		<path d="M152.55,156.748c-1.035,0-1.789-0.21-2.26-0.629s-0.708-1.104-0.708-2.058v-3.75h-0.972v-1.743h0.972v-2.293h2.54v2.293
			h2.445v1.743h-2.445v2.843c0,0.281,0.002,0.526,0.007,0.736c0.005,0.209,0.043,0.397,0.116,0.564
			c0.067,0.166,0.187,0.299,0.359,0.396s0.422,0.146,0.751,0.146c0.135,0,0.313-0.029,0.533-0.086
			c0.22-0.058,0.374-0.109,0.461-0.157h0.218v1.765c-0.276,0.071-0.568,0.127-0.878,0.168
			C153.38,156.728,153,156.748,152.55,156.748z"/>
	</g>
	
		<line fill="none" stroke="#800000" stroke-width="0.7559" stroke-linecap="square" stroke-miterlimit="10" x1="9.378" y1="165.904" x2="162.025" y2="165.904"/>
	
		<line fill="none" stroke="#800000" stroke-width="0.7559" stroke-linecap="square" stroke-miterlimit="10" x1="9.378" y1="177.874" x2="162.025" y2="177.874"/>
	
		<rect x="282.252" y="136.645" fill-rule="evenodd" clip-rule="evenodd" fill="#FFFFB9" stroke="#800000" stroke-width="0.7559" stroke-linecap="square" stroke-miterlimit="10" width="151.297" height="54.533"/>
	<g>
		<path d="M297.48,156.798c-1.621,0-2.907-0.482-3.86-1.446c-0.953-0.965-1.429-2.32-1.429-4.068c0-1.687,0.478-3.03,1.433-4.033
			c0.956-1.002,2.243-1.504,3.864-1.504c0.431,0,0.817,0.024,1.161,0.071c0.344,0.048,0.672,0.114,0.987,0.2
			c0.247,0.071,0.515,0.169,0.806,0.293c0.29,0.124,0.525,0.231,0.704,0.321v2.536h-0.276c-0.13-0.114-0.295-0.251-0.493-0.41
			c-0.198-0.16-0.423-0.315-0.675-0.469c-0.251-0.152-0.528-0.281-0.831-0.389c-0.303-0.107-0.618-0.161-0.947-0.161
			c-0.392,0-0.751,0.061-1.078,0.183c-0.327,0.121-0.637,0.332-0.933,0.632c-0.271,0.271-0.492,0.639-0.664,1.101
			c-0.172,0.462-0.258,1.007-0.258,1.636c0,0.662,0.09,1.218,0.269,1.668c0.179,0.45,0.414,0.813,0.704,1.09
			c0.281,0.267,0.594,0.459,0.94,0.578c0.346,0.119,0.69,0.179,1.034,0.179c0.358,0,0.699-0.059,1.023-0.175
			c0.324-0.117,0.598-0.246,0.82-0.39c0.242-0.147,0.455-0.298,0.638-0.45c0.184-0.152,0.343-0.288,0.479-0.407h0.247v2.501
			c-0.198,0.09-0.428,0.194-0.689,0.311c-0.261,0.117-0.529,0.216-0.805,0.297c-0.338,0.1-0.655,0.176-0.95,0.229
			C298.404,156.771,297.998,156.798,297.48,156.798z"/>
		<path d="M309.956,152.583c0,1.319-0.366,2.358-1.099,3.118c-0.733,0.76-1.77,1.14-3.109,1.14c-1.33,0-2.364-0.38-3.102-1.14
			c-0.738-0.76-1.106-1.799-1.106-3.118c0-1.333,0.369-2.378,1.106-3.133c0.737-0.755,1.771-1.132,3.102-1.132
			c1.335,0,2.37,0.38,3.105,1.14S309.956,151.259,309.956,152.583z M307.352,152.598c0-0.477-0.04-0.873-0.12-1.189
			c-0.079-0.317-0.189-0.57-0.33-0.761c-0.149-0.2-0.318-0.34-0.508-0.418c-0.188-0.079-0.404-0.118-0.646-0.118
			c-0.228,0-0.433,0.034-0.617,0.104s-0.353,0.201-0.508,0.396c-0.145,0.186-0.261,0.44-0.348,0.765
			c-0.087,0.323-0.131,0.73-0.131,1.222c0,0.49,0.041,0.887,0.124,1.189c0.082,0.302,0.188,0.544,0.319,0.725
			c0.135,0.186,0.305,0.321,0.508,0.407s0.428,0.129,0.675,0.129c0.203,0,0.41-0.043,0.621-0.129
			c0.21-0.086,0.378-0.214,0.504-0.386c0.149-0.204,0.264-0.451,0.341-0.739S307.352,153.107,307.352,152.598z"/>
		<path d="M314.128,156.591h-2.539v-11.116h2.539V156.591z"/>
		<path d="M318.181,156.591h-2.539v-11.116h2.539V156.591z"/>
		<path d="M323.867,156.805c-1.538,0-2.718-0.361-3.537-1.085c-0.82-0.725-1.23-1.756-1.23-3.094c0-1.31,0.383-2.355,1.146-3.137
			c0.765-0.78,1.833-1.171,3.207-1.171c1.248,0,2.187,0.331,2.815,0.993s0.943,1.609,0.943,2.843v0.9h-5.565
			c0.024,0.371,0.104,0.682,0.239,0.933c0.136,0.25,0.314,0.448,0.537,0.596c0.218,0.148,0.472,0.254,0.762,0.318
			s0.607,0.097,0.951,0.097c0.295,0,0.585-0.032,0.87-0.097s0.547-0.148,0.784-0.254c0.207-0.09,0.399-0.188,0.576-0.293
			c0.177-0.104,0.32-0.197,0.432-0.278h0.269v2.064c-0.208,0.081-0.397,0.156-0.569,0.226c-0.172,0.068-0.407,0.139-0.707,0.21
			c-0.276,0.072-0.561,0.128-0.853,0.168C324.645,156.785,324.288,156.805,323.867,156.805z M324.709,151.547
			c-0.015-0.528-0.14-0.931-0.374-1.207s-0.594-0.414-1.077-0.414c-0.494,0-0.88,0.146-1.157,0.436
			c-0.278,0.29-0.433,0.686-0.461,1.186H324.709z"/>
		<path d="M336.549,155.669c0,0.743-0.108,1.374-0.326,1.894c-0.218,0.519-0.516,0.924-0.893,1.215
			c-0.377,0.295-0.829,0.508-1.356,0.639s-1.113,0.196-1.756,0.196c-0.542,0-1.056-0.034-1.542-0.104
			c-0.486-0.068-0.908-0.148-1.267-0.239v-2.007h0.298c0.126,0.047,0.274,0.1,0.446,0.157c0.172,0.057,0.345,0.109,0.519,0.157
			c0.208,0.052,0.411,0.095,0.609,0.128s0.401,0.05,0.609,0.05c0.431,0,0.79-0.044,1.078-0.132c0.287-0.088,0.504-0.213,0.649-0.375
			c0.145-0.167,0.246-0.363,0.305-0.59c0.058-0.226,0.087-0.511,0.087-0.854v-0.149c-0.285,0.247-0.615,0.446-0.99,0.597
			c-0.375,0.149-0.761,0.225-1.157,0.225c-1.055,0-1.868-0.338-2.441-1.015c-0.573-0.676-0.86-1.705-0.86-3.086
			c0-0.629,0.089-1.193,0.265-1.693c0.177-0.5,0.422-0.926,0.737-1.278c0.3-0.339,0.662-0.6,1.088-0.782
			c0.426-0.184,0.868-0.275,1.328-0.275c0.416,0,0.788,0.053,1.117,0.157s0.629,0.245,0.899,0.422l0.095-0.357h2.459V155.669z
			 M334.01,154.062v-3.636c-0.126-0.058-0.28-0.104-0.465-0.144c-0.184-0.037-0.367-0.057-0.551-0.057
			c-0.609,0-1.068,0.194-1.375,0.582c-0.308,0.389-0.461,0.93-0.461,1.625c0,0.348,0.022,0.643,0.069,0.883
			c0.046,0.24,0.132,0.453,0.257,0.64c0.121,0.181,0.279,0.317,0.476,0.41s0.446,0.14,0.751,0.14c0.228,0,0.451-0.038,0.671-0.114
			C333.603,154.314,333.812,154.205,334.01,154.062z"/>
		<path d="M346.15,156.591h-2.54v-0.886c-0.439,0.362-0.844,0.637-1.211,0.825c-0.368,0.188-0.806,0.282-1.313,0.282
			c-0.808,0-1.438-0.251-1.891-0.754c-0.452-0.502-0.678-1.259-0.678-2.269v-5.222h2.554v3.979c0,0.415,0.011,0.753,0.032,1.015
			c0.022,0.263,0.074,0.483,0.156,0.665c0.077,0.166,0.197,0.293,0.359,0.378c0.162,0.086,0.388,0.129,0.679,0.129
			c0.179,0,0.391-0.043,0.635-0.129c0.244-0.085,0.47-0.202,0.678-0.35v-5.687h2.54V156.591z"/>
		<path d="M352.223,156.805c-1.538,0-2.718-0.361-3.537-1.085c-0.82-0.725-1.23-1.756-1.23-3.094c0-1.31,0.383-2.355,1.146-3.137
			c0.765-0.78,1.833-1.171,3.207-1.171c1.248,0,2.187,0.331,2.815,0.993s0.943,1.609,0.943,2.843v0.9h-5.565
			c0.024,0.371,0.104,0.682,0.239,0.933c0.136,0.25,0.314,0.448,0.537,0.596c0.218,0.148,0.472,0.254,0.762,0.318
			s0.607,0.097,0.951,0.097c0.295,0,0.585-0.032,0.87-0.097s0.547-0.148,0.784-0.254c0.207-0.09,0.399-0.188,0.576-0.293
			c0.177-0.104,0.32-0.197,0.432-0.278h0.269v2.064c-0.208,0.081-0.397,0.156-0.569,0.226c-0.172,0.068-0.407,0.139-0.707,0.21
			c-0.276,0.072-0.561,0.128-0.853,0.168C353,156.785,352.644,156.805,352.223,156.805z M353.064,151.547
			c-0.015-0.528-0.14-0.931-0.374-1.207s-0.594-0.414-1.077-0.414c-0.494,0-0.88,0.146-1.157,0.436
			c-0.278,0.29-0.433,0.686-0.461,1.186H353.064z"/>
		<path d="M362.301,156.798c-1.62,0-2.907-0.482-3.86-1.446c-0.952-0.965-1.429-2.32-1.429-4.068c0-1.687,0.478-3.03,1.433-4.033
			c0.955-1.002,2.243-1.504,3.863-1.504c0.431,0,0.817,0.024,1.161,0.071c0.344,0.048,0.673,0.114,0.987,0.2
			c0.246,0.071,0.515,0.169,0.805,0.293c0.291,0.124,0.525,0.231,0.704,0.321v2.536h-0.275c-0.131-0.114-0.295-0.251-0.493-0.41
			c-0.199-0.16-0.424-0.315-0.675-0.469c-0.252-0.152-0.529-0.281-0.831-0.389c-0.303-0.107-0.618-0.161-0.947-0.161
			c-0.392,0-0.751,0.061-1.077,0.183c-0.326,0.121-0.638,0.332-0.933,0.632c-0.271,0.271-0.492,0.639-0.664,1.101
			c-0.171,0.462-0.257,1.007-0.257,1.636c0,0.662,0.089,1.218,0.269,1.668c0.179,0.45,0.413,0.813,0.703,1.09
			c0.28,0.267,0.594,0.459,0.939,0.578s0.69,0.179,1.034,0.179c0.358,0,0.699-0.059,1.023-0.175c0.324-0.117,0.597-0.246,0.819-0.39
			c0.242-0.147,0.455-0.298,0.639-0.45s0.344-0.288,0.479-0.407h0.247v2.501c-0.198,0.09-0.428,0.194-0.689,0.311
			c-0.261,0.117-0.529,0.216-0.805,0.297c-0.339,0.1-0.656,0.176-0.951,0.229C363.225,156.771,362.818,156.798,362.301,156.798z"/>
		<path d="M374.776,152.583c0,1.319-0.366,2.358-1.1,3.118c-0.732,0.76-1.769,1.14-3.108,1.14c-1.331,0-2.364-0.38-3.103-1.14
			c-0.737-0.76-1.106-1.799-1.106-3.118c0-1.333,0.369-2.378,1.106-3.133c0.738-0.755,1.771-1.132,3.103-1.132
			c1.335,0,2.37,0.38,3.105,1.14C374.408,150.218,374.776,151.259,374.776,152.583z M372.172,152.598c0-0.477-0.04-0.873-0.12-1.189
			c-0.08-0.317-0.189-0.57-0.33-0.761c-0.15-0.2-0.319-0.34-0.508-0.418c-0.188-0.079-0.404-0.118-0.646-0.118
			c-0.228,0-0.434,0.034-0.617,0.104s-0.354,0.201-0.508,0.396c-0.146,0.186-0.261,0.44-0.349,0.765
			c-0.087,0.323-0.13,0.73-0.13,1.222c0,0.49,0.041,0.887,0.123,1.189c0.082,0.302,0.188,0.544,0.319,0.725
			c0.135,0.186,0.305,0.321,0.508,0.407s0.428,0.129,0.675,0.129c0.203,0,0.41-0.043,0.62-0.129
			c0.211-0.086,0.379-0.214,0.504-0.386c0.15-0.204,0.264-0.451,0.342-0.739C372.133,153.506,372.172,153.107,372.172,152.598z"/>
		<path d="M384.042,156.591h-2.555v-3.979c0-0.323-0.013-0.646-0.039-0.968c-0.027-0.321-0.076-0.559-0.149-0.711
			c-0.087-0.181-0.213-0.311-0.377-0.39c-0.165-0.078-0.385-0.117-0.66-0.117c-0.208,0-0.419,0.038-0.632,0.114
			s-0.439,0.197-0.682,0.364v5.687h-2.539v-8.022h2.539v0.886c0.416-0.348,0.821-0.619,1.215-0.814
			c0.395-0.195,0.831-0.293,1.311-0.293c0.831,0,1.468,0.259,1.908,0.775c0.439,0.517,0.66,1.266,0.66,2.246V156.591z"/>
		<path d="M389.873,156.805c-0.672,0-1.287-0.083-1.847-0.25c-0.559-0.166-1.043-0.424-1.454-0.771
			c-0.406-0.348-0.724-0.784-0.95-1.311c-0.228-0.526-0.342-1.146-0.342-1.861c0-0.767,0.124-1.419,0.37-1.957
			c0.247-0.538,0.581-0.981,1.002-1.329c0.406-0.333,0.884-0.579,1.433-0.739c0.549-0.159,1.121-0.239,1.716-0.239
			c0.45,0,0.899,0.051,1.35,0.153s0.902,0.266,1.356,0.489v2.144h-0.326c-0.102-0.095-0.227-0.2-0.374-0.314
			s-0.308-0.219-0.482-0.314c-0.184-0.1-0.392-0.185-0.624-0.253c-0.231-0.069-0.49-0.104-0.776-0.104
			c-0.647,0-1.149,0.224-1.505,0.668c-0.355,0.446-0.533,1.045-0.533,1.797c0,0.806,0.189,1.405,0.569,1.801
			s0.884,0.593,1.513,0.593c0.319,0,0.6-0.036,0.842-0.107c0.241-0.071,0.449-0.157,0.624-0.257
			c0.169-0.101,0.314-0.204,0.436-0.311c0.12-0.107,0.225-0.204,0.312-0.29h0.326v2.144c-0.145,0.062-0.313,0.134-0.504,0.214
			c-0.191,0.081-0.386,0.148-0.584,0.2c-0.247,0.067-0.478,0.118-0.693,0.154C390.511,156.787,390.227,156.805,389.873,156.805z"/>
		<path d="M399.45,150.933h-0.211c-0.097-0.033-0.237-0.058-0.421-0.075c-0.184-0.017-0.387-0.024-0.609-0.024
			c-0.266,0-0.545,0.038-0.838,0.114s-0.577,0.167-0.853,0.271v5.372h-2.539v-8.022h2.539v1.15c0.116-0.105,0.276-0.237,0.482-0.396
			c0.206-0.16,0.393-0.287,0.563-0.383c0.184-0.109,0.397-0.203,0.642-0.282c0.244-0.078,0.476-0.117,0.693-0.117
			c0.082,0,0.174,0.002,0.275,0.007s0.193,0.012,0.276,0.021V150.933z"/>
		<path d="M404.892,156.805c-1.538,0-2.718-0.361-3.537-1.085c-0.82-0.725-1.23-1.756-1.23-3.094c0-1.31,0.383-2.355,1.146-3.137
			c0.765-0.78,1.833-1.171,3.207-1.171c1.248,0,2.187,0.331,2.815,0.993s0.943,1.609,0.943,2.843v0.9h-5.565
			c0.024,0.371,0.104,0.682,0.239,0.933c0.136,0.25,0.314,0.448,0.537,0.596c0.218,0.148,0.472,0.254,0.762,0.318
			s0.607,0.097,0.951,0.097c0.295,0,0.585-0.032,0.87-0.097s0.547-0.148,0.784-0.254c0.207-0.09,0.399-0.188,0.576-0.293
			c0.177-0.104,0.32-0.197,0.432-0.278h0.269v2.064c-0.208,0.081-0.397,0.156-0.569,0.226c-0.172,0.068-0.407,0.139-0.707,0.21
			c-0.276,0.072-0.561,0.128-0.853,0.168C405.669,156.785,405.313,156.805,404.892,156.805z M405.733,151.547
			c-0.015-0.528-0.14-0.931-0.374-1.207s-0.594-0.414-1.077-0.414c-0.494,0-0.88,0.146-1.157,0.436
			c-0.278,0.29-0.433,0.686-0.461,1.186H405.733z"/>
		<path d="M413.286,156.748c-1.035,0-1.788-0.21-2.26-0.629s-0.707-1.104-0.707-2.058v-3.75h-0.973v-1.743h0.973v-2.293h2.539v2.293
			h2.445v1.743h-2.445v2.843c0,0.281,0.002,0.526,0.007,0.736c0.005,0.209,0.044,0.397,0.116,0.564
			c0.068,0.166,0.188,0.299,0.359,0.396s0.422,0.146,0.751,0.146c0.136,0,0.313-0.029,0.533-0.086
			c0.22-0.058,0.374-0.109,0.461-0.157h0.218v1.765c-0.276,0.071-0.568,0.127-0.878,0.168
			C414.116,156.728,413.736,156.748,413.286,156.748z"/>
		<path d="M424.503,156.591h-7.14v-1.857h2.278v-5.622h-2.278v-1.736c0.334,0,0.665-0.021,0.994-0.064
			c0.328-0.043,0.592-0.111,0.791-0.207c0.231-0.114,0.412-0.268,0.54-0.461c0.128-0.192,0.202-0.432,0.222-0.718h2.365v8.809h2.228
			V156.591z"/>
	</g>
	
		<line fill="none" stroke="#800000" stroke-width="0.7559" stroke-linecap="square" stroke-miterlimit="10" x1="282.252" y1="165.904" x2="434.899" y2="165.904"/>
	
		<line fill="none" stroke="#800000" stroke-width="0.7559" stroke-linecap="square" stroke-miterlimit="10" x1="282.252" y1="177.874" x2="434.899" y2="177.874"/>
	
		<rect x="449.759" y="136.645" fill-rule="evenodd" clip-rule="evenodd" fill="#FFFFB9" stroke="#800000" stroke-width="0.7559" stroke-linecap="square" stroke-miterlimit="10" width="151.297" height="54.533"/>
	<g>
		<path d="M464.984,156.798c-1.62,0-2.907-0.482-3.86-1.446c-0.952-0.965-1.429-2.32-1.429-4.068c0-1.687,0.478-3.03,1.433-4.033
			c0.955-1.002,2.243-1.504,3.863-1.504c0.431,0,0.817,0.024,1.161,0.071c0.344,0.048,0.673,0.114,0.987,0.2
			c0.246,0.071,0.515,0.169,0.805,0.293c0.291,0.124,0.525,0.231,0.704,0.321v2.536h-0.275c-0.131-0.114-0.295-0.251-0.493-0.41
			c-0.199-0.16-0.424-0.315-0.675-0.469c-0.252-0.152-0.529-0.281-0.831-0.389c-0.303-0.107-0.618-0.161-0.947-0.161
			c-0.392,0-0.751,0.061-1.077,0.183c-0.326,0.121-0.638,0.332-0.933,0.632c-0.271,0.271-0.492,0.639-0.664,1.101
			c-0.171,0.462-0.257,1.007-0.257,1.636c0,0.662,0.089,1.218,0.269,1.668c0.179,0.45,0.413,0.813,0.703,1.09
			c0.28,0.267,0.594,0.459,0.939,0.578s0.69,0.179,1.034,0.179c0.358,0,0.699-0.059,1.023-0.175c0.324-0.117,0.597-0.246,0.819-0.39
			c0.242-0.147,0.455-0.298,0.639-0.45s0.344-0.288,0.479-0.407h0.247v2.501c-0.198,0.09-0.428,0.194-0.689,0.311
			c-0.261,0.117-0.529,0.216-0.805,0.297c-0.339,0.1-0.656,0.176-0.951,0.229C465.908,156.771,465.502,156.798,464.984,156.798z"/>
		<path d="M477.461,152.583c0,1.319-0.366,2.358-1.1,3.118c-0.732,0.76-1.769,1.14-3.108,1.14c-1.331,0-2.364-0.38-3.103-1.14
			c-0.737-0.76-1.106-1.799-1.106-3.118c0-1.333,0.369-2.378,1.106-3.133c0.738-0.755,1.771-1.132,3.103-1.132
			c1.335,0,2.37,0.38,3.105,1.14C477.093,150.218,477.461,151.259,477.461,152.583z M474.856,152.598c0-0.477-0.04-0.873-0.12-1.189
			c-0.08-0.317-0.189-0.57-0.33-0.761c-0.15-0.2-0.319-0.34-0.508-0.418c-0.188-0.079-0.404-0.118-0.646-0.118
			c-0.228,0-0.434,0.034-0.617,0.104s-0.354,0.201-0.508,0.396c-0.146,0.186-0.261,0.44-0.349,0.765
			c-0.087,0.323-0.13,0.73-0.13,1.222c0,0.49,0.041,0.887,0.123,1.189c0.082,0.302,0.188,0.544,0.319,0.725
			c0.135,0.186,0.305,0.321,0.508,0.407s0.428,0.129,0.675,0.129c0.203,0,0.41-0.043,0.62-0.129
			c0.211-0.086,0.379-0.214,0.504-0.386c0.15-0.204,0.264-0.451,0.342-0.739C474.817,153.506,474.856,153.107,474.856,152.598z"/>
		<path d="M481.632,156.591h-2.539v-11.116h2.539V156.591z"/>
		<path d="M485.685,156.591h-2.539v-11.116h2.539V156.591z"/>
		<path d="M491.371,156.805c-1.538,0-2.718-0.361-3.537-1.085c-0.82-0.725-1.23-1.756-1.23-3.094c0-1.31,0.383-2.355,1.146-3.137
			c0.765-0.78,1.833-1.171,3.207-1.171c1.248,0,2.187,0.331,2.815,0.993s0.943,1.609,0.943,2.843v0.9h-5.565
			c0.024,0.371,0.104,0.682,0.239,0.933c0.136,0.25,0.314,0.448,0.537,0.596c0.218,0.148,0.472,0.254,0.762,0.318
			s0.607,0.097,0.951,0.097c0.295,0,0.585-0.032,0.87-0.097s0.547-0.148,0.784-0.254c0.207-0.09,0.399-0.188,0.576-0.293
			c0.177-0.104,0.32-0.197,0.432-0.278h0.269v2.064c-0.208,0.081-0.397,0.156-0.569,0.226c-0.172,0.068-0.407,0.139-0.707,0.21
			c-0.276,0.072-0.561,0.128-0.853,0.168C492.148,156.785,491.792,156.805,491.371,156.805z M492.213,151.547
			c-0.015-0.528-0.14-0.931-0.374-1.207s-0.594-0.414-1.077-0.414c-0.494,0-0.88,0.146-1.157,0.436
			c-0.278,0.29-0.433,0.686-0.461,1.186H492.213z"/>
		<path d="M504.053,155.669c0,0.743-0.108,1.374-0.326,1.894c-0.218,0.519-0.516,0.924-0.893,1.215
			c-0.377,0.295-0.829,0.508-1.356,0.639s-1.113,0.196-1.756,0.196c-0.542,0-1.056-0.034-1.542-0.104
			c-0.486-0.068-0.908-0.148-1.267-0.239v-2.007h0.298c0.126,0.047,0.274,0.1,0.446,0.157c0.172,0.057,0.345,0.109,0.519,0.157
			c0.208,0.052,0.411,0.095,0.609,0.128s0.401,0.05,0.609,0.05c0.431,0,0.79-0.044,1.078-0.132c0.287-0.088,0.504-0.213,0.649-0.375
			c0.145-0.167,0.246-0.363,0.305-0.59c0.058-0.226,0.087-0.511,0.087-0.854v-0.149c-0.285,0.247-0.615,0.446-0.99,0.597
			c-0.375,0.149-0.761,0.225-1.157,0.225c-1.055,0-1.868-0.338-2.441-1.015c-0.573-0.676-0.86-1.705-0.86-3.086
			c0-0.629,0.089-1.193,0.265-1.693c0.177-0.5,0.422-0.926,0.737-1.278c0.3-0.339,0.662-0.6,1.088-0.782
			c0.426-0.184,0.868-0.275,1.328-0.275c0.416,0,0.788,0.053,1.117,0.157s0.629,0.245,0.899,0.422l0.095-0.357h2.459V155.669z
			 M501.514,154.062v-3.636c-0.126-0.058-0.28-0.104-0.465-0.144c-0.184-0.037-0.367-0.057-0.551-0.057
			c-0.609,0-1.068,0.194-1.375,0.582c-0.308,0.389-0.461,0.93-0.461,1.625c0,0.348,0.022,0.643,0.069,0.883
			c0.046,0.24,0.132,0.453,0.257,0.64c0.121,0.181,0.279,0.317,0.476,0.41s0.446,0.14,0.751,0.14c0.228,0,0.451-0.038,0.671-0.114
			C501.106,154.314,501.315,154.205,501.514,154.062z"/>
		<path d="M513.654,156.591h-2.54v-0.886c-0.439,0.362-0.844,0.637-1.211,0.825c-0.368,0.188-0.806,0.282-1.313,0.282
			c-0.808,0-1.438-0.251-1.891-0.754c-0.452-0.502-0.678-1.259-0.678-2.269v-5.222h2.554v3.979c0,0.415,0.011,0.753,0.032,1.015
			c0.022,0.263,0.074,0.483,0.156,0.665c0.077,0.166,0.197,0.293,0.359,0.378c0.162,0.086,0.388,0.129,0.679,0.129
			c0.179,0,0.391-0.043,0.635-0.129c0.244-0.085,0.47-0.202,0.678-0.35v-5.687h2.54V156.591z"/>
		<path d="M519.727,156.805c-1.538,0-2.718-0.361-3.537-1.085c-0.82-0.725-1.23-1.756-1.23-3.094c0-1.31,0.383-2.355,1.146-3.137
			c0.765-0.78,1.833-1.171,3.207-1.171c1.248,0,2.187,0.331,2.815,0.993s0.943,1.609,0.943,2.843v0.9h-5.565
			c0.024,0.371,0.104,0.682,0.239,0.933c0.136,0.25,0.314,0.448,0.537,0.596c0.218,0.148,0.472,0.254,0.762,0.318
			s0.607,0.097,0.951,0.097c0.295,0,0.585-0.032,0.87-0.097s0.547-0.148,0.784-0.254c0.207-0.09,0.399-0.188,0.576-0.293
			c0.177-0.104,0.32-0.197,0.432-0.278h0.269v2.064c-0.208,0.081-0.397,0.156-0.569,0.226c-0.172,0.068-0.407,0.139-0.707,0.21
			c-0.276,0.072-0.561,0.128-0.853,0.168C520.504,156.785,520.147,156.805,519.727,156.805z M520.568,151.547
			c-0.015-0.528-0.14-0.931-0.374-1.207s-0.594-0.414-1.077-0.414c-0.494,0-0.88,0.146-1.157,0.436
			c-0.278,0.29-0.433,0.686-0.461,1.186H520.568z"/>
		<path d="M529.805,156.798c-1.62,0-2.907-0.482-3.86-1.446c-0.952-0.965-1.429-2.32-1.429-4.068c0-1.687,0.478-3.03,1.433-4.033
			c0.955-1.002,2.243-1.504,3.863-1.504c0.431,0,0.817,0.024,1.161,0.071c0.344,0.048,0.673,0.114,0.987,0.2
			c0.246,0.071,0.515,0.169,0.805,0.293c0.291,0.124,0.525,0.231,0.704,0.321v2.536h-0.275c-0.131-0.114-0.295-0.251-0.493-0.41
			c-0.199-0.16-0.424-0.315-0.675-0.469c-0.252-0.152-0.529-0.281-0.831-0.389c-0.303-0.107-0.618-0.161-0.947-0.161
			c-0.392,0-0.751,0.061-1.077,0.183c-0.326,0.121-0.638,0.332-0.933,0.632c-0.271,0.271-0.492,0.639-0.664,1.101
			c-0.171,0.462-0.257,1.007-0.257,1.636c0,0.662,0.089,1.218,0.269,1.668c0.179,0.45,0.413,0.813,0.703,1.09
			c0.28,0.267,0.594,0.459,0.939,0.578s0.69,0.179,1.034,0.179c0.358,0,0.699-0.059,1.023-0.175c0.324-0.117,0.597-0.246,0.819-0.39
			c0.242-0.147,0.455-0.298,0.639-0.45s0.344-0.288,0.479-0.407h0.247v2.501c-0.198,0.09-0.428,0.194-0.689,0.311
			c-0.261,0.117-0.529,0.216-0.805,0.297c-0.339,0.1-0.656,0.176-0.951,0.229C530.729,156.771,530.322,156.798,529.805,156.798z"/>
		<path d="M542.28,152.583c0,1.319-0.366,2.358-1.1,3.118c-0.732,0.76-1.769,1.14-3.108,1.14c-1.331,0-2.364-0.38-3.103-1.14
			c-0.737-0.76-1.106-1.799-1.106-3.118c0-1.333,0.369-2.378,1.106-3.133c0.738-0.755,1.771-1.132,3.103-1.132
			c1.335,0,2.37,0.38,3.105,1.14C541.912,150.218,542.28,151.259,542.28,152.583z M539.676,152.598c0-0.477-0.04-0.873-0.12-1.189
			c-0.08-0.317-0.189-0.57-0.33-0.761c-0.15-0.2-0.319-0.34-0.508-0.418c-0.188-0.079-0.404-0.118-0.646-0.118
			c-0.228,0-0.434,0.034-0.617,0.104s-0.354,0.201-0.508,0.396c-0.146,0.186-0.261,0.44-0.349,0.765
			c-0.087,0.323-0.13,0.73-0.13,1.222c0,0.49,0.041,0.887,0.123,1.189c0.082,0.302,0.188,0.544,0.319,0.725
			c0.135,0.186,0.305,0.321,0.508,0.407s0.428,0.129,0.675,0.129c0.203,0,0.41-0.043,0.62-0.129
			c0.211-0.086,0.379-0.214,0.504-0.386c0.15-0.204,0.264-0.451,0.342-0.739C539.637,153.506,539.676,153.107,539.676,152.598z"/>
		<path d="M551.546,156.591h-2.555v-3.979c0-0.323-0.013-0.646-0.039-0.968c-0.027-0.321-0.076-0.559-0.149-0.711
			c-0.087-0.181-0.213-0.311-0.377-0.39c-0.165-0.078-0.385-0.117-0.66-0.117c-0.208,0-0.419,0.038-0.632,0.114
			s-0.439,0.197-0.682,0.364v5.687h-2.539v-8.022h2.539v0.886c0.416-0.348,0.821-0.619,1.215-0.814
			c0.395-0.195,0.831-0.293,1.311-0.293c0.831,0,1.468,0.259,1.908,0.775c0.439,0.517,0.66,1.266,0.66,2.246V156.591z"/>
		<path d="M557.377,156.805c-0.672,0-1.287-0.083-1.847-0.25c-0.559-0.166-1.043-0.424-1.454-0.771
			c-0.406-0.348-0.724-0.784-0.95-1.311c-0.228-0.526-0.342-1.146-0.342-1.861c0-0.767,0.124-1.419,0.37-1.957
			c0.247-0.538,0.581-0.981,1.002-1.329c0.406-0.333,0.884-0.579,1.433-0.739c0.549-0.159,1.121-0.239,1.716-0.239
			c0.45,0,0.899,0.051,1.35,0.153s0.902,0.266,1.356,0.489v2.144h-0.326c-0.102-0.095-0.227-0.2-0.374-0.314
			s-0.308-0.219-0.482-0.314c-0.184-0.1-0.392-0.185-0.624-0.253c-0.231-0.069-0.49-0.104-0.776-0.104
			c-0.647,0-1.149,0.224-1.505,0.668c-0.355,0.446-0.533,1.045-0.533,1.797c0,0.806,0.189,1.405,0.569,1.801
			s0.884,0.593,1.513,0.593c0.319,0,0.6-0.036,0.842-0.107c0.241-0.071,0.449-0.157,0.624-0.257
			c0.169-0.101,0.314-0.204,0.436-0.311c0.12-0.107,0.225-0.204,0.312-0.29h0.326v2.144c-0.145,0.062-0.313,0.134-0.504,0.214
			c-0.191,0.081-0.386,0.148-0.584,0.2c-0.247,0.067-0.478,0.118-0.693,0.154C558.015,156.787,557.73,156.805,557.377,156.805z"/>
		<path d="M566.954,150.933h-0.211c-0.097-0.033-0.237-0.058-0.421-0.075c-0.184-0.017-0.387-0.024-0.609-0.024
			c-0.266,0-0.545,0.038-0.838,0.114s-0.577,0.167-0.853,0.271v5.372h-2.539v-8.022h2.539v1.15c0.116-0.105,0.276-0.237,0.482-0.396
			c0.206-0.16,0.393-0.287,0.563-0.383c0.184-0.109,0.397-0.203,0.642-0.282c0.244-0.078,0.476-0.117,0.693-0.117
			c0.082,0,0.174,0.002,0.275,0.007s0.193,0.012,0.276,0.021V150.933z"/>
		<path d="M572.396,156.805c-1.538,0-2.718-0.361-3.537-1.085c-0.82-0.725-1.23-1.756-1.23-3.094c0-1.31,0.383-2.355,1.146-3.137
			c0.765-0.78,1.833-1.171,3.207-1.171c1.248,0,2.187,0.331,2.815,0.993s0.943,1.609,0.943,2.843v0.9h-5.565
			c0.024,0.371,0.104,0.682,0.239,0.933c0.136,0.25,0.314,0.448,0.537,0.596c0.218,0.148,0.472,0.254,0.762,0.318
			s0.607,0.097,0.951,0.097c0.295,0,0.585-0.032,0.87-0.097s0.547-0.148,0.784-0.254c0.207-0.09,0.399-0.188,0.576-0.293
			c0.177-0.104,0.32-0.197,0.432-0.278h0.269v2.064c-0.208,0.081-0.397,0.156-0.569,0.226c-0.172,0.068-0.407,0.139-0.707,0.21
			c-0.276,0.072-0.561,0.128-0.853,0.168C573.173,156.785,572.816,156.805,572.396,156.805z M573.237,151.547
			c-0.015-0.528-0.14-0.931-0.374-1.207s-0.594-0.414-1.077-0.414c-0.494,0-0.88,0.146-1.157,0.436
			c-0.278,0.29-0.433,0.686-0.461,1.186H573.237z"/>
		<path d="M580.79,156.748c-1.035,0-1.788-0.21-2.26-0.629s-0.707-1.104-0.707-2.058v-3.75h-0.973v-1.743h0.973v-2.293h2.539v2.293
			h2.445v1.743h-2.445v2.843c0,0.281,0.002,0.526,0.007,0.736c0.005,0.209,0.044,0.397,0.116,0.564
			c0.068,0.166,0.188,0.299,0.359,0.396s0.422,0.146,0.751,0.146c0.136,0,0.313-0.029,0.533-0.086
			c0.22-0.058,0.374-0.109,0.461-0.157h0.218v1.765c-0.276,0.071-0.568,0.127-0.878,0.168
			C581.62,156.728,581.24,156.748,580.79,156.748z"/>
		<path d="M592.485,156.591h-7.938v-1.736c0.672-0.523,1.275-1.019,1.811-1.485c0.534-0.467,1.005-0.91,1.411-1.329
			c0.527-0.548,0.909-1.028,1.146-1.443c0.236-0.414,0.355-0.84,0.355-1.278c0-0.495-0.15-0.875-0.45-1.14s-0.719-0.396-1.255-0.396
			c-0.276,0-0.536,0.033-0.78,0.101c-0.244,0.066-0.492,0.152-0.744,0.257c-0.246,0.109-0.457,0.222-0.631,0.336
			s-0.305,0.2-0.392,0.257h-0.211v-2.321c0.305-0.144,0.781-0.29,1.43-0.439c0.648-0.15,1.272-0.226,1.872-0.226
			c1.281,0,2.253,0.281,2.913,0.843c0.66,0.563,0.99,1.354,0.99,2.372c0,0.629-0.15,1.244-0.45,1.847s-0.798,1.249-1.494,1.939
			c-0.436,0.424-0.858,0.802-1.27,1.133s-0.709,0.565-0.893,0.703h4.578V156.591z"/>
	</g>
	
		<line fill="none" stroke="#800000" stroke-width="0.7559" stroke-linecap="square" stroke-miterlimit="10" x1="449.759" y1="165.904" x2="602.406" y2="165.904"/>
	
		<line fill="none" stroke="#800000" stroke-width="0.7559" stroke-linecap="square" stroke-miterlimit="10" x1="449.759" y1="177.874" x2="602.406" y2="177.874"/>
	
		<line fill="none" stroke="#800000" stroke-width="0.7559" stroke-linecap="square" stroke-miterlimit="10" x1="375.462" y1="136.645" x2="421.39" y2="62.159"/>
	
		<polygon fill-rule="evenodd" clip-rule="evenodd" fill="#FFFFFF" stroke="#800000" stroke-width="0.7559" stroke-linecap="square" stroke-miterlimit="10" points="
		417.338,90.09 421.39,62.159 398.426,79.45 	"/>
	
		<line fill="none" stroke="#800000" stroke-width="0.7559" stroke-linecap="square" stroke-miterlimit="10" x1="506.495" y1="136.645" x2="457.863" y2="62.159"/>
	
		<polygon fill-rule="evenodd" clip-rule="evenodd" fill="#FFFFFF" stroke="#800000" stroke-width="0.7559" stroke-linecap="square" stroke-miterlimit="10" points="
		482.178,78.12 457.863,62.159 461.915,90.09 	"/>
	
		<line fill="none" stroke="#800000" stroke-width="0.7559" stroke-linecap="square" stroke-miterlimit="10" x1="162.025" y1="171.225" x2="282.252" y2="171.225"/>
	<polyline fill="none" stroke="#800000" stroke-width="0.7559" stroke-linecap="square" stroke-miterlimit="10" points="
		268.743,176.544 282.252,171.225 268.743,165.904 	"/>
	<polyline fill="none" stroke="#800000" stroke-width="0.7559" stroke-linecap="square" stroke-miterlimit="10" points="
		82.325,192.508 82.325,224.428 530.81,224.428 530.81,192.508 	"/>
	<polyline fill="none" stroke="#800000" stroke-width="0.7559" stroke-linecap="square" stroke-miterlimit="10" points="
		536.213,205.808 530.81,192.508 525.407,205.808 	"/>
	
		<line fill="none" stroke="#800000" stroke-width="0.7559" stroke-linecap="square" stroke-miterlimit="10" x1="379.514" y1="38.218" x2="153.92" y2="38.218"/>
	<polyline fill="none" stroke="#800000" stroke-width="0.7559" stroke-linecap="square" stroke-miterlimit="10" points="
		167.429,32.897 153.92,38.218 167.429,43.538 	"/>
	<g>
		<path d="M164.94,50.091h-3.664v3.608h-1.205v-3.608h-3.664v-1.143h3.664v-3.607h1.205v3.607h3.664V50.091z"/>
		<path d="M176.267,54.178v-4.615c0-0.366-0.015-0.706-0.043-1.018c-0.029-0.312-0.09-0.556-0.182-0.732
			c-0.097-0.19-0.235-0.331-0.414-0.421c-0.179-0.09-0.421-0.136-0.726-0.136c-0.281,0-0.582,0.084-0.903,0.253
			s-0.654,0.413-0.998,0.732c0.005,0.081,0.011,0.177,0.018,0.289c0.007,0.112,0.011,0.244,0.011,0.396v5.251h-1.364v-4.615
			c0-0.366-0.015-0.706-0.043-1.018c-0.029-0.312-0.09-0.556-0.182-0.732c-0.097-0.19-0.234-0.331-0.414-0.421
			c-0.179-0.09-0.421-0.136-0.726-0.136c-0.295,0-0.604,0.09-0.929,0.271c-0.324,0.181-0.638,0.412-0.943,0.693v5.958h-1.364v-7.98
			h1.364v0.886c0.358-0.353,0.712-0.625,1.063-0.818s0.737-0.289,1.157-0.289c0.479,0,0.903,0.107,1.273,0.321
			s0.652,0.567,0.845,1.058c0.411-0.453,0.813-0.795,1.205-1.029s0.817-0.35,1.277-0.35c0.349,0,0.665,0.054,0.951,0.161
			c0.285,0.107,0.534,0.28,0.747,0.518c0.218,0.243,0.386,0.545,0.504,0.907s0.178,0.817,0.178,1.364v5.251H176.267z"/>
		<path d="M181.4,54.363c-1.292,0-2.294-0.358-3.008-1.075c-0.713-0.716-1.07-1.734-1.07-3.054c0-1.3,0.346-2.335,1.038-3.104
			c0.691-0.769,1.596-1.154,2.713-1.154c0.503,0,0.948,0.071,1.335,0.214c0.387,0.143,0.726,0.367,1.016,0.671
			c0.29,0.305,0.512,0.678,0.667,1.118c0.154,0.44,0.232,0.98,0.232,1.618v0.729h-5.616c0,0.929,0.237,1.638,0.711,2.129
			s1.129,0.736,1.966,0.736c0.3,0,0.594-0.033,0.881-0.1c0.288-0.066,0.548-0.152,0.78-0.257c0.247-0.109,0.455-0.215,0.624-0.318
			c0.169-0.102,0.31-0.199,0.421-0.289h0.08v1.464c-0.16,0.062-0.358,0.139-0.595,0.232c-0.237,0.093-0.45,0.166-0.639,0.218
			c-0.266,0.071-0.507,0.126-0.722,0.164S181.729,54.363,181.4,54.363z M182.997,49.298c-0.01-0.362-0.053-0.674-0.131-0.936
			c-0.077-0.262-0.188-0.483-0.333-0.664c-0.16-0.2-0.364-0.353-0.613-0.458c-0.249-0.104-0.558-0.157-0.925-0.157
			c-0.363,0-0.671,0.053-0.925,0.161c-0.254,0.107-0.485,0.263-0.693,0.468c-0.203,0.209-0.358,0.442-0.464,0.697
			s-0.174,0.551-0.203,0.889H182.997z"/>
		<path d="M192.225,54.178h-1.364v-0.814c-0.213,0.176-0.396,0.321-0.551,0.436c-0.155,0.114-0.336,0.219-0.544,0.314
			c-0.194,0.09-0.395,0.161-0.603,0.211s-0.45,0.075-0.726,0.075c-0.44,0-0.848-0.091-1.222-0.271
			c-0.375-0.181-0.693-0.445-0.954-0.793c-0.266-0.353-0.472-0.787-0.617-1.304c-0.145-0.517-0.217-1.111-0.217-1.782
			c0-0.7,0.092-1.306,0.275-1.818c0.184-0.512,0.438-0.958,0.762-1.339c0.295-0.348,0.651-0.62,1.07-0.818s0.857-0.296,1.317-0.296
			c0.406,0,0.759,0.044,1.06,0.132c0.3,0.088,0.617,0.225,0.95,0.411v-3.458h1.364V54.178z M190.861,52.234v-4.601
			c-0.338-0.162-0.642-0.274-0.91-0.335c-0.269-0.062-0.56-0.093-0.875-0.093c-0.701,0-1.25,0.259-1.647,0.775
			s-0.595,1.263-0.595,2.24c0,0.938,0.152,1.656,0.458,2.154c0.305,0.498,0.793,0.747,1.465,0.747c0.358,0,0.718-0.08,1.081-0.239
			C190.201,52.722,190.542,52.506,190.861,52.234z"/>
		<path d="M195.582,44.862h-1.553v-1.393h1.553V44.862z M195.488,54.178h-1.364v-7.98h1.364V54.178z"/>
		<path d="M201.334,53.328c-0.111,0.081-0.26,0.194-0.446,0.339c-0.186,0.146-0.366,0.261-0.541,0.346
			c-0.242,0.124-0.475,0.219-0.7,0.286c-0.225,0.066-0.541,0.1-0.947,0.1c-0.333,0-0.65-0.062-0.95-0.186
			c-0.3-0.124-0.564-0.297-0.791-0.521c-0.218-0.219-0.392-0.489-0.522-0.811c-0.13-0.322-0.196-0.661-0.196-1.018
			c0-0.553,0.118-1.023,0.355-1.411c0.237-0.388,0.612-0.696,1.125-0.925c0.455-0.205,0.992-0.346,1.611-0.425
			s1.287-0.137,2.002-0.175V48.67c0-0.314-0.048-0.568-0.145-0.761s-0.232-0.341-0.406-0.446c-0.174-0.109-0.387-0.182-0.639-0.218
			s-0.51-0.054-0.776-0.054c-0.314,0-0.685,0.046-1.11,0.139c-0.426,0.093-0.852,0.228-1.277,0.404h-0.08v-1.365
			c0.251-0.071,0.612-0.15,1.081-0.235c0.469-0.086,0.934-0.129,1.393-0.129c0.556,0,1.025,0.043,1.408,0.129
			c0.382,0.085,0.726,0.24,1.03,0.464c0.295,0.219,0.515,0.502,0.66,0.85s0.218,0.771,0.218,1.271v5.458h-1.357V53.328z
			 M201.334,52.213v-2.215c-0.324,0.028-0.734,0.068-1.229,0.118c-0.496,0.05-0.896,0.121-1.201,0.211
			c-0.363,0.109-0.663,0.277-0.899,0.503c-0.237,0.227-0.355,0.542-0.355,0.947c0,0.457,0.13,0.803,0.392,1.036
			s0.643,0.35,1.146,0.35c0.43,0,0.82-0.091,1.168-0.275C200.703,52.705,201.029,52.48,201.334,52.213z"/>
		<path d="M207.356,54.335c-0.745,0-1.325-0.208-1.741-0.625c-0.416-0.417-0.624-1.075-0.624-1.976v-4.422h-0.921v-1.115h0.921
			v-2.293h1.364v2.293h2.51v1.115h-2.51v3.793c0,0.405,0.007,0.717,0.021,0.936c0.015,0.219,0.07,0.424,0.167,0.615
			c0.082,0.167,0.215,0.292,0.399,0.375c0.184,0.083,0.433,0.125,0.748,0.125c0.222,0,0.438-0.032,0.646-0.097
			c0.208-0.064,0.358-0.118,0.45-0.161h0.08v1.208c-0.256,0.071-0.516,0.127-0.78,0.168
			C207.822,54.314,207.579,54.335,207.356,54.335z"/>
		<path d="M213.824,54.363c-1.292,0-2.294-0.358-3.008-1.075c-0.713-0.716-1.07-1.734-1.07-3.054c0-1.3,0.346-2.335,1.038-3.104
			c0.691-0.769,1.596-1.154,2.713-1.154c0.503,0,0.948,0.071,1.335,0.214c0.387,0.143,0.726,0.367,1.016,0.671
			c0.29,0.305,0.512,0.678,0.667,1.118c0.154,0.44,0.232,0.98,0.232,1.618v0.729h-5.616c0,0.929,0.237,1.638,0.711,2.129
			s1.129,0.736,1.966,0.736c0.3,0,0.594-0.033,0.881-0.1c0.288-0.066,0.548-0.152,0.78-0.257c0.247-0.109,0.455-0.215,0.624-0.318
			c0.169-0.102,0.31-0.199,0.421-0.289h0.08v1.464c-0.16,0.062-0.358,0.139-0.595,0.232c-0.237,0.093-0.45,0.166-0.639,0.218
			c-0.266,0.071-0.507,0.126-0.722,0.164S214.152,54.363,213.824,54.363z M215.42,49.298c-0.01-0.362-0.053-0.674-0.131-0.936
			c-0.077-0.262-0.188-0.483-0.333-0.664c-0.16-0.2-0.364-0.353-0.613-0.458c-0.249-0.104-0.558-0.157-0.925-0.157
			c-0.363,0-0.671,0.053-0.925,0.161c-0.254,0.107-0.485,0.263-0.693,0.468c-0.203,0.209-0.358,0.442-0.464,0.697
			s-0.174,0.551-0.203,0.889H215.42z"/>
		<path d="M224.721,54.178h-1.364v-0.886c-0.421,0.362-0.82,0.637-1.197,0.825c-0.377,0.188-0.798,0.282-1.262,0.282
			c-0.354,0-0.686-0.057-0.998-0.172c-0.312-0.114-0.584-0.295-0.816-0.543c-0.232-0.248-0.413-0.56-0.541-0.936
			c-0.128-0.376-0.192-0.833-0.192-1.372v-5.18h1.364v4.544c0,0.424,0.016,0.775,0.047,1.054c0.031,0.278,0.103,0.522,0.214,0.732
			c0.111,0.205,0.262,0.355,0.453,0.45s0.466,0.143,0.824,0.143c0.333,0,0.689-0.093,1.066-0.279s0.723-0.415,1.038-0.686v-5.958
			h1.364V54.178z"/>
		<path d="M230.812,47.641h-0.073c-0.102-0.029-0.209-0.046-0.323-0.054c-0.114-0.007-0.25-0.011-0.41-0.011
			c-0.368,0-0.733,0.079-1.095,0.236c-0.363,0.157-0.707,0.391-1.031,0.7v5.665h-1.364v-7.98h1.364v1.186
			c0.499-0.433,0.933-0.739,1.303-0.918s0.729-0.268,1.077-0.268c0.141,0,0.246,0.004,0.316,0.011
			c0.07,0.007,0.148,0.018,0.236,0.032V47.641z"/>
	</g>
	
		<line fill="none" stroke="#800000" stroke-width="0.7559" stroke-linecap="square" stroke-miterlimit="10" x1="82.325" y1="136.645" x2="82.325" y2="62.159"/>
	
		<polygon fill-rule="evenodd" clip-rule="evenodd" fill="#FFFFFF" stroke="#800000" stroke-width="0.7559" stroke-linecap="square" stroke-miterlimit="10" points="
		93.131,88.76 82.325,62.159 71.518,88.76 	"/>
</g>
</svg>
