<?xml version="1.0" encoding="utf-8"?>
<!-- Generator: Adobe Illustrator 15.0.0, SVG Export Plug-In . SVG Version: 6.00 Build 0)  -->
<!DOCTYPE svg PUBLIC "-//W3C//DTD SVG 1.1//EN" "http://www.w3.org/Graphics/SVG/1.1/DTD/svg11.dtd">
<svg version="1.1" id="Calque_1" xmlns="http://www.w3.org/2000/svg" xmlns:xlink="http://www.w3.org/1999/xlink" x="0px" y="0px"
	 width="612px" height="264px" viewBox="0 0 612 264" enable-background="new 0 0 612 264" xml:space="preserve">
<g>
	
		<rect x="8" y="7.972" fill-rule="evenodd" clip-rule="evenodd" fill="#FFFFB9" stroke="#800000" stroke-width="0.7559" stroke-linecap="square" stroke-miterlimit="10" width="109.809" height="74.852"/>
	<g>
		<path d="M37.518,23.239c0,1.032-0.229,1.957-0.688,2.773c-0.459,0.816-1.039,1.443-1.739,1.88
			c-0.585,0.372-1.221,0.612-1.909,0.718c-0.688,0.107-1.42,0.16-2.197,0.16h-3.523V17.685h3.493c0.792,0,1.533,0.05,2.223,0.149
			c0.69,0.1,1.338,0.34,1.943,0.722c0.741,0.467,1.326,1.096,1.754,1.888C37.304,21.235,37.518,22.167,37.518,23.239z
			 M34.614,23.217c0-0.729-0.127-1.354-0.382-1.872c-0.254-0.519-0.646-0.925-1.176-1.217c-0.383-0.208-0.785-0.323-1.206-0.343
			c-0.421-0.02-0.924-0.03-1.508-0.03H30.29v6.939h0.053c0.635,0,1.171-0.011,1.607-0.034c0.436-0.022,0.851-0.155,1.244-0.398
			c0.464-0.288,0.817-0.685,1.059-1.191C34.494,24.564,34.614,23.947,34.614,23.217z"/>
		<path d="M41.295,19.219h-2.798v-2.032h2.798V19.219z M41.22,28.771h-2.646V20.41h2.646V28.771z"/>
		<path d="M48.499,22.875h-0.219c-0.101-0.035-0.247-0.061-0.438-0.078s-0.403-0.026-0.635-0.026c-0.277,0-0.568,0.04-0.873,0.119
			c-0.305,0.08-0.601,0.174-0.889,0.283v5.599h-2.646V20.41h2.646v1.199c0.121-0.109,0.289-0.247,0.503-0.413
			c0.214-0.167,0.41-0.299,0.586-0.398c0.191-0.114,0.415-0.212,0.669-0.294c0.254-0.082,0.495-0.123,0.722-0.123
			c0.086,0,0.182,0.002,0.288,0.007s0.202,0.013,0.287,0.022V22.875z"/>
		<path d="M54.169,28.994c-1.603,0-2.832-0.377-3.686-1.131s-1.282-1.829-1.282-3.224c0-1.365,0.398-2.455,1.195-3.269
			s1.911-1.221,3.342-1.221c1.3,0,2.278,0.345,2.934,1.035s0.983,1.678,0.983,2.963v0.938h-5.799
			c0.025,0.387,0.108,0.711,0.25,0.972c0.141,0.261,0.328,0.468,0.56,0.622c0.227,0.154,0.491,0.265,0.794,0.332
			c0.302,0.067,0.632,0.101,0.99,0.101c0.308,0,0.61-0.034,0.908-0.101c0.297-0.067,0.569-0.155,0.816-0.264
			c0.217-0.094,0.417-0.196,0.601-0.305c0.184-0.109,0.334-0.206,0.45-0.291h0.28v2.151c-0.217,0.084-0.415,0.163-0.594,0.235
			c-0.179,0.072-0.425,0.145-0.737,0.22c-0.287,0.074-0.583,0.132-0.888,0.175C54.979,28.973,54.608,28.994,54.169,28.994z
			 M55.046,23.515c-0.015-0.551-0.145-0.97-0.39-1.258c-0.245-0.288-0.619-0.432-1.123-0.432c-0.514,0-0.917,0.151-1.206,0.454
			c-0.29,0.303-0.45,0.715-0.48,1.236H55.046z"/>
		<path d="M63.833,28.994c-0.701,0-1.342-0.087-1.924-0.26c-0.583-0.174-1.088-0.442-1.516-0.804
			c-0.423-0.362-0.754-0.818-0.991-1.366s-0.355-1.195-0.355-1.939c0-0.799,0.129-1.479,0.386-2.04
			c0.257-0.561,0.605-1.022,1.043-1.385c0.423-0.347,0.921-0.604,1.494-0.771c0.572-0.166,1.168-0.25,1.788-0.25
			c0.469,0,0.938,0.054,1.406,0.16c0.469,0.107,0.94,0.277,1.414,0.51v2.233h-0.34c-0.106-0.099-0.235-0.208-0.389-0.328
			s-0.321-0.228-0.503-0.328c-0.192-0.104-0.408-0.192-0.65-0.264c-0.242-0.072-0.512-0.108-0.809-0.108
			c-0.675,0-1.198,0.232-1.569,0.696c-0.371,0.464-0.556,1.088-0.556,1.873c0,0.839,0.198,1.464,0.593,1.876
			c0.396,0.412,0.921,0.618,1.577,0.618c0.333,0,0.625-0.037,0.877-0.112c0.252-0.074,0.469-0.164,0.65-0.268
			c0.176-0.104,0.328-0.212,0.454-0.324s0.234-0.212,0.325-0.301h0.34v2.233c-0.151,0.064-0.326,0.139-0.525,0.223
			c-0.199,0.084-0.402,0.154-0.609,0.208c-0.257,0.069-0.498,0.123-0.722,0.16C64.497,28.976,64.201,28.994,63.833,28.994z"/>
		<path d="M71.363,28.935c-1.079,0-1.864-0.218-2.355-0.655c-0.491-0.437-0.737-1.151-0.737-2.145v-3.909h-1.013V20.41h1.013v-2.39
			h2.646v2.39h2.548v1.816h-2.548v2.963c0,0.293,0.002,0.548,0.008,0.767c0.005,0.219,0.045,0.415,0.121,0.588
			c0.07,0.174,0.195,0.312,0.374,0.413c0.179,0.102,0.44,0.153,0.783,0.153c0.141,0,0.326-0.03,0.556-0.089s0.39-0.114,0.48-0.164
			h0.227v1.839c-0.287,0.074-0.592,0.132-0.915,0.175C72.227,28.914,71.832,28.935,71.363,28.935z"/>
		<path d="M79.498,28.994c-1.603,0-2.832-0.377-3.686-1.131s-1.282-1.829-1.282-3.224c0-1.365,0.398-2.455,1.195-3.269
			s1.911-1.221,3.342-1.221c1.3,0,2.278,0.345,2.934,1.035s0.983,1.678,0.983,2.963v0.938h-5.799
			c0.025,0.387,0.108,0.711,0.25,0.972c0.141,0.261,0.328,0.468,0.56,0.622c0.227,0.154,0.491,0.265,0.794,0.332
			c0.302,0.067,0.632,0.101,0.99,0.101c0.308,0,0.61-0.034,0.908-0.101c0.297-0.067,0.569-0.155,0.816-0.264
			c0.217-0.094,0.417-0.196,0.601-0.305c0.184-0.109,0.334-0.206,0.45-0.291h0.28v2.151c-0.217,0.084-0.415,0.163-0.594,0.235
			c-0.179,0.072-0.425,0.145-0.737,0.22c-0.287,0.074-0.583,0.132-0.888,0.175C80.309,28.973,79.937,28.994,79.498,28.994z
			 M80.375,23.515c-0.015-0.551-0.145-0.97-0.39-1.258c-0.245-0.288-0.619-0.432-1.123-0.432c-0.514,0-0.917,0.151-1.206,0.454
			c-0.29,0.303-0.45,0.715-0.48,1.236H80.375z"/>
		<path d="M92.882,28.771h-2.646v-0.923c-0.459,0.377-0.88,0.664-1.263,0.86c-0.383,0.196-0.839,0.294-1.369,0.294
			c-0.842,0-1.499-0.262-1.97-0.786c-0.472-0.523-0.707-1.312-0.707-2.364V20.41h2.662v4.147c0,0.432,0.011,0.784,0.034,1.057
			c0.023,0.273,0.077,0.504,0.163,0.692c0.081,0.174,0.206,0.305,0.375,0.395s0.404,0.134,0.707,0.134
			c0.187,0,0.407-0.045,0.662-0.134c0.254-0.089,0.49-0.211,0.707-0.365V20.41h2.646V28.771z"/>
		<path d="M100.563,22.875h-0.219c-0.101-0.035-0.247-0.061-0.438-0.078s-0.403-0.026-0.635-0.026c-0.277,0-0.568,0.04-0.873,0.119
			c-0.305,0.08-0.601,0.174-0.889,0.283v5.599h-2.646V20.41h2.646v1.199c0.121-0.109,0.289-0.247,0.503-0.413
			c0.214-0.167,0.41-0.299,0.586-0.398c0.191-0.114,0.415-0.212,0.669-0.294c0.254-0.082,0.495-0.123,0.722-0.123
			c0.086,0,0.182,0.002,0.288,0.007s0.202,0.013,0.287,0.022V22.875z"/>
	</g>
	
		<line fill="none" stroke="#800000" stroke-width="0.7559" stroke-linecap="square" stroke-miterlimit="10" x1="8" y1="38.467" x2="119.216" y2="38.467"/>
	<g>
		<path d="M25.116,67.491h-3.819v3.76h-1.255v-3.76h-3.819V66.3h3.819v-3.76h1.255v3.76h3.819V67.491z"/>
		<path d="M30.688,71.936c-0.58,0-1.112-0.088-1.596-0.264s-0.9-0.443-1.248-0.8s-0.618-0.808-0.809-1.352s-0.287-1.182-0.287-1.917
			c0-0.729,0.099-1.36,0.298-1.891c0.199-0.531,0.465-0.978,0.798-1.34s0.748-0.642,1.244-0.838
			c0.496-0.196,1.029-0.294,1.599-0.294c0.463,0,0.911,0.064,1.342,0.193c0.431,0.129,0.815,0.278,1.153,0.447v1.571h-0.083
			c-0.101-0.084-0.231-0.181-0.39-0.291s-0.352-0.221-0.578-0.335c-0.197-0.099-0.429-0.186-0.696-0.261
			c-0.267-0.074-0.524-0.112-0.771-0.112c-0.736,0-1.327,0.274-1.773,0.823c-0.446,0.549-0.669,1.324-0.669,2.327
			c0,0.983,0.216,1.749,0.646,2.297c0.431,0.548,1.03,0.823,1.796,0.823c0.464,0,0.905-0.094,1.323-0.283
			c0.418-0.188,0.789-0.432,1.112-0.729h0.083v1.571c-0.141,0.065-0.317,0.143-0.529,0.235s-0.403,0.16-0.575,0.205
			c-0.242,0.069-0.458,0.123-0.65,0.16C31.238,71.917,30.991,71.936,30.688,71.936z"/>
		<path d="M41.333,67.595c0,1.399-0.343,2.48-1.029,3.242c-0.686,0.762-1.598,1.143-2.737,1.143c-1.175,0-2.099-0.394-2.771-1.18
			s-1.009-1.855-1.009-3.205c0-1.39,0.346-2.469,1.04-3.239c0.693-0.769,1.607-1.154,2.741-1.154c1.139,0,2.051,0.383,2.737,1.15
			C40.99,65.12,41.333,66.201,41.333,67.595z M39.866,67.595c0-1.077-0.199-1.877-0.597-2.401c-0.398-0.524-0.965-0.786-1.701-0.786
			c-0.741,0-1.312,0.262-1.713,0.786c-0.401,0.523-0.601,1.324-0.601,2.401c0,1.042,0.2,1.833,0.601,2.371s0.972,0.808,1.713,0.808
			c0.73,0,1.296-0.265,1.697-0.793C39.666,69.453,39.866,68.657,39.866,67.595z"/>
		<path d="M49.462,71.75H48.04v-4.735c0-0.382-0.019-0.738-0.057-1.068c-0.038-0.33-0.109-0.595-0.215-0.793
			c-0.116-0.208-0.277-0.364-0.484-0.465c-0.207-0.102-0.489-0.153-0.847-0.153c-0.353,0-0.717,0.093-1.092,0.279
			c-0.376,0.186-0.743,0.428-1.101,0.726v6.209h-1.421v-8.316h1.421v0.923c0.424-0.372,0.842-0.658,1.255-0.856
			c0.413-0.199,0.85-0.298,1.308-0.298c0.832,0,1.482,0.269,1.951,0.808c0.469,0.539,0.704,1.319,0.704,2.342V71.75z"/>
		<path d="M53.556,71.951c-0.565,0-1.093-0.075-1.584-0.224c-0.492-0.149-0.899-0.308-1.221-0.477V69.68h0.075
			c0.121,0.094,0.264,0.199,0.427,0.313c0.164,0.114,0.382,0.233,0.654,0.357c0.242,0.109,0.508,0.206,0.798,0.291
			c0.29,0.084,0.591,0.126,0.903,0.126c0.227,0,0.469-0.026,0.726-0.078c0.257-0.052,0.449-0.118,0.575-0.197
			c0.176-0.114,0.304-0.236,0.382-0.365s0.117-0.323,0.117-0.581c0-0.333-0.092-0.583-0.276-0.752
			c-0.184-0.169-0.511-0.31-0.979-0.424c-0.181-0.045-0.418-0.097-0.711-0.157c-0.292-0.06-0.562-0.124-0.809-0.193
			c-0.646-0.184-1.114-0.468-1.407-0.853s-0.438-0.85-0.438-1.396c0-0.75,0.287-1.36,0.862-1.832
			c0.575-0.471,1.338-0.707,2.292-0.707c0.469,0,0.94,0.057,1.414,0.171c0.474,0.114,0.872,0.258,1.195,0.432v1.497h-0.076
			c-0.363-0.283-0.767-0.506-1.213-0.67c-0.446-0.164-0.896-0.246-1.35-0.246c-0.469,0-0.865,0.097-1.188,0.291
			c-0.322,0.193-0.484,0.486-0.484,0.878c0,0.348,0.096,0.607,0.288,0.778c0.191,0.171,0.499,0.312,0.922,0.421
			c0.212,0.055,0.447,0.108,0.707,0.16c0.26,0.052,0.533,0.113,0.82,0.182c0.625,0.154,1.095,0.41,1.41,0.767
			s0.473,0.844,0.473,1.459c0,0.357-0.072,0.696-0.215,1.017c-0.144,0.32-0.354,0.594-0.631,0.822
			c-0.303,0.249-0.644,0.437-1.025,0.566C54.608,71.886,54.13,71.951,53.556,71.951z"/>
		<path d="M60.863,71.913c-0.776,0-1.381-0.217-1.814-0.651c-0.434-0.434-0.65-1.12-0.65-2.059v-4.608h-0.96v-1.162h0.96v-2.39
			h1.421v2.39h2.616v1.162h-2.616v3.954c0,0.422,0.008,0.747,0.023,0.975c0.015,0.229,0.073,0.442,0.174,0.64
			c0.085,0.174,0.224,0.304,0.416,0.391c0.191,0.087,0.451,0.13,0.779,0.13c0.231,0,0.456-0.034,0.673-0.101
			s0.373-0.123,0.469-0.167h0.083v1.258c-0.267,0.074-0.538,0.132-0.813,0.175C61.348,71.892,61.095,71.913,60.863,71.913z"/>
		<path d="M68.413,64.937h-0.076c-0.106-0.03-0.218-0.048-0.336-0.056c-0.119-0.007-0.261-0.011-0.427-0.011
			c-0.383,0-0.764,0.082-1.142,0.246c-0.378,0.164-0.736,0.407-1.074,0.73v5.904h-1.421v-8.316h1.421v1.236
			c0.52-0.452,0.972-0.771,1.357-0.957s0.76-0.279,1.123-0.279c0.146,0,0.256,0.004,0.329,0.011
			c0.073,0.008,0.155,0.019,0.246,0.034V64.937z"/>
		<path d="M76.141,71.75h-1.422v-0.923c-0.438,0.377-0.854,0.664-1.248,0.86c-0.393,0.196-0.832,0.294-1.315,0.294
			c-0.368,0-0.715-0.06-1.04-0.179c-0.325-0.119-0.608-0.308-0.851-0.566c-0.242-0.258-0.43-0.583-0.563-0.976
			c-0.134-0.392-0.201-0.868-0.201-1.429v-5.398h1.422v4.735c0,0.442,0.016,0.808,0.049,1.098s0.107,0.545,0.223,0.763
			c0.116,0.213,0.273,0.37,0.473,0.469c0.199,0.1,0.485,0.149,0.858,0.149c0.348,0,0.718-0.097,1.111-0.29
			c0.393-0.194,0.753-0.432,1.081-0.715v-6.209h1.422V71.75z"/>
		<path d="M79.563,62.041h-1.618v-1.452h1.618V62.041z M79.464,71.75h-1.421v-8.316h1.421V71.75z"/>
		<path d="M85.315,64.937h-0.076c-0.106-0.03-0.218-0.048-0.336-0.056c-0.119-0.007-0.261-0.011-0.427-0.011
			c-0.383,0-0.764,0.082-1.142,0.246c-0.378,0.164-0.736,0.407-1.074,0.73v5.904h-1.421v-8.316h1.421v1.236
			c0.52-0.452,0.972-0.771,1.357-0.957s0.76-0.279,1.123-0.279c0.146,0,0.256,0.004,0.329,0.011
			c0.073,0.008,0.155,0.019,0.246,0.034V64.937z"/>
		<path d="M90.133,71.943c-1.346,0-2.391-0.373-3.134-1.12s-1.115-1.808-1.115-3.183c0-1.355,0.36-2.433,1.081-3.235
			c0.721-0.801,1.664-1.202,2.828-1.202c0.524,0,0.988,0.074,1.391,0.223s0.756,0.382,1.059,0.7
			c0.303,0.318,0.534,0.707,0.696,1.166c0.161,0.459,0.242,1.021,0.242,1.686v0.76h-5.853c0,0.968,0.247,1.707,0.741,2.218
			s1.177,0.767,2.049,0.767c0.313,0,0.619-0.035,0.918-0.104c0.3-0.069,0.571-0.159,0.813-0.268c0.257-0.114,0.474-0.224,0.65-0.331
			c0.176-0.107,0.322-0.207,0.438-0.302h0.083v1.526c-0.166,0.064-0.373,0.145-0.62,0.242c-0.247,0.097-0.469,0.172-0.665,0.227
			c-0.277,0.074-0.528,0.131-0.752,0.171C90.759,71.923,90.476,71.943,90.133,71.943z M91.796,66.665
			c-0.01-0.377-0.056-0.702-0.136-0.976c-0.081-0.272-0.197-0.503-0.348-0.692c-0.166-0.208-0.379-0.367-0.639-0.476
			c-0.26-0.109-0.581-0.164-0.964-0.164c-0.378,0-0.699,0.056-0.964,0.167c-0.265,0.112-0.505,0.274-0.722,0.488
			c-0.211,0.218-0.373,0.46-0.484,0.726c-0.111,0.265-0.182,0.574-0.212,0.927H91.796z"/>
		<path d="M99.251,74.817H97.52c-0.877-1.027-1.567-2.114-2.068-3.261c-0.501-1.147-0.752-2.502-0.752-4.065
			c0-1.528,0.249-2.875,0.745-4.039c0.497-1.164,1.188-2.26,2.076-3.287h1.731v0.074c-0.408,0.362-0.798,0.781-1.168,1.254
			c-0.37,0.474-0.714,1.026-1.032,1.657c-0.303,0.61-0.548,1.283-0.737,2.018c-0.189,0.735-0.284,1.509-0.284,2.323
			c0,0.849,0.092,1.626,0.276,2.331s0.432,1.375,0.745,2.01c0.302,0.61,0.647,1.163,1.036,1.656
			c0.388,0.494,0.776,0.912,1.165,1.255V74.817z"/>
		<path d="M104.627,67.491c0,1.534-0.25,2.881-0.749,4.043c-0.499,1.161-1.189,2.256-2.072,3.283h-1.731v-0.074
			c0.388-0.343,0.779-0.763,1.172-1.262c0.394-0.499,0.736-1.048,1.028-1.649c0.313-0.641,0.561-1.316,0.745-2.029
			c0.184-0.712,0.276-1.483,0.276-2.312c0-0.819-0.093-1.593-0.28-2.323s-0.434-1.402-0.741-2.018
			c-0.308-0.615-0.655-1.169-1.043-1.66s-0.774-0.908-1.157-1.251v-0.074h1.731c0.877,1.027,1.566,2.119,2.068,3.276
			C104.377,64.597,104.627,65.947,104.627,67.491z"/>
	</g>
	
		<line fill="none" stroke="#800000" stroke-width="0.7559" stroke-linecap="square" stroke-miterlimit="10" x1="8" y1="50.942" x2="119.216" y2="50.942"/>
	
		<rect x="283.929" y="13.516" fill-rule="evenodd" clip-rule="evenodd" fill="#FFFFB9" stroke="#800000" stroke-width="0.7559" stroke-linecap="square" stroke-miterlimit="10" width="143.595" height="74.852"/>
	<g>
		<path stroke="#000000" stroke-width="0.2376" stroke-miterlimit="10" d="M334.126,34.303h-1.497l3.234-9.553l-5.135,6.5h-0.906
			l-0.711-6.5l-3.234,9.553h-1.399l3.753-11.086h2.043l0.723,6.172l4.805-6.172h2.078L334.126,34.303z"/>
		<path stroke="#000000" stroke-width="0.2376" stroke-miterlimit="10" d="M346.789,30.149c-0.474,1.399-1.182,2.48-2.125,3.242
			c-0.944,0.762-1.986,1.143-3.125,1.143c-1.175,0-1.965-0.394-2.372-1.18c-0.406-0.787-0.382-1.855,0.075-3.205
			c0.471-1.39,1.184-2.47,2.137-3.238c0.954-0.77,1.997-1.154,3.132-1.154c1.139,0,1.923,0.383,2.349,1.149
			C347.285,27.674,347.262,28.754,346.789,30.149z M345.322,30.149c0.365-1.078,0.437-1.878,0.216-2.401
			c-0.222-0.523-0.7-0.785-1.436-0.785c-0.741,0-1.401,0.262-1.979,0.785c-0.578,0.523-1.05,1.324-1.415,2.401
			c-0.353,1.042-0.419,1.833-0.201,2.371c0.219,0.54,0.698,0.809,1.439,0.809c0.73,0,1.387-0.265,1.967-0.793
			C344.492,32.006,344.963,31.211,345.322,30.149z"/>
		<path stroke="#000000" stroke-width="0.2376" stroke-miterlimit="10" d="M354.92,34.303h-1.421l1.604-4.735
			c0.129-0.382,0.23-0.738,0.305-1.068c0.073-0.33,0.091-0.595,0.053-0.792c-0.046-0.209-0.154-0.364-0.327-0.465
			c-0.172-0.102-0.437-0.153-0.795-0.153c-0.353,0-0.748,0.093-1.188,0.28c-0.438,0.186-0.887,0.427-1.345,0.725l-2.103,6.209
			h-1.422l2.815-8.317h1.422l-0.313,0.924c0.549-0.373,1.064-0.658,1.545-0.856c0.48-0.199,0.95-0.298,1.409-0.298
			c0.831,0,1.391,0.269,1.677,0.807c0.286,0.54,0.257,1.319-0.09,2.342L354.92,34.303z"/>
		<path stroke="#000000" stroke-width="0.2376" stroke-miterlimit="10" d="M360.625,34.467c-0.775,0-1.307-0.217-1.594-0.651
			c-0.286-0.435-0.271-1.121,0.047-2.059l1.561-4.608h-0.961l0.394-1.162h0.96l0.81-2.389h1.422l-0.81,2.389h2.616l-0.394,1.162
			h-2.615l-1.339,3.953c-0.143,0.422-0.246,0.748-0.308,0.975c-0.063,0.229-0.076,0.442-0.043,0.641
			c0.027,0.173,0.122,0.303,0.283,0.39c0.162,0.087,0.407,0.13,0.734,0.13c0.232,0,0.468-0.033,0.707-0.101
			c0.24-0.067,0.415-0.122,0.525-0.167h0.084l-0.426,1.259c-0.293,0.074-0.583,0.132-0.873,0.175
			C361.118,34.445,360.857,34.467,360.625,34.467z"/>
		<path stroke="#000000" stroke-width="0.2376" stroke-miterlimit="10" d="M368.765,34.497c-1.346,0-2.265-0.373-2.755-1.12
			c-0.49-0.748-0.502-1.809-0.037-3.183c0.459-1.355,1.185-2.434,2.176-3.235c0.992-0.802,2.071-1.202,3.235-1.202
			c0.524,0,0.964,0.074,1.316,0.223s0.626,0.383,0.821,0.7c0.194,0.317,0.295,0.706,0.301,1.166
			c0.006,0.459-0.104,1.021-0.328,1.687l-0.258,0.759h-5.853c-0.327,0.967-0.331,1.708-0.01,2.218
			c0.32,0.511,0.917,0.767,1.79,0.767c0.313,0,0.629-0.034,0.953-0.104c0.324-0.07,0.625-0.159,0.904-0.268
			c0.295-0.115,0.549-0.225,0.762-0.332c0.213-0.107,0.393-0.207,0.541-0.301h0.083l-0.517,1.526
			c-0.188,0.063-0.423,0.145-0.702,0.241c-0.28,0.097-0.527,0.173-0.742,0.228c-0.302,0.074-0.573,0.131-0.811,0.171
			C369.398,34.477,369.107,34.497,368.765,34.497z M372.216,29.218c0.117-0.377,0.183-0.703,0.193-0.976
			c0.013-0.273-0.025-0.503-0.113-0.692c-0.095-0.209-0.255-0.367-0.478-0.477c-0.223-0.109-0.525-0.164-0.908-0.164
			c-0.378,0-0.718,0.055-1.021,0.167c-0.302,0.111-0.599,0.273-0.888,0.487c-0.286,0.218-0.529,0.46-0.729,0.726
			c-0.201,0.266-0.376,0.575-0.525,0.927H372.216z"/>
		<path stroke="#000000" stroke-width="0.2376" stroke-miterlimit="10" d="M381.58,34.303h-1.421l0.313-0.923
			c-0.565,0.377-1.079,0.664-1.539,0.86c-0.46,0.195-0.932,0.294-1.415,0.294c-0.368,0-0.694-0.06-0.979-0.179
			c-0.285-0.119-0.504-0.307-0.659-0.565c-0.154-0.258-0.232-0.583-0.232-0.976c-0.002-0.392,0.094-0.869,0.283-1.429l1.827-5.398
			h1.422l-1.603,4.736c-0.15,0.441-0.258,0.807-0.323,1.098s-0.077,0.545-0.034,0.763c0.043,0.213,0.146,0.37,0.313,0.469
			c0.166,0.099,0.435,0.149,0.808,0.149c0.348,0,0.752-0.097,1.21-0.291c0.459-0.193,0.9-0.432,1.324-0.715l2.102-6.209h1.421
			L381.58,34.303z"/>
		<path stroke="#000000" stroke-width="0.2376" stroke-miterlimit="10" d="M391.628,27.491h-0.076
			c-0.096-0.03-0.201-0.048-0.317-0.056c-0.115-0.007-0.257-0.011-0.424-0.011c-0.383,0-0.791,0.082-1.225,0.246
			c-0.434,0.164-0.874,0.407-1.32,0.729l-1.999,5.904h-1.422l2.815-8.317h1.422l-0.418,1.237c0.672-0.452,1.232-0.771,1.682-0.958
			c0.447-0.186,0.854-0.279,1.216-0.279c0.146,0,0.255,0.004,0.325,0.012c0.071,0.007,0.149,0.019,0.235,0.033L391.628,27.491z"/>
	</g>
	
		<line fill="none" stroke="#800000" stroke-width="0.7559" stroke-linecap="square" stroke-miterlimit="10" x1="283.929" y1="44.011" x2="428.932" y2="44.011"/>
	<g>
		<path d="M302.49,73.007h-3.818l-1.273,3.76h-1.255l1.273-3.76h-3.818l0.403-1.191h3.818l1.272-3.759h1.255l-1.272,3.759h3.818
			L302.49,73.007z"/>
		<path d="M306.559,77.451c-0.58,0-1.081-0.088-1.506-0.265c-0.424-0.176-0.75-0.442-0.977-0.8
			c-0.228-0.357-0.345-0.808-0.352-1.352c-0.008-0.543,0.113-1.182,0.361-1.917c0.247-0.73,0.56-1.36,0.939-1.892
			c0.379-0.531,0.796-0.978,1.251-1.339c0.455-0.363,0.965-0.642,1.527-0.838c0.563-0.196,1.13-0.294,1.699-0.294
			c0.464,0,0.889,0.065,1.276,0.193c0.388,0.129,0.721,0.278,1.002,0.447l-0.532,1.572h-0.083c-0.072-0.084-0.169-0.182-0.291-0.291
			c-0.121-0.109-0.277-0.221-0.465-0.335c-0.164-0.1-0.365-0.187-0.608-0.261c-0.241-0.075-0.485-0.112-0.732-0.112
			c-0.736,0-1.42,0.275-2.052,0.823c-0.633,0.549-1.117,1.324-1.457,2.327c-0.332,0.982-0.377,1.748-0.131,2.297
			c0.245,0.548,0.751,0.822,1.518,0.822c0.464,0,0.937-0.094,1.419-0.283c0.481-0.188,0.935-0.431,1.358-0.729h0.083l-0.532,1.571
			c-0.163,0.065-0.365,0.143-0.608,0.234c-0.243,0.093-0.458,0.161-0.644,0.206c-0.266,0.069-0.501,0.123-0.705,0.16
			C307.114,77.433,306.861,77.451,306.559,77.451z"/>
		<path d="M318.673,73.111c-0.474,1.399-1.183,2.48-2.126,3.242s-1.986,1.143-3.125,1.143c-1.174,0-1.965-0.394-2.371-1.18
			c-0.406-0.787-0.382-1.855,0.075-3.205c0.471-1.391,1.183-2.47,2.136-3.239c0.954-0.77,1.998-1.154,3.133-1.154
			c1.139,0,1.922,0.383,2.348,1.15C319.168,70.636,319.145,71.716,318.673,73.111z M317.206,73.111
			c0.364-1.078,0.437-1.878,0.215-2.401c-0.221-0.523-0.7-0.785-1.435-0.785c-0.742,0-1.401,0.262-1.979,0.785
			c-0.577,0.523-1.05,1.324-1.414,2.401c-0.353,1.042-0.419,1.832-0.201,2.371c0.218,0.539,0.698,0.809,1.439,0.809
			c0.73,0,1.386-0.265,1.966-0.794C316.376,74.969,316.847,74.173,317.206,73.111z"/>
		<path d="M325.396,77.265h-1.421l1.603-4.735c0.13-0.382,0.23-0.738,0.306-1.068c0.073-0.33,0.091-0.595,0.052-0.792
			c-0.045-0.209-0.154-0.364-0.326-0.465c-0.172-0.102-0.437-0.153-0.796-0.153c-0.352,0-0.748,0.093-1.187,0.279
			c-0.438,0.186-0.888,0.427-1.346,0.725l-2.102,6.209h-1.422l2.815-8.316h1.422l-0.313,0.924c0.549-0.373,1.064-0.657,1.544-0.856
			c0.48-0.199,0.951-0.298,1.41-0.298c0.831,0,1.39,0.27,1.677,0.808c0.286,0.539,0.256,1.319-0.09,2.342L325.396,77.265z"/>
		<path d="M329.421,77.466c-0.564,0-1.066-0.074-1.509-0.223c-0.44-0.149-0.794-0.308-1.059-0.477l0.531-1.571h0.075
			c0.09,0.094,0.196,0.199,0.322,0.313c0.124,0.115,0.303,0.234,0.532,0.358c0.205,0.109,0.438,0.207,0.699,0.291
			s0.548,0.127,0.861,0.127c0.227,0,0.479-0.027,0.752-0.079c0.275-0.052,0.488-0.118,0.642-0.197
			c0.216-0.115,0.384-0.236,0.505-0.365c0.122-0.129,0.227-0.322,0.314-0.58c0.112-0.333,0.105-0.583-0.021-0.752
			c-0.127-0.169-0.405-0.311-0.836-0.425c-0.166-0.044-0.385-0.097-0.658-0.156c-0.271-0.06-0.52-0.124-0.742-0.193
			c-0.584-0.184-0.956-0.468-1.118-0.853s-0.151-0.85,0.033-1.396c0.254-0.749,0.749-1.36,1.482-1.832
			c0.735-0.472,1.578-0.708,2.53-0.708c0.469,0,0.922,0.057,1.356,0.171c0.435,0.115,0.784,0.258,1.049,0.432l-0.507,1.497h-0.076
			c-0.268-0.283-0.596-0.506-0.986-0.669c-0.39-0.165-0.813-0.246-1.267-0.246c-0.469,0-0.897,0.097-1.285,0.291
			c-0.389,0.193-0.649,0.486-0.782,0.878c-0.117,0.347-0.109,0.607,0.024,0.778c0.134,0.171,0.394,0.311,0.78,0.42
			c0.193,0.056,0.411,0.108,0.653,0.16c0.241,0.053,0.495,0.114,0.758,0.183c0.573,0.154,0.957,0.409,1.151,0.767
			c0.194,0.357,0.187,0.843-0.021,1.458c-0.121,0.358-0.309,0.697-0.561,1.017c-0.252,0.32-0.555,0.595-0.909,0.822
			c-0.387,0.249-0.792,0.438-1.216,0.566C330.495,77.402,329.996,77.466,329.421,77.466z"/>
		<path d="M336.741,77.429c-0.776,0-1.308-0.217-1.594-0.651c-0.286-0.435-0.271-1.121,0.046-2.059l1.561-4.608h-0.96l0.394-1.162
			h0.96l0.809-2.389h1.422l-0.809,2.389h2.616l-0.394,1.162h-2.616l-1.338,3.954c-0.144,0.422-0.246,0.748-0.309,0.975
			c-0.063,0.229-0.076,0.442-0.043,0.641c0.027,0.173,0.122,0.304,0.284,0.391s0.407,0.13,0.734,0.13
			c0.232,0,0.467-0.033,0.707-0.101c0.239-0.066,0.414-0.122,0.525-0.167h0.084l-0.427,1.259c-0.292,0.074-0.582,0.132-0.872,0.175
			C337.233,77.408,336.974,77.429,336.741,77.429z"/>
		<path d="M346.652,70.453h-0.076c-0.096-0.029-0.202-0.048-0.318-0.055c-0.115-0.008-0.256-0.011-0.424-0.011
			c-0.383,0-0.791,0.082-1.225,0.246c-0.434,0.164-0.874,0.407-1.32,0.729l-1.998,5.904h-1.422l2.815-8.316h1.422l-0.419,1.237
			c0.672-0.453,1.232-0.771,1.682-0.958c0.447-0.186,0.854-0.279,1.217-0.279c0.146,0,0.254,0.004,0.324,0.012
			c0.071,0.007,0.149,0.018,0.235,0.033L346.652,70.453z"/>
		<path d="M352.074,77.265h-1.421l0.313-0.923c-0.566,0.377-1.079,0.664-1.54,0.86c-0.459,0.195-0.932,0.294-1.414,0.294
			c-0.369,0-0.695-0.06-0.979-0.18c-0.285-0.118-0.505-0.307-0.659-0.565c-0.155-0.258-0.232-0.583-0.233-0.976
			c-0.001-0.392,0.094-0.868,0.284-1.429l1.827-5.398h1.422l-1.604,4.736c-0.149,0.441-0.258,0.808-0.323,1.098
			c-0.064,0.291-0.076,0.545-0.034,0.763c0.043,0.212,0.147,0.37,0.313,0.469c0.166,0.099,0.435,0.149,0.808,0.149
			c0.348,0,0.752-0.097,1.21-0.291c0.459-0.193,0.9-0.432,1.324-0.715l2.103-6.209h1.421L352.074,77.265z"/>
		<path d="M355.397,77.265h-1.422l2.815-8.316h1.422L355.397,77.265z M358.781,67.557h-1.617l0.49-1.451h1.619L358.781,67.557z"/>
		<path d="M363.555,70.453h-0.076c-0.096-0.029-0.202-0.048-0.318-0.055c-0.115-0.008-0.256-0.011-0.424-0.011
			c-0.383,0-0.791,0.082-1.225,0.246c-0.434,0.164-0.874,0.407-1.32,0.729l-1.998,5.904h-1.422l2.815-8.316h1.422l-0.419,1.237
			c0.672-0.453,1.232-0.771,1.682-0.958c0.447-0.186,0.854-0.279,1.217-0.279c0.146,0,0.254,0.004,0.324,0.012
			c0.071,0.007,0.149,0.018,0.235,0.033L363.555,70.453z"/>
		<path d="M366,77.458c-1.346,0-2.265-0.373-2.755-1.12c-0.491-0.747-0.503-1.808-0.038-3.183c0.459-1.355,1.185-2.434,2.177-3.235
			c0.992-0.802,2.071-1.203,3.235-1.203c0.524,0,0.963,0.074,1.315,0.223c0.354,0.149,0.626,0.383,0.821,0.7
			s0.296,0.706,0.301,1.166c0.006,0.458-0.104,1.021-0.328,1.686l-0.257,0.76h-5.853c-0.328,0.967-0.331,1.708-0.01,2.218
			c0.32,0.512,0.917,0.767,1.789,0.767c0.313,0,0.63-0.034,0.954-0.104c0.323-0.07,0.624-0.159,0.903-0.269
			c0.295-0.115,0.55-0.225,0.763-0.331c0.213-0.107,0.392-0.207,0.54-0.302h0.083l-0.517,1.526
			c-0.188,0.064-0.422,0.146-0.701,0.242c-0.28,0.097-0.527,0.173-0.742,0.228c-0.303,0.074-0.573,0.131-0.812,0.171
			C366.633,77.439,366.343,77.458,366,77.458z M369.451,72.181c0.116-0.377,0.182-0.703,0.193-0.976
			c0.012-0.272-0.026-0.503-0.113-0.692c-0.096-0.209-0.255-0.367-0.478-0.476c-0.224-0.109-0.526-0.164-0.909-0.164
			c-0.377,0-0.718,0.056-1.02,0.167c-0.303,0.111-0.6,0.274-0.889,0.488c-0.285,0.218-0.528,0.46-0.729,0.726
			c-0.201,0.265-0.377,0.574-0.525,0.927H369.451z"/>
		<path d="M380.687,69.522c-0.163,0.482-0.405,0.938-0.725,1.366c-0.319,0.429-0.683,0.796-1.093,1.098
			c-0.517,0.377-1.069,0.663-1.659,0.856c-0.589,0.193-1.285,0.291-2.087,0.291h-1.271l-1.398,4.132h-1.497l3.753-11.086h2.828
			c0.665,0,1.214,0.055,1.646,0.164c0.432,0.109,0.785,0.286,1.062,0.529c0.321,0.283,0.528,0.641,0.619,1.076
			C380.953,68.383,380.895,68.907,380.687,69.522z M379.115,69.559c0.129-0.382,0.176-0.714,0.138-0.997s-0.162-0.513-0.374-0.693
			c-0.186-0.153-0.424-0.263-0.717-0.327c-0.294-0.064-0.675-0.096-1.144-0.096h-1.24l-1.5,4.43h1.021
			c0.604,0,1.11-0.049,1.517-0.146c0.405-0.097,0.773-0.269,1.104-0.518c0.298-0.223,0.541-0.466,0.731-0.729
			C378.842,70.22,378.996,69.913,379.115,69.559z"/>
		<path d="M384.322,76.379c-0.145,0.084-0.34,0.202-0.586,0.354c-0.244,0.151-0.474,0.271-0.685,0.361
			c-0.296,0.128-0.573,0.229-0.831,0.298s-0.598,0.104-1.021,0.104c-0.348,0-0.656-0.065-0.925-0.194
			c-0.271-0.128-0.483-0.31-0.641-0.543c-0.15-0.229-0.235-0.511-0.259-0.845c-0.022-0.335,0.029-0.688,0.155-1.061
			c0.194-0.575,0.485-1.065,0.868-1.47c0.384-0.405,0.883-0.726,1.499-0.965c0.546-0.213,1.155-0.361,1.829-0.443
			c0.672-0.081,1.389-0.142,2.148-0.182l0.091-0.268c0.11-0.328,0.149-0.592,0.116-0.793s-0.121-0.356-0.266-0.465
			c-0.144-0.114-0.34-0.189-0.588-0.227c-0.25-0.038-0.514-0.056-0.791-0.056c-0.327,0-0.729,0.049-1.205,0.145
			c-0.478,0.097-0.969,0.238-1.474,0.421h-0.083l0.48-1.422c0.287-0.075,0.691-0.156,1.21-0.246c0.52-0.09,1.019-0.134,1.497-0.134
			c0.58,0,1.054,0.044,1.422,0.134c0.368,0.089,0.671,0.25,0.91,0.483c0.229,0.229,0.359,0.524,0.388,0.886
			c0.028,0.363-0.045,0.804-0.222,1.326l-1.925,5.688h-1.414L384.322,76.379z M384.715,75.218l0.782-2.309
			c-0.349,0.03-0.79,0.071-1.324,0.123c-0.534,0.053-0.976,0.125-1.325,0.22c-0.417,0.114-0.789,0.289-1.115,0.524
			c-0.327,0.236-0.563,0.565-0.705,0.987c-0.162,0.477-0.146,0.836,0.043,1.08c0.189,0.243,0.547,0.364,1.071,0.364
			c0.448,0,0.887-0.095,1.313-0.287C383.884,75.731,384.303,75.496,384.715,75.218z"/>
		<path d="M394.525,70.453h-0.076c-0.096-0.029-0.202-0.048-0.318-0.055c-0.115-0.008-0.256-0.011-0.424-0.011
			c-0.383,0-0.791,0.082-1.225,0.246c-0.434,0.164-0.874,0.407-1.32,0.729l-1.998,5.904h-1.422l2.815-8.316h1.422l-0.419,1.237
			c0.672-0.453,1.232-0.771,1.682-0.958c0.447-0.186,0.854-0.279,1.217-0.279c0.146,0,0.254,0.004,0.324,0.012
			c0.071,0.007,0.149,0.018,0.235,0.033L394.525,70.453z"/>
		<path d="M395.868,77.429c-0.776,0-1.308-0.217-1.594-0.651c-0.286-0.435-0.271-1.121,0.046-2.059l1.561-4.608h-0.96l0.394-1.162
			h0.96l0.809-2.389h1.422l-0.809,2.389h2.616l-0.394,1.162h-2.616l-1.338,3.954c-0.144,0.422-0.246,0.748-0.309,0.975
			c-0.063,0.229-0.076,0.442-0.043,0.641c0.027,0.173,0.122,0.304,0.284,0.391s0.407,0.13,0.734,0.13
			c0.232,0,0.467-0.033,0.707-0.101c0.239-0.066,0.414-0.122,0.525-0.167h0.084l-0.427,1.259c-0.292,0.074-0.582,0.132-0.872,0.175
			C396.36,77.408,396.101,77.429,395.868,77.429z"/>
		<path d="M400.449,77.265h-1.422l2.815-8.316h1.422L400.449,77.265z M403.834,67.557h-1.619l0.492-1.451h1.617L403.834,67.557z"/>
		<path d="M405.425,77.458c-1.346,0-2.265-0.373-2.755-1.12c-0.491-0.747-0.503-1.808-0.037-3.183
			c0.458-1.355,1.184-2.434,2.176-3.235c0.992-0.802,2.071-1.203,3.235-1.203c0.524,0,0.963,0.074,1.315,0.223
			c0.354,0.149,0.627,0.383,0.822,0.7c0.193,0.317,0.295,0.706,0.301,1.166c0.006,0.458-0.104,1.021-0.329,1.686l-0.257,0.76h-5.853
			c-0.328,0.967-0.331,1.708-0.01,2.218c0.319,0.512,0.917,0.767,1.789,0.767c0.313,0,0.63-0.034,0.954-0.104
			c0.323-0.07,0.624-0.159,0.903-0.269c0.296-0.115,0.55-0.225,0.763-0.331c0.213-0.107,0.393-0.207,0.54-0.302h0.083l-0.517,1.526
			c-0.188,0.064-0.422,0.146-0.702,0.242c-0.279,0.097-0.527,0.173-0.742,0.228c-0.302,0.074-0.572,0.131-0.811,0.171
			C406.059,77.439,405.768,77.458,405.425,77.458z M408.875,72.181c0.117-0.377,0.183-0.703,0.194-0.976
			c0.012-0.272-0.026-0.503-0.114-0.692c-0.095-0.209-0.254-0.367-0.477-0.476c-0.223-0.109-0.525-0.164-0.908-0.164
			c-0.379,0-0.719,0.056-1.021,0.167c-0.302,0.111-0.598,0.274-0.887,0.488c-0.286,0.218-0.529,0.46-0.729,0.726
			c-0.201,0.265-0.376,0.574-0.526,0.927H408.875z"/>
		<path d="M413.57,80.333h-1.731c-0.528-1.027-0.851-2.114-0.963-3.261c-0.114-1.147,0.094-2.502,0.623-4.065
			c0.518-1.529,1.222-2.875,2.112-4.039c0.891-1.165,1.953-2.26,3.188-3.288h1.731l-0.025,0.075
			c-0.531,0.361-1.061,0.78-1.593,1.254c-0.53,0.474-1.063,1.026-1.593,1.657c-0.509,0.61-0.982,1.283-1.421,2.018
			c-0.437,0.734-0.794,1.509-1.069,2.323c-0.287,0.849-0.459,1.625-0.513,2.33c-0.055,0.705-0.034,1.375,0.063,2.011
			c0.096,0.61,0.256,1.162,0.476,1.656c0.221,0.494,0.468,0.912,0.739,1.255L413.57,80.333z"/>
		<path d="M421.428,73.007c-0.52,1.534-1.225,2.881-2.117,4.043c-0.892,1.161-1.953,2.255-3.184,3.283h-1.731l0.025-0.074
			c0.504-0.343,1.036-0.763,1.6-1.263c0.562-0.499,1.091-1.048,1.586-1.648c0.529-0.641,1.007-1.317,1.433-2.029
			c0.424-0.712,0.777-1.483,1.058-2.312c0.277-0.819,0.446-1.593,0.507-2.323s0.041-1.402-0.059-2.018
			c-0.099-0.616-0.259-1.169-0.48-1.66c-0.223-0.491-0.467-0.909-0.733-1.25l0.025-0.075h1.731c0.529,1.028,0.849,2.119,0.959,3.276
			C422.156,70.113,421.95,71.463,421.428,73.007z"/>
	</g>
	
		<line fill="none" stroke="#800000" stroke-width="0.7559" stroke-linecap="square" stroke-miterlimit="10" x1="283.929" y1="56.487" x2="428.932" y2="56.487"/>
	
		<rect x="283.929" y="163.22" fill-rule="evenodd" clip-rule="evenodd" fill="#FFFFB9" stroke="#800000" stroke-width="0.7559" stroke-linecap="square" stroke-miterlimit="10" width="143.595" height="92.871"/>
	<g>
		<path d="M305.042,184.01h-2.813v-7.349l-2.049,4.743h-1.928l-2.049-4.743v7.349h-2.662v-11.086h3.259l2.496,5.473l2.487-5.473
			h3.259V184.01z"/>
		<path d="M315.618,179.833c0,1.375-0.382,2.458-1.146,3.25s-1.844,1.188-3.239,1.188c-1.387,0-2.464-0.396-3.233-1.188
			c-0.769-0.792-1.152-1.875-1.152-3.25c0-1.39,0.384-2.478,1.152-3.265c0.77-0.786,1.847-1.18,3.233-1.18
			c1.391,0,2.47,0.396,3.235,1.188C315.235,177.367,315.618,178.453,315.618,179.833z M312.904,179.848
			c0-0.496-0.042-0.909-0.125-1.239s-0.198-0.595-0.344-0.793c-0.156-0.208-0.333-0.354-0.529-0.436
			c-0.197-0.082-0.421-0.123-0.673-0.123c-0.237,0-0.452,0.036-0.644,0.108s-0.367,0.21-0.529,0.413
			c-0.15,0.193-0.271,0.459-0.362,0.797c-0.091,0.337-0.137,0.762-0.137,1.272c0,0.512,0.043,0.925,0.129,1.24
			c0.086,0.314,0.196,0.566,0.333,0.755c0.141,0.194,0.317,0.336,0.529,0.425c0.211,0.09,0.445,0.134,0.703,0.134
			c0.212,0,0.427-0.044,0.646-0.134c0.219-0.089,0.395-0.224,0.525-0.402c0.156-0.213,0.274-0.47,0.355-0.771
			C312.863,180.795,312.904,180.379,312.904,179.848z"/>
		<path d="M325.274,184.01h-2.661v-4.146c0-0.338-0.015-0.674-0.042-1.009c-0.027-0.336-0.079-0.582-0.155-0.741
			c-0.091-0.188-0.222-0.324-0.393-0.406c-0.172-0.081-0.401-0.122-0.688-0.122c-0.217,0-0.437,0.039-0.658,0.119
			c-0.222,0.079-0.458,0.206-0.71,0.379v5.927h-2.646v-8.361h2.646v0.924c0.433-0.362,0.855-0.646,1.267-0.849
			c0.41-0.204,0.865-0.306,1.364-0.306c0.867,0,1.53,0.27,1.988,0.808c0.459,0.539,0.688,1.319,0.688,2.342V184.01z"/>
		<path d="M330.438,184.174c-1.079,0-1.864-0.219-2.355-0.655s-0.737-1.151-0.737-2.145v-3.908h-1.013v-1.817h1.013v-2.39h2.646
			v2.39h2.549v1.817h-2.549v2.963c0,0.293,0.003,0.549,0.008,0.767c0.005,0.219,0.045,0.415,0.121,0.588
			c0.07,0.174,0.195,0.312,0.374,0.414c0.179,0.102,0.439,0.152,0.782,0.152c0.142,0,0.327-0.03,0.557-0.09
			c0.229-0.06,0.389-0.113,0.479-0.163h0.228v1.839c-0.288,0.074-0.593,0.133-0.915,0.175
			C331.302,184.152,330.906,184.174,330.438,184.174z"/>
		<path d="M338.573,184.233c-1.604,0-2.832-0.377-3.687-1.132s-1.281-1.829-1.281-3.224c0-1.365,0.397-2.454,1.194-3.269
			s1.91-1.221,3.342-1.221c1.301,0,2.279,0.345,2.935,1.034c0.655,0.69,0.982,1.678,0.982,2.964v0.938h-5.8
			c0.025,0.388,0.108,0.711,0.25,0.972c0.141,0.261,0.327,0.468,0.56,0.622c0.227,0.153,0.491,0.264,0.794,0.331
			s0.633,0.101,0.99,0.101c0.308,0,0.61-0.033,0.907-0.101c0.298-0.067,0.57-0.155,0.817-0.265c0.216-0.094,0.417-0.195,0.601-0.305
			c0.185-0.109,0.334-0.206,0.45-0.291h0.279v2.152c-0.217,0.084-0.414,0.162-0.593,0.234c-0.18,0.072-0.425,0.146-0.737,0.22
			c-0.288,0.074-0.584,0.133-0.889,0.175C339.383,184.212,339.012,184.233,338.573,184.233z M339.45,178.754
			c-0.016-0.552-0.146-0.971-0.39-1.259s-0.619-0.432-1.123-0.432c-0.514,0-0.916,0.151-1.206,0.454s-0.449,0.715-0.479,1.236
			H339.45z"/>
		<path d="M351.956,184.01h-2.646v-0.923c-0.458,0.377-0.879,0.663-1.263,0.859c-0.383,0.196-0.839,0.294-1.368,0.294
			c-0.842,0-1.499-0.262-1.97-0.785c-0.472-0.523-0.707-1.312-0.707-2.364v-5.442h2.661v4.147c0,0.432,0.012,0.784,0.034,1.058
			c0.022,0.272,0.077,0.503,0.163,0.692c0.08,0.173,0.205,0.305,0.374,0.395c0.169,0.089,0.404,0.134,0.707,0.134
			c0.187,0,0.407-0.045,0.661-0.134c0.255-0.09,0.49-0.211,0.707-0.365v-5.927h2.646V184.01z"/>
		<path d="M359.639,178.113h-0.22c-0.101-0.035-0.247-0.061-0.438-0.078s-0.403-0.026-0.635-0.026c-0.277,0-0.568,0.04-0.874,0.119
			c-0.305,0.08-0.601,0.174-0.888,0.283v5.599h-2.646v-8.361h2.646v1.199c0.12-0.109,0.288-0.247,0.502-0.413
			c0.215-0.166,0.41-0.299,0.587-0.398c0.191-0.114,0.414-0.212,0.669-0.294c0.254-0.082,0.495-0.123,0.722-0.123
			c0.086,0,0.182,0.003,0.287,0.008c0.106,0.005,0.202,0.012,0.288,0.021V178.113z"/>
		<path d="M365.966,184.226c-1.688,0-3.029-0.503-4.022-1.508s-1.489-2.418-1.489-4.239c0-1.758,0.497-3.158,1.493-4.203
			c0.995-1.045,2.338-1.567,4.026-1.567c0.448,0,0.852,0.025,1.21,0.074c0.357,0.05,0.7,0.119,1.028,0.209
			c0.257,0.074,0.537,0.176,0.839,0.305c0.303,0.13,0.547,0.241,0.734,0.335v2.644h-0.288c-0.136-0.119-0.308-0.262-0.514-0.428
			c-0.207-0.167-0.441-0.329-0.703-0.488c-0.263-0.158-0.551-0.294-0.866-0.405c-0.315-0.112-0.644-0.168-0.986-0.168
			c-0.408,0-0.783,0.063-1.123,0.19c-0.341,0.126-0.664,0.346-0.972,0.658c-0.282,0.283-0.513,0.665-0.692,1.146
			c-0.179,0.481-0.268,1.05-0.268,1.705c0,0.69,0.093,1.27,0.279,1.738c0.187,0.47,0.431,0.848,0.733,1.136
			c0.292,0.278,0.619,0.479,0.979,0.603c0.36,0.125,0.72,0.187,1.077,0.187c0.373,0,0.729-0.061,1.066-0.183
			c0.338-0.121,0.622-0.257,0.854-0.405c0.252-0.154,0.474-0.311,0.665-0.47c0.191-0.158,0.358-0.3,0.499-0.424h0.258v2.605
			c-0.207,0.095-0.446,0.202-0.719,0.324c-0.272,0.121-0.552,0.225-0.84,0.309c-0.353,0.104-0.683,0.184-0.99,0.238
			S366.506,184.226,365.966,184.226z"/>
		<path d="M378.968,179.833c0,1.375-0.382,2.458-1.146,3.25s-1.844,1.188-3.239,1.188c-1.387,0-2.464-0.396-3.233-1.188
			c-0.769-0.792-1.152-1.875-1.152-3.25c0-1.39,0.384-2.478,1.152-3.265c0.77-0.786,1.847-1.18,3.233-1.18
			c1.391,0,2.47,0.396,3.235,1.188C378.585,177.367,378.968,178.453,378.968,179.833z M376.254,179.848
			c0-0.496-0.042-0.909-0.125-1.239s-0.198-0.595-0.344-0.793c-0.156-0.208-0.333-0.354-0.529-0.436
			c-0.197-0.082-0.421-0.123-0.673-0.123c-0.237,0-0.452,0.036-0.644,0.108s-0.367,0.21-0.529,0.413
			c-0.15,0.193-0.271,0.459-0.362,0.797c-0.091,0.337-0.137,0.762-0.137,1.272c0,0.512,0.043,0.925,0.129,1.24
			c0.086,0.314,0.196,0.566,0.333,0.755c0.141,0.194,0.317,0.336,0.529,0.425c0.211,0.09,0.445,0.134,0.703,0.134
			c0.212,0,0.427-0.044,0.646-0.134c0.219-0.089,0.395-0.224,0.525-0.402c0.156-0.213,0.274-0.47,0.355-0.771
			C376.213,180.795,376.254,180.379,376.254,179.848z"/>
		<path d="M388.624,184.01h-2.661v-4.146c0-0.338-0.015-0.674-0.042-1.009c-0.027-0.336-0.079-0.582-0.155-0.741
			c-0.091-0.188-0.222-0.324-0.393-0.406c-0.172-0.081-0.401-0.122-0.688-0.122c-0.217,0-0.437,0.039-0.658,0.119
			c-0.222,0.079-0.458,0.206-0.71,0.379v5.927h-2.646v-8.361h2.646v0.924c0.433-0.362,0.855-0.646,1.267-0.849
			c0.41-0.204,0.865-0.306,1.364-0.306c0.867,0,1.53,0.27,1.988,0.808c0.459,0.539,0.688,1.319,0.688,2.342V184.01z"/>
		<path d="M394.702,184.233c-0.701,0-1.342-0.087-1.925-0.261c-0.582-0.174-1.087-0.441-1.516-0.804
			c-0.424-0.362-0.754-0.818-0.99-1.366c-0.237-0.549-0.355-1.195-0.355-1.939c0-0.8,0.128-1.479,0.386-2.04
			c0.257-0.562,0.604-1.022,1.043-1.385c0.424-0.348,0.921-0.604,1.493-0.771c0.572-0.167,1.169-0.25,1.788-0.25
			c0.47,0,0.938,0.054,1.407,0.16s0.939,0.276,1.414,0.51v2.233h-0.341c-0.105-0.099-0.235-0.208-0.39-0.327
			c-0.153-0.119-0.321-0.229-0.503-0.327c-0.191-0.104-0.408-0.192-0.649-0.265c-0.242-0.072-0.512-0.108-0.81-0.108
			c-0.676,0-1.198,0.232-1.569,0.696c-0.37,0.464-0.556,1.089-0.556,1.873c0,0.839,0.198,1.464,0.594,1.876s0.921,0.618,1.577,0.618
			c0.332,0,0.625-0.038,0.877-0.112s0.469-0.164,0.65-0.268c0.176-0.104,0.327-0.213,0.453-0.324s0.234-0.212,0.325-0.302h0.341
			v2.233c-0.151,0.065-0.327,0.14-0.526,0.224c-0.199,0.085-0.401,0.154-0.608,0.209c-0.257,0.069-0.498,0.122-0.722,0.16
			C395.366,184.215,395.07,184.233,394.702,184.233z"/>
		<path d="M404.683,178.113h-0.22c-0.101-0.035-0.247-0.061-0.438-0.078s-0.403-0.026-0.635-0.026c-0.277,0-0.568,0.04-0.874,0.119
			c-0.305,0.08-0.601,0.174-0.888,0.283v5.599h-2.646v-8.361h2.646v1.199c0.12-0.109,0.288-0.247,0.502-0.413
			c0.215-0.166,0.41-0.299,0.587-0.398c0.191-0.114,0.414-0.212,0.669-0.294c0.254-0.082,0.495-0.123,0.722-0.123
			c0.086,0,0.182,0.003,0.287,0.008c0.106,0.005,0.202,0.012,0.288,0.021V178.113z"/>
		<path d="M410.354,184.233c-1.604,0-2.832-0.377-3.687-1.132s-1.281-1.829-1.281-3.224c0-1.365,0.397-2.454,1.194-3.269
			s1.91-1.221,3.342-1.221c1.301,0,2.279,0.345,2.935,1.034c0.655,0.69,0.982,1.678,0.982,2.964v0.938h-5.8
			c0.025,0.388,0.108,0.711,0.25,0.972c0.141,0.261,0.327,0.468,0.56,0.622c0.227,0.153,0.491,0.264,0.794,0.331
			s0.633,0.101,0.99,0.101c0.308,0,0.61-0.033,0.907-0.101c0.298-0.067,0.57-0.155,0.817-0.265c0.216-0.094,0.417-0.195,0.601-0.305
			c0.185-0.109,0.334-0.206,0.45-0.291h0.279v2.152c-0.217,0.084-0.414,0.162-0.593,0.234c-0.18,0.072-0.425,0.146-0.737,0.22
			c-0.288,0.074-0.584,0.133-0.889,0.175C411.163,184.212,410.792,184.233,410.354,184.233z M411.23,178.754
			c-0.016-0.552-0.146-0.971-0.39-1.259s-0.619-0.432-1.123-0.432c-0.514,0-0.916,0.151-1.206,0.454s-0.449,0.715-0.479,1.236
			H411.23z"/>
		<path d="M419.102,184.174c-1.079,0-1.864-0.219-2.355-0.655s-0.737-1.151-0.737-2.145v-3.908h-1.013v-1.817h1.013v-2.39h2.646
			v2.39h2.549v1.817h-2.549v2.963c0,0.293,0.003,0.549,0.008,0.767c0.005,0.219,0.045,0.415,0.121,0.588
			c0.07,0.174,0.195,0.312,0.374,0.414c0.179,0.102,0.439,0.152,0.782,0.152c0.142,0,0.327-0.03,0.557-0.09
			c0.229-0.06,0.389-0.113,0.479-0.163h0.228v1.839c-0.288,0.074-0.593,0.133-0.915,0.175
			C419.966,184.152,419.57,184.174,419.102,184.174z"/>
	</g>
	
		<line fill="none" stroke="#800000" stroke-width="0.7559" stroke-linecap="square" stroke-miterlimit="10" x1="283.929" y1="193.715" x2="428.932" y2="193.715"/>
	<g>
		<path d="M301.039,222.715h-3.819v3.76h-1.255v-3.76h-3.819v-1.191h3.819v-3.76h1.255v3.76h3.819V222.715z"/>
		<path d="M306.611,227.16c-0.58,0-1.112-0.089-1.596-0.265s-0.9-0.443-1.248-0.801s-0.618-0.808-0.809-1.351
			c-0.191-0.544-0.287-1.183-0.287-1.917c0-0.73,0.099-1.36,0.298-1.892s0.465-0.978,0.798-1.34s0.748-0.642,1.244-0.838
			c0.496-0.196,1.03-0.294,1.599-0.294c0.464,0,0.911,0.064,1.342,0.193c0.432,0.129,0.815,0.278,1.153,0.447v1.57h-0.083
			c-0.101-0.084-0.23-0.181-0.39-0.29c-0.158-0.109-0.352-0.221-0.578-0.335c-0.197-0.1-0.429-0.187-0.696-0.261
			c-0.267-0.074-0.523-0.111-0.771-0.111c-0.736,0-1.327,0.274-1.773,0.822c-0.446,0.549-0.669,1.324-0.669,2.327
			c0,0.982,0.216,1.748,0.646,2.296c0.431,0.549,1.03,0.823,1.796,0.823c0.464,0,0.904-0.095,1.323-0.283
			c0.418-0.188,0.788-0.432,1.111-0.729h0.083v1.571c-0.142,0.064-0.317,0.143-0.529,0.234s-0.403,0.16-0.574,0.205
			c-0.242,0.069-0.459,0.122-0.65,0.159C307.16,227.142,306.914,227.16,306.611,227.16z"/>
		<path d="M317.256,222.819c0,1.399-0.343,2.48-1.028,3.242s-1.599,1.143-2.737,1.143c-1.175,0-2.099-0.393-2.771-1.18
			s-1.01-1.855-1.01-3.205c0-1.39,0.347-2.47,1.04-3.238c0.693-0.77,1.606-1.154,2.741-1.154c1.139,0,2.052,0.384,2.737,1.15
			S317.256,221.425,317.256,222.819z M315.789,222.819c0-1.077-0.199-1.877-0.598-2.401c-0.398-0.523-0.966-0.785-1.701-0.785
			c-0.741,0-1.313,0.262-1.713,0.785c-0.4,0.524-0.602,1.324-0.602,2.401c0,1.042,0.201,1.833,0.602,2.371
			c0.4,0.539,0.972,0.808,1.713,0.808c0.73,0,1.297-0.264,1.697-0.793C315.588,224.677,315.789,223.882,315.789,222.819z"/>
		<path d="M325.385,226.974h-1.421v-4.735c0-0.382-0.02-0.738-0.057-1.068c-0.038-0.33-0.11-0.594-0.216-0.793
			c-0.116-0.208-0.277-0.363-0.484-0.465c-0.206-0.102-0.488-0.152-0.847-0.152c-0.353,0-0.717,0.093-1.093,0.278
			c-0.375,0.187-0.742,0.429-1.1,0.727v6.209h-1.422v-8.316h1.422v0.924c0.423-0.373,0.842-0.658,1.255-0.856
			s0.85-0.298,1.309-0.298c0.831,0,1.481,0.27,1.95,0.808c0.469,0.539,0.703,1.319,0.703,2.342V226.974z"/>
		<path d="M329.479,227.175c-0.564,0-1.092-0.074-1.584-0.224c-0.491-0.148-0.898-0.308-1.221-0.477v-1.57h0.075
			c0.121,0.094,0.264,0.198,0.428,0.313c0.163,0.114,0.382,0.233,0.653,0.357c0.242,0.109,0.508,0.206,0.798,0.29
			c0.29,0.085,0.591,0.127,0.904,0.127c0.227,0,0.469-0.026,0.726-0.078c0.257-0.053,0.448-0.118,0.574-0.197
			c0.177-0.114,0.304-0.236,0.382-0.365s0.117-0.322,0.117-0.581c0-0.332-0.092-0.583-0.275-0.752
			c-0.185-0.168-0.511-0.31-0.979-0.424c-0.182-0.045-0.418-0.097-0.711-0.156c-0.292-0.06-0.562-0.124-0.809-0.194
			c-0.646-0.183-1.114-0.468-1.406-0.852c-0.293-0.385-0.439-0.851-0.439-1.396c0-0.749,0.288-1.359,0.862-1.831
			c0.575-0.472,1.339-0.708,2.291-0.708c0.469,0,0.94,0.058,1.414,0.172s0.872,0.258,1.195,0.432v1.496h-0.076
			c-0.363-0.282-0.768-0.506-1.214-0.67c-0.445-0.164-0.896-0.245-1.35-0.245c-0.469,0-0.864,0.097-1.187,0.29
			c-0.323,0.193-0.484,0.486-0.484,0.879c0,0.347,0.096,0.606,0.287,0.777c0.191,0.172,0.499,0.312,0.923,0.421
			c0.212,0.055,0.447,0.107,0.707,0.16c0.26,0.052,0.533,0.113,0.82,0.183c0.625,0.153,1.095,0.409,1.41,0.767
			s0.473,0.844,0.473,1.459c0,0.357-0.072,0.696-0.216,1.017s-0.354,0.594-0.631,0.822c-0.303,0.248-0.645,0.438-1.024,0.566
			C330.531,227.11,330.054,227.175,329.479,227.175z"/>
		<path d="M336.786,227.138c-0.776,0-1.381-0.218-1.814-0.651c-0.434-0.435-0.65-1.121-0.65-2.059v-4.608h-0.96v-1.162h0.96v-2.39
			h1.422v2.39h2.616v1.162h-2.616v3.953c0,0.422,0.007,0.747,0.022,0.975c0.015,0.229,0.073,0.442,0.174,0.641
			c0.086,0.174,0.225,0.305,0.416,0.391c0.191,0.087,0.451,0.131,0.778,0.131c0.232,0,0.456-0.034,0.673-0.101
			c0.217-0.067,0.373-0.123,0.469-0.168h0.084v1.259c-0.268,0.074-0.538,0.133-0.813,0.175
			C337.271,227.116,337.019,227.138,336.786,227.138z"/>
		<path d="M344.335,220.161h-0.076c-0.105-0.029-0.218-0.048-0.336-0.056s-0.261-0.011-0.428-0.011
			c-0.383,0-0.764,0.081-1.142,0.245s-0.736,0.407-1.073,0.729v5.904h-1.422v-8.316h1.422v1.236
			c0.519-0.452,0.972-0.771,1.357-0.957c0.385-0.186,0.76-0.279,1.122-0.279c0.146,0,0.256,0.004,0.329,0.012
			c0.073,0.007,0.155,0.019,0.246,0.033V220.161z"/>
		<path d="M352.063,226.974h-1.421v-0.923c-0.438,0.377-0.854,0.663-1.248,0.859s-0.832,0.294-1.315,0.294
			c-0.368,0-0.715-0.06-1.04-0.179s-0.608-0.308-0.851-0.565s-0.43-0.583-0.563-0.976c-0.134-0.392-0.2-0.868-0.2-1.43v-5.397h1.422
			v4.735c0,0.441,0.016,0.808,0.049,1.098c0.033,0.291,0.107,0.545,0.224,0.764c0.115,0.213,0.272,0.37,0.472,0.469
			c0.199,0.1,0.485,0.149,0.858,0.149c0.348,0,0.719-0.097,1.111-0.291c0.394-0.193,0.754-0.432,1.082-0.715v-6.209h1.421V226.974z"
			/>
		<path d="M355.484,217.266h-1.618v-1.452h1.618V217.266z M355.387,226.974h-1.422v-8.316h1.422V226.974z"/>
		<path d="M361.237,220.161h-0.076c-0.105-0.029-0.218-0.048-0.336-0.056s-0.261-0.011-0.428-0.011
			c-0.383,0-0.764,0.081-1.142,0.245s-0.736,0.407-1.073,0.729v5.904h-1.422v-8.316h1.422v1.236
			c0.519-0.452,0.972-0.771,1.357-0.957c0.385-0.186,0.76-0.279,1.122-0.279c0.146,0,0.256,0.004,0.329,0.012
			c0.073,0.007,0.155,0.019,0.246,0.033V220.161z"/>
		<path d="M366.055,227.167c-1.346,0-2.391-0.373-3.134-1.12c-0.744-0.747-1.115-1.808-1.115-3.183c0-1.355,0.36-2.434,1.081-3.235
			s1.664-1.202,2.828-1.202c0.524,0,0.988,0.074,1.392,0.224c0.403,0.148,0.756,0.382,1.059,0.699
			c0.302,0.318,0.534,0.706,0.695,1.165c0.161,0.46,0.242,1.021,0.242,1.687v0.76h-5.853c0,0.968,0.247,1.707,0.741,2.219
			c0.493,0.511,1.177,0.767,2.049,0.767c0.313,0,0.618-0.035,0.919-0.104c0.3-0.069,0.57-0.158,0.813-0.268
			c0.257-0.114,0.474-0.225,0.65-0.332c0.177-0.106,0.322-0.207,0.438-0.301h0.083v1.526c-0.166,0.064-0.373,0.145-0.62,0.241
			s-0.469,0.173-0.665,0.228c-0.277,0.074-0.528,0.131-0.753,0.171C366.682,227.147,366.397,227.167,366.055,227.167z
			 M367.719,221.889c-0.011-0.377-0.056-0.702-0.137-0.976c-0.08-0.272-0.196-0.504-0.348-0.692
			c-0.166-0.208-0.379-0.367-0.639-0.477c-0.26-0.108-0.581-0.163-0.964-0.163c-0.378,0-0.699,0.056-0.964,0.167
			s-0.506,0.274-0.723,0.487c-0.212,0.219-0.373,0.461-0.483,0.727c-0.111,0.266-0.182,0.574-0.212,0.927H367.719z"/>
		<path d="M378.055,219.23c0,0.481-0.088,0.938-0.262,1.366c-0.174,0.43-0.414,0.796-0.722,1.099
			c-0.389,0.377-0.845,0.662-1.369,0.855c-0.523,0.194-1.187,0.291-1.988,0.291h-1.271v4.132h-1.497v-11.086h2.828
			c0.665,0,1.232,0.055,1.701,0.164s0.882,0.285,1.24,0.528c0.418,0.283,0.746,0.642,0.983,1.076
			C377.936,218.091,378.055,218.615,378.055,219.23z M376.496,219.268c0-0.382-0.066-0.715-0.2-0.997
			c-0.134-0.283-0.336-0.514-0.608-0.692c-0.237-0.154-0.513-0.264-0.828-0.328s-0.707-0.097-1.176-0.097h-1.24v4.43h1.021
			c0.604,0,1.094-0.048,1.467-0.145s0.683-0.27,0.93-0.518c0.222-0.224,0.383-0.467,0.484-0.729
			C376.446,219.928,376.496,219.62,376.496,219.268z"/>
		<path d="M384.012,226.088c-0.116,0.084-0.271,0.202-0.466,0.354c-0.193,0.151-0.382,0.271-0.563,0.361
			c-0.253,0.129-0.496,0.228-0.73,0.298c-0.234,0.069-0.563,0.104-0.986,0.104c-0.348,0-0.678-0.064-0.99-0.193
			c-0.313-0.129-0.588-0.31-0.824-0.543c-0.228-0.229-0.408-0.511-0.545-0.846c-0.136-0.335-0.204-0.688-0.204-1.061
			c0-0.576,0.124-1.065,0.37-1.471c0.247-0.404,0.638-0.726,1.173-0.964c0.474-0.214,1.033-0.361,1.679-0.443
			c0.645-0.082,1.341-0.143,2.087-0.182v-0.269c0-0.327-0.051-0.592-0.151-0.793c-0.102-0.201-0.242-0.356-0.424-0.465
			c-0.182-0.114-0.403-0.19-0.665-0.228c-0.263-0.037-0.532-0.056-0.81-0.056c-0.327,0-0.713,0.048-1.156,0.146
			c-0.444,0.097-0.888,0.236-1.331,0.42h-0.083v-1.422c0.262-0.074,0.638-0.156,1.126-0.245c0.489-0.09,0.974-0.135,1.452-0.135
			c0.58,0,1.068,0.045,1.467,0.135c0.398,0.089,0.756,0.25,1.074,0.483c0.307,0.229,0.536,0.523,0.688,0.886
			s0.228,0.805,0.228,1.325v5.688h-1.414V226.088z M384.012,224.926v-2.308c-0.338,0.03-0.766,0.071-1.282,0.123
			s-0.934,0.125-1.251,0.22c-0.378,0.114-0.691,0.289-0.938,0.524c-0.247,0.236-0.371,0.564-0.371,0.986
			c0,0.477,0.137,0.837,0.408,1.08c0.272,0.243,0.671,0.364,1.195,0.364c0.448,0,0.854-0.095,1.217-0.286
			C383.354,225.438,383.693,225.204,384.012,224.926z"/>
		<path d="M392.208,220.161h-0.076c-0.105-0.029-0.218-0.048-0.336-0.056s-0.261-0.011-0.428-0.011
			c-0.383,0-0.764,0.081-1.142,0.245s-0.736,0.407-1.073,0.729v5.904h-1.422v-8.316h1.422v1.236
			c0.519-0.452,0.972-0.771,1.357-0.957c0.385-0.186,0.76-0.279,1.122-0.279c0.146,0,0.256,0.004,0.329,0.012
			c0.073,0.007,0.155,0.019,0.246,0.033V220.161z"/>
		<path d="M395.913,227.138c-0.776,0-1.381-0.218-1.814-0.651c-0.434-0.435-0.65-1.121-0.65-2.059v-4.608h-0.96v-1.162h0.96v-2.39
			h1.422v2.39h2.616v1.162h-2.616v3.953c0,0.422,0.007,0.747,0.022,0.975c0.015,0.229,0.073,0.442,0.174,0.641
			c0.086,0.174,0.225,0.305,0.416,0.391c0.191,0.087,0.451,0.131,0.778,0.131c0.232,0,0.456-0.034,0.673-0.101
			c0.217-0.067,0.373-0.123,0.469-0.168h0.084v1.259c-0.268,0.074-0.538,0.133-0.813,0.175
			C396.398,227.116,396.146,227.138,395.913,227.138z"/>
		<path d="M400.536,217.266h-1.618v-1.452h1.618V217.266z M400.438,226.974h-1.422v-8.316h1.422V226.974z"/>
		<path d="M405.479,227.167c-1.346,0-2.391-0.373-3.134-1.12c-0.744-0.747-1.115-1.808-1.115-3.183c0-1.355,0.36-2.434,1.081-3.235
			s1.664-1.202,2.828-1.202c0.524,0,0.988,0.074,1.392,0.224c0.403,0.148,0.756,0.382,1.059,0.699
			c0.302,0.318,0.534,0.706,0.695,1.165c0.161,0.46,0.242,1.021,0.242,1.687v0.76h-5.853c0,0.968,0.247,1.707,0.741,2.219
			c0.493,0.511,1.177,0.767,2.049,0.767c0.313,0,0.618-0.035,0.919-0.104c0.3-0.069,0.57-0.158,0.813-0.268
			c0.257-0.114,0.474-0.225,0.65-0.332c0.177-0.106,0.322-0.207,0.438-0.301h0.083v1.526c-0.166,0.064-0.373,0.145-0.62,0.241
			s-0.469,0.173-0.665,0.228c-0.277,0.074-0.528,0.131-0.753,0.171C406.106,227.147,405.822,227.167,405.479,227.167z
			 M407.144,221.889c-0.011-0.377-0.056-0.702-0.137-0.976c-0.08-0.272-0.196-0.504-0.348-0.692
			c-0.166-0.208-0.379-0.367-0.639-0.477c-0.26-0.108-0.581-0.163-0.964-0.163c-0.378,0-0.699,0.056-0.964,0.167
			s-0.506,0.274-0.723,0.487c-0.212,0.219-0.373,0.461-0.483,0.727c-0.111,0.266-0.182,0.574-0.212,0.927H407.144z"/>
		<path d="M414.599,230.041h-1.731c-0.877-1.027-1.566-2.114-2.067-3.261c-0.502-1.146-0.753-2.502-0.753-4.065
			c0-1.528,0.248-2.875,0.745-4.039c0.496-1.164,1.188-2.26,2.075-3.287h1.731v0.075c-0.408,0.362-0.797,0.78-1.168,1.254
			c-0.37,0.475-0.715,1.026-1.032,1.657c-0.302,0.61-0.548,1.282-0.737,2.018c-0.188,0.734-0.283,1.509-0.283,2.322
			c0,0.849,0.092,1.626,0.276,2.33c0.184,0.705,0.432,1.375,0.744,2.011c0.303,0.61,0.648,1.162,1.036,1.656
			s0.776,0.912,1.164,1.255V230.041z"/>
		<path d="M419.976,222.715c0,1.534-0.249,2.882-0.748,4.043s-1.19,2.256-2.072,3.283h-1.731v-0.074
			c0.388-0.343,0.778-0.764,1.172-1.262c0.394-0.499,0.736-1.049,1.028-1.649c0.313-0.641,0.561-1.316,0.745-2.029
			c0.184-0.712,0.275-1.482,0.275-2.312c0-0.818-0.093-1.593-0.279-2.322c-0.187-0.73-0.434-1.402-0.741-2.018
			c-0.308-0.616-0.655-1.169-1.043-1.661c-0.389-0.491-0.774-0.908-1.157-1.25v-0.075h1.731c0.877,1.027,1.566,2.12,2.068,3.276
			C419.725,219.821,419.976,221.172,419.976,222.715z"/>
	</g>
	<g>
		<path d="M301.039,240.752h-3.819v3.76h-1.255v-3.76h-3.819v-1.191h3.819v-3.76h1.255v3.76h3.819V240.752z"/>
		<path d="M303.557,246.344c0.095,0.039,0.237,0.093,0.423,0.16c0.187,0.066,0.398,0.13,0.635,0.189
			c0.262,0.064,0.504,0.116,0.726,0.156s0.464,0.06,0.726,0.06c0.438,0,0.811-0.057,1.115-0.171
			c0.306-0.114,0.544-0.273,0.715-0.477c0.161-0.204,0.274-0.439,0.341-0.707c0.065-0.269,0.098-0.573,0.098-0.916v-0.729
			c-0.383,0.327-0.759,0.569-1.126,0.726c-0.368,0.156-0.83,0.234-1.384,0.234c-0.963,0-1.729-0.353-2.298-1.057
			c-0.57-0.705-0.854-1.718-0.854-3.038c0-0.689,0.098-1.302,0.295-1.835c0.196-0.533,0.461-0.986,0.794-1.359
			c0.317-0.356,0.693-0.633,1.126-0.826s0.882-0.29,1.346-0.29c0.438,0,0.817,0.051,1.138,0.152s0.642,0.247,0.964,0.436
			l0.083-0.357h1.339v7.371c0,1.409-0.313,2.444-0.938,3.104s-1.58,0.99-2.866,0.99c-0.414,0-0.836-0.032-1.267-0.097
			c-0.431-0.064-0.833-0.151-1.206-0.261v-1.459H303.557z M308.335,242.755v-4.563c-0.353-0.169-0.679-0.289-0.979-0.361
			c-0.301-0.072-0.599-0.108-0.896-0.108c-0.721,0-1.288,0.261-1.701,0.782c-0.414,0.521-0.62,1.268-0.62,2.241
			c0,0.923,0.157,1.625,0.473,2.106c0.315,0.481,0.825,0.723,1.531,0.723c0.368,0,0.747-0.072,1.138-0.216
			C307.671,243.214,308.022,243.013,308.335,242.755z"/>
		<path d="M315.372,245.204c-1.346,0-2.391-0.373-3.134-1.12c-0.744-0.747-1.115-1.808-1.115-3.183c0-1.355,0.36-2.434,1.081-3.235
			s1.664-1.202,2.828-1.202c0.524,0,0.988,0.074,1.392,0.224c0.403,0.148,0.756,0.382,1.059,0.699
			c0.302,0.318,0.534,0.706,0.695,1.165c0.161,0.46,0.242,1.021,0.242,1.687v0.76h-5.853c0,0.968,0.247,1.707,0.741,2.219
			c0.493,0.511,1.177,0.767,2.049,0.767c0.313,0,0.618-0.035,0.919-0.104c0.3-0.069,0.57-0.158,0.813-0.268
			c0.257-0.114,0.474-0.225,0.65-0.332c0.177-0.106,0.322-0.207,0.438-0.301h0.083v1.526c-0.166,0.064-0.373,0.145-0.62,0.241
			s-0.469,0.173-0.665,0.228c-0.277,0.074-0.528,0.131-0.753,0.171C315.999,245.185,315.715,245.204,315.372,245.204z
			 M317.036,239.926c-0.011-0.377-0.056-0.702-0.137-0.976c-0.08-0.272-0.196-0.504-0.348-0.692
			c-0.166-0.208-0.379-0.367-0.639-0.477c-0.26-0.108-0.581-0.163-0.964-0.163c-0.378,0-0.699,0.056-0.964,0.167
			s-0.506,0.274-0.723,0.487c-0.212,0.219-0.373,0.461-0.483,0.727c-0.111,0.266-0.182,0.574-0.212,0.927H317.036z"/>
		<path d="M322.706,245.175c-0.776,0-1.381-0.218-1.814-0.651c-0.434-0.435-0.65-1.121-0.65-2.059v-4.608h-0.96v-1.162h0.96v-2.39
			h1.422v2.39h2.616v1.162h-2.616v3.953c0,0.422,0.007,0.747,0.022,0.975c0.015,0.229,0.073,0.442,0.174,0.641
			c0.086,0.174,0.225,0.305,0.416,0.391c0.191,0.087,0.451,0.131,0.778,0.131c0.232,0,0.456-0.034,0.673-0.101
			c0.217-0.067,0.373-0.123,0.469-0.168h0.084v1.259c-0.268,0.074-0.538,0.133-0.813,0.175
			C323.191,245.153,322.938,245.175,322.706,245.175z"/>
		<path d="M334.611,245.011h-1.943l-3.569-4.407h-1.709v4.407h-1.497v-11.086h2.903c0.646,0,1.187,0.035,1.622,0.104
			c0.437,0.069,0.851,0.23,1.244,0.483c0.394,0.249,0.704,0.568,0.934,0.961c0.229,0.392,0.345,0.879,0.345,1.459
			c0,0.814-0.21,1.494-0.628,2.04c-0.419,0.546-0.988,0.95-1.709,1.214L334.611,245.011z M331.375,237.045
			c0-0.323-0.059-0.609-0.174-0.86c-0.116-0.251-0.295-0.455-0.537-0.614c-0.212-0.139-0.459-0.237-0.741-0.294
			s-0.633-0.086-1.051-0.086h-1.482v4.185h1.316c0.428,0,0.813-0.037,1.156-0.112c0.343-0.074,0.636-0.228,0.877-0.461
			c0.217-0.209,0.377-0.457,0.48-0.745C331.323,237.77,331.375,237.432,331.375,237.045z"/>
		<path d="M339.289,245.204c-1.346,0-2.391-0.373-3.134-1.12c-0.744-0.747-1.115-1.808-1.115-3.183c0-1.355,0.36-2.434,1.081-3.235
			s1.664-1.202,2.828-1.202c0.524,0,0.988,0.074,1.392,0.224c0.403,0.148,0.756,0.382,1.059,0.699
			c0.302,0.318,0.534,0.706,0.695,1.165c0.161,0.46,0.242,1.021,0.242,1.687v0.76h-5.853c0,0.968,0.247,1.707,0.741,2.219
			c0.493,0.511,1.177,0.767,2.049,0.767c0.313,0,0.618-0.035,0.919-0.104c0.3-0.069,0.57-0.158,0.813-0.268
			c0.257-0.114,0.474-0.225,0.65-0.332c0.177-0.106,0.322-0.207,0.438-0.301h0.083v1.526c-0.166,0.064-0.373,0.145-0.62,0.241
			s-0.469,0.173-0.665,0.228c-0.277,0.074-0.528,0.131-0.753,0.171C339.916,245.185,339.632,245.204,339.289,245.204z
			 M340.953,239.926c-0.011-0.377-0.056-0.702-0.137-0.976c-0.08-0.272-0.196-0.504-0.348-0.692
			c-0.166-0.208-0.379-0.367-0.639-0.477c-0.26-0.108-0.581-0.163-0.964-0.163c-0.378,0-0.699,0.056-0.964,0.167
			s-0.506,0.274-0.723,0.487c-0.212,0.219-0.373,0.461-0.483,0.727c-0.111,0.266-0.182,0.574-0.212,0.927H340.953z"/>
		<path d="M346.351,245.212c-0.564,0-1.092-0.074-1.584-0.224c-0.491-0.148-0.898-0.308-1.221-0.477v-1.57h0.075
			c0.121,0.094,0.264,0.198,0.428,0.313c0.163,0.114,0.382,0.233,0.653,0.357c0.242,0.109,0.508,0.206,0.798,0.29
			c0.29,0.085,0.591,0.127,0.904,0.127c0.227,0,0.469-0.026,0.726-0.078c0.257-0.053,0.448-0.118,0.574-0.197
			c0.177-0.114,0.304-0.236,0.382-0.365s0.117-0.322,0.117-0.581c0-0.332-0.092-0.583-0.275-0.752
			c-0.185-0.168-0.511-0.31-0.979-0.424c-0.182-0.045-0.418-0.097-0.711-0.156c-0.292-0.06-0.562-0.124-0.809-0.194
			c-0.646-0.183-1.114-0.468-1.406-0.852c-0.293-0.385-0.439-0.851-0.439-1.396c0-0.749,0.288-1.359,0.862-1.831
			c0.575-0.472,1.339-0.708,2.291-0.708c0.469,0,0.94,0.058,1.414,0.172s0.872,0.258,1.195,0.432v1.496h-0.076
			c-0.363-0.282-0.768-0.506-1.214-0.67c-0.445-0.164-0.896-0.245-1.35-0.245c-0.469,0-0.864,0.097-1.187,0.29
			c-0.323,0.193-0.484,0.486-0.484,0.879c0,0.347,0.096,0.606,0.287,0.777c0.191,0.172,0.499,0.312,0.923,0.421
			c0.212,0.055,0.447,0.107,0.707,0.16c0.26,0.052,0.533,0.113,0.82,0.183c0.625,0.153,1.095,0.409,1.41,0.767
			s0.473,0.844,0.473,1.459c0,0.357-0.072,0.696-0.216,1.017s-0.354,0.594-0.631,0.822c-0.303,0.248-0.645,0.438-1.024,0.566
			C347.403,245.147,346.926,245.212,346.351,245.212z"/>
		<path d="M357.681,245.011h-1.421v-0.923c-0.438,0.377-0.854,0.663-1.248,0.859s-0.832,0.294-1.315,0.294
			c-0.368,0-0.715-0.06-1.04-0.179s-0.608-0.308-0.851-0.565s-0.43-0.583-0.563-0.976c-0.134-0.392-0.2-0.868-0.2-1.43v-5.397h1.422
			v4.735c0,0.441,0.016,0.808,0.049,1.098c0.033,0.291,0.107,0.545,0.224,0.764c0.115,0.213,0.272,0.37,0.472,0.469
			c0.199,0.1,0.485,0.149,0.858,0.149c0.348,0,0.719-0.097,1.111-0.291c0.394-0.193,0.754-0.432,1.082-0.715v-6.209h1.421V245.011z"
			/>
		<path d="M361.004,245.011h-1.422v-11.585h1.422V245.011z"/>
		<path d="M364.934,245.175c-0.776,0-1.381-0.218-1.814-0.651c-0.434-0.435-0.65-1.121-0.65-2.059v-4.608h-0.96v-1.162h0.96v-2.39
			h1.422v2.39h2.616v1.162h-2.616v3.953c0,0.422,0.007,0.747,0.022,0.975c0.015,0.229,0.073,0.442,0.174,0.641
			c0.086,0.174,0.225,0.305,0.416,0.391c0.191,0.087,0.451,0.131,0.778,0.131c0.232,0,0.456-0.034,0.673-0.101
			c0.217-0.067,0.373-0.123,0.469-0.168h0.084v1.259c-0.268,0.074-0.538,0.133-0.813,0.175
			C365.419,245.153,365.166,245.175,364.934,245.175z"/>
		<path d="M372.726,244.125c-0.116,0.084-0.271,0.202-0.466,0.354c-0.193,0.151-0.382,0.271-0.563,0.361
			c-0.253,0.129-0.496,0.228-0.73,0.298c-0.234,0.069-0.563,0.104-0.986,0.104c-0.348,0-0.678-0.064-0.99-0.193
			c-0.313-0.129-0.588-0.31-0.824-0.543c-0.228-0.229-0.408-0.511-0.545-0.846c-0.136-0.335-0.204-0.688-0.204-1.061
			c0-0.576,0.124-1.065,0.37-1.471c0.247-0.404,0.638-0.726,1.173-0.964c0.474-0.214,1.033-0.361,1.679-0.443
			c0.645-0.082,1.341-0.143,2.087-0.182v-0.269c0-0.327-0.051-0.592-0.151-0.793c-0.102-0.201-0.242-0.356-0.424-0.465
			c-0.182-0.114-0.403-0.19-0.665-0.228c-0.263-0.037-0.532-0.056-0.81-0.056c-0.327,0-0.713,0.048-1.156,0.146
			c-0.444,0.097-0.888,0.236-1.331,0.42h-0.083v-1.422c0.262-0.074,0.638-0.156,1.126-0.245c0.489-0.09,0.974-0.135,1.452-0.135
			c0.58,0,1.068,0.045,1.467,0.135c0.398,0.089,0.756,0.25,1.074,0.483c0.307,0.229,0.536,0.523,0.688,0.886
			s0.228,0.805,0.228,1.325v5.688h-1.414V244.125z M372.726,242.963v-2.308c-0.338,0.03-0.766,0.071-1.282,0.123
			s-0.934,0.125-1.251,0.22c-0.378,0.114-0.691,0.289-0.938,0.524c-0.247,0.236-0.371,0.564-0.371,0.986
			c0,0.477,0.137,0.837,0.408,1.08c0.272,0.243,0.671,0.364,1.195,0.364c0.448,0,0.854-0.095,1.217-0.286
			C372.067,243.476,372.407,243.241,372.726,242.963z"/>
		<path d="M379.001,245.175c-0.776,0-1.381-0.218-1.814-0.651c-0.434-0.435-0.65-1.121-0.65-2.059v-4.608h-0.96v-1.162h0.96v-2.39
			h1.422v2.39h2.616v1.162h-2.616v3.953c0,0.422,0.007,0.747,0.022,0.975c0.015,0.229,0.073,0.442,0.174,0.641
			c0.086,0.174,0.225,0.305,0.416,0.391c0.191,0.087,0.451,0.131,0.778,0.131c0.232,0,0.456-0.034,0.673-0.101
			c0.217-0.067,0.373-0.123,0.469-0.168h0.084v1.259c-0.268,0.074-0.538,0.133-0.813,0.175
			C379.486,245.153,379.233,245.175,379.001,245.175z"/>
		<path d="M386.413,248.078h-1.731c-0.877-1.027-1.566-2.114-2.067-3.261c-0.502-1.146-0.753-2.502-0.753-4.065
			c0-1.528,0.248-2.875,0.745-4.039c0.496-1.164,1.188-2.26,2.075-3.287h1.731v0.075c-0.408,0.362-0.797,0.78-1.168,1.254
			c-0.37,0.475-0.715,1.026-1.032,1.657c-0.302,0.61-0.548,1.282-0.737,2.018c-0.188,0.734-0.283,1.509-0.283,2.322
			c0,0.849,0.092,1.626,0.276,2.33c0.184,0.705,0.432,1.375,0.744,2.011c0.303,0.61,0.648,1.162,1.036,1.656
			s0.776,0.912,1.164,1.255V248.078z"/>
		<path d="M391.791,240.752c0,1.534-0.249,2.882-0.748,4.043s-1.19,2.256-2.072,3.283h-1.731v-0.074
			c0.388-0.343,0.778-0.764,1.172-1.262c0.394-0.499,0.736-1.049,1.028-1.649c0.313-0.641,0.561-1.316,0.745-2.029
			c0.184-0.712,0.275-1.482,0.275-2.312c0-0.818-0.093-1.593-0.279-2.322c-0.187-0.73-0.434-1.402-0.741-2.018
			c-0.308-0.616-0.655-1.169-1.043-1.661c-0.389-0.491-0.774-0.908-1.157-1.25v-0.075h1.731c0.877,1.027,1.566,2.12,2.068,3.276
			C391.54,237.858,391.791,239.209,391.791,240.752z"/>
	</g>
	
		<line fill="none" stroke="#800000" stroke-width="0.7559" stroke-linecap="square" stroke-miterlimit="10" x1="283.929" y1="206.19" x2="428.932" y2="206.19"/>
	
		<rect x="492.284" y="163.22" fill-rule="evenodd" clip-rule="evenodd" fill="#FFFFB9" stroke="#800000" stroke-width="0.7559" stroke-linecap="square" stroke-miterlimit="10" width="109.809" height="56.832"/>
	<g>
		<path d="M528.848,176.423c0,0.517-0.083,1.008-0.25,1.475c-0.166,0.467-0.405,0.856-0.718,1.169
			c-0.192,0.193-0.402,0.372-0.632,0.536c-0.229,0.163-0.482,0.303-0.76,0.417s-0.578,0.203-0.903,0.268s-0.689,0.097-1.093,0.097
			h-1.482v3.626h-2.828v-11.086h4.371c0.65,0,1.211,0.059,1.683,0.175c0.471,0.117,0.898,0.302,1.281,0.555
			c0.424,0.278,0.751,0.649,0.983,1.113C528.731,175.23,528.848,175.783,528.848,176.423z M525.944,176.49
			c0-0.313-0.076-0.582-0.228-0.808s-0.332-0.381-0.544-0.466c-0.268-0.114-0.523-0.18-0.768-0.197
			c-0.245-0.017-0.576-0.025-0.994-0.025h-0.401v3.32h0.197c0.267,0,0.519-0.003,0.756-0.008c0.236-0.005,0.443-0.022,0.62-0.052
			c0.151-0.025,0.311-0.073,0.479-0.146c0.169-0.071,0.299-0.152,0.39-0.242c0.191-0.184,0.321-0.374,0.39-0.573
			C525.91,177.096,525.944,176.828,525.944,176.49z"/>
		<path d="M535.601,178.113h-0.22c-0.101-0.035-0.247-0.061-0.438-0.078s-0.403-0.026-0.635-0.026c-0.277,0-0.568,0.04-0.874,0.119
			c-0.305,0.08-0.601,0.174-0.888,0.283v5.599h-2.646v-8.361h2.646v1.199c0.12-0.109,0.288-0.247,0.502-0.413
			c0.215-0.166,0.41-0.299,0.587-0.398c0.191-0.114,0.414-0.212,0.669-0.294c0.254-0.082,0.495-0.123,0.722-0.123
			c0.086,0,0.182,0.003,0.287,0.008c0.106,0.005,0.202,0.012,0.288,0.021V178.113z"/>
		<path d="M545.074,179.833c0,1.375-0.382,2.458-1.146,3.25s-1.844,1.188-3.239,1.188c-1.387,0-2.464-0.396-3.233-1.188
			c-0.769-0.792-1.152-1.875-1.152-3.25c0-1.39,0.384-2.478,1.152-3.265c0.77-0.786,1.847-1.18,3.233-1.18
			c1.391,0,2.47,0.396,3.235,1.188C544.691,177.367,545.074,178.453,545.074,179.833z M542.36,179.848
			c0-0.496-0.042-0.909-0.125-1.239s-0.198-0.595-0.344-0.793c-0.156-0.208-0.333-0.354-0.529-0.436
			c-0.197-0.082-0.421-0.123-0.673-0.123c-0.237,0-0.452,0.036-0.644,0.108s-0.367,0.21-0.529,0.413
			c-0.15,0.193-0.271,0.459-0.362,0.797c-0.091,0.337-0.137,0.762-0.137,1.272c0,0.512,0.043,0.925,0.129,1.24
			c0.086,0.314,0.196,0.566,0.333,0.755c0.141,0.194,0.317,0.336,0.529,0.425c0.211,0.09,0.445,0.134,0.703,0.134
			c0.212,0,0.427-0.044,0.646-0.134c0.219-0.089,0.395-0.224,0.525-0.402c0.156-0.213,0.274-0.47,0.355-0.771
			C542.319,180.795,542.36,180.379,542.36,179.848z"/>
		<path d="M554.495,184.01h-2.646v-0.871c-0.172,0.139-0.366,0.288-0.586,0.446c-0.22,0.159-0.412,0.278-0.578,0.357
			c-0.212,0.1-0.421,0.174-0.628,0.224s-0.454,0.074-0.741,0.074c-0.968,0-1.734-0.395-2.299-1.184s-0.847-1.844-0.847-3.164
			c0-0.729,0.096-1.362,0.287-1.898s0.456-1.003,0.794-1.399c0.308-0.362,0.681-0.649,1.119-0.86s0.902-0.316,1.392-0.316
			c0.443,0,0.808,0.046,1.093,0.138c0.284,0.092,0.616,0.234,0.994,0.429v-3.56h2.646V184.01z M551.849,181.702V177.6
			c-0.131-0.064-0.303-0.118-0.514-0.16c-0.212-0.042-0.394-0.063-0.545-0.063c-0.635,0-1.113,0.219-1.433,0.655
			c-0.32,0.437-0.48,1.048-0.48,1.832c0,0.823,0.127,1.419,0.382,1.786s0.667,0.551,1.236,0.551c0.231,0,0.466-0.044,0.703-0.134
			C551.436,181.978,551.652,181.855,551.849,181.702z"/>
		<path d="M564.501,184.01h-2.646v-0.923c-0.458,0.377-0.879,0.663-1.263,0.859c-0.383,0.196-0.839,0.294-1.368,0.294
			c-0.842,0-1.499-0.262-1.97-0.785c-0.472-0.523-0.707-1.312-0.707-2.364v-5.442h2.661v4.147c0,0.432,0.012,0.784,0.034,1.058
			c0.022,0.272,0.077,0.503,0.163,0.692c0.08,0.173,0.205,0.305,0.374,0.395c0.169,0.089,0.404,0.134,0.707,0.134
			c0.187,0,0.407-0.045,0.661-0.134c0.255-0.09,0.49-0.211,0.707-0.365v-5.927h2.646V184.01z"/>
		<path d="M569.203,174.458h-2.798v-2.033h2.798V174.458z M569.128,184.01h-2.646v-8.361h2.646V184.01z"/>
		<path d="M573.956,184.174c-1.079,0-1.864-0.219-2.355-0.655s-0.737-1.151-0.737-2.145v-3.908h-1.013v-1.817h1.013v-2.39h2.646
			v2.39h2.549v1.817h-2.549v2.963c0,0.293,0.003,0.549,0.008,0.767c0.005,0.219,0.045,0.415,0.121,0.588
			c0.07,0.174,0.195,0.312,0.374,0.414c0.179,0.102,0.439,0.152,0.782,0.152c0.142,0,0.327-0.03,0.557-0.09
			c0.229-0.06,0.389-0.113,0.479-0.163h0.228v1.839c-0.288,0.074-0.593,0.133-0.915,0.175
			C574.82,184.152,574.425,184.174,573.956,184.174z"/>
	</g>
	
		<line fill="none" stroke="#800000" stroke-width="0.7559" stroke-linecap="square" stroke-miterlimit="10" x1="492.284" y1="193.715" x2="603.5" y2="193.715"/>
	
		<line fill="none" stroke="#800000" stroke-width="0.7559" stroke-linecap="square" stroke-miterlimit="10" x1="492.284" y1="206.19" x2="603.5" y2="206.19"/>
	
		<line fill="none" stroke="#800000" stroke-width="0.7559" stroke-linecap="square" stroke-miterlimit="10" x1="119.216" y1="52.329" x2="283.929" y2="52.329"/>
	<polyline fill="none" stroke="#800000" stroke-width="0.7559" stroke-linecap="square" stroke-miterlimit="10" points="
		269.851,57.873 283.929,52.329 269.851,46.783 	"/>
	<g>
		<path d="M225.024,34.21h-3.819v3.76h-1.255v-3.76h-3.819V33.02h3.819v-3.76h1.255v3.76h3.819V34.21z"/>
		<path d="M236.827,38.469v-4.81c0-0.382-0.015-0.736-0.045-1.061c-0.03-0.325-0.093-0.579-0.189-0.763
			c-0.101-0.198-0.245-0.345-0.431-0.439s-0.438-0.142-0.756-0.142c-0.292,0-0.606,0.088-0.941,0.264
			c-0.335,0.176-0.682,0.431-1.04,0.763c0.005,0.084,0.012,0.185,0.019,0.302c0.008,0.117,0.011,0.254,0.011,0.413v5.472h-1.421
			v-4.81c0-0.382-0.015-0.736-0.045-1.061c-0.03-0.325-0.093-0.579-0.189-0.763c-0.101-0.198-0.245-0.345-0.431-0.439
			s-0.438-0.142-0.756-0.142c-0.308,0-0.63,0.094-0.968,0.283c-0.338,0.188-0.666,0.429-0.983,0.722v6.209h-1.421v-8.316h1.421
			v0.923c0.373-0.367,0.742-0.651,1.108-0.853c0.365-0.201,0.768-0.301,1.206-0.301c0.499,0,0.941,0.112,1.327,0.335
			s0.679,0.591,0.881,1.102c0.428-0.472,0.847-0.829,1.255-1.072c0.408-0.243,0.852-0.365,1.331-0.365
			c0.363,0,0.693,0.056,0.991,0.167c0.297,0.112,0.557,0.292,0.779,0.54c0.227,0.253,0.402,0.568,0.525,0.946
			c0.124,0.377,0.185,0.851,0.185,1.422v5.472H236.827z"/>
		<path d="M245.459,34.315c0,1.399-0.343,2.48-1.029,3.242c-0.686,0.762-1.598,1.143-2.737,1.143c-1.175,0-2.099-0.394-2.771-1.18
			s-1.009-1.855-1.009-3.205c0-1.39,0.346-2.469,1.04-3.239c0.693-0.769,1.607-1.154,2.741-1.154c1.139,0,2.051,0.383,2.737,1.15
			C245.116,31.839,245.459,32.92,245.459,34.315z M243.992,34.315c0-1.077-0.199-1.877-0.597-2.401
			c-0.398-0.524-0.965-0.786-1.701-0.786c-0.741,0-1.312,0.262-1.713,0.786c-0.401,0.523-0.601,1.324-0.601,2.401
			c0,1.042,0.2,1.833,0.601,2.371s0.972,0.808,1.713,0.808c0.73,0,1.296-0.265,1.697-0.793
			C243.792,36.172,243.992,35.377,243.992,34.315z"/>
		<path d="M253.589,38.469h-1.422v-4.735c0-0.382-0.019-0.738-0.057-1.068c-0.038-0.33-0.109-0.595-0.215-0.793
			c-0.116-0.208-0.277-0.364-0.484-0.465c-0.207-0.102-0.489-0.153-0.847-0.153c-0.353,0-0.717,0.093-1.092,0.279
			c-0.376,0.186-0.743,0.428-1.101,0.726v6.209h-1.421v-8.316h1.421v0.923c0.424-0.372,0.842-0.658,1.255-0.856
			c0.413-0.199,0.85-0.298,1.308-0.298c0.832,0,1.482,0.269,1.951,0.808c0.469,0.539,0.704,1.319,0.704,2.342V38.469z"/>
		<path d="M257.955,38.633c-0.776,0-1.381-0.217-1.814-0.651c-0.434-0.434-0.65-1.12-0.65-2.059v-4.608h-0.96v-1.162h0.96v-2.39
			h1.421v2.39h2.616v1.162h-2.616v3.954c0,0.422,0.008,0.747,0.023,0.975c0.015,0.229,0.073,0.442,0.174,0.64
			c0.085,0.174,0.224,0.304,0.416,0.391c0.191,0.087,0.451,0.13,0.779,0.13c0.231,0,0.456-0.034,0.673-0.101
			s0.373-0.123,0.469-0.167h0.083v1.258c-0.267,0.074-0.538,0.132-0.813,0.175C258.44,38.612,258.187,38.633,257.955,38.633z"/>
		<path d="M264.695,38.663c-1.346,0-2.391-0.373-3.134-1.12s-1.115-1.808-1.115-3.183c0-1.355,0.36-2.433,1.081-3.235
			c0.721-0.801,1.664-1.202,2.828-1.202c0.524,0,0.988,0.074,1.391,0.223s0.756,0.382,1.059,0.7
			c0.303,0.318,0.534,0.707,0.696,1.166c0.161,0.459,0.242,1.021,0.242,1.686v0.76h-5.853c0,0.968,0.247,1.707,0.741,2.218
			s1.177,0.767,2.049,0.767c0.313,0,0.619-0.035,0.918-0.104c0.3-0.069,0.571-0.159,0.813-0.268c0.257-0.114,0.474-0.224,0.65-0.331
			c0.176-0.107,0.322-0.207,0.438-0.302h0.083v1.526c-0.166,0.064-0.373,0.145-0.62,0.242c-0.247,0.097-0.469,0.172-0.665,0.227
			c-0.277,0.074-0.528,0.131-0.752,0.171C265.321,38.643,265.038,38.663,264.695,38.663z M266.359,33.384
			c-0.01-0.377-0.056-0.702-0.136-0.976c-0.081-0.272-0.197-0.503-0.348-0.692c-0.166-0.208-0.379-0.367-0.639-0.476
			c-0.26-0.109-0.581-0.164-0.964-0.164c-0.378,0-0.699,0.056-0.964,0.167c-0.265,0.112-0.505,0.274-0.722,0.488
			c-0.211,0.218-0.373,0.46-0.484,0.726c-0.111,0.265-0.182,0.574-0.212,0.927H266.359z"/>
		<path d="M276.052,38.469h-1.422v-0.923c-0.438,0.377-0.854,0.664-1.248,0.86c-0.393,0.196-0.832,0.294-1.315,0.294
			c-0.368,0-0.715-0.06-1.04-0.179c-0.325-0.119-0.608-0.308-0.851-0.566c-0.242-0.258-0.43-0.583-0.563-0.976
			c-0.134-0.392-0.201-0.868-0.201-1.429v-5.398h1.422v4.735c0,0.442,0.016,0.808,0.049,1.098s0.107,0.545,0.223,0.763
			c0.116,0.213,0.273,0.37,0.473,0.469c0.199,0.1,0.485,0.149,0.858,0.149c0.348,0,0.718-0.097,1.111-0.29
			c0.393-0.194,0.753-0.432,1.081-0.715v-6.209h1.422V38.469z"/>
		<path d="M282.399,31.657h-0.076c-0.106-0.03-0.218-0.048-0.336-0.056c-0.119-0.007-0.261-0.011-0.427-0.011
			c-0.383,0-0.764,0.082-1.142,0.246c-0.378,0.164-0.736,0.407-1.074,0.73v5.904h-1.421v-8.316h1.421v1.236
			c0.52-0.452,0.972-0.771,1.357-0.957s0.76-0.279,1.123-0.279c0.146,0,0.256,0.004,0.329,0.011
			c0.073,0.008,0.155,0.019,0.246,0.034V31.657z"/>
	</g>
	
		<line fill="none" stroke="#800000" stroke-width="0.7559" stroke-linecap="square" stroke-miterlimit="10" x1="357.135" y1="163.22" x2="357.135" y2="89.754"/>
	
		<polygon fill-rule="evenodd" clip-rule="evenodd" fill="#FFFFFF" stroke="#800000" stroke-width="0.7559" stroke-linecap="square" stroke-miterlimit="10" points="
		368.396,117.477 357.135,89.754 345.872,117.477 	"/>
	
		<line fill="none" stroke="#800000" stroke-width="0.7559" stroke-linecap="square" stroke-miterlimit="10" stroke-dasharray="0.7677,1.5354" x1="428.932" y1="179.854" x2="492.284" y2="179.854"/>
	<polyline fill="none" stroke="#800000" stroke-width="0.7559" stroke-linecap="square" stroke-miterlimit="10" points="
		478.205,185.398 492.284,179.854 478.205,174.31 	"/>
	
		<polygon fill-rule="evenodd" clip-rule="evenodd" fill="#FFFFB9" stroke="#800000" stroke-width="0.7559" stroke-linecap="square" stroke-miterlimit="10" points="
		8,129.952 205.092,129.952 219.17,143.814 219.17,159.062 8,159.062 8,129.952 	"/>
	
		<polygon fill-rule="evenodd" clip-rule="evenodd" fill="#FFFFB9" stroke="#800000" stroke-width="0.7559" stroke-linecap="square" stroke-miterlimit="10" points="
		205.092,129.952 205.092,143.814 219.17,143.814 	"/>
	<g>
		<path d="M25.652,150.759v-4.81c0-0.382-0.015-0.735-0.045-1.061s-0.093-0.58-0.189-0.764c-0.101-0.198-0.245-0.345-0.431-0.439
			c-0.187-0.094-0.438-0.141-0.756-0.141c-0.292,0-0.606,0.088-0.941,0.264c-0.335,0.177-0.682,0.431-1.04,0.764
			c0.005,0.084,0.012,0.185,0.019,0.301c0.008,0.117,0.011,0.255,0.011,0.414v5.472h-1.421v-4.81c0-0.382-0.015-0.735-0.045-1.061
			s-0.093-0.58-0.189-0.764c-0.101-0.198-0.245-0.345-0.431-0.439c-0.187-0.094-0.438-0.141-0.756-0.141
			c-0.308,0-0.63,0.094-0.968,0.282c-0.338,0.188-0.666,0.43-0.983,0.723v6.209h-1.421v-8.316h1.421v0.924
			c0.373-0.367,0.742-0.651,1.108-0.853c0.365-0.201,0.768-0.302,1.206-0.302c0.499,0,0.941,0.111,1.327,0.335
			s0.679,0.591,0.881,1.102c0.428-0.472,0.847-0.828,1.255-1.072c0.408-0.243,0.852-0.364,1.331-0.364
			c0.363,0,0.693,0.056,0.991,0.167c0.297,0.112,0.557,0.292,0.779,0.54c0.227,0.253,0.402,0.568,0.525,0.945
			c0.124,0.378,0.185,0.852,0.185,1.423v5.472H25.652z"/>
		<path d="M34.285,146.604c0,1.399-0.343,2.48-1.029,3.242s-1.598,1.143-2.737,1.143c-1.175,0-2.099-0.393-2.771-1.18
			s-1.009-1.855-1.009-3.205c0-1.39,0.346-2.47,1.04-3.238c0.693-0.77,1.607-1.154,2.741-1.154c1.139,0,2.051,0.384,2.737,1.15
			S34.285,145.21,34.285,146.604z M32.817,146.604c0-1.077-0.199-1.877-0.597-2.401c-0.398-0.523-0.965-0.785-1.701-0.785
			c-0.741,0-1.312,0.262-1.713,0.785c-0.401,0.524-0.601,1.324-0.601,2.401c0,1.042,0.2,1.833,0.601,2.371
			c0.401,0.539,0.972,0.808,1.713,0.808c0.73,0,1.296-0.264,1.697-0.793C32.617,148.462,32.817,147.667,32.817,146.604z"/>
		<path d="M42.414,150.759h-1.422v-4.735c0-0.382-0.019-0.738-0.057-1.068c-0.038-0.33-0.109-0.594-0.215-0.793
			c-0.116-0.208-0.277-0.363-0.484-0.465c-0.207-0.102-0.489-0.152-0.847-0.152c-0.353,0-0.717,0.093-1.092,0.278
			c-0.376,0.187-0.743,0.429-1.101,0.727v6.209h-1.421v-8.316h1.421v0.924c0.424-0.373,0.842-0.658,1.255-0.856
			c0.413-0.198,0.85-0.298,1.308-0.298c0.832,0,1.482,0.27,1.951,0.808c0.469,0.539,0.704,1.319,0.704,2.342V150.759z"/>
		<path d="M46.78,150.923c-0.776,0-1.381-0.218-1.814-0.651c-0.434-0.435-0.65-1.121-0.65-2.059v-4.608h-0.96v-1.162h0.96v-2.39
			h1.421v2.39h2.616v1.162h-2.616v3.953c0,0.422,0.008,0.747,0.023,0.975c0.015,0.229,0.073,0.442,0.174,0.641
			c0.085,0.174,0.224,0.305,0.416,0.391c0.191,0.087,0.451,0.131,0.779,0.131c0.231,0,0.456-0.034,0.673-0.101
			c0.217-0.067,0.373-0.123,0.469-0.168h0.083v1.259c-0.267,0.074-0.538,0.133-0.813,0.175
			C47.265,150.901,47.012,150.923,46.78,150.923z"/>
		<path d="M53.521,150.952c-1.346,0-2.391-0.373-3.134-1.12s-1.115-1.808-1.115-3.183c0-1.355,0.36-2.434,1.081-3.235
			s1.664-1.202,2.828-1.202c0.524,0,0.988,0.074,1.391,0.224c0.403,0.148,0.756,0.382,1.059,0.699
			c0.303,0.318,0.534,0.706,0.696,1.165c0.161,0.46,0.242,1.021,0.242,1.687v0.76h-5.853c0,0.968,0.247,1.707,0.741,2.219
			c0.494,0.511,1.177,0.767,2.049,0.767c0.313,0,0.619-0.035,0.918-0.104s0.571-0.158,0.813-0.268
			c0.257-0.114,0.474-0.225,0.65-0.332c0.176-0.106,0.322-0.207,0.438-0.301h0.083v1.526c-0.166,0.064-0.373,0.145-0.62,0.241
			s-0.469,0.173-0.665,0.228c-0.277,0.074-0.528,0.131-0.752,0.171C54.146,150.933,53.863,150.952,53.521,150.952z M55.184,145.674
			c-0.01-0.377-0.056-0.702-0.136-0.976c-0.081-0.272-0.197-0.504-0.348-0.692c-0.166-0.208-0.379-0.367-0.639-0.477
			c-0.26-0.108-0.581-0.163-0.964-0.163c-0.378,0-0.699,0.056-0.964,0.167s-0.505,0.274-0.722,0.487
			c-0.211,0.219-0.373,0.461-0.484,0.727s-0.182,0.574-0.212,0.927H55.184z"/>
		<path d="M64.877,150.759h-1.422v-0.923c-0.438,0.377-0.854,0.663-1.248,0.859s-0.832,0.294-1.315,0.294
			c-0.368,0-0.715-0.06-1.04-0.179c-0.325-0.119-0.608-0.308-0.851-0.565c-0.242-0.258-0.43-0.583-0.563-0.976
			c-0.134-0.392-0.201-0.868-0.201-1.43v-5.397h1.422v4.735c0,0.441,0.016,0.808,0.049,1.098c0.033,0.291,0.107,0.545,0.223,0.764
			c0.116,0.213,0.273,0.37,0.473,0.469c0.199,0.1,0.485,0.149,0.858,0.149c0.348,0,0.718-0.097,1.111-0.291
			c0.393-0.193,0.753-0.432,1.081-0.715v-6.209h1.422V150.759z"/>
		<path d="M71.224,143.946h-0.076c-0.106-0.029-0.218-0.048-0.336-0.056c-0.119-0.008-0.261-0.011-0.427-0.011
			c-0.383,0-0.764,0.081-1.142,0.245c-0.378,0.164-0.736,0.407-1.074,0.729v5.904h-1.421v-8.316h1.421v1.236
			c0.52-0.452,0.972-0.771,1.357-0.957c0.386-0.186,0.76-0.279,1.123-0.279c0.146,0,0.256,0.004,0.329,0.012
			c0.073,0.007,0.155,0.019,0.246,0.033V143.946z"/>
		<path d="M74.59,150.759h-1.807v-2.122h1.807V150.759z"/>
		<path d="M81.349,150.945c-0.58,0-1.112-0.089-1.596-0.265s-0.9-0.443-1.248-0.801s-0.618-0.808-0.809-1.351
			c-0.191-0.544-0.287-1.183-0.287-1.917c0-0.73,0.099-1.36,0.298-1.892s0.465-0.978,0.798-1.34s0.748-0.642,1.244-0.838
			c0.496-0.196,1.029-0.294,1.599-0.294c0.463,0,0.911,0.064,1.342,0.193c0.431,0.129,0.815,0.278,1.153,0.447v1.57h-0.083
			c-0.101-0.084-0.231-0.181-0.39-0.29s-0.352-0.221-0.578-0.335c-0.197-0.1-0.429-0.187-0.696-0.261s-0.524-0.111-0.771-0.111
			c-0.736,0-1.327,0.274-1.773,0.822c-0.446,0.549-0.669,1.324-0.669,2.327c0,0.982,0.216,1.748,0.646,2.296
			c0.431,0.549,1.03,0.823,1.796,0.823c0.464,0,0.905-0.095,1.323-0.283s0.789-0.432,1.112-0.729h0.083v1.571
			c-0.141,0.064-0.317,0.143-0.529,0.234s-0.403,0.16-0.575,0.205c-0.242,0.069-0.458,0.122-0.65,0.159
			C81.898,150.927,81.651,150.945,81.349,150.945z"/>
		<path d="M91.994,146.604c0,1.399-0.343,2.48-1.029,3.242s-1.598,1.143-2.737,1.143c-1.175,0-2.099-0.393-2.771-1.18
			s-1.009-1.855-1.009-3.205c0-1.39,0.346-2.47,1.04-3.238c0.693-0.77,1.607-1.154,2.741-1.154c1.139,0,2.051,0.384,2.737,1.15
			S91.994,145.21,91.994,146.604z M90.526,146.604c0-1.077-0.199-1.877-0.597-2.401c-0.398-0.523-0.965-0.785-1.701-0.785
			c-0.741,0-1.312,0.262-1.713,0.785c-0.401,0.524-0.601,1.324-0.601,2.401c0,1.042,0.2,1.833,0.601,2.371
			c0.401,0.539,0.972,0.808,1.713,0.808c0.73,0,1.296-0.264,1.697-0.793C90.326,148.462,90.526,147.667,90.526,146.604z"/>
		<path d="M100.123,150.759h-1.422v-4.735c0-0.382-0.019-0.738-0.057-1.068c-0.038-0.33-0.109-0.594-0.215-0.793
			c-0.116-0.208-0.277-0.363-0.484-0.465c-0.207-0.102-0.489-0.152-0.847-0.152c-0.353,0-0.717,0.093-1.092,0.278
			c-0.376,0.187-0.743,0.429-1.101,0.727v6.209h-1.421v-8.316h1.421v0.924c0.424-0.373,0.842-0.658,1.255-0.856
			c0.413-0.198,0.85-0.298,1.308-0.298c0.832,0,1.482,0.27,1.951,0.808c0.469,0.539,0.704,1.319,0.704,2.342V150.759z"/>
		<path d="M104.217,150.96c-0.565,0-1.093-0.074-1.584-0.224c-0.492-0.148-0.899-0.308-1.221-0.477v-1.57h0.075
			c0.121,0.094,0.264,0.198,0.427,0.313c0.164,0.114,0.382,0.233,0.654,0.357c0.242,0.109,0.508,0.206,0.798,0.29
			c0.29,0.085,0.591,0.127,0.903,0.127c0.227,0,0.469-0.026,0.726-0.078c0.257-0.053,0.449-0.118,0.575-0.197
			c0.176-0.114,0.304-0.236,0.382-0.365s0.117-0.322,0.117-0.581c0-0.332-0.092-0.583-0.276-0.752
			c-0.184-0.168-0.511-0.31-0.979-0.424c-0.181-0.045-0.418-0.097-0.711-0.156c-0.292-0.06-0.562-0.124-0.809-0.194
			c-0.646-0.183-1.114-0.468-1.407-0.852c-0.292-0.385-0.438-0.851-0.438-1.396c0-0.749,0.287-1.359,0.862-1.831
			s1.338-0.708,2.292-0.708c0.469,0,0.94,0.058,1.414,0.172c0.474,0.114,0.872,0.258,1.195,0.432v1.496h-0.076
			c-0.363-0.282-0.767-0.506-1.213-0.67s-0.896-0.245-1.35-0.245c-0.469,0-0.865,0.097-1.188,0.29
			c-0.322,0.193-0.484,0.486-0.484,0.879c0,0.347,0.096,0.606,0.288,0.777c0.191,0.172,0.499,0.312,0.922,0.421
			c0.212,0.055,0.447,0.107,0.707,0.16c0.26,0.052,0.533,0.113,0.82,0.183c0.625,0.153,1.095,0.409,1.41,0.767
			s0.473,0.844,0.473,1.459c0,0.357-0.072,0.696-0.215,1.017s-0.354,0.594-0.631,0.822c-0.303,0.248-0.644,0.438-1.025,0.566
			C105.269,150.896,104.792,150.96,104.217,150.96z"/>
		<path d="M111.523,150.923c-0.776,0-1.381-0.218-1.814-0.651c-0.434-0.435-0.65-1.121-0.65-2.059v-4.608h-0.96v-1.162h0.96v-2.39
			h1.421v2.39h2.616v1.162h-2.616v3.953c0,0.422,0.008,0.747,0.023,0.975c0.015,0.229,0.073,0.442,0.174,0.641
			c0.085,0.174,0.224,0.305,0.416,0.391c0.191,0.087,0.451,0.131,0.779,0.131c0.231,0,0.456-0.034,0.673-0.101
			c0.217-0.067,0.373-0.123,0.469-0.168h0.083v1.259c-0.267,0.074-0.538,0.133-0.813,0.175
			C112.009,150.901,111.755,150.923,111.523,150.923z"/>
		<path d="M119.073,143.946h-0.076c-0.106-0.029-0.218-0.048-0.336-0.056c-0.119-0.008-0.261-0.011-0.427-0.011
			c-0.383,0-0.764,0.081-1.142,0.245c-0.378,0.164-0.736,0.407-1.074,0.729v5.904h-1.421v-8.316h1.421v1.236
			c0.52-0.452,0.972-0.771,1.357-0.957c0.386-0.186,0.76-0.279,1.123-0.279c0.146,0,0.256,0.004,0.329,0.012
			c0.073,0.007,0.155,0.019,0.246,0.033V143.946z"/>
		<path d="M126.802,150.759h-1.422v-0.923c-0.438,0.377-0.854,0.663-1.248,0.859s-0.832,0.294-1.315,0.294
			c-0.368,0-0.715-0.06-1.04-0.179c-0.325-0.119-0.608-0.308-0.851-0.565c-0.242-0.258-0.43-0.583-0.563-0.976
			c-0.134-0.392-0.201-0.868-0.201-1.43v-5.397h1.422v4.735c0,0.441,0.016,0.808,0.049,1.098c0.033,0.291,0.107,0.545,0.223,0.764
			c0.116,0.213,0.273,0.37,0.473,0.469c0.199,0.1,0.485,0.149,0.858,0.149c0.348,0,0.718-0.097,1.111-0.291
			c0.393-0.193,0.753-0.432,1.081-0.715v-6.209h1.422V150.759z"/>
		<path d="M130.223,141.051h-1.618v-1.452h1.618V141.051z M130.125,150.759h-1.421v-8.316h1.421V150.759z"/>
		<path d="M135.976,143.946H135.9c-0.106-0.029-0.218-0.048-0.336-0.056c-0.119-0.008-0.261-0.011-0.427-0.011
			c-0.383,0-0.764,0.081-1.142,0.245c-0.378,0.164-0.736,0.407-1.074,0.729v5.904h-1.421v-8.316h1.421v1.236
			c0.52-0.452,0.972-0.771,1.357-0.957c0.386-0.186,0.76-0.279,1.123-0.279c0.146,0,0.256,0.004,0.329,0.012
			c0.073,0.007,0.155,0.019,0.246,0.033V143.946z"/>
		<path d="M140.793,150.952c-1.346,0-2.391-0.373-3.134-1.12s-1.115-1.808-1.115-3.183c0-1.355,0.36-2.434,1.081-3.235
			s1.664-1.202,2.828-1.202c0.524,0,0.988,0.074,1.391,0.224c0.403,0.148,0.756,0.382,1.059,0.699
			c0.303,0.318,0.534,0.706,0.696,1.165c0.161,0.46,0.242,1.021,0.242,1.687v0.76h-5.853c0,0.968,0.247,1.707,0.741,2.219
			c0.494,0.511,1.177,0.767,2.049,0.767c0.313,0,0.619-0.035,0.918-0.104s0.571-0.158,0.813-0.268
			c0.257-0.114,0.474-0.225,0.65-0.332c0.176-0.106,0.322-0.207,0.438-0.301h0.083v1.526c-0.166,0.064-0.373,0.145-0.62,0.241
			s-0.469,0.173-0.665,0.228c-0.277,0.074-0.528,0.131-0.752,0.171C141.419,150.933,141.136,150.952,140.793,150.952z
			 M142.457,145.674c-0.01-0.377-0.056-0.702-0.136-0.976c-0.081-0.272-0.197-0.504-0.348-0.692
			c-0.166-0.208-0.379-0.367-0.639-0.477c-0.26-0.108-0.581-0.163-0.964-0.163c-0.378,0-0.699,0.056-0.964,0.167
			s-0.505,0.274-0.722,0.487c-0.211,0.219-0.373,0.461-0.484,0.727s-0.182,0.574-0.212,0.927H142.457z"/>
		<path d="M152.792,143.016c0,0.481-0.087,0.938-0.261,1.366c-0.174,0.43-0.415,0.796-0.722,1.099
			c-0.388,0.377-0.844,0.662-1.369,0.855c-0.524,0.194-1.187,0.291-1.989,0.291h-1.27v4.132h-1.498v-11.086h2.828
			c0.666,0,1.232,0.055,1.701,0.164s0.882,0.285,1.24,0.528c0.418,0.283,0.746,0.642,0.983,1.076S152.792,142.4,152.792,143.016z
			 M151.235,143.053c0-0.382-0.067-0.715-0.2-0.997c-0.134-0.283-0.337-0.514-0.609-0.692c-0.237-0.154-0.513-0.264-0.828-0.328
			s-0.707-0.097-1.176-0.097h-1.24v4.43h1.021c0.605,0,1.094-0.048,1.467-0.145s0.683-0.27,0.93-0.518
			c0.222-0.224,0.383-0.467,0.484-0.729C151.185,143.713,151.235,143.405,151.235,143.053z"/>
		<path d="M158.749,149.873c-0.116,0.084-0.271,0.202-0.465,0.354c-0.194,0.151-0.382,0.271-0.563,0.361
			c-0.252,0.129-0.495,0.228-0.729,0.298c-0.234,0.069-0.563,0.104-0.987,0.104c-0.348,0-0.678-0.064-0.991-0.193
			s-0.587-0.31-0.824-0.543c-0.227-0.229-0.408-0.511-0.544-0.846c-0.136-0.335-0.204-0.688-0.204-1.061
			c0-0.576,0.124-1.065,0.371-1.471c0.247-0.404,0.638-0.726,1.172-0.964c0.474-0.214,1.034-0.361,1.679-0.443
			c0.646-0.082,1.341-0.143,2.087-0.182v-0.269c0-0.327-0.05-0.592-0.151-0.793c-0.101-0.201-0.242-0.356-0.424-0.465
			c-0.181-0.114-0.403-0.19-0.665-0.228c-0.262-0.037-0.532-0.056-0.809-0.056c-0.328,0-0.713,0.048-1.157,0.146
			c-0.443,0.097-0.887,0.236-1.331,0.42h-0.083v-1.422c0.262-0.074,0.638-0.156,1.127-0.245c0.489-0.09,0.973-0.135,1.452-0.135
			c0.58,0,1.069,0.045,1.467,0.135c0.398,0.089,0.756,0.25,1.074,0.483c0.308,0.229,0.537,0.523,0.688,0.886
			c0.151,0.362,0.227,0.805,0.227,1.325v5.688h-1.414V149.873z M158.749,148.711v-2.308c-0.338,0.03-0.765,0.071-1.282,0.123
			s-0.934,0.125-1.251,0.22c-0.378,0.114-0.69,0.289-0.938,0.524c-0.247,0.236-0.371,0.564-0.371,0.986
			c0,0.477,0.136,0.837,0.409,1.08c0.272,0.243,0.67,0.364,1.194,0.364c0.449,0,0.854-0.095,1.218-0.286
			C158.091,149.224,158.432,148.989,158.749,148.711z"/>
		<path d="M166.945,143.946h-0.076c-0.106-0.029-0.218-0.048-0.336-0.056c-0.119-0.008-0.261-0.011-0.427-0.011
			c-0.383,0-0.764,0.081-1.142,0.245c-0.378,0.164-0.736,0.407-1.074,0.729v5.904h-1.421v-8.316h1.421v1.236
			c0.52-0.452,0.972-0.771,1.357-0.957c0.386-0.186,0.76-0.279,1.123-0.279c0.146,0,0.256,0.004,0.329,0.012
			c0.073,0.007,0.155,0.019,0.246,0.033V143.946z"/>
		<path d="M170.651,150.923c-0.776,0-1.381-0.218-1.814-0.651c-0.434-0.435-0.65-1.121-0.65-2.059v-4.608h-0.96v-1.162h0.96v-2.39
			h1.421v2.39h2.616v1.162h-2.616v3.953c0,0.422,0.008,0.747,0.023,0.975c0.015,0.229,0.073,0.442,0.174,0.641
			c0.085,0.174,0.224,0.305,0.416,0.391c0.191,0.087,0.451,0.131,0.779,0.131c0.231,0,0.456-0.034,0.673-0.101
			c0.217-0.067,0.373-0.123,0.469-0.168h0.083v1.259c-0.267,0.074-0.538,0.133-0.813,0.175
			C171.137,150.901,170.883,150.923,170.651,150.923z"/>
		<path d="M175.275,141.051h-1.618v-1.452h1.618V141.051z M175.176,150.759h-1.421v-8.316h1.421V150.759z"/>
		<path d="M180.218,150.952c-1.346,0-2.391-0.373-3.134-1.12s-1.115-1.808-1.115-3.183c0-1.355,0.36-2.434,1.081-3.235
			s1.664-1.202,2.828-1.202c0.524,0,0.988,0.074,1.391,0.224c0.403,0.148,0.756,0.382,1.059,0.699
			c0.303,0.318,0.534,0.706,0.696,1.165c0.161,0.46,0.242,1.021,0.242,1.687v0.76h-5.853c0,0.968,0.247,1.707,0.741,2.219
			c0.494,0.511,1.177,0.767,2.049,0.767c0.313,0,0.619-0.035,0.918-0.104s0.571-0.158,0.813-0.268
			c0.257-0.114,0.474-0.225,0.65-0.332c0.176-0.106,0.322-0.207,0.438-0.301h0.083v1.526c-0.166,0.064-0.373,0.145-0.62,0.241
			s-0.469,0.173-0.665,0.228c-0.277,0.074-0.528,0.131-0.752,0.171C180.844,150.933,180.561,150.952,180.218,150.952z
			 M181.882,145.674c-0.01-0.377-0.056-0.702-0.136-0.976c-0.081-0.272-0.197-0.504-0.348-0.692
			c-0.166-0.208-0.379-0.367-0.639-0.477c-0.26-0.108-0.581-0.163-0.964-0.163c-0.378,0-0.699,0.056-0.964,0.167
			s-0.505,0.274-0.722,0.487c-0.211,0.219-0.373,0.461-0.484,0.727s-0.182,0.574-0.212,0.927H181.882z"/>
		<path d="M189.336,153.826h-1.731c-0.877-1.027-1.567-2.114-2.068-3.261s-0.752-2.502-0.752-4.065c0-1.528,0.249-2.875,0.745-4.039
			s1.188-2.26,2.076-3.287h1.731v0.075c-0.408,0.362-0.798,0.78-1.168,1.254c-0.37,0.475-0.714,1.026-1.032,1.657
			c-0.303,0.61-0.548,1.282-0.737,2.018c-0.189,0.734-0.284,1.509-0.284,2.322c0,0.849,0.092,1.626,0.276,2.33
			c0.184,0.705,0.432,1.375,0.745,2.011c0.302,0.61,0.647,1.162,1.036,1.656s0.776,0.912,1.165,1.255V153.826z"/>
		<path d="M194.713,146.5c0,1.534-0.25,2.882-0.749,4.043s-1.189,2.256-2.072,3.283h-1.731v-0.074
			c0.388-0.343,0.779-0.764,1.172-1.262c0.394-0.499,0.736-1.049,1.028-1.649c0.313-0.641,0.561-1.316,0.745-2.029
			c0.184-0.712,0.276-1.482,0.276-2.312c0-0.818-0.093-1.593-0.28-2.322c-0.187-0.73-0.434-1.402-0.741-2.018
			c-0.308-0.616-0.655-1.169-1.043-1.661c-0.388-0.491-0.774-0.908-1.157-1.25v-0.075h1.731c0.877,1.027,1.566,2.12,2.068,3.276
			C194.463,143.606,194.713,144.957,194.713,146.5z"/>
		<path d="M199.379,148.637l-2.117,4.877h-1.104l1.331-4.877H199.379z M198.88,144.564h-1.807v-2.122h1.807V144.564z"/>
	</g>
	
		<line fill="none" stroke="#800000" stroke-width="0.7559" stroke-linecap="square" stroke-miterlimit="10" stroke-dasharray="0.7677,1.5354" x1="82.613" y1="84.209" x2="82.613" y2="129.952"/>
</g>
</svg>
