<?xml version="1.0" encoding="utf-8"?>
<!-- Generator: Adobe Illustrator 15.0.0, SVG Export Plug-In . SVG Version: 6.00 Build 0)  -->
<!DOCTYPE svg PUBLIC "-//W3C//DTD SVG 1.1//EN" "http://www.w3.org/Graphics/SVG/1.1/DTD/svg11.dtd">
<svg version="1.1" id="Calque_1" xmlns="http://www.w3.org/2000/svg" xmlns:xlink="http://www.w3.org/1999/xlink" x="0px" y="0px"
	 width="612px" height="244px" viewBox="0 0 612 244" enable-background="new 0 0 612 244" xml:space="preserve">
<g>
	
		<rect x="125.891" y="8.374" fill-rule="evenodd" clip-rule="evenodd" fill="#FFFFB9" stroke="#800000" stroke-width="0.7559" stroke-linecap="square" stroke-miterlimit="10" width="117.5" height="80.094"/>
	<g>
		<path stroke="#000000" stroke-width="0.2376" stroke-miterlimit="10" d="M168.048,30.833c-0.873,0-1.586-0.09-2.138-0.267
			c-0.552-0.178-1.054-0.397-1.505-0.658l0.669-1.975h0.113c0.362,0.488,0.833,0.867,1.411,1.135
			c0.578,0.268,1.178,0.402,1.798,0.402c0.885,0,1.615-0.183,2.191-0.546c0.576-0.364,0.965-0.844,1.167-1.438
			c0.16-0.473,0.172-0.857,0.036-1.155c-0.138-0.297-0.44-0.517-0.909-0.661c-0.336-0.106-0.646-0.194-0.93-0.263
			c-0.285-0.069-0.639-0.162-1.063-0.279c-0.379-0.106-0.707-0.241-0.979-0.406c-0.273-0.165-0.493-0.38-0.656-0.646
			c-0.16-0.26-0.25-0.567-0.268-0.92c-0.017-0.353,0.051-0.761,0.208-1.223c0.326-0.961,0.979-1.767,1.959-2.418
			c0.98-0.65,2.062-0.976,3.243-0.976c0.674,0,1.29,0.066,1.846,0.2c0.557,0.132,1.05,0.321,1.479,0.565l-0.64,1.888h-0.121
			c-0.266-0.345-0.655-0.646-1.166-0.904c-0.512-0.258-1.096-0.387-1.754-0.387c-0.745,0-1.404,0.171-1.979,0.514
			c-0.574,0.342-0.956,0.793-1.145,1.35c-0.171,0.505-0.172,0.906-0.003,1.204c0.169,0.298,0.487,0.515,0.952,0.653
			c0.309,0.091,0.69,0.192,1.142,0.307c0.453,0.114,0.824,0.219,1.115,0.314c0.747,0.25,1.226,0.626,1.438,1.131
			c0.212,0.504,0.193,1.126-0.057,1.864c-0.156,0.463-0.407,0.919-0.751,1.371c-0.344,0.451-0.742,0.833-1.194,1.147
			c-0.504,0.345-1.032,0.61-1.584,0.796C169.425,30.74,168.783,30.833,168.048,30.833z"/>
		<path stroke="#000000" stroke-width="0.2376" stroke-miterlimit="10" d="M182.223,30.618h-1.521l0.334-0.988
			c-0.605,0.403-1.155,0.71-1.646,0.92s-0.996,0.314-1.514,0.314c-0.395,0-0.743-0.063-1.048-0.191
			c-0.305-0.127-0.54-0.329-0.706-0.605c-0.165-0.276-0.249-0.624-0.249-1.044c0-0.419,0.101-0.929,0.304-1.529l1.955-5.775h1.521
			l-1.715,5.066c-0.16,0.473-0.275,0.865-0.345,1.176c-0.07,0.311-0.083,0.583-0.038,0.816c0.047,0.229,0.159,0.396,0.336,0.502
			c0.177,0.106,0.466,0.159,0.865,0.159c0.372,0,0.804-0.104,1.295-0.311c0.489-0.207,0.962-0.462,1.415-0.764l2.25-6.644h1.521
			L182.223,30.618z"/>
		<path stroke="#000000" stroke-width="0.2376" stroke-miterlimit="10" d="M188.097,30.873c-0.343,1.014-0.881,1.787-1.614,2.318
			c-0.733,0.531-1.585,0.796-2.556,0.796c-0.167,0-0.352-0.007-0.555-0.024c-0.201-0.016-0.4-0.04-0.595-0.071l0.453-1.338h0.089
			c0.11,0.027,0.232,0.052,0.367,0.076s0.267,0.035,0.397,0.035c0.404,0,0.754-0.049,1.049-0.147s0.542-0.253,0.745-0.466
			c0.183-0.19,0.345-0.433,0.483-0.724c0.139-0.292,0.28-0.648,0.422-1.068l2.47-7.297h-1.634l0.421-1.242h3.155L188.097,30.873z
			 M191.708,20.229h-1.731l0.526-1.553h1.731L191.708,20.229z"/>
		<path stroke="#000000" stroke-width="0.2376" stroke-miterlimit="10" d="M195.58,30.825c-1.44,0-2.422-0.399-2.947-1.199
			s-0.538-1.935-0.041-3.406c0.491-1.451,1.267-2.604,2.329-3.461c1.061-0.858,2.215-1.287,3.461-1.287
			c0.562,0,1.031,0.08,1.409,0.239c0.377,0.159,0.67,0.409,0.879,0.749c0.208,0.339,0.315,0.756,0.322,1.247
			c0.006,0.491-0.111,1.092-0.352,1.804l-0.275,0.813h-6.263c-0.35,1.035-0.354,1.827-0.01,2.374c0.344,0.547,0.981,0.82,1.915,0.82
			c0.334,0,0.675-0.037,1.021-0.111c0.346-0.074,0.669-0.17,0.967-0.287c0.317-0.122,0.588-0.241,0.815-0.354
			c0.229-0.115,0.421-0.222,0.579-0.323h0.089l-0.553,1.633c-0.201,0.069-0.452,0.155-0.751,0.259
			c-0.3,0.104-0.564,0.185-0.794,0.243c-0.324,0.08-0.613,0.141-0.868,0.183S195.947,30.825,195.58,30.825z M199.272,25.177
			c0.126-0.404,0.195-0.752,0.208-1.044c0.012-0.292-0.028-0.538-0.121-0.741c-0.103-0.223-0.273-0.393-0.511-0.51
			c-0.239-0.117-0.563-0.175-0.973-0.175c-0.404,0-0.768,0.059-1.092,0.178c-0.324,0.121-0.641,0.294-0.95,0.523
			c-0.305,0.233-0.565,0.492-0.781,0.776c-0.214,0.285-0.402,0.615-0.563,0.993H199.272z"/>
		<path stroke="#000000" stroke-width="0.2376" stroke-miterlimit="10" d="M204.93,30.792c-0.83,0-1.399-0.232-1.706-0.697
			s-0.291-1.199,0.05-2.203l1.669-4.931h-1.027l0.421-1.242h1.027l0.866-2.558h1.521l-0.866,2.558h2.8l-0.421,1.242h-2.8
			l-1.432,4.231c-0.153,0.451-0.263,0.799-0.329,1.043c-0.067,0.244-0.082,0.473-0.047,0.685c0.029,0.186,0.131,0.325,0.304,0.418
			c0.174,0.092,0.436,0.139,0.786,0.139c0.248,0,0.5-0.035,0.757-0.107c0.256-0.071,0.443-0.131,0.562-0.18h0.09l-0.456,1.347
			c-0.313,0.08-0.625,0.142-0.934,0.187C205.457,30.77,205.178,30.792,204.93,30.792z"/>
	</g>
	
		<line fill="none" stroke="#800000" stroke-width="0.7559" stroke-linecap="square" stroke-miterlimit="10" x1="125.891" y1="41.005" x2="244.897" y2="41.005"/>
	<g>
		<path d="M145.744,72.033h-4.086l-1.362,4.023h-1.343l1.362-4.023h-4.086l0.431-1.275h4.086l1.362-4.023h1.343l-1.362,4.023h4.086
			L145.744,72.033z"/>
		<path d="M153.83,69.3h-0.081c-0.103-0.031-0.216-0.051-0.34-0.059s-0.275-0.012-0.453-0.012c-0.41,0-0.847,0.088-1.311,0.263
			c-0.464,0.176-0.936,0.436-1.414,0.781l-2.139,6.318h-1.521l3.013-8.898h1.521l-0.447,1.322c0.719-0.483,1.318-0.824,1.799-1.023
			c0.48-0.2,0.914-0.298,1.303-0.298c0.156,0,0.272,0.003,0.348,0.012c0.075,0.007,0.159,0.02,0.251,0.035L153.83,69.3z"/>
		<path d="M156.446,76.797c-1.44,0-2.422-0.399-2.947-1.199s-0.538-1.935-0.041-3.406c0.491-1.451,1.267-2.604,2.329-3.461
			c1.061-0.858,2.215-1.287,3.461-1.287c0.562,0,1.031,0.08,1.409,0.239c0.377,0.159,0.67,0.409,0.879,0.749
			c0.208,0.339,0.315,0.756,0.322,1.247c0.006,0.491-0.111,1.092-0.352,1.804l-0.275,0.813h-6.263
			c-0.35,1.035-0.354,1.827-0.01,2.374c0.344,0.547,0.981,0.82,1.915,0.82c0.334,0,0.675-0.037,1.021-0.111
			c0.346-0.074,0.669-0.17,0.967-0.287c0.317-0.122,0.588-0.241,0.815-0.354c0.229-0.115,0.421-0.222,0.579-0.323h0.089
			l-0.553,1.632c-0.201,0.07-0.452,0.156-0.751,0.259c-0.3,0.104-0.564,0.185-0.794,0.243c-0.324,0.08-0.613,0.141-0.868,0.183
			C157.124,76.775,156.813,76.797,156.446,76.797z M160.139,71.149c0.126-0.404,0.195-0.752,0.208-1.044
			c0.012-0.292-0.028-0.538-0.121-0.741c-0.103-0.223-0.273-0.393-0.511-0.51c-0.239-0.117-0.563-0.175-0.973-0.175
			c-0.404,0-0.768,0.059-1.092,0.178c-0.324,0.121-0.641,0.294-0.95,0.523c-0.305,0.233-0.565,0.492-0.781,0.776
			c-0.214,0.285-0.402,0.615-0.563,0.993H160.139z"/>
		<path d="M167.477,79.872h-1.521l1.44-4.254c-0.576,0.398-1.106,0.689-1.589,0.872c-0.483,0.183-0.981,0.275-1.494,0.275
			c-1.024,0-1.705-0.404-2.04-1.215c-0.335-0.809-0.258-1.937,0.231-3.382c0.259-0.765,0.594-1.44,1.006-2.027
			c0.411-0.586,0.86-1.08,1.346-1.478c0.465-0.388,0.966-0.688,1.502-0.9c0.536-0.211,1.054-0.318,1.556-0.318
			c0.464,0,0.848,0.053,1.152,0.159c0.304,0.106,0.599,0.263,0.884,0.47l0.227-0.382h1.424L167.477,79.872z M167.822,74.358
			l1.715-5.066c-0.32-0.186-0.618-0.316-0.896-0.391c-0.276-0.074-0.588-0.112-0.933-0.112c-0.798,0-1.51,0.285-2.134,0.853
			s-1.116,1.386-1.478,2.454c-0.352,1.041-0.45,1.84-0.295,2.401c0.156,0.561,0.598,0.841,1.326,0.841
			c0.426,0,0.873-0.09,1.338-0.271C166.931,74.888,167.383,74.651,167.822,74.358z"/>
		<path d="M177.712,76.59h-1.521l0.334-0.988c-0.605,0.403-1.155,0.71-1.646,0.92s-0.996,0.314-1.514,0.314
			c-0.395,0-0.743-0.063-1.048-0.191c-0.305-0.127-0.54-0.329-0.706-0.605c-0.165-0.276-0.249-0.624-0.249-1.044
			c0-0.419,0.101-0.929,0.304-1.529l1.955-5.775h1.521l-1.715,5.066c-0.16,0.473-0.275,0.865-0.345,1.176
			c-0.07,0.311-0.083,0.583-0.038,0.816c0.047,0.229,0.159,0.396,0.336,0.502c0.177,0.106,0.466,0.159,0.865,0.159
			c0.372,0,0.804-0.104,1.295-0.311c0.489-0.207,0.962-0.462,1.415-0.764l2.25-6.644h1.521L177.712,76.59z"/>
		<path d="M183.568,76.797c-1.44,0-2.422-0.399-2.947-1.199s-0.538-1.935-0.041-3.406c0.491-1.451,1.267-2.604,2.329-3.461
			c1.061-0.858,2.215-1.287,3.461-1.287c0.562,0,1.031,0.08,1.409,0.239c0.377,0.159,0.67,0.409,0.879,0.749
			c0.208,0.339,0.315,0.756,0.322,1.247c0.006,0.491-0.111,1.092-0.352,1.804l-0.275,0.813h-6.263
			c-0.35,1.035-0.354,1.827-0.01,2.374c0.344,0.547,0.981,0.82,1.915,0.82c0.334,0,0.675-0.037,1.021-0.111
			c0.346-0.074,0.669-0.17,0.967-0.287c0.317-0.122,0.588-0.241,0.815-0.354c0.229-0.115,0.421-0.222,0.579-0.323h0.089
			l-0.553,1.632c-0.201,0.07-0.452,0.156-0.751,0.259c-0.3,0.104-0.564,0.185-0.794,0.243c-0.324,0.08-0.613,0.141-0.868,0.183
			C184.246,76.775,183.936,76.797,183.568,76.797z M187.261,71.149c0.126-0.404,0.195-0.752,0.208-1.044
			c0.012-0.292-0.028-0.538-0.121-0.741c-0.103-0.223-0.273-0.393-0.511-0.51c-0.239-0.117-0.563-0.175-0.973-0.175
			c-0.404,0-0.768,0.059-1.092,0.178c-0.324,0.121-0.641,0.294-0.95,0.523c-0.305,0.233-0.565,0.492-0.781,0.776
			c-0.214,0.285-0.402,0.615-0.563,0.993H187.261z"/>
		<path d="M191.426,76.765c-0.83,0-1.399-0.232-1.706-0.697s-0.291-1.199,0.05-2.203l1.669-4.931h-1.027l0.421-1.242h1.027
			l0.866-2.558h1.521l-0.866,2.558h2.8l-0.421,1.242h-2.8l-1.432,4.231c-0.153,0.451-0.263,0.799-0.329,1.043
			c-0.067,0.244-0.082,0.473-0.047,0.685c0.029,0.186,0.13,0.325,0.304,0.418c0.174,0.092,0.436,0.139,0.786,0.139
			c0.248,0,0.5-0.035,0.757-0.107c0.256-0.071,0.443-0.131,0.562-0.18h0.09l-0.456,1.347c-0.313,0.08-0.625,0.142-0.934,0.187
			C191.953,76.742,191.674,76.765,191.426,76.765z"/>
		<path d="M198.628,76.797c-1.44,0-2.422-0.399-2.947-1.199s-0.538-1.935-0.041-3.406c0.491-1.451,1.267-2.604,2.329-3.461
			c1.061-0.858,2.215-1.287,3.461-1.287c0.562,0,1.031,0.08,1.409,0.239c0.377,0.159,0.67,0.409,0.879,0.749
			c0.208,0.339,0.315,0.756,0.322,1.247c0.006,0.491-0.111,1.092-0.352,1.804l-0.275,0.813h-6.263
			c-0.35,1.035-0.354,1.827-0.01,2.374c0.344,0.547,0.981,0.82,1.915,0.82c0.334,0,0.675-0.037,1.021-0.111
			c0.346-0.074,0.669-0.17,0.967-0.287c0.317-0.122,0.588-0.241,0.815-0.354c0.229-0.115,0.421-0.222,0.579-0.323h0.089
			l-0.553,1.632c-0.201,0.07-0.452,0.156-0.751,0.259c-0.3,0.104-0.564,0.185-0.794,0.243c-0.324,0.08-0.613,0.141-0.868,0.183
			C199.305,76.775,198.995,76.797,198.628,76.797z M202.32,71.149c0.126-0.404,0.195-0.752,0.208-1.044
			c0.012-0.292-0.028-0.538-0.121-0.741c-0.103-0.223-0.273-0.393-0.511-0.51c-0.239-0.117-0.563-0.175-0.973-0.175
			c-0.404,0-0.768,0.059-1.092,0.178c-0.324,0.121-0.641,0.294-0.95,0.523c-0.305,0.233-0.565,0.492-0.781,0.776
			c-0.214,0.285-0.402,0.615-0.563,0.993H202.32z"/>
		<path d="M207.345,79.872h-1.854c-0.566-1.099-0.909-2.263-1.031-3.489c-0.121-1.227,0.102-2.677,0.668-4.349
			c0.554-1.636,1.307-3.077,2.26-4.323c0.953-1.245,2.09-2.418,3.411-3.517h1.854l-0.026,0.08c-0.569,0.388-1.138,0.835-1.706,1.342
			c-0.568,0.508-1.136,1.098-1.704,1.772c-0.546,0.654-1.052,1.374-1.52,2.159c-0.468,0.786-0.85,1.615-1.145,2.486
			c-0.308,0.907-0.49,1.739-0.549,2.493c-0.058,0.755-0.036,1.472,0.069,2.152c0.102,0.653,0.271,1.244,0.508,1.772
			c0.236,0.528,0.5,0.976,0.792,1.342L207.345,79.872z"/>
		<path d="M215.752,72.033c-0.556,1.641-1.312,3.083-2.266,4.325c-0.955,1.243-2.091,2.414-3.407,3.513h-1.853l0.027-0.08
			c0.539-0.366,1.109-0.817,1.711-1.351s1.168-1.122,1.698-1.764c0.567-0.686,1.078-1.409,1.532-2.171
			c0.456-0.762,0.833-1.586,1.134-2.473c0.297-0.877,0.477-1.705,0.542-2.486c0.065-0.781,0.044-1.5-0.062-2.159
			c-0.106-0.658-0.278-1.25-0.515-1.776c-0.238-0.526-0.499-0.972-0.785-1.338l0.026-0.08h1.853
			c0.567,1.099,0.909,2.268,1.026,3.505C216.531,68.936,216.311,70.381,215.752,72.033z"/>
	</g>
	
		<line fill="none" stroke="#800000" stroke-width="0.7559" stroke-linecap="square" stroke-miterlimit="10" x1="125.891" y1="54.354" x2="244.897" y2="54.354"/>
	
		<rect x="5.378" y="156.697" fill-rule="evenodd" clip-rule="evenodd" fill="#FFFFB9" stroke="#800000" stroke-width="0.7559" stroke-linecap="square" stroke-miterlimit="10" width="117.5" height="80.094"/>
	<g>
		<path d="M28.421,179.16c-0.922,0-1.733-0.087-2.431-0.263c-0.699-0.175-1.347-0.393-1.946-0.653v-2.82h0.275
			c0.604,0.505,1.271,0.893,1.999,1.163c0.728,0.271,1.435,0.406,2.12,0.406c0.173,0,0.401-0.019,0.684-0.056
			s0.511-0.096,0.684-0.175c0.21-0.091,0.388-0.217,0.534-0.379c0.146-0.162,0.219-0.375,0.219-0.641
			c0-0.298-0.119-0.539-0.356-0.726c-0.237-0.186-0.521-0.321-0.85-0.406c-0.41-0.106-0.848-0.207-1.315-0.303
			c-0.466-0.096-0.902-0.212-1.307-0.351c-0.933-0.323-1.602-0.759-2.006-1.307c-0.405-0.547-0.607-1.231-0.607-2.055
			c0-1.11,0.477-2.009,1.432-2.697c0.955-0.688,2.146-1.031,3.576-1.031c0.717,0,1.431,0.071,2.14,0.215
			c0.709,0.144,1.344,0.337,1.905,0.582v2.708h-0.267c-0.448-0.377-0.994-0.695-1.638-0.956c-0.645-0.26-1.307-0.39-1.986-0.39
			c-0.265,0-0.502,0.019-0.712,0.056c-0.21,0.037-0.432,0.108-0.664,0.215c-0.189,0.085-0.352,0.211-0.49,0.378
			c-0.137,0.168-0.206,0.354-0.206,0.563c0,0.303,0.109,0.543,0.328,0.721c0.218,0.178,0.64,0.339,1.266,0.481
			c0.405,0.091,0.794,0.179,1.169,0.264c0.375,0.085,0.775,0.201,1.201,0.351c0.836,0.297,1.458,0.696,1.865,1.198
			s0.611,1.165,0.611,1.988c0,1.179-0.471,2.127-1.412,2.844S30.023,179.16,28.421,179.16z"/>
		<path d="M43.52,178.945h-2.832v-0.988c-0.491,0.404-0.941,0.711-1.351,0.921c-0.41,0.209-0.898,0.314-1.465,0.314
			c-0.901,0-1.604-0.28-2.107-0.841c-0.504-0.56-0.757-1.403-0.757-2.529v-5.823h2.848v4.438c0,0.462,0.012,0.839,0.037,1.131
			c0.024,0.292,0.082,0.539,0.174,0.741c0.086,0.186,0.22,0.326,0.4,0.422s0.433,0.144,0.757,0.144c0.199,0,0.435-0.048,0.708-0.144
			s0.525-0.226,0.757-0.391v-6.341h2.832V178.945z"/>
		<path d="M49.482,179.104c0,1.009-0.305,1.797-0.914,2.362c-0.61,0.565-1.397,0.849-2.363,0.849c-0.518,0-0.987-0.022-1.408-0.068
			c-0.421-0.045-0.728-0.091-0.922-0.139v-2.056h0.218c0.184,0.059,0.387,0.104,0.611,0.14c0.224,0.034,0.403,0.052,0.538,0.052
			c0.545,0,0.916-0.165,1.113-0.494s0.295-0.871,0.295-1.625v-6.183h-1.634v-1.943h4.466V179.104z M49.482,168.725h-3.018v-2.176
			h3.018V168.725z"/>
		<path d="M56.303,179.185c-1.715,0-3.03-0.404-3.944-1.211c-0.914-0.808-1.371-1.957-1.371-3.45c0-1.46,0.426-2.626,1.278-3.497
			c0.852-0.871,2.044-1.307,3.576-1.307c1.392,0,2.438,0.369,3.139,1.107s1.052,1.796,1.052,3.171v1.004h-6.206
			c0.027,0.414,0.116,0.761,0.267,1.039c0.151,0.279,0.351,0.501,0.599,0.666c0.243,0.164,0.526,0.282,0.85,0.354
			c0.324,0.071,0.677,0.107,1.06,0.107c0.329,0,0.652-0.036,0.971-0.107c0.318-0.072,0.609-0.166,0.874-0.283
			c0.232-0.101,0.446-0.21,0.643-0.326c0.197-0.117,0.357-0.221,0.481-0.312h0.299v2.303c-0.232,0.091-0.444,0.174-0.635,0.251
			s-0.455,0.155-0.789,0.235c-0.308,0.079-0.625,0.142-0.951,0.187C57.17,179.162,56.772,179.185,56.303,179.185z M57.242,173.321
			c-0.016-0.59-0.155-1.039-0.417-1.347s-0.662-0.462-1.201-0.462c-0.55,0-0.98,0.162-1.291,0.485
			c-0.311,0.324-0.481,0.766-0.514,1.323H57.242z"/>
		<path d="M65.665,179.12c-1.154,0-1.995-0.233-2.521-0.7c-0.526-0.468-0.789-1.232-0.789-2.295v-4.183h-1.084v-1.943h1.084v-2.558
			h2.832v2.558h2.727v1.943h-2.727v3.171c0,0.313,0.003,0.587,0.008,0.82c0.005,0.234,0.048,0.444,0.129,0.63
			c0.075,0.186,0.209,0.333,0.4,0.442c0.191,0.108,0.471,0.163,0.837,0.163c0.151,0,0.349-0.032,0.595-0.096
			s0.417-0.122,0.514-0.176h0.243v1.968c-0.307,0.08-0.634,0.143-0.979,0.188S66.166,179.12,65.665,179.12z"/>
		<path d="M81.02,178.945h-3.689l-3.357-4.35h-1.084v4.35h-3.01v-11.862h4.847c0.668,0,1.251,0.041,1.748,0.124
			c0.496,0.082,0.955,0.253,1.375,0.514c0.431,0.271,0.774,0.614,1.027,1.031s0.38,0.947,0.38,1.59c0,0.908-0.208,1.645-0.623,2.21
			c-0.416,0.566-0.971,1.016-1.667,1.351L81.02,178.945z M76.149,170.716c0-0.298-0.058-0.554-0.174-0.769
			c-0.116-0.215-0.309-0.381-0.579-0.498c-0.189-0.08-0.399-0.13-0.631-0.151s-0.521-0.032-0.866-0.032h-1.011v3.195h0.866
			c0.421,0,0.778-0.025,1.072-0.076c0.294-0.051,0.543-0.158,0.748-0.322c0.194-0.149,0.339-0.327,0.433-0.534
			S76.149,171.051,76.149,170.716z"/>
		<path d="M86.417,179.185c-1.715,0-3.03-0.404-3.944-1.211c-0.914-0.808-1.371-1.957-1.371-3.45c0-1.46,0.426-2.626,1.278-3.497
			c0.852-0.871,2.044-1.307,3.576-1.307c1.392,0,2.438,0.369,3.139,1.107s1.052,1.796,1.052,3.171v1.004h-6.206
			c0.027,0.414,0.116,0.761,0.267,1.039c0.151,0.279,0.351,0.501,0.599,0.666c0.243,0.164,0.526,0.282,0.85,0.354
			c0.324,0.071,0.677,0.107,1.06,0.107c0.329,0,0.652-0.036,0.971-0.107c0.318-0.072,0.609-0.166,0.874-0.283
			c0.232-0.101,0.446-0.21,0.643-0.326c0.197-0.117,0.357-0.221,0.481-0.312h0.299v2.303c-0.232,0.091-0.444,0.174-0.635,0.251
			s-0.455,0.155-0.789,0.235c-0.308,0.079-0.625,0.142-0.951,0.187C87.284,179.162,86.887,179.185,86.417,179.185z M87.356,173.321
			c-0.016-0.59-0.155-1.039-0.417-1.347s-0.662-0.462-1.201-0.462c-0.55,0-0.98,0.162-1.291,0.485
			c-0.311,0.324-0.481,0.766-0.514,1.323H87.356z"/>
		<path d="M96.952,179.185c-1.715,0-3.03-0.404-3.944-1.211c-0.914-0.808-1.371-1.957-1.371-3.45c0-1.46,0.426-2.626,1.278-3.497
			c0.852-0.871,2.044-1.307,3.576-1.307c1.392,0,2.438,0.369,3.139,1.107s1.052,1.796,1.052,3.171v1.004h-6.206
			c0.027,0.414,0.116,0.761,0.267,1.039c0.151,0.279,0.351,0.501,0.599,0.666c0.243,0.164,0.526,0.282,0.85,0.354
			c0.324,0.071,0.677,0.107,1.06,0.107c0.329,0,0.652-0.036,0.971-0.107c0.318-0.072,0.609-0.166,0.874-0.283
			c0.232-0.101,0.446-0.21,0.643-0.326c0.197-0.117,0.357-0.221,0.481-0.312h0.299v2.303c-0.232,0.091-0.444,0.174-0.635,0.251
			s-0.455,0.155-0.789,0.235c-0.308,0.079-0.625,0.142-0.951,0.187C97.819,179.162,97.421,179.185,96.952,179.185z M97.891,173.321
			c-0.016-0.59-0.155-1.039-0.417-1.347s-0.662-0.462-1.201-0.462c-0.55,0-0.98,0.162-1.291,0.485
			c-0.311,0.324-0.481,0.766-0.514,1.323H97.891z"/>
		<path d="M105.666,178.945h-2.832v-12.396h2.832V178.945z"/>
	</g>
	
		<line fill="none" stroke="#800000" stroke-width="0.7559" stroke-linecap="square" stroke-miterlimit="10" x1="5.378" y1="189.327" x2="124.385" y2="189.327"/>
	<g>
		<path d="M23.691,220.377h-4.086v4.022h-1.343v-4.022h-4.086v-1.274h4.086v-4.023h1.343v4.023h4.086V220.377z"/>
		<path d="M30.852,217.645h-0.081c-0.113-0.032-0.233-0.052-0.36-0.061c-0.126-0.008-0.279-0.012-0.457-0.012
			c-0.41,0-0.817,0.088-1.222,0.263c-0.405,0.176-0.788,0.436-1.149,0.781v6.317h-1.521v-8.898h1.521v1.322
			c0.556-0.483,1.04-0.824,1.452-1.023s0.813-0.299,1.202-0.299c0.156,0,0.274,0.004,0.352,0.012s0.166,0.02,0.263,0.036V217.645z"
			/>
		<path d="M36.007,225.141c-1.44,0-2.558-0.399-3.354-1.199c-0.796-0.799-1.193-1.935-1.193-3.405c0-1.45,0.385-2.604,1.157-3.462
			c0.771-0.857,1.78-1.286,3.026-1.286c0.561,0,1.057,0.079,1.489,0.239c0.431,0.159,0.809,0.408,1.132,0.748
			c0.324,0.341,0.572,0.756,0.745,1.247c0.172,0.491,0.259,1.093,0.259,1.805v0.813h-6.262c0,1.035,0.264,1.827,0.793,2.374
			c0.528,0.547,1.259,0.82,2.192,0.82c0.334,0,0.662-0.037,0.983-0.111c0.321-0.074,0.611-0.17,0.87-0.287
			c0.275-0.122,0.507-0.24,0.696-0.354c0.188-0.114,0.345-0.222,0.469-0.322h0.089v1.633c-0.178,0.069-0.399,0.155-0.664,0.259
			c-0.264,0.104-0.501,0.185-0.712,0.243c-0.296,0.08-0.565,0.141-0.805,0.184C36.678,225.119,36.374,225.141,36.007,225.141z
			 M37.788,219.492c-0.011-0.403-0.06-0.751-0.146-1.043c-0.086-0.292-0.21-0.539-0.373-0.741c-0.178-0.224-0.406-0.394-0.684-0.51
			c-0.278-0.117-0.622-0.176-1.032-0.176c-0.404,0-0.748,0.061-1.031,0.18s-0.541,0.293-0.773,0.521
			c-0.227,0.234-0.399,0.493-0.518,0.777c-0.119,0.284-0.194,0.614-0.227,0.991H37.788z"/>
		<path d="M48.079,228.216h-1.521v-4.254c-0.442,0.398-0.874,0.688-1.294,0.872c-0.421,0.184-0.888,0.274-1.4,0.274
			c-1.025,0-1.842-0.404-2.452-1.215c-0.609-0.81-0.914-1.937-0.914-3.382c0-0.765,0.106-1.44,0.319-2.027s0.495-1.079,0.846-1.478
			c0.334-0.388,0.733-0.688,1.197-0.9c0.464-0.212,0.947-0.318,1.448-0.318c0.464,0,0.866,0.053,1.206,0.159s0.688,0.263,1.044,0.47
			l0.097-0.382h1.424V228.216z M46.558,222.703v-5.067c-0.383-0.186-0.726-0.315-1.027-0.39c-0.302-0.074-0.626-0.111-0.971-0.111
			c-0.798,0-1.413,0.284-1.845,0.852c-0.432,0.568-0.647,1.387-0.647,2.454c0,1.041,0.173,1.842,0.518,2.402
			c0.345,0.56,0.882,0.84,1.61,0.84c0.426,0,0.842-0.09,1.246-0.271C45.846,223.231,46.218,222.995,46.558,222.703z"/>
		<path d="M57.203,224.934h-1.521v-0.988c-0.469,0.404-0.915,0.711-1.335,0.921c-0.421,0.209-0.89,0.314-1.408,0.314
			c-0.394,0-0.765-0.063-1.112-0.191c-0.348-0.127-0.651-0.329-0.91-0.605c-0.259-0.276-0.46-0.624-0.603-1.044
			c-0.143-0.419-0.214-0.929-0.214-1.529v-5.775h1.521v5.066c0,0.473,0.018,0.864,0.053,1.175c0.035,0.312,0.115,0.583,0.239,0.817
			c0.124,0.228,0.292,0.396,0.505,0.501c0.213,0.106,0.52,0.16,0.918,0.16c0.372,0,0.769-0.104,1.189-0.312
			c0.421-0.207,0.806-0.462,1.157-0.765v-6.644h1.521V224.934z"/>
		<path d="M63.128,225.141c-1.44,0-2.558-0.399-3.354-1.199c-0.796-0.799-1.193-1.935-1.193-3.405c0-1.45,0.385-2.604,1.157-3.462
			c0.771-0.857,1.78-1.286,3.026-1.286c0.561,0,1.057,0.079,1.489,0.239c0.431,0.159,0.809,0.408,1.132,0.748
			c0.324,0.341,0.572,0.756,0.745,1.247c0.172,0.491,0.259,1.093,0.259,1.805v0.813h-6.262c0,1.035,0.264,1.827,0.793,2.374
			c0.528,0.547,1.259,0.82,2.192,0.82c0.334,0,0.662-0.037,0.983-0.111c0.321-0.074,0.611-0.17,0.87-0.287
			c0.275-0.122,0.507-0.24,0.696-0.354c0.188-0.114,0.345-0.222,0.469-0.322h0.089v1.633c-0.178,0.069-0.399,0.155-0.664,0.259
			c-0.264,0.104-0.501,0.185-0.712,0.243c-0.296,0.08-0.565,0.141-0.805,0.184C63.799,225.119,63.495,225.141,63.128,225.141z
			 M64.909,219.492c-0.011-0.403-0.06-0.751-0.146-1.043c-0.086-0.292-0.21-0.539-0.373-0.741c-0.178-0.224-0.406-0.394-0.684-0.51
			c-0.278-0.117-0.622-0.176-1.032-0.176c-0.404,0-0.748,0.061-1.031,0.18s-0.541,0.293-0.773,0.521
			c-0.227,0.234-0.399,0.493-0.518,0.777c-0.119,0.284-0.194,0.614-0.227,0.991H64.909z"/>
		<path d="M70.976,225.108c-0.831,0-1.478-0.231-1.942-0.696s-0.696-1.199-0.696-2.203v-4.932h-1.027v-1.242h1.027v-2.558h1.521
			v2.558h2.799v1.242H69.86v4.23c0,0.451,0.008,0.8,0.024,1.044c0.017,0.244,0.078,0.473,0.187,0.685
			c0.091,0.187,0.24,0.326,0.445,0.419s0.482,0.139,0.833,0.139c0.248,0,0.488-0.035,0.72-0.107
			c0.232-0.071,0.399-0.131,0.502-0.179h0.089v1.346c-0.286,0.08-0.576,0.143-0.87,0.188S71.224,225.108,70.976,225.108z"/>
		<path d="M78.188,225.141c-1.44,0-2.558-0.399-3.354-1.199c-0.796-0.799-1.193-1.935-1.193-3.405c0-1.45,0.385-2.604,1.157-3.462
			c0.771-0.857,1.78-1.286,3.026-1.286c0.561,0,1.057,0.079,1.489,0.239c0.431,0.159,0.809,0.408,1.132,0.748
			c0.324,0.341,0.572,0.756,0.745,1.247c0.172,0.491,0.259,1.093,0.259,1.805v0.813h-6.262c0,1.035,0.264,1.827,0.793,2.374
			c0.528,0.547,1.259,0.82,2.192,0.82c0.334,0,0.662-0.037,0.983-0.111c0.321-0.074,0.611-0.17,0.87-0.287
			c0.275-0.122,0.507-0.24,0.696-0.354c0.188-0.114,0.345-0.222,0.469-0.322h0.089v1.633c-0.178,0.069-0.399,0.155-0.664,0.259
			c-0.264,0.104-0.501,0.185-0.712,0.243c-0.296,0.08-0.565,0.141-0.805,0.184C78.859,225.119,78.555,225.141,78.188,225.141z
			 M79.969,219.492c-0.011-0.403-0.06-0.751-0.146-1.043c-0.086-0.292-0.21-0.539-0.373-0.741c-0.178-0.224-0.406-0.394-0.684-0.51
			c-0.278-0.117-0.622-0.176-1.032-0.176c-0.404,0-0.748,0.061-1.031,0.18s-0.541,0.293-0.773,0.521
			c-0.227,0.234-0.399,0.493-0.518,0.777c-0.119,0.284-0.194,0.614-0.227,0.991H79.969z"/>
		<path d="M87.946,228.216h-1.853c-0.938-1.1-1.676-2.263-2.213-3.489s-0.805-2.677-0.805-4.35c0-1.636,0.266-3.076,0.797-4.322
			c0.531-1.245,1.271-2.418,2.221-3.518h1.853v0.08c-0.437,0.388-0.854,0.835-1.25,1.343c-0.396,0.507-0.765,1.098-1.104,1.772
			c-0.324,0.653-0.586,1.373-0.789,2.159c-0.202,0.785-0.303,1.614-0.303,2.485c0,0.908,0.098,1.739,0.295,2.493
			c0.197,0.754,0.462,1.472,0.797,2.151c0.324,0.653,0.693,1.244,1.108,1.772s0.831,0.976,1.246,1.342V228.216z"/>
		<path d="M93.699,220.377c0,1.641-0.267,3.083-0.801,4.325c-0.534,1.243-1.273,2.414-2.217,3.514h-1.853v-0.08
			c0.416-0.366,0.833-0.816,1.254-1.35c0.42-0.534,0.787-1.122,1.1-1.765c0.334-0.686,0.6-1.409,0.797-2.171
			c0.197-0.763,0.295-1.587,0.295-2.474c0-0.877-0.1-1.705-0.299-2.485c-0.2-0.781-0.464-1.501-0.793-2.159
			c-0.329-0.659-0.701-1.251-1.116-1.776c-0.416-0.526-0.828-0.973-1.238-1.339v-0.08h1.853c0.938,1.1,1.676,2.269,2.213,3.506
			S93.699,218.725,93.699,220.377z"/>
	</g>
	
		<line fill="none" stroke="#800000" stroke-width="0.7559" stroke-linecap="square" stroke-miterlimit="10" x1="5.378" y1="202.679" x2="124.385" y2="202.679"/>
	
		<rect x="252.43" y="156.697" fill-rule="evenodd" clip-rule="evenodd" fill="#FFFFB9" stroke="#800000" stroke-width="0.7559" stroke-linecap="square" stroke-miterlimit="10" width="117.5" height="80.094"/>
	<g>
		<path d="M273.481,170.827c0,0.553-0.089,1.078-0.267,1.577c-0.178,0.5-0.435,0.917-0.769,1.251
			c-0.205,0.207-0.43,0.398-0.676,0.574c-0.246,0.175-0.517,0.323-0.813,0.445c-0.297,0.123-0.619,0.218-0.967,0.287
			c-0.348,0.069-0.737,0.104-1.169,0.104h-1.586v3.88h-3.026v-11.862h4.677c0.696,0,1.295,0.063,1.8,0.188
			c0.504,0.125,0.961,0.322,1.371,0.594c0.453,0.297,0.804,0.694,1.052,1.19C273.357,169.552,273.481,170.143,273.481,170.827z
			 M270.375,170.899c0-0.335-0.081-0.623-0.243-0.864c-0.162-0.242-0.356-0.408-0.583-0.498c-0.286-0.122-0.56-0.192-0.821-0.212
			c-0.261-0.019-0.616-0.027-1.064-0.027h-0.429v3.553h0.21c0.286,0,0.556-0.002,0.809-0.008c0.253-0.005,0.475-0.023,0.664-0.056
			c0.162-0.026,0.333-0.078,0.514-0.155s0.32-0.163,0.417-0.259c0.205-0.196,0.344-0.401,0.417-0.613
			C270.338,171.547,270.375,171.261,270.375,170.899z"/>
		<path d="M280.707,172.636h-0.235c-0.108-0.037-0.264-0.065-0.469-0.084s-0.432-0.027-0.68-0.027c-0.297,0-0.608,0.042-0.935,0.127
			s-0.643,0.187-0.951,0.303v5.991h-2.832v-8.946h2.832v1.282c0.129-0.116,0.309-0.264,0.538-0.442
			c0.229-0.178,0.438-0.319,0.627-0.426c0.205-0.122,0.444-0.227,0.716-0.314c0.272-0.088,0.53-0.132,0.772-0.132
			c0.092,0,0.194,0.003,0.308,0.008c0.113,0.006,0.216,0.014,0.308,0.024V172.636z"/>
		<path d="M290.844,174.476c0,1.472-0.408,2.631-1.226,3.478c-0.817,0.848-1.973,1.271-3.467,1.271
			c-1.484,0-2.637-0.424-3.459-1.271c-0.823-0.847-1.234-2.006-1.234-3.478c0-1.486,0.411-2.651,1.234-3.493
			c0.822-0.842,1.975-1.263,3.459-1.263c1.489,0,2.643,0.424,3.463,1.271C290.435,171.838,290.844,173,290.844,174.476z
			 M287.94,174.492c0-0.531-0.045-0.974-0.134-1.326c-0.089-0.354-0.211-0.637-0.368-0.849c-0.167-0.224-0.356-0.379-0.566-0.467
			c-0.21-0.087-0.45-0.131-0.72-0.131c-0.254,0-0.483,0.038-0.688,0.115s-0.394,0.225-0.566,0.442
			c-0.162,0.207-0.291,0.491-0.388,0.853s-0.146,0.815-0.146,1.362s0.046,0.989,0.138,1.326c0.092,0.338,0.21,0.606,0.356,0.809
			c0.151,0.207,0.34,0.358,0.566,0.454s0.478,0.144,0.752,0.144c0.227,0,0.457-0.048,0.692-0.144s0.422-0.239,0.563-0.43
			c0.167-0.229,0.294-0.504,0.38-0.825C287.896,175.505,287.94,175.061,287.94,174.492z"/>
		<path d="M297.123,179.185c-0.75,0-1.436-0.093-2.059-0.279c-0.623-0.186-1.164-0.473-1.623-0.86
			c-0.453-0.388-0.806-0.875-1.06-1.462c-0.253-0.587-0.38-1.278-0.38-2.075c0-0.854,0.137-1.582,0.413-2.183
			c0.275-0.601,0.647-1.094,1.116-1.481c0.453-0.372,0.986-0.647,1.598-0.825s1.25-0.267,1.914-0.267
			c0.501,0,1.003,0.057,1.505,0.171c0.502,0.114,1.006,0.297,1.513,0.546v2.39h-0.364c-0.113-0.105-0.252-0.223-0.417-0.35
			c-0.165-0.128-0.344-0.245-0.538-0.351c-0.205-0.112-0.437-0.206-0.696-0.283s-0.548-0.115-0.866-0.115
			c-0.723,0-1.283,0.248-1.679,0.744c-0.396,0.497-0.595,1.165-0.595,2.004c0,0.897,0.212,1.567,0.635,2.008
			s0.986,0.661,1.687,0.661c0.356,0,0.669-0.04,0.938-0.119c0.27-0.08,0.502-0.176,0.696-0.287c0.189-0.111,0.351-0.228,0.486-0.347
			c0.135-0.119,0.25-0.227,0.348-0.322h0.364v2.39c-0.162,0.069-0.35,0.148-0.563,0.239c-0.213,0.09-0.43,0.164-0.651,0.223
			c-0.275,0.074-0.533,0.132-0.772,0.172C297.833,179.164,297.516,179.185,297.123,179.185z"/>
		<path d="M310.14,178.945h-2.832v-0.988c-0.49,0.404-0.941,0.711-1.351,0.921c-0.41,0.209-0.898,0.314-1.465,0.314
			c-0.901,0-1.604-0.28-2.107-0.841c-0.504-0.56-0.757-1.403-0.757-2.529v-5.823h2.848v4.438c0,0.462,0.012,0.839,0.037,1.131
			c0.024,0.292,0.082,0.539,0.174,0.741c0.086,0.186,0.22,0.326,0.4,0.422s0.433,0.144,0.757,0.144c0.199,0,0.436-0.048,0.708-0.144
			s0.524-0.226,0.756-0.391v-6.341h2.832V178.945z"/>
		<path d="M318.359,172.636h-0.234c-0.108-0.037-0.265-0.065-0.47-0.084c-0.204-0.019-0.431-0.027-0.679-0.027
			c-0.297,0-0.608,0.042-0.935,0.127c-0.327,0.085-0.644,0.187-0.951,0.303v5.991h-2.832v-8.946h2.832v1.282
			c0.13-0.116,0.309-0.264,0.538-0.442c0.229-0.178,0.438-0.319,0.627-0.426c0.205-0.122,0.443-0.227,0.716-0.314
			s0.53-0.132,0.773-0.132c0.091,0,0.193,0.003,0.307,0.008c0.113,0.006,0.216,0.014,0.308,0.024V172.636z"/>
		<path d="M324.783,177.997c-0.194,0.159-0.368,0.303-0.522,0.431c-0.153,0.127-0.359,0.255-0.618,0.382
			c-0.254,0.122-0.501,0.216-0.741,0.279c-0.239,0.063-0.575,0.096-1.007,0.096c-0.804,0-1.472-0.266-2.003-0.797
			s-0.797-1.2-0.797-2.008c0-0.664,0.135-1.2,0.405-1.609c0.27-0.408,0.657-0.732,1.165-0.972c0.512-0.244,1.124-0.414,1.836-0.51
			s1.479-0.17,2.298-0.223v-0.048c0-0.494-0.185-0.836-0.554-1.024c-0.37-0.188-0.924-0.282-1.663-0.282
			c-0.334,0-0.726,0.06-1.173,0.179c-0.448,0.12-0.885,0.272-1.311,0.458h-0.243v-2.158c0.28-0.08,0.733-0.174,1.359-0.283
			c0.626-0.108,1.257-0.163,1.894-0.163c1.564,0,2.703,0.256,3.418,0.769s1.072,1.295,1.072,2.346v6.087h-2.815V177.997z
			 M324.783,176.611v-1.864c-0.48,0.048-0.869,0.089-1.165,0.123c-0.297,0.035-0.588,0.103-0.874,0.203
			c-0.248,0.085-0.441,0.214-0.578,0.387c-0.138,0.173-0.207,0.402-0.207,0.689c0,0.419,0.115,0.707,0.344,0.864
			c0.229,0.156,0.568,0.234,1.016,0.234c0.248,0,0.502-0.056,0.761-0.167S324.572,176.813,324.783,176.611z"/>
		<path d="M333.787,179.12c-1.154,0-1.994-0.233-2.521-0.7c-0.526-0.468-0.789-1.232-0.789-2.295v-4.183h-1.084v-1.943h1.084v-2.558
			h2.832v2.558h2.727v1.943h-2.727v3.171c0,0.313,0.003,0.587,0.008,0.82c0.006,0.234,0.049,0.444,0.13,0.63
			c0.075,0.186,0.209,0.333,0.4,0.442c0.191,0.108,0.471,0.163,0.838,0.163c0.15,0,0.349-0.032,0.595-0.096
			c0.245-0.063,0.416-0.122,0.514-0.176h0.242v1.968c-0.308,0.08-0.634,0.143-0.979,0.188
			C334.712,179.098,334.289,179.12,333.787,179.12z"/>
		<path d="M340.752,168.725h-2.994v-2.176h2.994V168.725z M340.671,178.945h-2.832v-8.946h2.832V178.945z"/>
		<path d="M351.082,174.476c0,1.472-0.409,2.631-1.226,3.478c-0.817,0.848-1.974,1.271-3.468,1.271
			c-1.483,0-2.636-0.424-3.459-1.271c-0.822-0.847-1.233-2.006-1.233-3.478c0-1.486,0.411-2.651,1.233-3.493
			c0.823-0.842,1.976-1.263,3.459-1.263c1.489,0,2.644,0.424,3.463,1.271C350.672,171.838,351.082,173,351.082,174.476z
			 M348.177,174.492c0-0.531-0.044-0.974-0.133-1.326c-0.09-0.354-0.212-0.637-0.368-0.849c-0.168-0.224-0.356-0.379-0.566-0.467
			c-0.211-0.087-0.451-0.131-0.721-0.131c-0.253,0-0.482,0.038-0.688,0.115s-0.394,0.225-0.566,0.442
			c-0.162,0.207-0.291,0.491-0.389,0.853c-0.097,0.361-0.146,0.815-0.146,1.362s0.046,0.989,0.138,1.326
			c0.092,0.338,0.211,0.606,0.356,0.809c0.15,0.207,0.34,0.358,0.566,0.454s0.477,0.144,0.752,0.144
			c0.227,0,0.457-0.048,0.692-0.144c0.234-0.096,0.422-0.239,0.562-0.43c0.167-0.229,0.294-0.504,0.381-0.825
			C348.134,175.505,348.177,175.061,348.177,174.492z"/>
		<path d="M361.413,178.945h-2.848v-4.438c0-0.361-0.015-0.721-0.045-1.079c-0.029-0.358-0.085-0.623-0.166-0.793
			c-0.097-0.202-0.237-0.347-0.42-0.435c-0.184-0.087-0.429-0.131-0.736-0.131c-0.232,0-0.467,0.042-0.704,0.127
			s-0.491,0.221-0.761,0.406v6.342h-2.832v-8.946h2.832v0.987c0.464-0.388,0.916-0.69,1.355-0.908s0.926-0.326,1.46-0.326
			c0.928,0,1.638,0.288,2.128,0.864c0.491,0.576,0.736,1.411,0.736,2.506V178.945z"/>
	</g>
	
		<line fill="none" stroke="#800000" stroke-width="0.7559" stroke-linecap="square" stroke-miterlimit="10" x1="252.43" y1="189.327" x2="371.437" y2="189.327"/>
	<g>
		<path d="M270.744,220.377h-4.086v4.022h-1.343v-4.022h-4.086v-1.274h4.086v-4.023h1.343v4.023h4.086V220.377z"/>
		<path d="M277.905,217.645h-0.081c-0.113-0.032-0.233-0.052-0.36-0.061c-0.126-0.008-0.279-0.012-0.457-0.012
			c-0.41,0-0.817,0.088-1.222,0.263c-0.405,0.176-0.788,0.436-1.149,0.781v6.317h-1.521v-8.898h1.521v1.322
			c0.556-0.483,1.04-0.824,1.452-1.023s0.813-0.299,1.202-0.299c0.156,0,0.274,0.004,0.352,0.012s0.166,0.02,0.263,0.036V217.645z"
			/>
		<path d="M283.06,225.141c-1.44,0-2.558-0.399-3.354-1.199c-0.796-0.799-1.193-1.935-1.193-3.405c0-1.45,0.385-2.604,1.157-3.462
			c0.771-0.857,1.78-1.286,3.026-1.286c0.561,0,1.057,0.079,1.489,0.239c0.431,0.159,0.809,0.408,1.132,0.748
			c0.324,0.341,0.572,0.756,0.745,1.247c0.172,0.491,0.259,1.093,0.259,1.805v0.813h-6.262c0,1.035,0.264,1.827,0.793,2.374
			c0.528,0.547,1.259,0.82,2.192,0.82c0.334,0,0.662-0.037,0.983-0.111c0.321-0.074,0.611-0.17,0.87-0.287
			c0.275-0.122,0.507-0.24,0.696-0.354c0.188-0.114,0.345-0.222,0.469-0.322h0.089v1.633c-0.178,0.069-0.399,0.155-0.664,0.259
			c-0.264,0.104-0.501,0.185-0.712,0.243c-0.296,0.08-0.565,0.141-0.805,0.184C283.73,225.119,283.427,225.141,283.06,225.141z
			 M284.84,219.492c-0.011-0.403-0.06-0.751-0.146-1.043c-0.086-0.292-0.21-0.539-0.373-0.741c-0.178-0.224-0.406-0.394-0.684-0.51
			c-0.278-0.117-0.622-0.176-1.032-0.176c-0.404,0-0.748,0.061-1.031,0.18s-0.541,0.293-0.773,0.521
			c-0.227,0.234-0.399,0.493-0.518,0.777c-0.119,0.284-0.194,0.614-0.227,0.991H284.84z"/>
		<path d="M295.131,228.216h-1.521v-4.254c-0.442,0.398-0.874,0.688-1.294,0.872c-0.421,0.184-0.888,0.274-1.4,0.274
			c-1.025,0-1.842-0.404-2.452-1.215c-0.609-0.81-0.914-1.937-0.914-3.382c0-0.765,0.106-1.44,0.319-2.027s0.495-1.079,0.846-1.478
			c0.334-0.388,0.733-0.688,1.197-0.9c0.464-0.212,0.947-0.318,1.448-0.318c0.464,0,0.866,0.053,1.206,0.159s0.688,0.263,1.044,0.47
			l0.097-0.382h1.424V228.216z M293.61,222.703v-5.067c-0.383-0.186-0.726-0.315-1.027-0.39c-0.302-0.074-0.626-0.111-0.971-0.111
			c-0.798,0-1.413,0.284-1.845,0.852c-0.432,0.568-0.647,1.387-0.647,2.454c0,1.041,0.173,1.842,0.518,2.402
			c0.345,0.56,0.882,0.84,1.61,0.84c0.426,0,0.842-0.09,1.246-0.271C292.898,223.231,293.271,222.995,293.61,222.703z"/>
		<path d="M304.255,224.934h-1.521v-0.988c-0.469,0.404-0.915,0.711-1.335,0.921c-0.421,0.209-0.89,0.314-1.408,0.314
			c-0.394,0-0.765-0.063-1.112-0.191c-0.348-0.127-0.651-0.329-0.91-0.605c-0.259-0.276-0.46-0.624-0.603-1.044
			c-0.143-0.419-0.214-0.929-0.214-1.529v-5.775h1.521v5.066c0,0.473,0.018,0.864,0.053,1.175c0.035,0.312,0.115,0.583,0.239,0.817
			c0.124,0.228,0.292,0.396,0.505,0.501c0.213,0.106,0.52,0.16,0.918,0.16c0.372,0,0.769-0.104,1.189-0.312
			c0.421-0.207,0.806-0.462,1.157-0.765v-6.644h1.521V224.934z"/>
		<path d="M310.182,225.141c-1.44,0-2.559-0.399-3.354-1.199c-0.795-0.799-1.193-1.935-1.193-3.405c0-1.45,0.385-2.604,1.157-3.462
			c0.771-0.857,1.78-1.286,3.026-1.286c0.561,0,1.057,0.079,1.488,0.239c0.432,0.159,0.81,0.408,1.133,0.748
			c0.324,0.341,0.572,0.756,0.744,1.247c0.173,0.491,0.26,1.093,0.26,1.805v0.813h-6.263c0,1.035,0.264,1.827,0.793,2.374
			c0.528,0.547,1.259,0.82,2.192,0.82c0.334,0,0.662-0.037,0.983-0.111c0.32-0.074,0.61-0.17,0.869-0.287
			c0.275-0.122,0.508-0.24,0.696-0.354s0.345-0.222,0.469-0.322h0.09v1.633c-0.179,0.069-0.399,0.155-0.664,0.259
			c-0.264,0.104-0.501,0.185-0.712,0.243c-0.297,0.08-0.565,0.141-0.805,0.184C310.852,225.119,310.548,225.141,310.182,225.141z
			 M311.961,219.492c-0.011-0.403-0.059-0.751-0.146-1.043c-0.086-0.292-0.21-0.539-0.372-0.741
			c-0.178-0.224-0.406-0.394-0.684-0.51c-0.278-0.117-0.622-0.176-1.031-0.176c-0.405,0-0.749,0.061-1.032,0.18
			s-0.541,0.293-0.772,0.521c-0.227,0.234-0.399,0.493-0.518,0.777c-0.119,0.284-0.194,0.614-0.227,0.991H311.961z"/>
		<path d="M318.028,225.108c-0.83,0-1.478-0.231-1.941-0.696s-0.696-1.199-0.696-2.203v-4.932h-1.027v-1.242h1.027v-2.558h1.521
			v2.558h2.8v1.242h-2.8v4.23c0,0.451,0.008,0.8,0.024,1.044c0.016,0.244,0.078,0.473,0.186,0.685
			c0.092,0.187,0.24,0.326,0.445,0.419s0.482,0.139,0.833,0.139c0.248,0,0.488-0.035,0.721-0.107
			c0.231-0.071,0.398-0.131,0.501-0.179h0.09v1.346c-0.286,0.08-0.576,0.143-0.87,0.188S318.276,225.108,318.028,225.108z"/>
		<path d="M325.241,225.141c-1.44,0-2.558-0.399-3.354-1.199c-0.796-0.799-1.193-1.935-1.193-3.405c0-1.45,0.386-2.604,1.157-3.462
			c0.771-0.857,1.779-1.286,3.025-1.286c0.562,0,1.058,0.079,1.489,0.239c0.432,0.159,0.809,0.408,1.133,0.748
			c0.323,0.341,0.571,0.756,0.744,1.247s0.259,1.093,0.259,1.805v0.813h-6.263c0,1.035,0.265,1.827,0.793,2.374
			c0.529,0.547,1.26,0.82,2.193,0.82c0.334,0,0.662-0.037,0.982-0.111c0.321-0.074,0.611-0.17,0.87-0.287
			c0.275-0.122,0.507-0.24,0.695-0.354c0.189-0.114,0.346-0.222,0.47-0.322h0.089v1.633c-0.178,0.069-0.399,0.155-0.663,0.259
			c-0.265,0.104-0.502,0.185-0.712,0.243c-0.297,0.08-0.565,0.141-0.806,0.184C325.911,225.119,325.608,225.141,325.241,225.141z
			 M327.021,219.492c-0.011-0.403-0.06-0.751-0.146-1.043c-0.087-0.292-0.211-0.539-0.372-0.741
			c-0.179-0.224-0.406-0.394-0.684-0.51c-0.278-0.117-0.622-0.176-1.032-0.176c-0.404,0-0.748,0.061-1.031,0.18
			s-0.541,0.293-0.772,0.521c-0.227,0.234-0.399,0.493-0.519,0.777c-0.118,0.284-0.194,0.614-0.227,0.991H327.021z"/>
		<path d="M334.999,228.216h-1.854c-0.938-1.1-1.676-2.263-2.213-3.489c-0.536-1.227-0.805-2.677-0.805-4.35
			c0-1.636,0.266-3.076,0.797-4.322c0.531-1.245,1.271-2.418,2.221-3.518h1.854v0.08c-0.438,0.388-0.854,0.835-1.251,1.343
			c-0.396,0.507-0.765,1.098-1.104,1.772c-0.324,0.653-0.587,1.373-0.789,2.159c-0.202,0.785-0.304,1.614-0.304,2.485
			c0,0.908,0.099,1.739,0.295,2.493c0.197,0.754,0.463,1.472,0.798,2.151c0.323,0.653,0.692,1.244,1.108,1.772
			c0.415,0.528,0.83,0.976,1.246,1.342V228.216z"/>
		<path d="M340.752,220.377c0,1.641-0.268,3.083-0.801,4.325c-0.534,1.243-1.273,2.414-2.218,3.514h-1.853v-0.08
			c0.415-0.366,0.833-0.816,1.254-1.35c0.421-0.534,0.788-1.122,1.101-1.765c0.335-0.686,0.601-1.409,0.797-2.171
			c0.197-0.763,0.296-1.587,0.296-2.474c0-0.877-0.101-1.705-0.3-2.485c-0.199-0.781-0.464-1.501-0.793-2.159
			c-0.329-0.659-0.701-1.251-1.116-1.776c-0.416-0.526-0.828-0.973-1.238-1.339v-0.08h1.853c0.939,1.1,1.677,2.269,2.213,3.506
			C340.483,217.28,340.752,218.725,340.752,220.377z"/>
	</g>
	
		<line fill="none" stroke="#800000" stroke-width="0.7559" stroke-linecap="square" stroke-miterlimit="10" x1="252.43" y1="202.679" x2="371.437" y2="202.679"/>
	
		<line fill="none" stroke="#800000" stroke-width="0.7559" stroke-linecap="square" stroke-miterlimit="10" x1="97.27" y1="156.697" x2="151.5" y2="89.952"/>
	
		<polygon fill-rule="evenodd" clip-rule="evenodd" fill="#FFFFFF" stroke="#800000" stroke-width="0.7559" stroke-linecap="square" stroke-miterlimit="10" points="
		142.461,121.1 151.5,89.952 122.878,104.784 	"/>
	
		<line fill="none" stroke="#800000" stroke-width="0.7559" stroke-linecap="square" stroke-miterlimit="10" x1="276.531" y1="156.697" x2="219.289" y2="89.952"/>
	
		<polygon fill-rule="evenodd" clip-rule="evenodd" fill="#FFFFFF" stroke="#800000" stroke-width="0.7559" stroke-linecap="square" stroke-miterlimit="10" points="
		247.91,104.784 219.289,89.952 228.327,119.616 	"/>
	
		<line fill="none" stroke="#800000" stroke-width="0.7559" stroke-linecap="square" stroke-miterlimit="10" x1="252.43" y1="187.844" x2="124.385" y2="187.844"/>
	<polyline fill="none" stroke="#800000" stroke-width="0.7559" stroke-linecap="square" stroke-miterlimit="10" points="
		139.449,181.911 124.385,187.844 139.449,193.776 	"/>
	<g>
		<path d="M141.193,208.512h-4.086v4.022h-1.343v-4.022h-4.086v-1.274h4.086v-4.023h1.343v4.023h4.086V208.512z"/>
		<path d="M147.043,213.283c-0.874,0-1.617-0.089-2.229-0.267c-0.612-0.178-1.188-0.397-1.728-0.657v-1.976h0.113
			c0.528,0.488,1.127,0.867,1.796,1.135c0.668,0.269,1.313,0.402,1.934,0.402c0.885,0,1.553-0.182,2.006-0.546
			c0.453-0.363,0.68-0.843,0.68-1.438c0-0.473-0.119-0.857-0.356-1.155c-0.237-0.297-0.615-0.518-1.133-0.661
			c-0.372-0.106-0.712-0.193-1.02-0.263c-0.307-0.069-0.693-0.162-1.157-0.279c-0.416-0.105-0.788-0.241-1.117-0.406
			c-0.329-0.164-0.62-0.38-0.874-0.646c-0.249-0.26-0.441-0.566-0.579-0.92c-0.138-0.353-0.207-0.761-0.207-1.223
			c0-0.961,0.38-1.768,1.141-2.418c0.76-0.65,1.731-0.976,2.913-0.976c0.674,0,1.312,0.066,1.914,0.199s1.158,0.321,1.671,0.565
			v1.888h-0.122c-0.383-0.345-0.874-0.646-1.473-0.904c-0.599-0.257-1.227-0.386-1.885-0.386c-0.744,0-1.346,0.171-1.804,0.514
			s-0.688,0.793-0.688,1.351c0,0.504,0.135,0.905,0.404,1.203c0.27,0.297,0.661,0.515,1.173,0.652
			c0.34,0.091,0.755,0.193,1.246,0.308c0.491,0.114,0.898,0.219,1.222,0.314c0.831,0.249,1.438,0.627,1.82,1.131
			c0.383,0.505,0.575,1.126,0.575,1.864c0,0.462-0.096,0.919-0.287,1.37c-0.192,0.452-0.46,0.834-0.805,1.147
			c-0.389,0.346-0.827,0.61-1.315,0.797C148.388,213.19,147.777,213.283,147.043,213.283z"/>
		<path d="M159.653,213.068h-1.521v-0.988c-0.469,0.404-0.915,0.711-1.335,0.921c-0.421,0.209-0.89,0.314-1.408,0.314
			c-0.394,0-0.765-0.063-1.112-0.191c-0.348-0.127-0.651-0.329-0.91-0.605c-0.259-0.276-0.46-0.624-0.603-1.044
			c-0.143-0.419-0.214-0.929-0.214-1.529v-5.775h1.521v5.066c0,0.473,0.018,0.864,0.053,1.175c0.035,0.312,0.115,0.583,0.239,0.817
			c0.124,0.228,0.292,0.396,0.505,0.501c0.213,0.106,0.52,0.16,0.918,0.16c0.372,0,0.769-0.104,1.189-0.312
			c0.421-0.207,0.806-0.462,1.157-0.765v-6.644h1.521V213.068z"/>
		<path d="M164.123,213.323c0,1.015-0.277,1.787-0.83,2.318s-1.315,0.797-2.286,0.797c-0.167,0-0.355-0.008-0.563-0.024
			c-0.208-0.016-0.414-0.04-0.619-0.071v-1.339h0.089c0.119,0.026,0.25,0.052,0.393,0.076c0.143,0.023,0.279,0.036,0.408,0.036
			c0.405,0,0.738-0.05,1-0.147c0.262-0.099,0.457-0.254,0.586-0.467c0.119-0.19,0.198-0.433,0.239-0.725s0.061-0.648,0.061-1.067
			v-7.298h-1.634v-1.242h3.156V213.323z M164.131,202.68h-1.731v-1.554h1.731V202.68z"/>
		<path d="M170.099,213.275c-1.44,0-2.558-0.399-3.354-1.199c-0.796-0.799-1.193-1.935-1.193-3.405c0-1.45,0.385-2.604,1.157-3.462
			c0.771-0.857,1.78-1.286,3.026-1.286c0.561,0,1.057,0.079,1.489,0.239c0.431,0.159,0.809,0.408,1.132,0.748
			c0.324,0.341,0.572,0.756,0.745,1.247c0.172,0.491,0.259,1.093,0.259,1.805v0.813h-6.262c0,1.035,0.264,1.827,0.793,2.374
			c0.528,0.547,1.259,0.82,2.192,0.82c0.334,0,0.662-0.037,0.983-0.111c0.321-0.074,0.611-0.17,0.87-0.287
			c0.275-0.122,0.507-0.24,0.696-0.354c0.188-0.114,0.345-0.222,0.469-0.322h0.089v1.633c-0.178,0.069-0.399,0.155-0.664,0.259
			c-0.264,0.104-0.501,0.185-0.712,0.243c-0.296,0.08-0.565,0.141-0.805,0.184C170.769,213.254,170.465,213.275,170.099,213.275z
			 M171.879,207.627c-0.011-0.403-0.06-0.751-0.146-1.043c-0.086-0.292-0.21-0.539-0.373-0.741c-0.178-0.224-0.406-0.394-0.684-0.51
			c-0.278-0.117-0.622-0.176-1.032-0.176c-0.404,0-0.748,0.061-1.031,0.18s-0.541,0.293-0.773,0.521
			c-0.227,0.234-0.399,0.493-0.518,0.777c-0.119,0.284-0.194,0.614-0.227,0.991H171.879z"/>
		<path d="M177.946,213.243c-0.831,0-1.478-0.231-1.942-0.696s-0.696-1.199-0.696-2.203v-4.932h-1.027v-1.242h1.027v-2.558h1.521
			v2.558h2.799v1.242h-2.799v4.23c0,0.451,0.008,0.8,0.024,1.044c0.017,0.244,0.078,0.473,0.187,0.685
			c0.091,0.187,0.24,0.326,0.445,0.419s0.482,0.139,0.833,0.139c0.248,0,0.488-0.035,0.72-0.107
			c0.232-0.071,0.399-0.131,0.502-0.179h0.089v1.346c-0.286,0.08-0.576,0.143-0.87,0.188S178.194,213.243,177.946,213.243z"/>
		<path d="M190.685,213.068h-2.08l-3.819-4.716h-1.829v4.716h-1.602v-11.862h3.107c0.69,0,1.269,0.037,1.736,0.111
			c0.466,0.074,0.91,0.247,1.331,0.519c0.421,0.266,0.754,0.607,1,1.027c0.245,0.42,0.368,0.939,0.368,1.562
			c0,0.871-0.224,1.599-0.672,2.183s-1.057,1.018-1.828,1.299L190.685,213.068z M187.222,204.544c0-0.345-0.062-0.651-0.186-0.92
			c-0.125-0.269-0.316-0.487-0.575-0.657c-0.227-0.148-0.491-0.254-0.793-0.314c-0.302-0.062-0.677-0.092-1.125-0.092h-1.586v4.478
			h1.408c0.458,0,0.871-0.04,1.238-0.12c0.367-0.079,0.68-0.244,0.938-0.494c0.232-0.223,0.403-0.488,0.514-0.796
			C187.166,205.319,187.222,204.958,187.222,204.544z"/>
		<path d="M195.69,213.275c-1.44,0-2.558-0.399-3.354-1.199c-0.796-0.799-1.193-1.935-1.193-3.405c0-1.45,0.385-2.604,1.157-3.462
			c0.771-0.857,1.78-1.286,3.026-1.286c0.561,0,1.057,0.079,1.489,0.239c0.431,0.159,0.809,0.408,1.132,0.748
			c0.324,0.341,0.572,0.756,0.745,1.247c0.172,0.491,0.259,1.093,0.259,1.805v0.813h-6.262c0,1.035,0.264,1.827,0.793,2.374
			c0.528,0.547,1.259,0.82,2.192,0.82c0.334,0,0.662-0.037,0.983-0.111c0.321-0.074,0.611-0.17,0.87-0.287
			c0.275-0.122,0.507-0.24,0.696-0.354c0.188-0.114,0.345-0.222,0.469-0.322h0.089v1.633c-0.178,0.069-0.399,0.155-0.664,0.259
			c-0.264,0.104-0.501,0.185-0.712,0.243c-0.296,0.08-0.565,0.141-0.805,0.184C196.361,213.254,196.057,213.275,195.69,213.275z
			 M197.471,207.627c-0.011-0.403-0.06-0.751-0.146-1.043c-0.086-0.292-0.21-0.539-0.373-0.741c-0.178-0.224-0.406-0.394-0.684-0.51
			c-0.278-0.117-0.622-0.176-1.032-0.176c-0.404,0-0.748,0.061-1.031,0.18s-0.541,0.293-0.773,0.521
			c-0.227,0.234-0.399,0.493-0.518,0.777c-0.119,0.284-0.194,0.614-0.227,0.991H197.471z"/>
		<path d="M204.728,213.275c-1.44,0-2.558-0.399-3.354-1.199c-0.796-0.799-1.193-1.935-1.193-3.405c0-1.45,0.385-2.604,1.157-3.462
			c0.771-0.857,1.78-1.286,3.026-1.286c0.561,0,1.057,0.079,1.489,0.239c0.431,0.159,0.809,0.408,1.132,0.748
			c0.324,0.341,0.572,0.756,0.745,1.247c0.172,0.491,0.259,1.093,0.259,1.805v0.813h-6.262c0,1.035,0.264,1.827,0.793,2.374
			c0.528,0.547,1.259,0.82,2.192,0.82c0.334,0,0.662-0.037,0.983-0.111c0.321-0.074,0.611-0.17,0.87-0.287
			c0.275-0.122,0.507-0.24,0.696-0.354c0.188-0.114,0.345-0.222,0.469-0.322h0.089v1.633c-0.178,0.069-0.399,0.155-0.664,0.259
			c-0.264,0.104-0.501,0.185-0.712,0.243c-0.296,0.08-0.565,0.141-0.805,0.184C205.398,213.254,205.094,213.275,204.728,213.275z
			 M206.508,207.627c-0.011-0.403-0.06-0.751-0.146-1.043c-0.086-0.292-0.21-0.539-0.373-0.741c-0.178-0.224-0.406-0.394-0.684-0.51
			c-0.278-0.117-0.622-0.176-1.032-0.176c-0.404,0-0.748,0.061-1.031,0.18s-0.541,0.293-0.773,0.521
			c-0.227,0.234-0.399,0.493-0.518,0.777c-0.119,0.284-0.194,0.614-0.227,0.991H206.508z"/>
		<path d="M211.394,213.068h-1.521v-12.396h1.521V213.068z"/>
	</g>
	
		<polygon fill-rule="evenodd" clip-rule="evenodd" fill="#FFFFB9" stroke="#800000" stroke-width="0.7559" stroke-linecap="square" stroke-miterlimit="10" points="
		427.171,204.162 589.864,204.162 604.93,218.993 604.93,235.308 427.171,235.308 427.171,204.162 	"/>
	
		<polygon fill-rule="evenodd" clip-rule="evenodd" fill="#FFFFB9" stroke="#800000" stroke-width="0.7559" stroke-linecap="square" stroke-miterlimit="10" points="
		589.864,204.162 589.864,218.993 604.93,218.993 	"/>
	<g>
		<path d="M439.28,226.62c-0.873,0-1.616-0.089-2.229-0.267s-1.188-0.397-1.728-0.657v-1.976h0.113
			c0.528,0.488,1.127,0.867,1.796,1.135c0.669,0.269,1.313,0.402,1.934,0.402c0.885,0,1.554-0.182,2.007-0.546
			c0.453-0.363,0.68-0.843,0.68-1.438c0-0.473-0.118-0.857-0.355-1.155c-0.238-0.297-0.615-0.518-1.133-0.661
			c-0.372-0.106-0.712-0.193-1.02-0.263s-0.693-0.162-1.157-0.279c-0.415-0.105-0.788-0.241-1.116-0.406
			c-0.329-0.164-0.621-0.38-0.874-0.646c-0.248-0.26-0.441-0.566-0.579-0.92c-0.137-0.353-0.206-0.761-0.206-1.223
			c0-0.961,0.381-1.768,1.141-2.418c0.761-0.65,1.731-0.976,2.913-0.976c0.674,0,1.313,0.066,1.913,0.199
			c0.602,0.133,1.159,0.321,1.671,0.565v1.888h-0.121c-0.383-0.345-0.874-0.646-1.473-0.904c-0.599-0.257-1.227-0.386-1.885-0.386
			c-0.745,0-1.346,0.171-1.805,0.514c-0.458,0.343-0.688,0.793-0.688,1.351c0,0.504,0.135,0.905,0.404,1.203
			c0.27,0.297,0.661,0.515,1.173,0.652c0.34,0.091,0.756,0.193,1.246,0.308c0.491,0.114,0.898,0.219,1.222,0.314
			c0.831,0.249,1.438,0.627,1.821,1.131c0.383,0.505,0.574,1.126,0.574,1.864c0,0.462-0.096,0.919-0.287,1.37
			c-0.191,0.452-0.46,0.834-0.806,1.147c-0.388,0.346-0.826,0.61-1.314,0.797C440.625,226.527,440.015,226.62,439.28,226.62z"/>
		<path d="M451.891,226.405h-1.521v-0.988c-0.469,0.404-0.914,0.711-1.335,0.921c-0.421,0.209-0.89,0.314-1.407,0.314
			c-0.395,0-0.765-0.063-1.113-0.191c-0.348-0.127-0.651-0.329-0.91-0.605s-0.46-0.624-0.603-1.044
			c-0.143-0.419-0.214-0.929-0.214-1.529v-5.775h1.521v5.066c0,0.473,0.018,0.864,0.053,1.175c0.035,0.312,0.114,0.583,0.238,0.817
			c0.124,0.228,0.293,0.396,0.506,0.501c0.213,0.106,0.52,0.16,0.919,0.16c0.372,0,0.769-0.104,1.189-0.312
			c0.42-0.207,0.806-0.462,1.156-0.765v-6.644h1.521V226.405z"/>
		<path d="M456.36,226.66c0,1.015-0.276,1.787-0.829,2.318c-0.554,0.531-1.315,0.797-2.286,0.797c-0.167,0-0.354-0.008-0.563-0.024
			c-0.207-0.016-0.414-0.04-0.619-0.071v-1.339h0.089c0.119,0.026,0.25,0.052,0.393,0.076c0.144,0.023,0.279,0.036,0.409,0.036
			c0.404,0,0.737-0.05,0.999-0.147c0.262-0.099,0.457-0.254,0.587-0.467c0.118-0.19,0.198-0.433,0.238-0.725
			s0.061-0.648,0.061-1.067v-7.298h-1.634v-1.242h3.155V226.66z M456.368,216.017h-1.731v-1.554h1.731V216.017z"/>
		<path d="M462.336,226.612c-1.44,0-2.558-0.399-3.354-1.199c-0.796-0.799-1.193-1.935-1.193-3.405c0-1.45,0.386-2.604,1.157-3.462
			c0.771-0.857,1.779-1.286,3.025-1.286c0.562,0,1.058,0.079,1.489,0.239c0.432,0.159,0.809,0.408,1.133,0.748
			c0.323,0.341,0.571,0.756,0.744,1.247s0.259,1.093,0.259,1.805v0.813h-6.263c0,1.035,0.265,1.827,0.793,2.374
			c0.529,0.547,1.26,0.82,2.193,0.82c0.334,0,0.662-0.037,0.982-0.111c0.321-0.074,0.611-0.17,0.87-0.287
			c0.275-0.122,0.507-0.24,0.695-0.354c0.189-0.114,0.346-0.222,0.47-0.322h0.089v1.633c-0.178,0.069-0.399,0.155-0.663,0.259
			c-0.265,0.104-0.502,0.185-0.712,0.243c-0.297,0.08-0.565,0.141-0.806,0.184C463.006,226.591,462.703,226.612,462.336,226.612z
			 M464.116,220.964c-0.011-0.403-0.06-0.751-0.146-1.043c-0.087-0.292-0.211-0.539-0.372-0.741
			c-0.179-0.224-0.406-0.394-0.684-0.51c-0.278-0.117-0.622-0.176-1.032-0.176c-0.404,0-0.748,0.061-1.031,0.18
			s-0.541,0.293-0.772,0.521c-0.227,0.234-0.399,0.493-0.519,0.777c-0.118,0.284-0.194,0.614-0.227,0.991H464.116z"/>
		<path d="M470.184,226.58c-0.83,0-1.478-0.231-1.941-0.696s-0.696-1.199-0.696-2.203v-4.932h-1.027v-1.242h1.027v-2.558h1.521
			v2.558h2.8v1.242h-2.8v4.23c0,0.451,0.008,0.8,0.024,1.044c0.016,0.244,0.078,0.473,0.186,0.685
			c0.092,0.187,0.24,0.326,0.445,0.419s0.482,0.139,0.833,0.139c0.248,0,0.488-0.035,0.721-0.107
			c0.231-0.071,0.398-0.131,0.501-0.179h0.09v1.346c-0.286,0.08-0.576,0.143-0.87,0.188S470.432,226.58,470.184,226.58z"/>
		<path d="M482.922,226.405h-2.079l-3.819-4.716h-1.828v4.716h-1.603v-11.862h3.107c0.69,0,1.269,0.037,1.735,0.111
			c0.466,0.074,0.91,0.247,1.331,0.519c0.421,0.266,0.754,0.607,0.999,1.027s0.368,0.94,0.368,1.562
			c0,0.871-0.224,1.599-0.672,2.183c-0.447,0.584-1.057,1.018-1.828,1.299L482.922,226.405z M479.459,217.881
			c0-0.345-0.063-0.651-0.187-0.92s-0.315-0.487-0.574-0.657c-0.227-0.148-0.491-0.254-0.793-0.314
			c-0.302-0.062-0.677-0.092-1.125-0.092h-1.585v4.478h1.407c0.459,0,0.871-0.04,1.238-0.12c0.366-0.079,0.68-0.244,0.938-0.494
			c0.231-0.223,0.403-0.488,0.514-0.796C479.403,218.656,479.459,218.295,479.459,217.881z"/>
		<path d="M487.928,226.612c-1.44,0-2.558-0.399-3.354-1.199c-0.796-0.799-1.193-1.935-1.193-3.405c0-1.45,0.386-2.604,1.157-3.462
			c0.771-0.857,1.779-1.286,3.025-1.286c0.562,0,1.058,0.079,1.489,0.239c0.432,0.159,0.809,0.408,1.133,0.748
			c0.323,0.341,0.571,0.756,0.744,1.247s0.259,1.093,0.259,1.805v0.813h-6.263c0,1.035,0.265,1.827,0.793,2.374
			c0.529,0.547,1.26,0.82,2.193,0.82c0.334,0,0.662-0.037,0.982-0.111c0.321-0.074,0.611-0.17,0.87-0.287
			c0.275-0.122,0.507-0.24,0.695-0.354c0.189-0.114,0.346-0.222,0.47-0.322h0.089v1.633c-0.178,0.069-0.399,0.155-0.663,0.259
			c-0.265,0.104-0.502,0.185-0.712,0.243c-0.297,0.08-0.565,0.141-0.806,0.184C488.598,226.591,488.295,226.612,487.928,226.612z
			 M489.708,220.964c-0.011-0.403-0.06-0.751-0.146-1.043c-0.087-0.292-0.211-0.539-0.372-0.741
			c-0.179-0.224-0.406-0.394-0.684-0.51c-0.278-0.117-0.622-0.176-1.032-0.176c-0.404,0-0.748,0.061-1.031,0.18
			s-0.541,0.293-0.772,0.521c-0.227,0.234-0.399,0.493-0.519,0.777c-0.118,0.284-0.194,0.614-0.227,0.991H489.708z"/>
		<path d="M496.965,226.612c-1.44,0-2.558-0.399-3.354-1.199c-0.796-0.799-1.193-1.935-1.193-3.405c0-1.45,0.386-2.604,1.157-3.462
			c0.771-0.857,1.779-1.286,3.025-1.286c0.562,0,1.058,0.079,1.489,0.239c0.432,0.159,0.809,0.408,1.133,0.748
			c0.323,0.341,0.571,0.756,0.744,1.247s0.259,1.093,0.259,1.805v0.813h-6.263c0,1.035,0.265,1.827,0.793,2.374
			c0.529,0.547,1.26,0.82,2.193,0.82c0.334,0,0.662-0.037,0.982-0.111c0.321-0.074,0.611-0.17,0.87-0.287
			c0.275-0.122,0.507-0.24,0.695-0.354c0.189-0.114,0.346-0.222,0.47-0.322h0.089v1.633c-0.178,0.069-0.399,0.155-0.663,0.259
			c-0.265,0.104-0.502,0.185-0.712,0.243c-0.297,0.08-0.565,0.141-0.806,0.184C497.635,226.591,497.332,226.612,496.965,226.612z
			 M498.745,220.964c-0.011-0.403-0.06-0.751-0.146-1.043c-0.087-0.292-0.211-0.539-0.372-0.741
			c-0.179-0.224-0.406-0.394-0.684-0.51c-0.278-0.117-0.622-0.176-1.032-0.176c-0.404,0-0.748,0.061-1.031,0.18
			s-0.541,0.293-0.772,0.521c-0.227,0.234-0.399,0.493-0.519,0.777c-0.118,0.284-0.194,0.614-0.227,0.991H498.745z"/>
		<path d="M503.632,226.405h-1.521v-12.396h1.521V226.405z"/>
		<path d="M507.473,226.405h-1.934v-2.271h1.934V226.405z"/>
		<path d="M515.903,219.116h-0.081c-0.113-0.032-0.233-0.052-0.36-0.061c-0.127-0.008-0.279-0.012-0.457-0.012
			c-0.41,0-0.817,0.088-1.222,0.263c-0.404,0.176-0.788,0.436-1.149,0.781v6.317h-1.521v-8.898h1.521v1.322
			c0.556-0.483,1.04-0.824,1.453-1.023c0.412-0.199,0.813-0.299,1.201-0.299c0.156,0,0.273,0.004,0.352,0.012
			s0.166,0.02,0.264,0.036V219.116z"/>
		<path d="M521.058,226.612c-1.44,0-2.558-0.399-3.354-1.199c-0.796-0.799-1.193-1.935-1.193-3.405c0-1.45,0.386-2.604,1.157-3.462
			c0.771-0.857,1.779-1.286,3.025-1.286c0.562,0,1.058,0.079,1.489,0.239c0.432,0.159,0.809,0.408,1.133,0.748
			c0.323,0.341,0.571,0.756,0.744,1.247s0.259,1.093,0.259,1.805v0.813h-6.263c0,1.035,0.265,1.827,0.793,2.374
			c0.529,0.547,1.26,0.82,2.193,0.82c0.334,0,0.662-0.037,0.982-0.111c0.321-0.074,0.611-0.17,0.87-0.287
			c0.275-0.122,0.507-0.24,0.695-0.354c0.189-0.114,0.346-0.222,0.47-0.322h0.089v1.633c-0.178,0.069-0.399,0.155-0.663,0.259
			c-0.265,0.104-0.502,0.185-0.712,0.243c-0.297,0.08-0.565,0.141-0.806,0.184C521.728,226.591,521.425,226.612,521.058,226.612z
			 M522.838,220.964c-0.011-0.403-0.06-0.751-0.146-1.043c-0.087-0.292-0.211-0.539-0.372-0.741
			c-0.179-0.224-0.406-0.394-0.684-0.51c-0.278-0.117-0.622-0.176-1.032-0.176c-0.404,0-0.748,0.061-1.031,0.18
			s-0.541,0.293-0.772,0.521c-0.227,0.234-0.399,0.493-0.519,0.777c-0.118,0.284-0.194,0.614-0.227,0.991H522.838z"/>
		<path d="M533.129,229.688h-1.521v-4.254c-0.441,0.398-0.873,0.688-1.294,0.872s-0.888,0.274-1.4,0.274
			c-1.024,0-1.842-0.404-2.451-1.215c-0.609-0.81-0.914-1.937-0.914-3.382c0-0.765,0.106-1.44,0.319-2.027s0.495-1.079,0.846-1.478
			c0.334-0.388,0.733-0.688,1.197-0.9c0.464-0.212,0.946-0.318,1.448-0.318c0.464,0,0.866,0.053,1.206,0.159s0.688,0.263,1.043,0.47
			l0.098-0.382h1.424V229.688z M531.607,224.175v-5.067c-0.383-0.186-0.725-0.315-1.027-0.39c-0.302-0.074-0.626-0.111-0.971-0.111
			c-0.798,0-1.413,0.284-1.845,0.852c-0.432,0.568-0.647,1.387-0.647,2.454c0,1.041,0.173,1.842,0.518,2.402
			c0.346,0.56,0.883,0.84,1.61,0.84c0.426,0,0.842-0.09,1.246-0.271S531.268,224.467,531.607,224.175z"/>
		<path d="M542.253,226.405h-1.521v-0.988c-0.469,0.404-0.914,0.711-1.335,0.921c-0.421,0.209-0.89,0.314-1.407,0.314
			c-0.395,0-0.765-0.063-1.113-0.191c-0.348-0.127-0.651-0.329-0.91-0.605s-0.46-0.624-0.603-1.044
			c-0.143-0.419-0.214-0.929-0.214-1.529v-5.775h1.521v5.066c0,0.473,0.018,0.864,0.053,1.175c0.035,0.312,0.114,0.583,0.238,0.817
			c0.124,0.228,0.293,0.396,0.506,0.501c0.213,0.106,0.52,0.16,0.919,0.16c0.372,0,0.769-0.104,1.189-0.312
			c0.42-0.207,0.806-0.462,1.156-0.765v-6.644h1.521V226.405z"/>
		<path d="M548.179,226.612c-1.44,0-2.558-0.399-3.354-1.199c-0.796-0.799-1.193-1.935-1.193-3.405c0-1.45,0.386-2.604,1.157-3.462
			c0.771-0.857,1.779-1.286,3.025-1.286c0.562,0,1.058,0.079,1.489,0.239c0.432,0.159,0.809,0.408,1.133,0.748
			c0.323,0.341,0.571,0.756,0.744,1.247s0.259,1.093,0.259,1.805v0.813h-6.263c0,1.035,0.265,1.827,0.793,2.374
			c0.529,0.547,1.26,0.82,2.193,0.82c0.334,0,0.662-0.037,0.982-0.111c0.321-0.074,0.611-0.17,0.87-0.287
			c0.275-0.122,0.507-0.24,0.695-0.354c0.189-0.114,0.346-0.222,0.47-0.322h0.089v1.633c-0.178,0.069-0.399,0.155-0.663,0.259
			c-0.265,0.104-0.502,0.185-0.712,0.243c-0.297,0.08-0.565,0.141-0.806,0.184C548.849,226.591,548.546,226.612,548.179,226.612z
			 M549.959,220.964c-0.011-0.403-0.06-0.751-0.146-1.043c-0.087-0.292-0.211-0.539-0.372-0.741
			c-0.179-0.224-0.406-0.394-0.684-0.51c-0.278-0.117-0.622-0.176-1.032-0.176c-0.404,0-0.748,0.061-1.031,0.18
			s-0.541,0.293-0.772,0.521c-0.227,0.234-0.399,0.493-0.519,0.777c-0.118,0.284-0.194,0.614-0.227,0.991H549.959z"/>
		<path d="M556.026,226.58c-0.83,0-1.478-0.231-1.941-0.696s-0.696-1.199-0.696-2.203v-4.932h-1.027v-1.242h1.027v-2.558h1.521
			v2.558h2.8v1.242h-2.8v4.23c0,0.451,0.008,0.8,0.024,1.044c0.016,0.244,0.078,0.473,0.186,0.685
			c0.092,0.187,0.24,0.326,0.445,0.419s0.482,0.139,0.833,0.139c0.248,0,0.488-0.035,0.721-0.107
			c0.231-0.071,0.398-0.131,0.501-0.179h0.09v1.346c-0.286,0.08-0.576,0.143-0.87,0.188S556.274,226.58,556.026,226.58z"/>
		<path d="M563.239,226.612c-1.44,0-2.558-0.399-3.354-1.199c-0.796-0.799-1.193-1.935-1.193-3.405c0-1.45,0.386-2.604,1.157-3.462
			c0.771-0.857,1.779-1.286,3.025-1.286c0.562,0,1.058,0.079,1.489,0.239c0.432,0.159,0.809,0.408,1.133,0.748
			c0.323,0.341,0.571,0.756,0.744,1.247s0.259,1.093,0.259,1.805v0.813h-6.263c0,1.035,0.265,1.827,0.793,2.374
			c0.529,0.547,1.26,0.82,2.193,0.82c0.334,0,0.662-0.037,0.982-0.111c0.321-0.074,0.611-0.17,0.87-0.287
			c0.275-0.122,0.507-0.24,0.695-0.354c0.189-0.114,0.346-0.222,0.47-0.322h0.089v1.633c-0.178,0.069-0.399,0.155-0.663,0.259
			c-0.265,0.104-0.502,0.185-0.712,0.243c-0.297,0.08-0.565,0.141-0.806,0.184C563.909,226.591,563.606,226.612,563.239,226.612z
			 M565.02,220.964c-0.011-0.403-0.06-0.751-0.146-1.043c-0.087-0.292-0.211-0.539-0.372-0.741c-0.179-0.224-0.406-0.394-0.684-0.51
			c-0.278-0.117-0.622-0.176-1.032-0.176c-0.404,0-0.748,0.061-1.031,0.18s-0.541,0.293-0.772,0.521
			c-0.227,0.234-0.399,0.493-0.519,0.777c-0.118,0.284-0.194,0.614-0.227,0.991H565.02z"/>
		<path d="M572.997,229.688h-1.854c-0.938-1.1-1.676-2.263-2.213-3.489c-0.536-1.227-0.805-2.677-0.805-4.35
			c0-1.636,0.266-3.076,0.797-4.322c0.531-1.245,1.271-2.418,2.221-3.518h1.854v0.08c-0.438,0.388-0.854,0.835-1.251,1.343
			c-0.396,0.507-0.765,1.098-1.104,1.772c-0.324,0.653-0.587,1.373-0.789,2.159c-0.202,0.785-0.304,1.614-0.304,2.485
			c0,0.908,0.099,1.739,0.295,2.493c0.197,0.754,0.463,1.472,0.798,2.151c0.323,0.653,0.692,1.244,1.108,1.772
			c0.415,0.528,0.83,0.976,1.246,1.342V229.688z"/>
		<path d="M578.75,221.849c0,1.641-0.268,3.083-0.801,4.325c-0.534,1.243-1.273,2.414-2.218,3.514h-1.853v-0.08
			c0.415-0.366,0.833-0.816,1.254-1.35c0.421-0.534,0.788-1.122,1.101-1.765c0.335-0.686,0.601-1.409,0.797-2.171
			c0.197-0.763,0.296-1.587,0.296-2.474c0-0.877-0.101-1.705-0.3-2.485c-0.199-0.781-0.464-1.501-0.793-2.159
			c-0.329-0.659-0.701-1.251-1.116-1.776c-0.416-0.526-0.828-0.973-1.238-1.339v-0.08h1.853c0.939,1.1,1.677,2.269,2.213,3.506
			C578.481,218.752,578.75,220.196,578.75,221.849z"/>
		<path d="M583.742,224.135l-2.266,5.218h-1.181l1.424-5.218H583.742z M583.208,219.777h-1.934v-2.271h1.934V219.777z"/>
	</g>
	
		<line fill="none" stroke="#800000" stroke-width="0.7559" stroke-linecap="square" stroke-miterlimit="10" stroke-dasharray="0.7677,1.5354" x1="427.171" y1="221.96" x2="371.437" y2="221.96"/>
</g>
</svg>
