<?xml version="1.0" encoding="utf-8"?>
<!-- Generator: Adobe Illustrator 15.0.0, SVG Export Plug-In . SVG Version: 6.00 Build 0)  -->
<!DOCTYPE svg PUBLIC "-//W3C//DTD SVG 1.1//EN" "http://www.w3.org/Graphics/SVG/1.1/DTD/svg11.dtd">
<svg version="1.1" id="Calque_1" xmlns="http://www.w3.org/2000/svg" xmlns:xlink="http://www.w3.org/1999/xlink" x="0px" y="0px"
	 width="612px" height="353px" viewBox="0 0 612 353" enable-background="new 0 0 612 353" xml:space="preserve">
<g>
	
		<rect x="10.378" y="54.35" fill-rule="evenodd" clip-rule="evenodd" fill="#FFFFB9" stroke="#800000" stroke-width="0.7559" stroke-linecap="square" stroke-miterlimit="10" width="590.178" height="287.501"/>
	
		<rect x="245.846" y="9.378" fill-rule="evenodd" clip-rule="evenodd" fill="#FFFFB9" stroke="#800000" stroke-width="0.7559" stroke-linecap="square" stroke-miterlimit="10" width="117.732" height="65.852"/>
	<g>
		<path d="M285.368,23.071h-5.067v2.424h4.662v2.45h-4.662v5.521h-3.016V20.621h8.083V23.071z"/>
		<path d="M291.208,32.44c-0.194,0.172-0.369,0.328-0.523,0.466c-0.154,0.138-0.36,0.276-0.62,0.414
			c-0.254,0.132-0.501,0.233-0.742,0.302c-0.241,0.069-0.577,0.104-1.009,0.104c-0.805,0-1.474-0.288-2.006-0.863
			c-0.533-0.575-0.799-1.299-0.799-2.174c0-0.719,0.135-1.3,0.405-1.743c0.271-0.443,0.66-0.793,1.167-1.052
			c0.514-0.265,1.127-0.449,1.84-0.552s1.481-0.184,2.303-0.242v-0.052c0-0.535-0.186-0.904-0.556-1.108s-0.925-0.306-1.666-0.306
			c-0.335,0-0.727,0.064-1.175,0.194c-0.449,0.129-0.887,0.295-1.313,0.496h-0.243v-2.338c0.281-0.086,0.735-0.188,1.362-0.306
			c0.627-0.118,1.259-0.177,1.897-0.177c1.567,0,2.709,0.277,3.425,0.833c0.716,0.555,1.074,1.402,1.074,2.541v6.591h-2.821V32.44z
			 M291.208,30.938V28.92c-0.481,0.052-0.87,0.097-1.167,0.134c-0.297,0.038-0.589,0.111-0.875,0.22
			c-0.249,0.092-0.442,0.231-0.58,0.418c-0.138,0.187-0.207,0.436-0.207,0.747c0,0.454,0.115,0.766,0.344,0.936
			c0.23,0.169,0.569,0.254,1.018,0.254c0.249,0,0.503-0.061,0.762-0.181C290.762,31.327,290.997,31.157,291.208,30.938z"/>
		<path d="M301.21,33.725c-0.751,0-1.439-0.101-2.063-0.302c-0.625-0.201-1.167-0.512-1.625-0.932
			c-0.454-0.42-0.808-0.948-1.062-1.583c-0.254-0.636-0.381-1.385-0.381-2.248c0-0.926,0.138-1.714,0.414-2.364
			c0.276-0.65,0.648-1.185,1.119-1.604c0.454-0.402,0.988-0.7,1.602-0.893c0.613-0.192,1.252-0.289,1.917-0.289
			c0.503,0,1.005,0.062,1.508,0.185c0.502,0.124,1.008,0.321,1.516,0.591v2.588h-0.365c-0.113-0.115-0.252-0.242-0.417-0.379
			c-0.165-0.138-0.344-0.265-0.539-0.38c-0.206-0.121-0.438-0.223-0.697-0.306s-0.548-0.125-0.867-0.125
			c-0.725,0-1.285,0.269-1.683,0.807c-0.397,0.538-0.596,1.261-0.596,2.169c0,0.972,0.212,1.697,0.636,2.174
			c0.424,0.478,0.988,0.716,1.69,0.716c0.357,0,0.67-0.043,0.94-0.129c0.271-0.086,0.503-0.19,0.697-0.311
			c0.189-0.121,0.351-0.246,0.486-0.375s0.251-0.246,0.349-0.349h0.365v2.588c-0.162,0.075-0.35,0.161-0.563,0.259
			c-0.213,0.098-0.431,0.178-0.652,0.242c-0.276,0.08-0.534,0.142-0.774,0.186C301.922,33.704,301.604,33.725,301.21,33.725z"/>
		<path d="M310.815,32.44c-0.194,0.172-0.369,0.328-0.522,0.466c-0.154,0.138-0.361,0.276-0.62,0.414
			c-0.255,0.132-0.502,0.233-0.742,0.302s-0.577,0.104-1.01,0.104c-0.805,0-1.474-0.288-2.005-0.863
			c-0.533-0.575-0.799-1.299-0.799-2.174c0-0.719,0.135-1.3,0.405-1.743c0.271-0.443,0.659-0.793,1.167-1.052
			c0.513-0.265,1.127-0.449,1.84-0.552c0.714-0.104,1.48-0.184,2.303-0.242v-0.052c0-0.535-0.186-0.904-0.556-1.108
			s-0.926-0.306-1.666-0.306c-0.335,0-0.727,0.064-1.176,0.194c-0.448,0.129-0.886,0.295-1.313,0.496h-0.242v-2.338
			c0.28-0.086,0.734-0.188,1.361-0.306c0.627-0.118,1.26-0.177,1.897-0.177c1.567,0,2.709,0.277,3.425,0.833
			s1.074,1.402,1.074,2.541v6.591h-2.821V32.44z M310.815,30.938V28.92c-0.48,0.052-0.87,0.097-1.167,0.134
			c-0.298,0.038-0.59,0.111-0.876,0.22c-0.248,0.092-0.441,0.231-0.579,0.418c-0.139,0.187-0.207,0.436-0.207,0.747
			c0,0.454,0.114,0.766,0.345,0.936c0.229,0.169,0.568,0.254,1.018,0.254c0.248,0,0.502-0.061,0.762-0.181
			C310.37,31.327,310.604,31.157,310.815,30.938z"/>
		<path d="M324.628,33.466h-2.837v-1.009c-0.184,0.161-0.394,0.333-0.629,0.518c-0.234,0.184-0.441,0.322-0.62,0.414
			c-0.227,0.115-0.451,0.201-0.673,0.259s-0.486,0.086-0.794,0.086c-1.038,0-1.859-0.458-2.465-1.372
			c-0.605-0.915-0.908-2.137-0.908-3.667c0-0.846,0.103-1.579,0.309-2.2c0.205-0.621,0.489-1.162,0.851-1.622
			c0.33-0.42,0.73-0.752,1.2-0.997c0.471-0.244,0.968-0.366,1.492-0.366c0.476,0,0.865,0.053,1.171,0.159
			c0.306,0.107,0.661,0.272,1.066,0.496v-4.124h2.837V33.466z M321.791,30.792v-4.753c-0.141-0.075-0.324-0.136-0.552-0.186
			c-0.227-0.049-0.421-0.073-0.583-0.073c-0.682,0-1.193,0.253-1.537,0.759c-0.343,0.506-0.515,1.213-0.515,2.122
			c0,0.955,0.137,1.645,0.41,2.07c0.272,0.426,0.714,0.639,1.325,0.639c0.248,0,0.5-0.052,0.754-0.155S321.58,30.97,321.791,30.792z
			"/>
		<path d="M331.563,33.725c-1.719,0-3.036-0.437-3.952-1.311c-0.916-0.875-1.374-2.12-1.374-3.736c0-1.581,0.427-2.844,1.28-3.787
			c0.854-0.943,2.049-1.415,3.584-1.415c1.395,0,2.442,0.4,3.146,1.199c0.702,0.799,1.054,1.944,1.054,3.433v1.087h-6.218
			c0.026,0.448,0.116,0.824,0.268,1.125c0.15,0.302,0.351,0.542,0.6,0.72c0.243,0.179,0.526,0.307,0.852,0.384
			c0.324,0.078,0.678,0.116,1.062,0.116c0.33,0,0.654-0.039,0.973-0.116c0.319-0.078,0.611-0.18,0.876-0.307
			c0.232-0.109,0.447-0.227,0.645-0.354s0.357-0.239,0.482-0.336h0.3v2.493c-0.232,0.098-0.444,0.188-0.637,0.271
			c-0.191,0.083-0.455,0.168-0.79,0.255c-0.309,0.086-0.626,0.154-0.953,0.203S332.032,33.725,331.563,33.725z M332.503,27.376
			c-0.017-0.639-0.155-1.125-0.418-1.458c-0.262-0.333-0.663-0.5-1.203-0.5c-0.552,0-0.982,0.176-1.294,0.526
			c-0.311,0.351-0.482,0.828-0.515,1.432H332.503z"/>
	</g>
	
		<line fill="none" stroke="#800000" stroke-width="0.7559" stroke-linecap="square" stroke-miterlimit="10" x1="245.846" y1="44.713" x2="365.089" y2="44.713"/>
	
		<line fill="none" stroke="#800000" stroke-width="0.7559" stroke-linecap="square" stroke-miterlimit="10" x1="245.846" y1="59.168" x2="365.089" y2="59.168"/>
	
		<rect x="31.51" y="105.747" fill-rule="evenodd" clip-rule="evenodd" fill="#FFFFB9" stroke="#800000" stroke-width="0.7559" stroke-linecap="square" stroke-miterlimit="10" width="126.79" height="65.851"/>
	
		<line fill="none" stroke="#800000" stroke-width="0.7559" stroke-linecap="square" stroke-miterlimit="10" x1="31.51" y1="141.082" x2="159.809" y2="141.082"/>
	
		<line fill="none" stroke="#800000" stroke-width="0.7559" stroke-linecap="square" stroke-miterlimit="10" x1="31.51" y1="155.537" x2="159.809" y2="155.537"/>
	
		<rect x="245.846" y="144.294" fill-rule="evenodd" clip-rule="evenodd" fill="#FFFFB9" stroke="#800000" stroke-width="0.7559" stroke-linecap="square" stroke-miterlimit="10" width="117.732" height="65.852"/>
	
		<line fill="none" stroke="#800000" stroke-width="0.7559" stroke-linecap="square" stroke-miterlimit="10" x1="245.846" y1="179.629" x2="365.089" y2="179.629"/>
	
		<line fill="none" stroke="#800000" stroke-width="0.7559" stroke-linecap="square" stroke-miterlimit="10" x1="245.846" y1="194.084" x2="365.089" y2="194.084"/>
	
		<rect x="457.161" y="105.747" fill-rule="evenodd" clip-rule="evenodd" fill="#FFFFB9" stroke="#800000" stroke-width="0.7559" stroke-linecap="square" stroke-miterlimit="10" width="126.79" height="65.851"/>
	
		<line fill="none" stroke="#800000" stroke-width="0.7559" stroke-linecap="square" stroke-miterlimit="10" x1="457.161" y1="141.082" x2="585.461" y2="141.082"/>
	
		<line fill="none" stroke="#800000" stroke-width="0.7559" stroke-linecap="square" stroke-miterlimit="10" x1="457.161" y1="155.537" x2="585.461" y2="155.537"/>
	
		<rect x="28.491" y="253.512" fill-rule="evenodd" clip-rule="evenodd" fill="#FFFFB9" stroke="#800000" stroke-width="0.7559" stroke-linecap="square" stroke-miterlimit="10" width="134.337" height="65.853"/>
	
		<line fill="none" stroke="#800000" stroke-width="0.7559" stroke-linecap="square" stroke-miterlimit="10" x1="28.491" y1="288.847" x2="164.337" y2="288.847"/>
	
		<line fill="none" stroke="#800000" stroke-width="0.7559" stroke-linecap="square" stroke-miterlimit="10" x1="28.491" y1="303.304" x2="164.337" y2="303.304"/>
	
		<rect x="360.56" y="253.512" fill-rule="evenodd" clip-rule="evenodd" fill="#FFFFB9" stroke="#800000" stroke-width="0.7559" stroke-linecap="square" stroke-miterlimit="10" width="126.79" height="65.853"/>
	
		<line fill="none" stroke="#800000" stroke-width="0.7559" stroke-linecap="square" stroke-miterlimit="10" x1="360.56" y1="288.847" x2="488.858" y2="288.847"/>
	
		<line fill="none" stroke="#800000" stroke-width="0.7559" stroke-linecap="square" stroke-miterlimit="10" x1="360.56" y1="303.304" x2="488.858" y2="303.304"/>
	
		<line fill="none" stroke="#800000" stroke-width="0.7559" stroke-linecap="square" stroke-miterlimit="10" x1="94.905" y1="253.512" x2="94.905" y2="173.204"/>
	
		<polygon fill-rule="evenodd" clip-rule="evenodd" fill="#FFFFFF" stroke="#800000" stroke-width="0.7559" stroke-linecap="square" stroke-miterlimit="10" points="
		106.98,205.328 94.905,173.204 82.83,205.328 	"/>
	
		<line fill="none" stroke="#800000" stroke-width="0.7559" stroke-linecap="square" stroke-miterlimit="10" x1="245.846" y1="70.411" x2="159.809" y2="110.565"/>
	<polyline fill="none" stroke="#800000" stroke-width="0.7559" stroke-linecap="square" stroke-miterlimit="10" points="
		170.375,99.322 159.809,110.565 174.903,110.565 	"/>
	
		<line fill="none" stroke="#800000" stroke-width="0.7559" stroke-linecap="square" stroke-miterlimit="10" x1="312.26" y1="76.836" x2="312.26" y2="144.294"/>
	<polyline fill="none" stroke="#800000" stroke-width="0.7559" stroke-linecap="square" stroke-miterlimit="10" points="
		306.222,128.233 312.26,144.294 318.296,128.233 	"/>
	
		<line fill="none" stroke="#800000" stroke-width="0.7559" stroke-linecap="square" stroke-miterlimit="10" x1="365.089" y1="70.411" x2="457.161" y2="110.565"/>
	<polyline fill="none" stroke="#800000" stroke-width="0.7559" stroke-linecap="square" stroke-miterlimit="10" points="
		442.068,110.565 457.161,110.565 446.596,99.322 	"/>
	
		<line fill="none" stroke="#800000" stroke-width="0.7559" stroke-linecap="square" stroke-miterlimit="10" x1="161.319" y1="253.512" x2="245.846" y2="208.54"/>
	<polyline fill="none" stroke="#800000" stroke-width="0.7559" stroke-linecap="square" stroke-miterlimit="10" points="
		235.28,221.389 245.846,208.54 230.751,208.54 	"/>
	
		<line fill="none" stroke="#800000" stroke-width="0.7559" stroke-linecap="square" stroke-miterlimit="10" x1="497.916" y1="173.204" x2="445.086" y2="253.512"/>
	
		<polygon fill-rule="evenodd" clip-rule="evenodd" fill="#FFFFFF" stroke="#800000" stroke-width="0.7559" stroke-linecap="square" stroke-miterlimit="10" points="
		448.104,237.451 445.086,253.512 458.671,245.481 463.2,224.601 	"/>
	<polyline fill="none" stroke="#800000" stroke-width="0.7559" stroke-linecap="square" stroke-miterlimit="10" points="
		494.897,189.266 497.916,173.204 484.331,181.235 	"/>
</g>
</svg>
