<?xml version="1.0" encoding="utf-8"?>
<!-- Generator: Adobe Illustrator 15.0.0, SVG Export Plug-In . SVG Version: 6.00 Build 0)  -->
<!DOCTYPE svg PUBLIC "-//W3C//DTD SVG 1.1//EN" "http://www.w3.org/Graphics/SVG/1.1/DTD/svg11.dtd">
<svg version="1.1" id="Calque_1" xmlns="http://www.w3.org/2000/svg" xmlns:xlink="http://www.w3.org/1999/xlink" x="0px" y="0px"
	 width="612px" height="340px" viewBox="0 0 612 340" enable-background="new 0 0 612 340" xml:space="preserve">
<g>
	
		<rect x="11.378" y="41.046" fill-rule="evenodd" clip-rule="evenodd" fill="#FFFFB9" stroke="#800000" stroke-width="0.7559" stroke-linecap="square" stroke-miterlimit="10" width="135.351" height="70.051"/>
	<g>
		<path d="M60.437,66.921c-2.082,0-3.734-0.62-4.958-1.858s-1.836-2.981-1.836-5.226c0-2.166,0.613-3.893,1.841-5.181
			c1.227-1.288,2.881-1.932,4.963-1.932c0.553,0,1.05,0.031,1.491,0.092c0.441,0.062,0.864,0.147,1.268,0.257
			c0.317,0.092,0.662,0.217,1.035,0.376c0.373,0.159,0.674,0.297,0.904,0.413v3.258H64.79c-0.168-0.147-0.379-0.323-0.634-0.528
			s-0.544-0.405-0.867-0.601c-0.323-0.196-0.679-0.362-1.067-0.5s-0.793-0.207-1.216-0.207c-0.503,0-0.964,0.078-1.384,0.234
			c-0.419,0.156-0.819,0.427-1.198,0.812c-0.348,0.349-0.632,0.82-0.853,1.414c-0.22,0.593-0.331,1.294-0.331,2.102
			c0,0.85,0.115,1.564,0.345,2.143s0.531,1.045,0.904,1.399c0.36,0.343,0.763,0.591,1.207,0.744
			c0.444,0.153,0.887,0.229,1.328,0.229c0.459,0,0.897-0.075,1.314-0.225c0.416-0.15,0.767-0.316,1.053-0.5
			c0.311-0.19,0.584-0.382,0.82-0.578c0.236-0.196,0.441-0.37,0.615-0.523h0.317v3.212c-0.255,0.117-0.55,0.25-0.885,0.399
			s-0.68,0.277-1.035,0.381c-0.435,0.128-0.842,0.226-1.221,0.293C61.624,66.888,61.102,66.921,60.437,66.921z"/>
		<path d="M69.678,66.655h-3.262V52.376h3.262V66.655z"/>
		<path d="M74.978,54.881h-3.448v-2.505h3.448V54.881z M74.885,66.655h-3.262V56.35h3.262V66.655z"/>
		<path d="M82.188,66.931c-1.976,0-3.49-0.465-4.543-1.395c-1.053-0.93-1.58-2.254-1.58-3.974c0-1.682,0.491-3.025,1.472-4.029
			c0.982-1.003,2.355-1.505,4.12-1.505c1.603,0,2.809,0.425,3.616,1.276c0.808,0.85,1.212,2.068,1.212,3.652v1.156h-7.149
			c0.031,0.477,0.134,0.876,0.308,1.197c0.174,0.321,0.404,0.577,0.69,0.767c0.279,0.189,0.606,0.326,0.979,0.408
			c0.373,0.083,0.78,0.124,1.221,0.124c0.379,0,0.751-0.042,1.118-0.124s0.702-0.191,1.007-0.326
			c0.267-0.116,0.514-0.242,0.741-0.376c0.227-0.134,0.412-0.253,0.555-0.358h0.345v2.652c-0.267,0.104-0.511,0.2-0.731,0.289
			c-0.221,0.089-0.523,0.179-0.909,0.271c-0.354,0.092-0.719,0.164-1.095,0.216C83.187,66.904,82.729,66.931,82.188,66.931z
			 M83.27,60.176c-0.019-0.679-0.179-1.196-0.48-1.551c-0.302-0.355-0.763-0.532-1.384-0.532c-0.634,0-1.129,0.187-1.487,0.56
			c-0.357,0.374-0.554,0.881-0.592,1.523H83.27z"/>
		<path d="M98.769,66.655h-3.281v-5.111c0-0.416-0.017-0.831-0.051-1.244s-0.098-0.717-0.191-0.913
			c-0.112-0.232-0.273-0.399-0.485-0.5c-0.211-0.101-0.494-0.151-0.848-0.151c-0.267,0-0.537,0.049-0.811,0.146
			c-0.273,0.098-0.565,0.254-0.876,0.468v7.305h-3.262V56.35h3.262v1.138c0.534-0.447,1.054-0.795,1.561-1.046
			c0.506-0.251,1.067-0.376,1.682-0.376c1.069,0,1.886,0.332,2.451,0.996c0.565,0.664,0.848,1.625,0.848,2.886V66.655z"/>
		<path d="M105.134,66.857c-1.33,0-2.298-0.269-2.903-0.807c-0.606-0.539-0.909-1.419-0.909-2.643v-4.818h-1.249V56.35h1.249v-2.946
			h3.262v2.946h3.141v2.239h-3.141v3.652c0,0.361,0.003,0.676,0.01,0.945c0.006,0.269,0.056,0.511,0.149,0.725
			c0.087,0.214,0.241,0.384,0.461,0.509c0.22,0.125,0.542,0.188,0.964,0.188c0.174,0,0.402-0.037,0.685-0.11
			c0.283-0.073,0.48-0.141,0.592-0.202h0.28v2.267c-0.354,0.092-0.73,0.164-1.128,0.216
			C106.199,66.831,105.711,66.857,105.134,66.857z"/>
	</g>
	
		<line fill="none" stroke="#800000" stroke-width="0.7559" stroke-linecap="square" stroke-miterlimit="10" x1="11.378" y1="78.635" x2="148.464" y2="78.635"/>
	
		<line fill="none" stroke="#800000" stroke-width="0.7559" stroke-linecap="square" stroke-miterlimit="10" x1="11.378" y1="94.012" x2="148.464" y2="94.012"/>
	
		<rect x="254.316" y="41.046" fill-rule="evenodd" clip-rule="evenodd" fill="#FFFFB9" stroke="#800000" stroke-width="0.7559" stroke-linecap="square" stroke-miterlimit="10" width="168.322" height="92.263"/>
	<g>
		<path stroke="#000000" stroke-width="0.2376" stroke-miterlimit="10" d="M283.979,66.931c-0.981,0-1.83-0.147-2.544-0.44
			c-0.715-0.294-1.263-0.741-1.645-1.34c-0.379-0.606-0.572-1.355-0.58-2.249c-0.009-0.893,0.184-1.92,0.578-3.083
			c0.373-1.102,0.864-2.088,1.473-2.96c0.608-0.872,1.31-1.616,2.103-2.234c0.769-0.6,1.621-1.062,2.557-1.386
			c0.936-0.325,1.895-0.486,2.876-0.486c0.466,0,0.902,0.033,1.308,0.101c0.406,0.068,0.785,0.159,1.138,0.275
			c0.279,0.092,0.583,0.219,0.91,0.381c0.328,0.163,0.589,0.302,0.786,0.418l-0.742,2.193h-0.158
			c-0.162-0.203-0.335-0.393-0.519-0.573c-0.185-0.181-0.465-0.375-0.842-0.583c-0.311-0.184-0.688-0.336-1.132-0.458
			c-0.443-0.123-0.944-0.184-1.503-0.184c-1.336,0-2.583,0.496-3.741,1.486c-1.16,0.992-2.018,2.31-2.574,3.955
			c-0.311,0.918-0.474,1.72-0.488,2.405c-0.014,0.685,0.103,1.266,0.352,1.744c0.238,0.471,0.597,0.831,1.074,1.078
			c0.479,0.248,1.069,0.372,1.771,0.372c0.521,0,1.053-0.036,1.594-0.11c0.541-0.073,1.013-0.183,1.417-0.331l1.196-3.533h-3.206
			l0.54-1.597h5.032l-2.02,5.965c-0.271,0.104-0.63,0.236-1.078,0.394c-0.45,0.159-0.86,0.285-1.232,0.376
			c-0.5,0.135-0.944,0.236-1.333,0.303C284.956,66.896,284.501,66.931,283.979,66.931z"/>
		<path stroke="#000000" stroke-width="0.2376" stroke-miterlimit="10" d="M296.43,66.903c-1.659,0-2.792-0.46-3.396-1.381
			c-0.605-0.921-0.621-2.229-0.047-3.923c0.566-1.671,1.46-3,2.684-3.988c1.223-0.988,2.552-1.482,3.987-1.482
			c0.646,0,1.187,0.092,1.622,0.275c0.435,0.184,0.773,0.472,1.014,0.863c0.24,0.392,0.363,0.871,0.371,1.436
			c0.007,0.566-0.128,1.259-0.406,2.08l-0.317,0.936h-7.214c-0.403,1.192-0.408,2.104-0.013,2.734
			c0.396,0.63,1.131,0.945,2.207,0.945c0.385,0,0.777-0.042,1.175-0.128c0.399-0.086,0.771-0.196,1.114-0.331
			c0.365-0.141,0.677-0.276,0.94-0.409c0.263-0.131,0.484-0.255,0.667-0.371h0.103l-0.637,1.881
			c-0.232,0.08-0.521,0.179-0.866,0.299c-0.345,0.119-0.65,0.212-0.915,0.279c-0.374,0.092-0.706,0.163-0.999,0.211
			C297.209,66.878,296.852,66.903,296.43,66.903z M300.682,60.396c0.146-0.465,0.225-0.866,0.24-1.203
			c0.014-0.335-0.032-0.621-0.14-0.853c-0.118-0.257-0.314-0.454-0.59-0.587c-0.274-0.135-0.647-0.203-1.12-0.203
			c-0.466,0-0.885,0.069-1.258,0.207c-0.373,0.137-0.736,0.338-1.093,0.601c-0.353,0.27-0.652,0.568-0.9,0.895
			c-0.247,0.328-0.463,0.708-0.647,1.143H300.682z"/>
		<path stroke="#000000" stroke-width="0.2376" stroke-miterlimit="10" d="M306.848,66.912c-0.695,0-1.315-0.091-1.858-0.275
			c-0.544-0.184-0.979-0.379-1.307-0.587l0.655-1.936h0.094c0.11,0.116,0.241,0.245,0.396,0.386s0.373,0.288,0.658,0.44
			c0.252,0.134,0.541,0.253,0.862,0.358c0.321,0.104,0.675,0.156,1.062,0.156c0.279,0,0.588-0.032,0.927-0.096
			c0.339-0.064,0.603-0.146,0.791-0.244c0.265-0.14,0.473-0.29,0.623-0.449c0.149-0.159,0.279-0.398,0.387-0.716
			c0.139-0.41,0.129-0.719-0.026-0.927c-0.157-0.207-0.5-0.382-1.03-0.522c-0.205-0.056-0.476-0.119-0.812-0.192
			c-0.335-0.074-0.641-0.153-0.916-0.239c-0.719-0.227-1.178-0.577-1.377-1.051c-0.2-0.475-0.186-1.048,0.042-1.721
			c0.313-0.923,0.922-1.676,1.826-2.257c0.906-0.581,1.945-0.872,3.12-0.872c0.578,0,1.136,0.07,1.671,0.212
			c0.537,0.141,0.967,0.317,1.293,0.532l-0.624,1.845h-0.094c-0.329-0.349-0.734-0.625-1.217-0.826
			c-0.481-0.202-1.002-0.303-1.561-0.303c-0.578,0-1.106,0.12-1.585,0.358c-0.479,0.238-0.799,0.599-0.962,1.082
			c-0.146,0.428-0.137,0.749,0.028,0.959c0.165,0.211,0.485,0.384,0.962,0.519c0.238,0.068,0.506,0.133,0.805,0.197
			c0.299,0.063,0.61,0.139,0.936,0.225c0.705,0.189,1.179,0.505,1.417,0.945c0.24,0.44,0.231,1.04-0.025,1.798
			c-0.149,0.441-0.38,0.858-0.689,1.253c-0.311,0.394-0.686,0.732-1.122,1.014c-0.477,0.306-0.977,0.538-1.499,0.697
			C308.172,66.833,307.557,66.912,306.848,66.912z"/>
		<path stroke="#000000" stroke-width="0.2376" stroke-miterlimit="10" d="M317.607,66.866c-0.957,0-1.612-0.267-1.965-0.803
			c-0.354-0.536-0.334-1.381,0.059-2.537l1.922-5.681h-1.184l0.484-1.432h1.185l0.997-2.945h1.752l-0.997,2.945h3.225l-0.485,1.432
			h-3.225l-1.649,4.873c-0.176,0.52-0.303,0.92-0.38,1.203c-0.076,0.281-0.093,0.544-0.052,0.789
			c0.033,0.213,0.149,0.375,0.35,0.482c0.2,0.106,0.501,0.16,0.905,0.16c0.285,0,0.576-0.041,0.871-0.124
			c0.296-0.082,0.512-0.15,0.648-0.206h0.103l-0.525,1.551c-0.36,0.091-0.718,0.164-1.075,0.215
			C318.215,66.84,317.893,66.866,317.607,66.866z"/>
		<path stroke="#000000" stroke-width="0.2376" stroke-miterlimit="10" d="M324.99,66.664h-1.752l3.47-10.25h1.752L324.99,66.664z
			 M329.162,54.698h-1.994l0.605-1.79h1.994L329.162,54.698z"/>
		<path stroke="#000000" stroke-width="0.2376" stroke-miterlimit="10" d="M338.701,61.543c-0.584,1.725-1.457,3.057-2.62,3.997
			c-1.163,0.938-2.446,1.409-3.851,1.409c-1.448,0-2.422-0.486-2.924-1.455c-0.501-0.969-0.47-2.287,0.094-3.951
			c0.58-1.713,1.457-3.043,2.633-3.992c1.175-0.948,2.461-1.422,3.859-1.422c1.404,0,2.369,0.473,2.895,1.417
			C339.313,58.492,339.283,59.825,338.701,61.543z M336.893,61.543c0.45-1.327,0.539-2.314,0.266-2.959
			c-0.271-0.646-0.861-0.969-1.769-0.969c-0.913,0-1.727,0.323-2.438,0.969c-0.713,0.645-1.293,1.632-1.742,2.959
			c-0.436,1.285-0.52,2.259-0.25,2.923s0.861,0.996,1.774,0.996c0.9,0,1.709-0.326,2.424-0.977
			C335.871,63.833,336.449,62.853,336.893,61.543z"/>
		<path stroke="#000000" stroke-width="0.2376" stroke-miterlimit="10" d="M348.725,66.664h-1.752l1.976-5.836
			c0.159-0.471,0.284-0.91,0.376-1.316c0.091-0.407,0.112-0.732,0.065-0.978c-0.057-0.257-0.19-0.448-0.402-0.574
			c-0.212-0.125-0.539-0.188-0.98-0.188c-0.435,0-0.923,0.115-1.463,0.344c-0.541,0.229-1.094,0.527-1.659,0.895l-2.592,7.653
			h-1.752l3.471-10.25h1.752l-0.385,1.138c0.678-0.459,1.313-0.811,1.904-1.056c0.592-0.244,1.172-0.366,1.736-0.366
			c1.025,0,1.714,0.332,2.068,0.996c0.353,0.664,0.316,1.626-0.11,2.886L348.725,66.664z"/>
		<path stroke="#000000" stroke-width="0.2376" stroke-miterlimit="10" d="M360.857,66.664h-1.752l1.976-5.836
			c0.159-0.471,0.284-0.91,0.376-1.316c0.091-0.407,0.112-0.732,0.065-0.978c-0.057-0.257-0.19-0.448-0.402-0.574
			c-0.212-0.125-0.539-0.188-0.98-0.188c-0.435,0-0.923,0.115-1.463,0.344c-0.541,0.229-1.094,0.527-1.659,0.895l-2.592,7.653
			h-1.752l3.471-10.25h1.752l-0.385,1.138c0.678-0.459,1.313-0.811,1.904-1.056c0.592-0.244,1.172-0.366,1.736-0.366
			c1.025,0,1.714,0.332,2.068,0.996c0.353,0.664,0.316,1.626-0.11,2.886L360.857,66.664z"/>
		<path stroke="#000000" stroke-width="0.2376" stroke-miterlimit="10" d="M370.992,65.572c-0.178,0.104-0.418,0.25-0.721,0.437
			c-0.303,0.186-0.584,0.335-0.846,0.445c-0.364,0.159-0.705,0.281-1.023,0.368c-0.316,0.085-0.737,0.128-1.259,0.128
			c-0.429,0-0.81-0.08-1.141-0.239s-0.595-0.383-0.789-0.67c-0.185-0.281-0.29-0.628-0.318-1.042
			c-0.028-0.413,0.036-0.849,0.191-1.307c0.24-0.71,0.597-1.314,1.069-1.813c0.474-0.499,1.09-0.895,1.848-1.188
			c0.674-0.263,1.425-0.445,2.254-0.546c0.83-0.101,1.713-0.176,2.648-0.225l0.111-0.331c0.137-0.404,0.186-0.729,0.146-0.978
			c-0.041-0.248-0.15-0.438-0.328-0.574c-0.176-0.141-0.418-0.234-0.726-0.279c-0.308-0.046-0.632-0.069-0.974-0.069
			c-0.404,0-0.899,0.06-1.487,0.18c-0.587,0.119-1.192,0.292-1.815,0.518h-0.103l0.594-1.753c0.354-0.092,0.852-0.192,1.49-0.303
			c0.641-0.11,1.256-0.166,1.847-0.166c0.714,0,1.298,0.056,1.751,0.166c0.455,0.11,0.828,0.309,1.122,0.597
			c0.283,0.281,0.443,0.646,0.479,1.091c0.036,0.447-0.056,0.992-0.273,1.634l-2.374,7.011h-1.742L370.992,65.572z M371.477,64.141
			l0.963-2.845c-0.428,0.037-0.971,0.087-1.63,0.152c-0.659,0.064-1.204,0.154-1.635,0.271c-0.514,0.141-0.972,0.356-1.374,0.646
			c-0.403,0.291-0.692,0.696-0.869,1.216c-0.198,0.586-0.181,1.031,0.053,1.331c0.234,0.299,0.675,0.449,1.32,0.449
			c0.554,0,1.094-0.117,1.621-0.353C370.452,64.772,370.971,64.483,371.477,64.141z"/>
		<path stroke="#000000" stroke-width="0.2376" stroke-miterlimit="10" d="M378.734,66.664h-1.752l3.47-10.25h1.752L378.734,66.664z
			 M382.906,54.698h-1.994l0.605-1.79h1.994L382.906,54.698z"/>
		<path stroke="#000000" stroke-width="0.2376" stroke-miterlimit="10" d="M390.508,58.267h-0.094
			c-0.118-0.036-0.249-0.059-0.392-0.068c-0.144-0.009-0.316-0.014-0.521-0.014c-0.473,0-0.976,0.101-1.511,0.302
			c-0.534,0.203-1.077,0.502-1.628,0.9l-2.464,7.277h-1.752l3.471-10.25h1.752l-0.516,1.523c0.829-0.557,1.52-0.95,2.072-1.18
			c0.553-0.229,1.054-0.344,1.501-0.344c0.18,0,0.313,0.004,0.4,0.014s0.183,0.023,0.289,0.042L390.508,58.267z"/>
		<path stroke="#000000" stroke-width="0.2376" stroke-miterlimit="10" d="M395.26,66.903c-1.659,0-2.792-0.46-3.396-1.381
			c-0.604-0.921-0.62-2.229-0.047-3.923c0.566-1.671,1.46-3,2.684-3.988c1.223-0.988,2.553-1.482,3.986-1.482
			c0.646,0,1.188,0.092,1.622,0.275c0.435,0.184,0.773,0.472,1.014,0.863c0.239,0.392,0.363,0.871,0.371,1.436
			c0.007,0.566-0.128,1.259-0.405,2.08l-0.317,0.936h-7.214c-0.403,1.192-0.408,2.104-0.013,2.734
			c0.396,0.63,1.132,0.945,2.206,0.945c0.385,0,0.777-0.042,1.176-0.128c0.399-0.086,0.771-0.196,1.113-0.331
			c0.365-0.141,0.678-0.276,0.94-0.409c0.263-0.131,0.484-0.255,0.667-0.371h0.103l-0.637,1.881
			c-0.232,0.08-0.521,0.179-0.866,0.299c-0.345,0.119-0.65,0.212-0.914,0.279c-0.374,0.092-0.706,0.163-0.999,0.211
			C396.039,66.878,395.682,66.903,395.26,66.903z M399.512,60.396c0.146-0.465,0.225-0.866,0.24-1.203
			c0.014-0.335-0.032-0.621-0.14-0.853c-0.118-0.257-0.314-0.454-0.59-0.587c-0.274-0.135-0.647-0.203-1.12-0.203
			c-0.465,0-0.885,0.069-1.258,0.207c-0.373,0.137-0.736,0.338-1.093,0.601c-0.353,0.27-0.652,0.568-0.9,0.895
			c-0.247,0.328-0.463,0.708-0.647,1.143H399.512z"/>
	</g>
	
		<line fill="none" stroke="#800000" stroke-width="0.7559" stroke-linecap="square" stroke-miterlimit="10" x1="254.316" y1="78.635" x2="424.372" y2="78.635"/>
	<g>
		<path d="M277.191,114.369h-4.707l-1.569,4.634h-1.547l1.569-4.634h-4.707l0.497-1.468h4.707l1.568-4.634h1.547l-1.568,4.634h4.707
			L277.191,114.369z"/>
		<path d="M284.002,119.885c-0.981,0-1.83-0.147-2.545-0.44c-0.715-0.294-1.263-0.741-1.644-1.34
			c-0.379-0.606-0.572-1.355-0.581-2.249c-0.008-0.893,0.184-1.92,0.578-3.083c0.373-1.102,0.864-2.088,1.473-2.96
			c0.609-0.872,1.31-1.616,2.104-2.234c0.769-0.601,1.621-1.062,2.557-1.386c0.937-0.325,1.896-0.486,2.877-0.486
			c0.466,0,0.901,0.033,1.308,0.101c0.406,0.067,0.785,0.159,1.137,0.275c0.279,0.092,0.583,0.219,0.91,0.381
			c0.328,0.163,0.589,0.302,0.786,0.418l-0.743,2.193h-0.158c-0.162-0.203-0.334-0.393-0.519-0.573
			c-0.185-0.181-0.465-0.375-0.842-0.583c-0.311-0.184-0.688-0.336-1.132-0.459c-0.442-0.123-0.943-0.184-1.503-0.184
			c-1.336,0-2.583,0.496-3.741,1.487c-1.16,0.992-2.018,2.31-2.575,3.955c-0.311,0.917-0.474,1.72-0.488,2.405
			c-0.015,0.685,0.103,1.266,0.351,1.743c0.238,0.471,0.597,0.831,1.075,1.078c0.479,0.248,1.069,0.372,1.771,0.372
			c0.521,0,1.052-0.036,1.594-0.11c0.54-0.073,1.012-0.184,1.417-0.331l1.196-3.533h-3.206l0.541-1.597h5.032l-2.02,5.965
			c-0.271,0.104-0.631,0.236-1.079,0.394c-0.449,0.159-0.86,0.285-1.231,0.376c-0.5,0.135-0.944,0.236-1.333,0.303
			C284.979,119.851,284.523,119.885,284.002,119.885z"/>
		<path d="M294.733,119.857c-1.659,0-2.791-0.46-3.396-1.381c-0.605-0.921-0.621-2.229-0.047-3.923c0.565-1.67,1.46-3,2.683-3.987
			c1.224-0.988,2.553-1.482,3.987-1.482c0.646,0,1.187,0.092,1.622,0.275c0.435,0.184,0.772,0.472,1.014,0.863
			c0.239,0.391,0.363,0.871,0.371,1.436c0.007,0.566-0.128,1.259-0.406,2.08l-0.317,0.936h-7.214
			c-0.404,1.192-0.408,2.104-0.012,2.734s1.131,0.945,2.206,0.945c0.385,0,0.777-0.042,1.175-0.129
			c0.399-0.086,0.771-0.196,1.114-0.33c0.365-0.141,0.678-0.276,0.94-0.409c0.262-0.131,0.483-0.255,0.666-0.371h0.103l-0.636,1.88
			c-0.232,0.08-0.521,0.18-0.866,0.299c-0.345,0.12-0.65,0.213-0.915,0.279c-0.373,0.093-0.706,0.163-0.999,0.212
			C295.514,119.832,295.155,119.857,294.733,119.857z M298.986,113.351c0.146-0.465,0.225-0.866,0.24-1.203
			c0.014-0.336-0.032-0.621-0.141-0.853c-0.118-0.257-0.314-0.453-0.589-0.587c-0.274-0.135-0.647-0.203-1.12-0.203
			c-0.466,0-0.885,0.069-1.259,0.207c-0.372,0.137-0.736,0.337-1.093,0.6c-0.352,0.271-0.652,0.568-0.899,0.896
			c-0.248,0.328-0.463,0.708-0.647,1.143H298.986z"/>
		<path d="M309.064,111.221h-0.093c-0.118-0.036-0.249-0.059-0.392-0.068c-0.144-0.009-0.316-0.014-0.521-0.014
			c-0.473,0-0.977,0.101-1.511,0.303c-0.534,0.203-1.078,0.502-1.628,0.9l-2.464,7.277h-1.752l3.47-10.25h1.752l-0.516,1.523
			c0.83-0.557,1.52-0.95,2.072-1.18c0.554-0.229,1.055-0.344,1.502-0.344c0.18,0,0.313,0.004,0.4,0.014
			c0.086,0.009,0.183,0.023,0.288,0.042L309.064,111.221z"/>
		<path d="M312.079,119.857c-1.659,0-2.791-0.46-3.396-1.381c-0.605-0.921-0.621-2.229-0.047-3.923c0.565-1.67,1.46-3,2.683-3.987
			c1.224-0.988,2.553-1.482,3.987-1.482c0.646,0,1.187,0.092,1.622,0.275c0.435,0.184,0.772,0.472,1.014,0.863
			c0.239,0.391,0.363,0.871,0.371,1.436c0.007,0.566-0.128,1.259-0.406,2.08l-0.317,0.936h-7.213
			c-0.404,1.192-0.408,2.104-0.013,2.734s1.131,0.945,2.206,0.945c0.385,0,0.777-0.042,1.176-0.129
			c0.398-0.086,0.77-0.196,1.113-0.33c0.365-0.141,0.678-0.276,0.94-0.409c0.262-0.131,0.483-0.255,0.666-0.371h0.103l-0.637,1.88
			c-0.231,0.08-0.521,0.18-0.865,0.299c-0.346,0.12-0.65,0.213-0.915,0.279c-0.373,0.093-0.706,0.163-0.999,0.212
			C312.859,119.832,312.501,119.857,312.079,119.857z M316.332,113.351c0.146-0.465,0.225-0.866,0.24-1.203
			c0.014-0.336-0.032-0.621-0.141-0.853c-0.117-0.257-0.314-0.453-0.589-0.587c-0.274-0.135-0.647-0.203-1.12-0.203
			c-0.466,0-0.885,0.069-1.259,0.207c-0.372,0.137-0.736,0.337-1.093,0.6c-0.352,0.271-0.652,0.568-0.899,0.896
			c-0.248,0.328-0.464,0.708-0.647,1.143H316.332z"/>
		<path d="M328.936,119.618h-2.395l-2.561-5.433h-2.106l-1.839,5.433h-1.846l4.626-13.664h3.579c0.795,0,1.447,0.042,1.955,0.128
			c0.509,0.086,0.953,0.285,1.332,0.597c0.381,0.306,0.631,0.701,0.75,1.184c0.119,0.484,0.058,1.083-0.185,1.799
			c-0.34,1.003-0.882,1.842-1.625,2.514c-0.743,0.673-1.614,1.172-2.612,1.496L328.936,119.618z M328.271,109.798
			c0.135-0.396,0.182-0.75,0.144-1.059c-0.038-0.309-0.173-0.562-0.405-0.757c-0.203-0.171-0.467-0.292-0.79-0.363
			c-0.324-0.07-0.744-0.105-1.261-0.105h-1.826l-1.746,5.158h1.621c0.528,0,1.02-0.046,1.474-0.138
			c0.453-0.091,0.878-0.281,1.273-0.569c0.354-0.257,0.655-0.563,0.902-0.917C327.904,110.692,328.11,110.276,328.271,109.798z"/>
		<path d="M334.621,119.857c-1.659,0-2.791-0.46-3.396-1.381c-0.604-0.921-0.62-2.229-0.047-3.923c0.565-1.67,1.46-3,2.683-3.987
			c1.224-0.988,2.553-1.482,3.987-1.482c0.646,0,1.187,0.092,1.622,0.275c0.435,0.184,0.772,0.472,1.014,0.863
			c0.239,0.391,0.363,0.871,0.371,1.436c0.007,0.566-0.129,1.259-0.406,2.08l-0.316,0.936h-7.215
			c-0.403,1.192-0.407,2.104-0.012,2.734s1.131,0.945,2.206,0.945c0.385,0,0.777-0.042,1.175-0.129
			c0.4-0.086,0.771-0.196,1.114-0.33c0.365-0.141,0.678-0.276,0.94-0.409c0.262-0.131,0.483-0.255,0.666-0.371h0.103l-0.636,1.88
			c-0.232,0.08-0.521,0.18-0.866,0.299c-0.345,0.12-0.65,0.213-0.915,0.279c-0.373,0.093-0.705,0.163-0.998,0.212
			C335.401,119.832,335.043,119.857,334.621,119.857z M338.874,113.351c0.146-0.465,0.225-0.866,0.24-1.203
			c0.014-0.336-0.032-0.621-0.141-0.853c-0.118-0.257-0.313-0.453-0.589-0.587c-0.274-0.135-0.647-0.203-1.12-0.203
			c-0.466,0-0.885,0.069-1.259,0.207c-0.372,0.137-0.736,0.337-1.093,0.6c-0.353,0.271-0.652,0.568-0.899,0.896
			c-0.248,0.328-0.463,0.708-0.647,1.143H338.874z"/>
		<path d="M347.328,123.399h-1.752l1.658-4.9c-0.665,0.459-1.275,0.793-1.832,1.004c-0.556,0.211-1.129,0.316-1.72,0.316
			c-1.181,0-1.964-0.466-2.35-1.399c-0.388-0.933-0.298-2.231,0.265-3.895c0.299-0.882,0.686-1.66,1.159-2.336
			c0.475-0.676,0.991-1.243,1.55-1.702c0.537-0.447,1.114-0.793,1.731-1.038c0.617-0.244,1.215-0.366,1.792-0.366
			c0.534,0,0.978,0.061,1.326,0.183c0.351,0.122,0.691,0.303,1.021,0.541l0.261-0.44h1.641L347.328,123.399z M347.726,117.049
			l1.976-5.837c-0.369-0.214-0.713-0.364-1.032-0.45c-0.319-0.085-0.677-0.128-1.075-0.128c-0.92,0-1.738,0.328-2.457,0.982
			s-1.285,1.597-1.702,2.827c-0.405,1.199-0.52,2.121-0.341,2.767c0.18,0.646,0.689,0.968,1.527,0.968
			c0.49,0,1.004-0.104,1.541-0.312C346.699,117.657,347.22,117.385,347.726,117.049z"/>
		<path d="M359.117,119.618h-1.752l0.385-1.138c-0.698,0.465-1.329,0.818-1.896,1.06c-0.566,0.241-1.148,0.363-1.744,0.363
			c-0.454,0-0.855-0.074-1.207-0.221c-0.352-0.146-0.622-0.379-0.812-0.697c-0.191-0.317-0.287-0.719-0.288-1.202
			c-0.001-0.484,0.115-1.071,0.35-1.762l2.252-6.653h1.752l-1.976,5.836c-0.185,0.545-0.317,0.996-0.397,1.354
			c-0.081,0.358-0.096,0.671-0.044,0.94c0.054,0.264,0.184,0.456,0.388,0.578c0.203,0.123,0.535,0.184,0.995,0.184
			c0.429,0,0.926-0.119,1.491-0.358c0.564-0.239,1.109-0.533,1.631-0.881l2.592-7.653h1.752L359.117,119.618z"/>
		<path d="M365.863,119.857c-1.659,0-2.791-0.46-3.396-1.381c-0.604-0.921-0.62-2.229-0.047-3.923c0.565-1.67,1.46-3,2.683-3.987
			c1.224-0.988,2.553-1.482,3.987-1.482c0.646,0,1.187,0.092,1.622,0.275c0.435,0.184,0.772,0.472,1.014,0.863
			c0.239,0.391,0.363,0.871,0.371,1.436c0.007,0.566-0.129,1.259-0.406,2.08l-0.316,0.936h-7.215
			c-0.403,1.192-0.407,2.104-0.012,2.734s1.131,0.945,2.206,0.945c0.385,0,0.777-0.042,1.175-0.129
			c0.4-0.086,0.771-0.196,1.114-0.33c0.365-0.141,0.678-0.276,0.94-0.409c0.262-0.131,0.483-0.255,0.666-0.371h0.103l-0.636,1.88
			c-0.232,0.08-0.521,0.18-0.866,0.299c-0.345,0.12-0.65,0.213-0.915,0.279c-0.373,0.093-0.705,0.163-0.998,0.212
			C366.644,119.832,366.285,119.857,365.863,119.857z M370.116,113.351c0.146-0.465,0.225-0.866,0.24-1.203
			c0.014-0.336-0.032-0.621-0.141-0.853c-0.118-0.257-0.313-0.453-0.589-0.587c-0.274-0.135-0.647-0.203-1.12-0.203
			c-0.466,0-0.885,0.069-1.259,0.207c-0.372,0.137-0.736,0.337-1.093,0.6c-0.353,0.271-0.652,0.568-0.899,0.896
			c-0.248,0.328-0.463,0.708-0.647,1.143H370.116z"/>
		<path d="M374.916,119.82c-0.957,0-1.612-0.267-1.965-0.803c-0.354-0.536-0.334-1.381,0.058-2.537l1.923-5.681h-1.185l0.485-1.432
			h1.184l0.998-2.945h1.752l-0.998,2.945h3.225l-0.484,1.432h-3.225l-1.649,4.873c-0.176,0.52-0.303,0.92-0.38,1.202
			c-0.076,0.281-0.094,0.544-0.053,0.789c0.033,0.214,0.15,0.375,0.35,0.482c0.201,0.106,0.502,0.16,0.906,0.16
			c0.285,0,0.576-0.041,0.871-0.124c0.295-0.082,0.511-0.151,0.648-0.206h0.102l-0.524,1.551c-0.36,0.091-0.719,0.164-1.075,0.215
			S375.201,119.82,374.916,119.82z"/>
		<path d="M383.211,119.857c-1.659,0-2.791-0.46-3.396-1.381c-0.604-0.921-0.62-2.229-0.047-3.923c0.565-1.67,1.46-3,2.683-3.987
			c1.224-0.988,2.553-1.482,3.987-1.482c0.646,0,1.187,0.092,1.622,0.275c0.435,0.184,0.772,0.472,1.014,0.863
			c0.239,0.391,0.363,0.871,0.371,1.436c0.007,0.566-0.129,1.259-0.406,2.08l-0.316,0.936h-7.215
			c-0.403,1.192-0.407,2.104-0.012,2.734s1.131,0.945,2.206,0.945c0.385,0,0.777-0.042,1.175-0.129
			c0.4-0.086,0.771-0.196,1.114-0.33c0.365-0.141,0.678-0.276,0.94-0.409c0.262-0.131,0.483-0.255,0.666-0.371h0.103l-0.636,1.88
			c-0.232,0.08-0.521,0.18-0.866,0.299c-0.345,0.12-0.65,0.213-0.915,0.279c-0.373,0.093-0.705,0.163-0.998,0.212
			C383.991,119.832,383.633,119.857,383.211,119.857z M387.464,113.351c0.146-0.465,0.225-0.866,0.24-1.203
			c0.014-0.336-0.032-0.621-0.141-0.853c-0.118-0.257-0.313-0.453-0.589-0.587c-0.274-0.135-0.647-0.203-1.12-0.203
			c-0.466,0-0.885,0.069-1.259,0.207c-0.372,0.137-0.736,0.337-1.093,0.6c-0.353,0.271-0.652,0.568-0.899,0.896
			c-0.248,0.328-0.463,0.708-0.647,1.143H387.464z"/>
		<path d="M393.252,123.399h-2.135c-0.652-1.267-1.049-2.606-1.188-4.02c-0.14-1.413,0.116-3.083,0.77-5.01
			c0.638-1.884,1.505-3.544,2.603-4.979s2.408-2.785,3.931-4.051h2.134l-0.031,0.091c-0.654,0.447-1.309,0.962-1.963,1.546
			c-0.654,0.584-1.309,1.265-1.963,2.042c-0.629,0.753-1.212,1.582-1.752,2.487c-0.539,0.906-0.979,1.86-1.318,2.863
			c-0.354,1.046-0.564,2.003-0.632,2.872c-0.067,0.869-0.042,1.695,0.079,2.478c0.118,0.753,0.313,1.433,0.585,2.042
			c0.272,0.609,0.577,1.124,0.912,1.546L393.252,123.399z"/>
		<path d="M402.937,114.369c-0.641,1.891-1.511,3.552-2.61,4.983c-1.1,1.432-2.408,2.78-3.924,4.047h-2.135l0.031-0.092
			c0.621-0.422,1.278-0.941,1.972-1.555c0.692-0.615,1.345-1.293,1.956-2.033c0.652-0.789,1.24-1.623,1.765-2.5
			c0.523-0.878,0.958-1.828,1.305-2.85c0.341-1.009,0.55-1.964,0.624-2.863c0.074-0.899,0.051-1.729-0.07-2.487
			c-0.123-0.758-0.321-1.44-0.595-2.046s-0.574-1.12-0.904-1.542l0.031-0.091h2.135c0.652,1.266,1.046,2.612,1.183,4.038
			C403.834,110.802,403.58,112.466,402.937,114.369z"/>
	</g>
	
		<line fill="none" stroke="#800000" stroke-width="0.7559" stroke-linecap="square" stroke-miterlimit="10" x1="254.316" y1="94.012" x2="424.372" y2="94.012"/>
	
		<rect x="87.729" y="239.241" fill-rule="evenodd" clip-rule="evenodd" fill="#FFFFB9" stroke="#800000" stroke-width="0.7559" stroke-linecap="square" stroke-miterlimit="10" width="239.468" height="92.262"/>
	<g>
		<path d="M109.435,264.092c-0.609,0.245-1.4,0.483-2.372,0.716c-0.973,0.232-1.931,0.349-2.875,0.349
			c-2.181,0-3.919-0.619-5.214-1.858c-1.295-1.238-1.943-2.996-1.943-5.271c0-2.142,0.648-3.857,1.943-5.148
			s3.068-1.937,5.317-1.937c1.162,0,2.106,0.108,2.833,0.326c0.727,0.217,1.479,0.513,2.255,0.886v3.202h-0.317
			c-0.167-0.128-0.408-0.311-0.722-0.546s-0.62-0.436-0.918-0.601c-0.348-0.196-0.75-0.364-1.207-0.505s-0.94-0.211-1.449-0.211
			c-0.597,0-1.14,0.092-1.631,0.274c-0.491,0.184-0.929,0.466-1.314,0.845c-0.367,0.367-0.657,0.832-0.872,1.395
			c-0.214,0.563-0.321,1.218-0.321,1.964c0,1.597,0.407,2.775,1.221,3.533c0.814,0.759,1.926,1.138,3.337,1.138
			c0.124,0,0.27-0.003,0.438-0.009s0.313-0.015,0.438-0.027v-2.68h-2.693v-2.561h6.067V264.092z"/>
		<path d="M116.911,265.147c-1.976,0-3.49-0.465-4.543-1.395c-1.053-0.931-1.58-2.255-1.58-3.974c0-1.683,0.491-3.025,1.472-4.029
			c0.982-1.003,2.355-1.505,4.12-1.505c1.603,0,2.809,0.426,3.616,1.275c0.808,0.851,1.212,2.068,1.212,3.652v1.156h-7.149
			c0.031,0.478,0.134,0.877,0.308,1.198s0.404,0.576,0.69,0.766c0.279,0.19,0.606,0.326,0.979,0.409
			c0.373,0.082,0.78,0.123,1.221,0.123c0.379,0,0.751-0.041,1.118-0.123c0.367-0.083,0.702-0.191,1.007-0.326
			c0.267-0.116,0.514-0.241,0.741-0.376s0.412-0.254,0.555-0.358h0.345v2.652c-0.267,0.104-0.511,0.2-0.731,0.289
			c-0.221,0.089-0.523,0.179-0.909,0.271c-0.354,0.092-0.719,0.164-1.095,0.216S117.452,265.147,116.911,265.147z M117.993,258.394
			c-0.019-0.68-0.179-1.196-0.48-1.552c-0.302-0.354-0.763-0.532-1.384-0.532c-0.634,0-1.129,0.188-1.487,0.561
			c-0.357,0.373-0.554,0.881-0.592,1.523H117.993z"/>
		<path d="M126.875,265.156c-0.771,0-1.499-0.082-2.186-0.247c-0.687-0.166-1.254-0.358-1.701-0.578v-2.717h0.271
			c0.155,0.116,0.332,0.245,0.531,0.386c0.199,0.141,0.475,0.287,0.83,0.44c0.304,0.141,0.647,0.262,1.03,0.362
			c0.382,0.101,0.797,0.151,1.244,0.151c0.46,0,0.865-0.07,1.216-0.211s0.526-0.364,0.526-0.67c0-0.238-0.081-0.419-0.242-0.542
			c-0.162-0.122-0.475-0.238-0.941-0.349c-0.249-0.061-0.563-0.127-0.941-0.197s-0.714-0.151-1.006-0.243
			c-0.82-0.251-1.437-0.622-1.85-1.114c-0.413-0.493-0.62-1.14-0.62-1.941c0-0.459,0.107-0.892,0.321-1.299
			c0.214-0.406,0.53-0.769,0.946-1.087c0.416-0.313,0.93-0.56,1.542-0.743c0.612-0.184,1.303-0.275,2.074-0.275
			c0.733,0,1.407,0.071,2.022,0.216c0.615,0.144,1.134,0.316,1.556,0.518v2.606h-0.261c-0.112-0.085-0.289-0.2-0.531-0.344
			s-0.479-0.268-0.708-0.372c-0.273-0.122-0.579-0.223-0.918-0.303c-0.339-0.079-0.685-0.119-1.039-0.119
			c-0.472,0-0.872,0.08-1.198,0.238c-0.326,0.159-0.489,0.37-0.489,0.634c0,0.232,0.081,0.416,0.242,0.551
			c0.162,0.134,0.513,0.266,1.053,0.395c0.28,0.067,0.601,0.133,0.965,0.197c0.363,0.063,0.713,0.151,1.048,0.262
			c0.752,0.238,1.322,0.589,1.71,1.05c0.388,0.463,0.583,1.076,0.583,1.841c0,0.483-0.115,0.943-0.345,1.381
			c-0.23,0.438-0.556,0.806-0.979,1.105c-0.447,0.324-0.974,0.575-1.58,0.753C128.445,265.067,127.719,265.156,126.875,265.156z"/>
		<path d="M138.091,265.074c-1.33,0-2.298-0.27-2.903-0.808c-0.606-0.538-0.909-1.42-0.909-2.644v-4.817h-1.249v-2.239h1.249v-2.945
			h3.262v2.945h3.141v2.239h-3.141v3.652c0,0.361,0.003,0.676,0.01,0.945c0.006,0.27,0.056,0.511,0.149,0.725
			c0.087,0.215,0.241,0.384,0.461,0.51c0.22,0.125,0.542,0.188,0.964,0.188c0.174,0,0.402-0.036,0.685-0.109
			c0.283-0.074,0.48-0.141,0.592-0.202h0.28v2.267c-0.354,0.092-0.73,0.164-1.128,0.216
			C139.157,265.048,138.669,265.074,138.091,265.074z"/>
		<path d="M146.114,253.098h-3.448v-2.505h3.448V253.098z M146.021,264.872h-3.262v-10.306h3.262V264.872z"/>
		<path d="M158.013,259.724c0,1.695-0.471,3.03-1.412,4.006s-2.273,1.464-3.994,1.464c-1.709,0-3.037-0.488-3.985-1.464
			c-0.947-0.976-1.421-2.311-1.421-4.006c0-1.713,0.474-3.054,1.421-4.023c0.948-0.97,2.276-1.455,3.985-1.455
			c1.715,0,3.044,0.488,3.989,1.464S158.013,258.023,158.013,259.724z M154.667,259.742c0-0.611-0.051-1.121-0.154-1.528
			c-0.103-0.406-0.244-0.732-0.424-0.977c-0.193-0.258-0.41-0.437-0.653-0.537c-0.242-0.102-0.519-0.151-0.829-0.151
			c-0.292,0-0.556,0.044-0.792,0.133s-0.454,0.259-0.652,0.51c-0.187,0.238-0.335,0.565-0.447,0.981s-0.168,0.939-0.168,1.569
			s0.053,1.14,0.159,1.528c0.105,0.389,0.242,0.698,0.41,0.931c0.174,0.239,0.391,0.413,0.652,0.523
			c0.261,0.11,0.55,0.165,0.867,0.165c0.261,0,0.526-0.055,0.797-0.165c0.27-0.11,0.486-0.275,0.647-0.495
			c0.193-0.264,0.339-0.58,0.438-0.95C154.617,260.909,154.667,260.396,154.667,259.742z"/>
		<path d="M169.914,264.872h-3.281v-5.111c0-0.416-0.017-0.831-0.051-1.244c-0.034-0.412-0.098-0.717-0.191-0.913
			c-0.112-0.232-0.273-0.398-0.485-0.5c-0.211-0.101-0.494-0.151-0.848-0.151c-0.267,0-0.537,0.049-0.811,0.147
			c-0.273,0.098-0.565,0.254-0.876,0.468v7.305h-3.262v-10.306h3.262v1.138c0.534-0.446,1.054-0.795,1.561-1.046
			c0.506-0.251,1.067-0.376,1.682-0.376c1.069,0,1.886,0.332,2.451,0.995c0.565,0.664,0.848,1.626,0.848,2.887V264.872z"/>
		<path d="M182.076,264.872h-3.281v-5.111c0-0.416-0.017-0.831-0.051-1.244c-0.034-0.412-0.098-0.717-0.191-0.913
			c-0.112-0.232-0.273-0.398-0.485-0.5c-0.211-0.101-0.494-0.151-0.848-0.151c-0.267,0-0.537,0.049-0.811,0.147
			c-0.273,0.098-0.565,0.254-0.876,0.468v7.305h-3.262v-10.306h3.262v1.138c0.534-0.446,1.054-0.795,1.561-1.046
			c0.506-0.251,1.067-0.376,1.682-0.376c1.069,0,1.886,0.332,2.451,0.995c0.565,0.664,0.848,1.626,0.848,2.887V264.872z"/>
		<path d="M190.202,263.78c-0.224,0.184-0.424,0.349-0.601,0.495c-0.177,0.147-0.415,0.294-0.713,0.44
			c-0.292,0.141-0.577,0.248-0.853,0.321s-0.663,0.11-1.16,0.11c-0.926,0-1.695-0.306-2.307-0.918
			c-0.612-0.611-0.918-1.383-0.918-2.313c0-0.765,0.155-1.383,0.466-1.854c0.311-0.471,0.758-0.845,1.342-1.12
			c0.59-0.281,1.296-0.477,2.116-0.587c0.82-0.11,1.703-0.195,2.647-0.257v-0.055c0-0.569-0.213-0.963-0.638-1.18
			c-0.426-0.217-1.064-0.326-1.916-0.326c-0.385,0-0.835,0.069-1.351,0.207c-0.516,0.138-1.02,0.313-1.51,0.527h-0.279v-2.486
			c0.323-0.092,0.845-0.201,1.565-0.326s1.448-0.188,2.181-0.188c1.802,0,3.114,0.296,3.938,0.886
			c0.823,0.591,1.235,1.491,1.235,2.703v7.011h-3.244V263.78z M190.202,262.184v-2.147c-0.553,0.055-1,0.103-1.342,0.142
			c-0.342,0.04-0.678,0.118-1.007,0.234c-0.286,0.098-0.508,0.246-0.667,0.445c-0.158,0.198-0.237,0.463-0.237,0.794
			c0,0.483,0.132,0.814,0.396,0.995c0.264,0.181,0.654,0.271,1.169,0.271c0.286,0,0.578-0.063,0.876-0.192
			C189.689,262.597,189.959,262.416,190.202,262.184z"/>
		<path d="M199.92,253.098h-3.448v-2.505h3.448V253.098z M199.828,264.872h-3.262v-10.306h3.262V264.872z"/>
		<path d="M208.799,257.604h-0.27c-0.125-0.042-0.305-0.074-0.541-0.096c-0.236-0.021-0.497-0.032-0.783-0.032
			c-0.342,0-0.701,0.049-1.077,0.146c-0.376,0.099-0.741,0.215-1.095,0.349v6.901h-3.262v-10.306h3.262v1.478
			c0.149-0.135,0.355-0.305,0.62-0.51c0.264-0.204,0.505-0.368,0.722-0.49c0.236-0.141,0.511-0.262,0.825-0.363
			c0.313-0.101,0.61-0.151,0.89-0.151c0.106,0,0.224,0.004,0.354,0.01s0.249,0.016,0.354,0.027V257.604z"/>
		<path d="M215.789,265.147c-1.976,0-3.49-0.465-4.543-1.395c-1.053-0.931-1.58-2.255-1.58-3.974c0-1.683,0.491-3.025,1.472-4.029
			c0.982-1.003,2.355-1.505,4.12-1.505c1.603,0,2.809,0.426,3.616,1.275c0.808,0.851,1.212,2.068,1.212,3.652v1.156h-7.149
			c0.031,0.478,0.134,0.877,0.308,1.198s0.404,0.576,0.69,0.766c0.279,0.19,0.606,0.326,0.979,0.409
			c0.373,0.082,0.78,0.123,1.221,0.123c0.379,0,0.751-0.041,1.118-0.123c0.367-0.083,0.702-0.191,1.007-0.326
			c0.267-0.116,0.514-0.241,0.741-0.376s0.412-0.254,0.555-0.358h0.345v2.652c-0.267,0.104-0.511,0.2-0.731,0.289
			c-0.221,0.089-0.523,0.179-0.909,0.271c-0.354,0.092-0.719,0.164-1.095,0.216S216.33,265.147,215.789,265.147z M216.871,258.394
			c-0.019-0.68-0.179-1.196-0.48-1.552c-0.302-0.354-0.763-0.532-1.384-0.532c-0.634,0-1.129,0.188-1.487,0.561
			c-0.357,0.373-0.554,0.881-0.592,1.523H216.871z"/>
		<path d="M228.735,265.139c-2.082,0-3.734-0.62-4.958-1.858c-1.224-1.239-1.836-2.981-1.836-5.227c0-2.166,0.613-3.893,1.841-5.181
			c1.227-1.287,2.881-1.932,4.963-1.932c0.553,0,1.05,0.031,1.491,0.092c0.441,0.062,0.864,0.146,1.268,0.257
			c0.317,0.092,0.662,0.218,1.035,0.377c0.373,0.158,0.674,0.296,0.904,0.412v3.258h-0.354c-0.167-0.146-0.379-0.322-0.634-0.527
			s-0.544-0.405-0.867-0.601c-0.323-0.196-0.679-0.363-1.067-0.501s-0.793-0.206-1.216-0.206c-0.503,0-0.964,0.078-1.384,0.234
			c-0.419,0.155-0.819,0.427-1.198,0.812c-0.348,0.349-0.632,0.82-0.853,1.413c-0.22,0.594-0.331,1.294-0.331,2.102
			c0,0.851,0.115,1.565,0.345,2.144s0.531,1.044,0.904,1.399c0.36,0.343,0.763,0.59,1.207,0.743
			c0.444,0.152,0.887,0.229,1.328,0.229c0.459,0,0.897-0.075,1.314-0.226c0.416-0.149,0.767-0.316,1.053-0.5
			c0.311-0.189,0.584-0.382,0.82-0.578c0.236-0.195,0.441-0.37,0.615-0.522h0.317v3.212c-0.255,0.116-0.55,0.249-0.885,0.398
			c-0.335,0.15-0.68,0.277-1.035,0.381c-0.435,0.129-0.842,0.227-1.221,0.294C229.922,265.104,229.4,265.139,228.735,265.139z"/>
		<path d="M244.762,259.724c0,1.695-0.471,3.03-1.412,4.006s-2.273,1.464-3.994,1.464c-1.709,0-3.037-0.488-3.985-1.464
			c-0.947-0.976-1.421-2.311-1.421-4.006c0-1.713,0.474-3.054,1.421-4.023c0.948-0.97,2.276-1.455,3.985-1.455
			c1.715,0,3.044,0.488,3.989,1.464S244.762,258.023,244.762,259.724z M241.416,259.742c0-0.611-0.051-1.121-0.154-1.528
			c-0.103-0.406-0.244-0.732-0.424-0.977c-0.193-0.258-0.41-0.437-0.653-0.537c-0.242-0.102-0.519-0.151-0.829-0.151
			c-0.292,0-0.556,0.044-0.792,0.133s-0.454,0.259-0.652,0.51c-0.187,0.238-0.335,0.565-0.447,0.981s-0.168,0.939-0.168,1.569
			s0.053,1.14,0.159,1.528c0.105,0.389,0.242,0.698,0.41,0.931c0.174,0.239,0.391,0.413,0.652,0.523
			c0.261,0.11,0.55,0.165,0.867,0.165c0.261,0,0.526-0.055,0.797-0.165c0.27-0.11,0.486-0.275,0.647-0.495
			c0.193-0.264,0.339-0.58,0.438-0.95C241.366,260.909,241.416,260.396,241.416,259.742z"/>
		<path d="M256.663,264.872h-3.281v-5.111c0-0.416-0.017-0.831-0.051-1.244c-0.034-0.412-0.098-0.717-0.191-0.913
			c-0.112-0.232-0.273-0.398-0.485-0.5c-0.211-0.101-0.494-0.151-0.848-0.151c-0.267,0-0.537,0.049-0.811,0.147
			c-0.273,0.098-0.565,0.254-0.876,0.468v7.305h-3.262v-10.306h3.262v1.138c0.534-0.446,1.054-0.795,1.561-1.046
			c0.506-0.251,1.067-0.376,1.682-0.376c1.069,0,1.886,0.332,2.451,0.995c0.565,0.664,0.848,1.626,0.848,2.887V264.872z"/>
		<path d="M264.155,265.147c-0.864,0-1.654-0.107-2.372-0.321c-0.717-0.214-1.34-0.545-1.869-0.991
			c-0.522-0.446-0.929-1.008-1.221-1.684c-0.292-0.676-0.438-1.473-0.438-2.391c0-0.985,0.158-1.823,0.475-2.515
			s0.746-1.261,1.286-1.707c0.522-0.428,1.136-0.745,1.841-0.95c0.705-0.204,1.44-0.307,2.204-0.307
			c0.578,0,1.156,0.065,1.734,0.197c0.578,0.132,1.159,0.341,1.743,0.628v2.754h-0.419c-0.13-0.123-0.291-0.258-0.48-0.404
			s-0.396-0.281-0.62-0.403c-0.236-0.129-0.503-0.237-0.802-0.326s-0.63-0.133-0.997-0.133c-0.833,0-1.478,0.286-1.934,0.857
			c-0.457,0.572-0.685,1.342-0.685,2.309c0,1.034,0.244,1.805,0.732,2.313c0.487,0.508,1.135,0.762,1.943,0.762
			c0.41,0,0.771-0.046,1.082-0.138c0.311-0.092,0.578-0.202,0.801-0.33c0.217-0.129,0.404-0.262,0.559-0.399
			s0.289-0.262,0.401-0.372h0.419v2.753c-0.187,0.08-0.402,0.172-0.647,0.275c-0.246,0.104-0.496,0.19-0.75,0.257
			c-0.317,0.086-0.614,0.151-0.89,0.197S264.608,265.147,264.155,265.147z"/>
		<path d="M276.456,257.604h-0.27c-0.125-0.042-0.305-0.074-0.541-0.096c-0.236-0.021-0.497-0.032-0.783-0.032
			c-0.342,0-0.701,0.049-1.077,0.146c-0.376,0.099-0.741,0.215-1.095,0.349v6.901h-3.262v-10.306h3.262v1.478
			c0.149-0.135,0.355-0.305,0.62-0.51c0.264-0.204,0.505-0.368,0.722-0.49c0.236-0.141,0.511-0.262,0.825-0.363
			c0.313-0.101,0.61-0.151,0.89-0.151c0.106,0,0.224,0.004,0.354,0.01s0.249,0.016,0.354,0.027V257.604z"/>
		<path d="M283.446,265.147c-1.976,0-3.49-0.465-4.543-1.395c-1.053-0.931-1.58-2.255-1.58-3.974c0-1.683,0.491-3.025,1.472-4.029
			c0.982-1.003,2.355-1.505,4.12-1.505c1.603,0,2.809,0.426,3.616,1.275c0.808,0.851,1.212,2.068,1.212,3.652v1.156h-7.149
			c0.031,0.478,0.134,0.877,0.308,1.198s0.404,0.576,0.69,0.766c0.279,0.19,0.606,0.326,0.979,0.409
			c0.373,0.082,0.78,0.123,1.221,0.123c0.379,0,0.751-0.041,1.118-0.123c0.367-0.083,0.702-0.191,1.007-0.326
			c0.267-0.116,0.514-0.241,0.741-0.376s0.412-0.254,0.555-0.358h0.345v2.652c-0.267,0.104-0.511,0.2-0.731,0.289
			c-0.221,0.089-0.523,0.179-0.909,0.271c-0.354,0.092-0.719,0.164-1.095,0.216S283.986,265.147,283.446,265.147z M284.527,258.394
			c-0.019-0.68-0.179-1.196-0.48-1.552c-0.302-0.354-0.763-0.532-1.384-0.532c-0.634,0-1.129,0.188-1.487,0.561
			c-0.357,0.373-0.554,0.881-0.592,1.523H284.527z"/>
		<path d="M294.23,265.074c-1.33,0-2.298-0.27-2.903-0.808c-0.606-0.538-0.909-1.42-0.909-2.644v-4.817h-1.249v-2.239h1.249v-2.945
			h3.262v2.945h3.141v2.239h-3.141v3.652c0,0.361,0.003,0.676,0.01,0.945c0.006,0.27,0.056,0.511,0.149,0.725
			c0.087,0.215,0.241,0.384,0.461,0.51c0.22,0.125,0.542,0.188,0.964,0.188c0.174,0,0.402-0.036,0.685-0.109
			c0.283-0.074,0.48-0.141,0.592-0.202h0.28v2.267c-0.354,0.092-0.73,0.164-1.128,0.216
			C295.295,265.048,294.808,265.074,294.23,265.074z"/>
		<path d="M309.952,268.038H297.5v-1.845h12.452V268.038z"/>
		<path d="M320.791,264.872h-9.171v-2.386h2.927v-7.223h-2.927v-2.229c0.429,0,0.854-0.028,1.277-0.083
			c0.422-0.055,0.761-0.144,1.016-0.266c0.298-0.147,0.529-0.345,0.694-0.593c0.164-0.247,0.26-0.555,0.284-0.922h3.038v11.315
			h2.861V264.872z"/>
	</g>
	
		<line fill="none" stroke="#800000" stroke-width="0.7559" stroke-linecap="square" stroke-miterlimit="10" x1="87.729" y1="276.828" x2="328.933" y2="276.828"/>
	<g>
		<path d="M108.829,312.582h-4.707v4.634h-1.547v-4.634h-4.707v-1.469h4.707v-4.634h1.547v4.634h4.707V312.582z"/>
		<path d="M117.506,318.098c-0.982,0-1.879-0.147-2.693-0.441c-0.814-0.293-1.513-0.739-2.097-1.34
			c-0.584-0.605-1.032-1.354-1.342-2.248c-0.311-0.893-0.466-1.921-0.466-3.083c0-1.102,0.157-2.088,0.471-2.96
			c0.313-0.872,0.763-1.616,1.347-2.234c0.565-0.6,1.261-1.062,2.088-1.386c0.826-0.324,1.73-0.486,2.712-0.486
			c0.466,0,0.914,0.033,1.342,0.101s0.839,0.159,1.23,0.275c0.311,0.092,0.657,0.219,1.039,0.381
			c0.382,0.162,0.691,0.302,0.927,0.418v2.193h-0.158c-0.23-0.202-0.468-0.394-0.713-0.574c-0.245-0.18-0.592-0.374-1.039-0.582
			c-0.373-0.184-0.802-0.337-1.286-0.459c-0.485-0.122-1.007-0.184-1.566-0.184c-1.336,0-2.416,0.495-3.239,1.486
			s-1.235,2.31-1.235,3.955c0,0.918,0.108,1.72,0.326,2.404c0.217,0.686,0.531,1.267,0.941,1.744c0.397,0.471,0.877,0.83,1.44,1.078
			s1.194,0.372,1.896,0.372c0.522,0,1.041-0.037,1.557-0.11s0.951-0.184,1.305-0.33v-3.533h-3.206v-1.597h5.033v5.965
			c-0.236,0.104-0.552,0.235-0.946,0.395s-0.763,0.284-1.104,0.376c-0.454,0.135-0.864,0.235-1.23,0.303
			C118.472,318.063,118.028,318.098,117.506,318.098z"/>
		<path d="M128.229,318.069c-1.659,0-2.947-0.46-3.863-1.381c-0.917-0.921-1.375-2.229-1.375-3.923c0-1.671,0.444-2.999,1.333-3.987
			c0.888-0.988,2.05-1.482,3.486-1.482c0.646,0,1.218,0.092,1.715,0.275s0.932,0.471,1.305,0.862
			c0.373,0.392,0.659,0.871,0.857,1.437c0.199,0.566,0.298,1.259,0.298,2.078v0.937h-7.214c0,1.193,0.304,2.104,0.914,2.734
			c0.609,0.631,1.451,0.945,2.525,0.945c0.385,0,0.763-0.043,1.133-0.128c0.37-0.086,0.704-0.196,1.002-0.331
			c0.317-0.141,0.584-0.276,0.801-0.408c0.217-0.131,0.397-0.255,0.541-0.371h0.103v1.881c-0.205,0.079-0.46,0.179-0.764,0.298
			c-0.305,0.12-0.578,0.213-0.82,0.28c-0.342,0.092-0.651,0.162-0.927,0.211S128.651,318.069,128.229,318.069z M130.279,311.563
			c-0.013-0.465-0.068-0.866-0.168-1.202c-0.099-0.337-0.242-0.621-0.429-0.854c-0.205-0.257-0.467-0.453-0.788-0.588
			c-0.32-0.134-0.716-0.201-1.188-0.201c-0.466,0-0.862,0.068-1.188,0.206s-0.623,0.338-0.89,0.602
			c-0.261,0.269-0.46,0.567-0.597,0.895s-0.224,0.708-0.261,1.143H130.279z"/>
		<path d="M139.636,309.435h-0.093c-0.13-0.037-0.269-0.06-0.415-0.069c-0.146-0.009-0.322-0.014-0.527-0.014
			c-0.472,0-0.941,0.101-1.407,0.303s-0.907,0.502-1.324,0.899v7.277h-1.752V307.58h1.752v1.523c0.64-0.557,1.198-0.949,1.673-1.179
			c0.475-0.229,0.937-0.345,1.384-0.345c0.18,0,0.315,0.005,0.406,0.014c0.09,0.01,0.191,0.023,0.303,0.042V309.435z"/>
		<path d="M145.575,318.069c-1.659,0-2.947-0.46-3.863-1.381c-0.917-0.921-1.375-2.229-1.375-3.923c0-1.671,0.444-2.999,1.333-3.987
			c0.888-0.988,2.05-1.482,3.486-1.482c0.646,0,1.218,0.092,1.715,0.275s0.932,0.471,1.305,0.862
			c0.373,0.392,0.659,0.871,0.857,1.437c0.199,0.566,0.298,1.259,0.298,2.078v0.937h-7.214c0,1.193,0.304,2.104,0.914,2.734
			c0.609,0.631,1.451,0.945,2.525,0.945c0.385,0,0.763-0.043,1.133-0.128c0.37-0.086,0.704-0.196,1.002-0.331
			c0.317-0.141,0.584-0.276,0.801-0.408c0.217-0.131,0.397-0.255,0.541-0.371h0.103v1.881c-0.205,0.079-0.46,0.179-0.764,0.298
			c-0.305,0.12-0.578,0.213-0.82,0.28c-0.342,0.092-0.651,0.162-0.927,0.211S145.997,318.069,145.575,318.069z M147.625,311.563
			c-0.013-0.465-0.068-0.866-0.168-1.202c-0.099-0.337-0.242-0.621-0.429-0.854c-0.205-0.257-0.467-0.453-0.788-0.588
			c-0.32-0.134-0.716-0.201-1.188-0.201c-0.466,0-0.862,0.068-1.188,0.206s-0.623,0.338-0.89,0.602
			c-0.261,0.269-0.46,0.567-0.597,0.895s-0.224,0.708-0.261,1.143H147.625z"/>
		<path d="M162.351,317.831h-2.396l-4.399-5.433h-2.106v5.433h-1.846v-13.664h3.579c0.795,0,1.462,0.043,1.999,0.128
			c0.538,0.086,1.049,0.285,1.533,0.597c0.485,0.306,0.869,0.7,1.151,1.184s0.424,1.083,0.424,1.799
			c0,1.004-0.258,1.842-0.773,2.515s-1.218,1.172-2.106,1.496L162.351,317.831z M158.361,308.012c0-0.397-0.071-0.751-0.214-1.06
			c-0.143-0.31-0.363-0.562-0.662-0.758c-0.261-0.171-0.565-0.292-0.914-0.362s-0.78-0.105-1.295-0.105h-1.827v5.157h1.622
			c0.528,0,1.003-0.046,1.426-0.138c0.423-0.092,0.783-0.281,1.082-0.568c0.267-0.257,0.464-0.563,0.592-0.918
			C158.297,308.905,158.361,308.489,158.361,308.012z"/>
		<path d="M168.117,318.069c-1.659,0-2.947-0.46-3.863-1.381c-0.917-0.921-1.375-2.229-1.375-3.923c0-1.671,0.444-2.999,1.333-3.987
			c0.888-0.988,2.05-1.482,3.486-1.482c0.646,0,1.218,0.092,1.715,0.275s0.932,0.471,1.305,0.862
			c0.373,0.392,0.659,0.871,0.857,1.437c0.199,0.566,0.298,1.259,0.298,2.078v0.937h-7.214c0,1.193,0.304,2.104,0.914,2.734
			c0.609,0.631,1.451,0.945,2.525,0.945c0.385,0,0.763-0.043,1.133-0.128c0.37-0.086,0.704-0.196,1.002-0.331
			c0.317-0.141,0.584-0.276,0.801-0.408c0.217-0.131,0.397-0.255,0.541-0.371h0.103v1.881c-0.205,0.079-0.46,0.179-0.764,0.298
			c-0.305,0.12-0.578,0.213-0.82,0.28c-0.342,0.092-0.651,0.162-0.927,0.211S168.54,318.069,168.117,318.069z M170.167,311.563
			c-0.013-0.465-0.068-0.866-0.168-1.202c-0.099-0.337-0.242-0.621-0.429-0.854c-0.205-0.257-0.467-0.453-0.788-0.588
			c-0.32-0.134-0.716-0.201-1.188-0.201c-0.466,0-0.862,0.068-1.188,0.206s-0.623,0.338-0.89,0.602
			c-0.261,0.269-0.46,0.567-0.597,0.895s-0.224,0.708-0.261,1.143H170.167z"/>
		<path d="M182.022,321.612h-1.752v-4.9c-0.51,0.458-1.006,0.793-1.491,1.005c-0.485,0.211-1.022,0.316-1.612,0.316
			c-1.181,0-2.122-0.467-2.824-1.399c-0.702-0.934-1.053-2.231-1.053-3.896c0-0.882,0.123-1.66,0.368-2.336s0.57-1.243,0.974-1.702
			c0.385-0.446,0.845-0.792,1.379-1.037c0.534-0.245,1.09-0.367,1.668-0.367c0.534,0,0.997,0.062,1.389,0.184
			c0.391,0.122,0.792,0.303,1.202,0.541l0.112-0.44h1.641V321.612z M180.27,315.262v-5.837c-0.441-0.214-0.836-0.363-1.184-0.449
			c-0.348-0.086-0.721-0.129-1.119-0.129c-0.919,0-1.628,0.327-2.125,0.982c-0.497,0.654-0.746,1.597-0.746,2.826
			c0,1.199,0.199,2.121,0.597,2.767c0.397,0.646,1.016,0.969,1.854,0.969c0.491,0,0.97-0.104,1.436-0.313
			S179.878,315.598,180.27,315.262z"/>
		<path d="M192.532,317.831h-1.752v-1.138c-0.541,0.465-1.053,0.818-1.538,1.06c-0.484,0.242-1.025,0.362-1.622,0.362
			c-0.454,0-0.881-0.073-1.281-0.22c-0.401-0.147-0.75-0.38-1.049-0.697c-0.298-0.318-0.53-0.719-0.694-1.202
			s-0.247-1.071-0.247-1.763v-6.653h1.752v5.837c0,0.545,0.02,0.996,0.061,1.354c0.04,0.358,0.132,0.672,0.275,0.94
			c0.143,0.264,0.337,0.456,0.583,0.578c0.246,0.123,0.598,0.184,1.058,0.184c0.429,0,0.886-0.119,1.37-0.357
			c0.485-0.239,0.929-0.532,1.333-0.881v-7.654h1.752V317.831z"/>
		<path d="M199.359,318.069c-1.659,0-2.947-0.46-3.863-1.381c-0.917-0.921-1.375-2.229-1.375-3.923c0-1.671,0.444-2.999,1.333-3.987
			c0.888-0.988,2.05-1.482,3.486-1.482c0.646,0,1.218,0.092,1.715,0.275s0.932,0.471,1.305,0.862
			c0.373,0.392,0.659,0.871,0.857,1.437c0.199,0.566,0.298,1.259,0.298,2.078v0.937h-7.214c0,1.193,0.304,2.104,0.914,2.734
			c0.609,0.631,1.451,0.945,2.525,0.945c0.385,0,0.763-0.043,1.133-0.128c0.37-0.086,0.704-0.196,1.002-0.331
			c0.317-0.141,0.584-0.276,0.801-0.408c0.217-0.131,0.397-0.255,0.541-0.371h0.103v1.881c-0.205,0.079-0.46,0.179-0.764,0.298
			c-0.305,0.12-0.578,0.213-0.82,0.28c-0.342,0.092-0.651,0.162-0.927,0.211S199.781,318.069,199.359,318.069z M201.409,311.563
			c-0.013-0.465-0.068-0.866-0.168-1.202c-0.099-0.337-0.242-0.621-0.429-0.854c-0.205-0.257-0.467-0.453-0.788-0.588
			c-0.32-0.134-0.716-0.201-1.188-0.201c-0.466,0-0.862,0.068-1.188,0.206s-0.623,0.338-0.89,0.602
			c-0.261,0.269-0.46,0.567-0.597,0.895s-0.224,0.708-0.261,1.143H201.409z"/>
		<path d="M208.398,318.033c-0.957,0-1.703-0.268-2.237-0.804c-0.535-0.535-0.802-1.381-0.802-2.537v-5.681h-1.184v-1.432h1.184
			v-2.945h1.752v2.945h3.225v1.432h-3.225v4.873c0,0.521,0.009,0.921,0.028,1.202s0.09,0.545,0.214,0.789
			c0.105,0.215,0.276,0.375,0.513,0.482c0.236,0.106,0.556,0.16,0.96,0.16c0.286,0,0.562-0.041,0.83-0.124
			c0.267-0.082,0.459-0.151,0.578-0.206h0.103v1.551c-0.33,0.092-0.664,0.164-1.002,0.216
			C208.996,318.007,208.684,318.033,208.398,318.033z"/>
		<path d="M216.707,318.069c-1.659,0-2.947-0.46-3.863-1.381c-0.917-0.921-1.375-2.229-1.375-3.923c0-1.671,0.444-2.999,1.333-3.987
			c0.888-0.988,2.05-1.482,3.486-1.482c0.646,0,1.218,0.092,1.715,0.275s0.932,0.471,1.305,0.862
			c0.373,0.392,0.659,0.871,0.857,1.437c0.199,0.566,0.298,1.259,0.298,2.078v0.937h-7.214c0,1.193,0.304,2.104,0.914,2.734
			c0.609,0.631,1.451,0.945,2.525,0.945c0.385,0,0.763-0.043,1.133-0.128c0.37-0.086,0.704-0.196,1.002-0.331
			c0.317-0.141,0.584-0.276,0.801-0.408c0.217-0.131,0.397-0.255,0.541-0.371h0.103v1.881c-0.205,0.079-0.46,0.179-0.764,0.298
			c-0.305,0.12-0.578,0.213-0.82,0.28c-0.342,0.092-0.651,0.162-0.927,0.211S217.129,318.069,216.707,318.069z M218.757,311.563
			c-0.013-0.465-0.068-0.866-0.168-1.202c-0.099-0.337-0.242-0.621-0.429-0.854c-0.205-0.257-0.467-0.453-0.788-0.588
			c-0.32-0.134-0.716-0.201-1.188-0.201c-0.466,0-0.862,0.068-1.188,0.206s-0.623,0.338-0.89,0.602
			c-0.261,0.269-0.46,0.567-0.597,0.895s-0.224,0.708-0.261,1.143H218.757z"/>
		<path d="M227.946,321.612h-2.134c-1.081-1.267-1.931-2.606-2.549-4.02c-0.619-1.413-0.928-3.084-0.928-5.011
			c0-1.885,0.306-3.544,0.918-4.979c0.612-1.435,1.464-2.785,2.558-4.052h2.134v0.092c-0.503,0.446-0.983,0.962-1.44,1.546
			c-0.457,0.585-0.88,1.266-1.272,2.042c-0.373,0.753-0.676,1.582-0.909,2.487s-0.35,1.859-0.35,2.863
			c0,1.046,0.113,2.004,0.34,2.872c0.227,0.869,0.533,1.695,0.918,2.478c0.373,0.753,0.798,1.434,1.277,2.042
			c0.479,0.609,0.957,1.124,1.435,1.547V321.612z"/>
		<path d="M234.573,312.582c0,1.891-0.307,3.552-0.922,4.982c-0.615,1.432-1.467,2.781-2.554,4.048h-2.134v-0.092
			c0.478-0.423,0.96-0.941,1.444-1.556c0.485-0.615,0.907-1.293,1.268-2.033c0.385-0.789,0.691-1.622,0.918-2.5
			c0.227-0.878,0.34-1.828,0.34-2.85c0-1.01-0.115-1.964-0.345-2.863c-0.23-0.899-0.535-1.729-0.914-2.487
			c-0.379-0.758-0.808-1.44-1.286-2.046s-0.954-1.12-1.426-1.542v-0.092h2.134c1.081,1.267,1.931,2.612,2.549,4.038
			S234.573,310.68,234.573,312.582z"/>
	</g>
	
		<line fill="none" stroke="#800000" stroke-width="0.7559" stroke-linecap="square" stroke-miterlimit="10" x1="87.729" y1="292.204" x2="328.933" y2="292.204"/>
	
		<line fill="none" stroke="#800000" stroke-width="0.7559" stroke-linecap="square" stroke-miterlimit="10" x1="148.464" y1="75.218" x2="254.316" y2="75.218"/>
	<polyline fill="none" stroke="#800000" stroke-width="0.7559" stroke-linecap="square" stroke-miterlimit="10" points="
		236.963,82.052 254.316,75.218 236.963,68.383 	"/>
	<polyline fill="none" stroke="#800000" stroke-width="0.7559" stroke-linecap="square" stroke-miterlimit="10" points="
		339.344,41.046 339.344,6.875 476.43,6.875 476.43,87.177 424.372,87.177 	"/>
	<polyline fill="none" stroke="#800000" stroke-width="0.7559" stroke-linecap="square" stroke-miterlimit="10" points="
		441.725,80.343 424.372,87.177 441.725,94.012 	"/>
	<g>
		<path d="M433.322,107.564h-4.707v4.634h-1.547v-4.634h-4.707v-1.468h4.707v-4.635h1.547v4.635h4.707V107.564z"/>
		<path d="M438.868,113.061c-0.695,0-1.347-0.091-1.952-0.275c-0.606-0.184-1.107-0.379-1.506-0.587v-1.937h0.094
			c0.149,0.116,0.324,0.245,0.526,0.386c0.202,0.141,0.471,0.288,0.807,0.44c0.298,0.134,0.626,0.254,0.983,0.358
			c0.356,0.104,0.728,0.156,1.113,0.156c0.279,0,0.578-0.032,0.895-0.096c0.317-0.064,0.554-0.146,0.709-0.243
			c0.217-0.141,0.374-0.291,0.471-0.45c0.096-0.159,0.145-0.397,0.145-0.716c0-0.41-0.114-0.719-0.341-0.927
			s-0.629-0.382-1.207-0.523c-0.224-0.055-0.516-0.119-0.876-0.192c-0.36-0.074-0.692-0.153-0.997-0.239
			c-0.796-0.226-1.373-0.577-1.733-1.051s-0.541-1.047-0.541-1.721c0-0.924,0.354-1.676,1.063-2.257
			c0.709-0.581,1.649-0.872,2.824-0.872c0.578,0,1.159,0.071,1.743,0.211s1.074,0.318,1.473,0.532v1.844h-0.094
			c-0.447-0.349-0.945-0.624-1.496-0.826c-0.55-0.202-1.104-0.303-1.663-0.303c-0.578,0-1.065,0.119-1.464,0.358
			c-0.397,0.238-0.596,0.6-0.596,1.083c0,0.428,0.117,0.748,0.354,0.959c0.236,0.211,0.615,0.384,1.138,0.519
			c0.261,0.067,0.551,0.133,0.871,0.197c0.32,0.064,0.657,0.139,1.012,0.225c0.77,0.189,1.35,0.504,1.737,0.945
			c0.389,0.44,0.583,1.04,0.583,1.798c0,0.44-0.089,0.858-0.266,1.253s-0.437,0.732-0.778,1.014
			c-0.373,0.306-0.794,0.539-1.263,0.698C440.165,112.981,439.577,113.061,438.868,113.061z"/>
		<path d="M452.833,112.813h-1.752v-1.138c-0.541,0.465-1.053,0.818-1.538,1.06c-0.484,0.242-1.025,0.363-1.621,0.363
			c-0.454,0-0.881-0.074-1.282-0.22c-0.4-0.147-0.75-0.379-1.048-0.698c-0.299-0.318-0.53-0.719-0.694-1.202
			c-0.165-0.483-0.247-1.07-0.247-1.762v-6.653h1.752v5.836c0,0.544,0.02,0.996,0.061,1.354c0.04,0.358,0.132,0.671,0.274,0.941
			c0.144,0.263,0.338,0.456,0.583,0.578c0.245,0.122,0.598,0.183,1.058,0.183c0.429,0,0.886-0.119,1.37-0.358
			c0.484-0.238,0.929-0.532,1.333-0.881v-7.653h1.752V112.813z"/>
		<path d="M459.278,113.043c-0.715,0-1.37-0.109-1.967-0.326c-0.597-0.217-1.109-0.546-1.538-0.987s-0.762-0.996-0.997-1.666
			c-0.236-0.67-0.354-1.458-0.354-2.363c0-0.899,0.123-1.676,0.368-2.331s0.573-1.205,0.983-1.652s0.921-0.791,1.533-1.033
			c0.612-0.241,1.269-0.362,1.972-0.362c0.571,0,1.123,0.08,1.654,0.239s1.005,0.343,1.421,0.55v1.937h-0.103
			c-0.124-0.104-0.284-0.223-0.479-0.358c-0.196-0.134-0.434-0.272-0.714-0.413c-0.242-0.122-0.527-0.229-0.857-0.321
			c-0.329-0.092-0.646-0.138-0.95-0.138c-0.907,0-1.636,0.338-2.186,1.014c-0.55,0.676-0.825,1.632-0.825,2.868
			c0,1.211,0.266,2.155,0.797,2.831c0.531,0.676,1.27,1.014,2.214,1.014c0.571,0,1.115-0.116,1.631-0.349
			c0.516-0.232,0.973-0.532,1.37-0.899h0.103v1.937c-0.174,0.08-0.392,0.176-0.652,0.289s-0.497,0.197-0.708,0.252
			c-0.299,0.085-0.565,0.151-0.802,0.197S459.65,113.043,459.278,113.043z"/>
		<path d="M467.972,113.043c-0.715,0-1.37-0.109-1.967-0.326c-0.597-0.217-1.109-0.546-1.538-0.987s-0.762-0.996-0.997-1.666
			c-0.236-0.67-0.354-1.458-0.354-2.363c0-0.899,0.123-1.676,0.368-2.331s0.573-1.205,0.983-1.652s0.921-0.791,1.533-1.033
			c0.612-0.241,1.269-0.362,1.972-0.362c0.571,0,1.123,0.08,1.654,0.239s1.005,0.343,1.421,0.55v1.937h-0.103
			c-0.124-0.104-0.284-0.223-0.479-0.358c-0.196-0.134-0.434-0.272-0.714-0.413c-0.242-0.122-0.527-0.229-0.857-0.321
			c-0.329-0.092-0.646-0.138-0.95-0.138c-0.907,0-1.636,0.338-2.186,1.014c-0.55,0.676-0.825,1.632-0.825,2.868
			c0,1.211,0.266,2.155,0.797,2.831c0.531,0.676,1.27,1.014,2.214,1.014c0.571,0,1.115-0.116,1.631-0.349
			c0.516-0.232,0.973-0.532,1.37-0.899h0.103v1.937c-0.174,0.08-0.392,0.176-0.652,0.289s-0.497,0.197-0.708,0.252
			c-0.299,0.085-0.565,0.151-0.802,0.197S468.344,113.043,467.972,113.043z"/>
		<path d="M477.046,113.052c-1.659,0-2.947-0.46-3.863-1.381c-0.917-0.92-1.375-2.229-1.375-3.923c0-1.67,0.444-3,1.333-3.988
			c0.889-0.988,2.051-1.482,3.485-1.482c0.646,0,1.218,0.092,1.715,0.275s0.933,0.471,1.306,0.863
			c0.372,0.392,0.658,0.87,0.857,1.436c0.198,0.566,0.298,1.259,0.298,2.079v0.936h-7.214c0,1.193,0.305,2.104,0.913,2.735
			c0.609,0.63,1.451,0.945,2.526,0.945c0.385,0,0.763-0.042,1.132-0.128c0.37-0.085,0.704-0.196,1.002-0.33
			c0.317-0.141,0.584-0.277,0.802-0.409c0.218-0.131,0.397-0.255,0.541-0.372h0.103v1.881c-0.205,0.08-0.46,0.179-0.765,0.298
			c-0.305,0.119-0.578,0.212-0.82,0.28c-0.342,0.092-0.65,0.162-0.927,0.211C477.817,113.027,477.468,113.052,477.046,113.052z
			 M479.096,106.546c-0.012-0.465-0.068-0.866-0.167-1.203c-0.1-0.336-0.242-0.621-0.429-0.853
			c-0.205-0.257-0.468-0.453-0.788-0.587c-0.32-0.135-0.716-0.202-1.188-0.202c-0.466,0-0.861,0.069-1.188,0.207
			c-0.326,0.138-0.622,0.338-0.89,0.601c-0.261,0.27-0.46,0.567-0.597,0.895c-0.137,0.327-0.224,0.708-0.261,1.143H479.096z"/>
		<path d="M485.75,113.061c-0.695,0-1.347-0.091-1.952-0.275c-0.606-0.184-1.107-0.379-1.506-0.587v-1.937h0.094
			c0.149,0.116,0.324,0.245,0.526,0.386c0.202,0.141,0.471,0.288,0.807,0.44c0.298,0.134,0.626,0.254,0.983,0.358
			c0.356,0.104,0.728,0.156,1.113,0.156c0.279,0,0.578-0.032,0.895-0.096c0.317-0.064,0.554-0.146,0.709-0.243
			c0.217-0.141,0.374-0.291,0.471-0.45c0.096-0.159,0.145-0.397,0.145-0.716c0-0.41-0.114-0.719-0.341-0.927
			s-0.629-0.382-1.207-0.523c-0.224-0.055-0.516-0.119-0.876-0.192c-0.36-0.074-0.692-0.153-0.997-0.239
			c-0.796-0.226-1.373-0.577-1.733-1.051s-0.541-1.047-0.541-1.721c0-0.924,0.354-1.676,1.063-2.257
			c0.709-0.581,1.649-0.872,2.824-0.872c0.578,0,1.159,0.071,1.743,0.211s1.074,0.318,1.473,0.532v1.844h-0.094
			c-0.447-0.349-0.945-0.624-1.496-0.826c-0.55-0.202-1.104-0.303-1.663-0.303c-0.578,0-1.065,0.119-1.464,0.358
			c-0.397,0.238-0.596,0.6-0.596,1.083c0,0.428,0.117,0.748,0.354,0.959c0.236,0.211,0.615,0.384,1.138,0.519
			c0.261,0.067,0.551,0.133,0.871,0.197c0.32,0.064,0.657,0.139,1.012,0.225c0.77,0.189,1.35,0.504,1.737,0.945
			c0.389,0.44,0.583,1.04,0.583,1.798c0,0.44-0.089,0.858-0.266,1.253s-0.437,0.732-0.778,1.014
			c-0.373,0.306-0.794,0.539-1.263,0.698C487.047,112.981,486.459,113.061,485.75,113.061z"/>
		<path d="M494.422,113.061c-0.695,0-1.347-0.091-1.952-0.275c-0.606-0.184-1.107-0.379-1.506-0.587v-1.937h0.094
			c0.149,0.116,0.324,0.245,0.526,0.386c0.202,0.141,0.471,0.288,0.807,0.44c0.298,0.134,0.626,0.254,0.983,0.358
			c0.356,0.104,0.728,0.156,1.113,0.156c0.279,0,0.578-0.032,0.895-0.096c0.317-0.064,0.554-0.146,0.709-0.243
			c0.217-0.141,0.374-0.291,0.471-0.45c0.096-0.159,0.145-0.397,0.145-0.716c0-0.41-0.114-0.719-0.341-0.927
			s-0.629-0.382-1.207-0.523c-0.224-0.055-0.516-0.119-0.876-0.192c-0.36-0.074-0.692-0.153-0.997-0.239
			c-0.796-0.226-1.373-0.577-1.733-1.051s-0.541-1.047-0.541-1.721c0-0.924,0.354-1.676,1.063-2.257
			c0.709-0.581,1.649-0.872,2.824-0.872c0.578,0,1.159,0.071,1.743,0.211s1.074,0.318,1.473,0.532v1.844h-0.094
			c-0.447-0.349-0.945-0.624-1.496-0.826c-0.55-0.202-1.104-0.303-1.663-0.303c-0.578,0-1.065,0.119-1.464,0.358
			c-0.397,0.238-0.596,0.6-0.596,1.083c0,0.428,0.117,0.748,0.354,0.959c0.236,0.211,0.615,0.384,1.138,0.519
			c0.261,0.067,0.551,0.133,0.871,0.197c0.32,0.064,0.657,0.139,1.012,0.225c0.77,0.189,1.35,0.504,1.737,0.945
			c0.389,0.44,0.583,1.04,0.583,1.798c0,0.44-0.089,0.858-0.266,1.253s-0.437,0.732-0.778,1.014
			c-0.373,0.306-0.794,0.539-1.263,0.698C495.719,112.981,495.131,113.061,494.422,113.061z"/>
		<path d="M504.799,113.052c-1.659,0-2.947-0.46-3.863-1.381c-0.917-0.92-1.375-2.229-1.375-3.923c0-1.67,0.444-3,1.333-3.988
			c0.889-0.988,2.051-1.482,3.485-1.482c0.646,0,1.218,0.092,1.715,0.275s0.933,0.471,1.306,0.863
			c0.372,0.392,0.658,0.87,0.857,1.436c0.198,0.566,0.298,1.259,0.298,2.079v0.936h-7.214c0,1.193,0.305,2.104,0.913,2.735
			c0.609,0.63,1.451,0.945,2.526,0.945c0.385,0,0.763-0.042,1.132-0.128c0.37-0.085,0.704-0.196,1.002-0.33
			c0.317-0.141,0.584-0.277,0.802-0.409c0.218-0.131,0.397-0.255,0.541-0.372h0.103v1.881c-0.205,0.08-0.46,0.179-0.765,0.298
			c-0.305,0.119-0.578,0.212-0.82,0.28c-0.342,0.092-0.65,0.162-0.927,0.211C505.57,113.027,505.221,113.052,504.799,113.052z
			 M506.849,106.546c-0.012-0.465-0.068-0.866-0.167-1.203c-0.1-0.336-0.242-0.621-0.429-0.853
			c-0.205-0.257-0.468-0.453-0.788-0.587c-0.32-0.135-0.716-0.202-1.188-0.202c-0.466,0-0.861,0.069-1.188,0.207
			c-0.326,0.138-0.622,0.338-0.89,0.601c-0.261,0.27-0.46,0.567-0.597,0.895c-0.137,0.327-0.224,0.708-0.261,1.143H506.849z"/>
		<path d="M518.797,112.813h-1.752v-1.138c-0.541,0.465-1.053,0.818-1.538,1.06c-0.484,0.242-1.025,0.363-1.621,0.363
			c-0.454,0-0.881-0.074-1.282-0.22c-0.4-0.147-0.75-0.379-1.048-0.698c-0.299-0.318-0.53-0.719-0.694-1.202
			c-0.165-0.483-0.247-1.07-0.247-1.762v-6.653h1.752v5.836c0,0.544,0.02,0.996,0.061,1.354c0.04,0.358,0.132,0.671,0.274,0.941
			c0.144,0.263,0.338,0.456,0.583,0.578c0.245,0.122,0.598,0.183,1.058,0.183c0.429,0,0.886-0.119,1.37-0.358
			c0.484-0.238,0.929-0.532,1.333-0.881v-7.653h1.752V112.813z"/>
		<path d="M526.621,104.417h-0.093c-0.131-0.037-0.27-0.06-0.415-0.069c-0.146-0.009-0.321-0.014-0.526-0.014
			c-0.473,0-0.941,0.101-1.408,0.303c-0.466,0.202-0.907,0.502-1.323,0.899v7.277h-1.752v-10.25h1.752v1.523
			c0.641-0.557,1.198-0.95,1.673-1.179c0.476-0.229,0.938-0.344,1.385-0.344c0.18,0,0.315,0.004,0.405,0.014s0.19,0.023,0.303,0.042
			V104.417z"/>
	</g>
	
		<line fill="none" stroke="#800000" stroke-width="0.7559" stroke-linecap="square" stroke-miterlimit="10" x1="238.698" y1="239.241" x2="308.108" y2="135.018"/>
	
		<polygon fill-rule="evenodd" clip-rule="evenodd" fill="#FFFFFF" stroke="#800000" stroke-width="0.7559" stroke-linecap="square" stroke-miterlimit="10" points="
		301.167,170.898 308.108,135.018 276.874,155.52 	"/>
	
		<rect x="358.431" y="239.241" fill-rule="evenodd" clip-rule="evenodd" fill="#FFFFB9" stroke="#800000" stroke-width="0.7559" stroke-linecap="square" stroke-miterlimit="10" width="239.468" height="92.262"/>
	<g>
		<path d="M380.141,264.092c-0.608,0.245-1.399,0.483-2.371,0.716c-0.973,0.232-1.932,0.349-2.876,0.349
			c-2.181,0-3.919-0.619-5.215-1.858c-1.295-1.238-1.943-2.996-1.943-5.271c0-2.142,0.648-3.857,1.943-5.148
			c1.296-1.291,3.068-1.937,5.317-1.937c1.162,0,2.106,0.108,2.834,0.326c0.727,0.217,1.479,0.513,2.255,0.886v3.202h-0.316
			c-0.168-0.128-0.409-0.311-0.723-0.546s-0.62-0.436-0.918-0.601c-0.348-0.196-0.75-0.364-1.207-0.505s-0.939-0.211-1.449-0.211
			c-0.597,0-1.141,0.092-1.631,0.274c-0.491,0.184-0.93,0.466-1.314,0.845c-0.366,0.367-0.657,0.832-0.871,1.395
			c-0.215,0.563-0.322,1.218-0.322,1.964c0,1.597,0.407,2.775,1.222,3.533c0.813,0.759,1.926,1.138,3.336,1.138
			c0.125,0,0.271-0.003,0.438-0.009s0.313-0.015,0.438-0.027v-2.68h-2.694v-2.561h6.067V264.092z"/>
		<path d="M387.618,265.147c-1.977,0-3.491-0.465-4.544-1.395c-1.053-0.931-1.58-2.255-1.58-3.974c0-1.683,0.491-3.025,1.473-4.029
			c0.981-1.003,2.355-1.505,4.12-1.505c1.603,0,2.809,0.426,3.616,1.275c0.808,0.851,1.211,2.068,1.211,3.652v1.156h-7.148
			c0.031,0.478,0.134,0.877,0.308,1.198s0.404,0.576,0.689,0.766c0.28,0.19,0.606,0.326,0.979,0.409
			c0.372,0.082,0.779,0.123,1.221,0.123c0.379,0,0.752-0.041,1.118-0.123c0.366-0.083,0.702-0.191,1.007-0.326
			c0.267-0.116,0.514-0.241,0.741-0.376c0.227-0.135,0.411-0.254,0.554-0.358h0.346v2.652c-0.268,0.104-0.512,0.2-0.732,0.289
			s-0.523,0.179-0.908,0.271c-0.354,0.092-0.72,0.164-1.096,0.216S388.158,265.147,387.618,265.147z M388.699,258.394
			c-0.019-0.68-0.179-1.196-0.48-1.552c-0.301-0.354-0.763-0.532-1.384-0.532c-0.634,0-1.129,0.188-1.486,0.561
			s-0.555,0.881-0.592,1.523H388.699z"/>
		<path d="M397.581,265.156c-0.771,0-1.499-0.082-2.186-0.247c-0.687-0.166-1.254-0.358-1.701-0.578v-2.717h0.271
			c0.155,0.116,0.332,0.245,0.531,0.386c0.198,0.141,0.476,0.287,0.829,0.44c0.305,0.141,0.648,0.262,1.03,0.362
			s0.797,0.151,1.244,0.151c0.46,0,0.865-0.07,1.217-0.211c0.351-0.141,0.526-0.364,0.526-0.67c0-0.238-0.081-0.419-0.242-0.542
			c-0.162-0.122-0.476-0.238-0.941-0.349c-0.249-0.061-0.563-0.127-0.941-0.197s-0.715-0.151-1.007-0.243
			c-0.82-0.251-1.437-0.622-1.851-1.114c-0.413-0.493-0.619-1.14-0.619-1.941c0-0.459,0.107-0.892,0.321-1.299
			c0.215-0.406,0.529-0.769,0.946-1.087c0.416-0.313,0.931-0.56,1.542-0.743c0.612-0.184,1.304-0.275,2.074-0.275
			c0.733,0,1.407,0.071,2.022,0.216c0.615,0.144,1.134,0.316,1.557,0.518v2.606h-0.261c-0.112-0.085-0.289-0.2-0.531-0.344
			c-0.243-0.144-0.479-0.268-0.709-0.372c-0.273-0.122-0.579-0.223-0.918-0.303c-0.339-0.079-0.685-0.119-1.039-0.119
			c-0.473,0-0.871,0.08-1.197,0.238c-0.327,0.159-0.49,0.37-0.49,0.634c0,0.232,0.081,0.416,0.243,0.551
			c0.161,0.134,0.513,0.266,1.053,0.395c0.279,0.067,0.602,0.133,0.965,0.197c0.363,0.063,0.713,0.151,1.049,0.262
			c0.751,0.238,1.321,0.589,1.71,1.05c0.388,0.463,0.582,1.076,0.582,1.841c0,0.483-0.114,0.943-0.345,1.381
			c-0.229,0.438-0.556,0.806-0.979,1.105c-0.447,0.324-0.974,0.575-1.58,0.753C399.151,265.067,398.426,265.156,397.581,265.156z"/>
		<path d="M408.798,265.074c-1.33,0-2.298-0.27-2.903-0.808c-0.606-0.538-0.909-1.42-0.909-2.644v-4.817h-1.249v-2.239h1.249v-2.945
			h3.263v2.945h3.141v2.239h-3.141v3.652c0,0.361,0.003,0.676,0.009,0.945c0.007,0.27,0.057,0.511,0.149,0.725
			c0.087,0.215,0.24,0.384,0.461,0.51c0.221,0.125,0.542,0.188,0.965,0.188c0.174,0,0.402-0.036,0.686-0.109
			c0.282-0.074,0.479-0.141,0.592-0.202h0.279v2.267c-0.354,0.092-0.73,0.164-1.128,0.216S409.376,265.074,408.798,265.074z"/>
		<path d="M416.821,253.098h-3.449v-2.505h3.449V253.098z M416.728,264.872h-3.262v-10.306h3.262V264.872z"/>
		<path d="M428.719,259.724c0,1.695-0.471,3.03-1.412,4.006s-2.272,1.464-3.993,1.464c-1.709,0-3.037-0.488-3.984-1.464
			c-0.948-0.976-1.422-2.311-1.422-4.006c0-1.713,0.474-3.054,1.422-4.023c0.947-0.97,2.275-1.455,3.984-1.455
			c1.715,0,3.044,0.488,3.989,1.464C428.247,256.685,428.719,258.023,428.719,259.724z M425.373,259.742
			c0-0.611-0.051-1.121-0.153-1.528c-0.103-0.406-0.244-0.732-0.425-0.977c-0.192-0.258-0.41-0.437-0.652-0.537
			c-0.242-0.102-0.519-0.151-0.829-0.151c-0.292,0-0.557,0.044-0.792,0.133c-0.236,0.089-0.454,0.259-0.653,0.51
			c-0.186,0.238-0.335,0.565-0.447,0.981c-0.111,0.416-0.167,0.939-0.167,1.569s0.053,1.14,0.158,1.528s0.242,0.698,0.41,0.931
			c0.174,0.239,0.392,0.413,0.652,0.523s0.55,0.165,0.866,0.165c0.262,0,0.527-0.055,0.797-0.165
			c0.271-0.11,0.486-0.275,0.648-0.495c0.192-0.264,0.338-0.58,0.438-0.95S425.373,260.396,425.373,259.742z"/>
		<path d="M440.62,264.872h-3.28v-5.111c0-0.416-0.018-0.831-0.052-1.244c-0.034-0.412-0.098-0.717-0.19-0.913
			c-0.112-0.232-0.274-0.398-0.485-0.5c-0.211-0.101-0.494-0.151-0.848-0.151c-0.268,0-0.538,0.049-0.812,0.147
			c-0.273,0.098-0.565,0.254-0.876,0.468v7.305h-3.262v-10.306h3.262v1.138c0.534-0.446,1.055-0.795,1.562-1.046
			c0.506-0.251,1.067-0.376,1.683-0.376c1.068,0,1.886,0.332,2.451,0.995c0.565,0.664,0.848,1.626,0.848,2.887V264.872z"/>
		<path d="M452.782,264.872h-3.28v-5.111c0-0.416-0.018-0.831-0.052-1.244c-0.034-0.412-0.098-0.717-0.19-0.913
			c-0.112-0.232-0.274-0.398-0.485-0.5c-0.211-0.101-0.494-0.151-0.848-0.151c-0.268,0-0.538,0.049-0.812,0.147
			c-0.273,0.098-0.565,0.254-0.876,0.468v7.305h-3.262v-10.306h3.262v1.138c0.534-0.446,1.055-0.795,1.562-1.046
			c0.506-0.251,1.067-0.376,1.683-0.376c1.068,0,1.886,0.332,2.451,0.995c0.565,0.664,0.848,1.626,0.848,2.887V264.872z"/>
		<path d="M460.908,263.78c-0.224,0.184-0.425,0.349-0.602,0.495c-0.177,0.147-0.415,0.294-0.713,0.44
			c-0.292,0.141-0.576,0.248-0.853,0.321c-0.277,0.073-0.664,0.11-1.161,0.11c-0.926,0-1.694-0.306-2.307-0.918
			c-0.611-0.611-0.918-1.383-0.918-2.313c0-0.765,0.155-1.383,0.466-1.854s0.759-0.845,1.343-1.12
			c0.59-0.281,1.295-0.477,2.115-0.587s1.702-0.195,2.647-0.257v-0.055c0-0.569-0.213-0.963-0.639-1.18s-1.064-0.326-1.915-0.326
			c-0.386,0-0.836,0.069-1.352,0.207s-1.02,0.313-1.51,0.527h-0.28v-2.486c0.323-0.092,0.846-0.201,1.566-0.326
			s1.447-0.188,2.181-0.188c1.802,0,3.114,0.296,3.938,0.886c0.823,0.591,1.235,1.491,1.235,2.703v7.011h-3.243V263.78z
			 M460.908,262.184v-2.147c-0.554,0.055-1.001,0.103-1.343,0.142c-0.342,0.04-0.677,0.118-1.006,0.234
			c-0.286,0.098-0.509,0.246-0.667,0.445c-0.158,0.198-0.237,0.463-0.237,0.794c0,0.483,0.132,0.814,0.396,0.995
			c0.265,0.181,0.654,0.271,1.17,0.271c0.286,0,0.578-0.063,0.876-0.192C460.396,262.597,460.665,262.416,460.908,262.184z"/>
		<path d="M470.628,253.098h-3.449v-2.505h3.449V253.098z M470.534,264.872h-3.262v-10.306h3.262V264.872z"/>
		<path d="M479.506,257.604h-0.271c-0.124-0.042-0.305-0.074-0.54-0.096c-0.236-0.021-0.497-0.032-0.783-0.032
			c-0.342,0-0.7,0.049-1.076,0.146c-0.376,0.099-0.741,0.215-1.096,0.349v6.901h-3.262v-10.306h3.262v1.478
			c0.149-0.135,0.355-0.305,0.62-0.51c0.264-0.204,0.505-0.368,0.723-0.49c0.235-0.141,0.511-0.262,0.824-0.363
			c0.313-0.101,0.61-0.151,0.891-0.151c0.105,0,0.224,0.004,0.354,0.01c0.131,0.006,0.249,0.016,0.354,0.027V257.604z"/>
		<path d="M486.496,265.147c-1.977,0-3.491-0.465-4.544-1.395c-1.053-0.931-1.58-2.255-1.58-3.974c0-1.683,0.491-3.025,1.473-4.029
			c0.981-1.003,2.355-1.505,4.12-1.505c1.603,0,2.809,0.426,3.616,1.275c0.808,0.851,1.211,2.068,1.211,3.652v1.156h-7.148
			c0.031,0.478,0.134,0.877,0.308,1.198s0.404,0.576,0.689,0.766c0.28,0.19,0.606,0.326,0.979,0.409
			c0.372,0.082,0.779,0.123,1.221,0.123c0.379,0,0.752-0.041,1.118-0.123c0.366-0.083,0.702-0.191,1.007-0.326
			c0.267-0.116,0.514-0.241,0.741-0.376c0.227-0.135,0.411-0.254,0.554-0.358h0.346v2.652c-0.268,0.104-0.512,0.2-0.732,0.289
			s-0.523,0.179-0.908,0.271c-0.354,0.092-0.72,0.164-1.096,0.216S487.036,265.147,486.496,265.147z M487.577,258.394
			c-0.019-0.68-0.179-1.196-0.48-1.552c-0.301-0.354-0.763-0.532-1.384-0.532c-0.634,0-1.129,0.188-1.486,0.561
			s-0.555,0.881-0.592,1.523H487.577z"/>
		<path d="M499.441,265.139c-2.082,0-3.734-0.62-4.958-1.858c-1.225-1.239-1.837-2.981-1.837-5.227c0-2.166,0.614-3.893,1.841-5.181
			c1.228-1.287,2.882-1.932,4.964-1.932c0.553,0,1.05,0.031,1.491,0.092c0.44,0.062,0.863,0.146,1.268,0.257
			c0.316,0.092,0.661,0.218,1.034,0.377c0.373,0.158,0.674,0.296,0.904,0.412v3.258h-0.354c-0.168-0.146-0.379-0.322-0.634-0.527
			s-0.544-0.405-0.867-0.601c-0.322-0.196-0.679-0.363-1.066-0.501c-0.389-0.138-0.794-0.206-1.217-0.206
			c-0.503,0-0.965,0.078-1.384,0.234c-0.42,0.155-0.818,0.427-1.197,0.812c-0.349,0.349-0.633,0.82-0.854,1.413
			c-0.221,0.594-0.331,1.294-0.331,2.102c0,0.851,0.115,1.565,0.346,2.144c0.229,0.578,0.531,1.044,0.903,1.399
			c0.36,0.343,0.763,0.59,1.207,0.743c0.444,0.152,0.887,0.229,1.328,0.229c0.46,0,0.898-0.075,1.314-0.226
			c0.416-0.149,0.768-0.316,1.053-0.5c0.312-0.189,0.584-0.382,0.82-0.578c0.236-0.195,0.441-0.37,0.615-0.522h0.317v3.212
			c-0.255,0.116-0.55,0.249-0.886,0.398c-0.336,0.15-0.681,0.277-1.034,0.381c-0.436,0.129-0.843,0.227-1.222,0.294
			S500.106,265.139,499.441,265.139z"/>
		<path d="M515.468,259.724c0,1.695-0.471,3.03-1.412,4.006s-2.272,1.464-3.993,1.464c-1.709,0-3.037-0.488-3.984-1.464
			c-0.948-0.976-1.422-2.311-1.422-4.006c0-1.713,0.474-3.054,1.422-4.023c0.947-0.97,2.275-1.455,3.984-1.455
			c1.715,0,3.044,0.488,3.989,1.464C514.996,256.685,515.468,258.023,515.468,259.724z M512.122,259.742
			c0-0.611-0.051-1.121-0.153-1.528c-0.103-0.406-0.244-0.732-0.425-0.977c-0.192-0.258-0.41-0.437-0.652-0.537
			c-0.242-0.102-0.519-0.151-0.829-0.151c-0.292,0-0.557,0.044-0.792,0.133c-0.236,0.089-0.454,0.259-0.653,0.51
			c-0.186,0.238-0.335,0.565-0.447,0.981c-0.111,0.416-0.167,0.939-0.167,1.569s0.053,1.14,0.158,1.528s0.242,0.698,0.41,0.931
			c0.174,0.239,0.392,0.413,0.652,0.523s0.55,0.165,0.866,0.165c0.262,0,0.527-0.055,0.797-0.165
			c0.271-0.11,0.486-0.275,0.648-0.495c0.192-0.264,0.338-0.58,0.438-0.95S512.122,260.396,512.122,259.742z"/>
		<path d="M527.369,264.872h-3.28v-5.111c0-0.416-0.018-0.831-0.052-1.244c-0.034-0.412-0.098-0.717-0.19-0.913
			c-0.112-0.232-0.274-0.398-0.485-0.5c-0.211-0.101-0.494-0.151-0.848-0.151c-0.268,0-0.538,0.049-0.812,0.147
			c-0.273,0.098-0.565,0.254-0.876,0.468v7.305h-3.262v-10.306h3.262v1.138c0.534-0.446,1.055-0.795,1.562-1.046
			c0.506-0.251,1.067-0.376,1.683-0.376c1.068,0,1.886,0.332,2.451,0.995c0.565,0.664,0.848,1.626,0.848,2.887V264.872z"/>
		<path d="M534.861,265.147c-0.864,0-1.654-0.107-2.372-0.321s-1.341-0.545-1.869-0.991c-0.521-0.446-0.929-1.008-1.221-1.684
			s-0.438-1.473-0.438-2.391c0-0.985,0.159-1.823,0.476-2.515c0.317-0.691,0.746-1.261,1.286-1.707
			c0.522-0.428,1.136-0.745,1.841-0.95c0.705-0.204,1.44-0.307,2.204-0.307c0.578,0,1.156,0.065,1.733,0.197
			c0.578,0.132,1.159,0.341,1.743,0.628v2.754h-0.419c-0.131-0.123-0.291-0.258-0.48-0.404s-0.396-0.281-0.62-0.403
			c-0.235-0.129-0.503-0.237-0.801-0.326c-0.299-0.089-0.631-0.133-0.998-0.133c-0.832,0-1.477,0.286-1.934,0.857
			c-0.457,0.572-0.685,1.342-0.685,2.309c0,1.034,0.243,1.805,0.731,2.313c0.487,0.508,1.136,0.762,1.943,0.762
			c0.41,0,0.771-0.046,1.081-0.138s0.578-0.202,0.802-0.33c0.217-0.129,0.403-0.262,0.559-0.399s0.289-0.262,0.401-0.372h0.419
			v2.753c-0.187,0.08-0.402,0.172-0.647,0.275c-0.246,0.104-0.496,0.19-0.751,0.257c-0.316,0.086-0.613,0.151-0.89,0.197
			S535.314,265.147,534.861,265.147z"/>
		<path d="M547.163,257.604h-0.271c-0.124-0.042-0.305-0.074-0.54-0.096c-0.236-0.021-0.497-0.032-0.783-0.032
			c-0.342,0-0.7,0.049-1.076,0.146c-0.376,0.099-0.741,0.215-1.096,0.349v6.901h-3.262v-10.306h3.262v1.478
			c0.149-0.135,0.355-0.305,0.62-0.51c0.264-0.204,0.505-0.368,0.723-0.49c0.235-0.141,0.511-0.262,0.824-0.363
			c0.313-0.101,0.61-0.151,0.891-0.151c0.105,0,0.224,0.004,0.354,0.01c0.131,0.006,0.249,0.016,0.354,0.027V257.604z"/>
		<path d="M554.153,265.147c-1.977,0-3.491-0.465-4.544-1.395c-1.053-0.931-1.58-2.255-1.58-3.974c0-1.683,0.491-3.025,1.473-4.029
			c0.981-1.003,2.355-1.505,4.12-1.505c1.603,0,2.809,0.426,3.616,1.275c0.808,0.851,1.211,2.068,1.211,3.652v1.156h-7.148
			c0.031,0.478,0.134,0.877,0.308,1.198s0.404,0.576,0.689,0.766c0.28,0.19,0.606,0.326,0.979,0.409
			c0.372,0.082,0.779,0.123,1.221,0.123c0.379,0,0.752-0.041,1.118-0.123c0.366-0.083,0.702-0.191,1.007-0.326
			c0.267-0.116,0.514-0.241,0.741-0.376c0.227-0.135,0.411-0.254,0.554-0.358h0.346v2.652c-0.268,0.104-0.512,0.2-0.732,0.289
			s-0.523,0.179-0.908,0.271c-0.354,0.092-0.72,0.164-1.096,0.216S554.693,265.147,554.153,265.147z M555.234,258.394
			c-0.019-0.68-0.179-1.196-0.48-1.552c-0.301-0.354-0.763-0.532-1.384-0.532c-0.634,0-1.129,0.188-1.486,0.561
			s-0.555,0.881-0.592,1.523H555.234z"/>
		<path d="M564.937,265.074c-1.33,0-2.298-0.27-2.903-0.808c-0.606-0.538-0.909-1.42-0.909-2.644v-4.817h-1.249v-2.239h1.249v-2.945
			h3.263v2.945h3.141v2.239h-3.141v3.652c0,0.361,0.003,0.676,0.009,0.945c0.007,0.27,0.057,0.511,0.149,0.725
			c0.087,0.215,0.24,0.384,0.461,0.51c0.221,0.125,0.542,0.188,0.965,0.188c0.174,0,0.402-0.036,0.686-0.109
			c0.282-0.074,0.479-0.141,0.592-0.202h0.279v2.267c-0.354,0.092-0.73,0.164-1.128,0.216S565.515,265.074,564.937,265.074z"/>
		<path d="M580.658,268.038h-12.452v-1.845h12.452V268.038z"/>
		<path d="M592.113,264.872h-10.196v-2.23c0.863-0.673,1.639-1.309,2.325-1.908s1.291-1.169,1.813-1.707
			c0.677-0.703,1.168-1.321,1.473-1.854c0.304-0.532,0.456-1.08,0.456-1.643c0-0.637-0.192-1.124-0.577-1.464
			c-0.386-0.34-0.923-0.51-1.613-0.51c-0.354,0-0.688,0.043-1.002,0.129c-0.313,0.086-0.632,0.195-0.955,0.33
			c-0.316,0.141-0.587,0.284-0.811,0.432c-0.224,0.146-0.392,0.257-0.504,0.33h-0.27v-2.982c0.392-0.184,1.003-0.372,1.836-0.564
			c0.832-0.192,1.634-0.289,2.404-0.289c1.646,0,2.895,0.361,3.742,1.083c0.849,0.722,1.272,1.737,1.272,3.047
			c0,0.808-0.192,1.599-0.578,2.372c-0.385,0.774-1.025,1.604-1.92,2.491c-0.56,0.545-1.103,1.029-1.631,1.455
			c-0.528,0.425-0.91,0.727-1.146,0.903h5.881V264.872z"/>
	</g>
	
		<line fill="none" stroke="#800000" stroke-width="0.7559" stroke-linecap="square" stroke-miterlimit="10" x1="358.431" y1="276.828" x2="599.634" y2="276.828"/>
	<g>
		<path d="M379.535,312.582h-4.707v4.634h-1.547v-4.634h-4.707v-1.469h4.707v-4.634h1.547v4.634h4.707V312.582z"/>
		<path d="M388.213,318.098c-0.981,0-1.88-0.147-2.693-0.441c-0.814-0.293-1.514-0.739-2.098-1.34
			c-0.584-0.605-1.031-1.354-1.342-2.248c-0.311-0.893-0.466-1.921-0.466-3.083c0-1.102,0.157-2.088,0.471-2.96
			s0.763-1.616,1.347-2.234c0.565-0.6,1.262-1.062,2.088-1.386s1.73-0.486,2.712-0.486c0.466,0,0.913,0.033,1.342,0.101
			s0.839,0.159,1.23,0.275c0.311,0.092,0.657,0.219,1.039,0.381c0.383,0.162,0.691,0.302,0.928,0.418v2.193h-0.158
			c-0.23-0.202-0.468-0.394-0.713-0.574c-0.246-0.18-0.592-0.374-1.039-0.582c-0.373-0.184-0.802-0.337-1.287-0.459
			c-0.484-0.122-1.006-0.184-1.565-0.184c-1.336,0-2.415,0.495-3.238,1.486c-0.824,0.991-1.235,2.31-1.235,3.955
			c0,0.918,0.108,1.72,0.326,2.404c0.218,0.686,0.531,1.267,0.941,1.744c0.397,0.471,0.878,0.83,1.439,1.078
			c0.563,0.248,1.195,0.372,1.897,0.372c0.521,0,1.04-0.037,1.557-0.11c0.516-0.073,0.95-0.184,1.305-0.33v-3.533h-3.206v-1.597
			h5.032v5.965c-0.236,0.104-0.551,0.235-0.945,0.395c-0.396,0.159-0.764,0.284-1.104,0.376c-0.454,0.135-0.864,0.235-1.23,0.303
			C389.179,318.063,388.734,318.098,388.213,318.098z"/>
		<path d="M398.936,318.069c-1.659,0-2.947-0.46-3.863-1.381c-0.917-0.921-1.375-2.229-1.375-3.923c0-1.671,0.444-2.999,1.333-3.987
			s2.051-1.482,3.485-1.482c0.646,0,1.218,0.092,1.715,0.275s0.933,0.471,1.306,0.862c0.372,0.392,0.658,0.871,0.857,1.437
			c0.198,0.566,0.298,1.259,0.298,2.078v0.937h-7.214c0,1.193,0.305,2.104,0.913,2.734c0.609,0.631,1.451,0.945,2.526,0.945
			c0.385,0,0.763-0.043,1.132-0.128c0.37-0.086,0.704-0.196,1.002-0.331c0.317-0.141,0.584-0.276,0.802-0.408
			c0.218-0.131,0.397-0.255,0.541-0.371h0.103v1.881c-0.205,0.079-0.46,0.179-0.765,0.298c-0.305,0.12-0.578,0.213-0.82,0.28
			c-0.342,0.092-0.65,0.162-0.927,0.211C399.707,318.045,399.357,318.069,398.936,318.069z M400.985,311.563
			c-0.012-0.465-0.068-0.866-0.167-1.202c-0.1-0.337-0.242-0.621-0.429-0.854c-0.205-0.257-0.468-0.453-0.788-0.588
			c-0.32-0.134-0.716-0.201-1.188-0.201c-0.466,0-0.861,0.068-1.188,0.206c-0.326,0.138-0.622,0.338-0.89,0.602
			c-0.261,0.269-0.46,0.567-0.597,0.895s-0.224,0.708-0.261,1.143H400.985z"/>
		<path d="M410.343,309.435h-0.093c-0.131-0.037-0.27-0.06-0.415-0.069c-0.146-0.009-0.321-0.014-0.526-0.014
			c-0.473,0-0.941,0.101-1.408,0.303c-0.466,0.202-0.907,0.502-1.323,0.899v7.277h-1.752V307.58h1.752v1.523
			c0.641-0.557,1.198-0.949,1.673-1.179c0.476-0.229,0.938-0.345,1.385-0.345c0.18,0,0.315,0.005,0.405,0.014
			c0.09,0.01,0.19,0.023,0.303,0.042V309.435z"/>
		<path d="M416.281,318.069c-1.659,0-2.947-0.46-3.863-1.381c-0.917-0.921-1.375-2.229-1.375-3.923c0-1.671,0.444-2.999,1.333-3.987
			s2.051-1.482,3.485-1.482c0.646,0,1.218,0.092,1.715,0.275s0.933,0.471,1.306,0.862c0.372,0.392,0.658,0.871,0.857,1.437
			c0.198,0.566,0.298,1.259,0.298,2.078v0.937h-7.214c0,1.193,0.305,2.104,0.913,2.734c0.609,0.631,1.451,0.945,2.526,0.945
			c0.385,0,0.763-0.043,1.132-0.128c0.37-0.086,0.704-0.196,1.002-0.331c0.317-0.141,0.584-0.276,0.802-0.408
			c0.218-0.131,0.397-0.255,0.541-0.371h0.103v1.881c-0.205,0.079-0.46,0.179-0.765,0.298c-0.305,0.12-0.578,0.213-0.82,0.28
			c-0.342,0.092-0.65,0.162-0.927,0.211C417.053,318.045,416.703,318.069,416.281,318.069z M418.331,311.563
			c-0.012-0.465-0.068-0.866-0.167-1.202c-0.1-0.337-0.242-0.621-0.429-0.854c-0.205-0.257-0.468-0.453-0.788-0.588
			c-0.32-0.134-0.716-0.201-1.188-0.201c-0.466,0-0.861,0.068-1.188,0.206c-0.326,0.138-0.622,0.338-0.89,0.602
			c-0.261,0.269-0.46,0.567-0.597,0.895s-0.224,0.708-0.261,1.143H418.331z"/>
		<path d="M433.057,317.831h-2.395l-4.399-5.433h-2.106v5.433h-1.846v-13.664h3.579c0.795,0,1.462,0.043,1.999,0.128
			c0.537,0.086,1.049,0.285,1.533,0.597c0.484,0.306,0.868,0.7,1.151,1.184c0.282,0.483,0.424,1.083,0.424,1.799
			c0,1.004-0.258,1.842-0.773,2.515s-1.218,1.172-2.106,1.496L433.057,317.831z M429.068,308.012c0-0.397-0.072-0.751-0.215-1.06
			c-0.143-0.31-0.363-0.562-0.662-0.758c-0.261-0.171-0.565-0.292-0.913-0.362s-0.779-0.105-1.296-0.105h-1.826v5.157h1.621
			c0.528,0,1.004-0.046,1.427-0.138c0.422-0.092,0.782-0.281,1.081-0.568c0.267-0.257,0.464-0.563,0.592-0.918
			C429.004,308.905,429.068,308.489,429.068,308.012z"/>
		<path d="M438.823,318.069c-1.659,0-2.947-0.46-3.863-1.381c-0.917-0.921-1.375-2.229-1.375-3.923c0-1.671,0.444-2.999,1.333-3.987
			s2.051-1.482,3.485-1.482c0.646,0,1.218,0.092,1.715,0.275s0.933,0.471,1.306,0.862c0.372,0.392,0.658,0.871,0.857,1.437
			c0.198,0.566,0.298,1.259,0.298,2.078v0.937h-7.214c0,1.193,0.305,2.104,0.913,2.734c0.609,0.631,1.451,0.945,2.526,0.945
			c0.385,0,0.763-0.043,1.132-0.128c0.37-0.086,0.704-0.196,1.002-0.331c0.317-0.141,0.584-0.276,0.802-0.408
			c0.218-0.131,0.397-0.255,0.541-0.371h0.103v1.881c-0.205,0.079-0.46,0.179-0.765,0.298c-0.305,0.12-0.578,0.213-0.82,0.28
			c-0.342,0.092-0.65,0.162-0.927,0.211C439.595,318.045,439.245,318.069,438.823,318.069z M440.873,311.563
			c-0.012-0.465-0.068-0.866-0.167-1.202c-0.1-0.337-0.242-0.621-0.429-0.854c-0.205-0.257-0.468-0.453-0.788-0.588
			c-0.32-0.134-0.716-0.201-1.188-0.201c-0.466,0-0.861,0.068-1.188,0.206c-0.326,0.138-0.622,0.338-0.89,0.602
			c-0.261,0.269-0.46,0.567-0.597,0.895s-0.224,0.708-0.261,1.143H440.873z"/>
		<path d="M452.729,321.612h-1.752v-4.9c-0.51,0.458-1.007,0.793-1.492,1.005c-0.484,0.211-1.021,0.316-1.612,0.316
			c-1.181,0-2.122-0.467-2.823-1.399c-0.703-0.934-1.054-2.231-1.054-3.896c0-0.882,0.123-1.66,0.368-2.336s0.57-1.243,0.974-1.702
			c0.386-0.446,0.846-0.792,1.38-1.037s1.091-0.367,1.668-0.367c0.534,0,0.998,0.062,1.389,0.184
			c0.392,0.122,0.793,0.303,1.203,0.541l0.111-0.44h1.641V321.612z M450.977,315.262v-5.837c-0.441-0.214-0.836-0.363-1.185-0.449
			c-0.348-0.086-0.721-0.129-1.118-0.129c-0.92,0-1.628,0.327-2.125,0.982c-0.497,0.654-0.745,1.597-0.745,2.826
			c0,1.199,0.198,2.121,0.596,2.767c0.398,0.646,1.017,0.969,1.855,0.969c0.49,0,0.969-0.104,1.435-0.313
			C450.156,315.87,450.585,315.598,450.977,315.262z"/>
		<path d="M463.238,317.831h-1.752v-1.138c-0.541,0.465-1.053,0.818-1.538,1.06c-0.484,0.242-1.025,0.362-1.621,0.362
			c-0.454,0-0.881-0.073-1.282-0.22c-0.4-0.147-0.75-0.38-1.048-0.697c-0.299-0.318-0.53-0.719-0.694-1.202
			c-0.165-0.483-0.247-1.071-0.247-1.763v-6.653h1.752v5.837c0,0.545,0.02,0.996,0.061,1.354c0.04,0.358,0.132,0.672,0.274,0.94
			c0.144,0.264,0.338,0.456,0.583,0.578c0.245,0.123,0.598,0.184,1.058,0.184c0.429,0,0.886-0.119,1.37-0.357
			c0.484-0.239,0.929-0.532,1.333-0.881v-7.654h1.752V317.831z"/>
		<path d="M470.065,318.069c-1.659,0-2.947-0.46-3.863-1.381c-0.917-0.921-1.375-2.229-1.375-3.923c0-1.671,0.444-2.999,1.333-3.987
			s2.051-1.482,3.485-1.482c0.646,0,1.218,0.092,1.715,0.275s0.933,0.471,1.306,0.862c0.372,0.392,0.658,0.871,0.857,1.437
			c0.198,0.566,0.298,1.259,0.298,2.078v0.937h-7.214c0,1.193,0.305,2.104,0.913,2.734c0.609,0.631,1.451,0.945,2.526,0.945
			c0.385,0,0.763-0.043,1.132-0.128c0.37-0.086,0.704-0.196,1.002-0.331c0.317-0.141,0.584-0.276,0.802-0.408
			c0.218-0.131,0.397-0.255,0.541-0.371h0.103v1.881c-0.205,0.079-0.46,0.179-0.765,0.298c-0.305,0.12-0.578,0.213-0.82,0.28
			c-0.342,0.092-0.65,0.162-0.927,0.211C470.837,318.045,470.487,318.069,470.065,318.069z M472.115,311.563
			c-0.012-0.465-0.068-0.866-0.167-1.202c-0.1-0.337-0.242-0.621-0.429-0.854c-0.205-0.257-0.468-0.453-0.788-0.588
			c-0.32-0.134-0.716-0.201-1.188-0.201c-0.466,0-0.861,0.068-1.188,0.206c-0.326,0.138-0.622,0.338-0.89,0.602
			c-0.261,0.269-0.46,0.567-0.597,0.895s-0.224,0.708-0.261,1.143H472.115z"/>
		<path d="M479.105,318.033c-0.957,0-1.703-0.268-2.237-0.804c-0.534-0.535-0.801-1.381-0.801-2.537v-5.681h-1.185v-1.432h1.185
			v-2.945h1.752v2.945h3.225v1.432h-3.225v4.873c0,0.521,0.009,0.921,0.027,1.202s0.091,0.545,0.215,0.789
			c0.105,0.215,0.276,0.375,0.513,0.482c0.236,0.106,0.556,0.16,0.96,0.16c0.285,0,0.563-0.041,0.829-0.124
			c0.268-0.082,0.46-0.151,0.578-0.206h0.103v1.551c-0.329,0.092-0.663,0.164-1.002,0.216S479.391,318.033,479.105,318.033z"/>
		<path d="M487.413,318.069c-1.659,0-2.947-0.46-3.863-1.381c-0.917-0.921-1.375-2.229-1.375-3.923c0-1.671,0.444-2.999,1.333-3.987
			s2.051-1.482,3.485-1.482c0.646,0,1.218,0.092,1.715,0.275s0.933,0.471,1.306,0.862c0.372,0.392,0.658,0.871,0.857,1.437
			c0.198,0.566,0.298,1.259,0.298,2.078v0.937h-7.214c0,1.193,0.305,2.104,0.913,2.734c0.609,0.631,1.451,0.945,2.526,0.945
			c0.385,0,0.763-0.043,1.132-0.128c0.37-0.086,0.704-0.196,1.002-0.331c0.317-0.141,0.584-0.276,0.802-0.408
			c0.218-0.131,0.397-0.255,0.541-0.371h0.103v1.881c-0.205,0.079-0.46,0.179-0.765,0.298c-0.305,0.12-0.578,0.213-0.82,0.28
			c-0.342,0.092-0.65,0.162-0.927,0.211C488.185,318.045,487.835,318.069,487.413,318.069z M489.463,311.563
			c-0.012-0.465-0.068-0.866-0.167-1.202c-0.1-0.337-0.242-0.621-0.429-0.854c-0.205-0.257-0.468-0.453-0.788-0.588
			c-0.32-0.134-0.716-0.201-1.188-0.201c-0.466,0-0.861,0.068-1.188,0.206c-0.326,0.138-0.622,0.338-0.89,0.602
			c-0.261,0.269-0.46,0.567-0.597,0.895s-0.224,0.708-0.261,1.143H489.463z"/>
		<path d="M498.652,321.612h-2.134c-1.081-1.267-1.932-2.606-2.55-4.02s-0.927-3.084-0.927-5.011c0-1.885,0.306-3.544,0.918-4.979
			c0.611-1.435,1.465-2.785,2.559-4.052h2.134v0.092c-0.503,0.446-0.983,0.962-1.439,1.546c-0.457,0.585-0.881,1.266-1.272,2.042
			c-0.373,0.753-0.676,1.582-0.909,2.487c-0.232,0.905-0.35,1.859-0.35,2.863c0,1.046,0.114,2.004,0.341,2.872
			c0.227,0.869,0.532,1.695,0.918,2.478c0.373,0.753,0.798,1.434,1.276,2.042c0.479,0.609,0.957,1.124,1.436,1.547V321.612z"/>
		<path d="M505.28,312.582c0,1.891-0.308,3.552-0.923,4.982c-0.615,1.432-1.467,2.781-2.554,4.048h-2.135v-0.092
			c0.479-0.423,0.96-0.941,1.445-1.556c0.484-0.615,0.906-1.293,1.268-2.033c0.385-0.789,0.69-1.622,0.918-2.5
			c0.227-0.878,0.34-1.828,0.34-2.85c0-1.01-0.115-1.964-0.345-2.863c-0.23-0.899-0.534-1.729-0.913-2.487
			c-0.38-0.758-0.809-1.44-1.287-2.046s-0.953-1.12-1.426-1.542v-0.092h2.135c1.081,1.267,1.931,2.612,2.549,4.038
			S505.28,310.68,505.28,312.582z"/>
	</g>
	
		<line fill="none" stroke="#800000" stroke-width="0.7559" stroke-linecap="square" stroke-miterlimit="10" x1="358.431" y1="292.204" x2="599.634" y2="292.204"/>
	
		<line fill="none" stroke="#800000" stroke-width="0.7559" stroke-linecap="square" stroke-miterlimit="10" x1="445.194" y1="239.241" x2="372.313" y2="135.018"/>
	
		<polygon fill-rule="evenodd" clip-rule="evenodd" fill="#FFFFFF" stroke="#800000" stroke-width="0.7559" stroke-linecap="square" stroke-miterlimit="10" points="
		403.549,153.812 372.313,135.018 379.255,170.898 	"/>
</g>
</svg>
