<?xml version="1.0" encoding="utf-8"?>
<!-- Generator: Adobe Illustrator 15.0.0, SVG Export Plug-In . SVG Version: 6.00 Build 0)  -->
<!DOCTYPE svg PUBLIC "-//W3C//DTD SVG 1.1//EN" "http://www.w3.org/Graphics/SVG/1.1/DTD/svg11.dtd">
<svg version="1.1" id="Calque_1" xmlns="http://www.w3.org/2000/svg" xmlns:xlink="http://www.w3.org/1999/xlink" x="0px" y="0px"
	 width="612px" height="298px" viewBox="0 0 612 298" enable-background="new 0 0 612 298" xml:space="preserve">
<g>
	
		<rect x="6" y="7.912" fill-rule="evenodd" clip-rule="evenodd" fill="#FFFFB9" stroke="#800000" stroke-width="0.7559" stroke-linecap="square" stroke-miterlimit="10" width="114.191" height="90.619"/>
	<g>
		<path d="M26.913,33.332c-2.044,0-3.667-0.608-4.87-1.825c-1.202-1.217-1.803-2.928-1.803-5.133c0-2.127,0.603-3.823,1.808-5.088
			c1.205-1.265,2.83-1.897,4.875-1.897c0.543,0,1.031,0.03,1.465,0.09c0.433,0.06,0.848,0.145,1.245,0.252
			c0.312,0.09,0.65,0.213,1.016,0.37s0.662,0.292,0.888,0.406v3.2h-0.348c-0.165-0.145-0.372-0.317-0.622-0.519
			c-0.25-0.201-0.534-0.398-0.852-0.59c-0.317-0.192-0.667-0.356-1.048-0.491s-0.779-0.203-1.194-0.203
			c-0.495,0-0.948,0.077-1.359,0.23c-0.412,0.153-0.804,0.419-1.176,0.797c-0.342,0.343-0.621,0.805-0.838,1.388
			s-0.325,1.271-0.325,2.064c0,0.835,0.113,1.537,0.338,2.104c0.226,0.568,0.522,1.026,0.888,1.375
			c0.354,0.337,0.749,0.58,1.186,0.73c0.436,0.15,0.871,0.225,1.304,0.225c0.452,0,0.882-0.073,1.291-0.221
			c0.409-0.147,0.753-0.311,1.034-0.491c0.305-0.186,0.574-0.375,0.806-0.568s0.433-0.363,0.604-0.514h0.312v3.155
			c-0.25,0.114-0.54,0.245-0.87,0.392c-0.33,0.147-0.668,0.271-1.016,0.374c-0.427,0.126-0.827,0.222-1.199,0.288
			C28.078,33.299,27.565,33.332,26.913,33.332z"/>
		<path d="M42.653,28.014c0,1.665-0.462,2.976-1.387,3.935s-2.232,1.438-3.922,1.438c-1.679,0-2.983-0.479-3.914-1.438
			s-1.396-2.27-1.396-3.935c0-1.682,0.465-3,1.396-3.952c0.931-0.952,2.235-1.429,3.914-1.429c1.684,0,2.99,0.479,3.918,1.438
			C42.189,25.029,42.653,26.344,42.653,28.014z M39.367,28.032c0-0.601-0.05-1.101-0.151-1.5c-0.101-0.4-0.24-0.72-0.417-0.96
			c-0.189-0.252-0.402-0.428-0.641-0.527c-0.238-0.099-0.51-0.149-0.814-0.149c-0.287,0-0.546,0.044-0.778,0.131
			c-0.232,0.087-0.445,0.254-0.641,0.5c-0.183,0.234-0.33,0.556-0.439,0.964s-0.165,0.922-0.165,1.541
			c0,0.619,0.052,1.119,0.156,1.501c0.104,0.381,0.238,0.687,0.403,0.915c0.171,0.234,0.384,0.406,0.641,0.514
			c0.256,0.108,0.54,0.162,0.852,0.162c0.256,0,0.517-0.054,0.783-0.162c0.265-0.108,0.478-0.271,0.636-0.487
			c0.189-0.258,0.333-0.569,0.43-0.933C39.318,29.179,39.367,28.675,39.367,28.032z"/>
		<path d="M54.343,33.071h-3.222V28.05c0-0.409-0.017-0.815-0.05-1.221c-0.034-0.406-0.096-0.705-0.188-0.897
			c-0.11-0.228-0.269-0.392-0.476-0.491s-0.485-0.148-0.833-0.148c-0.262,0-0.528,0.048-0.796,0.144s-0.555,0.25-0.86,0.459v7.175
			h-3.204V22.949h3.204v1.118c0.525-0.438,1.036-0.781,1.533-1.027s1.048-0.37,1.652-0.37c1.05,0,1.852,0.326,2.408,0.978
			c0.555,0.652,0.833,1.597,0.833,2.834V33.071z"/>
		<path d="M60.594,33.269c-1.306,0-2.257-0.264-2.852-0.793c-0.595-0.529-0.893-1.394-0.893-2.596v-4.732h-1.227v-2.199h1.227
			v-2.893h3.204v2.893h3.085v2.199h-3.085v3.587c0,0.354,0.003,0.664,0.009,0.928c0.006,0.265,0.055,0.502,0.146,0.712
			c0.085,0.21,0.237,0.377,0.453,0.5c0.217,0.124,0.533,0.185,0.948,0.185c0.171,0,0.395-0.036,0.673-0.108
			c0.277-0.072,0.471-0.138,0.581-0.198h0.275v2.226c-0.348,0.09-0.717,0.161-1.108,0.212C61.64,33.244,61.161,33.269,60.594,33.269
			z"/>
		<path d="M70.442,33.341c-1.94,0-3.428-0.457-4.462-1.37c-1.035-0.913-1.552-2.214-1.552-3.903c0-1.652,0.482-2.971,1.446-3.957
			c0.964-0.985,2.313-1.478,4.046-1.478c1.574,0,2.758,0.418,3.552,1.253c0.793,0.835,1.19,2.031,1.19,3.587v1.136h-7.021
			c0.031,0.469,0.131,0.86,0.302,1.176c0.171,0.315,0.396,0.566,0.677,0.752c0.275,0.187,0.595,0.32,0.961,0.401
			c0.366,0.082,0.766,0.122,1.199,0.122c0.372,0,0.738-0.041,1.099-0.122c0.36-0.081,0.689-0.188,0.988-0.32
			c0.263-0.114,0.505-0.237,0.728-0.37C73.818,30.118,74,30,74.14,29.898h0.339v2.605c-0.263,0.102-0.502,0.197-0.719,0.284
			c-0.217,0.087-0.514,0.175-0.893,0.266c-0.348,0.09-0.706,0.161-1.076,0.212C71.423,33.315,70.973,33.341,70.442,33.341z
			 M71.504,26.708c-0.019-0.667-0.176-1.175-0.472-1.523c-0.296-0.348-0.749-0.523-1.359-0.523c-0.622,0-1.109,0.184-1.46,0.55
			c-0.351,0.367-0.544,0.866-0.581,1.497H71.504z"/>
		<path d="M87.24,33.071h-3.753l-1.959-2.911l-2.014,2.911h-3.68l3.781-5.057l-3.717-5.065h3.753l1.922,2.857l1.932-2.857h3.689
			l-3.726,4.984L87.24,33.071z"/>
		<path d="M92.948,33.269c-1.306,0-2.257-0.264-2.852-0.793c-0.595-0.529-0.893-1.394-0.893-2.596v-4.732h-1.227v-2.199h1.227
			v-2.893h3.204v2.893h3.085v2.199h-3.085v3.587c0,0.354,0.003,0.664,0.009,0.928c0.006,0.265,0.055,0.502,0.146,0.712
			c0.085,0.21,0.237,0.377,0.453,0.5c0.217,0.124,0.533,0.185,0.948,0.185c0.171,0,0.395-0.036,0.673-0.108
			c0.277-0.072,0.471-0.138,0.581-0.198h0.275v2.226c-0.348,0.09-0.717,0.161-1.108,0.212
			C93.994,33.244,93.515,33.269,92.948,33.269z"/>
		<path d="M102.796,33.341c-1.94,0-3.428-0.457-4.462-1.37c-1.035-0.913-1.552-2.214-1.552-3.903c0-1.652,0.482-2.971,1.446-3.957
			c0.964-0.985,2.313-1.478,4.046-1.478c1.574,0,2.758,0.418,3.552,1.253c0.793,0.835,1.19,2.031,1.19,3.587v1.136h-7.021
			c0.031,0.469,0.131,0.86,0.302,1.176c0.171,0.315,0.396,0.566,0.677,0.752c0.275,0.187,0.595,0.32,0.961,0.401
			c0.366,0.082,0.766,0.122,1.199,0.122c0.372,0,0.738-0.041,1.099-0.122c0.36-0.081,0.689-0.188,0.988-0.32
			c0.263-0.114,0.505-0.237,0.728-0.37c0.223-0.132,0.404-0.249,0.544-0.352h0.339v2.605c-0.263,0.102-0.502,0.197-0.719,0.284
			c-0.217,0.087-0.514,0.175-0.893,0.266c-0.348,0.09-0.706,0.161-1.076,0.212C103.777,33.315,103.328,33.341,102.796,33.341z
			 M103.858,26.708c-0.019-0.667-0.176-1.175-0.472-1.523c-0.296-0.348-0.749-0.523-1.359-0.523c-0.622,0-1.109,0.184-1.46,0.55
			c-0.351,0.367-0.544,0.866-0.581,1.497H103.858z"/>
	</g>
	
		<line fill="none" stroke="#800000" stroke-width="0.7559" stroke-linecap="square" stroke-miterlimit="10" x1="6" y1="44.83" x2="121.895" y2="44.83"/>
	<g>
		<path d="M26.731,79.946h-4.623v4.552h-1.52v-4.552h-4.623v-1.442h4.623v-4.552h1.52v4.552h4.623V79.946z"/>
		<path d="M33.478,85.327c-0.702,0-1.346-0.106-1.932-0.32s-1.089-0.536-1.51-0.969c-0.421-0.433-0.748-0.978-0.979-1.636
			c-0.232-0.658-0.348-1.431-0.348-2.321c0-0.883,0.121-1.646,0.362-2.29c0.241-0.643,0.563-1.184,0.966-1.622
			c0.402-0.438,0.904-0.777,1.506-1.014c0.601-0.237,1.246-0.356,1.936-0.356c0.561,0,1.103,0.078,1.625,0.234
			c0.522,0.156,0.987,0.336,1.396,0.541v1.902h-0.101c-0.122-0.102-0.279-0.219-0.471-0.352c-0.192-0.132-0.426-0.267-0.7-0.405
			c-0.238-0.12-0.519-0.226-0.842-0.315c-0.324-0.09-0.635-0.135-0.934-0.135c-0.891,0-1.606,0.332-2.146,0.996
			s-0.81,1.603-0.81,2.816c0,1.19,0.261,2.117,0.783,2.781c0.521,0.664,1.246,0.996,2.174,0.996c0.562,0,1.096-0.114,1.602-0.343
			c0.507-0.228,0.955-0.522,1.346-0.883h0.101v1.902c-0.171,0.078-0.384,0.173-0.641,0.284c-0.256,0.111-0.488,0.193-0.696,0.248
			c-0.293,0.084-0.555,0.149-0.787,0.194S33.844,85.327,33.478,85.327z"/>
		<path d="M46.364,80.073c0,1.694-0.415,3.003-1.245,3.925s-1.935,1.383-3.313,1.383c-1.422,0-2.541-0.476-3.355-1.429
			c-0.814-0.952-1.222-2.246-1.222-3.88c0-1.683,0.419-2.989,1.258-3.921c0.839-0.931,1.945-1.397,3.319-1.397
			c1.379,0,2.483,0.464,3.313,1.393C45.949,77.076,46.364,78.384,46.364,80.073z M44.588,80.073c0-1.304-0.241-2.273-0.723-2.907
			c-0.482-0.634-1.169-0.951-2.06-0.951c-0.897,0-1.588,0.317-2.074,0.951c-0.485,0.634-0.728,1.603-0.728,2.907
			c0,1.262,0.243,2.219,0.728,2.871c0.485,0.652,1.176,0.978,2.074,0.978c0.885,0,1.57-0.32,2.055-0.96
			C44.345,82.321,44.588,81.358,44.588,80.073z"/>
		<path d="M56.206,85.102h-1.721V79.37c0-0.463-0.023-0.894-0.069-1.293c-0.046-0.399-0.133-0.72-0.261-0.96
			c-0.141-0.252-0.336-0.44-0.586-0.563c-0.25-0.123-0.592-0.185-1.025-0.185c-0.427,0-0.868,0.113-1.323,0.338
			c-0.455,0.226-0.898,0.519-1.332,0.879v7.517h-1.721V75.034h1.721v1.118c0.513-0.451,1.019-0.796,1.52-1.037
			s1.028-0.36,1.584-0.36c1.007,0,1.794,0.326,2.362,0.978c0.567,0.652,0.851,1.597,0.851,2.834V85.102z"/>
		<path d="M61.491,85.3c-0.939,0-1.672-0.263-2.197-0.789s-0.787-1.356-0.787-2.492V76.44h-1.163v-1.406h1.163v-2.894h1.721v2.894
			h3.167v1.406h-3.167v4.786c0,0.511,0.009,0.905,0.027,1.181c0.019,0.276,0.089,0.535,0.211,0.775
			c0.104,0.21,0.271,0.368,0.503,0.473c0.232,0.105,0.546,0.158,0.943,0.158c0.281,0,0.552-0.041,0.814-0.122
			c0.263-0.081,0.452-0.148,0.568-0.203h0.101v1.523c-0.324,0.09-0.651,0.161-0.984,0.212C62.079,85.275,61.772,85.3,61.491,85.3z"
			/>
		<path d="M69.651,85.336c-1.629,0-2.894-0.452-3.794-1.356c-0.9-0.904-1.35-2.189-1.35-3.854c0-1.64,0.437-2.946,1.309-3.916
			s2.014-1.456,3.424-1.456c0.634,0,1.196,0.09,1.684,0.27c0.488,0.181,0.916,0.463,1.282,0.848
			c0.366,0.384,0.647,0.854,0.842,1.411c0.195,0.556,0.293,1.236,0.293,2.042v0.919h-7.085c0,1.172,0.299,2.067,0.897,2.686
			c0.598,0.619,1.425,0.929,2.481,0.929c0.378,0,0.749-0.042,1.112-0.126c0.363-0.084,0.691-0.192,0.984-0.324
			c0.312-0.138,0.574-0.272,0.787-0.401c0.214-0.129,0.391-0.25,0.531-0.365h0.101v1.848c-0.201,0.078-0.452,0.176-0.75,0.293
			c-0.299,0.117-0.568,0.208-0.806,0.275c-0.336,0.09-0.64,0.159-0.911,0.207C70.41,85.313,70.066,85.336,69.651,85.336z
			 M71.666,78.946c-0.012-0.457-0.067-0.85-0.165-1.181s-0.238-0.61-0.421-0.838c-0.201-0.252-0.459-0.444-0.773-0.577
			c-0.314-0.132-0.704-0.198-1.167-0.198c-0.458,0-0.847,0.067-1.167,0.203s-0.612,0.332-0.874,0.59
			c-0.256,0.265-0.452,0.558-0.586,0.879c-0.134,0.322-0.22,0.696-0.256,1.122H71.666z"/>
		<path d="M83.382,85.102h-2.115l-2.481-3.804l-2.554,3.804h-1.95l3.552-4.993l-3.516-5.075h2.115l2.462,3.768l2.527-3.768h1.959
			l-3.534,4.958L83.382,85.102z"/>
		<path d="M88.75,85.3c-0.939,0-1.672-0.263-2.197-0.789s-0.787-1.356-0.787-2.492V76.44h-1.163v-1.406h1.163v-2.894h1.721v2.894
			h3.167v1.406h-3.167v4.786c0,0.511,0.009,0.905,0.027,1.181c0.019,0.276,0.089,0.535,0.211,0.775
			c0.104,0.21,0.271,0.368,0.503,0.473c0.232,0.105,0.546,0.158,0.943,0.158c0.281,0,0.552-0.041,0.814-0.122
			c0.263-0.081,0.452-0.148,0.568-0.203h0.101v1.523c-0.324,0.09-0.651,0.161-0.984,0.212C89.337,85.275,89.03,85.3,88.75,85.3z"/>
		<path d="M96.91,85.336c-1.629,0-2.894-0.452-3.794-1.356c-0.9-0.904-1.35-2.189-1.35-3.854c0-1.64,0.437-2.946,1.309-3.916
			s2.014-1.456,3.424-1.456c0.634,0,1.196,0.09,1.684,0.27c0.488,0.181,0.916,0.463,1.282,0.848
			c0.366,0.384,0.647,0.854,0.842,1.411c0.195,0.556,0.293,1.236,0.293,2.042v0.919h-7.085c0,1.172,0.299,2.067,0.897,2.686
			c0.598,0.619,1.425,0.929,2.481,0.929c0.378,0,0.749-0.042,1.112-0.126c0.363-0.084,0.691-0.192,0.984-0.324
			c0.312-0.138,0.574-0.272,0.787-0.401c0.214-0.129,0.391-0.25,0.531-0.365h0.101v1.848c-0.201,0.078-0.452,0.176-0.75,0.293
			c-0.299,0.117-0.568,0.208-0.806,0.275c-0.336,0.09-0.64,0.159-0.911,0.207C97.668,85.313,97.325,85.336,96.91,85.336z
			 M98.924,78.946c-0.012-0.457-0.067-0.85-0.165-1.181s-0.238-0.61-0.421-0.838c-0.201-0.252-0.459-0.444-0.773-0.577
			c-0.314-0.132-0.704-0.198-1.167-0.198c-0.458,0-0.847,0.067-1.167,0.203s-0.612,0.332-0.874,0.59
			c-0.256,0.265-0.452,0.558-0.586,0.879c-0.134,0.322-0.22,0.696-0.256,1.122H98.924z"/>
		<path d="M107.949,88.815h-2.096c-1.062-1.244-1.896-2.56-2.504-3.948s-0.911-3.028-0.911-4.921c0-1.851,0.3-3.48,0.901-4.89
			s1.439-2.735,2.513-3.979h2.096v0.09c-0.494,0.438-0.966,0.945-1.415,1.519c-0.448,0.574-0.865,1.243-1.25,2.005
			c-0.366,0.739-0.664,1.554-0.893,2.443c-0.229,0.889-0.343,1.827-0.343,2.812c0,1.028,0.111,1.968,0.334,2.821
			c0.223,0.854,0.523,1.665,0.901,2.434c0.366,0.739,0.784,1.408,1.254,2.005c0.47,0.598,0.939,1.104,1.41,1.519V88.815z"/>
		<path d="M114.458,79.946c0,1.857-0.302,3.488-0.906,4.895c-0.604,1.406-1.44,2.731-2.508,3.975h-2.097v-0.09
			c0.47-0.415,0.943-0.924,1.419-1.528s0.891-1.27,1.245-1.997c0.378-0.775,0.679-1.594,0.902-2.456
			c0.223-0.862,0.334-1.795,0.334-2.799c0-0.991-0.113-1.929-0.339-2.812s-0.525-1.697-0.897-2.443
			c-0.373-0.745-0.793-1.415-1.263-2.01c-0.47-0.595-0.937-1.1-1.401-1.514v-0.09h2.097c1.062,1.244,1.896,2.566,2.503,3.966
			C114.155,76.443,114.458,78.078,114.458,79.946z"/>
	</g>
	
		<line fill="none" stroke="#800000" stroke-width="0.7559" stroke-linecap="square" stroke-miterlimit="10" x1="6" y1="59.934" x2="121.895" y2="59.934"/>
	
		<rect x="317.895" y="7.912" fill-rule="evenodd" clip-rule="evenodd" fill="#FFFFB9" stroke="#800000" stroke-width="0.7559" stroke-linecap="square" stroke-miterlimit="10" width="126.12" height="90.619"/>
	<g>
		<path stroke="#000000" stroke-width="0.2376" stroke-miterlimit="10" d="M341.749,33.314c-0.989,0-1.796-0.101-2.421-0.302
			c-0.624-0.202-1.191-0.449-1.702-0.744l0.757-2.236h0.128c0.411,0.553,0.943,0.981,1.598,1.285
			c0.654,0.303,1.332,0.455,2.033,0.455c1.001,0,1.827-0.207,2.479-0.618s1.093-0.954,1.32-1.626
			c0.182-0.536,0.194-0.971,0.039-1.307c-0.154-0.336-0.496-0.586-1.027-0.748c-0.381-0.121-0.732-0.219-1.053-0.298
			c-0.322-0.078-0.723-0.183-1.203-0.315c-0.429-0.121-0.798-0.273-1.107-0.46c-0.31-0.186-0.557-0.429-0.742-0.729
			c-0.18-0.294-0.281-0.641-0.302-1.041c-0.02-0.399,0.059-0.861,0.235-1.384c0.368-1.087,1.106-2,2.217-2.736
			c1.109-0.735,2.333-1.104,3.669-1.104c0.763,0,1.459,0.075,2.089,0.225c0.63,0.151,1.188,0.364,1.674,0.64l-0.723,2.137h-0.139
			c-0.301-0.391-0.74-0.731-1.319-1.023c-0.578-0.292-1.24-0.438-1.984-0.438c-0.842,0-1.589,0.194-2.238,0.582
			c-0.65,0.388-1.081,0.896-1.295,1.527c-0.193,0.571-0.194,1.025-0.003,1.362c0.19,0.335,0.55,0.583,1.076,0.739
			c0.351,0.102,0.781,0.217,1.292,0.347c0.513,0.128,0.933,0.248,1.263,0.356c0.844,0.282,1.386,0.708,1.626,1.279
			c0.24,0.572,0.22,1.274-0.063,2.109c-0.177,0.523-0.46,1.04-0.85,1.55c-0.391,0.512-0.84,0.943-1.352,1.299
			c-0.571,0.39-1.169,0.691-1.792,0.901C343.305,33.208,342.578,33.314,341.749,33.314z"/>
		<path stroke="#000000" stroke-width="0.2376" stroke-miterlimit="10" d="M352.848,33.269c-0.939,0-1.583-0.263-1.931-0.788
			c-0.347-0.526-0.328-1.357,0.057-2.493l1.889-5.579H351.7l0.476-1.406h1.162l0.979-2.894h1.722l-0.979,2.894h3.167l-0.476,1.406
			h-3.167l-1.62,4.786c-0.173,0.511-0.298,0.905-0.372,1.18c-0.076,0.277-0.094,0.536-0.053,0.775
			c0.033,0.211,0.146,0.368,0.344,0.474c0.195,0.105,0.492,0.158,0.889,0.158c0.281,0,0.566-0.041,0.856-0.122
			c0.29-0.082,0.502-0.149,0.636-0.203h0.102l-0.517,1.523c-0.354,0.09-0.705,0.16-1.056,0.212
			C353.443,33.244,353.129,33.269,352.848,33.269z"/>
		<path stroke="#000000" stroke-width="0.2376" stroke-miterlimit="10" d="M366.552,24.823h-0.092
			c-0.115-0.036-0.243-0.058-0.384-0.067s-0.311-0.014-0.512-0.014c-0.465,0-0.959,0.1-1.484,0.298
			c-0.523,0.198-1.058,0.493-1.599,0.883l-2.42,7.147h-1.721l3.408-10.068h1.721l-0.506,1.496c0.813-0.546,1.492-0.932,2.035-1.158
			c0.544-0.226,1.034-0.338,1.474-0.338c0.177,0,0.309,0.005,0.395,0.013c0.084,0.009,0.18,0.023,0.283,0.041L366.552,24.823z"/>
		<path stroke="#000000" stroke-width="0.2376" stroke-miterlimit="10" d="M372.935,31.998c-0.175,0.103-0.411,0.245-0.707,0.428
			c-0.298,0.184-0.575,0.33-0.831,0.438c-0.357,0.156-0.693,0.277-1.005,0.361c-0.313,0.084-0.726,0.126-1.238,0.126
			c-0.421,0-0.794-0.078-1.12-0.234c-0.324-0.156-0.583-0.375-0.773-0.658c-0.183-0.276-0.285-0.617-0.313-1.023
			c-0.028-0.405,0.035-0.833,0.188-1.284c0.235-0.697,0.586-1.291,1.051-1.781c0.465-0.489,1.068-0.878,1.813-1.166
			c0.661-0.259,1.399-0.438,2.214-0.537c0.814-0.099,1.682-0.173,2.602-0.221l0.109-0.325c0.135-0.397,0.182-0.716,0.143-0.96
			c-0.039-0.243-0.146-0.431-0.322-0.563c-0.173-0.138-0.41-0.229-0.712-0.275c-0.303-0.044-0.622-0.067-0.957-0.067
			c-0.396,0-0.884,0.058-1.46,0.176s-1.171,0.287-1.783,0.51h-0.102l0.583-1.722c0.349-0.09,0.836-0.189,1.464-0.298
			c0.629-0.108,1.233-0.162,1.813-0.162c0.702,0,1.275,0.054,1.722,0.162c0.444,0.108,0.812,0.304,1.102,0.586
			c0.278,0.276,0.434,0.634,0.469,1.073s-0.055,0.973-0.268,1.604l-2.332,6.887h-1.712L372.935,31.998z M373.41,30.592l0.946-2.793
			c-0.421,0.036-0.954,0.085-1.602,0.148c-0.647,0.063-1.182,0.152-1.605,0.266c-0.505,0.138-0.954,0.35-1.35,0.636
			c-0.396,0.285-0.681,0.684-0.854,1.194c-0.195,0.577-0.178,1.013,0.052,1.307c0.23,0.294,0.662,0.441,1.297,0.441
			c0.544,0,1.074-0.116,1.592-0.347C372.404,31.212,372.912,30.928,373.41,30.592z"/>
		<path stroke="#000000" stroke-width="0.2376" stroke-miterlimit="10" d="M381.807,33.269c-0.939,0-1.582-0.263-1.93-0.788
			c-0.347-0.526-0.328-1.357,0.057-2.493l1.889-5.579h-1.162l0.476-1.406h1.162l0.979-2.894h1.722l-0.979,2.894h3.167l-0.476,1.406
			h-3.167l-1.62,4.786c-0.173,0.511-0.298,0.905-0.373,1.18c-0.075,0.277-0.093,0.536-0.052,0.775
			c0.033,0.211,0.146,0.368,0.344,0.474c0.195,0.105,0.492,0.158,0.889,0.158c0.281,0,0.566-0.041,0.856-0.122
			c0.289-0.082,0.502-0.149,0.637-0.203h0.1l-0.516,1.523c-0.354,0.09-0.705,0.16-1.056,0.212
			C382.403,33.244,382.088,33.269,381.807,33.269z"/>
		<path stroke="#000000" stroke-width="0.2376" stroke-miterlimit="10" d="M391.661,33.305c-1.629,0-2.741-0.452-3.335-1.356
			c-0.594-0.905-0.609-2.188-0.046-3.854c0.556-1.64,1.434-2.946,2.636-3.917c1.2-0.97,2.506-1.455,3.915-1.455
			c0.635,0,1.166,0.09,1.593,0.27c0.428,0.181,0.76,0.462,0.995,0.847c0.235,0.385,0.358,0.855,0.365,1.411
			c0.007,0.556-0.126,1.237-0.398,2.042l-0.312,0.919h-7.086c-0.396,1.172-0.399,2.067-0.012,2.687
			c0.389,0.619,1.111,0.928,2.166,0.928c0.379,0,0.764-0.042,1.155-0.126s0.757-0.192,1.095-0.325
			c0.357-0.138,0.665-0.272,0.923-0.401c0.257-0.128,0.476-0.25,0.654-0.364h0.101l-0.625,1.847
			c-0.229,0.079-0.512,0.176-0.851,0.293c-0.339,0.118-0.638,0.209-0.898,0.275c-0.366,0.09-0.692,0.159-0.98,0.207
			C392.428,33.281,392.076,33.305,391.661,33.305z M395.838,26.915c0.144-0.457,0.222-0.85,0.236-1.181
			c0.014-0.33-0.032-0.609-0.138-0.838c-0.116-0.252-0.31-0.445-0.579-0.577c-0.27-0.131-0.636-0.198-1.1-0.198
			c-0.457,0-0.869,0.067-1.235,0.202c-0.366,0.135-0.726,0.332-1.074,0.59c-0.347,0.265-0.641,0.558-0.884,0.88
			c-0.243,0.321-0.455,0.695-0.637,1.122H395.838z"/>
		<path stroke="#000000" stroke-width="0.2376" stroke-miterlimit="10" d="M399.033,34.684c0.099,0.048,0.248,0.113,0.447,0.194
			c0.198,0.081,0.428,0.157,0.69,0.229c0.291,0.079,0.563,0.142,0.814,0.189c0.253,0.048,0.537,0.072,0.854,0.072
			c0.531,0,1.004-0.069,1.421-0.207c0.416-0.139,0.77-0.331,1.06-0.577c0.279-0.246,0.514-0.532,0.702-0.856
			s0.354-0.694,0.494-1.108l0.3-0.883c-0.599,0.397-1.152,0.689-1.662,0.879c-0.51,0.189-1.1,0.284-1.771,0.284
			c-1.166,0-1.949-0.426-2.35-1.28c-0.4-0.853-0.33-2.078,0.211-3.677c0.283-0.835,0.652-1.576,1.109-2.222
			c0.456-0.646,0.963-1.195,1.519-1.646c0.53-0.432,1.098-0.766,1.702-1c0.604-0.235,1.187-0.352,1.748-0.352
			c0.531,0,0.97,0.061,1.315,0.184c0.347,0.124,0.675,0.3,0.989,0.527l0.246-0.432h1.62l-3.021,8.922
			c-0.578,1.707-1.38,2.96-2.407,3.759s-2.319,1.199-3.876,1.199c-0.5,0-0.997-0.04-1.493-0.117
			c-0.495-0.078-0.946-0.183-1.353-0.315l0.598-1.767H399.033z M406.289,30.339l1.871-5.525c-0.358-0.203-0.704-0.35-1.038-0.437
			s-0.681-0.131-1.041-0.131c-0.872,0-1.665,0.315-2.38,0.947c-0.714,0.631-1.27,1.535-1.668,2.713
			c-0.379,1.118-0.477,1.968-0.293,2.55c0.186,0.583,0.704,0.874,1.559,0.874c0.445,0,0.934-0.087,1.466-0.261
			C405.297,30.895,405.806,30.652,406.289,30.339z"/>
		<path stroke="#000000" stroke-width="0.2376" stroke-miterlimit="10" d="M412.889,33.071h-1.722l3.408-10.068h1.722
			L412.889,33.071z M416.986,21.318h-1.959l0.595-1.759h1.959L416.986,21.318z"/>
		<path stroke="#000000" stroke-width="0.2376" stroke-miterlimit="10" d="M420.601,33.305c-1.629,0-2.741-0.452-3.335-1.356
			c-0.594-0.905-0.609-2.188-0.046-3.854c0.556-1.64,1.434-2.946,2.636-3.917c1.2-0.97,2.506-1.455,3.915-1.455
			c0.635,0,1.166,0.09,1.593,0.27c0.428,0.181,0.76,0.462,0.995,0.847c0.235,0.385,0.358,0.855,0.365,1.411
			c0.007,0.556-0.126,1.237-0.398,2.042l-0.312,0.919h-7.086c-0.396,1.172-0.399,2.067-0.012,2.687
			c0.389,0.619,1.111,0.928,2.166,0.928c0.379,0,0.764-0.042,1.155-0.126s0.757-0.192,1.095-0.325
			c0.357-0.138,0.665-0.272,0.923-0.401c0.257-0.128,0.476-0.25,0.654-0.364h0.101l-0.625,1.847
			c-0.229,0.079-0.512,0.176-0.851,0.293c-0.339,0.118-0.638,0.209-0.898,0.275c-0.366,0.09-0.692,0.159-0.98,0.207
			C421.367,33.281,421.016,33.305,420.601,33.305z M424.777,26.915c0.144-0.457,0.222-0.85,0.236-1.181
			c0.014-0.33-0.032-0.609-0.138-0.838c-0.116-0.252-0.31-0.445-0.579-0.577c-0.27-0.131-0.636-0.198-1.1-0.198
			c-0.457,0-0.869,0.067-1.235,0.202c-0.366,0.135-0.726,0.332-1.074,0.59c-0.347,0.265-0.641,0.558-0.884,0.88
			c-0.243,0.321-0.455,0.695-0.637,1.122H424.777z"/>
	</g>
	
		<line fill="none" stroke="#800000" stroke-width="0.7559" stroke-linecap="square" stroke-miterlimit="10" x1="317.895" y1="44.83" x2="445.721" y2="44.83"/>
	<g>
		<path d="M340.338,79.942h-4.623l-1.541,4.552h-1.52l1.541-4.552h-4.623l0.488-1.442h4.623l1.541-4.552h1.52l-1.541,4.552h4.623
			L340.338,79.942z"/>
		<path d="M347.35,84.025c-0.176,0.103-0.411,0.245-0.707,0.428c-0.298,0.184-0.574,0.329-0.831,0.438
			c-0.357,0.156-0.693,0.276-1.005,0.361c-0.313,0.084-0.726,0.125-1.238,0.125c-0.421,0-0.794-0.078-1.119-0.234
			c-0.326-0.156-0.584-0.375-0.774-0.659c-0.183-0.275-0.286-0.617-0.313-1.023c-0.027-0.405,0.035-0.833,0.188-1.284
			c0.236-0.698,0.587-1.291,1.052-1.781c0.464-0.489,1.068-0.879,1.813-1.167c0.661-0.259,1.399-0.438,2.214-0.537
			c0.815-0.099,1.682-0.173,2.602-0.221l0.109-0.325c0.135-0.397,0.183-0.716,0.143-0.96c-0.04-0.243-0.147-0.431-0.321-0.563
			c-0.174-0.138-0.411-0.229-0.713-0.275c-0.303-0.044-0.622-0.067-0.957-0.067c-0.396,0-0.884,0.058-1.46,0.176
			c-0.577,0.117-1.171,0.287-1.784,0.509h-0.1l0.582-1.721c0.348-0.091,0.836-0.189,1.465-0.298
			c0.628-0.108,1.232-0.162,1.813-0.162c0.701,0,1.275,0.053,1.721,0.162s0.813,0.303,1.102,0.585
			c0.279,0.277,0.436,0.635,0.471,1.073c0.033,0.438-0.056,0.973-0.27,1.604l-2.331,6.886h-1.712L347.35,84.025z M347.826,82.619
			l0.945-2.793c-0.422,0.036-0.955,0.085-1.602,0.148c-0.646,0.064-1.182,0.153-1.605,0.267c-0.504,0.138-0.954,0.35-1.35,0.635
			c-0.396,0.285-0.681,0.684-0.854,1.194c-0.195,0.577-0.178,1.013,0.052,1.307c0.23,0.294,0.662,0.441,1.297,0.441
			c0.544,0,1.074-0.115,1.592-0.347S347.327,82.956,347.826,82.619z"/>
		<path d="M353.248,85.098h-1.722l4.748-14.024h1.722L353.248,85.098z"/>
		<path d="M354.732,86.711c0.099,0.048,0.248,0.113,0.447,0.194c0.198,0.081,0.428,0.157,0.69,0.229
			c0.291,0.079,0.563,0.142,0.814,0.189c0.253,0.048,0.537,0.072,0.854,0.072c0.531,0,1.004-0.069,1.421-0.208
			c0.416-0.139,0.77-0.331,1.06-0.577c0.279-0.246,0.514-0.532,0.702-0.856c0.188-0.324,0.354-0.694,0.494-1.108l0.3-0.883
			c-0.599,0.396-1.152,0.689-1.662,0.878c-0.51,0.19-1.1,0.284-1.771,0.284c-1.166,0-1.949-0.427-2.35-1.28
			c-0.4-0.853-0.33-2.079,0.211-3.677c0.283-0.835,0.652-1.576,1.109-2.222c0.456-0.646,0.963-1.195,1.518-1.646
			c0.531-0.432,1.099-0.766,1.703-1c0.604-0.235,1.187-0.352,1.748-0.352c0.531,0,0.97,0.061,1.315,0.184
			c0.346,0.124,0.675,0.299,0.989,0.527l0.246-0.432h1.62l-3.021,8.922c-0.578,1.707-1.38,2.96-2.407,3.759
			s-2.319,1.199-3.876,1.199c-0.5,0-0.997-0.04-1.493-0.118c-0.495-0.078-0.946-0.183-1.353-0.315l0.598-1.767H354.732z
			 M361.988,82.366l1.87-5.525c-0.357-0.204-0.704-0.35-1.037-0.437c-0.334-0.087-0.681-0.131-1.041-0.131
			c-0.872,0-1.665,0.315-2.38,0.947c-0.714,0.631-1.27,1.534-1.668,2.713c-0.379,1.117-0.477,1.967-0.293,2.55
			c0.185,0.583,0.704,0.874,1.559,0.874c0.445,0,0.934-0.087,1.466-0.261C360.996,82.922,361.505,82.679,361.988,82.366z"/>
		<path d="M375.258,80.068c-0.573,1.695-1.431,3.003-2.572,3.925c-1.143,0.923-2.404,1.384-3.783,1.384
			c-1.422,0-2.379-0.476-2.871-1.428c-0.492-0.953-0.462-2.246,0.092-3.88c0.569-1.682,1.432-2.989,2.586-3.921
			c1.154-0.931,2.418-1.396,3.791-1.396c1.379,0,2.328,0.463,2.844,1.392C375.857,77.072,375.83,78.379,375.258,80.068z
			 M373.482,80.068c0.442-1.304,0.529-2.272,0.262-2.907c-0.268-0.633-0.847-0.951-1.738-0.951c-0.896,0-1.695,0.317-2.395,0.951
			c-0.701,0.635-1.271,1.603-1.713,2.907c-0.427,1.262-0.508,2.218-0.244,2.871c0.266,0.652,0.846,0.979,1.742,0.979
			c0.885,0,1.679-0.32,2.381-0.96S373.048,81.354,373.482,80.068z"/>
		<path d="M383.571,76.851h-0.092c-0.115-0.036-0.244-0.058-0.384-0.067c-0.141-0.009-0.311-0.014-0.512-0.014
			c-0.465,0-0.959,0.1-1.484,0.298c-0.523,0.198-1.058,0.493-1.599,0.883l-2.42,7.147h-1.721l3.408-10.067h1.721l-0.506,1.496
			c0.813-0.547,1.492-0.933,2.035-1.158c0.544-0.226,1.034-0.337,1.474-0.337c0.177,0,0.309,0.004,0.395,0.013
			c0.084,0.009,0.18,0.023,0.283,0.041L383.571,76.851z"/>
		<path d="M383.93,85.098h-1.722l3.408-10.067h1.722L383.93,85.098z M388.027,73.345h-1.959l0.595-1.758h1.959L388.027,73.345z"/>
		<path d="M388.621,85.296c-0.939,0-1.584-0.263-1.931-0.788c-0.347-0.526-0.328-1.357,0.057-2.493l1.889-5.579h-1.162l0.476-1.406
			h1.162l0.979-2.894h1.722l-0.979,2.894H394l-0.476,1.406h-3.167l-1.62,4.786c-0.173,0.51-0.298,0.904-0.372,1.18
			c-0.076,0.276-0.094,0.536-0.053,0.775c0.033,0.211,0.146,0.368,0.344,0.474c0.195,0.105,0.492,0.158,0.889,0.158
			c0.281,0,0.566-0.041,0.856-0.122c0.289-0.081,0.502-0.149,0.636-0.203h0.101l-0.516,1.523c-0.354,0.09-0.705,0.16-1.056,0.212
			C389.217,85.271,388.902,85.296,388.621,85.296z"/>
		<path d="M400.445,85.098h-1.721l1.94-5.732c0.157-0.462,0.279-0.895,0.37-1.294c0.09-0.399,0.11-0.718,0.063-0.959
			c-0.054-0.252-0.186-0.44-0.395-0.563s-0.529-0.185-0.962-0.185c-0.428,0-0.906,0.113-1.438,0.338
			c-0.532,0.226-1.074,0.519-1.63,0.879l-2.545,7.517h-1.721l4.748-14.024h1.721l-1.718,5.074c0.665-0.45,1.289-0.796,1.87-1.037
			c0.582-0.24,1.15-0.36,1.706-0.36c1.007,0,1.684,0.325,2.03,0.978c0.348,0.652,0.312,1.597-0.107,2.834L400.445,85.098z"/>
		<path d="M414.245,85.098l1.972-5.823c0.156-0.462,0.283-0.891,0.38-1.284c0.097-0.394,0.124-0.702,0.083-0.924
			c-0.041-0.24-0.154-0.418-0.342-0.532c-0.187-0.114-0.473-0.171-0.856-0.171c-0.354,0-0.771,0.106-1.248,0.32
			c-0.479,0.213-1.003,0.521-1.571,0.924c-0.029,0.102-0.063,0.224-0.102,0.365c-0.039,0.142-0.09,0.308-0.155,0.5l-2.243,6.625
			h-1.721l1.972-5.823c0.156-0.462,0.282-0.891,0.38-1.284c0.096-0.394,0.124-0.702,0.083-0.924c-0.04-0.24-0.154-0.418-0.341-0.532
			c-0.188-0.114-0.474-0.171-0.857-0.171c-0.373,0-0.803,0.114-1.288,0.342c-0.486,0.229-0.981,0.52-1.486,0.875l-2.545,7.517
			h-1.721l3.408-10.067h1.721l-0.378,1.117c0.603-0.445,1.166-0.789,1.69-1.032s1.053-0.364,1.584-0.364
			c0.604,0,1.094,0.135,1.47,0.405c0.375,0.271,0.58,0.715,0.614,1.334c0.712-0.571,1.365-1.003,1.959-1.298
			c0.594-0.294,1.181-0.441,1.761-0.441c0.439,0,0.816,0.067,1.131,0.203c0.313,0.135,0.554,0.353,0.721,0.653
			c0.171,0.307,0.254,0.688,0.25,1.145c-0.006,0.457-0.126,1.031-0.359,1.722l-2.243,6.625H414.245z"/>
		<path d="M420.644,85.332c-1.629,0-2.741-0.452-3.335-1.356c-0.594-0.904-0.609-2.188-0.046-3.854
			c0.556-1.64,1.434-2.946,2.636-3.916c1.2-0.971,2.506-1.455,3.915-1.455c0.635,0,1.166,0.089,1.593,0.27
			c0.428,0.18,0.76,0.462,0.995,0.847s0.358,0.854,0.365,1.411s-0.126,1.237-0.398,2.042l-0.312,0.919h-7.086
			c-0.396,1.172-0.4,2.067-0.012,2.686c0.389,0.619,1.111,0.928,2.166,0.928c0.379,0,0.764-0.042,1.155-0.125
			c0.392-0.084,0.757-0.192,1.095-0.325c0.357-0.138,0.665-0.272,0.923-0.401c0.257-0.129,0.476-0.251,0.654-0.365h0.101
			l-0.625,1.847c-0.229,0.079-0.512,0.176-0.851,0.293c-0.339,0.117-0.638,0.209-0.898,0.274c-0.366,0.091-0.692,0.159-0.98,0.208
			C421.41,85.308,421.059,85.332,420.644,85.332z M424.82,78.942c0.143-0.457,0.222-0.85,0.236-1.181
			c0.014-0.33-0.032-0.609-0.138-0.838c-0.116-0.253-0.31-0.445-0.579-0.577c-0.27-0.131-0.636-0.198-1.1-0.198
			c-0.457,0-0.869,0.067-1.235,0.203s-0.726,0.332-1.074,0.59c-0.347,0.264-0.641,0.558-0.884,0.879
			c-0.243,0.321-0.455,0.696-0.637,1.122H424.82z"/>
		<path d="M430.504,88.812h-2.096c-0.642-1.244-1.03-2.56-1.168-3.948c-0.137-1.389,0.114-3.028,0.756-4.922
			c0.626-1.85,1.479-3.48,2.557-4.89c1.078-1.409,2.365-2.735,3.86-3.979h2.096l-0.03,0.089c-0.643,0.439-1.285,0.945-1.928,1.519
			c-0.644,0.574-1.287,1.243-1.929,2.005c-0.616,0.739-1.19,1.554-1.72,2.443c-0.53,0.89-0.962,1.827-1.295,2.812
			c-0.349,1.028-0.556,1.968-0.621,2.821c-0.066,0.854-0.041,1.665,0.078,2.434c0.115,0.739,0.308,1.408,0.574,2.005
			c0.268,0.599,0.566,1.104,0.896,1.519L430.504,88.812z"/>
		<path d="M440.018,79.942c-0.629,1.857-1.484,3.488-2.563,4.894c-1.081,1.407-2.365,2.731-3.854,3.976h-2.096l0.03-0.09
			c0.61-0.415,1.255-0.924,1.937-1.527c0.68-0.604,1.32-1.27,1.92-1.997c0.641-0.775,1.219-1.594,1.733-2.456
			c0.515-0.862,0.942-1.795,1.282-2.799c0.335-0.992,0.539-1.929,0.612-2.812s0.051-1.697-0.07-2.443
			c-0.12-0.745-0.313-1.415-0.582-2.01c-0.269-0.595-0.564-1.099-0.888-1.514l0.03-0.089h2.096c0.642,1.244,1.028,2.566,1.161,3.965
			C440.899,76.439,440.649,78.073,440.018,79.942z"/>
	</g>
	
		<line fill="none" stroke="#800000" stroke-width="0.7559" stroke-linecap="square" stroke-miterlimit="10" x1="317.895" y1="59.934" x2="445.721" y2="59.934"/>
	
		<rect x="154.278" y="199.217" fill-rule="evenodd" clip-rule="evenodd" fill="#FFFFB9" stroke="#800000" stroke-width="0.7559" stroke-linecap="square" stroke-miterlimit="10" width="204.52" height="90.619"/>
	<g>
		<path d="M168.42,224.616c-1.043,0-1.96-0.099-2.751-0.297c-0.79-0.198-1.524-0.445-2.201-0.739v-3.191h0.311
			c0.684,0.571,1.437,1.01,2.261,1.316c0.824,0.307,1.623,0.46,2.398,0.46c0.195,0,0.453-0.021,0.773-0.063s0.578-0.108,0.773-0.198
			c0.238-0.102,0.439-0.245,0.604-0.428c0.165-0.184,0.248-0.426,0.248-0.726c0-0.337-0.135-0.61-0.403-0.82
			c-0.269-0.211-0.589-0.363-0.961-0.46c-0.464-0.12-0.959-0.234-1.487-0.343c-0.528-0.107-1.021-0.24-1.479-0.396
			c-1.056-0.366-1.813-0.859-2.271-1.478c-0.458-0.619-0.687-1.395-0.687-2.326c0-1.256,0.54-2.272,1.621-3.051
			c1.08-0.778,2.429-1.167,4.046-1.167c0.812,0,1.619,0.081,2.421,0.243c0.802,0.162,1.521,0.382,2.156,0.658v3.064h-0.302
			c-0.506-0.427-1.125-0.787-1.854-1.082c-0.729-0.294-1.479-0.441-2.248-0.441c-0.299,0-0.567,0.021-0.805,0.063
			c-0.238,0.042-0.488,0.123-0.751,0.243c-0.213,0.096-0.398,0.238-0.554,0.428s-0.233,0.401-0.233,0.636
			c0,0.343,0.124,0.614,0.371,0.815s0.725,0.384,1.433,0.546c0.458,0.102,0.898,0.201,1.323,0.297
			c0.424,0.097,0.877,0.229,1.359,0.396c0.946,0.337,1.649,0.789,2.11,1.356c0.46,0.568,0.691,1.318,0.691,2.249
			c0,1.334-0.532,2.407-1.597,3.218C171.672,224.211,170.233,224.616,168.42,224.616z"/>
		<path d="M179.892,224.571c-1.306,0-2.257-0.265-2.852-0.793c-0.595-0.529-0.893-1.395-0.893-2.596v-4.732h-1.227v-2.199h1.227
			v-2.894h3.204v2.894h3.085v2.199h-3.085v3.588c0,0.354,0.003,0.663,0.009,0.928c0.006,0.265,0.055,0.502,0.146,0.712
			c0.085,0.211,0.237,0.378,0.453,0.501c0.217,0.123,0.533,0.185,0.948,0.185c0.171,0,0.395-0.036,0.673-0.108
			c0.277-0.072,0.471-0.138,0.581-0.198h0.275v2.227c-0.348,0.09-0.717,0.16-1.108,0.212
			C180.938,224.546,180.459,224.571,179.892,224.571z"/>
		<path d="M191.379,217.234h-0.266c-0.122-0.042-0.299-0.073-0.531-0.095c-0.232-0.021-0.488-0.031-0.769-0.031
			c-0.335,0-0.688,0.048-1.057,0.145c-0.37,0.096-0.728,0.21-1.076,0.342v6.778h-3.204v-10.122h3.204v1.451
			c0.146-0.132,0.349-0.299,0.609-0.5c0.259-0.201,0.496-0.362,0.709-0.482c0.231-0.138,0.501-0.257,0.81-0.356
			c0.308-0.099,0.6-0.148,0.874-0.148c0.104,0,0.22,0.003,0.348,0.009c0.128,0.007,0.244,0.016,0.348,0.027V217.234z"/>
		<path d="M198.647,223.301c-0.22,0.18-0.417,0.342-0.59,0.486s-0.407,0.288-0.7,0.433c-0.287,0.139-0.566,0.243-0.838,0.315
			s-0.651,0.108-1.14,0.108c-0.909,0-1.665-0.301-2.266-0.901s-0.902-1.358-0.902-2.271c0-0.751,0.153-1.357,0.458-1.82
			s0.744-0.829,1.318-1.1c0.58-0.276,1.272-0.469,2.078-0.577s1.672-0.192,2.6-0.252v-0.055c0-0.559-0.209-0.944-0.627-1.158
			c-0.418-0.213-1.045-0.32-1.881-0.32c-0.378,0-0.821,0.068-1.328,0.203c-0.506,0.136-1.001,0.309-1.483,0.519h-0.274v-2.442
			c0.317-0.091,0.83-0.197,1.538-0.32s1.422-0.185,2.142-0.185c1.77,0,3.059,0.29,3.868,0.869c0.809,0.58,1.213,1.465,1.213,2.655
			v6.886h-3.186V223.301z M198.647,221.732v-2.109c-0.543,0.054-0.982,0.101-1.318,0.14c-0.335,0.039-0.665,0.116-0.988,0.229
			c-0.281,0.097-0.499,0.242-0.655,0.438s-0.233,0.455-0.233,0.779c0,0.476,0.129,0.801,0.389,0.979
			c0.259,0.177,0.642,0.266,1.149,0.266c0.28,0,0.567-0.063,0.86-0.189S198.41,221.961,198.647,221.732z"/>
		<path d="M208.834,224.571c-1.306,0-2.257-0.265-2.852-0.793c-0.595-0.529-0.893-1.395-0.893-2.596v-4.732h-1.227v-2.199h1.227
			v-2.894h3.204v2.894h3.085v2.199h-3.085v3.588c0,0.354,0.003,0.663,0.009,0.928c0.006,0.265,0.055,0.502,0.146,0.712
			c0.085,0.211,0.237,0.378,0.453,0.501c0.217,0.123,0.533,0.185,0.948,0.185c0.171,0,0.395-0.036,0.673-0.108
			c0.277-0.072,0.471-0.138,0.581-0.198h0.275v2.227c-0.348,0.09-0.717,0.16-1.108,0.212
			C209.88,224.546,209.401,224.571,208.834,224.571z"/>
		<path d="M218.683,224.644c-1.94,0-3.428-0.457-4.462-1.37c-1.035-0.913-1.552-2.214-1.552-3.902c0-1.653,0.482-2.972,1.446-3.957
			s2.313-1.479,4.046-1.479c1.574,0,2.758,0.418,3.552,1.253c0.793,0.835,1.19,2.031,1.19,3.587v1.136h-7.021
			c0.031,0.469,0.131,0.861,0.302,1.177s0.396,0.566,0.677,0.752c0.275,0.187,0.595,0.32,0.961,0.401s0.766,0.122,1.199,0.122
			c0.372,0,0.738-0.041,1.099-0.122c0.36-0.081,0.689-0.188,0.988-0.319c0.263-0.114,0.505-0.237,0.728-0.37
			c0.223-0.132,0.404-0.249,0.544-0.352h0.339v2.605c-0.263,0.102-0.502,0.196-0.719,0.283c-0.217,0.088-0.514,0.176-0.893,0.267
			c-0.348,0.09-0.706,0.16-1.076,0.211C219.664,224.618,219.214,224.644,218.683,224.644z M219.745,218.01
			c-0.019-0.667-0.176-1.175-0.472-1.523s-0.749-0.522-1.359-0.522c-0.622,0-1.109,0.183-1.46,0.55
			c-0.351,0.366-0.544,0.865-0.581,1.496H219.745z"/>
		<path d="M234.685,223.21c0,0.938-0.138,1.733-0.412,2.389s-0.65,1.166-1.126,1.532c-0.476,0.373-1.047,0.642-1.712,0.807
			s-1.404,0.248-2.215,0.248c-0.684,0-1.332-0.044-1.945-0.131s-1.146-0.188-1.597-0.302v-2.532h0.375
			c0.158,0.06,0.346,0.126,0.563,0.198c0.216,0.071,0.435,0.138,0.654,0.198c0.262,0.065,0.519,0.12,0.769,0.162
			c0.25,0.042,0.506,0.063,0.769,0.063c0.543,0,0.996-0.056,1.359-0.166c0.363-0.111,0.636-0.27,0.819-0.474
			c0.183-0.21,0.311-0.458,0.384-0.743s0.11-0.645,0.11-1.077v-0.189c-0.36,0.313-0.777,0.563-1.25,0.753
			c-0.473,0.188-0.96,0.283-1.46,0.283c-1.331,0-2.357-0.426-3.081-1.279s-1.085-2.151-1.085-3.895c0-0.793,0.111-1.505,0.334-2.136
			c0.223-0.631,0.532-1.169,0.929-1.613c0.378-0.427,0.836-0.756,1.373-0.987c0.537-0.23,1.095-0.347,1.675-0.347
			c0.524,0,0.995,0.066,1.41,0.198s0.793,0.31,1.135,0.532l0.119-0.451h3.104V223.21z M231.48,221.183v-4.588
			c-0.159-0.072-0.354-0.132-0.586-0.181c-0.232-0.048-0.464-0.072-0.696-0.072c-0.769,0-1.347,0.245-1.734,0.735
			c-0.388,0.489-0.582,1.173-0.582,2.05c0,0.439,0.029,0.811,0.087,1.113c0.058,0.304,0.167,0.572,0.325,0.807
			c0.152,0.229,0.353,0.401,0.6,0.519s0.563,0.176,0.947,0.176c0.287,0,0.569-0.048,0.847-0.145
			C230.966,221.501,231.23,221.362,231.48,221.183z"/>
		<path d="M240.545,212.809h-3.387v-2.46h3.387V212.809z M240.454,224.373h-3.204v-10.122h3.204V224.373z"/>
		<path d="M247.627,224.644c-1.94,0-3.428-0.457-4.462-1.37c-1.035-0.913-1.552-2.214-1.552-3.902c0-1.653,0.482-2.972,1.446-3.957
			s2.313-1.479,4.046-1.479c1.574,0,2.758,0.418,3.552,1.253c0.793,0.835,1.19,2.031,1.19,3.587v1.136h-7.021
			c0.031,0.469,0.131,0.861,0.302,1.177s0.396,0.566,0.677,0.752c0.275,0.187,0.595,0.32,0.961,0.401s0.766,0.122,1.199,0.122
			c0.372,0,0.738-0.041,1.099-0.122c0.36-0.081,0.689-0.188,0.988-0.319c0.263-0.114,0.505-0.237,0.728-0.37
			c0.223-0.132,0.404-0.249,0.544-0.352h0.339v2.605c-0.263,0.102-0.502,0.196-0.719,0.283c-0.217,0.088-0.514,0.176-0.893,0.267
			c-0.348,0.09-0.706,0.16-1.076,0.211C248.608,224.618,248.158,224.644,247.627,224.644z M248.689,218.01
			c-0.019-0.667-0.176-1.175-0.472-1.523s-0.749-0.522-1.359-0.522c-0.622,0-1.109,0.183-1.46,0.55
			c-0.351,0.366-0.544,0.865-0.581,1.496H248.689z"/>
		<path d="M260.342,224.635c-2.044,0-3.667-0.608-4.87-1.825c-1.202-1.217-1.803-2.928-1.803-5.134c0-2.127,0.603-3.822,1.808-5.088
			c1.205-1.265,2.83-1.897,4.875-1.897c0.543,0,1.031,0.03,1.465,0.091c0.433,0.06,0.848,0.144,1.245,0.252
			c0.312,0.09,0.65,0.214,1.016,0.37s0.662,0.291,0.888,0.405v3.199h-0.348c-0.165-0.144-0.372-0.316-0.622-0.518
			c-0.25-0.201-0.534-0.398-0.852-0.591s-0.667-0.355-1.048-0.491c-0.381-0.135-0.779-0.203-1.194-0.203
			c-0.495,0-0.948,0.077-1.359,0.23c-0.412,0.153-0.804,0.419-1.176,0.798c-0.342,0.342-0.621,0.805-0.838,1.388
			s-0.325,1.271-0.325,2.064c0,0.835,0.113,1.536,0.338,2.104c0.226,0.567,0.522,1.025,0.888,1.374
			c0.354,0.337,0.749,0.58,1.186,0.73c0.436,0.15,0.871,0.226,1.304,0.226c0.452,0,0.882-0.074,1.291-0.222
			c0.409-0.146,0.753-0.311,1.034-0.491c0.305-0.186,0.574-0.375,0.806-0.567s0.433-0.363,0.604-0.514h0.312v3.154
			c-0.25,0.114-0.54,0.245-0.87,0.393s-0.668,0.271-1.016,0.374c-0.427,0.126-0.827,0.222-1.199,0.288
			C261.508,224.602,260.995,224.635,260.342,224.635z"/>
		<path d="M276.083,219.316c0,1.665-0.462,2.977-1.387,3.935s-2.232,1.438-3.922,1.438c-1.679,0-2.983-0.479-3.914-1.438
			s-1.396-2.27-1.396-3.935c0-1.683,0.465-3,1.396-3.952s2.235-1.429,3.914-1.429c1.684,0,2.99,0.479,3.918,1.438
			C275.619,216.332,276.083,217.646,276.083,219.316z M272.797,219.335c0-0.602-0.05-1.102-0.151-1.501
			c-0.101-0.399-0.24-0.72-0.417-0.96c-0.189-0.253-0.402-0.428-0.641-0.527c-0.238-0.1-0.51-0.148-0.814-0.148
			c-0.287,0-0.546,0.043-0.778,0.131c-0.232,0.087-0.445,0.254-0.641,0.5c-0.183,0.234-0.33,0.556-0.439,0.964
			c-0.11,0.409-0.165,0.923-0.165,1.542c0,0.618,0.052,1.119,0.156,1.5c0.104,0.382,0.238,0.687,0.403,0.915
			c0.171,0.234,0.384,0.406,0.641,0.514c0.256,0.108,0.54,0.162,0.852,0.162c0.256,0,0.517-0.054,0.783-0.162
			c0.265-0.107,0.478-0.271,0.636-0.486c0.189-0.259,0.333-0.569,0.43-0.933C272.748,220.48,272.797,219.978,272.797,219.335z"/>
		<path d="M287.772,224.373h-3.222v-5.021c0-0.408-0.017-0.815-0.05-1.222c-0.034-0.405-0.096-0.704-0.188-0.896
			c-0.11-0.229-0.269-0.392-0.476-0.491c-0.208-0.099-0.485-0.148-0.833-0.148c-0.262,0-0.528,0.048-0.796,0.144
			c-0.269,0.097-0.555,0.25-0.86,0.46v7.175h-3.204v-10.122h3.204v1.118c0.525-0.439,1.036-0.781,1.533-1.028
			c0.498-0.246,1.048-0.369,1.652-0.369c1.05,0,1.852,0.326,2.408,0.978c0.555,0.652,0.833,1.598,0.833,2.835V224.373z"/>
		<path d="M295.131,224.644c-0.848,0-1.625-0.105-2.33-0.315c-0.705-0.21-1.317-0.535-1.835-0.974
			c-0.513-0.438-0.913-0.99-1.199-1.654c-0.287-0.663-0.43-1.446-0.43-2.348c0-0.968,0.156-1.79,0.467-2.47
			c0.311-0.679,0.732-1.237,1.263-1.677c0.513-0.42,1.115-0.731,1.808-0.933c0.692-0.201,1.414-0.302,2.165-0.302
			c0.567,0,1.135,0.064,1.703,0.193c0.567,0.13,1.138,0.335,1.712,0.618v2.704h-0.412c-0.128-0.12-0.285-0.253-0.472-0.397
			c-0.186-0.144-0.389-0.276-0.608-0.396c-0.232-0.126-0.495-0.232-0.788-0.319c-0.292-0.087-0.619-0.131-0.979-0.131
			c-0.818,0-1.451,0.281-1.899,0.843c-0.448,0.562-0.673,1.317-0.673,2.267c0,1.016,0.24,1.772,0.719,2.271s1.115,0.748,1.909,0.748
			c0.403,0,0.757-0.045,1.062-0.135c0.305-0.091,0.567-0.198,0.787-0.325c0.213-0.126,0.396-0.257,0.549-0.392
			c0.152-0.136,0.284-0.257,0.394-0.365h0.412v2.704c-0.183,0.078-0.396,0.168-0.636,0.271c-0.241,0.102-0.487,0.187-0.737,0.252
			c-0.311,0.084-0.603,0.149-0.874,0.194S295.576,224.644,295.131,224.644z"/>
		<path d="M307.214,217.234h-0.266c-0.122-0.042-0.3-0.073-0.531-0.095c-0.232-0.021-0.488-0.031-0.769-0.031
			c-0.335,0-0.688,0.048-1.057,0.145c-0.37,0.096-0.728,0.21-1.076,0.342v6.778h-3.204v-10.122h3.204v1.451
			c0.146-0.132,0.349-0.299,0.609-0.5c0.259-0.201,0.496-0.362,0.709-0.482c0.231-0.138,0.501-0.257,0.81-0.356
			c0.308-0.099,0.6-0.148,0.874-0.148c0.104,0,0.22,0.003,0.348,0.009c0.129,0.007,0.244,0.016,0.349,0.027V217.234z"/>
		<path d="M314.078,224.644c-1.94,0-3.428-0.457-4.463-1.37c-1.034-0.913-1.552-2.214-1.552-3.902c0-1.653,0.482-2.972,1.447-3.957
			c0.964-0.985,2.313-1.479,4.046-1.479c1.574,0,2.758,0.418,3.552,1.253c0.793,0.835,1.189,2.031,1.189,3.587v1.136h-7.021
			c0.03,0.469,0.131,0.861,0.302,1.177s0.396,0.566,0.678,0.752c0.274,0.187,0.595,0.32,0.961,0.401s0.766,0.122,1.199,0.122
			c0.372,0,0.738-0.041,1.099-0.122c0.359-0.081,0.689-0.188,0.988-0.319c0.263-0.114,0.505-0.237,0.728-0.37
			c0.223-0.132,0.404-0.249,0.545-0.352h0.339v2.605c-0.263,0.102-0.502,0.196-0.719,0.283c-0.217,0.088-0.514,0.176-0.893,0.267
			c-0.348,0.09-0.706,0.16-1.075,0.211C315.06,224.618,314.609,224.644,314.078,224.644z M315.14,218.01
			c-0.018-0.667-0.175-1.175-0.471-1.523s-0.749-0.522-1.359-0.522c-0.623,0-1.109,0.183-1.46,0.55
			c-0.352,0.366-0.545,0.865-0.582,1.496H315.14z"/>
		<path d="M324.67,224.571c-1.307,0-2.257-0.265-2.852-0.793c-0.595-0.529-0.893-1.395-0.893-2.596v-4.732h-1.227v-2.199h1.227
			v-2.894h3.204v2.894h3.085v2.199h-3.085v3.588c0,0.354,0.003,0.663,0.009,0.928s0.055,0.502,0.146,0.712
			c0.086,0.211,0.236,0.378,0.453,0.501s0.532,0.185,0.947,0.185c0.171,0,0.396-0.036,0.673-0.108
			c0.278-0.072,0.472-0.138,0.582-0.198h0.274v2.227c-0.348,0.09-0.718,0.16-1.107,0.212
			C325.717,224.546,325.237,224.571,324.67,224.571z"/>
		<path d="M334.519,224.644c-1.94,0-3.428-0.457-4.463-1.37c-1.034-0.913-1.552-2.214-1.552-3.902c0-1.653,0.482-2.972,1.447-3.957
			c0.964-0.985,2.313-1.479,4.046-1.479c1.574,0,2.758,0.418,3.552,1.253c0.793,0.835,1.189,2.031,1.189,3.587v1.136h-7.021
			c0.03,0.469,0.131,0.861,0.302,1.177s0.396,0.566,0.678,0.752c0.274,0.187,0.595,0.32,0.961,0.401s0.766,0.122,1.199,0.122
			c0.372,0,0.738-0.041,1.099-0.122c0.359-0.081,0.689-0.188,0.988-0.319c0.263-0.114,0.505-0.237,0.728-0.37
			c0.223-0.132,0.404-0.249,0.545-0.352h0.339v2.605c-0.263,0.102-0.502,0.196-0.719,0.283c-0.217,0.088-0.514,0.176-0.893,0.267
			c-0.348,0.09-0.706,0.16-1.075,0.211C335.5,224.618,335.05,224.644,334.519,224.644z M335.58,218.01
			c-0.018-0.667-0.175-1.175-0.471-1.523s-0.749-0.522-1.359-0.522c-0.623,0-1.109,0.183-1.46,0.55
			c-0.352,0.366-0.545,0.865-0.582,1.496H335.58z"/>
		<path d="M339.893,224.373l4.604-13.421h3.734l4.604,13.421h-3.524l-0.851-2.74h-4.284l-0.852,2.74H339.893z M347.71,219.199
			l-1.392-4.426l-1.392,4.426H347.71z"/>
	</g>
	
		<line fill="none" stroke="#800000" stroke-width="0.7559" stroke-linecap="square" stroke-miterlimit="10" x1="154.278" y1="236.136" x2="360.504" y2="236.136"/>
	<g>
		<path d="M175.002,271.249h-4.623v4.552h-1.52v-4.552h-4.623v-1.442h4.623v-4.552h1.52v4.552h4.623V271.249z"/>
		<path d="M183.396,275.332c-0.14,0.102-0.328,0.244-0.563,0.428s-0.462,0.329-0.682,0.438c-0.306,0.156-0.6,0.276-0.884,0.36
			c-0.284,0.084-0.682,0.126-1.194,0.126c-0.421,0-0.821-0.078-1.199-0.234s-0.711-0.375-0.998-0.658
			c-0.274-0.276-0.494-0.617-0.659-1.022c-0.165-0.406-0.248-0.834-0.248-1.284c0-0.697,0.149-1.291,0.449-1.78
			c0.299-0.49,0.772-0.879,1.419-1.168c0.574-0.258,1.251-0.437,2.032-0.536c0.781-0.099,1.623-0.172,2.526-0.221v-0.324
			c0-0.396-0.061-0.717-0.183-0.96s-0.293-0.431-0.513-0.563c-0.219-0.138-0.488-0.229-0.805-0.274
			c-0.317-0.046-0.644-0.068-0.979-0.068c-0.397,0-0.864,0.059-1.401,0.176s-1.074,0.287-1.611,0.51h-0.101v-1.722
			c0.317-0.09,0.772-0.189,1.364-0.298c0.592-0.107,1.178-0.162,1.757-0.162c0.702,0,1.294,0.055,1.776,0.162
			c0.482,0.108,0.916,0.304,1.3,0.586c0.372,0.276,0.65,0.635,0.833,1.073s0.274,0.973,0.274,1.604v6.886h-1.712V275.332z
			 M183.396,273.926v-2.794c-0.409,0.036-0.926,0.085-1.551,0.148c-0.626,0.063-1.131,0.151-1.515,0.266
			c-0.458,0.139-0.836,0.351-1.135,0.636s-0.449,0.684-0.449,1.194c0,0.577,0.165,1.013,0.495,1.307
			c0.33,0.295,0.812,0.441,1.446,0.441c0.543,0,1.034-0.115,1.474-0.347S183.012,274.263,183.396,273.926z"/>
		<path d="M189.658,276.404h-1.721V262.38h1.721V276.404z"/>
		<path d="M191.688,278.018c0.116,0.048,0.287,0.112,0.512,0.194c0.226,0.081,0.482,0.157,0.769,0.229
			c0.317,0.078,0.61,0.141,0.879,0.189c0.269,0.048,0.562,0.072,0.879,0.072c0.531,0,0.981-0.069,1.35-0.208
			c0.369-0.138,0.658-0.33,0.865-0.576c0.195-0.247,0.333-0.532,0.412-0.856c0.08-0.325,0.119-0.694,0.119-1.108v-0.884
			c-0.464,0.396-0.918,0.689-1.364,0.879c-0.446,0.189-1.004,0.284-1.675,0.284c-1.166,0-2.093-0.427-2.783-1.28
			c-0.69-0.854-1.035-2.079-1.035-3.678c0-0.835,0.119-1.575,0.357-2.222c0.238-0.646,0.559-1.194,0.961-1.645
			c0.384-0.433,0.839-0.767,1.364-1.001s1.068-0.352,1.629-0.352c0.531,0,0.99,0.063,1.378,0.186
			c0.387,0.123,0.776,0.299,1.167,0.526l0.101-0.433h1.621v8.924c0,1.706-0.378,2.959-1.135,3.759
			c-0.757,0.799-1.913,1.198-3.469,1.198c-0.5,0-1.012-0.039-1.534-0.117c-0.521-0.078-1.008-0.184-1.46-0.315v-1.767H191.688z
			 M197.474,273.673v-5.524c-0.427-0.204-0.822-0.351-1.186-0.438c-0.363-0.087-0.725-0.131-1.084-0.131
			c-0.873,0-1.56,0.315-2.06,0.946c-0.5,0.631-0.751,1.535-0.751,2.713c0,1.118,0.191,1.969,0.572,2.551
			c0.381,0.583,0.999,0.875,1.854,0.875c0.446,0,0.905-0.087,1.378-0.262C196.669,274.229,197.095,273.985,197.474,273.673z"/>
		<path d="M209.966,271.375c0,1.694-0.415,3.003-1.245,3.925c-0.83,0.923-1.935,1.384-3.313,1.384c-1.422,0-2.541-0.476-3.355-1.429
			c-0.814-0.952-1.222-2.245-1.222-3.88c0-1.683,0.419-2.989,1.258-3.921c0.839-0.932,1.945-1.397,3.319-1.397
			c1.379,0,2.483,0.465,3.313,1.393C209.551,268.378,209.966,269.687,209.966,271.375z M208.19,271.375
			c0-1.304-0.241-2.272-0.723-2.907c-0.482-0.634-1.169-0.95-2.06-0.95c-0.897,0-1.588,0.316-2.074,0.95
			c-0.485,0.635-0.728,1.604-0.728,2.907c0,1.262,0.243,2.219,0.728,2.87c0.485,0.652,1.176,0.979,2.074,0.979
			c0.885,0,1.57-0.32,2.055-0.96C207.947,273.624,208.19,272.661,208.19,271.375z"/>
		<path d="M217.189,268.157h-0.091c-0.128-0.036-0.264-0.059-0.407-0.067c-0.144-0.01-0.316-0.014-0.518-0.014
			c-0.464,0-0.924,0.099-1.382,0.297c-0.458,0.198-0.891,0.493-1.3,0.884v7.147h-1.721v-10.068h1.721v1.497
			c0.628-0.547,1.176-0.934,1.643-1.158c0.467-0.226,0.92-0.339,1.36-0.339c0.177,0,0.31,0.005,0.398,0.014
			c0.088,0.01,0.188,0.022,0.297,0.041V268.157z"/>
		<path d="M220.459,264.651H218.5v-1.758h1.959V264.651z M220.34,276.404h-1.721v-10.068h1.721V276.404z"/>
		<path d="M225.098,276.603c-0.939,0-1.672-0.263-2.197-0.789c-0.525-0.525-0.787-1.356-0.787-2.492v-5.579h-1.163v-1.406h1.163
			v-2.893h1.721v2.893h3.167v1.406h-3.167v4.786c0,0.511,0.009,0.904,0.027,1.181c0.019,0.276,0.089,0.535,0.211,0.775
			c0.104,0.211,0.271,0.368,0.503,0.474c0.232,0.104,0.546,0.157,0.943,0.157c0.281,0,0.552-0.04,0.814-0.121
			c0.263-0.082,0.452-0.149,0.568-0.203h0.101v1.523c-0.324,0.09-0.651,0.16-0.984,0.212
			C225.685,276.577,225.378,276.603,225.098,276.603z"/>
		<path d="M236.855,276.404h-1.721v-5.732c0-0.463-0.023-0.894-0.069-1.294c-0.046-0.399-0.133-0.719-0.261-0.959
			c-0.141-0.253-0.336-0.44-0.586-0.563c-0.25-0.123-0.592-0.186-1.025-0.186c-0.427,0-0.868,0.113-1.323,0.339
			c-0.455,0.225-0.898,0.518-1.332,0.878v7.518h-1.721V262.38h1.721v5.074c0.513-0.451,1.019-0.796,1.52-1.036
			s1.028-0.361,1.584-0.361c1.007,0,1.794,0.326,2.362,0.979c0.567,0.651,0.851,1.597,0.851,2.834V276.404z"/>
		<path d="M250.655,276.404v-5.822c0-0.463-0.019-0.892-0.055-1.285s-0.113-0.701-0.229-0.924c-0.122-0.24-0.296-0.417-0.522-0.531
			s-0.531-0.172-0.916-0.172c-0.354,0-0.734,0.107-1.14,0.32c-0.406,0.214-0.825,0.521-1.259,0.924
			c0.006,0.103,0.014,0.224,0.023,0.365s0.014,0.308,0.014,0.5v6.625h-1.721v-5.822c0-0.463-0.019-0.892-0.055-1.285
			s-0.113-0.701-0.229-0.924c-0.123-0.24-0.296-0.417-0.522-0.531c-0.226-0.114-0.531-0.172-0.916-0.172
			c-0.372,0-0.763,0.114-1.172,0.343c-0.409,0.229-0.805,0.52-1.19,0.874v7.518h-1.721v-10.068h1.721v1.118
			c0.452-0.444,0.898-0.789,1.341-1.032c0.442-0.243,0.929-0.365,1.46-0.365c0.604,0,1.14,0.136,1.606,0.406
			s0.822,0.715,1.066,1.334c0.519-0.571,1.025-1.004,1.52-1.298c0.494-0.295,1.031-0.442,1.611-0.442
			c0.439,0,0.839,0.068,1.199,0.203s0.674,0.354,0.943,0.653c0.275,0.307,0.487,0.688,0.636,1.145
			c0.149,0.457,0.224,1.031,0.224,1.722v6.625H250.655z"/>
		<path d="M257.132,276.639c-1.629,0-2.894-0.452-3.794-1.356c-0.9-0.904-1.35-2.188-1.35-3.854c0-1.641,0.437-2.945,1.309-3.916
			s2.014-1.456,3.424-1.456c0.634,0,1.196,0.091,1.684,0.271c0.488,0.181,0.916,0.463,1.282,0.848s0.647,0.854,0.842,1.41
			s0.293,1.236,0.293,2.042v0.919h-7.085c0,1.172,0.299,2.067,0.897,2.687c0.598,0.618,1.425,0.928,2.481,0.928
			c0.378,0,0.749-0.042,1.112-0.126c0.363-0.084,0.691-0.192,0.984-0.324c0.312-0.139,0.574-0.272,0.787-0.401
			c0.214-0.129,0.391-0.251,0.531-0.365h0.101v1.848c-0.201,0.078-0.452,0.176-0.75,0.293c-0.299,0.117-0.568,0.209-0.806,0.275
			c-0.336,0.09-0.64,0.159-0.911,0.207S257.547,276.639,257.132,276.639z M259.146,270.248c-0.012-0.456-0.067-0.85-0.165-1.181
			c-0.098-0.33-0.238-0.609-0.421-0.838c-0.201-0.253-0.459-0.445-0.773-0.577c-0.314-0.132-0.704-0.198-1.167-0.198
			c-0.458,0-0.847,0.067-1.167,0.203c-0.32,0.135-0.612,0.332-0.874,0.59c-0.256,0.265-0.452,0.558-0.586,0.879
			s-0.22,0.695-0.256,1.122H259.146z"/>
		<path d="M268.172,280.118h-2.096c-1.062-1.244-1.896-2.561-2.504-3.948s-0.911-3.028-0.911-4.921c0-1.851,0.3-3.48,0.901-4.89
			s1.439-2.736,2.513-3.979h2.096v0.09c-0.494,0.438-0.966,0.945-1.415,1.519c-0.448,0.574-0.865,1.242-1.25,2.006
			c-0.366,0.739-0.664,1.553-0.893,2.442c-0.229,0.89-0.343,1.827-0.343,2.813c0,1.027,0.111,1.968,0.334,2.821
			c0.223,0.853,0.523,1.664,0.901,2.434c0.366,0.738,0.784,1.407,1.254,2.005c0.47,0.598,0.939,1.104,1.41,1.519V280.118z"/>
		<path d="M274.681,271.249c0,1.856-0.302,3.488-0.906,4.894c-0.604,1.406-1.44,2.731-2.508,3.976h-2.097v-0.091
			c0.47-0.414,0.943-0.924,1.419-1.527s0.891-1.27,1.245-1.996c0.378-0.775,0.679-1.595,0.902-2.457
			c0.223-0.861,0.334-1.795,0.334-2.798c0-0.992-0.113-1.93-0.339-2.813c-0.226-0.884-0.525-1.697-0.897-2.442
			c-0.373-0.745-0.793-1.415-1.263-2.01c-0.47-0.596-0.937-1.101-1.401-1.515v-0.09h2.097c1.062,1.243,1.896,2.565,2.503,3.966
			C274.377,267.745,274.681,269.38,274.681,271.249z"/>
	</g>
	
		<line fill="none" stroke="#800000" stroke-width="0.7559" stroke-linecap="square" stroke-miterlimit="10" x1="154.278" y1="251.239" x2="360.504" y2="251.239"/>
	
		<line fill="none" stroke="#800000" stroke-width="0.7559" stroke-linecap="square" stroke-miterlimit="10" x1="121.895" y1="41.474" x2="317.895" y2="41.474"/>
	<polyline fill="none" stroke="#800000" stroke-width="0.7559" stroke-linecap="square" stroke-miterlimit="10" points="
		300.851,48.187 317.895,41.474 300.851,34.761 	"/>
	<g>
		<path d="M231.231,27.915h-4.623v4.552h-1.52v-4.552h-4.623v-1.442h4.623v-4.552h1.52v4.552h4.623V27.915z"/>
		<path d="M236.678,33.314c-0.684,0-1.323-0.09-1.918-0.27c-0.595-0.181-1.088-0.373-1.479-0.577v-1.902h0.092
			c0.146,0.114,0.319,0.241,0.517,0.379s0.462,0.282,0.792,0.433c0.292,0.132,0.615,0.249,0.965,0.352
			c0.351,0.102,0.716,0.153,1.094,0.153c0.274,0,0.567-0.031,0.879-0.094c0.311-0.063,0.543-0.143,0.695-0.239
			c0.214-0.138,0.368-0.285,0.462-0.441s0.142-0.391,0.142-0.703c0-0.402-0.111-0.706-0.334-0.91
			c-0.223-0.205-0.618-0.375-1.185-0.514c-0.22-0.054-0.507-0.117-0.861-0.189c-0.354-0.072-0.68-0.15-0.979-0.234
			c-0.781-0.222-1.349-0.566-1.703-1.032c-0.354-0.465-0.531-1.029-0.531-1.69c0-0.907,0.348-1.646,1.043-2.217
			s1.62-0.856,2.774-0.856c0.567,0,1.138,0.069,1.711,0.207c0.574,0.138,1.056,0.313,1.447,0.523v1.812h-0.092
			c-0.439-0.342-0.929-0.613-1.469-0.811s-1.084-0.297-1.634-0.297c-0.568,0-1.047,0.117-1.438,0.351
			c-0.391,0.234-0.586,0.589-0.586,1.064c0,0.42,0.116,0.734,0.348,0.942c0.232,0.207,0.604,0.377,1.117,0.509
			c0.256,0.066,0.542,0.13,0.856,0.193c0.314,0.063,0.646,0.137,0.993,0.221c0.757,0.186,1.326,0.496,1.708,0.928
			c0.381,0.433,0.572,1.021,0.572,1.767c0,0.433-0.087,0.843-0.261,1.23s-0.429,0.72-0.764,0.996c-0.366,0.3-0.78,0.529-1.241,0.685
			C237.951,33.236,237.373,33.314,236.678,33.314z"/>
		<path d="M245.524,33.269c-0.939,0-1.672-0.263-2.197-0.789s-0.787-1.356-0.787-2.492v-5.579h-1.163v-1.406h1.163v-2.894h1.721
			v2.894h3.167v1.406h-3.167v4.786c0,0.511,0.009,0.905,0.027,1.181c0.019,0.276,0.089,0.535,0.211,0.775
			c0.104,0.21,0.271,0.368,0.503,0.473c0.232,0.105,0.546,0.158,0.943,0.158c0.281,0,0.552-0.041,0.814-0.122
			c0.263-0.081,0.452-0.148,0.568-0.203h0.101v1.523c-0.324,0.09-0.651,0.161-0.984,0.212
			C246.111,33.244,245.805,33.269,245.524,33.269z"/>
		<path d="M254.663,24.824h-0.091c-0.128-0.036-0.264-0.059-0.407-0.068c-0.144-0.009-0.316-0.013-0.518-0.013
			c-0.464,0-0.924,0.099-1.382,0.297c-0.458,0.198-0.891,0.493-1.3,0.883v7.147h-1.721V23.003h1.721v1.496
			c0.628-0.547,1.176-0.933,1.643-1.158c0.467-0.225,0.92-0.338,1.36-0.338c0.177,0,0.31,0.004,0.398,0.014
			c0.088,0.009,0.188,0.022,0.297,0.041V24.824z"/>
		<path d="M261.768,31.998c-0.14,0.103-0.328,0.245-0.563,0.428c-0.235,0.184-0.462,0.329-0.682,0.437
			c-0.306,0.157-0.6,0.276-0.884,0.361c-0.284,0.084-0.682,0.126-1.194,0.126c-0.421,0-0.821-0.078-1.199-0.234
			s-0.711-0.375-0.998-0.658c-0.274-0.276-0.494-0.618-0.659-1.023c-0.165-0.406-0.248-0.834-0.248-1.285
			c0-0.697,0.149-1.29,0.449-1.78c0.299-0.489,0.772-0.878,1.419-1.167c0.574-0.258,1.251-0.437,2.032-0.536
			s1.623-0.173,2.526-0.221v-0.324c0-0.396-0.061-0.717-0.183-0.96s-0.293-0.431-0.513-0.563c-0.219-0.138-0.488-0.229-0.805-0.275
			c-0.317-0.045-0.644-0.067-0.979-0.067c-0.397,0-0.864,0.059-1.401,0.176s-1.074,0.287-1.611,0.509h-0.101v-1.722
			c0.317-0.09,0.772-0.189,1.364-0.297c0.592-0.108,1.178-0.162,1.757-0.162c0.702,0,1.294,0.054,1.776,0.162
			c0.482,0.108,0.916,0.303,1.3,0.586c0.372,0.276,0.65,0.634,0.833,1.072c0.183,0.439,0.274,0.974,0.274,1.604v6.886h-1.712V31.998
			z M261.768,30.592v-2.794c-0.409,0.036-0.926,0.086-1.551,0.149c-0.626,0.063-1.131,0.152-1.515,0.266
			c-0.458,0.139-0.836,0.35-1.135,0.636c-0.299,0.285-0.449,0.684-0.449,1.194c0,0.577,0.165,1.012,0.495,1.307
			s0.812,0.442,1.446,0.442c0.543,0,1.034-0.116,1.474-0.347S261.384,30.929,261.768,30.592z"/>
		<path d="M269.366,33.269c-0.939,0-1.672-0.263-2.197-0.789s-0.787-1.356-0.787-2.492v-5.579h-1.163v-1.406h1.163v-2.894h1.721
			v2.894h3.167v1.406h-3.167v4.786c0,0.511,0.009,0.905,0.027,1.181c0.019,0.276,0.089,0.535,0.211,0.775
			c0.104,0.21,0.271,0.368,0.503,0.473c0.232,0.105,0.546,0.158,0.943,0.158c0.281,0,0.552-0.041,0.814-0.122
			c0.263-0.081,0.452-0.148,0.568-0.203h0.101v1.523c-0.324,0.09-0.651,0.161-0.984,0.212
			C269.953,33.244,269.646,33.269,269.366,33.269z"/>
		<path d="M277.526,33.305c-1.629,0-2.894-0.452-3.794-1.356c-0.9-0.904-1.35-2.189-1.35-3.854c0-1.64,0.437-2.946,1.309-3.916
			s2.014-1.456,3.424-1.456c0.634,0,1.196,0.09,1.684,0.27c0.488,0.181,0.916,0.463,1.282,0.848
			c0.366,0.384,0.647,0.854,0.842,1.411c0.195,0.556,0.293,1.236,0.293,2.042v0.919h-7.085c0,1.172,0.299,2.067,0.897,2.686
			c0.598,0.619,1.425,0.929,2.481,0.929c0.378,0,0.749-0.042,1.112-0.126c0.363-0.084,0.691-0.192,0.984-0.324
			c0.312-0.138,0.574-0.272,0.787-0.401c0.214-0.129,0.391-0.25,0.531-0.365h0.101v1.848c-0.201,0.078-0.452,0.176-0.75,0.293
			c-0.299,0.117-0.568,0.208-0.806,0.275c-0.336,0.09-0.64,0.159-0.911,0.207C278.284,33.281,277.941,33.305,277.526,33.305z
			 M279.54,26.915c-0.012-0.457-0.067-0.85-0.165-1.181s-0.238-0.61-0.421-0.838c-0.201-0.252-0.459-0.444-0.773-0.577
			c-0.314-0.132-0.704-0.198-1.167-0.198c-0.458,0-0.847,0.067-1.167,0.203s-0.612,0.332-0.874,0.59
			c-0.256,0.265-0.452,0.558-0.586,0.879c-0.134,0.322-0.22,0.696-0.256,1.122H279.54z"/>
		<path d="M283.677,34.684c0.116,0.048,0.287,0.113,0.512,0.194c0.226,0.081,0.482,0.158,0.769,0.23
			c0.317,0.078,0.61,0.141,0.879,0.189c0.269,0.048,0.562,0.072,0.879,0.072c0.531,0,0.981-0.069,1.35-0.207
			c0.369-0.139,0.658-0.331,0.865-0.577c0.195-0.247,0.333-0.532,0.412-0.856c0.08-0.325,0.119-0.694,0.119-1.109v-0.883
			c-0.464,0.396-0.918,0.689-1.364,0.879c-0.446,0.189-1.004,0.284-1.675,0.284c-1.166,0-2.093-0.426-2.783-1.28
			c-0.69-0.853-1.035-2.079-1.035-3.677c0-0.835,0.119-1.576,0.357-2.222c0.238-0.646,0.559-1.194,0.961-1.645
			c0.384-0.433,0.839-0.766,1.364-1s1.068-0.352,1.629-0.352c0.531,0,0.99,0.062,1.378,0.185c0.387,0.123,0.776,0.299,1.167,0.527
			l0.101-0.433h1.621v8.923c0,1.707-0.378,2.959-1.135,3.758s-1.913,1.199-3.469,1.199c-0.5,0-1.012-0.039-1.534-0.117
			c-0.521-0.078-1.008-0.183-1.46-0.315v-1.767H283.677z M289.462,30.34v-5.525c-0.427-0.204-0.822-0.35-1.186-0.437
			c-0.363-0.087-0.725-0.131-1.084-0.131c-0.873,0-1.56,0.315-2.06,0.947c-0.5,0.631-0.751,1.535-0.751,2.713
			c0,1.118,0.191,1.968,0.572,2.551s0.999,0.874,1.854,0.874c0.446,0,0.905-0.087,1.378-0.261
			C288.658,30.896,289.083,30.652,289.462,30.34z"/>
		<path d="M295.418,21.317h-1.959V19.56h1.959V21.317z M295.299,33.071h-1.721V23.003h1.721V33.071z"/>
		<path d="M301.403,33.305c-1.629,0-2.894-0.452-3.794-1.356c-0.9-0.904-1.35-2.189-1.35-3.854c0-1.64,0.437-2.946,1.309-3.916
			s2.014-1.456,3.424-1.456c0.634,0,1.196,0.09,1.684,0.27c0.488,0.181,0.916,0.463,1.282,0.848
			c0.366,0.384,0.647,0.854,0.842,1.411c0.195,0.556,0.293,1.236,0.293,2.042v0.919h-7.085c0,1.172,0.299,2.067,0.897,2.686
			c0.598,0.619,1.425,0.929,2.481,0.929c0.378,0,0.749-0.042,1.112-0.126c0.363-0.084,0.691-0.192,0.984-0.324
			c0.312-0.138,0.574-0.272,0.787-0.401c0.214-0.129,0.391-0.25,0.531-0.365h0.101v1.848c-0.201,0.078-0.452,0.176-0.75,0.293
			c-0.299,0.117-0.568,0.208-0.806,0.275c-0.336,0.09-0.64,0.159-0.911,0.207C302.162,33.281,301.818,33.305,301.403,33.305z
			 M303.417,26.915c-0.012-0.457-0.067-0.85-0.165-1.181s-0.238-0.61-0.421-0.838c-0.201-0.252-0.459-0.444-0.773-0.577
			c-0.314-0.132-0.704-0.198-1.167-0.198c-0.458,0-0.847,0.067-1.167,0.203s-0.612,0.332-0.874,0.59
			c-0.256,0.265-0.452,0.558-0.586,0.879c-0.134,0.322-0.22,0.696-0.256,1.122H303.417z"/>
	</g>
	
		<line fill="none" stroke="#800000" stroke-width="0.7559" stroke-linecap="square" stroke-miterlimit="10" x1="285.513" y1="199.217" x2="350.278" y2="100.208"/>
	
		<polygon fill-rule="evenodd" clip-rule="evenodd" fill="#FFFFFF" stroke="#800000" stroke-width="0.7559" stroke-linecap="square" stroke-miterlimit="10" points="
		345.164,135.449 350.278,100.208 319.599,120.346 	"/>
	
		<rect x="399.703" y="199.217" fill-rule="evenodd" clip-rule="evenodd" fill="#FFFFB9" stroke="#800000" stroke-width="0.7559" stroke-linecap="square" stroke-miterlimit="10" width="202.817" height="90.619"/>
	<g>
		<path d="M413.837,224.616c-1.044,0-1.961-0.099-2.751-0.297c-0.791-0.198-1.524-0.445-2.202-0.739v-3.191h0.312
			c0.684,0.571,1.438,1.01,2.261,1.316c0.824,0.307,1.624,0.46,2.398,0.46c0.195,0,0.453-0.021,0.773-0.063s0.578-0.108,0.773-0.198
			c0.238-0.102,0.439-0.245,0.604-0.428c0.165-0.184,0.247-0.426,0.247-0.726c0-0.337-0.134-0.61-0.402-0.82
			c-0.269-0.211-0.589-0.363-0.961-0.46c-0.464-0.12-0.96-0.234-1.488-0.343c-0.527-0.107-1.021-0.24-1.479-0.396
			c-1.056-0.366-1.813-0.859-2.27-1.478c-0.458-0.619-0.687-1.395-0.687-2.326c0-1.256,0.54-2.272,1.62-3.051
			s2.429-1.167,4.046-1.167c0.812,0,1.619,0.081,2.421,0.243c0.803,0.162,1.521,0.382,2.156,0.658v3.064h-0.302
			c-0.507-0.427-1.125-0.787-1.854-1.082c-0.729-0.294-1.478-0.441-2.247-0.441c-0.299,0-0.567,0.021-0.806,0.063
			c-0.237,0.042-0.488,0.123-0.75,0.243c-0.214,0.096-0.398,0.238-0.554,0.428c-0.156,0.189-0.234,0.401-0.234,0.636
			c0,0.343,0.124,0.614,0.371,0.815s0.725,0.384,1.433,0.546c0.458,0.102,0.898,0.201,1.323,0.297
			c0.424,0.097,0.877,0.229,1.359,0.396c0.945,0.337,1.648,0.789,2.109,1.356c0.461,0.568,0.691,1.318,0.691,2.249
			c0,1.334-0.532,2.407-1.598,3.218C417.088,224.211,415.649,224.616,413.837,224.616z"/>
		<path d="M425.308,224.571c-1.307,0-2.257-0.265-2.852-0.793c-0.595-0.529-0.893-1.395-0.893-2.596v-4.732h-1.227v-2.199h1.227
			v-2.894h3.204v2.894h3.085v2.199h-3.085v3.588c0,0.354,0.003,0.663,0.009,0.928s0.055,0.502,0.146,0.712
			c0.086,0.211,0.236,0.378,0.453,0.501s0.532,0.185,0.947,0.185c0.171,0,0.396-0.036,0.673-0.108
			c0.278-0.072,0.472-0.138,0.582-0.198h0.274v2.227c-0.348,0.09-0.718,0.16-1.107,0.212
			C426.354,224.546,425.875,224.571,425.308,224.571z"/>
		<path d="M436.795,217.234h-0.266c-0.122-0.042-0.299-0.073-0.531-0.095c-0.231-0.021-0.488-0.031-0.769-0.031
			c-0.336,0-0.688,0.048-1.058,0.145c-0.369,0.096-0.728,0.21-1.075,0.342v6.778h-3.204v-10.122h3.204v1.451
			c0.146-0.132,0.35-0.299,0.608-0.5c0.26-0.201,0.496-0.362,0.71-0.482c0.231-0.138,0.502-0.257,0.81-0.356
			c0.309-0.099,0.6-0.148,0.875-0.148c0.104,0,0.22,0.003,0.348,0.009c0.128,0.007,0.244,0.016,0.348,0.027V217.234z"/>
		<path d="M444.063,223.301c-0.22,0.18-0.417,0.342-0.591,0.486s-0.407,0.288-0.7,0.433c-0.287,0.139-0.566,0.243-0.838,0.315
			s-0.651,0.108-1.14,0.108c-0.909,0-1.665-0.301-2.266-0.901c-0.602-0.601-0.901-1.358-0.901-2.271c0-0.751,0.152-1.357,0.457-1.82
			c0.306-0.463,0.745-0.829,1.318-1.1c0.58-0.276,1.272-0.469,2.078-0.577s1.672-0.192,2.6-0.252v-0.055
			c0-0.559-0.209-0.944-0.627-1.158c-0.418-0.213-1.045-0.32-1.881-0.32c-0.379,0-0.821,0.068-1.327,0.203
			c-0.507,0.136-1.001,0.309-1.483,0.519h-0.274v-2.442c0.317-0.091,0.83-0.197,1.538-0.32s1.422-0.185,2.142-0.185
			c1.77,0,3.059,0.29,3.868,0.869c0.809,0.58,1.213,1.465,1.213,2.655v6.886h-3.186V223.301z M444.063,221.732v-2.109
			c-0.544,0.054-0.983,0.101-1.318,0.14c-0.336,0.039-0.666,0.116-0.989,0.229c-0.28,0.097-0.499,0.242-0.654,0.438
			s-0.233,0.455-0.233,0.779c0,0.476,0.13,0.801,0.389,0.979c0.26,0.177,0.643,0.266,1.149,0.266c0.28,0,0.567-0.063,0.86-0.189
			S443.825,221.961,444.063,221.732z"/>
		<path d="M454.25,224.571c-1.307,0-2.257-0.265-2.852-0.793c-0.595-0.529-0.893-1.395-0.893-2.596v-4.732h-1.227v-2.199h1.227
			v-2.894h3.204v2.894h3.085v2.199h-3.085v3.588c0,0.354,0.003,0.663,0.009,0.928s0.055,0.502,0.146,0.712
			c0.086,0.211,0.236,0.378,0.453,0.501s0.532,0.185,0.947,0.185c0.171,0,0.396-0.036,0.673-0.108
			c0.278-0.072,0.472-0.138,0.582-0.198h0.274v2.227c-0.348,0.09-0.718,0.16-1.107,0.212
			C455.297,224.546,454.817,224.571,454.25,224.571z"/>
		<path d="M464.099,224.644c-1.94,0-3.428-0.457-4.463-1.37c-1.034-0.913-1.552-2.214-1.552-3.902c0-1.653,0.482-2.972,1.447-3.957
			c0.964-0.985,2.313-1.479,4.046-1.479c1.574,0,2.758,0.418,3.552,1.253c0.793,0.835,1.189,2.031,1.189,3.587v1.136h-7.021
			c0.03,0.469,0.131,0.861,0.302,1.177s0.396,0.566,0.678,0.752c0.274,0.187,0.595,0.32,0.961,0.401s0.766,0.122,1.199,0.122
			c0.372,0,0.738-0.041,1.099-0.122c0.359-0.081,0.689-0.188,0.988-0.319c0.263-0.114,0.505-0.237,0.728-0.37
			c0.223-0.132,0.404-0.249,0.545-0.352h0.339v2.605c-0.263,0.102-0.502,0.196-0.719,0.283c-0.217,0.088-0.514,0.176-0.893,0.267
			c-0.348,0.09-0.706,0.16-1.075,0.211C465.08,224.618,464.63,224.644,464.099,224.644z M465.16,218.01
			c-0.018-0.667-0.175-1.175-0.471-1.523s-0.749-0.522-1.359-0.522c-0.623,0-1.109,0.183-1.46,0.55
			c-0.352,0.366-0.545,0.865-0.582,1.496H465.16z"/>
		<path d="M480.101,223.21c0,0.938-0.138,1.733-0.412,2.389s-0.65,1.166-1.126,1.532c-0.476,0.373-1.047,0.642-1.712,0.807
			s-1.403,0.248-2.215,0.248c-0.684,0-1.332-0.044-1.945-0.131s-1.146-0.188-1.598-0.302v-2.532h0.375
			c0.159,0.06,0.347,0.126,0.563,0.198c0.217,0.071,0.435,0.138,0.654,0.198c0.263,0.065,0.519,0.12,0.769,0.162
			c0.251,0.042,0.507,0.063,0.77,0.063c0.543,0,0.996-0.056,1.359-0.166c0.363-0.111,0.636-0.27,0.819-0.474
			c0.183-0.21,0.311-0.458,0.384-0.743s0.11-0.645,0.11-1.077v-0.189c-0.36,0.313-0.776,0.563-1.25,0.753
			c-0.473,0.188-0.959,0.283-1.46,0.283c-1.33,0-2.356-0.426-3.08-1.279s-1.085-2.151-1.085-3.895c0-0.793,0.111-1.505,0.334-2.136
			s0.532-1.169,0.93-1.613c0.378-0.427,0.836-0.756,1.373-0.987c0.537-0.23,1.096-0.347,1.675-0.347c0.525,0,0.995,0.066,1.41,0.198
			s0.793,0.31,1.135,0.532l0.119-0.451h3.104V223.21z M476.896,221.183v-4.588c-0.159-0.072-0.354-0.132-0.586-0.181
			c-0.232-0.048-0.464-0.072-0.695-0.072c-0.77,0-1.348,0.245-1.735,0.735c-0.388,0.489-0.581,1.173-0.581,2.05
			c0,0.439,0.029,0.811,0.087,1.113c0.058,0.304,0.166,0.572,0.325,0.807c0.152,0.229,0.353,0.401,0.6,0.519
			s0.563,0.176,0.947,0.176c0.287,0,0.569-0.048,0.847-0.145C476.382,221.501,476.646,221.362,476.896,221.183z"/>
		<path d="M485.962,212.809h-3.388v-2.46h3.388V212.809z M485.87,224.373h-3.204v-10.122h3.204V224.373z"/>
		<path d="M493.043,224.644c-1.94,0-3.428-0.457-4.463-1.37c-1.034-0.913-1.552-2.214-1.552-3.902c0-1.653,0.482-2.972,1.447-3.957
			c0.964-0.985,2.313-1.479,4.046-1.479c1.574,0,2.758,0.418,3.552,1.253c0.793,0.835,1.189,2.031,1.189,3.587v1.136h-7.021
			c0.03,0.469,0.131,0.861,0.302,1.177s0.396,0.566,0.678,0.752c0.274,0.187,0.595,0.32,0.961,0.401s0.766,0.122,1.199,0.122
			c0.372,0,0.738-0.041,1.099-0.122c0.359-0.081,0.689-0.188,0.988-0.319c0.263-0.114,0.505-0.237,0.728-0.37
			c0.223-0.132,0.404-0.249,0.545-0.352h0.339v2.605c-0.263,0.102-0.502,0.196-0.719,0.283c-0.217,0.088-0.514,0.176-0.893,0.267
			c-0.348,0.09-0.706,0.16-1.075,0.211C494.024,224.618,493.574,224.644,493.043,224.644z M494.104,218.01
			c-0.018-0.667-0.175-1.175-0.471-1.523s-0.749-0.522-1.359-0.522c-0.623,0-1.109,0.183-1.46,0.55
			c-0.352,0.366-0.545,0.865-0.582,1.496H494.104z"/>
		<path d="M505.759,224.635c-2.045,0-3.668-0.608-4.87-1.825s-1.804-2.928-1.804-5.134c0-2.127,0.603-3.822,1.808-5.088
			c1.206-1.265,2.83-1.897,4.875-1.897c0.543,0,1.031,0.03,1.465,0.091c0.433,0.06,0.848,0.144,1.245,0.252
			c0.311,0.09,0.649,0.214,1.016,0.37s0.662,0.291,0.888,0.405v3.199h-0.348c-0.165-0.144-0.372-0.316-0.622-0.518
			c-0.251-0.201-0.534-0.398-0.852-0.591s-0.667-0.355-1.048-0.491c-0.382-0.135-0.78-0.203-1.195-0.203
			c-0.494,0-0.947,0.077-1.359,0.23c-0.411,0.153-0.804,0.419-1.176,0.798c-0.342,0.342-0.621,0.805-0.838,1.388
			s-0.325,1.271-0.325,2.064c0,0.835,0.113,1.536,0.339,2.104c0.226,0.567,0.522,1.025,0.888,1.374
			c0.354,0.337,0.75,0.58,1.186,0.73c0.437,0.15,0.871,0.226,1.305,0.226c0.452,0,0.882-0.074,1.291-0.222
			c0.408-0.146,0.754-0.311,1.034-0.491c0.306-0.186,0.573-0.375,0.806-0.567c0.231-0.192,0.434-0.363,0.604-0.514h0.311v3.154
			c-0.25,0.114-0.54,0.245-0.869,0.393c-0.33,0.147-0.668,0.271-1.017,0.374c-0.427,0.126-0.826,0.222-1.199,0.288
			C506.924,224.602,506.411,224.635,505.759,224.635z"/>
		<path d="M521.499,219.316c0,1.665-0.462,2.977-1.387,3.935s-2.232,1.438-3.923,1.438c-1.678,0-2.982-0.479-3.913-1.438
			s-1.396-2.27-1.396-3.935c0-1.683,0.466-3,1.396-3.952s2.235-1.429,3.913-1.429c1.685,0,2.99,0.479,3.918,1.438
			C521.035,216.332,521.499,217.646,521.499,219.316z M518.213,219.335c0-0.602-0.051-1.102-0.151-1.501s-0.239-0.72-0.416-0.96
			c-0.189-0.253-0.403-0.428-0.641-0.527c-0.238-0.1-0.51-0.148-0.815-0.148c-0.287,0-0.546,0.043-0.777,0.131
			c-0.232,0.087-0.446,0.254-0.642,0.5c-0.183,0.234-0.329,0.556-0.439,0.964c-0.109,0.409-0.164,0.923-0.164,1.542
			c0,0.618,0.052,1.119,0.155,1.5c0.104,0.382,0.238,0.687,0.402,0.915c0.171,0.234,0.385,0.406,0.642,0.514
			c0.256,0.108,0.54,0.162,0.851,0.162c0.257,0,0.518-0.054,0.783-0.162c0.266-0.107,0.478-0.271,0.636-0.486
			c0.189-0.259,0.333-0.569,0.431-0.933C518.164,220.48,518.213,219.978,518.213,219.335z"/>
		<path d="M533.188,224.373h-3.222v-5.021c0-0.408-0.017-0.815-0.051-1.222c-0.033-0.405-0.096-0.704-0.188-0.896
			c-0.109-0.229-0.269-0.392-0.476-0.491c-0.208-0.099-0.485-0.148-0.833-0.148c-0.263,0-0.528,0.048-0.797,0.144
			c-0.269,0.097-0.556,0.25-0.86,0.46v7.175h-3.204v-10.122h3.204v1.118c0.524-0.439,1.036-0.781,1.533-1.028
			c0.497-0.246,1.048-0.369,1.652-0.369c1.05,0,1.853,0.326,2.407,0.978c0.556,0.652,0.833,1.598,0.833,2.835V224.373z"/>
		<path d="M540.547,224.644c-0.849,0-1.625-0.105-2.33-0.315c-0.704-0.21-1.316-0.535-1.835-0.974
			c-0.513-0.438-0.912-0.99-1.199-1.654c-0.287-0.663-0.431-1.446-0.431-2.348c0-0.968,0.156-1.79,0.468-2.47
			c0.311-0.679,0.731-1.237,1.263-1.677c0.513-0.42,1.115-0.731,1.808-0.933c0.693-0.201,1.415-0.302,2.165-0.302
			c0.568,0,1.136,0.064,1.703,0.193c0.567,0.13,1.138,0.335,1.712,0.618v2.704h-0.412c-0.128-0.12-0.285-0.253-0.472-0.397
			c-0.186-0.144-0.389-0.276-0.608-0.396c-0.232-0.126-0.494-0.232-0.787-0.319s-0.62-0.131-0.979-0.131
			c-0.818,0-1.451,0.281-1.899,0.843c-0.449,0.562-0.673,1.317-0.673,2.267c0,1.016,0.239,1.772,0.719,2.271
			c0.479,0.499,1.115,0.748,1.908,0.748c0.402,0,0.757-0.045,1.062-0.135c0.306-0.091,0.568-0.198,0.787-0.325
			c0.214-0.126,0.397-0.257,0.55-0.392c0.152-0.136,0.284-0.257,0.394-0.365h0.412v2.704c-0.184,0.078-0.396,0.168-0.637,0.271
			c-0.241,0.102-0.486,0.187-0.736,0.252c-0.312,0.084-0.603,0.149-0.874,0.194C541.351,224.621,540.992,224.644,540.547,224.644z"
			/>
		<path d="M552.629,217.234h-0.266c-0.122-0.042-0.299-0.073-0.531-0.095c-0.231-0.021-0.488-0.031-0.769-0.031
			c-0.336,0-0.688,0.048-1.058,0.145c-0.369,0.096-0.728,0.21-1.075,0.342v6.778h-3.204v-10.122h3.204v1.451
			c0.146-0.132,0.35-0.299,0.608-0.5c0.26-0.201,0.496-0.362,0.71-0.482c0.231-0.138,0.502-0.257,0.81-0.356
			c0.309-0.099,0.6-0.148,0.875-0.148c0.104,0,0.22,0.003,0.348,0.009c0.128,0.007,0.244,0.016,0.348,0.027V217.234z"/>
		<path d="M559.494,224.644c-1.94,0-3.428-0.457-4.463-1.37c-1.034-0.913-1.552-2.214-1.552-3.902c0-1.653,0.482-2.972,1.447-3.957
			c0.964-0.985,2.313-1.479,4.046-1.479c1.574,0,2.758,0.418,3.552,1.253c0.793,0.835,1.189,2.031,1.189,3.587v1.136h-7.021
			c0.03,0.469,0.131,0.861,0.302,1.177s0.396,0.566,0.678,0.752c0.274,0.187,0.595,0.32,0.961,0.401s0.766,0.122,1.199,0.122
			c0.372,0,0.738-0.041,1.099-0.122c0.359-0.081,0.689-0.188,0.988-0.319c0.263-0.114,0.505-0.237,0.728-0.37
			c0.223-0.132,0.404-0.249,0.545-0.352h0.339v2.605c-0.263,0.102-0.502,0.196-0.719,0.283c-0.217,0.088-0.514,0.176-0.893,0.267
			c-0.348,0.09-0.706,0.16-1.075,0.211C560.476,224.618,560.025,224.644,559.494,224.644z M560.556,218.01
			c-0.018-0.667-0.175-1.175-0.471-1.523s-0.749-0.522-1.359-0.522c-0.623,0-1.109,0.183-1.46,0.55
			c-0.352,0.366-0.545,0.865-0.582,1.496H560.556z"/>
		<path d="M570.086,224.571c-1.307,0-2.257-0.265-2.852-0.793c-0.595-0.529-0.893-1.395-0.893-2.596v-4.732h-1.227v-2.199h1.227
			v-2.894h3.204v2.894h3.085v2.199h-3.085v3.588c0,0.354,0.003,0.663,0.009,0.928s0.055,0.502,0.146,0.712
			c0.086,0.211,0.236,0.378,0.453,0.501s0.532,0.185,0.947,0.185c0.171,0,0.396-0.036,0.673-0.108
			c0.278-0.072,0.472-0.138,0.582-0.198h0.274v2.227c-0.348,0.09-0.718,0.16-1.107,0.212
			C571.133,224.546,570.653,224.571,570.086,224.571z"/>
		<path d="M579.935,224.644c-1.94,0-3.428-0.457-4.463-1.37c-1.034-0.913-1.552-2.214-1.552-3.902c0-1.653,0.482-2.972,1.447-3.957
			c0.964-0.985,2.313-1.479,4.046-1.479c1.574,0,2.758,0.418,3.552,1.253c0.793,0.835,1.189,2.031,1.189,3.587v1.136h-7.021
			c0.03,0.469,0.131,0.861,0.302,1.177s0.396,0.566,0.678,0.752c0.274,0.187,0.595,0.32,0.961,0.401s0.766,0.122,1.199,0.122
			c0.372,0,0.738-0.041,1.099-0.122c0.359-0.081,0.689-0.188,0.988-0.319c0.263-0.114,0.505-0.237,0.728-0.37
			c0.223-0.132,0.404-0.249,0.545-0.352h0.339v2.605c-0.263,0.102-0.502,0.196-0.719,0.283c-0.217,0.088-0.514,0.176-0.893,0.267
			c-0.348,0.09-0.706,0.16-1.075,0.211C580.916,224.618,580.466,224.644,579.935,224.644z M580.996,218.01
			c-0.018-0.667-0.175-1.175-0.471-1.523s-0.749-0.522-1.359-0.522c-0.623,0-1.109,0.183-1.46,0.55
			c-0.352,0.366-0.545,0.865-0.582,1.496H580.996z"/>
		<path d="M597.676,220.263c0,0.667-0.128,1.253-0.385,1.758c-0.256,0.505-0.601,0.923-1.034,1.253
			c-0.513,0.396-1.076,0.679-1.689,0.848c-0.613,0.168-1.393,0.252-2.339,0.252h-5.455v-13.421h4.814
			c1.001,0,1.759,0.038,2.275,0.112c0.516,0.075,0.999,0.233,1.45,0.474c0.488,0.259,0.854,0.604,1.095,1.036
			c0.24,0.433,0.361,0.932,0.361,1.496c0,0.655-0.166,1.238-0.499,1.749s-0.792,0.887-1.378,1.127v0.072
			c0.843,0.174,1.517,0.53,2.023,1.067C597.422,218.624,597.676,219.35,597.676,220.263z M593.291,214.747
			c0-0.217-0.057-0.438-0.17-0.667c-0.112-0.229-0.288-0.394-0.526-0.496c-0.226-0.096-0.492-0.148-0.801-0.157
			c-0.308-0.01-0.768-0.014-1.378-0.014h-0.237v2.839h0.43c0.586,0,0.996-0.006,1.231-0.018c0.235-0.013,0.478-0.075,0.728-0.189
			c0.274-0.126,0.464-0.301,0.567-0.523C593.239,215.3,593.291,215.041,593.291,214.747z M594.151,220.2
			c0-0.415-0.086-0.739-0.257-0.974s-0.427-0.412-0.769-0.532c-0.207-0.078-0.493-0.121-0.855-0.131
			c-0.363-0.009-0.851-0.013-1.461-0.013h-0.631v3.361h0.183c0.891,0,1.508-0.006,1.85-0.018s0.689-0.093,1.043-0.243
			c0.312-0.133,0.539-0.326,0.683-0.582C594.079,220.814,594.151,220.524,594.151,220.2z"/>
	</g>
	
		<line fill="none" stroke="#800000" stroke-width="0.7559" stroke-linecap="square" stroke-miterlimit="10" x1="399.703" y1="236.136" x2="604.225" y2="236.136"/>
	<g>
		<path d="M420.418,271.249h-4.622v4.552h-1.52v-4.552h-4.623v-1.442h4.623v-4.552h1.52v4.552h4.622V271.249z"/>
		<path d="M428.813,275.332c-0.141,0.102-0.328,0.244-0.563,0.428c-0.235,0.184-0.463,0.329-0.683,0.438
			c-0.305,0.156-0.6,0.276-0.883,0.36c-0.284,0.084-0.683,0.126-1.195,0.126c-0.421,0-0.82-0.078-1.199-0.234
			c-0.378-0.156-0.711-0.375-0.997-0.658c-0.275-0.276-0.494-0.617-0.659-1.022c-0.165-0.406-0.247-0.834-0.247-1.284
			c0-0.697,0.149-1.291,0.448-1.78c0.299-0.49,0.771-0.879,1.419-1.168c0.573-0.258,1.251-0.437,2.032-0.536
			c0.781-0.099,1.623-0.172,2.526-0.221v-0.324c0-0.396-0.061-0.717-0.183-0.96s-0.293-0.431-0.513-0.563
			c-0.22-0.138-0.488-0.229-0.806-0.274c-0.317-0.046-0.645-0.068-0.979-0.068c-0.396,0-0.864,0.059-1.4,0.176
			c-0.537,0.117-1.074,0.287-1.611,0.51h-0.101v-1.722c0.317-0.09,0.771-0.189,1.363-0.298c0.592-0.107,1.178-0.162,1.758-0.162
			c0.702,0,1.294,0.055,1.776,0.162c0.481,0.108,0.915,0.304,1.3,0.586c0.372,0.276,0.649,0.635,0.833,1.073
			c0.183,0.438,0.274,0.973,0.274,1.604v6.886h-1.712V275.332z M428.813,273.926v-2.794c-0.409,0.036-0.926,0.085-1.552,0.148
			c-0.625,0.063-1.13,0.151-1.515,0.266c-0.458,0.139-0.836,0.351-1.135,0.636c-0.3,0.285-0.449,0.684-0.449,1.194
			c0,0.577,0.165,1.013,0.494,1.307c0.33,0.295,0.812,0.441,1.446,0.441c0.544,0,1.035-0.115,1.475-0.347
			S428.428,274.263,428.813,273.926z"/>
		<path d="M435.074,276.404h-1.722V262.38h1.722V276.404z"/>
		<path d="M437.104,278.018c0.115,0.048,0.286,0.112,0.513,0.194c0.226,0.081,0.481,0.157,0.769,0.229
			c0.317,0.078,0.61,0.141,0.879,0.189c0.269,0.048,0.562,0.072,0.879,0.072c0.531,0,0.98-0.069,1.351-0.208
			c0.369-0.138,0.657-0.33,0.864-0.576c0.195-0.247,0.333-0.532,0.412-0.856c0.079-0.325,0.119-0.694,0.119-1.108v-0.884
			c-0.464,0.396-0.919,0.689-1.364,0.879s-1.004,0.284-1.675,0.284c-1.166,0-2.094-0.427-2.783-1.28s-1.034-2.079-1.034-3.678
			c0-0.835,0.119-1.575,0.357-2.222c0.237-0.646,0.558-1.194,0.961-1.645c0.385-0.433,0.839-0.767,1.364-1.001
			c0.524-0.234,1.067-0.352,1.629-0.352c0.531,0,0.99,0.063,1.378,0.186s0.776,0.299,1.167,0.526l0.101-0.433h1.62v8.924
			c0,1.706-0.378,2.959-1.135,3.759c-0.757,0.799-1.913,1.198-3.47,1.198c-0.5,0-1.011-0.039-1.533-0.117
			c-0.521-0.078-1.009-0.184-1.46-0.315v-1.767H437.104z M442.89,273.673v-5.524c-0.427-0.204-0.822-0.351-1.186-0.438
			s-0.725-0.131-1.085-0.131c-0.872,0-1.559,0.315-2.06,0.946c-0.5,0.631-0.75,1.535-0.75,2.713c0,1.118,0.19,1.969,0.571,2.551
			c0.382,0.583,1,0.875,1.854,0.875c0.445,0,0.904-0.087,1.377-0.262C442.086,274.229,442.512,273.985,442.89,273.673z"/>
		<path d="M455.382,271.375c0,1.694-0.415,3.003-1.244,3.925c-0.83,0.923-1.936,1.384-3.314,1.384c-1.422,0-2.54-0.476-3.354-1.429
			c-0.815-0.952-1.223-2.245-1.223-3.88c0-1.683,0.42-2.989,1.259-3.921s1.945-1.397,3.318-1.397c1.379,0,2.484,0.465,3.314,1.393
			C454.967,268.378,455.382,269.687,455.382,271.375z M453.606,271.375c0-1.304-0.241-2.272-0.724-2.907
			c-0.481-0.634-1.168-0.95-2.06-0.95c-0.896,0-1.588,0.316-2.073,0.95c-0.485,0.635-0.728,1.604-0.728,2.907
			c0,1.262,0.242,2.219,0.728,2.87c0.485,0.652,1.177,0.979,2.073,0.979c0.885,0,1.57-0.32,2.056-0.96
			S453.606,272.661,453.606,271.375z"/>
		<path d="M462.605,268.157h-0.092c-0.128-0.036-0.264-0.059-0.407-0.067c-0.144-0.01-0.315-0.014-0.517-0.014
			c-0.464,0-0.925,0.099-1.383,0.297c-0.457,0.198-0.891,0.493-1.3,0.884v7.147h-1.721v-10.068h1.721v1.497
			c0.629-0.547,1.177-0.934,1.644-1.158c0.467-0.226,0.92-0.339,1.359-0.339c0.177,0,0.31,0.005,0.398,0.014
			c0.088,0.01,0.188,0.022,0.297,0.041V268.157z"/>
		<path d="M465.874,264.651h-1.959v-1.758h1.959V264.651z M465.756,276.404h-1.722v-10.068h1.722V276.404z"/>
		<path d="M470.514,276.603c-0.939,0-1.672-0.263-2.197-0.789c-0.524-0.525-0.787-1.356-0.787-2.492v-5.579h-1.162v-1.406h1.162
			v-2.893h1.722v2.893h3.167v1.406h-3.167v4.786c0,0.511,0.009,0.904,0.027,1.181c0.018,0.276,0.088,0.535,0.21,0.775
			c0.104,0.211,0.271,0.368,0.504,0.474c0.231,0.104,0.546,0.157,0.942,0.157c0.281,0,0.553-0.04,0.815-0.121
			c0.262-0.082,0.451-0.149,0.567-0.203h0.101v1.523c-0.323,0.09-0.651,0.16-0.984,0.212
			C471.102,276.577,470.795,276.603,470.514,276.603z"/>
		<path d="M482.271,276.404h-1.721v-5.732c0-0.463-0.023-0.894-0.068-1.294c-0.046-0.399-0.133-0.719-0.262-0.959
			c-0.14-0.253-0.335-0.44-0.586-0.563c-0.25-0.123-0.592-0.186-1.024-0.186c-0.428,0-0.868,0.113-1.323,0.339
			c-0.455,0.225-0.898,0.518-1.332,0.878v7.518h-1.721V262.38h1.721v5.074c0.513-0.451,1.02-0.796,1.52-1.036
			c0.501-0.24,1.028-0.361,1.584-0.361c1.007,0,1.794,0.326,2.361,0.979c0.568,0.651,0.852,1.597,0.852,2.834V276.404z"/>
		<path d="M496.071,276.404v-5.822c0-0.463-0.019-0.892-0.055-1.285c-0.037-0.394-0.113-0.701-0.229-0.924
			c-0.122-0.24-0.296-0.417-0.521-0.531s-0.531-0.172-0.915-0.172c-0.354,0-0.734,0.107-1.14,0.32
			c-0.406,0.214-0.826,0.521-1.259,0.924c0.006,0.103,0.014,0.224,0.022,0.365s0.014,0.308,0.014,0.5v6.625h-1.721v-5.822
			c0-0.463-0.019-0.892-0.055-1.285c-0.037-0.394-0.113-0.701-0.229-0.924c-0.122-0.24-0.296-0.417-0.521-0.531
			s-0.531-0.172-0.915-0.172c-0.373,0-0.764,0.114-1.172,0.343c-0.409,0.229-0.806,0.52-1.19,0.874v7.518h-1.721v-10.068h1.721
			v1.118c0.452-0.444,0.898-0.789,1.341-1.032s0.93-0.365,1.461-0.365c0.604,0,1.14,0.136,1.606,0.406s0.822,0.715,1.066,1.334
			c0.519-0.571,1.025-1.004,1.52-1.298c0.494-0.295,1.031-0.442,1.611-0.442c0.439,0,0.839,0.068,1.199,0.203
			c0.359,0.135,0.674,0.354,0.942,0.653c0.274,0.307,0.486,0.688,0.637,1.145c0.149,0.457,0.224,1.031,0.224,1.722v6.625H496.071z"
			/>
		<path d="M502.549,276.639c-1.629,0-2.895-0.452-3.794-1.356c-0.9-0.904-1.351-2.188-1.351-3.854c0-1.641,0.437-2.945,1.31-3.916
			c0.872-0.971,2.014-1.456,3.423-1.456c0.635,0,1.196,0.091,1.685,0.271c0.488,0.181,0.916,0.463,1.281,0.848
			c0.366,0.385,0.647,0.854,0.843,1.41s0.293,1.236,0.293,2.042v0.919h-7.086c0,1.172,0.3,2.067,0.897,2.687
			c0.598,0.618,1.425,0.928,2.48,0.928c0.379,0,0.749-0.042,1.112-0.126s0.691-0.192,0.984-0.324
			c0.312-0.139,0.573-0.272,0.787-0.401s0.391-0.251,0.531-0.365h0.101v1.848c-0.201,0.078-0.452,0.176-0.751,0.293
			s-0.567,0.209-0.806,0.275c-0.335,0.09-0.639,0.159-0.91,0.207S502.964,276.639,502.549,276.639z M504.563,270.248
			c-0.012-0.456-0.066-0.85-0.164-1.181c-0.098-0.33-0.238-0.609-0.421-0.838c-0.202-0.253-0.46-0.445-0.774-0.577
			s-0.703-0.198-1.167-0.198c-0.457,0-0.847,0.067-1.167,0.203c-0.32,0.135-0.612,0.332-0.874,0.59
			c-0.257,0.265-0.452,0.558-0.586,0.879c-0.135,0.321-0.22,0.695-0.257,1.122H504.563z"/>
		<path d="M513.587,280.118h-2.096c-1.063-1.244-1.896-2.561-2.504-3.948s-0.911-3.028-0.911-4.921c0-1.851,0.301-3.48,0.902-4.89
			c0.601-1.409,1.438-2.736,2.513-3.979h2.096v0.09c-0.494,0.438-0.965,0.945-1.414,1.519c-0.448,0.574-0.865,1.242-1.249,2.006
			c-0.366,0.739-0.664,1.553-0.893,2.442c-0.229,0.89-0.344,1.827-0.344,2.813c0,1.027,0.111,1.968,0.334,2.821
			c0.223,0.853,0.523,1.664,0.902,2.434c0.366,0.738,0.784,1.407,1.254,2.005s0.939,1.104,1.409,1.519V280.118z"/>
		<path d="M520.098,271.249c0,1.856-0.303,3.488-0.906,4.894c-0.604,1.406-1.44,2.731-2.509,3.976h-2.096v-0.091
			c0.47-0.414,0.942-0.924,1.419-1.527c0.476-0.604,0.891-1.27,1.244-1.996c0.379-0.775,0.68-1.595,0.902-2.457
			c0.223-0.861,0.334-1.795,0.334-2.798c0-0.992-0.113-1.93-0.339-2.813c-0.226-0.884-0.524-1.697-0.897-2.442
			c-0.372-0.745-0.793-1.415-1.263-2.01c-0.47-0.596-0.937-1.101-1.4-1.515v-0.09h2.096c1.063,1.243,1.896,2.565,2.504,3.966
			C519.794,267.745,520.098,269.38,520.098,271.249z"/>
	</g>
	
		<line fill="none" stroke="#800000" stroke-width="0.7559" stroke-linecap="square" stroke-miterlimit="10" x1="399.703" y1="251.239" x2="604.225" y2="251.239"/>
	
		<line fill="none" stroke="#800000" stroke-width="0.7559" stroke-linecap="square" stroke-miterlimit="10" x1="472.99" y1="199.217" x2="409.93" y2="100.208"/>
	
		<polygon fill-rule="evenodd" clip-rule="evenodd" fill="#FFFFFF" stroke="#800000" stroke-width="0.7559" stroke-linecap="square" stroke-miterlimit="10" points="
		438.903,120.346 409.93,100.208 415.042,135.449 	"/>
	
		<polygon fill-rule="evenodd" clip-rule="evenodd" fill="#FFFFB9" stroke="#800000" stroke-width="0.7559" stroke-linecap="square" stroke-miterlimit="10" points="
		52.018,135.449 251.425,135.449 268.469,152.23 268.469,170.688 52.018,170.688 52.018,135.449 	"/>
	
		<polygon fill-rule="evenodd" clip-rule="evenodd" fill="#FFFFB9" stroke="#800000" stroke-width="0.7559" stroke-linecap="square" stroke-miterlimit="10" points="
		251.425,135.449 251.425,152.23 268.469,152.23 	"/>
	<g>
		<path d="M64.55,160.86c-0.684,0-1.323-0.09-1.918-0.271c-0.595-0.18-1.088-0.372-1.479-0.576v-1.902h0.092
			c0.146,0.114,0.319,0.24,0.517,0.379c0.198,0.138,0.462,0.282,0.792,0.433c0.292,0.132,0.615,0.249,0.965,0.352
			c0.351,0.102,0.716,0.153,1.094,0.153c0.274,0,0.567-0.032,0.879-0.095c0.311-0.063,0.543-0.143,0.695-0.239
			c0.214-0.138,0.368-0.285,0.462-0.441s0.142-0.391,0.142-0.703c0-0.402-0.111-0.706-0.334-0.91
			c-0.223-0.204-0.618-0.376-1.185-0.514c-0.22-0.055-0.507-0.117-0.861-0.189s-0.68-0.15-0.979-0.234
			c-0.781-0.223-1.349-0.566-1.703-1.032s-0.531-1.028-0.531-1.689c0-0.907,0.348-1.646,1.043-2.218
			c0.696-0.57,1.62-0.856,2.774-0.856c0.567,0,1.138,0.069,1.711,0.208c0.574,0.138,1.056,0.313,1.447,0.522v1.812h-0.092
			c-0.439-0.343-0.929-0.613-1.469-0.812s-1.084-0.297-1.634-0.297c-0.568,0-1.047,0.117-1.438,0.352s-0.586,0.589-0.586,1.063
			c0,0.421,0.116,0.734,0.348,0.941c0.232,0.208,0.604,0.378,1.117,0.51c0.256,0.066,0.542,0.131,0.856,0.193
			c0.314,0.063,0.646,0.137,0.993,0.221c0.757,0.187,1.326,0.496,1.708,0.929c0.381,0.433,0.572,1.021,0.572,1.767
			c0,0.433-0.087,0.843-0.261,1.23s-0.429,0.72-0.764,0.996c-0.366,0.301-0.78,0.528-1.241,0.685S65.245,160.86,64.55,160.86z"/>
		<path d="M73.396,160.815c-0.939,0-1.672-0.263-2.197-0.789c-0.525-0.525-0.787-1.356-0.787-2.492v-5.579H69.25v-1.406h1.163
			v-2.893h1.721v2.893H75.3v1.406h-3.167v4.786c0,0.511,0.009,0.904,0.027,1.181c0.019,0.276,0.089,0.535,0.211,0.775
			c0.104,0.211,0.271,0.368,0.503,0.474c0.232,0.104,0.546,0.157,0.943,0.157c0.281,0,0.552-0.04,0.814-0.121
			c0.263-0.082,0.452-0.149,0.568-0.203H75.3v1.523c-0.324,0.09-0.651,0.16-0.984,0.212
			C73.983,160.79,73.677,160.815,73.396,160.815z"/>
		<path d="M82.535,152.37h-0.091c-0.128-0.036-0.264-0.059-0.407-0.067c-0.144-0.01-0.316-0.014-0.518-0.014
			c-0.464,0-0.924,0.099-1.382,0.297c-0.458,0.198-0.891,0.493-1.3,0.884v7.147h-1.721v-10.068h1.721v1.497
			c0.628-0.547,1.176-0.934,1.643-1.158c0.467-0.226,0.92-0.339,1.36-0.339c0.177,0,0.31,0.005,0.398,0.014
			c0.088,0.01,0.188,0.022,0.297,0.041V152.37z"/>
		<path d="M89.64,159.545c-0.14,0.102-0.328,0.244-0.563,0.428s-0.462,0.329-0.682,0.438c-0.306,0.156-0.6,0.276-0.884,0.36
			c-0.284,0.084-0.682,0.126-1.194,0.126c-0.421,0-0.821-0.078-1.199-0.234s-0.711-0.375-0.998-0.658
			c-0.274-0.276-0.494-0.617-0.659-1.022c-0.165-0.406-0.248-0.834-0.248-1.284c0-0.697,0.149-1.291,0.449-1.78
			c0.299-0.49,0.772-0.879,1.419-1.168c0.574-0.258,1.251-0.437,2.032-0.536c0.781-0.099,1.623-0.172,2.526-0.221v-0.324
			c0-0.396-0.061-0.717-0.183-0.96s-0.293-0.431-0.513-0.563c-0.219-0.138-0.488-0.229-0.805-0.274
			c-0.317-0.046-0.644-0.068-0.979-0.068c-0.397,0-0.864,0.059-1.401,0.176s-1.074,0.287-1.611,0.51h-0.101v-1.722
			c0.317-0.09,0.772-0.189,1.364-0.298c0.592-0.107,1.178-0.162,1.757-0.162c0.702,0,1.294,0.055,1.776,0.162
			c0.482,0.108,0.916,0.304,1.3,0.586c0.372,0.276,0.65,0.635,0.833,1.073s0.274,0.973,0.274,1.604v6.886H89.64V159.545z
			 M89.64,158.139v-2.794c-0.409,0.036-0.926,0.085-1.551,0.148c-0.626,0.063-1.131,0.151-1.515,0.266
			c-0.458,0.139-0.836,0.351-1.135,0.636s-0.449,0.684-0.449,1.194c0,0.577,0.165,1.013,0.495,1.307
			c0.33,0.295,0.812,0.441,1.446,0.441c0.543,0,1.034-0.115,1.474-0.347S89.256,158.476,89.64,158.139z"/>
		<path d="M97.238,160.815c-0.939,0-1.672-0.263-2.197-0.789c-0.525-0.525-0.787-1.356-0.787-2.492v-5.579h-1.163v-1.406h1.163
			v-2.893h1.721v2.893h3.167v1.406h-3.167v4.786c0,0.511,0.009,0.904,0.027,1.181c0.019,0.276,0.089,0.535,0.211,0.775
			c0.104,0.211,0.271,0.368,0.503,0.474c0.232,0.104,0.546,0.157,0.943,0.157c0.281,0,0.552-0.04,0.814-0.121
			c0.263-0.082,0.452-0.149,0.568-0.203h0.101v1.523c-0.324,0.09-0.651,0.16-0.984,0.212
			C97.825,160.79,97.519,160.815,97.238,160.815z"/>
		<path d="M105.398,160.852c-1.629,0-2.894-0.452-3.794-1.356c-0.9-0.904-1.35-2.188-1.35-3.854c0-1.641,0.437-2.945,1.309-3.916
			s2.014-1.456,3.424-1.456c0.634,0,1.196,0.091,1.684,0.271c0.488,0.181,0.916,0.463,1.282,0.848s0.647,0.854,0.842,1.41
			s0.293,1.236,0.293,2.042v0.919h-7.085c0,1.172,0.299,2.067,0.897,2.687c0.598,0.618,1.425,0.928,2.481,0.928
			c0.378,0,0.749-0.042,1.112-0.126c0.363-0.084,0.691-0.192,0.984-0.324c0.312-0.139,0.574-0.272,0.787-0.401
			c0.214-0.129,0.391-0.251,0.531-0.365h0.101v1.848c-0.201,0.078-0.452,0.176-0.75,0.293c-0.299,0.117-0.568,0.209-0.806,0.275
			c-0.336,0.09-0.64,0.159-0.911,0.207S105.813,160.852,105.398,160.852z M107.412,154.461c-0.012-0.456-0.067-0.85-0.165-1.181
			c-0.098-0.33-0.238-0.609-0.421-0.838c-0.201-0.253-0.459-0.445-0.773-0.577c-0.314-0.132-0.704-0.198-1.167-0.198
			c-0.458,0-0.847,0.067-1.167,0.203c-0.32,0.135-0.612,0.332-0.874,0.59c-0.256,0.265-0.452,0.558-0.586,0.879
			s-0.22,0.695-0.256,1.122H107.412z"/>
		<path d="M111.549,162.23c0.116,0.048,0.287,0.112,0.512,0.194c0.226,0.081,0.482,0.157,0.769,0.229
			c0.317,0.078,0.61,0.141,0.879,0.189c0.269,0.048,0.562,0.072,0.879,0.072c0.531,0,0.981-0.069,1.35-0.208
			c0.369-0.138,0.658-0.33,0.865-0.576c0.195-0.247,0.333-0.532,0.412-0.856c0.08-0.325,0.119-0.694,0.119-1.108v-0.884
			c-0.464,0.396-0.918,0.689-1.364,0.879c-0.446,0.189-1.004,0.284-1.675,0.284c-1.166,0-2.093-0.427-2.783-1.28
			c-0.69-0.854-1.035-2.079-1.035-3.678c0-0.835,0.119-1.575,0.357-2.222c0.238-0.646,0.559-1.194,0.961-1.645
			c0.384-0.433,0.839-0.767,1.364-1.001s1.068-0.352,1.629-0.352c0.531,0,0.99,0.063,1.378,0.186
			c0.387,0.123,0.776,0.299,1.167,0.526l0.101-0.433h1.621v8.924c0,1.706-0.378,2.959-1.135,3.759
			c-0.757,0.799-1.913,1.198-3.469,1.198c-0.5,0-1.012-0.039-1.534-0.117c-0.521-0.078-1.008-0.184-1.46-0.315v-1.767H111.549z
			 M117.334,157.886v-5.524c-0.427-0.204-0.822-0.351-1.186-0.438c-0.363-0.087-0.725-0.131-1.084-0.131
			c-0.873,0-1.56,0.315-2.06,0.946c-0.5,0.631-0.751,1.535-0.751,2.713c0,1.118,0.191,1.969,0.572,2.551
			c0.381,0.583,0.999,0.875,1.854,0.875c0.446,0,0.905-0.087,1.378-0.262C116.53,158.442,116.956,158.198,117.334,157.886z"/>
		<path d="M123.291,148.864h-1.959v-1.758h1.959V148.864z M123.171,160.617h-1.721v-10.068h1.721V160.617z"/>
		<path d="M129.275,160.852c-1.629,0-2.894-0.452-3.794-1.356c-0.9-0.904-1.35-2.188-1.35-3.854c0-1.641,0.437-2.945,1.309-3.916
			s2.014-1.456,3.424-1.456c0.634,0,1.196,0.091,1.684,0.271c0.488,0.181,0.916,0.463,1.282,0.848s0.647,0.854,0.842,1.41
			s0.293,1.236,0.293,2.042v0.919h-7.085c0,1.172,0.299,2.067,0.897,2.687c0.598,0.618,1.425,0.928,2.481,0.928
			c0.378,0,0.749-0.042,1.112-0.126c0.363-0.084,0.691-0.192,0.984-0.324c0.312-0.139,0.574-0.272,0.787-0.401
			c0.214-0.129,0.391-0.251,0.531-0.365h0.101v1.848c-0.201,0.078-0.452,0.176-0.75,0.293c-0.299,0.117-0.568,0.209-0.806,0.275
			c-0.336,0.09-0.64,0.159-0.911,0.207S129.69,160.852,129.275,160.852z M131.29,154.461c-0.012-0.456-0.067-0.85-0.165-1.181
			c-0.098-0.33-0.238-0.609-0.421-0.838c-0.201-0.253-0.459-0.445-0.773-0.577c-0.314-0.132-0.704-0.198-1.167-0.198
			c-0.458,0-0.847,0.067-1.167,0.203c-0.32,0.135-0.612,0.332-0.874,0.59c-0.256,0.265-0.452,0.558-0.586,0.879
			s-0.22,0.695-0.256,1.122H131.29z"/>
		<path d="M137.742,160.617h-2.188v-2.568h2.188V160.617z"/>
		<path d="M147.573,159.545c-0.14,0.102-0.328,0.244-0.563,0.428s-0.462,0.329-0.682,0.438c-0.306,0.156-0.6,0.276-0.884,0.36
			c-0.284,0.084-0.682,0.126-1.194,0.126c-0.421,0-0.821-0.078-1.199-0.234s-0.711-0.375-0.998-0.658
			c-0.274-0.276-0.494-0.617-0.659-1.022c-0.165-0.406-0.248-0.834-0.248-1.284c0-0.697,0.149-1.291,0.449-1.78
			c0.299-0.49,0.772-0.879,1.419-1.168c0.574-0.258,1.251-0.437,2.032-0.536c0.781-0.099,1.623-0.172,2.526-0.221v-0.324
			c0-0.396-0.061-0.717-0.183-0.96s-0.293-0.431-0.513-0.563c-0.219-0.138-0.488-0.229-0.805-0.274
			c-0.317-0.046-0.644-0.068-0.979-0.068c-0.397,0-0.864,0.059-1.401,0.176s-1.074,0.287-1.611,0.51h-0.101v-1.722
			c0.317-0.09,0.772-0.189,1.364-0.298c0.592-0.107,1.178-0.162,1.757-0.162c0.702,0,1.294,0.055,1.776,0.162
			c0.482,0.108,0.916,0.304,1.3,0.586c0.372,0.276,0.65,0.635,0.833,1.073s0.274,0.973,0.274,1.604v6.886h-1.712V159.545z
			 M147.573,158.139v-2.794c-0.409,0.036-0.926,0.085-1.551,0.148c-0.626,0.063-1.131,0.151-1.515,0.266
			c-0.458,0.139-0.836,0.351-1.135,0.636s-0.449,0.684-0.449,1.194c0,0.577,0.165,1.013,0.495,1.307
			c0.33,0.295,0.812,0.441,1.446,0.441c0.543,0,1.034-0.115,1.474-0.347S147.188,158.476,147.573,158.139z"/>
		<path d="M153.833,160.617h-1.721v-14.024h1.721V160.617z"/>
		<path d="M155.864,162.23c0.116,0.048,0.287,0.112,0.512,0.194c0.226,0.081,0.482,0.157,0.769,0.229
			c0.317,0.078,0.61,0.141,0.879,0.189c0.269,0.048,0.562,0.072,0.879,0.072c0.531,0,0.981-0.069,1.35-0.208
			c0.369-0.138,0.658-0.33,0.865-0.576c0.195-0.247,0.333-0.532,0.412-0.856c0.08-0.325,0.119-0.694,0.119-1.108v-0.884
			c-0.464,0.396-0.918,0.689-1.364,0.879c-0.446,0.189-1.004,0.284-1.675,0.284c-1.166,0-2.093-0.427-2.783-1.28
			c-0.69-0.854-1.035-2.079-1.035-3.678c0-0.835,0.119-1.575,0.357-2.222c0.238-0.646,0.559-1.194,0.961-1.645
			c0.384-0.433,0.839-0.767,1.364-1.001s1.068-0.352,1.629-0.352c0.531,0,0.99,0.063,1.378,0.186
			c0.387,0.123,0.776,0.299,1.167,0.526l0.101-0.433h1.621v8.924c0,1.706-0.378,2.959-1.135,3.759
			c-0.757,0.799-1.913,1.198-3.469,1.198c-0.5,0-1.012-0.039-1.534-0.117c-0.521-0.078-1.008-0.184-1.46-0.315v-1.767H155.864z
			 M161.649,157.886v-5.524c-0.427-0.204-0.822-0.351-1.186-0.438c-0.363-0.087-0.725-0.131-1.084-0.131
			c-0.873,0-1.56,0.315-2.06,0.946c-0.5,0.631-0.751,1.535-0.751,2.713c0,1.118,0.191,1.969,0.572,2.551
			c0.381,0.583,0.999,0.875,1.854,0.875c0.446,0,0.905-0.087,1.378-0.262C160.845,158.442,161.271,158.198,161.649,157.886z"/>
		<path d="M174.142,155.588c0,1.694-0.415,3.003-1.245,3.925c-0.83,0.923-1.935,1.384-3.313,1.384c-1.422,0-2.541-0.476-3.355-1.429
			c-0.814-0.952-1.222-2.245-1.222-3.88c0-1.683,0.419-2.989,1.258-3.921c0.839-0.932,1.945-1.397,3.319-1.397
			c1.379,0,2.483,0.465,3.313,1.393C173.727,152.591,174.142,153.899,174.142,155.588z M172.366,155.588
			c0-1.304-0.241-2.272-0.723-2.907c-0.482-0.634-1.169-0.95-2.06-0.95c-0.897,0-1.588,0.316-2.074,0.95
			c-0.485,0.635-0.728,1.604-0.728,2.907c0,1.262,0.243,2.219,0.728,2.87c0.485,0.652,1.176,0.979,2.074,0.979
			c0.885,0,1.57-0.32,2.055-0.96C172.124,157.837,172.366,156.874,172.366,155.588z"/>
		<path d="M181.365,152.37h-0.091c-0.128-0.036-0.264-0.059-0.407-0.067c-0.144-0.01-0.316-0.014-0.518-0.014
			c-0.464,0-0.924,0.099-1.382,0.297c-0.458,0.198-0.891,0.493-1.3,0.884v7.147h-1.721v-10.068h1.721v1.497
			c0.628-0.547,1.176-0.934,1.643-1.158c0.467-0.226,0.92-0.339,1.36-0.339c0.177,0,0.31,0.005,0.398,0.014
			c0.088,0.01,0.188,0.022,0.297,0.041V152.37z"/>
		<path d="M184.635,148.864h-1.959v-1.758h1.959V148.864z M184.516,160.617h-1.721v-10.068h1.721V160.617z"/>
		<path d="M189.274,160.815c-0.939,0-1.672-0.263-2.197-0.789c-0.525-0.525-0.787-1.356-0.787-2.492v-5.579h-1.163v-1.406h1.163
			v-2.893h1.721v2.893h3.167v1.406h-3.167v4.786c0,0.511,0.009,0.904,0.027,1.181c0.019,0.276,0.089,0.535,0.211,0.775
			c0.104,0.211,0.271,0.368,0.503,0.474c0.232,0.104,0.546,0.157,0.943,0.157c0.281,0,0.552-0.04,0.814-0.121
			c0.263-0.082,0.452-0.149,0.568-0.203h0.101v1.523c-0.324,0.09-0.651,0.16-0.984,0.212
			C189.861,160.79,189.555,160.815,189.274,160.815z"/>
		<path d="M201.031,160.617h-1.721v-5.732c0-0.463-0.023-0.894-0.069-1.294c-0.046-0.399-0.133-0.719-0.261-0.959
			c-0.141-0.253-0.336-0.44-0.586-0.563c-0.25-0.123-0.592-0.186-1.025-0.186c-0.427,0-0.868,0.113-1.323,0.339
			c-0.455,0.225-0.898,0.518-1.332,0.878v7.518h-1.721v-14.024h1.721v5.074c0.513-0.451,1.019-0.796,1.52-1.036
			s1.028-0.361,1.584-0.361c1.007,0,1.794,0.326,2.362,0.979c0.567,0.651,0.851,1.597,0.851,2.834V160.617z"/>
		<path d="M214.831,160.617v-5.822c0-0.463-0.019-0.892-0.055-1.285s-0.113-0.701-0.229-0.924c-0.122-0.24-0.296-0.417-0.522-0.531
			s-0.531-0.172-0.916-0.172c-0.354,0-0.734,0.107-1.14,0.32c-0.406,0.214-0.825,0.521-1.259,0.924
			c0.006,0.103,0.014,0.224,0.023,0.365s0.014,0.308,0.014,0.5v6.625h-1.721v-5.822c0-0.463-0.019-0.892-0.055-1.285
			s-0.113-0.701-0.229-0.924c-0.123-0.24-0.296-0.417-0.522-0.531c-0.226-0.114-0.531-0.172-0.916-0.172
			c-0.372,0-0.763,0.114-1.172,0.343c-0.409,0.229-0.805,0.52-1.19,0.874v7.518h-1.721v-10.068h1.721v1.118
			c0.452-0.444,0.898-0.789,1.341-1.032c0.442-0.243,0.929-0.365,1.46-0.365c0.604,0,1.14,0.136,1.606,0.406
			s0.822,0.715,1.066,1.334c0.519-0.571,1.025-1.004,1.52-1.298c0.494-0.295,1.031-0.442,1.611-0.442
			c0.439,0,0.839,0.068,1.199,0.203s0.674,0.354,0.943,0.653c0.275,0.307,0.487,0.688,0.636,1.145
			c0.149,0.457,0.224,1.031,0.224,1.722v6.625H214.831z"/>
		<path d="M221.308,160.852c-1.629,0-2.894-0.452-3.794-1.356c-0.9-0.904-1.35-2.188-1.35-3.854c0-1.641,0.437-2.945,1.309-3.916
			s2.014-1.456,3.424-1.456c0.634,0,1.196,0.091,1.684,0.271c0.488,0.181,0.916,0.463,1.282,0.848s0.647,0.854,0.842,1.41
			s0.293,1.236,0.293,2.042v0.919h-7.085c0,1.172,0.299,2.067,0.897,2.687c0.598,0.618,1.425,0.928,2.481,0.928
			c0.378,0,0.749-0.042,1.112-0.126c0.363-0.084,0.691-0.192,0.984-0.324c0.312-0.139,0.574-0.272,0.787-0.401
			c0.214-0.129,0.391-0.251,0.531-0.365h0.101v1.848c-0.201,0.078-0.452,0.176-0.75,0.293c-0.299,0.117-0.568,0.209-0.806,0.275
			c-0.336,0.09-0.64,0.159-0.911,0.207S221.723,160.852,221.308,160.852z M223.322,154.461c-0.012-0.456-0.067-0.85-0.165-1.181
			c-0.098-0.33-0.238-0.609-0.421-0.838c-0.201-0.253-0.459-0.445-0.773-0.577c-0.314-0.132-0.704-0.198-1.167-0.198
			c-0.458,0-0.847,0.067-1.167,0.203c-0.32,0.135-0.612,0.332-0.874,0.59c-0.256,0.265-0.452,0.558-0.586,0.879
			s-0.22,0.695-0.256,1.122H223.322z"/>
		<path d="M232.348,164.331h-2.096c-1.062-1.244-1.896-2.561-2.504-3.948s-0.911-3.028-0.911-4.921c0-1.851,0.3-3.48,0.901-4.89
			s1.439-2.735,2.513-3.979h2.096v0.09c-0.494,0.438-0.966,0.945-1.415,1.519c-0.448,0.574-0.865,1.242-1.25,2.005
			c-0.366,0.739-0.664,1.553-0.893,2.442c-0.229,0.89-0.343,1.827-0.343,2.813c0,1.027,0.111,1.968,0.334,2.821
			c0.223,0.853,0.523,1.664,0.901,2.434c0.366,0.738,0.784,1.407,1.254,2.005c0.47,0.598,0.939,1.104,1.41,1.519V164.331z"/>
		<path d="M238.857,155.462c0,1.856-0.302,3.488-0.906,4.894c-0.604,1.406-1.44,2.731-2.508,3.976h-2.097v-0.091
			c0.47-0.414,0.943-0.924,1.419-1.527s0.891-1.27,1.245-1.996c0.378-0.775,0.679-1.595,0.902-2.457
			c0.223-0.861,0.334-1.795,0.334-2.798c0-0.992-0.113-1.93-0.339-2.813c-0.226-0.884-0.525-1.697-0.897-2.442
			c-0.373-0.745-0.793-1.415-1.263-2.01c-0.47-0.595-0.937-1.1-1.401-1.514v-0.09h2.097c1.062,1.244,1.896,2.565,2.503,3.966
			C238.554,151.958,238.857,153.593,238.857,155.462z"/>
		<path d="M244.506,158.049l-2.563,5.903h-1.336l1.611-5.903H244.506z M243.901,153.118h-2.188v-2.569h2.188V153.118z"/>
	</g>
	
		<polyline fill="none" stroke="#800000" stroke-width="0.7559" stroke-linecap="square" stroke-miterlimit="10" stroke-dasharray="0.7677,1.5354" points="
		161.095,135.449 161.095,81.749 121.895,81.749 	"/>
</g>
</svg>
