<?xml version="1.0" encoding="UTF-8" standalone="no"?>
<!-- Generator: Adobe Illustrator 15.0.0, SVG Export Plug-In . SVG Version: 6.00 Build 0)  -->

<svg
   xmlns:dc="http://purl.org/dc/elements/1.1/"
   xmlns:cc="http://creativecommons.org/ns#"
   xmlns:rdf="http://www.w3.org/1999/02/22-rdf-syntax-ns#"
   xmlns:svg="http://www.w3.org/2000/svg"
   xmlns="http://www.w3.org/2000/svg"
   xmlns:sodipodi="http://sodipodi.sourceforge.net/DTD/sodipodi-0.dtd"
   xmlns:inkscape="http://www.inkscape.org/namespaces/inkscape"
   version="1.1"
   id="Calque_1"
   x="0px"
   y="0px"
   width="612px"
   height="407px"
   viewBox="0 0 612 407"
   enable-background="new 0 0 612 407"
   xml:space="preserve"
   inkscape:version="0.48.4 r9939"
   sodipodi:docname="5297759850af9ce4aae17.svg"><metadata
   id="metadata373"><rdf:RDF><cc:Work
       rdf:about=""><dc:format>image/svg+xml</dc:format><dc:type
         rdf:resource="http://purl.org/dc/dcmitype/StillImage" /><dc:title></dc:title></cc:Work></rdf:RDF></metadata><defs
   id="defs371" /><sodipodi:namedview
   pagecolor="#ffffff"
   bordercolor="#666666"
   borderopacity="1"
   objecttolerance="10"
   gridtolerance="10"
   guidetolerance="10"
   inkscape:pageopacity="0"
   inkscape:pageshadow="2"
   inkscape:window-width="1680"
   inkscape:window-height="988"
   id="namedview369"
   showgrid="false"
   inkscape:zoom="0.57985258"
   inkscape:cx="306"
   inkscape:cy="203.5"
   inkscape:window-x="-8"
   inkscape:window-y="-8"
   inkscape:window-maximized="1"
   inkscape:current-layer="Calque_1" />

<g
   id="g3">

	

		<rect
   x="221.156"
   y="7.657"
   fill-rule="evenodd"
   clip-rule="evenodd"
   fill="#FFFFB9"
   stroke="#800000"
   stroke-width="0.7559"
   stroke-linecap="square"
   stroke-miterlimit="10"
   width="121.46"
   height="62.863"
   id="rect5" />

	<g
   id="g7">

		<path
   d="M249.606,30.893c-1.868,0-3.351-0.556-4.45-1.667s-1.647-2.675-1.647-4.69c0-1.943,0.55-3.493,1.652-4.649     c1.101-1.155,2.585-1.733,4.454-1.733c0.496,0,0.942,0.027,1.338,0.083c0.396,0.055,0.775,0.132,1.137,0.23     c0.284,0.083,0.594,0.195,0.928,0.337c0.335,0.143,0.605,0.267,0.812,0.371v2.924h-0.318c-0.15-0.132-0.34-0.29-0.569-0.474     s-0.488-0.364-0.778-0.54c-0.29-0.175-0.609-0.325-0.958-0.449s-0.712-0.185-1.091-0.185c-0.452,0-0.866,0.07-1.242,0.21     c-0.376,0.14-0.735,0.383-1.075,0.729c-0.313,0.313-0.567,0.736-0.765,1.269c-0.198,0.532-0.297,1.161-0.297,1.886     c0,0.763,0.104,1.404,0.31,1.923c0.207,0.519,0.477,0.938,0.812,1.256c0.323,0.308,0.684,0.53,1.083,0.667     c0.398,0.137,0.796,0.206,1.192,0.206c0.413,0,0.806-0.067,1.179-0.202c0.374-0.134,0.688-0.284,0.945-0.449     c0.279-0.17,0.524-0.343,0.736-0.519s0.396-0.332,0.552-0.47h0.284v2.882c-0.229,0.104-0.494,0.224-0.794,0.358     c-0.301,0.135-0.611,0.249-0.929,0.342c-0.39,0.115-0.755,0.203-1.096,0.264C250.671,30.863,250.203,30.893,249.606,30.893z"
   id="path9" />

		<path
   d="M263.988,26.034c0,1.521-0.422,2.719-1.267,3.595c-0.845,0.876-2.039,1.313-3.583,1.313c-1.534,0-2.726-0.438-3.576-1.313     c-0.851-0.875-1.275-2.074-1.275-3.595c0-1.537,0.425-2.741,1.275-3.611c0.85-0.87,2.042-1.305,3.576-1.305     c1.539,0,2.732,0.438,3.58,1.313C263.564,23.307,263.988,24.508,263.988,26.034z M260.985,26.051c0-0.549-0.046-1.006-0.138-1.371     c-0.092-0.365-0.219-0.657-0.38-0.877c-0.173-0.23-0.368-0.391-0.585-0.482c-0.217-0.09-0.466-0.136-0.744-0.136     c-0.262,0-0.5,0.04-0.711,0.119c-0.212,0.08-0.407,0.232-0.585,0.458c-0.167,0.214-0.301,0.508-0.402,0.881     c-0.1,0.374-0.15,0.843-0.15,1.408s0.047,1.022,0.142,1.371s0.218,0.627,0.368,0.836c0.156,0.214,0.351,0.371,0.585,0.469     c0.234,0.099,0.494,0.148,0.778,0.148c0.234,0,0.473-0.049,0.715-0.148c0.242-0.099,0.436-0.247,0.581-0.444     c0.173-0.236,0.304-0.52,0.393-0.853C260.941,27.098,260.985,26.638,260.985,26.051z"
   id="path11" />

		<path
   d="M274.668,30.654h-2.944v-4.587c0-0.374-0.016-0.745-0.046-1.116c-0.03-0.371-0.087-0.644-0.171-0.82     c-0.1-0.208-0.245-0.358-0.435-0.449c-0.19-0.09-0.443-0.136-0.761-0.136c-0.24,0-0.482,0.044-0.728,0.132     c-0.246,0.088-0.508,0.228-0.787,0.42v6.555h-2.927v-9.248h2.927v1.021c0.479-0.4,0.947-0.713,1.401-0.938     c0.454-0.225,0.958-0.338,1.509-0.338c0.959,0,1.692,0.298,2.2,0.894s0.761,1.459,0.761,2.59V30.654z"
   id="path13" />

		<path
   d="M280.379,30.835c-1.193,0-2.062-0.242-2.605-0.725s-0.815-1.273-0.815-2.372v-4.324h-1.121v-2.009h1.121v-2.644h2.927     v2.644h2.819v2.009h-2.819v3.278c0,0.324,0.003,0.606,0.008,0.848c0.006,0.242,0.05,0.458,0.134,0.65     c0.078,0.192,0.216,0.345,0.414,0.457c0.198,0.113,0.486,0.169,0.866,0.169c0.156,0,0.361-0.033,0.615-0.099     s0.431-0.126,0.531-0.181h0.251v2.034c-0.318,0.083-0.655,0.147-1.012,0.194C281.335,30.812,280.898,30.835,280.379,30.835z"
   id="path15" />

		<path
   d="M289.378,30.901c-1.773,0-3.132-0.417-4.078-1.252c-0.945-0.834-1.417-2.023-1.417-3.565c0-1.51,0.44-2.715,1.321-3.615     s2.113-1.351,3.697-1.351c1.438,0,2.521,0.381,3.245,1.145c0.725,0.763,1.087,1.856,1.087,3.277v1.038h-6.415     c0.028,0.428,0.12,0.786,0.276,1.075c0.156,0.288,0.362,0.517,0.619,0.688c0.251,0.17,0.543,0.292,0.878,0.366     c0.335,0.074,0.7,0.111,1.096,0.111c0.34,0,0.675-0.037,1.004-0.111c0.329-0.074,0.63-0.171,0.903-0.292     c0.24-0.104,0.461-0.217,0.665-0.338c0.204-0.121,0.37-0.228,0.498-0.321h0.309v2.38c-0.24,0.094-0.458,0.18-0.656,0.26     c-0.198,0.08-0.47,0.161-0.815,0.243c-0.318,0.083-0.646,0.147-0.983,0.194C290.274,30.878,289.863,30.901,289.378,30.901z      M290.348,24.84c-0.017-0.609-0.16-1.073-0.431-1.392s-0.685-0.478-1.242-0.478c-0.569,0-1.014,0.168-1.334,0.502     c-0.321,0.335-0.498,0.791-0.531,1.367H290.348z"
   id="path17" />

		<path
   d="M304.725,30.654h-3.429l-1.79-2.66l-1.84,2.66h-3.362l3.455-4.62l-3.396-4.628h3.429l1.756,2.61l1.765-2.61h3.371     l-3.404,4.554L304.725,30.654z"
   id="path19" />

		<path
   d="M309.94,30.835c-1.193,0-2.062-0.242-2.605-0.725s-0.815-1.273-0.815-2.372v-4.324h-1.121v-2.009h1.121v-2.644h2.928     v2.644h2.818v2.009h-2.818v3.278c0,0.324,0.002,0.606,0.008,0.848s0.051,0.458,0.134,0.65c0.078,0.192,0.216,0.345,0.414,0.457     c0.198,0.113,0.486,0.169,0.866,0.169c0.155,0,0.36-0.033,0.614-0.099s0.431-0.126,0.531-0.181h0.251v2.034     c-0.318,0.083-0.655,0.147-1.012,0.194C310.896,30.812,310.459,30.835,309.94,30.835z"
   id="path21" />

		<path
   d="M318.938,30.901c-1.772,0-3.132-0.417-4.077-1.252c-0.945-0.834-1.418-2.023-1.418-3.565c0-1.51,0.44-2.715,1.322-3.615     c0.881-0.9,2.112-1.351,3.696-1.351c1.438,0,2.521,0.381,3.245,1.145s1.088,1.856,1.088,3.277v1.038h-6.415     c0.027,0.428,0.119,0.786,0.275,1.075c0.156,0.288,0.362,0.517,0.619,0.688c0.251,0.17,0.544,0.292,0.878,0.366     c0.335,0.074,0.7,0.111,1.096,0.111c0.34,0,0.675-0.037,1.004-0.111c0.329-0.074,0.63-0.171,0.903-0.292     c0.239-0.104,0.461-0.217,0.665-0.338c0.203-0.121,0.369-0.228,0.497-0.321h0.31v2.38c-0.239,0.094-0.458,0.18-0.656,0.26     s-0.47,0.161-0.815,0.243c-0.318,0.083-0.646,0.147-0.982,0.194C319.835,30.878,319.424,30.901,318.938,30.901z M319.909,24.84     c-0.017-0.609-0.16-1.073-0.431-1.392s-0.685-0.478-1.242-0.478c-0.569,0-1.014,0.168-1.334,0.502     c-0.321,0.335-0.498,0.791-0.531,1.367H319.909z"
   id="path23" />

	</g>

	

		<line
   fill="none"
   stroke="#800000"
   stroke-width="0.7559"
   stroke-linecap="square"
   stroke-miterlimit="10"
   x1="221.156"
   y1="41.388"
   x2="344.175"
   y2="41.388"
   id="line25" />

	

		<line
   fill="none"
   stroke="#800000"
   stroke-width="0.7559"
   stroke-linecap="square"
   stroke-miterlimit="10"
   x1="221.156"
   y1="55.188"
   x2="344.175"
   y2="55.188"
   id="line27" />

	

		<rect
   x="9.378"
   y="93.519"
   fill-rule="evenodd"
   clip-rule="evenodd"
   fill="#FFFFB9"
   stroke="#800000"
   stroke-width="0.7559"
   stroke-linecap="square"
   stroke-miterlimit="10"
   width="121.461"
   height="62.862"
   id="rect29" />

	<g
   id="g31">

		<path
   d="M53.397,116.764c-1.868,0-3.351-0.556-4.45-1.667s-1.647-2.675-1.647-4.69c0-1.943,0.55-3.493,1.652-4.649     c1.101-1.155,2.585-1.733,4.454-1.733c0.496,0,0.942,0.027,1.338,0.083c0.396,0.055,0.775,0.132,1.137,0.23     c0.284,0.083,0.594,0.195,0.928,0.337c0.335,0.143,0.605,0.267,0.812,0.371v2.924h-0.318c-0.15-0.132-0.34-0.29-0.569-0.474     s-0.488-0.364-0.778-0.54c-0.29-0.175-0.609-0.325-0.958-0.449s-0.712-0.185-1.091-0.185c-0.452,0-0.866,0.07-1.242,0.21     c-0.376,0.14-0.735,0.383-1.075,0.729c-0.313,0.313-0.567,0.736-0.765,1.269c-0.198,0.532-0.297,1.161-0.297,1.886     c0,0.763,0.104,1.404,0.31,1.923c0.207,0.519,0.477,0.938,0.812,1.256c0.323,0.308,0.684,0.53,1.083,0.667     c0.398,0.137,0.796,0.206,1.192,0.206c0.413,0,0.806-0.067,1.179-0.202c0.374-0.134,0.688-0.284,0.945-0.449     c0.279-0.17,0.524-0.343,0.736-0.519s0.396-0.332,0.552-0.47h0.284v2.882c-0.229,0.104-0.494,0.224-0.794,0.358     c-0.301,0.135-0.611,0.249-0.929,0.342c-0.39,0.115-0.755,0.203-1.096,0.264C54.462,116.734,53.994,116.764,53.397,116.764z"
   id="path33" />

		<path
   d="M61.69,116.525h-2.927v-12.814h2.927V116.525z"
   id="path35" />

		<path
   d="M66.446,105.959h-3.095v-2.248h3.095V105.959z M66.362,116.525h-2.927v-9.248h2.927V116.525z"
   id="path37" />

		<path
   d="M72.917,116.772c-1.773,0-3.132-0.417-4.078-1.252c-0.945-0.834-1.417-2.023-1.417-3.565c0-1.51,0.44-2.715,1.321-3.615     s2.113-1.351,3.697-1.351c1.438,0,2.521,0.381,3.245,1.145c0.725,0.763,1.087,1.856,1.087,3.277v1.038h-6.415     c0.028,0.428,0.12,0.786,0.276,1.075c0.156,0.288,0.362,0.517,0.619,0.688c0.251,0.17,0.543,0.292,0.878,0.366     c0.335,0.074,0.7,0.111,1.096,0.111c0.34,0,0.675-0.037,1.004-0.111c0.329-0.074,0.63-0.171,0.903-0.292     c0.24-0.104,0.461-0.217,0.665-0.338c0.204-0.121,0.37-0.228,0.498-0.321h0.309v2.38c-0.24,0.094-0.458,0.18-0.656,0.26     c-0.198,0.08-0.47,0.161-0.815,0.243c-0.318,0.083-0.646,0.147-0.983,0.194C73.813,116.749,73.401,116.772,72.917,116.772z      M73.886,110.711c-0.017-0.609-0.16-1.073-0.431-1.392s-0.685-0.478-1.242-0.478c-0.569,0-1.014,0.168-1.334,0.502     c-0.321,0.335-0.498,0.791-0.531,1.367H73.886z"
   id="path39" />

		<path
   d="M87.795,116.525h-2.944v-4.587c0-0.374-0.016-0.745-0.046-1.116c-0.03-0.371-0.087-0.644-0.171-0.82     c-0.1-0.208-0.245-0.358-0.435-0.449c-0.19-0.09-0.443-0.136-0.761-0.136c-0.24,0-0.482,0.044-0.728,0.132     c-0.246,0.088-0.508,0.228-0.787,0.42v6.555h-2.927v-9.248h2.927v1.021c0.479-0.4,0.947-0.713,1.401-0.938     c0.454-0.225,0.958-0.338,1.509-0.338c0.959,0,1.692,0.298,2.2,0.894s0.761,1.459,0.761,2.59V116.525z"
   id="path41" />

		<path
   d="M93.507,116.707c-1.193,0-2.062-0.242-2.605-0.725s-0.815-1.273-0.815-2.372v-4.324h-1.121v-2.009h1.121v-2.644h2.927     v2.644h2.819v2.009h-2.819v3.278c0,0.324,0.003,0.606,0.008,0.848c0.006,0.242,0.05,0.458,0.134,0.65     c0.078,0.192,0.216,0.345,0.414,0.457c0.198,0.113,0.486,0.169,0.866,0.169c0.156,0,0.361-0.033,0.615-0.099     s0.431-0.126,0.531-0.181h0.251v2.034c-0.318,0.083-0.655,0.147-1.012,0.194C94.463,116.683,94.025,116.707,93.507,116.707z"
   id="path43" />

	</g>

	

		<line
   fill="none"
   stroke="#800000"
   stroke-width="0.7559"
   stroke-linecap="square"
   stroke-miterlimit="10"
   x1="9.378"
   y1="127.25"
   x2="132.396"
   y2="127.25"
   id="line45" />

	

		<line
   fill="none"
   stroke="#800000"
   stroke-width="0.7559"
   stroke-linecap="square"
   stroke-miterlimit="10"
   x1="9.378"
   y1="141.048"
   x2="132.396"
   y2="141.048"
   id="line47" />

	

		<rect
   x="214.928"
   y="124.183"
   fill-rule="evenodd"
   clip-rule="evenodd"
   fill="#FFFFB9"
   stroke="#800000"
   stroke-width="0.7559"
   stroke-linecap="square"
   stroke-miterlimit="10"
   width="208.663"
   height="82.795"
   id="rect49" />

	<g
   id="g51">

		<path
   stroke="#000000"
   stroke-width="0.2376"
   stroke-miterlimit="10"
   d="M233.312,147.173l4.151-12.262h7.787l-0.49,1.448h-6.131     l-1.138,3.361h5.713l-0.491,1.449H237l-1.542,4.554h6.131l-0.491,1.45H233.312z"
   id="path53" />

		<path
   stroke="#000000"
   stroke-width="0.2376"
   stroke-miterlimit="10"
   d="M249.8,147.173h-1.933l-1.09-3.475l-3.509,3.475h-1.781     l4.79-4.562l-1.642-4.637h1.932l1.084,3.443l3.474-3.443h1.79l-4.762,4.53L249.8,147.173z"
   id="path55" />

		<path
   stroke="#000000"
   stroke-width="0.2376"
   stroke-miterlimit="10"
   d="M262.912,142.331c-0.519,1.532-1.304,2.751-2.356,3.66     c-1.052,0.909-2.146,1.363-3.284,1.363c-0.463,0-0.855-0.053-1.176-0.156c-0.322-0.104-0.633-0.267-0.931-0.486l-1.305,3.854     h-1.572l4.263-12.592h1.572l-0.327,0.964c0.508-0.346,1.04-0.635,1.595-0.869c0.555-0.233,1.115-0.351,1.678-0.351     c1.07,0,1.764,0.418,2.081,1.252C263.467,139.806,263.387,140.926,262.912,142.331z M261.23,142.504     c0.355-1.049,0.461-1.862,0.317-2.442c-0.145-0.579-0.599-0.869-1.362-0.869c-0.446,0-0.91,0.098-1.391,0.292     c-0.482,0.195-0.961,0.446-1.439,0.753l-1.765,5.212c0.345,0.198,0.653,0.332,0.921,0.404c0.269,0.071,0.593,0.106,0.972,0.106     c0.814,0,1.547-0.293,2.198-0.88C260.331,144.495,260.847,143.635,261.23,142.504z"
   id="path57" />

		<path
   stroke="#000000"
   stroke-width="0.2376"
   stroke-miterlimit="10"
   d="M271.827,139.638h-0.084     c-0.106-0.033-0.223-0.054-0.351-0.062s-0.284-0.012-0.469-0.012c-0.424,0-0.875,0.09-1.354,0.271     c-0.479,0.181-0.967,0.45-1.461,0.807l-2.21,6.531h-1.572l3.114-9.199h1.572l-0.463,1.367c0.744-0.5,1.363-0.852,1.859-1.058     c0.497-0.206,0.946-0.309,1.347-0.309c0.162,0,0.282,0.005,0.36,0.013c0.077,0.008,0.164,0.02,0.259,0.037L271.827,139.638z"
   id="path59" />

		<path
   stroke="#000000"
   stroke-width="0.2376"
   stroke-miterlimit="10"
   d="M276.091,147.387c-1.489,0-2.504-0.412-3.047-1.238     c-0.543-0.827-0.558-2-0.043-3.521c0.508-1.5,1.31-2.692,2.408-3.579c1.097-0.886,2.29-1.33,3.578-1.33     c0.58,0,1.065,0.083,1.455,0.248c0.391,0.165,0.694,0.423,0.909,0.773c0.216,0.352,0.326,0.781,0.333,1.289     s-0.115,1.13-0.364,1.865l-0.285,0.84h-6.474c-0.362,1.071-0.366,1.889-0.011,2.454c0.355,0.566,1.016,0.849,1.979,0.849     c0.346,0,0.698-0.038,1.055-0.115c0.358-0.077,0.691-0.176,1-0.297c0.327-0.126,0.607-0.248,0.843-0.367     c0.235-0.117,0.436-0.229,0.599-0.333h0.092l-0.572,1.688c-0.208,0.071-0.466,0.16-0.776,0.267     c-0.31,0.107-0.583,0.19-0.821,0.251c-0.335,0.083-0.634,0.146-0.896,0.189C276.792,147.366,276.47,147.387,276.091,147.387z      M279.908,141.548c0.129-0.417,0.201-0.776,0.214-1.079c0.013-0.301-0.029-0.557-0.125-0.766c-0.106-0.23-0.283-0.406-0.529-0.527     c-0.247-0.12-0.581-0.181-1.005-0.181c-0.418,0-0.794,0.062-1.129,0.186c-0.335,0.123-0.661,0.304-0.981,0.54     c-0.316,0.241-0.585,0.509-0.807,0.803c-0.223,0.293-0.417,0.636-0.582,1.025H279.908z"
   id="path61" />

		<path
   stroke="#000000"
   stroke-width="0.2376"
   stroke-miterlimit="10"
   d="M285.441,147.395c-0.624,0-1.18-0.082-1.668-0.247     c-0.488-0.165-0.879-0.34-1.172-0.526l0.588-1.738h0.083c0.1,0.104,0.218,0.219,0.355,0.346c0.139,0.126,0.336,0.258,0.59,0.395     c0.227,0.121,0.484,0.229,0.774,0.321c0.289,0.093,0.605,0.141,0.951,0.141c0.251,0,0.528-0.029,0.832-0.087     c0.305-0.058,0.542-0.13,0.71-0.218c0.238-0.126,0.424-0.26,0.56-0.403c0.134-0.143,0.25-0.357,0.347-0.642     c0.125-0.368,0.116-0.646-0.024-0.832c-0.141-0.187-0.448-0.343-0.924-0.47c-0.185-0.049-0.426-0.107-0.728-0.173     c-0.301-0.065-0.576-0.137-0.823-0.213c-0.645-0.204-1.057-0.518-1.236-0.943c-0.18-0.426-0.167-0.94,0.038-1.544     c0.28-0.829,0.826-1.504,1.639-2.026c0.813-0.521,1.746-0.783,2.799-0.783c0.519,0,1.019,0.063,1.5,0.19     c0.48,0.125,0.867,0.286,1.159,0.477l-0.561,1.656h-0.084c-0.295-0.313-0.659-0.561-1.09-0.742c-0.433-0.18-0.9-0.271-1.402-0.271     c-0.519,0-0.992,0.106-1.422,0.321c-0.429,0.214-0.717,0.539-0.864,0.971c-0.13,0.385-0.122,0.672,0.026,0.861     c0.147,0.189,0.436,0.344,0.863,0.465c0.214,0.06,0.455,0.119,0.722,0.177c0.268,0.057,0.548,0.125,0.839,0.202     c0.634,0.17,1.058,0.453,1.273,0.848c0.214,0.396,0.207,0.933-0.023,1.614c-0.134,0.396-0.34,0.771-0.619,1.125     c-0.279,0.354-0.614,0.657-1.006,0.909c-0.428,0.275-0.877,0.484-1.346,0.626S286.077,147.395,285.441,147.395z"
   id="path63" />

		<path
   stroke="#000000"
   stroke-width="0.2376"
   stroke-miterlimit="10"
   d="M294.781,147.395c-0.624,0-1.18-0.082-1.668-0.247     c-0.488-0.165-0.879-0.34-1.172-0.526l0.588-1.738h0.083c0.1,0.104,0.218,0.219,0.355,0.346c0.139,0.126,0.336,0.258,0.59,0.395     c0.227,0.121,0.484,0.229,0.774,0.321c0.289,0.093,0.605,0.141,0.951,0.141c0.251,0,0.528-0.029,0.832-0.087     c0.305-0.058,0.542-0.13,0.71-0.218c0.238-0.126,0.424-0.26,0.56-0.403c0.134-0.143,0.25-0.357,0.347-0.642     c0.125-0.368,0.116-0.646-0.024-0.832c-0.141-0.187-0.448-0.343-0.924-0.47c-0.185-0.049-0.426-0.107-0.728-0.173     c-0.301-0.065-0.576-0.137-0.823-0.213c-0.645-0.204-1.057-0.518-1.236-0.943c-0.18-0.426-0.167-0.94,0.038-1.544     c0.28-0.829,0.826-1.504,1.639-2.026c0.813-0.521,1.746-0.783,2.799-0.783c0.519,0,1.019,0.063,1.5,0.19     c0.48,0.125,0.867,0.286,1.159,0.477l-0.561,1.656h-0.084c-0.295-0.313-0.659-0.561-1.09-0.742c-0.433-0.18-0.9-0.271-1.402-0.271     c-0.519,0-0.992,0.106-1.422,0.321c-0.429,0.214-0.717,0.539-0.864,0.971c-0.13,0.385-0.122,0.672,0.026,0.861     c0.147,0.189,0.436,0.344,0.863,0.465c0.214,0.06,0.455,0.119,0.722,0.177c0.268,0.057,0.548,0.125,0.839,0.202     c0.634,0.17,1.058,0.453,1.273,0.848c0.214,0.396,0.207,0.933-0.023,1.614c-0.134,0.396-0.34,0.771-0.619,1.125     c-0.279,0.354-0.614,0.657-1.006,0.909c-0.428,0.275-0.877,0.484-1.346,0.626S295.417,147.395,294.781,147.395z"
   id="path65" />

		<path
   stroke="#000000"
   stroke-width="0.2376"
   stroke-miterlimit="10"
   d="M303.277,147.173h-1.572l3.114-9.199h1.571     L303.277,147.173z M307.021,136.435h-1.79l0.544-1.606h1.79L307.021,136.435z"
   id="path67" />

		<path
   stroke="#000000"
   stroke-width="0.2376"
   stroke-miterlimit="10"
   d="M315.582,142.578c-0.524,1.549-1.309,2.744-2.353,3.586     c-1.044,0.844-2.195,1.265-3.456,1.265c-1.299,0-2.173-0.435-2.623-1.305c-0.45-0.871-0.422-2.052,0.084-3.546     c0.52-1.537,1.309-2.731,2.363-3.582c1.055-0.851,2.209-1.277,3.463-1.277c1.261,0,2.126,0.425,2.598,1.273     C316.129,139.84,316.104,141.035,315.582,142.578z M313.959,142.578c0.402-1.191,0.482-2.076,0.237-2.655     c-0.244-0.579-0.773-0.869-1.588-0.869c-0.819,0-1.548,0.29-2.188,0.869s-1.161,1.464-1.563,2.655     c-0.391,1.154-0.465,2.028-0.224,2.624s0.771,0.894,1.591,0.894c0.809,0,1.534-0.292,2.175-0.877     C313.041,144.632,313.561,143.752,313.959,142.578z"
   id="path69" />

		<path
   stroke="#000000"
   stroke-width="0.2376"
   stroke-miterlimit="10"
   d="M324.576,147.173h-1.572l1.772-5.237     c0.144-0.423,0.256-0.817,0.338-1.182c0.081-0.365,0.102-0.658,0.059-0.877c-0.05-0.23-0.171-0.402-0.361-0.514     c-0.19-0.113-0.483-0.169-0.879-0.169c-0.391,0-0.829,0.103-1.313,0.309c-0.485,0.206-0.982,0.474-1.489,0.803l-2.325,6.868     h-1.572l3.115-9.199h1.572l-0.346,1.021c0.607-0.412,1.176-0.727,1.709-0.946c0.531-0.22,1.051-0.331,1.558-0.331     c0.92,0,1.539,0.298,1.855,0.894c0.317,0.596,0.283,1.46-0.1,2.59L324.576,147.173z"
   id="path71" />

		<path
   stroke="#000000"
   stroke-width="0.2376"
   stroke-miterlimit="10"
   d="M326.898,147.173l8.351-12.262h2.041l0.048,12.262h-1.748     l0.03-3.426h-4.76l-2.288,3.426H326.898z M335.631,142.356l0.033-5.781l-3.871,5.781H335.631z"
   id="path73" />

		<path
   stroke="#000000"
   stroke-width="0.2376"
   stroke-miterlimit="10"
   d="M350.013,142.421c-0.51,1.504-1.29,2.715-2.342,3.632     c-1.053,0.917-2.136,1.375-3.251,1.375c-0.508,0-0.92-0.062-1.238-0.185c-0.317-0.124-0.617-0.29-0.897-0.499l-0.245,0.428h-1.473     l4.338-12.814h1.572l-1.55,4.579c0.515-0.352,1.043-0.642,1.584-0.873c0.541-0.23,1.104-0.346,1.689-0.346     c1.054,0,1.744,0.417,2.069,1.248C350.596,139.798,350.511,140.95,350.013,142.421z M348.348,142.545     c0.371-1.098,0.483-1.931,0.336-2.499c-0.148-0.569-0.598-0.853-1.351-0.853c-0.43,0-0.896,0.099-1.401,0.297     c-0.504,0.197-0.986,0.447-1.445,0.749l-1.784,5.271c0.331,0.191,0.636,0.327,0.916,0.407c0.279,0.08,0.604,0.12,0.972,0.12     c0.803,0,1.527-0.28,2.175-0.84C347.411,144.637,347.938,143.752,348.348,142.545z"
   id="path75" />

		<path
   stroke="#000000"
   stroke-width="0.2376"
   stroke-miterlimit="10"
   d="M353.906,147.395c-0.625,0-1.181-0.082-1.669-0.247     c-0.488-0.165-0.879-0.34-1.173-0.526l0.589-1.738h0.083c0.1,0.104,0.218,0.219,0.355,0.346c0.139,0.126,0.336,0.258,0.59,0.395     c0.227,0.121,0.484,0.229,0.774,0.321c0.288,0.093,0.605,0.141,0.951,0.141c0.251,0,0.528-0.029,0.832-0.087     c0.305-0.058,0.542-0.13,0.71-0.218c0.238-0.126,0.424-0.26,0.56-0.403c0.134-0.143,0.251-0.357,0.347-0.642     c0.125-0.368,0.116-0.646-0.023-0.832c-0.141-0.187-0.448-0.343-0.924-0.47c-0.186-0.049-0.427-0.107-0.729-0.173     c-0.301-0.065-0.575-0.137-0.822-0.213c-0.646-0.204-1.058-0.518-1.236-0.943c-0.18-0.426-0.166-0.94,0.038-1.544     c0.28-0.829,0.826-1.504,1.639-2.026c0.813-0.521,1.745-0.783,2.8-0.783c0.518,0,1.018,0.063,1.5,0.19     c0.48,0.125,0.867,0.286,1.159,0.477l-0.561,1.656h-0.084c-0.295-0.313-0.659-0.561-1.091-0.742     c-0.433-0.18-0.899-0.271-1.401-0.271c-0.519,0-0.991,0.106-1.422,0.321c-0.429,0.214-0.718,0.539-0.864,0.971     c-0.13,0.385-0.121,0.672,0.026,0.861s0.437,0.344,0.862,0.465c0.215,0.06,0.455,0.119,0.723,0.177     c0.268,0.057,0.548,0.125,0.84,0.202c0.633,0.17,1.058,0.453,1.272,0.848c0.214,0.396,0.207,0.933-0.023,1.614     c-0.134,0.396-0.34,0.771-0.619,1.125c-0.279,0.354-0.614,0.657-1.006,0.909c-0.429,0.275-0.877,0.484-1.347,0.626     C355.094,147.324,354.541,147.395,353.906,147.395z"
   id="path77" />

		<path
   stroke="#000000"
   stroke-width="0.2376"
   stroke-miterlimit="10"
   d="M363.563,147.354c-0.859,0-1.447-0.24-1.764-0.721     c-0.317-0.48-0.3-1.239,0.052-2.277l1.726-5.098h-1.063l0.436-1.285h1.063l0.895-2.643h1.572l-0.895,2.643h2.893l-0.435,1.285     h-2.894l-1.48,4.374c-0.158,0.466-0.271,0.826-0.341,1.079c-0.067,0.252-0.084,0.488-0.048,0.708     c0.03,0.192,0.135,0.336,0.314,0.432c0.179,0.096,0.45,0.144,0.813,0.144c0.256,0,0.517-0.037,0.781-0.111     c0.265-0.074,0.458-0.136,0.581-0.186h0.092l-0.471,1.392c-0.324,0.083-0.646,0.147-0.965,0.193     C364.105,147.332,363.818,147.354,363.563,147.354z"
   id="path79" />

		<path
   stroke="#000000"
   stroke-width="0.2376"
   stroke-miterlimit="10"
   d="M376.082,139.638h-0.084     c-0.105-0.033-0.223-0.054-0.351-0.062s-0.284-0.012-0.469-0.012c-0.424,0-0.875,0.09-1.354,0.271     c-0.479,0.181-0.967,0.45-1.461,0.807l-2.211,6.531h-1.572l3.115-9.199h1.572l-0.463,1.367c0.743-0.5,1.362-0.852,1.858-1.058     c0.497-0.206,0.946-0.309,1.347-0.309c0.162,0,0.282,0.005,0.36,0.013c0.077,0.008,0.164,0.02,0.259,0.037L376.082,139.638z"
   id="path81" />

		<path
   stroke="#000000"
   stroke-width="0.2376"
   stroke-miterlimit="10"
   d="M381.914,146.194c-0.159,0.093-0.375,0.223-0.646,0.39     c-0.272,0.168-0.523,0.301-0.759,0.399c-0.327,0.144-0.633,0.253-0.918,0.33c-0.286,0.077-0.662,0.116-1.131,0.116     c-0.385,0-0.726-0.071-1.023-0.214c-0.297-0.144-0.533-0.343-0.708-0.601c-0.165-0.252-0.261-0.564-0.285-0.936     c-0.025-0.371,0.031-0.761,0.172-1.174c0.215-0.636,0.535-1.178,0.959-1.626c0.426-0.448,0.979-0.803,1.658-1.066     c0.604-0.236,1.277-0.399,2.022-0.49c0.744-0.09,1.536-0.157,2.377-0.202l0.101-0.296c0.122-0.363,0.166-0.655,0.129-0.877     c-0.036-0.223-0.134-0.394-0.294-0.515c-0.157-0.126-0.375-0.21-0.651-0.251c-0.275-0.042-0.566-0.062-0.873-0.062     c-0.363,0-0.808,0.054-1.334,0.161c-0.527,0.106-1.07,0.262-1.631,0.465h-0.092l0.533-1.573c0.317-0.083,0.764-0.173,1.338-0.272     c0.574-0.099,1.127-0.148,1.656-0.148c0.641,0,1.166,0.049,1.572,0.148c0.407,0.099,0.743,0.277,1.006,0.535     c0.256,0.253,0.398,0.579,0.431,0.98c0.031,0.401-0.051,0.89-0.245,1.466l-2.131,6.292h-1.564L381.914,146.194z M382.35,144.909     l0.863-2.553c-0.385,0.032-0.871,0.078-1.464,0.136c-0.591,0.058-1.079,0.139-1.466,0.243c-0.461,0.126-0.872,0.32-1.233,0.581     c-0.362,0.261-0.622,0.625-0.78,1.092c-0.178,0.526-0.162,0.925,0.049,1.194c0.209,0.269,0.604,0.403,1.185,0.403     c0.496,0,0.98-0.105,1.454-0.317C381.43,145.476,381.894,145.216,382.35,144.909z"
   id="path83" />

		<path
   stroke="#000000"
   stroke-width="0.2376"
   stroke-miterlimit="10"
   d="M388.861,147.173h-1.572l3.115-9.199h1.572     L388.861,147.173z M392.606,136.435h-1.79l0.544-1.606h1.79L392.606,136.435z"
   id="path85" />

		<path
   stroke="#000000"
   stroke-width="0.2376"
   stroke-miterlimit="10"
   d="M394.689,147.354c-0.859,0-1.446-0.24-1.764-0.721     c-0.316-0.48-0.299-1.239,0.053-2.277l1.726-5.098h-1.063l0.435-1.285h1.063l0.895-2.643h1.572l-0.895,2.643h2.895l-0.436,1.285     h-2.894l-1.48,4.374c-0.158,0.466-0.272,0.826-0.341,1.079s-0.084,0.488-0.047,0.708c0.029,0.192,0.134,0.336,0.313,0.432     c0.179,0.096,0.45,0.144,0.813,0.144c0.256,0,0.516-0.037,0.781-0.111c0.265-0.074,0.458-0.136,0.582-0.186h0.092l-0.472,1.392     c-0.323,0.083-0.646,0.147-0.965,0.193C395.234,147.332,394.945,147.354,394.689,147.354z"
   id="path87" />

		<path
   stroke="#000000"
   stroke-width="0.2376"
   stroke-miterlimit="10"
   d="M403.692,147.387c-1.489,0-2.505-0.412-3.047-1.238     c-0.544-0.827-0.558-2-0.043-3.521c0.508-1.5,1.31-2.692,2.408-3.579c1.097-0.886,2.29-1.33,3.578-1.33     c0.58,0,1.065,0.083,1.455,0.248c0.391,0.165,0.694,0.423,0.909,0.773c0.216,0.352,0.326,0.781,0.333,1.289     s-0.114,1.13-0.364,1.865l-0.284,0.84h-6.474c-0.362,1.071-0.365,1.889-0.012,2.454c0.355,0.566,1.016,0.849,1.98,0.849     c0.346,0,0.697-0.038,1.055-0.115c0.358-0.077,0.691-0.176,1-0.297c0.327-0.126,0.607-0.248,0.843-0.367     c0.235-0.117,0.436-0.229,0.599-0.333h0.092l-0.572,1.688c-0.207,0.071-0.466,0.16-0.775,0.267     c-0.311,0.107-0.583,0.19-0.821,0.251c-0.335,0.083-0.634,0.146-0.896,0.189C404.393,147.366,404.071,147.387,403.692,147.387z      M407.51,141.548c0.129-0.417,0.201-0.776,0.214-1.079c0.013-0.301-0.029-0.557-0.125-0.766c-0.106-0.23-0.282-0.406-0.528-0.527     c-0.247-0.12-0.582-0.181-1.006-0.181c-0.418,0-0.794,0.062-1.129,0.186c-0.335,0.123-0.661,0.304-0.981,0.54     c-0.316,0.241-0.585,0.509-0.807,0.803c-0.223,0.293-0.417,0.636-0.581,1.025H407.51z"
   id="path89" />

	</g>

	

		<line
   fill="none"
   stroke="#800000"
   stroke-width="0.7559"
   stroke-linecap="square"
   stroke-miterlimit="10"
   x1="214.928"
   y1="157.915"
   x2="425.147"
   y2="157.915"
   id="line91" />

	<g
   id="g93">

		<path
   d="M235.45,189.999h-4.225l-1.408,4.159h-1.388l1.408-4.159h-4.224l0.446-1.318h4.224l1.408-4.159h1.388l-1.408,4.159h4.225     L235.45,189.999z"
   id="path95" />

		<path
   d="M237.911,194.708h-1.572l3.114-9.199h1.572L237.911,194.708z M241.656,183.97h-1.79l0.544-1.605h1.79L241.656,183.97z"
   id="path97" />

		<path
   d="M246.775,194.708h-1.572l1.773-5.237c0.144-0.422,0.256-0.816,0.338-1.182c0.081-0.364,0.102-0.658,0.059-0.877     c-0.05-0.23-0.17-0.402-0.361-0.514c-0.19-0.113-0.483-0.169-0.879-0.169c-0.391,0-0.829,0.103-1.313,0.309     c-0.485,0.207-0.982,0.474-1.489,0.803l-2.325,6.868h-1.572l3.114-9.199h1.572l-0.346,1.021c0.608-0.412,1.177-0.727,1.709-0.946     c0.532-0.22,1.051-0.33,1.558-0.33c0.92,0,1.539,0.298,1.855,0.894c0.317,0.596,0.283,1.459-0.099,2.59L246.775,194.708z"
   id="path99" />

		<path
   d="M251.544,194.89c-0.859,0-1.447-0.241-1.764-0.721s-0.299-1.24,0.052-2.277l1.726-5.098h-1.063l0.435-1.285h1.063     l0.895-2.643h1.572l-0.895,2.643h2.894l-0.435,1.285h-2.894l-1.48,4.374c-0.158,0.466-0.271,0.826-0.341,1.078     c-0.068,0.253-0.084,0.489-0.047,0.709c0.03,0.192,0.134,0.335,0.314,0.432c0.179,0.096,0.45,0.145,0.813,0.145     c0.256,0,0.516-0.037,0.781-0.111c0.265-0.074,0.458-0.136,0.582-0.186h0.092l-0.472,1.392c-0.324,0.082-0.646,0.147-0.965,0.193     C252.088,194.867,251.8,194.89,251.544,194.89z"
   id="path101" />

		<path
   d="M258.988,194.922c-1.489,0-2.505-0.413-3.047-1.239c-0.543-0.827-0.558-2-0.043-3.521c0.508-1.5,1.31-2.691,2.408-3.579     c1.097-0.886,2.29-1.33,3.578-1.33c0.58,0,1.065,0.082,1.455,0.248c0.391,0.165,0.694,0.423,0.909,0.773     c0.216,0.352,0.326,0.782,0.333,1.29s-0.115,1.129-0.364,1.865l-0.285,0.84h-6.474c-0.362,1.071-0.366,1.889-0.011,2.454     c0.355,0.566,1.015,0.848,1.979,0.848c0.346,0,0.698-0.038,1.055-0.115c0.358-0.077,0.691-0.176,1-0.297     c0.327-0.126,0.607-0.248,0.843-0.366c0.235-0.118,0.436-0.229,0.599-0.333h0.092l-0.572,1.688     c-0.208,0.071-0.466,0.16-0.776,0.268c-0.31,0.107-0.583,0.19-0.821,0.25c-0.335,0.083-0.634,0.146-0.896,0.189     C259.688,194.901,259.367,194.922,258.988,194.922z M262.805,189.084c0.129-0.417,0.201-0.776,0.214-1.079     c0.013-0.302-0.029-0.557-0.125-0.766c-0.106-0.23-0.283-0.406-0.528-0.527c-0.247-0.12-0.582-0.181-1.005-0.181     c-0.418,0-0.794,0.062-1.129,0.186c-0.334,0.123-0.661,0.303-0.981,0.539c-0.316,0.242-0.585,0.509-0.807,0.803     c-0.223,0.293-0.417,0.635-0.582,1.025H262.805z"
   id="path103" />

		<path
   d="M271.848,187.174h-0.084c-0.106-0.034-0.223-0.054-0.351-0.062s-0.284-0.012-0.469-0.012     c-0.424,0-0.875,0.091-1.354,0.271c-0.479,0.181-0.967,0.451-1.46,0.808l-2.211,6.53h-1.572l3.114-9.199h1.572l-0.463,1.367     c0.744-0.5,1.363-0.852,1.859-1.059c0.496-0.205,0.945-0.309,1.347-0.309c0.162,0,0.282,0.004,0.36,0.013     c0.077,0.008,0.164,0.021,0.259,0.037L271.848,187.174z"
   id="path105" />

		<path
   d="M280.045,189.866c-0.519,1.532-1.304,2.752-2.356,3.66c-1.052,0.909-2.146,1.364-3.283,1.364     c-0.463,0-0.855-0.053-1.177-0.157c-0.322-0.104-0.633-0.266-0.931-0.486l-1.305,3.854h-1.572l4.263-12.592h1.572l-0.327,0.964     c0.508-0.346,1.04-0.636,1.595-0.869c0.555-0.233,1.115-0.351,1.678-0.351c1.07,0,1.764,0.418,2.081,1.252     C280.601,187.341,280.521,188.461,280.045,189.866z M278.364,190.039c0.355-1.049,0.461-1.862,0.317-2.442     c-0.145-0.579-0.599-0.869-1.362-0.869c-0.446,0-0.91,0.098-1.391,0.292c-0.482,0.195-0.961,0.446-1.439,0.754l-1.765,5.212     c0.345,0.198,0.653,0.332,0.921,0.404c0.269,0.071,0.593,0.106,0.972,0.106c0.814,0,1.547-0.293,2.198-0.881     C277.464,192.03,277.981,191.17,278.364,190.039z"
   id="path107" />

		<path
   d="M287.419,187.174h-0.084c-0.106-0.034-0.223-0.054-0.351-0.062s-0.284-0.012-0.469-0.012     c-0.424,0-0.875,0.091-1.354,0.271c-0.479,0.181-0.967,0.451-1.46,0.808l-2.211,6.53h-1.572l3.114-9.199h1.572l-0.463,1.367     c0.744-0.5,1.363-0.852,1.859-1.059c0.496-0.205,0.945-0.309,1.347-0.309c0.162,0,0.282,0.004,0.36,0.013     c0.077,0.008,0.164,0.021,0.259,0.037L287.419,187.174z"
   id="path109" />

		<path
   d="M290.126,194.922c-1.489,0-2.505-0.413-3.047-1.239c-0.543-0.827-0.558-2-0.043-3.521c0.508-1.5,1.31-2.691,2.408-3.579     c1.097-0.886,2.29-1.33,3.578-1.33c0.58,0,1.065,0.082,1.455,0.248c0.391,0.165,0.694,0.423,0.909,0.773     c0.216,0.352,0.326,0.782,0.333,1.29s-0.115,1.129-0.364,1.865l-0.285,0.84h-6.474c-0.362,1.071-0.366,1.889-0.011,2.454     c0.355,0.566,1.015,0.848,1.979,0.848c0.346,0,0.698-0.038,1.055-0.115c0.358-0.077,0.691-0.176,1-0.297     c0.327-0.126,0.607-0.248,0.843-0.366c0.235-0.118,0.436-0.229,0.599-0.333h0.092l-0.572,1.688     c-0.208,0.071-0.466,0.16-0.776,0.268c-0.31,0.107-0.583,0.19-0.821,0.25c-0.335,0.083-0.634,0.146-0.896,0.189     C290.826,194.901,290.505,194.922,290.126,194.922z M293.942,189.084c0.129-0.417,0.201-0.776,0.214-1.079     c0.013-0.302-0.029-0.557-0.125-0.766c-0.106-0.23-0.283-0.406-0.528-0.527c-0.247-0.12-0.582-0.181-1.005-0.181     c-0.418,0-0.794,0.062-1.129,0.186c-0.334,0.123-0.661,0.303-0.981,0.539c-0.316,0.242-0.585,0.509-0.807,0.803     c-0.223,0.293-0.417,0.635-0.582,1.025H293.942z"
   id="path111" />

		<path
   d="M298.25,194.89c-0.859,0-1.447-0.241-1.764-0.721s-0.299-1.24,0.052-2.277l1.726-5.098h-1.063l0.435-1.285h1.063     l0.895-2.643h1.572l-0.895,2.643h2.894l-0.435,1.285h-2.894l-1.48,4.374c-0.158,0.466-0.271,0.826-0.341,1.078     c-0.068,0.253-0.084,0.489-0.047,0.709c0.03,0.192,0.134,0.335,0.314,0.432c0.179,0.096,0.45,0.145,0.813,0.145     c0.256,0,0.516-0.037,0.781-0.111c0.265-0.074,0.458-0.136,0.582-0.186h0.092l-0.472,1.392c-0.324,0.082-0.646,0.147-0.965,0.193     C298.793,194.867,298.505,194.89,298.25,194.89z"
   id="path113" />

		<path
   d="M305.693,194.922c-1.489,0-2.505-0.413-3.047-1.239c-0.543-0.827-0.558-2-0.043-3.521c0.508-1.5,1.31-2.691,2.408-3.579     c1.096-0.886,2.29-1.33,3.578-1.33c0.58,0,1.065,0.082,1.455,0.248c0.391,0.165,0.694,0.423,0.909,0.773     c0.216,0.352,0.326,0.782,0.333,1.29s-0.114,1.129-0.364,1.865l-0.284,0.84h-6.473c-0.362,1.071-0.366,1.889-0.011,2.454     c0.355,0.566,1.015,0.848,1.979,0.848c0.346,0,0.697-0.038,1.055-0.115c0.358-0.077,0.691-0.176,1-0.297     c0.327-0.126,0.607-0.248,0.843-0.366c0.235-0.118,0.436-0.229,0.599-0.333h0.092l-0.572,1.688     c-0.207,0.071-0.466,0.16-0.775,0.268c-0.311,0.107-0.583,0.19-0.821,0.25c-0.335,0.083-0.634,0.146-0.896,0.189     C306.393,194.901,306.072,194.922,305.693,194.922z M309.51,189.084c0.129-0.417,0.201-0.776,0.214-1.079     c0.013-0.302-0.028-0.557-0.125-0.766c-0.106-0.23-0.282-0.406-0.528-0.527c-0.247-0.12-0.582-0.181-1.006-0.181     c-0.418,0-0.794,0.062-1.129,0.186c-0.334,0.123-0.661,0.303-0.981,0.539c-0.316,0.242-0.585,0.509-0.807,0.803     c-0.223,0.293-0.417,0.635-0.582,1.025H309.51z"
   id="path115" />

		<path
   d="M318.553,187.174h-0.084c-0.106-0.034-0.224-0.054-0.352-0.062s-0.284-0.012-0.469-0.012     c-0.424,0-0.875,0.091-1.354,0.271c-0.479,0.181-0.967,0.451-1.46,0.808l-2.211,6.53h-1.572l3.113-9.199h1.572l-0.463,1.367     c0.744-0.5,1.363-0.852,1.859-1.059c0.496-0.205,0.945-0.309,1.348-0.309c0.162,0,0.281,0.004,0.359,0.013     c0.077,0.008,0.164,0.021,0.259,0.037L318.553,187.174z"
   id="path117" />

		<path
   d="M320.926,198.102h-1.915c-0.585-1.137-0.941-2.338-1.067-3.606c-0.125-1.269,0.105-2.768,0.69-4.497     c0.573-1.691,1.352-3.18,2.337-4.468c0.984-1.288,2.16-2.499,3.527-3.636h1.915l-0.028,0.083c-0.588,0.4-1.176,0.864-1.762,1.388     c-0.588,0.524-1.175,1.135-1.762,1.832c-0.563,0.675-1.087,1.419-1.571,2.232c-0.485,0.813-0.879,1.669-1.185,2.57     c-0.317,0.938-0.507,1.797-0.566,2.577c-0.061,0.78-0.037,1.521,0.071,2.224c0.105,0.675,0.28,1.286,0.525,1.833     c0.244,0.545,0.517,1.008,0.818,1.387L320.926,198.102z"
   id="path119" />

		<path
   d="M330.766,194.708h-1.934l-1.09-3.475l-3.51,3.475h-1.781l4.79-4.562l-1.642-4.637h1.932l1.084,3.443l3.475-3.443h1.789     l-4.762,4.529L330.766,194.708z"
   id="path121" />

		<path
   d="M335.736,194.708h-1.998l0.794-2.347h1.999L335.736,194.708z M338.057,187.857h-1.999l0.794-2.348h2L338.057,187.857z"
   id="path123" />

		<path
   d="M348.672,194.931c-0.814,0-1.517-0.134-2.109-0.403c-0.591-0.269-1.045-0.67-1.361-1.203     c-0.316-0.532-0.476-1.197-0.479-1.992c-0.004-0.796,0.169-1.71,0.519-2.743c0.348-1.027,0.783-1.921,1.306-2.685     c0.523-0.763,1.135-1.427,1.833-1.993c0.682-0.548,1.413-0.968,2.189-1.255c0.779-0.289,1.588-0.433,2.432-0.433     c0.418,0,0.799,0.03,1.144,0.09c0.345,0.061,0.657,0.138,0.938,0.23c0.24,0.083,0.48,0.186,0.72,0.309     c0.239,0.124,0.471,0.26,0.694,0.408l-0.667,1.969h-0.134c-0.1-0.132-0.233-0.292-0.398-0.479     c-0.165-0.186-0.382-0.37-0.649-0.551c-0.261-0.17-0.559-0.31-0.895-0.42c-0.337-0.11-0.75-0.165-1.241-0.165     c-0.529,0-1.067,0.107-1.614,0.321c-0.547,0.214-1.068,0.53-1.566,0.947c-0.492,0.417-0.943,0.941-1.353,1.572     c-0.409,0.632-0.746,1.342-1.014,2.133c-0.284,0.84-0.427,1.563-0.427,2.17c0.002,0.607,0.11,1.118,0.325,1.536     c0.208,0.407,0.512,0.713,0.911,0.918c0.398,0.206,0.859,0.309,1.383,0.309c0.48,0,0.943-0.058,1.389-0.173     c0.447-0.115,0.858-0.261,1.236-0.437c0.363-0.17,0.688-0.344,0.971-0.522s0.511-0.331,0.682-0.457h0.125l-0.657,1.943     c-0.316,0.126-0.615,0.247-0.896,0.363c-0.281,0.115-0.614,0.228-0.997,0.337c-0.401,0.115-0.767,0.203-1.097,0.263     C349.581,194.901,349.168,194.931,348.672,194.931z"
   id="path125" />

		<path
   d="M363.883,190.113c-0.523,1.548-1.309,2.744-2.352,3.586c-1.044,0.843-2.195,1.264-3.456,1.264     c-1.299,0-2.173-0.435-2.622-1.305c-0.451-0.87-0.423-2.052,0.082-3.545c0.521-1.537,1.309-2.731,2.363-3.583     s2.21-1.276,3.464-1.276c1.261,0,2.126,0.424,2.598,1.272C364.431,187.375,364.406,188.57,363.883,190.113z M362.26,190.113     c0.404-1.191,0.482-2.077,0.238-2.656s-0.773-0.869-1.588-0.869c-0.819,0-1.548,0.29-2.188,0.869     c-0.639,0.579-1.16,1.464-1.564,2.656c-0.39,1.153-0.464,2.027-0.223,2.623c0.242,0.596,0.771,0.894,1.592,0.894     c0.809,0,1.533-0.292,2.174-0.876C361.343,192.167,361.862,191.288,362.26,190.113z"
   id="path127" />

		<path
   d="M371.318,194.708h-1.572l1.773-5.237c0.144-0.422,0.256-0.816,0.338-1.182c0.081-0.364,0.102-0.658,0.059-0.877     c-0.05-0.23-0.17-0.402-0.361-0.514c-0.19-0.113-0.483-0.169-0.879-0.169c-0.391,0-0.829,0.103-1.313,0.309     c-0.485,0.207-0.981,0.474-1.489,0.803l-2.324,6.868h-1.572l3.113-9.199h1.572l-0.346,1.021c0.608-0.412,1.178-0.727,1.709-0.946     c0.532-0.22,1.052-0.33,1.559-0.33c0.92,0,1.539,0.298,1.855,0.894c0.317,0.596,0.283,1.459-0.1,2.59L371.318,194.708z"
   id="path129" />

		<path
   d="M376.088,194.89c-0.859,0-1.447-0.241-1.764-0.721c-0.317-0.48-0.3-1.24,0.052-2.277l1.726-5.098h-1.063l0.436-1.285     h1.063l0.895-2.643h1.572l-0.895,2.643h2.893l-0.435,1.285h-2.894l-1.48,4.374c-0.158,0.466-0.271,0.826-0.341,1.078     c-0.067,0.253-0.084,0.489-0.048,0.709c0.03,0.192,0.135,0.335,0.314,0.432c0.179,0.096,0.45,0.145,0.813,0.145     c0.256,0,0.517-0.037,0.781-0.111c0.265-0.074,0.458-0.136,0.582-0.186h0.092l-0.472,1.392c-0.324,0.082-0.646,0.147-0.965,0.193     C376.632,194.867,376.344,194.89,376.088,194.89z"
   id="path131" />

		<path
   d="M383.533,194.922c-1.49,0-2.506-0.413-3.048-1.239c-0.544-0.827-0.558-2-0.043-3.521c0.508-1.5,1.31-2.691,2.408-3.579     c1.097-0.886,2.29-1.33,3.578-1.33c0.58,0,1.065,0.082,1.455,0.248c0.391,0.165,0.694,0.423,0.909,0.773     c0.216,0.352,0.326,0.782,0.333,1.29s-0.114,1.129-0.364,1.865l-0.284,0.84h-6.474c-0.362,1.071-0.365,1.889-0.011,2.454     c0.354,0.566,1.015,0.848,1.979,0.848c0.346,0,0.697-0.038,1.055-0.115c0.358-0.077,0.691-0.176,1-0.297     c0.327-0.126,0.607-0.248,0.843-0.366c0.235-0.118,0.436-0.229,0.599-0.333h0.092l-0.572,1.688     c-0.207,0.071-0.466,0.16-0.775,0.268c-0.311,0.107-0.583,0.19-0.821,0.25c-0.335,0.083-0.634,0.146-0.896,0.189     C384.232,194.901,383.912,194.922,383.533,194.922z M387.35,189.084c0.129-0.417,0.201-0.776,0.214-1.079     c0.013-0.302-0.028-0.557-0.125-0.766c-0.106-0.23-0.282-0.406-0.528-0.527c-0.247-0.12-0.582-0.181-1.006-0.181     c-0.418,0-0.794,0.062-1.129,0.186c-0.334,0.123-0.661,0.303-0.981,0.539c-0.315,0.242-0.585,0.509-0.807,0.803     c-0.223,0.293-0.417,0.635-0.581,1.025H387.35z"
   id="path133" />

		<path
   d="M396.15,194.708h-1.934l-1.09-3.475l-3.51,3.475h-1.781l4.79-4.562l-1.642-4.637h1.932l1.084,3.443l3.475-3.443h1.789     l-4.762,4.529L396.15,194.708z"
   id="path135" />

		<path
   d="M400.993,194.89c-0.859,0-1.447-0.241-1.765-0.721c-0.316-0.48-0.299-1.24,0.053-2.277l1.726-5.098h-1.063l0.435-1.285     h1.063l0.896-2.643h1.572l-0.896,2.643h2.895l-0.436,1.285h-2.894l-1.48,4.374c-0.157,0.466-0.271,0.826-0.341,1.078     c-0.068,0.253-0.084,0.489-0.047,0.709c0.029,0.192,0.134,0.335,0.313,0.432c0.179,0.096,0.45,0.145,0.813,0.145     c0.256,0,0.516-0.037,0.781-0.111c0.265-0.074,0.458-0.136,0.582-0.186h0.092l-0.472,1.392c-0.323,0.082-0.646,0.147-0.965,0.193     C401.537,194.867,401.249,194.89,400.993,194.89z"
   id="path137" />

		<path
   d="M408.438,194.922c-1.488,0-2.504-0.413-3.047-1.239c-0.543-0.827-0.558-2-0.043-3.521c0.508-1.5,1.31-2.691,2.408-3.579     c1.097-0.886,2.29-1.33,3.578-1.33c0.58,0,1.064,0.082,1.455,0.248c0.391,0.165,0.693,0.423,0.909,0.773     c0.216,0.352,0.326,0.782,0.333,1.29s-0.115,1.129-0.363,1.865l-0.285,0.84h-6.474c-0.362,1.071-0.366,1.889-0.011,2.454     c0.355,0.566,1.016,0.848,1.979,0.848c0.346,0,0.698-0.038,1.056-0.115c0.358-0.077,0.691-0.176,1-0.297     c0.327-0.126,0.607-0.248,0.843-0.366c0.235-0.118,0.436-0.229,0.599-0.333h0.092l-0.571,1.688     c-0.208,0.071-0.467,0.16-0.776,0.268c-0.31,0.107-0.583,0.19-0.821,0.25c-0.335,0.083-0.634,0.146-0.896,0.189     C409.138,194.901,408.816,194.922,408.438,194.922z M412.254,189.084c0.13-0.417,0.201-0.776,0.215-1.079     c0.013-0.302-0.029-0.557-0.125-0.766c-0.106-0.23-0.283-0.406-0.528-0.527c-0.247-0.12-0.581-0.181-1.005-0.181     c-0.418,0-0.795,0.062-1.13,0.186c-0.335,0.123-0.661,0.303-0.981,0.539c-0.316,0.242-0.585,0.509-0.807,0.803     c-0.223,0.293-0.416,0.635-0.582,1.025H412.254z"
   id="path139" />

		<path
   d="M419.905,189.999c-0.574,1.696-1.354,3.187-2.342,4.472c-0.987,1.285-2.161,2.495-3.521,3.631h-1.915l0.028-0.083     c0.557-0.379,1.147-0.844,1.769-1.396c0.622-0.552,1.207-1.16,1.755-1.824c0.586-0.708,1.113-1.456,1.584-2.244     c0.47-0.788,0.86-1.64,1.17-2.557c0.308-0.906,0.495-1.763,0.561-2.57c0.067-0.807,0.046-1.551-0.063-2.232     c-0.109-0.681-0.287-1.293-0.533-1.836c-0.245-0.544-0.515-1.004-0.811-1.384l0.028-0.083h1.915     c0.586,1.137,0.938,2.344,1.061,3.624S420.483,188.291,419.905,189.999z"
   id="path141" />

	</g>

	

		<line
   fill="none"
   stroke="#800000"
   stroke-width="0.7559"
   stroke-linecap="square"
   stroke-miterlimit="10"
   x1="214.928"
   y1="171.713"
   x2="425.147"
   y2="171.713"
   id="line143" />

	

		<rect
   x="71.665"
   y="314.305"
   fill-rule="evenodd"
   clip-rule="evenodd"
   fill="#FFFFB9"
   stroke="#800000"
   stroke-width="0.7559"
   stroke-linecap="square"
   stroke-miterlimit="10"
   width="208.664"
   height="82.794"
   id="rect145" />

	<g
   id="g147">

		<path
   d="M86.961,337.299v-12.262h8.422v2.338h-5.311v2.149h4.893v2.339h-4.893v3.097h5.311v2.339H86.961z"
   id="path149" />

		<path
   d="M105.417,337.299h-3.429l-1.79-2.66l-1.84,2.66h-3.362l3.455-4.62l-3.396-4.628h3.429l1.756,2.61l1.765-2.61h3.371     l-3.404,4.554L105.417,337.299z"
   id="path151" />

		<path
   d="M116.244,332.547c0,1.478-0.38,2.669-1.142,3.574c-0.761,0.906-1.699,1.359-2.814,1.359c-0.468,0-0.875-0.053-1.221-0.157     c-0.346-0.104-0.714-0.266-1.104-0.485v3.854h-2.927v-12.641h2.927v0.964c0.43-0.362,0.867-0.656,1.313-0.882     c0.446-0.225,0.962-0.337,1.547-0.337c1.087,0,1.929,0.425,2.526,1.276C115.946,329.923,116.244,331.081,116.244,332.547z      M113.25,332.604c0-0.9-0.141-1.554-0.422-1.96s-0.721-0.609-1.317-0.609c-0.262,0-0.522,0.041-0.782,0.124     c-0.259,0.082-0.515,0.206-0.766,0.37v4.653c0.156,0.065,0.328,0.112,0.515,0.14c0.187,0.027,0.408,0.041,0.665,0.041     c0.713,0,1.243-0.229,1.589-0.688C113.077,334.218,113.25,333.527,113.25,332.604z"
   id="path153" />

		<path
   d="M124.226,330.776h-0.243c-0.112-0.038-0.273-0.067-0.485-0.086c-0.212-0.02-0.446-0.029-0.702-0.029     c-0.307,0-0.629,0.044-0.966,0.132s-0.665,0.192-0.983,0.313v6.192h-2.927v-9.248h2.927v1.326     c0.134-0.121,0.319-0.273,0.557-0.457c0.237-0.185,0.453-0.331,0.648-0.441c0.212-0.126,0.458-0.234,0.74-0.325     c0.281-0.09,0.548-0.136,0.799-0.136c0.095,0,0.201,0.003,0.318,0.009c0.117,0.005,0.223,0.014,0.318,0.024V330.776z"
   id="path155" />

		<path
   d="M130.499,337.546c-1.773,0-3.132-0.417-4.078-1.252c-0.945-0.834-1.417-2.022-1.417-3.565c0-1.51,0.44-2.715,1.321-3.615     s2.113-1.351,3.697-1.351c1.438,0,2.521,0.382,3.245,1.145c0.725,0.763,1.087,1.855,1.087,3.277v1.038h-6.415     c0.028,0.428,0.12,0.786,0.276,1.074s0.362,0.518,0.619,0.688c0.251,0.171,0.543,0.293,0.878,0.367     c0.335,0.074,0.7,0.11,1.096,0.11c0.34,0,0.675-0.036,1.004-0.11c0.329-0.074,0.63-0.172,0.903-0.293     c0.24-0.104,0.461-0.217,0.665-0.337c0.204-0.121,0.37-0.229,0.498-0.321h0.309v2.38c-0.24,0.093-0.458,0.18-0.656,0.259     c-0.198,0.08-0.47,0.161-0.815,0.243c-0.318,0.082-0.646,0.146-0.983,0.193S130.983,337.546,130.499,337.546z M131.468,331.484     c-0.017-0.609-0.16-1.073-0.431-1.392s-0.685-0.478-1.242-0.478c-0.569,0-1.014,0.168-1.334,0.503     c-0.321,0.335-0.498,0.79-0.531,1.366H131.468z"
   id="path157" />

		<path
   d="M139.439,337.554c-0.691,0-1.345-0.073-1.961-0.222c-0.616-0.148-1.125-0.321-1.526-0.52v-2.438h0.242     c0.14,0.104,0.298,0.22,0.477,0.347c0.178,0.126,0.426,0.258,0.744,0.395c0.273,0.127,0.582,0.235,0.924,0.325     c0.343,0.091,0.715,0.137,1.117,0.137c0.413,0,0.776-0.063,1.091-0.189c0.315-0.127,0.473-0.327,0.473-0.602     c0-0.214-0.073-0.376-0.218-0.486c-0.145-0.109-0.426-0.214-0.845-0.313c-0.223-0.055-0.504-0.114-0.845-0.177     c-0.34-0.063-0.641-0.136-0.903-0.219c-0.736-0.225-1.289-0.559-1.66-1c-0.371-0.442-0.556-1.022-0.556-1.742     c0-0.412,0.096-0.8,0.289-1.165s0.476-0.69,0.849-0.976c0.374-0.28,0.835-0.503,1.384-0.667c0.549-0.165,1.169-0.247,1.861-0.247     c0.658,0,1.263,0.064,1.815,0.193c0.552,0.129,1.018,0.284,1.396,0.465v2.339h-0.234c-0.101-0.077-0.259-0.18-0.477-0.309     c-0.218-0.129-0.43-0.24-0.636-0.334c-0.246-0.109-0.52-0.2-0.824-0.271c-0.304-0.071-0.615-0.107-0.932-0.107     c-0.424,0-0.782,0.072-1.075,0.215c-0.292,0.143-0.439,0.332-0.439,0.568c0,0.208,0.072,0.373,0.218,0.494     c0.145,0.12,0.46,0.238,0.945,0.354c0.251,0.061,0.54,0.119,0.866,0.177s0.64,0.137,0.941,0.235     c0.675,0.214,1.186,0.528,1.535,0.942c0.349,0.415,0.523,0.965,0.523,1.651c0,0.434-0.104,0.847-0.31,1.239     c-0.207,0.393-0.499,0.724-0.878,0.992c-0.401,0.291-0.874,0.517-1.417,0.676S140.198,337.554,139.439,337.554z"
   id="path159" />

		<path
   d="M148.769,337.554c-0.691,0-1.345-0.073-1.961-0.222c-0.616-0.148-1.125-0.321-1.526-0.52v-2.438h0.242     c0.14,0.104,0.298,0.22,0.477,0.347c0.178,0.126,0.426,0.258,0.744,0.395c0.273,0.127,0.582,0.235,0.924,0.325     c0.343,0.091,0.715,0.137,1.117,0.137c0.413,0,0.776-0.063,1.091-0.189c0.315-0.127,0.473-0.327,0.473-0.602     c0-0.214-0.073-0.376-0.218-0.486c-0.145-0.109-0.426-0.214-0.845-0.313c-0.223-0.055-0.504-0.114-0.845-0.177     c-0.34-0.063-0.641-0.136-0.903-0.219c-0.736-0.225-1.289-0.559-1.66-1c-0.371-0.442-0.556-1.022-0.556-1.742     c0-0.412,0.096-0.8,0.289-1.165s0.476-0.69,0.849-0.976c0.374-0.28,0.835-0.503,1.384-0.667c0.549-0.165,1.169-0.247,1.861-0.247     c0.658,0,1.263,0.064,1.815,0.193c0.552,0.129,1.018,0.284,1.396,0.465v2.339h-0.234c-0.101-0.077-0.259-0.18-0.477-0.309     c-0.218-0.129-0.43-0.24-0.636-0.334c-0.246-0.109-0.52-0.2-0.824-0.271c-0.304-0.071-0.615-0.107-0.932-0.107     c-0.424,0-0.782,0.072-1.075,0.215c-0.292,0.143-0.439,0.332-0.439,0.568c0,0.208,0.072,0.373,0.218,0.494     c0.145,0.12,0.46,0.238,0.945,0.354c0.251,0.061,0.54,0.119,0.866,0.177s0.64,0.137,0.941,0.235     c0.675,0.214,1.186,0.528,1.535,0.942c0.349,0.415,0.523,0.965,0.523,1.651c0,0.434-0.104,0.847-0.31,1.239     c-0.207,0.393-0.499,0.724-0.878,0.992c-0.401,0.291-0.874,0.517-1.417,0.676S149.527,337.554,148.769,337.554z"
   id="path161" />

		<path
   d="M158.249,326.733h-3.095v-2.248h3.095V326.733z M158.165,337.299h-2.927v-9.248h2.927V337.299z"
   id="path163" />

		<path
   d="M168.926,332.679c0,1.521-0.422,2.719-1.267,3.595s-2.039,1.313-3.583,1.313c-1.534,0-2.726-0.438-3.576-1.313     c-0.851-0.876-1.275-2.073-1.275-3.595c0-1.537,0.425-2.74,1.275-3.611c0.85-0.87,2.042-1.305,3.576-1.305     c1.539,0,2.732,0.438,3.58,1.313C168.502,329.952,168.926,331.152,168.926,332.679z M165.923,332.695     c0-0.549-0.046-1.006-0.138-1.371c-0.092-0.365-0.219-0.657-0.38-0.877c-0.173-0.23-0.368-0.392-0.585-0.481     c-0.217-0.091-0.466-0.137-0.744-0.137c-0.262,0-0.5,0.04-0.711,0.12c-0.212,0.079-0.407,0.231-0.585,0.457     c-0.167,0.214-0.301,0.508-0.402,0.881c-0.1,0.373-0.15,0.843-0.15,1.408s0.047,1.022,0.142,1.371s0.218,0.627,0.368,0.836     c0.156,0.214,0.351,0.371,0.585,0.47s0.494,0.148,0.778,0.148c0.234,0,0.473-0.05,0.715-0.148     c0.242-0.099,0.436-0.247,0.581-0.445c0.173-0.235,0.304-0.52,0.393-0.852C165.879,333.742,165.923,333.283,165.923,332.695z"
   id="path165" />

		<path
   d="M179.606,337.299h-2.944v-4.587c0-0.373-0.016-0.745-0.046-1.116c-0.03-0.37-0.087-0.644-0.171-0.819     c-0.1-0.208-0.245-0.358-0.435-0.448c-0.19-0.091-0.443-0.136-0.761-0.136c-0.24,0-0.482,0.044-0.728,0.131     c-0.246,0.088-0.508,0.229-0.787,0.421v6.555h-2.927v-9.248h2.927v1.021c0.479-0.401,0.947-0.714,1.401-0.939     c0.454-0.225,0.958-0.337,1.509-0.337c0.959,0,1.692,0.298,2.2,0.894s0.761,1.459,0.761,2.59V337.299z"
   id="path167" />

		<path
   d="M184.28,337.299v-9.924h-3.68v-2.338h10.488v2.338h-3.68v9.924H184.28z"
   id="path169" />

		<path
   d="M197.43,337.546c-1.773,0-3.132-0.417-4.078-1.252c-0.945-0.834-1.417-2.022-1.417-3.565c0-1.51,0.44-2.715,1.321-3.615     s2.113-1.351,3.697-1.351c1.438,0,2.521,0.382,3.245,1.145c0.725,0.763,1.087,1.855,1.087,3.277v1.038h-6.415     c0.028,0.428,0.12,0.786,0.276,1.074s0.362,0.518,0.619,0.688c0.251,0.171,0.543,0.293,0.878,0.367     c0.335,0.074,0.7,0.11,1.096,0.11c0.34,0,0.675-0.036,1.004-0.11c0.329-0.074,0.63-0.172,0.903-0.293     c0.24-0.104,0.461-0.217,0.665-0.337c0.204-0.121,0.37-0.229,0.498-0.321h0.309v2.38c-0.24,0.093-0.458,0.18-0.656,0.259     c-0.198,0.08-0.47,0.161-0.815,0.243c-0.318,0.082-0.646,0.146-0.983,0.193S197.915,337.546,197.43,337.546z M198.399,331.484     c-0.017-0.609-0.16-1.073-0.431-1.392s-0.685-0.478-1.242-0.478c-0.569,0-1.014,0.168-1.334,0.503     c-0.321,0.335-0.498,0.79-0.531,1.366H198.399z"
   id="path171" />

		<path
   d="M209.816,330.776h-0.243c-0.112-0.038-0.273-0.067-0.485-0.086c-0.212-0.02-0.446-0.029-0.702-0.029     c-0.307,0-0.629,0.044-0.966,0.132s-0.665,0.192-0.983,0.313v6.192h-2.927v-9.248h2.927v1.326     c0.134-0.121,0.319-0.273,0.557-0.457c0.237-0.185,0.453-0.331,0.648-0.441c0.212-0.126,0.458-0.234,0.74-0.325     c0.281-0.09,0.548-0.136,0.799-0.136c0.095,0,0.201,0.003,0.318,0.009c0.117,0.005,0.223,0.014,0.318,0.024V330.776z"
   id="path173" />

		<path
   d="M222.504,337.299v-4.62c0-0.455-0.009-0.84-0.025-1.152c-0.017-0.313-0.067-0.568-0.15-0.767     c-0.083-0.197-0.213-0.342-0.389-0.432c-0.175-0.091-0.422-0.136-0.74-0.136c-0.223,0-0.443,0.048-0.661,0.144     c-0.217,0.097-0.455,0.232-0.711,0.408v6.555h-2.944v-4.62c0-0.45-0.01-0.833-0.029-1.148s-0.071-0.572-0.155-0.771     c-0.083-0.197-0.213-0.342-0.389-0.432c-0.175-0.091-0.419-0.136-0.731-0.136c-0.24,0-0.474,0.055-0.703,0.164     c-0.229,0.11-0.452,0.239-0.669,0.388v6.555h-2.927v-9.248h2.927v1.021c0.479-0.401,0.931-0.714,1.355-0.939     c0.424-0.225,0.9-0.337,1.43-0.337c0.574,0,1.079,0.134,1.514,0.403c0.435,0.269,0.767,0.67,0.995,1.202     c0.563-0.516,1.094-0.913,1.593-1.19c0.499-0.276,1.005-0.415,1.518-0.415c0.435,0,0.825,0.068,1.171,0.205     c0.346,0.138,0.639,0.344,0.878,0.618c0.262,0.296,0.458,0.649,0.589,1.058c0.131,0.409,0.197,0.943,0.197,1.603v6.02H222.504z"
   id="path175" />

		<path
   d="M231.413,326.733h-3.095v-2.248h3.095V326.733z M231.329,337.299h-2.927v-9.248h2.927V337.299z"
   id="path177" />

		<path
   d="M241.873,337.299h-2.944v-4.587c0-0.373-0.016-0.745-0.046-1.116c-0.03-0.37-0.087-0.644-0.171-0.819     c-0.1-0.208-0.245-0.358-0.435-0.448c-0.19-0.091-0.443-0.136-0.761-0.136c-0.24,0-0.482,0.044-0.728,0.131     c-0.246,0.088-0.508,0.229-0.787,0.421v6.555h-2.927v-9.248h2.927v1.021c0.479-0.401,0.947-0.714,1.401-0.939     c0.454-0.225,0.958-0.337,1.509-0.337c0.959,0,1.692,0.298,2.2,0.894s0.761,1.459,0.761,2.59V337.299z"
   id="path179" />

		<path
   d="M249.165,336.318c-0.201,0.165-0.38,0.313-0.54,0.445c-0.159,0.132-0.372,0.264-0.64,0.396     c-0.262,0.126-0.517,0.222-0.765,0.288c-0.249,0.065-0.595,0.099-1.042,0.099c-0.831,0-1.521-0.274-2.07-0.823     c-0.549-0.549-0.824-1.241-0.824-2.075c0-0.687,0.14-1.241,0.418-1.664s0.68-0.758,1.204-1.005     c0.53-0.252,1.163-0.428,1.899-0.526c0.736-0.099,1.528-0.176,2.375-0.23v-0.05c0-0.511-0.191-0.863-0.573-1.059     c-0.382-0.194-0.955-0.292-1.719-0.292c-0.346,0-0.75,0.062-1.213,0.186c-0.463,0.123-0.915,0.281-1.355,0.474h-0.25v-2.232     c0.29-0.082,0.758-0.18,1.405-0.292s1.299-0.169,1.957-0.169c1.617,0,2.795,0.265,3.534,0.795     c0.739,0.529,1.108,1.338,1.108,2.425v6.292h-2.911V336.318z M249.165,334.886v-1.927c-0.496,0.05-0.897,0.092-1.204,0.128     c-0.307,0.035-0.608,0.105-0.903,0.21c-0.257,0.088-0.456,0.221-0.598,0.399c-0.142,0.178-0.213,0.416-0.213,0.712     c0,0.434,0.119,0.731,0.355,0.894s0.587,0.243,1.05,0.243c0.256,0,0.519-0.058,0.786-0.173S248.947,335.095,249.165,334.886z"
   id="path181" />

		<path
   d="M257.803,337.299h-2.927v-12.813h2.927V337.299z"
   id="path183" />

		<path
   d="M264.357,337.546c-1.773,0-3.132-0.417-4.078-1.252c-0.945-0.834-1.417-2.022-1.417-3.565c0-1.51,0.44-2.715,1.321-3.615     s2.113-1.351,3.697-1.351c1.438,0,2.521,0.382,3.245,1.145c0.725,0.763,1.087,1.855,1.087,3.277v1.038h-6.415     c0.028,0.428,0.12,0.786,0.276,1.074s0.362,0.518,0.619,0.688c0.251,0.171,0.543,0.293,0.878,0.367     c0.335,0.074,0.7,0.11,1.096,0.11c0.34,0,0.675-0.036,1.004-0.11c0.329-0.074,0.63-0.172,0.903-0.293     c0.24-0.104,0.461-0.217,0.665-0.337c0.204-0.121,0.37-0.229,0.498-0.321h0.309v2.38c-0.24,0.093-0.458,0.18-0.656,0.259     c-0.198,0.08-0.47,0.161-0.815,0.243c-0.318,0.082-0.646,0.146-0.983,0.193S264.842,337.546,264.357,337.546z M265.327,331.484     c-0.017-0.609-0.16-1.073-0.431-1.392s-0.685-0.478-1.242-0.478c-0.569,0-1.014,0.168-1.334,0.503     c-0.321,0.335-0.498,0.79-0.531,1.366H265.327z"
   id="path185" />

	</g>

	

		<line
   fill="none"
   stroke="#800000"
   stroke-width="0.7559"
   stroke-linecap="square"
   stroke-miterlimit="10"
   x1="71.665"
   y1="348.036"
   x2="281.887"
   y2="348.036"
   id="line187" />

	<g
   id="g189">

		<path
   d="M90.596,380.127h-4.224v4.159h-1.389v-4.159H80.76v-1.317h4.224v-4.158h1.389v4.158h4.224V380.127z"
   id="path191" />

		<path
   d="M94.761,374.1h-1.79v-1.606h1.79V374.1z M94.652,384.838H93.08v-9.198h1.572V384.838z"
   id="path193" />

		<path
   d="M103.516,384.838h-1.572v-5.237c0-0.423-0.021-0.816-0.063-1.182c-0.042-0.365-0.121-0.658-0.238-0.877     c-0.128-0.231-0.307-0.402-0.535-0.515c-0.229-0.113-0.541-0.169-0.937-0.169c-0.39,0-0.793,0.103-1.208,0.309     s-0.821,0.474-1.217,0.803v6.868h-1.572v-9.198h1.572v1.021c0.468-0.411,0.931-0.728,1.388-0.947     c0.457-0.219,0.939-0.329,1.447-0.329c0.92,0,1.639,0.298,2.158,0.894s0.778,1.459,0.778,2.59V384.838z"
   id="path195" />

		<path
   d="M108.345,385.02c-0.858,0-1.528-0.24-2.007-0.721s-0.719-1.239-0.719-2.277v-5.098h-1.062v-1.284h1.062v-2.644h1.572     v2.644h2.894v1.284h-2.894v4.373c0,0.467,0.009,0.826,0.025,1.079c0.017,0.252,0.081,0.488,0.192,0.708     c0.095,0.192,0.248,0.336,0.46,0.433c0.212,0.096,0.499,0.144,0.861,0.144c0.256,0,0.504-0.037,0.745-0.111     c0.239-0.074,0.413-0.136,0.519-0.185h0.092v1.392c-0.295,0.082-0.595,0.146-0.899,0.193     C108.882,384.996,108.602,385.02,108.345,385.02z"
   id="path197" />

		<path
   d="M115.801,385.052c-1.489,0-2.645-0.413-3.467-1.239s-1.233-2-1.233-3.521c0-1.499,0.398-2.691,1.196-3.578     s1.84-1.33,3.128-1.33c0.58,0,1.093,0.082,1.539,0.247s0.836,0.423,1.171,0.774s0.591,0.781,0.77,1.289     c0.178,0.508,0.268,1.129,0.268,1.865v0.84h-6.474c0,1.07,0.273,1.889,0.82,2.454s1.302,0.848,2.267,0.848     c0.346,0,0.685-0.038,1.016-0.115c0.332-0.076,0.631-0.176,0.899-0.296c0.285-0.127,0.524-0.249,0.72-0.367     c0.195-0.117,0.356-0.229,0.485-0.333h0.092v1.688c-0.184,0.071-0.413,0.16-0.686,0.268c-0.273,0.106-0.519,0.19-0.736,0.251     c-0.307,0.082-0.584,0.146-0.833,0.189S116.18,385.052,115.801,385.052z M117.641,379.213c-0.011-0.417-0.062-0.776-0.151-1.078     s-0.217-0.558-0.385-0.767c-0.184-0.23-0.419-0.406-0.707-0.526c-0.287-0.121-0.643-0.182-1.066-0.182     c-0.418,0-0.774,0.062-1.066,0.186c-0.293,0.123-0.559,0.304-0.799,0.539c-0.234,0.242-0.413,0.51-0.535,0.804     c-0.123,0.293-0.201,0.635-0.234,1.024H117.641z"
   id="path199" />

		<path
   d="M126.038,377.303h-0.083c-0.117-0.033-0.241-0.054-0.373-0.062c-0.131-0.009-0.289-0.013-0.472-0.013     c-0.424,0-0.845,0.091-1.263,0.271c-0.418,0.182-0.814,0.45-1.188,0.808v6.53h-1.572v-9.198h1.572v1.366     c0.574-0.499,1.075-0.852,1.501-1.058c0.427-0.206,0.841-0.309,1.242-0.309c0.162,0,0.283,0.004,0.364,0.012     c0.081,0.009,0.171,0.021,0.272,0.037V377.303z"
   id="path201" />

		<path
   d="M135.147,379.996c0,1.531-0.373,2.752-1.117,3.66c-0.745,0.908-1.686,1.363-2.823,1.363c-0.463,0-0.873-0.053-1.229-0.157     c-0.357-0.104-0.722-0.266-1.096-0.485v3.854h-1.572V375.64h1.572v0.963c0.39-0.346,0.824-0.635,1.3-0.868     c0.477-0.233,0.997-0.351,1.56-0.351c1.07,0,1.905,0.417,2.505,1.252S135.147,378.59,135.147,379.996z M133.524,380.169     c0-1.049-0.17-1.863-0.51-2.442c-0.34-0.579-0.893-0.868-1.656-0.868c-0.446,0-0.877,0.098-1.292,0.292     c-0.416,0.195-0.81,0.446-1.184,0.754v5.213c0.413,0.197,0.765,0.332,1.058,0.403c0.292,0.071,0.628,0.106,1.008,0.106     c0.814,0,1.447-0.293,1.898-0.881C133.298,382.159,133.524,381.3,133.524,380.169z"
   id="path203" />

		<path
   d="M141.609,377.303h-0.083c-0.117-0.033-0.241-0.054-0.373-0.062c-0.131-0.009-0.289-0.013-0.472-0.013     c-0.424,0-0.845,0.091-1.263,0.271c-0.418,0.182-0.814,0.45-1.188,0.808v6.53h-1.572v-9.198h1.572v1.366     c0.574-0.499,1.075-0.852,1.501-1.058c0.427-0.206,0.841-0.309,1.242-0.309c0.162,0,0.283,0.004,0.364,0.012     c0.081,0.009,0.171,0.021,0.272,0.037V377.303z"
   id="path205" />

		<path
   d="M146.938,385.052c-1.489,0-2.645-0.413-3.467-1.239s-1.233-2-1.233-3.521c0-1.499,0.398-2.691,1.196-3.578     s1.84-1.33,3.128-1.33c0.58,0,1.093,0.082,1.539,0.247s0.836,0.423,1.171,0.774s0.591,0.781,0.77,1.289     c0.178,0.508,0.268,1.129,0.268,1.865v0.84h-6.474c0,1.07,0.273,1.889,0.82,2.454s1.302,0.848,2.267,0.848     c0.346,0,0.685-0.038,1.016-0.115c0.332-0.076,0.631-0.176,0.899-0.296c0.285-0.127,0.524-0.249,0.72-0.367     c0.195-0.117,0.356-0.229,0.485-0.333h0.092v1.688c-0.184,0.071-0.413,0.16-0.686,0.268c-0.273,0.106-0.519,0.19-0.736,0.251     c-0.307,0.082-0.584,0.146-0.833,0.189S147.317,385.052,146.938,385.052z M148.778,379.213c-0.011-0.417-0.062-0.776-0.151-1.078     s-0.217-0.558-0.385-0.767c-0.184-0.23-0.419-0.406-0.707-0.526c-0.287-0.121-0.643-0.182-1.066-0.182     c-0.418,0-0.774,0.062-1.066,0.186c-0.293,0.123-0.559,0.304-0.799,0.539c-0.234,0.242-0.413,0.51-0.535,0.804     c-0.123,0.293-0.201,0.635-0.234,1.024H148.778z"
   id="path207" />

		<path
   d="M155.05,385.02c-0.858,0-1.528-0.24-2.007-0.721s-0.719-1.239-0.719-2.277v-5.098h-1.062v-1.284h1.062v-2.644h1.572v2.644     h2.894v1.284h-2.894v4.373c0,0.467,0.009,0.826,0.025,1.079c0.017,0.252,0.081,0.488,0.192,0.708     c0.095,0.192,0.248,0.336,0.46,0.433c0.212,0.096,0.499,0.144,0.861,0.144c0.256,0,0.504-0.037,0.745-0.111     c0.239-0.074,0.413-0.136,0.519-0.185h0.092v1.392c-0.295,0.082-0.595,0.146-0.899,0.193     C155.587,384.996,155.307,385.02,155.05,385.02z"
   id="path209" />

		<path
   d="M162.506,385.052c-1.489,0-2.645-0.413-3.467-1.239s-1.233-2-1.233-3.521c0-1.499,0.398-2.691,1.196-3.578     s1.84-1.33,3.128-1.33c0.58,0,1.093,0.082,1.539,0.247s0.836,0.423,1.171,0.774s0.591,0.781,0.77,1.289     c0.178,0.508,0.268,1.129,0.268,1.865v0.84h-6.474c0,1.07,0.273,1.889,0.82,2.454s1.302,0.848,2.267,0.848     c0.346,0,0.685-0.038,1.016-0.115c0.332-0.076,0.631-0.176,0.899-0.296c0.285-0.127,0.524-0.249,0.72-0.367     c0.195-0.117,0.356-0.229,0.485-0.333h0.092v1.688c-0.184,0.071-0.413,0.16-0.686,0.268c-0.273,0.106-0.519,0.19-0.736,0.251     c-0.307,0.082-0.584,0.146-0.833,0.189S162.885,385.052,162.506,385.052z M164.346,379.213c-0.011-0.417-0.062-0.776-0.151-1.078     s-0.217-0.558-0.385-0.767c-0.184-0.23-0.419-0.406-0.707-0.526c-0.287-0.121-0.643-0.182-1.066-0.182     c-0.418,0-0.774,0.062-1.066,0.186c-0.293,0.123-0.559,0.304-0.799,0.539c-0.234,0.242-0.413,0.51-0.535,0.804     c-0.123,0.293-0.201,0.635-0.234,1.024H164.346z"
   id="path211" />

		<path
   d="M172.743,377.303h-0.083c-0.117-0.033-0.241-0.054-0.373-0.062c-0.131-0.009-0.289-0.013-0.472-0.013     c-0.424,0-0.845,0.091-1.263,0.271c-0.418,0.182-0.814,0.45-1.188,0.808v6.53h-1.572v-9.198h1.572v1.366     c0.574-0.499,1.075-0.852,1.501-1.058c0.427-0.206,0.841-0.309,1.242-0.309c0.162,0,0.283,0.004,0.364,0.012     c0.081,0.009,0.171,0.021,0.272,0.037V377.303z"
   id="path213" />

		<path
   d="M178.816,388.23H176.9c-0.97-1.136-1.733-2.339-2.288-3.606c-0.555-1.269-0.832-2.768-0.832-4.497     c0-1.69,0.274-3.18,0.824-4.467c0.549-1.288,1.314-2.5,2.296-3.636h1.916v0.082c-0.452,0.4-0.882,0.863-1.292,1.388     c-0.41,0.524-0.79,1.135-1.142,1.832c-0.334,0.676-0.606,1.419-0.815,2.231s-0.313,1.67-0.313,2.569     c0,0.939,0.102,1.799,0.305,2.578s0.478,1.521,0.824,2.224c0.334,0.675,0.716,1.286,1.146,1.832     c0.429,0.546,0.858,1.009,1.288,1.388V388.23z"
   id="path215" />

		<path
   d="M187.507,384.838h-1.932l-2.267-3.476l-2.333,3.476h-1.782l3.245-4.563l-3.211-4.636h1.932l2.25,3.441l2.309-3.441h1.79     l-3.229,4.529L187.507,384.838z"
   id="path217" />

		<path
   d="M192.478,377.986h-1.999v-2.347h1.999V377.986z M192.478,384.838h-1.999v-2.347h1.999V384.838z"
   id="path219" />

		<path
   d="M205.489,385.061c-0.814,0-1.563-0.135-2.246-0.404c-0.683-0.269-1.272-0.669-1.769-1.202     c-0.497-0.532-0.881-1.196-1.154-1.992c-0.273-0.797-0.41-1.711-0.41-2.743c0-1.026,0.132-1.921,0.397-2.685     c0.265-0.763,0.651-1.427,1.159-1.992c0.496-0.549,1.084-0.968,1.765-1.256c0.68-0.289,1.441-0.433,2.283-0.433     c0.418,0,0.81,0.03,1.175,0.091c0.365,0.061,0.704,0.137,1.016,0.23c0.268,0.082,0.542,0.186,0.824,0.309     c0.282,0.124,0.559,0.26,0.832,0.407v1.969h-0.134c-0.145-0.132-0.332-0.291-0.56-0.478c-0.229-0.187-0.508-0.371-0.836-0.552     c-0.318-0.17-0.664-0.311-1.037-0.42c-0.374-0.11-0.806-0.165-1.296-0.165c-0.53,0-1.032,0.107-1.505,0.321     c-0.474,0.214-0.89,0.53-1.247,0.947c-0.351,0.417-0.625,0.941-0.819,1.572c-0.195,0.632-0.293,1.343-0.293,2.133     c0,0.841,0.103,1.563,0.31,2.17c0.206,0.607,0.488,1.119,0.845,1.536c0.346,0.406,0.753,0.713,1.221,0.918     c0.468,0.206,0.964,0.31,1.489,0.31c0.479,0,0.923-0.058,1.33-0.173c0.407-0.115,0.77-0.261,1.087-0.437     c0.307-0.171,0.571-0.345,0.794-0.523c0.223-0.178,0.399-0.33,0.527-0.457h0.125v1.943c-0.273,0.127-0.531,0.247-0.773,0.362     s-0.537,0.229-0.882,0.338c-0.363,0.115-0.698,0.203-1.008,0.264S205.985,385.061,205.489,385.061z"
   id="path221" />

		<path
   d="M219.069,380.243c0,1.548-0.379,2.743-1.137,3.586c-0.758,0.843-1.768,1.264-3.028,1.264     c-1.299,0-2.321-0.435-3.065-1.305c-0.744-0.87-1.117-2.052-1.117-3.545c0-1.538,0.383-2.731,1.15-3.583     c0.767-0.851,1.777-1.276,3.032-1.276c1.26,0,2.27,0.424,3.028,1.272C218.689,377.505,219.069,378.7,219.069,380.243z      M217.446,380.243c0-1.191-0.22-2.077-0.661-2.656s-1.068-0.869-1.882-0.869c-0.82,0-1.451,0.29-1.895,0.869     s-0.665,1.465-0.665,2.656c0,1.152,0.222,2.026,0.665,2.622s1.075,0.894,1.895,0.894c0.809,0,1.435-0.292,1.877-0.877     C217.225,382.297,217.446,381.418,217.446,380.243z"
   id="path223" />

		<path
   d="M228.061,384.838h-1.572v-5.237c0-0.423-0.021-0.816-0.063-1.182c-0.042-0.365-0.121-0.658-0.238-0.877     c-0.128-0.231-0.307-0.402-0.535-0.515c-0.229-0.113-0.541-0.169-0.937-0.169c-0.39,0-0.793,0.103-1.208,0.309     s-0.821,0.474-1.217,0.803v6.868h-1.572v-9.198h1.572v1.021c0.468-0.411,0.931-0.728,1.388-0.947     c0.457-0.219,0.939-0.329,1.447-0.329c0.92,0,1.639,0.298,2.158,0.894s0.778,1.459,0.778,2.59V384.838z"
   id="path225" />

		<path
   d="M232.89,385.02c-0.858,0-1.528-0.24-2.007-0.721s-0.719-1.239-0.719-2.277v-5.098h-1.062v-1.284h1.062v-2.644h1.572v2.644     h2.894v1.284h-2.894v4.373c0,0.467,0.009,0.826,0.025,1.079c0.017,0.252,0.081,0.488,0.192,0.708     c0.095,0.192,0.248,0.336,0.46,0.433c0.212,0.096,0.499,0.144,0.861,0.144c0.256,0,0.504-0.037,0.745-0.111     c0.239-0.074,0.413-0.136,0.519-0.185h0.092v1.392c-0.295,0.082-0.595,0.146-0.899,0.193     C233.427,384.996,233.146,385.02,232.89,385.02z"
   id="path227" />

		<path
   d="M240.346,385.052c-1.489,0-2.645-0.413-3.467-1.239s-1.233-2-1.233-3.521c0-1.499,0.398-2.691,1.196-3.578     s1.84-1.33,3.128-1.33c0.58,0,1.093,0.082,1.539,0.247s0.836,0.423,1.171,0.774s0.591,0.781,0.77,1.289     c0.178,0.508,0.268,1.129,0.268,1.865v0.84h-6.474c0,1.07,0.273,1.889,0.82,2.454s1.302,0.848,2.267,0.848     c0.346,0,0.685-0.038,1.016-0.115c0.332-0.076,0.631-0.176,0.899-0.296c0.285-0.127,0.524-0.249,0.72-0.367     c0.195-0.117,0.356-0.229,0.485-0.333h0.092v1.688c-0.184,0.071-0.413,0.16-0.686,0.268c-0.273,0.106-0.519,0.19-0.736,0.251     c-0.307,0.082-0.584,0.146-0.833,0.189S240.725,385.052,240.346,385.052z M242.186,379.213c-0.011-0.417-0.062-0.776-0.151-1.078     s-0.217-0.558-0.385-0.767c-0.184-0.23-0.419-0.406-0.707-0.526c-0.287-0.121-0.643-0.182-1.066-0.182     c-0.418,0-0.774,0.062-1.066,0.186c-0.293,0.123-0.559,0.304-0.799,0.539c-0.234,0.242-0.413,0.51-0.535,0.804     c-0.123,0.293-0.201,0.635-0.234,1.024H242.186z"
   id="path229" />

		<path
   d="M252.891,384.838h-1.932l-2.267-3.476l-2.333,3.476h-1.782l3.245-4.563l-3.211-4.636h1.932l2.25,3.441l2.309-3.441h1.79     l-3.229,4.529L252.891,384.838z"
   id="path231" />

		<path
   d="M257.795,385.02c-0.858,0-1.528-0.24-2.007-0.721s-0.719-1.239-0.719-2.277v-5.098h-1.062v-1.284h1.062v-2.644h1.572     v2.644h2.894v1.284h-2.894v4.373c0,0.467,0.009,0.826,0.025,1.079c0.017,0.252,0.081,0.488,0.192,0.708     c0.095,0.192,0.248,0.336,0.46,0.433c0.212,0.096,0.499,0.144,0.861,0.144c0.256,0,0.504-0.037,0.745-0.111     c0.239-0.074,0.413-0.136,0.519-0.185h0.092v1.392c-0.295,0.082-0.595,0.146-0.899,0.193     C258.332,384.996,258.051,385.02,257.795,385.02z"
   id="path233" />

		<path
   d="M265.25,385.052c-1.489,0-2.645-0.413-3.467-1.239s-1.233-2-1.233-3.521c0-1.499,0.398-2.691,1.196-3.578     s1.84-1.33,3.128-1.33c0.58,0,1.093,0.082,1.539,0.247s0.836,0.423,1.171,0.774s0.591,0.781,0.77,1.289     c0.178,0.508,0.268,1.129,0.268,1.865v0.84h-6.474c0,1.07,0.273,1.889,0.82,2.454s1.302,0.848,2.267,0.848     c0.346,0,0.685-0.038,1.016-0.115c0.332-0.076,0.631-0.176,0.899-0.296c0.285-0.127,0.524-0.249,0.72-0.367     c0.195-0.117,0.356-0.229,0.485-0.333h0.092v1.688c-0.184,0.071-0.413,0.16-0.686,0.268c-0.273,0.106-0.519,0.19-0.736,0.251     c-0.307,0.082-0.584,0.146-0.833,0.189S265.63,385.052,265.25,385.052z M267.091,379.213c-0.011-0.417-0.062-0.776-0.151-1.078     s-0.217-0.558-0.385-0.767c-0.184-0.23-0.419-0.406-0.707-0.526c-0.287-0.121-0.643-0.182-1.066-0.182     c-0.418,0-0.774,0.062-1.066,0.186c-0.293,0.123-0.559,0.304-0.799,0.539c-0.234,0.242-0.413,0.51-0.535,0.804     c-0.123,0.293-0.201,0.635-0.234,1.024H267.091z"
   id="path235" />

		<path
   d="M275.052,380.127c0,1.697-0.276,3.188-0.828,4.472c-0.552,1.285-1.316,2.496-2.292,3.632h-1.915v-0.082     c0.429-0.379,0.861-0.844,1.296-1.396c0.435-0.552,0.814-1.16,1.137-1.824c0.346-0.708,0.62-1.456,0.824-2.244     s0.306-1.641,0.306-2.558c0-0.905-0.104-1.762-0.31-2.569c-0.207-0.807-0.479-1.551-0.82-2.231s-0.725-1.293-1.154-1.836     c-0.429-0.544-0.856-1.005-1.279-1.384v-0.082h1.915c0.97,1.136,1.733,2.344,2.288,3.623S275.052,378.42,275.052,380.127z"
   id="path237" />

	</g>

	

		<line
   fill="none"
   stroke="#800000"
   stroke-width="0.7559"
   stroke-linecap="square"
   stroke-miterlimit="10"
   x1="71.665"
   y1="361.834"
   x2="281.887"
   y2="361.834"
   id="line239" />

	

		<rect
   x="370.646"
   y="314.305"
   fill-rule="evenodd"
   clip-rule="evenodd"
   fill="#FFFFB9"
   stroke="#800000"
   stroke-width="0.7559"
   stroke-linecap="square"
   stroke-miterlimit="10"
   width="228.907"
   height="82.794"
   id="rect241" />

	<g
   id="g243">

		<path
   d="M379.708,337.299v-12.262h8.422v2.338h-5.311v2.149h4.893v2.339h-4.893v3.097h5.311v2.339H379.708z"
   id="path245" />

		<path
   d="M398.164,337.299h-3.429l-1.79-2.66l-1.84,2.66h-3.362l3.454-4.62l-3.396-4.628h3.429l1.757,2.61l1.765-2.61h3.37     l-3.403,4.554L398.164,337.299z"
   id="path247" />

		<path
   d="M408.991,332.547c0,1.478-0.38,2.669-1.142,3.574c-0.761,0.906-1.699,1.359-2.814,1.359c-0.468,0-0.875-0.053-1.221-0.157     c-0.346-0.104-0.714-0.266-1.104-0.485v3.854h-2.927v-12.641h2.927v0.964c0.43-0.362,0.867-0.656,1.313-0.882     c0.446-0.225,0.962-0.337,1.547-0.337c1.088,0,1.93,0.425,2.526,1.276C408.693,329.923,408.991,331.081,408.991,332.547z      M405.997,332.604c0-0.9-0.141-1.554-0.422-1.96c-0.282-0.406-0.721-0.609-1.317-0.609c-0.263,0-0.523,0.041-0.782,0.124     c-0.26,0.082-0.515,0.206-0.766,0.37v4.653c0.156,0.065,0.328,0.112,0.515,0.14s0.408,0.041,0.665,0.041     c0.714,0,1.243-0.229,1.589-0.688C405.824,334.218,405.997,333.527,405.997,332.604z"
   id="path249" />

		<path
   d="M416.973,330.776h-0.242c-0.111-0.038-0.273-0.067-0.485-0.086c-0.212-0.02-0.446-0.029-0.702-0.029     c-0.307,0-0.629,0.044-0.966,0.132c-0.338,0.088-0.665,0.192-0.983,0.313v6.192h-2.927v-9.248h2.927v1.326     c0.134-0.121,0.319-0.273,0.557-0.457c0.236-0.185,0.453-0.331,0.648-0.441c0.211-0.126,0.458-0.234,0.739-0.325     c0.282-0.09,0.548-0.136,0.799-0.136c0.095,0,0.201,0.003,0.318,0.009c0.117,0.005,0.223,0.014,0.317,0.024V330.776z"
   id="path251" />

		<path
   d="M423.245,337.546c-1.772,0-3.132-0.417-4.077-1.252c-0.945-0.834-1.418-2.022-1.418-3.565c0-1.51,0.44-2.715,1.322-3.615     c0.881-0.9,2.112-1.351,3.696-1.351c1.438,0,2.521,0.382,3.245,1.145s1.088,1.855,1.088,3.277v1.038h-6.415     c0.027,0.428,0.119,0.786,0.275,1.074s0.362,0.518,0.619,0.688c0.251,0.171,0.544,0.293,0.878,0.367     c0.335,0.074,0.7,0.11,1.096,0.11c0.34,0,0.675-0.036,1.004-0.11s0.63-0.172,0.903-0.293c0.239-0.104,0.461-0.217,0.665-0.337     c0.203-0.121,0.369-0.229,0.497-0.321h0.31v2.38c-0.239,0.093-0.458,0.18-0.656,0.259c-0.198,0.08-0.47,0.161-0.815,0.243     c-0.318,0.082-0.646,0.146-0.982,0.193C424.142,337.522,423.73,337.546,423.245,337.546z M424.216,331.484     c-0.017-0.609-0.16-1.073-0.431-1.392s-0.685-0.478-1.242-0.478c-0.569,0-1.014,0.168-1.334,0.503     c-0.321,0.335-0.498,0.79-0.531,1.366H424.216z"
   id="path253" />

		<path
   d="M432.187,337.554c-0.691,0-1.346-0.073-1.962-0.222s-1.125-0.321-1.526-0.52v-2.438h0.243     c0.139,0.104,0.298,0.22,0.477,0.347c0.179,0.126,0.427,0.258,0.744,0.395c0.273,0.127,0.581,0.235,0.924,0.325     c0.344,0.091,0.716,0.137,1.117,0.137c0.412,0,0.776-0.063,1.092-0.189c0.314-0.127,0.472-0.327,0.472-0.602     c0-0.214-0.072-0.376-0.217-0.486c-0.146-0.109-0.427-0.214-0.845-0.313c-0.224-0.055-0.505-0.114-0.845-0.177     c-0.341-0.063-0.642-0.136-0.903-0.219c-0.736-0.225-1.29-0.559-1.66-1c-0.371-0.442-0.557-1.022-0.557-1.742     c0-0.412,0.097-0.8,0.289-1.165s0.475-0.69,0.849-0.976c0.373-0.28,0.835-0.503,1.384-0.667c0.55-0.165,1.17-0.247,1.861-0.247     c0.658,0,1.263,0.064,1.814,0.193c0.553,0.129,1.018,0.284,1.397,0.465v2.339h-0.234c-0.101-0.077-0.26-0.18-0.477-0.309     c-0.218-0.129-0.43-0.24-0.636-0.334c-0.245-0.109-0.521-0.2-0.824-0.271s-0.614-0.107-0.933-0.107     c-0.424,0-0.781,0.072-1.074,0.215s-0.439,0.332-0.439,0.568c0,0.208,0.072,0.373,0.218,0.494c0.145,0.12,0.46,0.238,0.945,0.354     c0.251,0.061,0.539,0.119,0.865,0.177s0.64,0.137,0.941,0.235c0.674,0.214,1.186,0.528,1.534,0.942     c0.349,0.415,0.522,0.965,0.522,1.651c0,0.434-0.103,0.847-0.309,1.239c-0.207,0.393-0.5,0.724-0.879,0.992     c-0.401,0.291-0.874,0.517-1.417,0.676C433.596,337.475,432.944,337.554,432.187,337.554z"
   id="path255" />

		<path
   d="M441.516,337.554c-0.691,0-1.346-0.073-1.962-0.222s-1.125-0.321-1.526-0.52v-2.438h0.243     c0.139,0.104,0.298,0.22,0.477,0.347c0.179,0.126,0.427,0.258,0.744,0.395c0.273,0.127,0.581,0.235,0.924,0.325     c0.344,0.091,0.716,0.137,1.117,0.137c0.412,0,0.776-0.063,1.092-0.189c0.314-0.127,0.472-0.327,0.472-0.602     c0-0.214-0.072-0.376-0.217-0.486c-0.146-0.109-0.427-0.214-0.845-0.313c-0.224-0.055-0.505-0.114-0.845-0.177     c-0.341-0.063-0.642-0.136-0.903-0.219c-0.736-0.225-1.29-0.559-1.66-1c-0.371-0.442-0.557-1.022-0.557-1.742     c0-0.412,0.097-0.8,0.289-1.165s0.475-0.69,0.849-0.976c0.373-0.28,0.835-0.503,1.384-0.667c0.55-0.165,1.17-0.247,1.861-0.247     c0.658,0,1.263,0.064,1.814,0.193c0.553,0.129,1.018,0.284,1.397,0.465v2.339h-0.234c-0.101-0.077-0.26-0.18-0.477-0.309     c-0.218-0.129-0.43-0.24-0.636-0.334c-0.245-0.109-0.521-0.2-0.824-0.271s-0.614-0.107-0.933-0.107     c-0.424,0-0.781,0.072-1.074,0.215s-0.439,0.332-0.439,0.568c0,0.208,0.072,0.373,0.218,0.494c0.145,0.12,0.46,0.238,0.945,0.354     c0.251,0.061,0.539,0.119,0.865,0.177s0.64,0.137,0.941,0.235c0.674,0.214,1.186,0.528,1.534,0.942     c0.349,0.415,0.522,0.965,0.522,1.651c0,0.434-0.103,0.847-0.309,1.239c-0.207,0.393-0.5,0.724-0.879,0.992     c-0.401,0.291-0.874,0.517-1.417,0.676C442.925,337.475,442.273,337.554,441.516,337.554z"
   id="path257" />

		<path
   d="M450.995,326.733H447.9v-2.248h3.095V326.733z M450.911,337.299h-2.927v-9.248h2.927V337.299z"
   id="path259" />

		<path
   d="M461.673,332.679c0,1.521-0.422,2.719-1.267,3.595s-2.04,1.313-3.584,1.313c-1.533,0-2.726-0.438-3.576-1.313     c-0.85-0.876-1.275-2.073-1.275-3.595c0-1.537,0.426-2.74,1.275-3.611c0.851-0.87,2.043-1.305,3.576-1.305     c1.539,0,2.731,0.438,3.579,1.313S461.673,331.152,461.673,332.679z M458.671,332.695c0-0.549-0.047-1.006-0.139-1.371     s-0.219-0.657-0.38-0.877c-0.173-0.23-0.368-0.392-0.586-0.481c-0.218-0.091-0.466-0.137-0.744-0.137     c-0.263,0-0.499,0.04-0.711,0.12c-0.212,0.079-0.407,0.231-0.586,0.457c-0.167,0.214-0.301,0.508-0.401,0.881     s-0.15,0.843-0.15,1.408s0.047,1.022,0.143,1.371c0.095,0.349,0.217,0.627,0.367,0.836c0.156,0.214,0.352,0.371,0.586,0.47     s0.493,0.148,0.777,0.148c0.234,0,0.473-0.05,0.716-0.148c0.242-0.099,0.436-0.247,0.581-0.445     c0.173-0.235,0.304-0.52,0.394-0.852C458.626,333.742,458.671,333.283,458.671,332.695z"
   id="path261" />

		<path
   d="M472.353,337.299h-2.944v-4.587c0-0.373-0.016-0.745-0.046-1.116c-0.031-0.37-0.088-0.644-0.172-0.819     c-0.101-0.208-0.245-0.358-0.435-0.448c-0.189-0.091-0.443-0.136-0.762-0.136c-0.239,0-0.482,0.044-0.728,0.131     c-0.245,0.088-0.507,0.229-0.786,0.421v6.555h-2.927v-9.248h2.927v1.021c0.479-0.401,0.946-0.714,1.401-0.939     c0.454-0.225,0.957-0.337,1.51-0.337c0.959,0,1.692,0.298,2.199,0.894c0.508,0.596,0.762,1.459,0.762,2.59V337.299z"
   id="path263" />

		<path
   d="M485.307,337.299h-3.011l-4.801-8.548v8.548h-2.86v-12.262h3.839l3.973,7.024v-7.024h2.86V337.299z"
   id="path265" />

		<path
   d="M494.386,332.679c0,1.521-0.422,2.719-1.267,3.595s-2.04,1.313-3.584,1.313c-1.533,0-2.726-0.438-3.576-1.313     c-0.85-0.876-1.275-2.073-1.275-3.595c0-1.537,0.426-2.74,1.275-3.611c0.851-0.87,2.043-1.305,3.576-1.305     c1.539,0,2.731,0.438,3.579,1.313S494.386,331.152,494.386,332.679z M491.384,332.695c0-0.549-0.047-1.006-0.139-1.371     s-0.219-0.657-0.38-0.877c-0.173-0.23-0.368-0.392-0.586-0.481c-0.218-0.091-0.466-0.137-0.744-0.137     c-0.263,0-0.499,0.04-0.711,0.12c-0.212,0.079-0.407,0.231-0.586,0.457c-0.167,0.214-0.301,0.508-0.401,0.881     s-0.15,0.843-0.15,1.408s0.047,1.022,0.143,1.371c0.095,0.349,0.217,0.627,0.367,0.836c0.156,0.214,0.352,0.371,0.586,0.47     s0.493,0.148,0.777,0.148c0.234,0,0.473-0.05,0.716-0.148c0.242-0.099,0.436-0.247,0.581-0.445     c0.173-0.235,0.304-0.52,0.394-0.852C491.339,333.742,491.384,333.283,491.384,332.695z"
   id="path267" />

		<path
   d="M505.066,337.299h-2.944v-4.587c0-0.373-0.016-0.745-0.046-1.116c-0.031-0.37-0.088-0.644-0.172-0.819     c-0.101-0.208-0.245-0.358-0.435-0.448c-0.189-0.091-0.443-0.136-0.762-0.136c-0.239,0-0.482,0.044-0.728,0.131     c-0.245,0.088-0.507,0.229-0.786,0.421v6.555h-2.927v-9.248h2.927v1.021c0.479-0.401,0.946-0.714,1.401-0.939     c0.454-0.225,0.957-0.337,1.51-0.337c0.959,0,1.692,0.298,2.199,0.894c0.508,0.596,0.762,1.459,0.762,2.59V337.299z"
   id="path269" />

		<path
   d="M509.74,337.299v-9.924h-3.68v-2.338h10.488v2.338h-3.68v9.924H509.74z"
   id="path271" />

		<path
   d="M522.89,337.546c-1.772,0-3.132-0.417-4.077-1.252c-0.945-0.834-1.418-2.022-1.418-3.565c0-1.51,0.44-2.715,1.322-3.615     c0.881-0.9,2.112-1.351,3.696-1.351c1.438,0,2.521,0.382,3.245,1.145s1.088,1.855,1.088,3.277v1.038h-6.415     c0.027,0.428,0.119,0.786,0.275,1.074s0.362,0.518,0.619,0.688c0.251,0.171,0.544,0.293,0.878,0.367     c0.335,0.074,0.7,0.11,1.096,0.11c0.34,0,0.675-0.036,1.004-0.11s0.63-0.172,0.903-0.293c0.239-0.104,0.461-0.217,0.665-0.337     c0.203-0.121,0.369-0.229,0.497-0.321h0.31v2.38c-0.239,0.093-0.458,0.18-0.656,0.259c-0.198,0.08-0.47,0.161-0.815,0.243     c-0.318,0.082-0.646,0.146-0.982,0.193C523.786,337.522,523.375,337.546,522.89,337.546z M523.86,331.484     c-0.017-0.609-0.16-1.073-0.431-1.392s-0.685-0.478-1.242-0.478c-0.569,0-1.014,0.168-1.334,0.503     c-0.321,0.335-0.498,0.79-0.531,1.366H523.86z"
   id="path273" />

		<path
   d="M535.276,330.776h-0.242c-0.111-0.038-0.273-0.067-0.485-0.086c-0.212-0.02-0.446-0.029-0.702-0.029     c-0.307,0-0.629,0.044-0.966,0.132c-0.338,0.088-0.665,0.192-0.983,0.313v6.192h-2.927v-9.248h2.927v1.326     c0.134-0.121,0.319-0.273,0.557-0.457c0.236-0.185,0.453-0.331,0.648-0.441c0.211-0.126,0.458-0.234,0.739-0.325     c0.282-0.09,0.548-0.136,0.799-0.136c0.095,0,0.201,0.003,0.318,0.009c0.117,0.005,0.223,0.014,0.317,0.024V330.776z"
   id="path275" />

		<path
   d="M547.964,337.299v-4.62c0-0.455-0.008-0.84-0.024-1.152c-0.018-0.313-0.067-0.568-0.151-0.767     c-0.083-0.197-0.213-0.342-0.389-0.432c-0.176-0.091-0.422-0.136-0.74-0.136c-0.223,0-0.443,0.048-0.66,0.144     c-0.218,0.097-0.455,0.232-0.711,0.408v6.555h-2.944v-4.62c0-0.45-0.01-0.833-0.029-1.148s-0.071-0.572-0.155-0.771     c-0.083-0.197-0.213-0.342-0.389-0.432c-0.176-0.091-0.419-0.136-0.731-0.136c-0.24,0-0.475,0.055-0.703,0.164     c-0.229,0.11-0.451,0.239-0.669,0.388v6.555h-2.927v-9.248h2.927v1.021c0.479-0.401,0.932-0.714,1.355-0.939     c0.424-0.225,0.9-0.337,1.43-0.337c0.574,0,1.079,0.134,1.514,0.403c0.436,0.269,0.767,0.67,0.996,1.202     c0.563-0.516,1.094-0.913,1.593-1.19c0.499-0.276,1.005-0.415,1.519-0.415c0.435,0,0.825,0.068,1.171,0.205     c0.346,0.138,0.638,0.344,0.878,0.618c0.262,0.296,0.458,0.649,0.59,1.058c0.131,0.409,0.196,0.943,0.196,1.603v6.02H547.964z"
   id="path277" />

		<path
   d="M556.873,326.733h-3.095v-2.248h3.095V326.733z M556.789,337.299h-2.927v-9.248h2.927V337.299z"
   id="path279" />

		<path
   d="M567.333,337.299h-2.944v-4.587c0-0.373-0.016-0.745-0.046-1.116c-0.031-0.37-0.088-0.644-0.172-0.819     c-0.101-0.208-0.245-0.358-0.435-0.448c-0.189-0.091-0.443-0.136-0.762-0.136c-0.239,0-0.482,0.044-0.728,0.131     c-0.245,0.088-0.507,0.229-0.786,0.421v6.555h-2.927v-9.248h2.927v1.021c0.479-0.401,0.946-0.714,1.401-0.939     c0.454-0.225,0.957-0.337,1.51-0.337c0.959,0,1.692,0.298,2.199,0.894c0.508,0.596,0.762,1.459,0.762,2.59V337.299z"
   id="path281" />

		<path
   d="M574.625,336.318c-0.2,0.165-0.381,0.313-0.539,0.445c-0.159,0.132-0.372,0.264-0.64,0.396     c-0.263,0.126-0.518,0.222-0.766,0.288c-0.248,0.065-0.596,0.099-1.041,0.099c-0.831,0-1.521-0.274-2.07-0.823     c-0.55-0.549-0.824-1.241-0.824-2.075c0-0.687,0.14-1.241,0.418-1.664c0.279-0.423,0.681-0.758,1.205-1.005     c0.529-0.252,1.162-0.428,1.898-0.526s1.527-0.176,2.375-0.23v-0.05c0-0.511-0.19-0.863-0.572-1.059     c-0.383-0.194-0.955-0.292-1.719-0.292c-0.347,0-0.75,0.062-1.213,0.186c-0.463,0.123-0.915,0.281-1.355,0.474h-0.251v-2.232     c0.29-0.082,0.759-0.18,1.405-0.292s1.299-0.169,1.957-0.169c1.617,0,2.795,0.265,3.534,0.795     c0.738,0.529,1.108,1.338,1.108,2.425v6.292h-2.911V336.318z M574.625,334.886v-1.927c-0.496,0.05-0.897,0.092-1.204,0.128     c-0.307,0.035-0.608,0.105-0.903,0.21c-0.257,0.088-0.456,0.221-0.599,0.399c-0.142,0.178-0.213,0.416-0.213,0.712     c0,0.434,0.118,0.731,0.355,0.894s0.587,0.243,1.05,0.243c0.256,0,0.519-0.058,0.786-0.173S574.407,335.095,574.625,334.886z"
   id="path283" />

		<path
   d="M583.263,337.299h-2.927v-12.813h2.927V337.299z"
   id="path285" />

		<path
   d="M589.816,337.546c-1.772,0-3.132-0.417-4.077-1.252c-0.945-0.834-1.418-2.022-1.418-3.565c0-1.51,0.44-2.715,1.322-3.615     c0.881-0.9,2.112-1.351,3.696-1.351c1.438,0,2.521,0.382,3.245,1.145s1.088,1.855,1.088,3.277v1.038h-6.415     c0.027,0.428,0.119,0.786,0.275,1.074s0.362,0.518,0.619,0.688c0.251,0.171,0.544,0.293,0.878,0.367     c0.335,0.074,0.7,0.11,1.096,0.11c0.34,0,0.675-0.036,1.004-0.11s0.63-0.172,0.903-0.293c0.239-0.104,0.461-0.217,0.665-0.337     c0.203-0.121,0.369-0.229,0.497-0.321h0.31v2.38c-0.239,0.093-0.458,0.18-0.656,0.259c-0.198,0.08-0.47,0.161-0.815,0.243     c-0.318,0.082-0.646,0.146-0.982,0.193C590.713,337.522,590.302,337.546,589.816,337.546z M590.787,331.484     c-0.017-0.609-0.16-1.073-0.431-1.392s-0.685-0.478-1.242-0.478c-0.569,0-1.014,0.168-1.334,0.503     c-0.321,0.335-0.498,0.79-0.531,1.366H590.787z"
   id="path287" />

	</g>

	

		<line
   fill="none"
   stroke="#800000"
   stroke-width="0.7559"
   stroke-linecap="square"
   stroke-miterlimit="10"
   x1="370.646"
   y1="348.036"
   x2="601.11"
   y2="348.036"
   id="line289" />

	<g
   id="g291">

		<path
   d="M389.569,380.127h-4.225v4.159h-1.388v-4.159h-4.224v-1.317h4.224v-4.158h1.388v4.158h4.225V380.127z"
   id="path293" />

		<path
   d="M393.734,374.1h-1.79v-1.606h1.79V374.1z M393.625,384.838h-1.572v-9.198h1.572V384.838z"
   id="path295" />

		<path
   d="M402.489,384.838h-1.572v-5.237c0-0.423-0.021-0.816-0.063-1.182s-0.121-0.658-0.238-0.877     c-0.128-0.231-0.307-0.402-0.535-0.515c-0.229-0.113-0.541-0.169-0.937-0.169c-0.391,0-0.794,0.103-1.209,0.309     s-0.821,0.474-1.217,0.803v6.868h-1.572v-9.198h1.572v1.021c0.469-0.411,0.931-0.728,1.389-0.947     c0.457-0.219,0.939-0.329,1.446-0.329c0.92,0,1.64,0.298,2.158,0.894s0.777,1.459,0.777,2.59V384.838z"
   id="path297" />

		<path
   d="M407.319,385.02c-0.859,0-1.528-0.24-2.008-0.721s-0.719-1.239-0.719-2.277v-5.098h-1.063v-1.284h1.063v-2.644h1.572     v2.644h2.894v1.284h-2.894v4.373c0,0.467,0.008,0.826,0.024,1.079c0.018,0.252,0.081,0.488,0.192,0.708     c0.095,0.192,0.248,0.336,0.46,0.433c0.212,0.096,0.499,0.144,0.862,0.144c0.256,0,0.504-0.037,0.744-0.111     c0.239-0.074,0.412-0.136,0.519-0.185h0.092v1.392c-0.296,0.082-0.596,0.146-0.899,0.193S407.575,385.02,407.319,385.02z"
   id="path299" />

		<path
   d="M414.774,385.052c-1.489,0-2.645-0.413-3.467-1.239c-0.823-0.826-1.234-2-1.234-3.521c0-1.499,0.398-2.691,1.196-3.578     c0.797-0.887,1.84-1.33,3.128-1.33c0.58,0,1.093,0.082,1.539,0.247s0.837,0.423,1.171,0.774c0.335,0.352,0.591,0.781,0.77,1.289     s0.268,1.129,0.268,1.865v0.84h-6.474c0,1.07,0.273,1.889,0.819,2.454c0.547,0.565,1.303,0.848,2.267,0.848     c0.346,0,0.685-0.038,1.017-0.115c0.332-0.076,0.632-0.176,0.899-0.296c0.284-0.127,0.523-0.249,0.719-0.367     c0.195-0.117,0.357-0.229,0.485-0.333h0.092v1.688c-0.184,0.071-0.412,0.16-0.686,0.268c-0.273,0.106-0.519,0.19-0.736,0.251     c-0.307,0.082-0.584,0.146-0.832,0.189S415.153,385.052,414.774,385.052z M416.614,379.213c-0.012-0.417-0.062-0.776-0.15-1.078     c-0.09-0.302-0.218-0.558-0.385-0.767c-0.185-0.23-0.42-0.406-0.707-0.526c-0.287-0.121-0.643-0.182-1.066-0.182     c-0.418,0-0.773,0.062-1.066,0.186c-0.293,0.123-0.559,0.304-0.799,0.539c-0.234,0.242-0.413,0.51-0.535,0.804     c-0.123,0.293-0.201,0.635-0.234,1.024H416.614z"
   id="path301" />

		<path
   d="M425.011,377.303h-0.084c-0.117-0.033-0.241-0.054-0.372-0.062c-0.131-0.009-0.288-0.013-0.473-0.013     c-0.424,0-0.845,0.091-1.263,0.271c-0.418,0.182-0.814,0.45-1.188,0.808v6.53h-1.572v-9.198h1.572v1.366     c0.574-0.499,1.074-0.852,1.501-1.058s0.841-0.309,1.242-0.309c0.162,0,0.283,0.004,0.364,0.012     c0.08,0.009,0.171,0.021,0.271,0.037V377.303z"
   id="path303" />

		<path
   d="M434.12,379.996c0,1.531-0.372,2.752-1.117,3.66c-0.744,0.908-1.685,1.363-2.822,1.363c-0.463,0-0.873-0.053-1.229-0.157     c-0.357-0.104-0.723-0.266-1.096-0.485v3.854h-1.572V375.64h1.572v0.963c0.391-0.346,0.824-0.635,1.301-0.868     s0.996-0.351,1.56-0.351c1.07,0,1.905,0.417,2.505,1.252S434.12,378.59,434.12,379.996z M432.497,380.169     c0-1.049-0.17-1.863-0.51-2.442c-0.341-0.579-0.893-0.868-1.656-0.868c-0.446,0-0.877,0.098-1.292,0.292     c-0.416,0.195-0.811,0.446-1.184,0.754v5.213c0.412,0.197,0.766,0.332,1.058,0.403c0.293,0.071,0.629,0.106,1.008,0.106     c0.814,0,1.447-0.293,1.899-0.881C432.271,382.159,432.497,381.3,432.497,380.169z"
   id="path305" />

		<path
   d="M440.582,377.303h-0.084c-0.117-0.033-0.241-0.054-0.372-0.062c-0.131-0.009-0.288-0.013-0.473-0.013     c-0.424,0-0.845,0.091-1.263,0.271c-0.418,0.182-0.814,0.45-1.188,0.808v6.53h-1.572v-9.198h1.572v1.366     c0.574-0.499,1.074-0.852,1.501-1.058s0.841-0.309,1.242-0.309c0.162,0,0.283,0.004,0.364,0.012     c0.08,0.009,0.171,0.021,0.271,0.037V377.303z"
   id="path307" />

		<path
   d="M445.912,385.052c-1.489,0-2.645-0.413-3.467-1.239c-0.823-0.826-1.234-2-1.234-3.521c0-1.499,0.398-2.691,1.196-3.578     c0.797-0.887,1.84-1.33,3.128-1.33c0.58,0,1.093,0.082,1.539,0.247s0.837,0.423,1.171,0.774c0.335,0.352,0.591,0.781,0.77,1.289     s0.268,1.129,0.268,1.865v0.84h-6.474c0,1.07,0.273,1.889,0.819,2.454c0.547,0.565,1.303,0.848,2.267,0.848     c0.346,0,0.685-0.038,1.017-0.115c0.332-0.076,0.632-0.176,0.899-0.296c0.284-0.127,0.523-0.249,0.719-0.367     c0.195-0.117,0.357-0.229,0.485-0.333h0.092v1.688c-0.184,0.071-0.412,0.16-0.686,0.268c-0.273,0.106-0.519,0.19-0.736,0.251     c-0.307,0.082-0.584,0.146-0.832,0.189S446.291,385.052,445.912,385.052z M447.752,379.213c-0.012-0.417-0.062-0.776-0.15-1.078     c-0.09-0.302-0.218-0.558-0.385-0.767c-0.185-0.23-0.42-0.406-0.707-0.526c-0.287-0.121-0.643-0.182-1.066-0.182     c-0.418,0-0.773,0.062-1.066,0.186c-0.293,0.123-0.559,0.304-0.799,0.539c-0.234,0.242-0.413,0.51-0.535,0.804     c-0.123,0.293-0.201,0.635-0.234,1.024H447.752z"
   id="path309" />

		<path
   d="M454.024,385.02c-0.859,0-1.528-0.24-2.008-0.721s-0.719-1.239-0.719-2.277v-5.098h-1.063v-1.284h1.063v-2.644h1.572     v2.644h2.894v1.284h-2.894v4.373c0,0.467,0.008,0.826,0.024,1.079c0.018,0.252,0.081,0.488,0.192,0.708     c0.095,0.192,0.248,0.336,0.46,0.433c0.212,0.096,0.499,0.144,0.862,0.144c0.256,0,0.504-0.037,0.744-0.111     c0.239-0.074,0.412-0.136,0.519-0.185h0.092v1.392c-0.296,0.082-0.596,0.146-0.899,0.193S454.28,385.02,454.024,385.02z"
   id="path311" />

		<path
   d="M461.479,385.052c-1.489,0-2.645-0.413-3.467-1.239c-0.823-0.826-1.234-2-1.234-3.521c0-1.499,0.398-2.691,1.196-3.578     c0.797-0.887,1.84-1.33,3.128-1.33c0.58,0,1.093,0.082,1.539,0.247s0.837,0.423,1.171,0.774c0.335,0.352,0.591,0.781,0.77,1.289     s0.268,1.129,0.268,1.865v0.84h-6.474c0,1.07,0.273,1.889,0.819,2.454c0.547,0.565,1.303,0.848,2.267,0.848     c0.346,0,0.685-0.038,1.017-0.115c0.332-0.076,0.632-0.176,0.899-0.296c0.284-0.127,0.523-0.249,0.719-0.367     c0.195-0.117,0.357-0.229,0.485-0.333h0.092v1.688c-0.184,0.071-0.412,0.16-0.686,0.268c-0.273,0.106-0.519,0.19-0.736,0.251     c-0.307,0.082-0.584,0.146-0.832,0.189S461.858,385.052,461.479,385.052z M463.319,379.213c-0.012-0.417-0.062-0.776-0.15-1.078     c-0.09-0.302-0.218-0.558-0.385-0.767c-0.185-0.23-0.42-0.406-0.707-0.526c-0.287-0.121-0.643-0.182-1.066-0.182     c-0.418,0-0.773,0.062-1.066,0.186c-0.293,0.123-0.559,0.304-0.799,0.539c-0.234,0.242-0.413,0.51-0.535,0.804     c-0.123,0.293-0.201,0.635-0.234,1.024H463.319z"
   id="path313" />

		<path
   d="M471.716,377.303h-0.084c-0.117-0.033-0.241-0.054-0.372-0.062c-0.131-0.009-0.288-0.013-0.473-0.013     c-0.424,0-0.845,0.091-1.263,0.271c-0.418,0.182-0.814,0.45-1.188,0.808v6.53h-1.572v-9.198h1.572v1.366     c0.574-0.499,1.074-0.852,1.501-1.058s0.841-0.309,1.242-0.309c0.162,0,0.283,0.004,0.364,0.012     c0.08,0.009,0.171,0.021,0.271,0.037V377.303z"
   id="path315" />

		<path
   d="M477.789,388.23h-1.915c-0.971-1.136-1.733-2.339-2.288-3.606c-0.555-1.269-0.832-2.768-0.832-4.497     c0-1.69,0.274-3.18,0.824-4.467c0.549-1.288,1.314-2.5,2.296-3.636h1.915v0.082c-0.452,0.4-0.883,0.863-1.292,1.388     c-0.41,0.524-0.791,1.135-1.142,1.832c-0.335,0.676-0.606,1.419-0.815,2.231c-0.21,0.813-0.314,1.67-0.314,2.569     c0,0.939,0.102,1.799,0.306,2.578c0.203,0.779,0.478,1.521,0.824,2.224c0.334,0.675,0.716,1.286,1.146,1.832     c0.429,0.546,0.858,1.009,1.288,1.388V388.23z"
   id="path317" />

		<path
   d="M486.479,384.838h-1.933l-2.267-3.476l-2.333,3.476h-1.781l3.245-4.563l-3.212-4.636h1.932l2.25,3.441l2.309-3.441h1.79     l-3.229,4.529L486.479,384.838z"
   id="path319" />

		<path
   d="M491.451,377.986h-1.999v-2.347h1.999V377.986z M491.451,384.838h-1.999v-2.347h1.999V384.838z"
   id="path321" />

		<path
   d="M504.462,385.061c-0.814,0-1.563-0.135-2.246-0.404c-0.683-0.269-1.272-0.669-1.769-1.202     c-0.496-0.532-0.881-1.196-1.154-1.992c-0.273-0.797-0.41-1.711-0.41-2.743c0-1.026,0.133-1.921,0.397-2.685     c0.265-0.763,0.651-1.427,1.158-1.992c0.496-0.549,1.085-0.968,1.765-1.256c0.681-0.289,1.441-0.433,2.284-0.433     c0.418,0,0.81,0.03,1.175,0.091s0.704,0.137,1.016,0.23c0.268,0.082,0.543,0.186,0.824,0.309c0.281,0.124,0.559,0.26,0.832,0.407     v1.969H508.2c-0.145-0.132-0.332-0.291-0.561-0.478s-0.507-0.371-0.836-0.552c-0.318-0.17-0.664-0.311-1.037-0.42     c-0.374-0.11-0.806-0.165-1.297-0.165c-0.529,0-1.031,0.107-1.505,0.321c-0.475,0.214-0.89,0.53-1.246,0.947     c-0.352,0.417-0.625,0.941-0.82,1.572c-0.195,0.632-0.292,1.343-0.292,2.133c0,0.841,0.103,1.563,0.309,2.17     c0.207,0.607,0.488,1.119,0.845,1.536c0.346,0.406,0.753,0.713,1.222,0.918c0.469,0.206,0.965,0.31,1.488,0.31     c0.479,0,0.923-0.058,1.33-0.173s0.77-0.261,1.088-0.437c0.306-0.171,0.571-0.345,0.794-0.523c0.223-0.178,0.398-0.33,0.527-0.457     h0.125v1.943c-0.273,0.127-0.531,0.247-0.773,0.362s-0.537,0.229-0.883,0.338c-0.362,0.115-0.698,0.203-1.008,0.264     S504.958,385.061,504.462,385.061z"
   id="path323" />

		<path
   d="M518.042,380.243c0,1.548-0.38,2.743-1.138,3.586c-0.759,0.843-1.768,1.264-3.028,1.264c-1.299,0-2.32-0.435-3.064-1.305     c-0.745-0.87-1.117-2.052-1.117-3.545c0-1.538,0.384-2.731,1.15-3.583c0.767-0.851,1.777-1.276,3.031-1.276     c1.261,0,2.27,0.424,3.028,1.272C517.662,377.505,518.042,378.7,518.042,380.243z M516.419,380.243     c0-1.191-0.221-2.077-0.661-2.656s-1.067-0.869-1.882-0.869c-0.819,0-1.45,0.29-1.894,0.869s-0.665,1.465-0.665,2.656     c0,1.152,0.222,2.026,0.665,2.622s1.074,0.894,1.894,0.894c0.809,0,1.435-0.292,1.878-0.877S516.419,381.418,516.419,380.243z"
   id="path325" />

		<path
   d="M527.033,384.838h-1.572v-5.237c0-0.423-0.021-0.816-0.063-1.182s-0.121-0.658-0.238-0.877     c-0.128-0.231-0.307-0.402-0.535-0.515c-0.229-0.113-0.541-0.169-0.937-0.169c-0.391,0-0.794,0.103-1.209,0.309     s-0.821,0.474-1.217,0.803v6.868h-1.572v-9.198h1.572v1.021c0.469-0.411,0.931-0.728,1.389-0.947     c0.457-0.219,0.939-0.329,1.446-0.329c0.92,0,1.64,0.298,2.158,0.894s0.777,1.459,0.777,2.59V384.838z"
   id="path327" />

		<path
   d="M531.863,385.02c-0.859,0-1.528-0.24-2.008-0.721s-0.719-1.239-0.719-2.277v-5.098h-1.063v-1.284h1.063v-2.644h1.572     v2.644h2.894v1.284h-2.894v4.373c0,0.467,0.008,0.826,0.024,1.079c0.018,0.252,0.081,0.488,0.192,0.708     c0.095,0.192,0.248,0.336,0.46,0.433c0.212,0.096,0.499,0.144,0.862,0.144c0.256,0,0.504-0.037,0.744-0.111     c0.239-0.074,0.412-0.136,0.519-0.185h0.092v1.392c-0.296,0.082-0.596,0.146-0.899,0.193S532.119,385.02,531.863,385.02z"
   id="path329" />

		<path
   d="M539.319,385.052c-1.489,0-2.645-0.413-3.467-1.239c-0.823-0.826-1.234-2-1.234-3.521c0-1.499,0.398-2.691,1.196-3.578     c0.797-0.887,1.84-1.33,3.128-1.33c0.58,0,1.093,0.082,1.539,0.247s0.837,0.423,1.171,0.774c0.335,0.352,0.591,0.781,0.77,1.289     s0.268,1.129,0.268,1.865v0.84h-6.474c0,1.07,0.273,1.889,0.819,2.454c0.547,0.565,1.303,0.848,2.267,0.848     c0.346,0,0.685-0.038,1.017-0.115c0.332-0.076,0.632-0.176,0.899-0.296c0.284-0.127,0.523-0.249,0.719-0.367     c0.195-0.117,0.357-0.229,0.485-0.333h0.092v1.688c-0.184,0.071-0.412,0.16-0.686,0.268c-0.273,0.106-0.519,0.19-0.736,0.251     c-0.307,0.082-0.584,0.146-0.832,0.189S539.698,385.052,539.319,385.052z M541.159,379.213c-0.012-0.417-0.062-0.776-0.15-1.078     c-0.09-0.302-0.218-0.558-0.385-0.767c-0.185-0.23-0.42-0.406-0.707-0.526c-0.287-0.121-0.643-0.182-1.066-0.182     c-0.418,0-0.773,0.062-1.066,0.186c-0.293,0.123-0.559,0.304-0.799,0.539c-0.234,0.242-0.413,0.51-0.535,0.804     c-0.123,0.293-0.201,0.635-0.234,1.024H541.159z"
   id="path331" />

		<path
   d="M551.864,384.838h-1.933l-2.267-3.476l-2.333,3.476h-1.781l3.245-4.563l-3.212-4.636h1.932l2.25,3.441l2.309-3.441h1.79     l-3.229,4.529L551.864,384.838z"
   id="path333" />

		<path
   d="M556.769,385.02c-0.859,0-1.528-0.24-2.008-0.721s-0.719-1.239-0.719-2.277v-5.098h-1.063v-1.284h1.063v-2.644h1.572     v2.644h2.894v1.284h-2.894v4.373c0,0.467,0.008,0.826,0.024,1.079c0.018,0.252,0.081,0.488,0.192,0.708     c0.095,0.192,0.248,0.336,0.46,0.433c0.212,0.096,0.499,0.144,0.862,0.144c0.256,0,0.504-0.037,0.744-0.111     c0.239-0.074,0.412-0.136,0.519-0.185h0.092v1.392c-0.296,0.082-0.596,0.146-0.899,0.193S557.024,385.02,556.769,385.02z"
   id="path335" />

		<path
   d="M564.225,385.052c-1.489,0-2.645-0.413-3.467-1.239c-0.823-0.826-1.234-2-1.234-3.521c0-1.499,0.398-2.691,1.196-3.578     c0.797-0.887,1.84-1.33,3.128-1.33c0.58,0,1.093,0.082,1.539,0.247s0.837,0.423,1.171,0.774c0.335,0.352,0.591,0.781,0.77,1.289     s0.268,1.129,0.268,1.865v0.84h-6.474c0,1.07,0.273,1.889,0.819,2.454c0.547,0.565,1.303,0.848,2.267,0.848     c0.346,0,0.685-0.038,1.017-0.115c0.332-0.076,0.632-0.176,0.899-0.296c0.284-0.127,0.523-0.249,0.719-0.367     c0.195-0.117,0.357-0.229,0.485-0.333h0.092v1.688c-0.184,0.071-0.412,0.16-0.686,0.268c-0.273,0.106-0.519,0.19-0.736,0.251     c-0.307,0.082-0.584,0.146-0.832,0.189S564.604,385.052,564.225,385.052z M566.064,379.213c-0.012-0.417-0.062-0.776-0.15-1.078     c-0.09-0.302-0.218-0.558-0.385-0.767c-0.185-0.23-0.42-0.406-0.707-0.526c-0.287-0.121-0.643-0.182-1.066-0.182     c-0.418,0-0.773,0.062-1.066,0.186c-0.293,0.123-0.559,0.304-0.799,0.539c-0.234,0.242-0.413,0.51-0.535,0.804     c-0.123,0.293-0.201,0.635-0.234,1.024H566.064z"
   id="path337" />

		<path
   d="M574.025,380.127c0,1.697-0.276,3.188-0.828,4.472c-0.553,1.285-1.316,2.496-2.292,3.632h-1.915v-0.082     c0.429-0.379,0.861-0.844,1.296-1.396c0.436-0.552,0.814-1.16,1.138-1.824c0.346-0.708,0.62-1.456,0.824-2.244     c0.203-0.788,0.305-1.641,0.305-2.558c0-0.905-0.103-1.762-0.31-2.569c-0.206-0.807-0.479-1.551-0.819-2.231     s-0.725-1.293-1.154-1.836c-0.43-0.544-0.855-1.005-1.279-1.384v-0.082h1.915c0.971,1.136,1.732,2.344,2.287,3.623     C573.748,376.927,574.025,378.42,574.025,380.127z"
   id="path339" />

	</g>

	

		<line
   fill="none"
   stroke="#800000"
   stroke-width="0.7559"
   stroke-linecap="square"
   stroke-miterlimit="10"
   x1="370.646"
   y1="361.834"
   x2="601.11"
   y2="361.834"
   id="line341" />

	

		<line
   fill="none"
   stroke="#800000"
   stroke-width="0.7559"
   stroke-linecap="square"
   stroke-miterlimit="10"
   x1="132.396"
   y1="101.185"
   x2="221.156"
   y2="64.388"
   id="line343" />

	<polyline
   fill="none"
   stroke="#800000"
   stroke-width="0.7559"
   stroke-linecap="square"
   stroke-miterlimit="10"
   points="    210.256,75.12 221.156,64.388 205.584,64.388  "
   id="polyline345" />

	

		<line
   fill="none"
   stroke="#800000"
   stroke-width="0.7559"
   stroke-linecap="square"
   stroke-miterlimit="10"
   x1="132.396"
   y1="148.715"
   x2="214.928"
   y2="148.715"
   id="line347" />

	<polyline
   fill="none"
   stroke="#800000"
   stroke-width="0.7559"
   stroke-linecap="square"
   stroke-miterlimit="10"
   points="    199.355,154.848 214.928,148.715 199.355,142.583  "
   id="polyline349" />

	<polyline
   fill="none"
   stroke="#800000"
   stroke-width="0.7559"
   stroke-linecap="square"
   stroke-miterlimit="10"
   points="    538.822,314.305 538.822,179.38 425.147,179.38  "
   id="polyline351" />

	<polyline
   fill="none"
   stroke="#800000"
   stroke-width="0.7559"
   stroke-linecap="square"
   stroke-miterlimit="10"
   points="    440.719,173.246 425.147,179.38 440.719,185.512  "
   id="polyline353" />

	

		<polygon
   fill-rule="evenodd"
   clip-rule="evenodd"
   fill="#800000"
   stroke="#800000"
   stroke-width="0.7559"
   stroke-linecap="square"
   stroke-miterlimit="10"
   points="    532.595,298.972 538.822,314.305 545.052,298.972 538.822,282.107  "
   id="polygon355" />

	<g
   id="g357">

		<path
   d="M461.59,161.355l-0.543,0.906l-2.735-1.787l0.059,2.998h-1.045l0.05-2.998l-2.719,1.795l-0.552-0.906l2.961-1.705     l-2.961-1.705l0.552-0.906l2.728,1.803l-0.059-3.006h1.045l-0.066,3.006l2.743-1.795l0.543,0.906l-2.96,1.688L461.59,161.355z"
   id="path359" />

	</g>

	

		<line
   fill="none"
   stroke="#800000"
   stroke-width="0.7559"
   stroke-linecap="square"
   stroke-miterlimit="10"
   x1="207.141"
   y1="314.305"
   x2="286.558"
   y2="208.511"
   id="line361" />

	

		<polygon
   fill-rule="evenodd"
   clip-rule="evenodd"
   fill="#FFFFFF"
   stroke="#800000"
   stroke-width="0.7559"
   stroke-linecap="square"
   stroke-miterlimit="10"
   points="    278.771,240.708 286.558,208.511 258.529,225.377  "
   id="polygon363" />

	

		<line
   fill="none"
   stroke="#800000"
   stroke-width="0.7559"
   stroke-linecap="square"
   stroke-miterlimit="10"
   x1="450.063"
   y1="314.305"
   x2="356.632"
   y2="208.511"
   id="line365" />

	

		<polygon
   fill-rule="evenodd"
   clip-rule="evenodd"
   fill="#FFFFFF"
   stroke="#800000"
   stroke-width="0.7559"
   stroke-linecap="square"
   stroke-miterlimit="10"
   points="    386.217,222.311 356.632,208.511 365.976,239.175  "
   id="polygon367" />

</g>

</svg>